<svg width="661" height="294" viewBox="0 0 661 294" fill="none" xmlns="http://www.w3.org/2000/svg">
<rect width="661" height="294" rx="20" fill="#F9D366"/>
<path d="M278.845 83.96V98H275.425V92.22H270.105V98H266.685V83.96H270.105V89.46H275.425V83.96H278.845ZM280.634 92.4C280.634 91.2533 280.848 90.2467 281.274 89.38C281.714 88.5133 282.308 87.8467 283.054 87.38C283.801 86.9133 284.634 86.68 285.554 86.68C286.341 86.68 287.028 86.84 287.614 87.16C288.214 87.48 288.674 87.9 288.994 88.42V86.84H292.414V98H288.994V96.42C288.661 96.94 288.194 97.36 287.594 97.68C287.008 98 286.321 98.16 285.534 98.16C284.628 98.16 283.801 97.9267 283.054 97.46C282.308 96.98 281.714 96.3067 281.274 95.44C280.848 94.56 280.634 93.5467 280.634 92.4ZM288.994 92.42C288.994 91.5667 288.754 90.8933 288.274 90.4C287.808 89.9067 287.234 89.66 286.554 89.66C285.874 89.66 285.294 89.9067 284.814 90.4C284.348 90.88 284.114 91.5467 284.114 92.4C284.114 93.2533 284.348 93.9333 284.814 94.44C285.294 94.9333 285.874 95.18 286.554 95.18C287.234 95.18 287.808 94.9333 288.274 94.44C288.754 93.9467 288.994 93.2733 288.994 92.42ZM299.908 94.8L302.328 86.84H305.968L302.008 98H297.788L293.828 86.84H297.488L299.908 94.8ZM317.928 92.24C317.928 92.56 317.908 92.8933 317.868 93.24H310.128C310.181 93.9333 310.401 94.4667 310.788 94.84C311.188 95.2 311.675 95.38 312.248 95.38C313.101 95.38 313.695 95.02 314.028 94.3H317.668C317.481 95.0333 317.141 95.6933 316.648 96.28C316.168 96.8667 315.561 97.3267 314.828 97.66C314.095 97.9933 313.275 98.16 312.368 98.16C311.275 98.16 310.301 97.9267 309.448 97.46C308.595 96.9933 307.928 96.3267 307.448 95.46C306.968 94.5933 306.728 93.58 306.728 92.42C306.728 91.26 306.961 90.2467 307.428 89.38C307.908 88.5133 308.575 87.8467 309.428 87.38C310.281 86.9133 311.261 86.68 312.368 86.68C313.448 86.68 314.408 86.9067 315.248 87.36C316.088 87.8133 316.741 88.46 317.208 89.3C317.688 90.14 317.928 91.12 317.928 92.24ZM314.428 91.34C314.428 90.7533 314.228 90.2867 313.828 89.94C313.428 89.5933 312.928 89.42 312.328 89.42C311.755 89.42 311.268 89.5867 310.868 89.92C310.481 90.2533 310.241 90.7267 310.148 91.34H314.428ZM327.39 83.2V98H323.97V83.2H327.39ZM340.389 92.24C340.389 92.56 340.369 92.8933 340.329 93.24H332.589C332.642 93.9333 332.862 94.4667 333.249 94.84C333.649 95.2 334.136 95.38 334.709 95.38C335.562 95.38 336.156 95.02 336.489 94.3H340.129C339.942 95.0333 339.602 95.6933 339.109 96.28C338.629 96.8667 338.022 97.3267 337.289 97.66C336.556 97.9933 335.736 98.16 334.829 98.16C333.736 98.16 332.762 97.9267 331.909 97.46C331.056 96.9933 330.389 96.3267 329.909 95.46C329.429 94.5933 329.189 93.58 329.189 92.42C329.189 91.26 329.422 90.2467 329.889 89.38C330.369 88.5133 331.036 87.8467 331.889 87.38C332.742 86.9133 333.722 86.68 334.829 86.68C335.909 86.68 336.869 86.9067 337.709 87.36C338.549 87.8133 339.202 88.46 339.669 89.3C340.149 90.14 340.389 91.12 340.389 92.24ZM336.889 91.34C336.889 90.7533 336.689 90.2867 336.289 89.94C335.889 89.5933 335.389 89.42 334.789 89.42C334.216 89.42 333.729 89.5867 333.329 89.92C332.942 90.2533 332.702 90.7267 332.609 91.34H336.889ZM341.513 92.42C341.513 91.26 341.746 90.2467 342.213 89.38C342.693 88.5133 343.353 87.8467 344.193 87.38C345.046 86.9133 346.02 86.68 347.113 86.68C348.513 86.68 349.68 87.0467 350.613 87.78C351.56 88.5133 352.18 89.5467 352.473 90.88H348.833C348.526 90.0267 347.933 89.6 347.053 89.6C346.426 89.6 345.926 89.8467 345.553 90.34C345.18 90.82 344.993 91.5133 344.993 92.42C344.993 93.3267 345.18 94.0267 345.553 94.52C345.926 95 346.426 95.24 347.053 95.24C347.933 95.24 348.526 94.8133 348.833 93.96H352.473C352.18 95.2667 351.56 96.2933 350.613 97.04C349.666 97.7867 348.5 98.16 347.113 98.16C346.02 98.16 345.046 97.9267 344.193 97.46C343.353 96.9933 342.693 96.3267 342.213 95.46C341.746 94.5933 341.513 93.58 341.513 92.42ZM360.523 95.1V98H358.783C357.543 98 356.576 97.7 355.883 97.1C355.189 96.4867 354.843 95.4933 354.843 94.12V89.68H353.483V86.84H354.843V84.12H358.263V86.84H360.503V89.68H358.263V94.16C358.263 94.4933 358.343 94.7333 358.503 94.88C358.663 95.0267 358.929 95.1 359.303 95.1H360.523ZM373.448 86.84V98H370.028V96.48C369.681 96.9733 369.208 97.3733 368.608 97.68C368.021 97.9733 367.368 98.12 366.648 98.12C365.794 98.12 365.041 97.9333 364.388 97.56C363.734 97.1733 363.228 96.62 362.868 95.9C362.508 95.18 362.328 94.3333 362.328 93.36V86.84H365.728V92.9C365.728 93.6467 365.921 94.2267 366.308 94.64C366.694 95.0533 367.214 95.26 367.868 95.26C368.534 95.26 369.061 95.0533 369.448 94.64C369.834 94.2267 370.028 93.6467 370.028 92.9V86.84H373.448ZM379.324 88.7C379.724 88.0867 380.224 87.6067 380.824 87.26C381.424 86.9 382.091 86.72 382.824 86.72V90.34H381.884C381.031 90.34 380.391 90.5267 379.964 90.9C379.537 91.26 379.324 91.9 379.324 92.82V98H375.904V86.84H379.324V88.7ZM394.979 92.24C394.979 92.56 394.959 92.8933 394.919 93.24H387.179C387.232 93.9333 387.452 94.4667 387.839 94.84C388.239 95.2 388.725 95.38 389.299 95.38C390.152 95.38 390.745 95.02 391.079 94.3H394.719C394.532 95.0333 394.192 95.6933 393.699 96.28C393.219 96.8667 392.612 97.3267 391.879 97.66C391.145 97.9933 390.325 98.16 389.419 98.16C388.325 98.16 387.352 97.9267 386.499 97.46C385.645 96.9933 384.979 96.3267 384.499 95.46C384.019 94.5933 383.779 93.58 383.779 92.42C383.779 91.26 384.012 90.2467 384.479 89.38C384.959 88.5133 385.625 87.8467 386.479 87.38C387.332 86.9133 388.312 86.68 389.419 86.68C390.499 86.68 391.459 86.9067 392.299 87.36C393.139 87.8133 393.792 88.46 394.259 89.3C394.739 90.14 394.979 91.12 394.979 92.24ZM391.479 91.34C391.479 90.7533 391.279 90.2867 390.879 89.94C390.479 89.5933 389.979 89.42 389.379 89.42C388.805 89.42 388.319 89.5867 387.919 89.92C387.532 90.2533 387.292 90.7267 387.199 91.34H391.479ZM407.821 86.72C409.128 86.72 410.168 87.1467 410.941 88C411.728 88.84 412.121 90 412.121 91.48V98H408.721V91.94C408.721 91.1933 408.528 90.6133 408.141 90.2C407.755 89.7867 407.235 89.58 406.581 89.58C405.928 89.58 405.408 89.7867 405.021 90.2C404.635 90.6133 404.441 91.1933 404.441 91.94V98H401.021V86.84H404.441V88.32C404.788 87.8267 405.255 87.44 405.841 87.16C406.428 86.8667 407.088 86.72 407.821 86.72ZM419.578 98.16C418.484 98.16 417.498 97.9267 416.618 97.46C415.751 96.9933 415.064 96.3267 414.558 95.46C414.064 94.5933 413.818 93.58 413.818 92.42C413.818 91.2733 414.071 90.2667 414.578 89.4C415.084 88.52 415.778 87.8467 416.658 87.38C417.538 86.9133 418.524 86.68 419.618 86.68C420.711 86.68 421.698 86.9133 422.578 87.38C423.458 87.8467 424.151 88.52 424.658 89.4C425.164 90.2667 425.418 91.2733 425.418 92.42C425.418 93.5667 425.158 94.58 424.638 95.46C424.131 96.3267 423.431 96.9933 422.538 97.46C421.658 97.9267 420.671 98.16 419.578 98.16ZM419.578 95.2C420.231 95.2 420.784 94.96 421.238 94.48C421.704 94 421.938 93.3133 421.938 92.42C421.938 91.5267 421.711 90.84 421.258 90.36C420.818 89.88 420.271 89.64 419.618 89.64C418.951 89.64 418.398 89.88 417.958 90.36C417.518 90.8267 417.298 91.5133 417.298 92.42C417.298 93.3133 417.511 94 417.938 94.48C418.378 94.96 418.924 95.2 419.578 95.2ZM433.452 95.1V98H431.712C430.472 98 429.506 97.7 428.812 97.1C428.119 96.4867 427.772 95.4933 427.772 94.12V89.68H426.412V86.84H427.772V84.12H431.192V86.84H433.432V89.68H431.192V94.16C431.192 94.4933 431.272 94.7333 431.432 94.88C431.592 95.0267 431.859 95.1 432.232 95.1H433.452ZM445.877 92.24C445.877 92.56 445.857 92.8933 445.817 93.24H438.077C438.131 93.9333 438.351 94.4667 438.737 94.84C439.137 95.2 439.624 95.38 440.197 95.38C441.051 95.38 441.644 95.02 441.977 94.3H445.617C445.431 95.0333 445.091 95.6933 444.597 96.28C444.117 96.8667 443.511 97.3267 442.777 97.66C442.044 97.9933 441.224 98.16 440.317 98.16C439.224 98.16 438.251 97.9267 437.397 97.46C436.544 96.9933 435.877 96.3267 435.397 95.46C434.917 94.5933 434.677 93.58 434.677 92.42C434.677 91.26 434.911 90.2467 435.377 89.38C435.857 88.5133 436.524 87.8467 437.377 87.38C438.231 86.9133 439.211 86.68 440.317 86.68C441.397 86.68 442.357 86.9067 443.197 87.36C444.037 87.8133 444.691 88.46 445.157 89.3C445.637 90.14 445.877 91.12 445.877 92.24ZM442.377 91.34C442.377 90.7533 442.177 90.2867 441.777 89.94C441.377 89.5933 440.877 89.42 440.277 89.42C439.704 89.42 439.217 89.5867 438.817 89.92C438.431 90.2533 438.191 90.7267 438.097 91.34H442.377ZM452.221 98.16C451.248 98.16 450.381 97.9933 449.621 97.66C448.861 97.3267 448.261 96.8733 447.821 96.3C447.381 95.7133 447.135 95.06 447.081 94.34H450.461C450.501 94.7267 450.681 95.04 451.001 95.28C451.321 95.52 451.715 95.64 452.181 95.64C452.608 95.64 452.935 95.56 453.161 95.4C453.401 95.2267 453.521 95.0067 453.521 94.74C453.521 94.42 453.355 94.1867 453.021 94.04C452.688 93.88 452.148 93.7067 451.401 93.52C450.601 93.3333 449.935 93.14 449.401 92.94C448.868 92.7267 448.408 92.4 448.021 91.96C447.635 91.5067 447.441 90.9 447.441 90.14C447.441 89.5 447.615 88.92 447.961 88.4C448.321 87.8667 448.841 87.4467 449.521 87.14C450.215 86.8333 451.035 86.68 451.981 86.68C453.381 86.68 454.481 87.0267 455.281 87.72C456.095 88.4133 456.561 89.3333 456.681 90.48H453.521C453.468 90.0933 453.295 89.7867 453.001 89.56C452.721 89.3333 452.348 89.22 451.881 89.22C451.481 89.22 451.175 89.3 450.961 89.46C450.748 89.6067 450.641 89.8133 450.641 90.08C450.641 90.4 450.808 90.64 451.141 90.8C451.488 90.96 452.021 91.12 452.741 91.28C453.568 91.4933 454.241 91.7067 454.761 91.92C455.281 92.12 455.735 92.4533 456.121 92.92C456.521 93.3733 456.728 93.9867 456.741 94.76C456.741 95.4133 456.555 96 456.181 96.52C455.821 97.0267 455.295 97.4267 454.601 97.72C453.921 98.0133 453.128 98.16 452.221 98.16ZM474.472 86.84L467.472 103.3H463.792L466.352 97.62L461.812 86.84H465.632L468.212 93.82L470.772 86.84H474.472ZM480.789 98.16C479.695 98.16 478.709 97.9267 477.829 97.46C476.962 96.9933 476.275 96.3267 475.769 95.46C475.275 94.5933 475.029 93.58 475.029 92.42C475.029 91.2733 475.282 90.2667 475.789 89.4C476.295 88.52 476.989 87.8467 477.869 87.38C478.749 86.9133 479.735 86.68 480.829 86.68C481.922 86.68 482.909 86.9133 483.789 87.38C484.669 87.8467 485.362 88.52 485.869 89.4C486.375 90.2667 486.629 91.2733 486.629 92.42C486.629 93.5667 486.369 94.58 485.849 95.46C485.342 96.3267 484.642 96.9933 483.749 97.46C482.869 97.9267 481.882 98.16 480.789 98.16ZM480.789 95.2C481.442 95.2 481.995 94.96 482.449 94.48C482.915 94 483.149 93.3133 483.149 92.42C483.149 91.5267 482.922 90.84 482.469 90.36C482.029 89.88 481.482 89.64 480.829 89.64C480.162 89.64 479.609 89.88 479.169 90.36C478.729 90.8267 478.509 91.5133 478.509 92.42C478.509 93.3133 478.722 94 479.149 94.48C479.589 94.96 480.135 95.2 480.789 95.2ZM499.463 86.84V98H496.043V96.48C495.696 96.9733 495.223 97.3733 494.623 97.68C494.036 97.9733 493.383 98.12 492.663 98.12C491.81 98.12 491.056 97.9333 490.403 97.56C489.75 97.1733 489.243 96.62 488.883 95.9C488.523 95.18 488.343 94.3333 488.343 93.36V86.84H491.743V92.9C491.743 93.6467 491.936 94.2267 492.323 94.64C492.71 95.0533 493.23 95.26 493.883 95.26C494.55 95.26 495.076 95.0533 495.463 94.64C495.85 94.2267 496.043 93.6467 496.043 92.9V86.84H499.463ZM502.7 83.96H506.2L503.96 89.32H501.66L502.7 83.96ZM511.629 88.7C512.029 88.0867 512.529 87.6067 513.129 87.26C513.729 86.9 514.395 86.72 515.129 86.72V90.34H514.189C513.335 90.34 512.695 90.5267 512.269 90.9C511.842 91.26 511.629 91.9 511.629 92.82V98H508.209V86.84H511.629V88.7ZM527.283 92.24C527.283 92.56 527.263 92.8933 527.223 93.24H519.483C519.537 93.9333 519.757 94.4667 520.143 94.84C520.543 95.2 521.03 95.38 521.603 95.38C522.457 95.38 523.05 95.02 523.383 94.3H527.023C526.837 95.0333 526.497 95.6933 526.003 96.28C525.523 96.8667 524.917 97.3267 524.183 97.66C523.45 97.9933 522.63 98.16 521.723 98.16C520.63 98.16 519.657 97.9267 518.803 97.46C517.95 96.9933 517.283 96.3267 516.803 95.46C516.323 94.5933 516.083 93.58 516.083 92.42C516.083 91.26 516.317 90.2467 516.783 89.38C517.263 88.5133 517.93 87.8467 518.783 87.38C519.637 86.9133 520.617 86.68 521.723 86.68C522.803 86.68 523.763 86.9067 524.603 87.36C525.443 87.8133 526.097 88.46 526.563 89.3C527.043 90.14 527.283 91.12 527.283 92.24ZM523.783 91.34C523.783 90.7533 523.583 90.2867 523.183 89.94C522.783 89.5933 522.283 89.42 521.683 89.42C521.11 89.42 520.623 89.5867 520.223 89.92C519.837 90.2533 519.597 90.7267 519.503 91.34H523.783ZM536.746 88.42C537.079 87.9 537.539 87.48 538.126 87.16C538.713 86.84 539.399 86.68 540.186 86.68C541.106 86.68 541.939 86.9133 542.686 87.38C543.433 87.8467 544.019 88.5133 544.446 89.38C544.886 90.2467 545.106 91.2533 545.106 92.4C545.106 93.5467 544.886 94.56 544.446 95.44C544.019 96.3067 543.433 96.98 542.686 97.46C541.939 97.9267 541.106 98.16 540.186 98.16C539.413 98.16 538.726 98 538.126 97.68C537.539 97.36 537.079 96.9467 536.746 96.44V103.32H533.326V86.84H536.746V88.42ZM541.626 92.4C541.626 91.5467 541.386 90.88 540.906 90.4C540.439 89.9067 539.859 89.66 539.166 89.66C538.486 89.66 537.906 89.9067 537.426 90.4C536.959 90.8933 536.726 91.5667 536.726 92.42C536.726 93.2733 536.959 93.9467 537.426 94.44C537.906 94.9333 538.486 95.18 539.166 95.18C539.846 95.18 540.426 94.9333 540.906 94.44C541.386 93.9333 541.626 93.2533 541.626 92.4ZM550.32 88.7C550.72 88.0867 551.22 87.6067 551.82 87.26C552.42 86.9 553.087 86.72 553.82 86.72V90.34H552.88C552.027 90.34 551.387 90.5267 550.96 90.9C550.533 91.26 550.32 91.9 550.32 92.82V98H546.9V86.84H550.32V88.7ZM560.535 98.16C559.442 98.16 558.455 97.9267 557.575 97.46C556.708 96.9933 556.022 96.3267 555.515 95.46C555.022 94.5933 554.775 93.58 554.775 92.42C554.775 91.2733 555.028 90.2667 555.535 89.4C556.042 88.52 556.735 87.8467 557.615 87.38C558.495 86.9133 559.482 86.68 560.575 86.68C561.668 86.68 562.655 86.9133 563.535 87.38C564.415 87.8467 565.108 88.52 565.615 89.4C566.122 90.2667 566.375 91.2733 566.375 92.42C566.375 93.5667 566.115 94.58 565.595 95.46C565.088 96.3267 564.388 96.9933 563.495 97.46C562.615 97.9267 561.628 98.16 560.535 98.16ZM560.535 95.2C561.188 95.2 561.742 94.96 562.195 94.48C562.662 94 562.895 93.3133 562.895 92.42C562.895 91.5267 562.668 90.84 562.215 90.36C561.775 89.88 561.228 89.64 560.575 89.64C559.908 89.64 559.355 89.88 558.915 90.36C558.475 90.8267 558.255 91.5133 558.255 92.42C558.255 93.3133 558.468 94 558.895 94.48C559.335 94.96 559.882 95.2 560.535 95.2ZM579.209 86.84V98H575.789V96.48C575.443 96.9733 574.969 97.3733 574.369 97.68C573.783 97.9733 573.129 98.12 572.409 98.12C571.556 98.12 570.803 97.9333 570.149 97.56C569.496 97.1733 568.989 96.62 568.629 95.9C568.269 95.18 568.089 94.3333 568.089 93.36V86.84H571.489V92.9C571.489 93.6467 571.683 94.2267 572.069 94.64C572.456 95.0533 572.976 95.26 573.629 95.26C574.296 95.26 574.823 95.0533 575.209 94.64C575.596 94.2267 575.789 93.6467 575.789 92.9V86.84H579.209ZM580.986 92.4C580.986 91.2533 581.199 90.2467 581.626 89.38C582.066 88.5133 582.659 87.8467 583.406 87.38C584.152 86.9133 584.986 86.68 585.906 86.68C586.639 86.68 587.306 86.8333 587.906 87.14C588.519 87.4467 588.999 87.86 589.346 88.38V83.2H592.766V98H589.346V96.4C589.026 96.9333 588.566 97.36 587.966 97.68C587.379 98 586.692 98.16 585.906 98.16C584.986 98.16 584.152 97.9267 583.406 97.46C582.659 96.98 582.066 96.3067 581.626 95.44C581.199 94.56 580.986 93.5467 580.986 92.4ZM589.346 92.42C589.346 91.5667 589.106 90.8933 588.626 90.4C588.159 89.9067 587.586 89.66 586.906 89.66C586.226 89.66 585.646 89.9067 585.166 90.4C584.699 90.88 584.466 91.5467 584.466 92.4C584.466 93.2533 584.699 93.9333 585.166 94.44C585.646 94.9333 586.226 95.18 586.906 95.18C587.586 95.18 588.159 94.9333 588.626 94.44C589.106 93.9467 589.346 93.2733 589.346 92.42ZM337.039 128.16C335.945 128.16 334.959 127.927 334.079 127.46C333.212 126.993 332.525 126.327 332.019 125.46C331.525 124.593 331.279 123.58 331.279 122.42C331.279 121.273 331.532 120.267 332.039 119.4C332.545 118.52 333.239 117.847 334.119 117.38C334.999 116.913 335.985 116.68 337.079 116.68C338.172 116.68 339.159 116.913 340.039 117.38C340.919 117.847 341.612 118.52 342.119 119.4C342.625 120.267 342.879 121.273 342.879 122.42C342.879 123.567 342.619 124.58 342.099 125.46C341.592 126.327 340.892 126.993 339.999 127.46C339.119 127.927 338.132 128.16 337.039 128.16ZM337.039 125.2C337.692 125.2 338.245 124.96 338.699 124.48C339.165 124 339.399 123.313 339.399 122.42C339.399 121.527 339.172 120.84 338.719 120.36C338.279 119.88 337.732 119.64 337.079 119.64C336.412 119.64 335.859 119.88 335.419 120.36C334.979 120.827 334.759 121.513 334.759 122.42C334.759 123.313 334.972 124 335.399 124.48C335.839 124.96 336.385 125.2 337.039 125.2ZM350.293 119.68H348.453V128H345.033V119.68H343.793V116.84H345.033V116.52C345.033 115.147 345.426 114.107 346.213 113.4C347 112.68 348.153 112.32 349.673 112.32C349.926 112.32 350.113 112.327 350.233 112.34V115.24C349.58 115.2 349.12 115.293 348.853 115.52C348.586 115.747 348.453 116.153 348.453 116.74V116.84H350.293V119.68ZM356 113.18C357.427 113.18 358.567 113.553 359.42 114.3C360.287 115.047 360.72 116.1 360.72 117.46C360.72 118.713 360.307 119.693 359.48 120.4C358.667 121.093 357.587 121.447 356.24 121.46L356.14 122.96H353.14L353.04 119.24H354.24C355.267 119.24 356.047 119.113 356.58 118.86C357.127 118.607 357.4 118.147 357.4 117.48C357.4 117.013 357.273 116.647 357.02 116.38C356.767 116.113 356.413 115.98 355.96 115.98C355.48 115.98 355.107 116.12 354.84 116.4C354.573 116.667 354.44 117.033 354.44 117.5H351.22C351.193 116.687 351.36 115.953 351.72 115.3C352.093 114.647 352.64 114.133 353.36 113.76C354.093 113.373 354.973 113.18 356 113.18ZM354.68 128.16C354.08 128.16 353.587 127.987 353.2 127.64C352.827 127.28 352.64 126.84 352.64 126.32C352.64 125.787 352.827 125.34 353.2 124.98C353.587 124.62 354.08 124.44 354.68 124.44C355.267 124.44 355.747 124.62 356.12 124.98C356.507 125.34 356.7 125.787 356.7 126.32C356.7 126.84 356.507 127.28 356.12 127.64C355.747 127.987 355.267 128.16 354.68 128.16ZM377 113.96V116.7H373.28V128H369.86V116.7H366.14V113.96H377ZM389.237 122.24C389.237 122.56 389.217 122.893 389.177 123.24H381.437C381.49 123.933 381.71 124.467 382.097 124.84C382.497 125.2 382.983 125.38 383.557 125.38C384.41 125.38 385.003 125.02 385.337 124.3H388.977C388.79 125.033 388.45 125.693 387.957 126.28C387.477 126.867 386.87 127.327 386.137 127.66C385.403 127.993 384.583 128.16 383.677 128.16C382.583 128.16 381.61 127.927 380.757 127.46C379.903 126.993 379.237 126.327 378.757 125.46C378.277 124.593 378.037 123.58 378.037 122.42C378.037 121.26 378.27 120.247 378.737 119.38C379.217 118.513 379.883 117.847 380.737 117.38C381.59 116.913 382.57 116.68 383.677 116.68C384.757 116.68 385.717 116.907 386.557 117.36C387.397 117.813 388.05 118.46 388.517 119.3C388.997 120.14 389.237 121.12 389.237 122.24ZM385.737 121.34C385.737 120.753 385.537 120.287 385.137 119.94C384.737 119.593 384.237 119.42 383.637 119.42C383.063 119.42 382.577 119.587 382.177 119.92C381.79 120.253 381.55 120.727 381.457 121.34H385.737ZM397.641 128L395.501 124.9L393.701 128H390.001L393.681 122.3L389.901 116.84H393.741L395.881 119.92L397.681 116.84H401.381L397.641 122.46L401.481 128H397.641ZM409.019 125.1V128H407.279C406.039 128 405.072 127.7 404.379 127.1C403.685 126.487 403.339 125.493 403.339 124.12V119.68H401.979V116.84H403.339V114.12H406.759V116.84H408.999V119.68H406.759V124.16C406.759 124.493 406.839 124.733 406.999 124.88C407.159 125.027 407.425 125.1 407.799 125.1H409.019ZM414.344 118.42C414.664 117.9 415.124 117.48 415.724 117.16C416.324 116.84 417.01 116.68 417.784 116.68C418.704 116.68 419.537 116.913 420.284 117.38C421.03 117.847 421.617 118.513 422.044 119.38C422.484 120.247 422.704 121.253 422.704 122.4C422.704 123.547 422.484 124.56 422.044 125.44C421.617 126.307 421.03 126.98 420.284 127.46C419.537 127.927 418.704 128.16 417.784 128.16C416.997 128.16 416.31 128.007 415.724 127.7C415.137 127.38 414.677 126.96 414.344 126.44V128H410.924V113.2H414.344V118.42ZM419.224 122.4C419.224 121.547 418.984 120.88 418.504 120.4C418.037 119.907 417.457 119.66 416.764 119.66C416.084 119.66 415.504 119.907 415.024 120.4C414.557 120.893 414.324 121.567 414.324 122.42C414.324 123.273 414.557 123.947 415.024 124.44C415.504 124.933 416.084 125.18 416.764 125.18C417.444 125.18 418.024 124.933 418.504 124.44C418.984 123.933 419.224 123.253 419.224 122.4ZM429.578 128.16C428.484 128.16 427.498 127.927 426.618 127.46C425.751 126.993 425.064 126.327 424.558 125.46C424.064 124.593 423.818 123.58 423.818 122.42C423.818 121.273 424.071 120.267 424.578 119.4C425.084 118.52 425.778 117.847 426.658 117.38C427.538 116.913 428.524 116.68 429.618 116.68C430.711 116.68 431.698 116.913 432.578 117.38C433.458 117.847 434.151 118.52 434.658 119.4C435.164 120.267 435.418 121.273 435.418 122.42C435.418 123.567 435.158 124.58 434.638 125.46C434.131 126.327 433.431 126.993 432.538 127.46C431.658 127.927 430.671 128.16 429.578 128.16ZM429.578 125.2C430.231 125.2 430.784 124.96 431.238 124.48C431.704 124 431.938 123.313 431.938 122.42C431.938 121.527 431.711 120.84 431.258 120.36C430.818 119.88 430.271 119.64 429.618 119.64C428.951 119.64 428.398 119.88 427.958 120.36C427.518 120.827 427.298 121.513 427.298 122.42C427.298 123.313 427.511 124 427.938 124.48C428.378 124.96 428.924 125.2 429.578 125.2ZM442.312 128.16C441.219 128.16 440.232 127.927 439.352 127.46C438.486 126.993 437.799 126.327 437.292 125.46C436.799 124.593 436.552 123.58 436.552 122.42C436.552 121.273 436.806 120.267 437.312 119.4C437.819 118.52 438.512 117.847 439.392 117.38C440.272 116.913 441.259 116.68 442.352 116.68C443.446 116.68 444.432 116.913 445.312 117.38C446.192 117.847 446.886 118.52 447.392 119.4C447.899 120.267 448.152 121.273 448.152 122.42C448.152 123.567 447.892 124.58 447.372 125.46C446.866 126.327 446.166 126.993 445.272 127.46C444.392 127.927 443.406 128.16 442.312 128.16ZM442.312 125.2C442.966 125.2 443.519 124.96 443.972 124.48C444.439 124 444.672 123.313 444.672 122.42C444.672 121.527 444.446 120.84 443.992 120.36C443.552 119.88 443.006 119.64 442.352 119.64C441.686 119.64 441.132 119.88 440.692 120.36C440.252 120.827 440.032 121.513 440.032 122.42C440.032 123.313 440.246 124 440.672 124.48C441.112 124.96 441.659 125.2 442.312 125.2ZM456.787 128L453.387 123.32V128H449.967V113.2H453.387V121.38L456.767 116.84H460.987L456.347 122.44L461.027 128H456.787ZM466.87 128.16C465.897 128.16 465.03 127.993 464.27 127.66C463.51 127.327 462.91 126.873 462.47 126.3C462.03 125.713 461.783 125.06 461.73 124.34H465.11C465.15 124.727 465.33 125.04 465.65 125.28C465.97 125.52 466.363 125.64 466.83 125.64C467.257 125.64 467.583 125.56 467.81 125.4C468.05 125.227 468.17 125.007 468.17 124.74C468.17 124.42 468.003 124.187 467.67 124.04C467.337 123.88 466.797 123.707 466.05 123.52C465.25 123.333 464.583 123.14 464.05 122.94C463.517 122.727 463.057 122.4 462.67 121.96C462.283 121.507 462.09 120.9 462.09 120.14C462.09 119.5 462.263 118.92 462.61 118.4C462.97 117.867 463.49 117.447 464.17 117.14C464.863 116.833 465.683 116.68 466.63 116.68C468.03 116.68 469.13 117.027 469.93 117.72C470.743 118.413 471.21 119.333 471.33 120.48H468.17C468.117 120.093 467.943 119.787 467.65 119.56C467.37 119.333 466.997 119.22 466.53 119.22C466.13 119.22 465.823 119.3 465.61 119.46C465.397 119.607 465.29 119.813 465.29 120.08C465.29 120.4 465.457 120.64 465.79 120.8C466.137 120.96 466.67 121.12 467.39 121.28C468.217 121.493 468.89 121.707 469.41 121.92C469.93 122.12 470.383 122.453 470.77 122.92C471.17 123.373 471.377 123.987 471.39 124.76C471.39 125.413 471.203 126 470.83 126.52C470.47 127.027 469.943 127.427 469.25 127.72C468.57 128.013 467.777 128.16 466.87 128.16ZM483.94 125.1V128H482.2C480.96 128 479.994 127.7 479.3 127.1C478.607 126.487 478.26 125.493 478.26 124.12V119.68H476.9V116.84H478.26V114.12H481.68V116.84H483.92V119.68H481.68V124.16C481.68 124.493 481.76 124.733 481.92 124.88C482.08 125.027 482.347 125.1 482.72 125.1H483.94ZM492.705 116.72C493.985 116.72 495.012 117.147 495.785 118C496.559 118.84 496.945 120 496.945 121.48V128H493.545V121.94C493.545 121.193 493.352 120.613 492.965 120.2C492.579 119.787 492.059 119.58 491.405 119.58C490.752 119.58 490.232 119.787 489.845 120.2C489.459 120.613 489.265 121.193 489.265 121.94V128H485.845V113.2H489.265V118.34C489.612 117.847 490.085 117.453 490.685 117.16C491.285 116.867 491.959 116.72 492.705 116.72ZM498.642 122.4C498.642 121.253 498.855 120.247 499.282 119.38C499.722 118.513 500.315 117.847 501.062 117.38C501.809 116.913 502.642 116.68 503.562 116.68C504.349 116.68 505.035 116.84 505.622 117.16C506.222 117.48 506.682 117.9 507.002 118.42V116.84H510.422V128H507.002V126.42C506.669 126.94 506.202 127.36 505.602 127.68C505.015 128 504.329 128.16 503.542 128.16C502.635 128.16 501.809 127.927 501.062 127.46C500.315 126.98 499.722 126.307 499.282 125.44C498.855 124.56 498.642 123.547 498.642 122.4ZM507.002 122.42C507.002 121.567 506.762 120.893 506.282 120.4C505.815 119.907 505.242 119.66 504.562 119.66C503.882 119.66 503.302 119.907 502.822 120.4C502.355 120.88 502.122 121.547 502.122 122.4C502.122 123.253 502.355 123.933 502.822 124.44C503.302 124.933 503.882 125.18 504.562 125.18C505.242 125.18 505.815 124.933 506.282 124.44C506.762 123.947 507.002 123.273 507.002 122.42ZM519.116 125.1V128H517.376C516.136 128 515.17 127.7 514.476 127.1C513.783 126.487 513.436 125.493 513.436 124.12V119.68H512.076V116.84H513.436V114.12H516.856V116.84H519.096V119.68H516.856V124.16C516.856 124.493 516.936 124.733 517.096 124.88C517.256 125.027 517.523 125.1 517.896 125.1H519.116ZM536.66 116.84L529.66 133.3H525.98L528.54 127.62L524 116.84H527.82L530.4 123.82L532.96 116.84H536.66ZM542.976 128.16C541.883 128.16 540.896 127.927 540.016 127.46C539.15 126.993 538.463 126.327 537.956 125.46C537.463 124.593 537.216 123.58 537.216 122.42C537.216 121.273 537.47 120.267 537.976 119.4C538.483 118.52 539.176 117.847 540.056 117.38C540.936 116.913 541.923 116.68 543.016 116.68C544.11 116.68 545.096 116.913 545.976 117.38C546.856 117.847 547.55 118.52 548.056 119.4C548.563 120.267 548.816 121.273 548.816 122.42C548.816 123.567 548.556 124.58 548.036 125.46C547.53 126.327 546.83 126.993 545.936 127.46C545.056 127.927 544.07 128.16 542.976 128.16ZM542.976 125.2C543.63 125.2 544.183 124.96 544.636 124.48C545.103 124 545.336 123.313 545.336 122.42C545.336 121.527 545.11 120.84 544.656 120.36C544.216 119.88 543.67 119.64 543.016 119.64C542.35 119.64 541.796 119.88 541.356 120.36C540.916 120.827 540.696 121.513 540.696 122.42C540.696 123.313 540.91 124 541.336 124.48C541.776 124.96 542.323 125.2 542.976 125.2ZM561.651 116.84V128H558.231V126.48C557.884 126.973 557.411 127.373 556.811 127.68C556.224 127.973 555.571 128.12 554.851 128.12C553.997 128.12 553.244 127.933 552.591 127.56C551.937 127.173 551.431 126.62 551.071 125.9C550.711 125.18 550.531 124.333 550.531 123.36V116.84H553.931V122.9C553.931 123.647 554.124 124.227 554.511 124.64C554.897 125.053 555.417 125.26 556.071 125.26C556.737 125.26 557.264 125.053 557.651 124.64C558.037 124.227 558.231 123.647 558.231 122.9V116.84H561.651ZM564.887 113.96H568.387L566.147 119.32H563.847L564.887 113.96ZM575.416 124.8L577.836 116.84H581.476L577.516 128H573.296L569.336 116.84H572.996L575.416 124.8ZM593.436 122.24C593.436 122.56 593.416 122.893 593.376 123.24H585.636C585.689 123.933 585.909 124.467 586.296 124.84C586.696 125.2 587.182 125.38 587.756 125.38C588.609 125.38 589.202 125.02 589.536 124.3H593.176C592.989 125.033 592.649 125.693 592.156 126.28C591.676 126.867 591.069 127.327 590.336 127.66C589.602 127.993 588.782 128.16 587.876 128.16C586.782 128.16 585.809 127.927 584.956 127.46C584.102 126.993 583.436 126.327 582.956 125.46C582.476 124.593 582.236 123.58 582.236 122.42C582.236 121.26 582.469 120.247 582.936 119.38C583.416 118.513 584.082 117.847 584.936 117.38C585.789 116.913 586.769 116.68 587.876 116.68C588.956 116.68 589.916 116.907 590.756 117.36C591.596 117.813 592.249 118.46 592.716 119.3C593.196 120.14 593.436 121.12 593.436 122.24ZM589.936 121.34C589.936 120.753 589.736 120.287 589.336 119.94C588.936 119.593 588.436 119.42 587.836 119.42C587.262 119.42 586.776 119.587 586.376 119.92C585.989 120.253 585.749 120.727 585.656 121.34H589.936ZM281.14 148.42C281.474 147.9 281.934 147.48 282.52 147.16C283.107 146.84 283.794 146.68 284.58 146.68C285.5 146.68 286.334 146.913 287.08 147.38C287.827 147.847 288.414 148.513 288.84 149.38C289.28 150.247 289.5 151.253 289.5 152.4C289.5 153.547 289.28 154.56 288.84 155.44C288.414 156.307 287.827 156.98 287.08 157.46C286.334 157.927 285.5 158.16 284.58 158.16C283.807 158.16 283.12 158 282.52 157.68C281.934 157.36 281.474 156.947 281.14 156.44V163.32H277.72V146.84H281.14V148.42ZM286.02 152.4C286.02 151.547 285.78 150.88 285.3 150.4C284.834 149.907 284.254 149.66 283.56 149.66C282.88 149.66 282.3 149.907 281.82 150.4C281.354 150.893 281.12 151.567 281.12 152.42C281.12 153.273 281.354 153.947 281.82 154.44C282.3 154.933 282.88 155.18 283.56 155.18C284.24 155.18 284.82 154.933 285.3 154.44C285.78 153.933 286.02 153.253 286.02 152.4ZM294.715 148.7C295.115 148.087 295.615 147.607 296.215 147.26C296.815 146.9 297.481 146.72 298.215 146.72V150.34H297.275C296.421 150.34 295.781 150.527 295.355 150.9C294.928 151.26 294.715 151.9 294.715 152.82V158H291.295V146.84H294.715V148.7ZM310.369 152.24C310.369 152.56 310.349 152.893 310.309 153.24H302.569C302.623 153.933 302.843 154.467 303.229 154.84C303.629 155.2 304.116 155.38 304.689 155.38C305.543 155.38 306.136 155.02 306.469 154.3H310.109C309.923 155.033 309.583 155.693 309.089 156.28C308.609 156.867 308.003 157.327 307.269 157.66C306.536 157.993 305.716 158.16 304.809 158.16C303.716 158.16 302.743 157.927 301.889 157.46C301.036 156.993 300.369 156.327 299.889 155.46C299.409 154.593 299.169 153.58 299.169 152.42C299.169 151.26 299.403 150.247 299.869 149.38C300.349 148.513 301.016 147.847 301.869 147.38C302.723 146.913 303.703 146.68 304.809 146.68C305.889 146.68 306.849 146.907 307.689 147.36C308.529 147.813 309.183 148.46 309.649 149.3C310.129 150.14 310.369 151.12 310.369 152.24ZM306.869 151.34C306.869 150.753 306.669 150.287 306.269 149.94C305.869 149.593 305.369 149.42 304.769 149.42C304.196 149.42 303.709 149.587 303.309 149.92C302.923 150.253 302.683 150.727 302.589 151.34H306.869ZM317.194 154.8L319.614 146.84H323.254L319.294 158H315.074L311.114 146.84H314.774L317.194 154.8ZM326.413 145.68C325.813 145.68 325.32 145.507 324.933 145.16C324.56 144.8 324.373 144.36 324.373 143.84C324.373 143.307 324.56 142.867 324.933 142.52C325.32 142.16 325.813 141.98 326.413 141.98C327 141.98 327.48 142.16 327.853 142.52C328.24 142.867 328.433 143.307 328.433 143.84C328.433 144.36 328.24 144.8 327.853 145.16C327.48 145.507 327 145.68 326.413 145.68ZM328.113 146.84V158H324.693V146.84H328.113ZM335.672 158.16C334.578 158.16 333.592 157.927 332.712 157.46C331.845 156.993 331.158 156.327 330.652 155.46C330.158 154.593 329.912 153.58 329.912 152.42C329.912 151.273 330.165 150.267 330.672 149.4C331.178 148.52 331.872 147.847 332.752 147.38C333.632 146.913 334.618 146.68 335.712 146.68C336.805 146.68 337.792 146.913 338.672 147.38C339.552 147.847 340.245 148.52 340.752 149.4C341.258 150.267 341.512 151.273 341.512 152.42C341.512 153.567 341.252 154.58 340.732 155.46C340.225 156.327 339.525 156.993 338.632 157.46C337.752 157.927 336.765 158.16 335.672 158.16ZM335.672 155.2C336.325 155.2 336.878 154.96 337.332 154.48C337.798 154 338.032 153.313 338.032 152.42C338.032 151.527 337.805 150.84 337.352 150.36C336.912 149.88 336.365 149.64 335.712 149.64C335.045 149.64 334.492 149.88 334.052 150.36C333.612 150.827 333.392 151.513 333.392 152.42C333.392 153.313 333.605 154 334.032 154.48C334.472 154.96 335.018 155.2 335.672 155.2ZM354.346 146.84V158H350.926V156.48C350.579 156.973 350.106 157.373 349.506 157.68C348.919 157.973 348.266 158.12 347.546 158.12C346.693 158.12 345.939 157.933 345.286 157.56C344.633 157.173 344.126 156.62 343.766 155.9C343.406 155.18 343.226 154.333 343.226 153.36V146.84H346.626V152.9C346.626 153.647 346.819 154.227 347.206 154.64C347.593 155.053 348.113 155.26 348.766 155.26C349.433 155.26 349.959 155.053 350.346 154.64C350.733 154.227 350.926 153.647 350.926 152.9V146.84H354.346ZM361.343 158.16C360.369 158.16 359.503 157.993 358.743 157.66C357.983 157.327 357.383 156.873 356.943 156.3C356.503 155.713 356.256 155.06 356.203 154.34H359.583C359.623 154.727 359.803 155.04 360.123 155.28C360.443 155.52 360.836 155.64 361.303 155.64C361.729 155.64 362.056 155.56 362.283 155.4C362.523 155.227 362.643 155.007 362.643 154.74C362.643 154.42 362.476 154.187 362.143 154.04C361.809 153.88 361.269 153.707 360.523 153.52C359.723 153.333 359.056 153.14 358.523 152.94C357.989 152.727 357.529 152.4 357.143 151.96C356.756 151.507 356.563 150.9 356.563 150.14C356.563 149.5 356.736 148.92 357.083 148.4C357.443 147.867 357.963 147.447 358.643 147.14C359.336 146.833 360.156 146.68 361.103 146.68C362.503 146.68 363.603 147.027 364.403 147.72C365.216 148.413 365.683 149.333 365.803 150.48H362.643C362.589 150.093 362.416 149.787 362.123 149.56C361.843 149.333 361.469 149.22 361.003 149.22C360.603 149.22 360.296 149.3 360.083 149.46C359.869 149.607 359.763 149.813 359.763 150.08C359.763 150.4 359.929 150.64 360.263 150.8C360.609 150.96 361.143 151.12 361.863 151.28C362.689 151.493 363.363 151.707 363.883 151.92C364.403 152.12 364.856 152.453 365.243 152.92C365.643 153.373 365.849 153.987 365.863 154.76C365.863 155.413 365.676 156 365.303 156.52C364.943 157.027 364.416 157.427 363.723 157.72C363.043 158.013 362.249 158.16 361.343 158.16ZM371.375 143.2V158H367.955V143.2H371.375ZM385.253 146.84L378.253 163.3H374.573L377.133 157.62L372.593 146.84H376.413L378.993 153.82L381.553 146.84H385.253ZM390.048 152.4C390.048 151.253 390.262 150.247 390.688 149.38C391.128 148.513 391.722 147.847 392.468 147.38C393.215 146.913 394.048 146.68 394.968 146.68C395.702 146.68 396.368 146.833 396.968 147.14C397.582 147.447 398.062 147.86 398.408 148.38V143.2H401.828V158H398.408V156.4C398.088 156.933 397.628 157.36 397.028 157.68C396.442 158 395.755 158.16 394.968 158.16C394.048 158.16 393.215 157.927 392.468 157.46C391.722 156.98 391.128 156.307 390.688 155.44C390.262 154.56 390.048 153.547 390.048 152.4ZM398.408 152.42C398.408 151.567 398.168 150.893 397.688 150.4C397.222 149.907 396.648 149.66 395.968 149.66C395.288 149.66 394.708 149.907 394.228 150.4C393.762 150.88 393.528 151.547 393.528 152.4C393.528 153.253 393.762 153.933 394.228 154.44C394.708 154.933 395.288 155.18 395.968 155.18C396.648 155.18 397.222 154.933 397.688 154.44C398.168 153.947 398.408 153.273 398.408 152.42ZM409.383 158.16C408.289 158.16 407.303 157.927 406.423 157.46C405.556 156.993 404.869 156.327 404.363 155.46C403.869 154.593 403.623 153.58 403.623 152.42C403.623 151.273 403.876 150.267 404.382 149.4C404.889 148.52 405.583 147.847 406.463 147.38C407.343 146.913 408.329 146.68 409.423 146.68C410.516 146.68 411.503 146.913 412.383 147.38C413.263 147.847 413.956 148.52 414.463 149.4C414.969 150.267 415.223 151.273 415.223 152.42C415.223 153.567 414.963 154.58 414.443 155.46C413.936 156.327 413.236 156.993 412.343 157.46C411.463 157.927 410.476 158.16 409.383 158.16ZM409.383 155.2C410.036 155.2 410.589 154.96 411.043 154.48C411.509 154 411.743 153.313 411.743 152.42C411.743 151.527 411.516 150.84 411.063 150.36C410.623 149.88 410.076 149.64 409.423 149.64C408.756 149.64 408.203 149.88 407.763 150.36C407.323 150.827 407.103 151.513 407.103 152.42C407.103 153.313 407.316 154 407.743 154.48C408.183 154.96 408.729 155.2 409.383 155.2ZM433.057 146.84L430.037 158H426.257L424.497 150.76L422.677 158H418.917L415.877 146.84H419.297L420.877 154.82L422.757 146.84H426.377L428.277 154.78L429.837 146.84H433.057ZM441.161 146.72C442.468 146.72 443.508 147.147 444.281 148C445.068 148.84 445.461 150 445.461 151.48V158H442.061V151.94C442.061 151.193 441.868 150.613 441.481 150.2C441.094 149.787 440.574 149.58 439.921 149.58C439.268 149.58 438.748 149.787 438.361 150.2C437.974 150.613 437.781 151.193 437.781 151.94V158H434.361V146.84H437.781V148.32C438.128 147.827 438.594 147.44 439.181 147.16C439.768 146.867 440.428 146.72 441.161 146.72ZM451.258 143.2V158H447.838V143.2H451.258ZM453.056 152.4C453.056 151.253 453.269 150.247 453.696 149.38C454.136 148.513 454.729 147.847 455.476 147.38C456.223 146.913 457.056 146.68 457.976 146.68C458.763 146.68 459.449 146.84 460.036 147.16C460.636 147.48 461.096 147.9 461.416 148.42V146.84H464.836V158H461.416V156.42C461.083 156.94 460.616 157.36 460.016 157.68C459.429 158 458.743 158.16 457.956 158.16C457.049 158.16 456.223 157.927 455.476 157.46C454.729 156.98 454.136 156.307 453.696 155.44C453.269 154.56 453.056 153.547 453.056 152.4ZM461.416 152.42C461.416 151.567 461.176 150.893 460.696 150.4C460.229 149.907 459.656 149.66 458.976 149.66C458.296 149.66 457.716 149.907 457.236 150.4C456.769 150.88 456.536 151.547 456.536 152.4C456.536 153.253 456.769 153.933 457.236 154.44C457.716 154.933 458.296 155.18 458.976 155.18C459.656 155.18 460.229 154.933 460.696 154.44C461.176 153.947 461.416 153.273 461.416 152.42ZM466.63 152.4C466.63 151.253 466.844 150.247 467.27 149.38C467.71 148.513 468.304 147.847 469.05 147.38C469.797 146.913 470.63 146.68 471.55 146.68C472.284 146.68 472.95 146.833 473.55 147.14C474.164 147.447 474.644 147.86 474.99 148.38V143.2H478.41V158H474.99V156.4C474.67 156.933 474.21 157.36 473.61 157.68C473.024 158 472.337 158.16 471.55 158.16C470.63 158.16 469.797 157.927 469.05 157.46C468.304 156.98 467.71 156.307 467.27 155.44C466.844 154.56 466.63 153.547 466.63 152.4ZM474.99 152.42C474.99 151.567 474.75 150.893 474.27 150.4C473.804 149.907 473.23 149.66 472.55 149.66C471.87 149.66 471.29 149.907 470.81 150.4C470.344 150.88 470.11 151.547 470.11 152.4C470.11 153.253 470.344 153.933 470.81 154.44C471.29 154.933 471.87 155.18 472.55 155.18C473.23 155.18 473.804 154.933 474.27 154.44C474.75 153.947 474.99 153.273 474.99 152.42ZM491.405 152.24C491.405 152.56 491.385 152.893 491.345 153.24H483.605C483.658 153.933 483.878 154.467 484.265 154.84C484.665 155.2 485.151 155.38 485.725 155.38C486.578 155.38 487.171 155.02 487.505 154.3H491.145C490.958 155.033 490.618 155.693 490.125 156.28C489.645 156.867 489.038 157.327 488.305 157.66C487.571 157.993 486.751 158.16 485.845 158.16C484.751 158.16 483.778 157.927 482.925 157.46C482.071 156.993 481.405 156.327 480.925 155.46C480.445 154.593 480.205 153.58 480.205 152.42C480.205 151.26 480.438 150.247 480.905 149.38C481.385 148.513 482.051 147.847 482.905 147.38C483.758 146.913 484.738 146.68 485.845 146.68C486.925 146.68 487.885 146.907 488.725 147.36C489.565 147.813 490.218 148.46 490.685 149.3C491.165 150.14 491.405 151.12 491.405 152.24ZM487.905 151.34C487.905 150.753 487.705 150.287 487.305 149.94C486.905 149.593 486.405 149.42 485.805 149.42C485.231 149.42 484.745 149.587 484.345 149.92C483.958 150.253 483.718 150.727 483.625 151.34H487.905ZM492.529 152.4C492.529 151.253 492.742 150.247 493.169 149.38C493.609 148.513 494.202 147.847 494.949 147.38C495.695 146.913 496.529 146.68 497.449 146.68C498.182 146.68 498.849 146.833 499.449 147.14C500.062 147.447 500.542 147.86 500.889 148.38V143.2H504.309V158H500.889V156.4C500.569 156.933 500.109 157.36 499.509 157.68C498.922 158 498.235 158.16 497.449 158.16C496.529 158.16 495.695 157.927 494.949 157.46C494.202 156.98 493.609 156.307 493.169 155.44C492.742 154.56 492.529 153.547 492.529 152.4ZM500.889 152.42C500.889 151.567 500.649 150.893 500.169 150.4C499.702 149.907 499.129 149.66 498.449 149.66C497.769 149.66 497.189 149.907 496.709 150.4C496.242 150.88 496.009 151.547 496.009 152.4C496.009 153.253 496.242 153.933 496.709 154.44C497.189 154.933 497.769 155.18 498.449 155.18C499.129 155.18 499.702 154.933 500.169 154.44C500.649 153.947 500.889 153.273 500.889 152.42ZM510.883 143.18C512.31 143.18 513.45 143.553 514.303 144.3C515.17 145.047 515.603 146.1 515.603 147.46C515.603 148.713 515.19 149.693 514.363 150.4C513.55 151.093 512.47 151.447 511.123 151.46L511.023 152.96H508.023L507.923 149.24H509.123C510.15 149.24 510.93 149.113 511.463 148.86C512.01 148.607 512.283 148.147 512.283 147.48C512.283 147.013 512.156 146.647 511.903 146.38C511.65 146.113 511.296 145.98 510.843 145.98C510.363 145.98 509.99 146.12 509.723 146.4C509.456 146.667 509.323 147.033 509.323 147.5H506.103C506.076 146.687 506.243 145.953 506.603 145.3C506.976 144.647 507.523 144.133 508.243 143.76C508.976 143.373 509.856 143.18 510.883 143.18ZM509.563 158.16C508.963 158.16 508.47 157.987 508.083 157.64C507.71 157.28 507.523 156.84 507.523 156.32C507.523 155.787 507.71 155.34 508.083 154.98C508.47 154.62 508.963 154.44 509.563 154.44C510.15 154.44 510.63 154.62 511.003 154.98C511.39 155.34 511.583 155.787 511.583 156.32C511.583 156.84 511.39 157.28 511.003 157.64C510.63 157.987 510.15 158.16 509.563 158.16ZM525.143 143.96V152.36C525.143 153.2 525.35 153.847 525.763 154.3C526.176 154.753 526.783 154.98 527.583 154.98C528.383 154.98 528.996 154.753 529.423 154.3C529.85 153.847 530.063 153.2 530.063 152.36V143.96H533.483V152.34C533.483 153.593 533.216 154.653 532.683 155.52C532.15 156.387 531.43 157.04 530.523 157.48C529.63 157.92 528.63 158.14 527.523 158.14C526.416 158.14 525.423 157.927 524.543 157.5C523.676 157.06 522.99 156.407 522.483 155.54C521.976 154.66 521.723 153.593 521.723 152.34V143.96H525.143ZM539.305 148.42C539.638 147.9 540.098 147.48 540.685 147.16C541.271 146.84 541.958 146.68 542.745 146.68C543.665 146.68 544.498 146.913 545.245 147.38C545.991 147.847 546.578 148.513 547.005 149.38C547.445 150.247 547.665 151.253 547.665 152.4C547.665 153.547 547.445 154.56 547.005 155.44C546.578 156.307 545.991 156.98 545.245 157.46C544.498 157.927 543.665 158.16 542.745 158.16C541.971 158.16 541.285 158 540.685 157.68C540.098 157.36 539.638 156.947 539.305 156.44V163.32H535.885V146.84H539.305V148.42ZM544.185 152.4C544.185 151.547 543.945 150.88 543.465 150.4C542.998 149.907 542.418 149.66 541.725 149.66C541.045 149.66 540.465 149.907 539.985 150.4C539.518 150.893 539.285 151.567 539.285 152.42C539.285 153.273 539.518 153.947 539.985 154.44C540.465 154.933 541.045 155.18 541.725 155.18C542.405 155.18 542.985 154.933 543.465 154.44C543.945 153.933 544.185 153.253 544.185 152.4ZM552.879 143.2V158H549.459V143.2H552.879ZM560.437 158.16C559.344 158.16 558.357 157.927 557.477 157.46C556.611 156.993 555.924 156.327 555.417 155.46C554.924 154.593 554.677 153.58 554.677 152.42C554.677 151.273 554.931 150.267 555.437 149.4C555.944 148.52 556.637 147.847 557.517 147.38C558.397 146.913 559.384 146.68 560.477 146.68C561.571 146.68 562.557 146.913 563.437 147.38C564.317 147.847 565.011 148.52 565.517 149.4C566.024 150.267 566.277 151.273 566.277 152.42C566.277 153.567 566.017 154.58 565.497 155.46C564.991 156.327 564.291 156.993 563.397 157.46C562.517 157.927 561.531 158.16 560.437 158.16ZM560.437 155.2C561.091 155.2 561.644 154.96 562.097 154.48C562.564 154 562.797 153.313 562.797 152.42C562.797 151.527 562.571 150.84 562.117 150.36C561.677 149.88 561.131 149.64 560.477 149.64C559.811 149.64 559.257 149.88 558.817 150.36C558.377 150.827 558.157 151.513 558.157 152.42C558.157 153.313 558.371 154 558.797 154.48C559.237 154.96 559.784 155.2 560.437 155.2ZM567.412 152.4C567.412 151.253 567.625 150.247 568.052 149.38C568.492 148.513 569.085 147.847 569.832 147.38C570.578 146.913 571.412 146.68 572.332 146.68C573.118 146.68 573.805 146.84 574.392 147.16C574.992 147.48 575.452 147.9 575.772 148.42V146.84H579.192V158H575.772V156.42C575.438 156.94 574.972 157.36 574.372 157.68C573.785 158 573.098 158.16 572.312 158.16C571.405 158.16 570.578 157.927 569.832 157.46C569.085 156.98 568.492 156.307 568.052 155.44C567.625 154.56 567.412 153.547 567.412 152.4ZM575.772 152.42C575.772 151.567 575.532 150.893 575.052 150.4C574.585 149.907 574.012 149.66 573.332 149.66C572.652 149.66 572.072 149.907 571.592 150.4C571.125 150.88 570.892 151.547 570.892 152.4C570.892 153.253 571.125 153.933 571.592 154.44C572.072 154.933 572.652 155.18 573.332 155.18C574.012 155.18 574.585 154.933 575.052 154.44C575.532 153.947 575.772 153.273 575.772 152.42ZM580.986 152.4C580.986 151.253 581.199 150.247 581.626 149.38C582.066 148.513 582.659 147.847 583.406 147.38C584.152 146.913 584.986 146.68 585.906 146.68C586.639 146.68 587.306 146.833 587.906 147.14C588.519 147.447 588.999 147.86 589.346 148.38V143.2H592.766V158H589.346V156.4C589.026 156.933 588.566 157.36 587.966 157.68C587.379 158 586.692 158.16 585.906 158.16C584.986 158.16 584.152 157.927 583.406 157.46C582.659 156.98 582.066 156.307 581.626 155.44C581.199 154.56 580.986 153.547 580.986 152.4ZM589.346 152.42C589.346 151.567 589.106 150.893 588.626 150.4C588.159 149.907 587.586 149.66 586.906 149.66C586.226 149.66 585.646 149.907 585.166 150.4C584.699 150.88 584.466 151.547 584.466 152.4C584.466 153.253 584.699 153.933 585.166 154.44C585.646 154.933 586.226 155.18 586.906 155.18C587.586 155.18 588.159 154.933 588.626 154.44C589.106 153.947 589.346 153.273 589.346 152.42ZM372.529 182.4C372.529 181.253 372.742 180.247 373.169 179.38C373.609 178.513 374.202 177.847 374.949 177.38C375.695 176.913 376.529 176.68 377.449 176.68C378.235 176.68 378.922 176.84 379.509 177.16C380.109 177.48 380.569 177.9 380.889 178.42V176.84H384.309V188H380.889V186.42C380.555 186.94 380.089 187.36 379.489 187.68C378.902 188 378.215 188.16 377.429 188.16C376.522 188.16 375.695 187.927 374.949 187.46C374.202 186.98 373.609 186.307 373.169 185.44C372.742 184.56 372.529 183.547 372.529 182.4ZM380.889 182.42C380.889 181.567 380.649 180.893 380.169 180.4C379.702 179.907 379.129 179.66 378.449 179.66C377.769 179.66 377.189 179.907 376.709 180.4C376.242 180.88 376.009 181.547 376.009 182.4C376.009 183.253 376.242 183.933 376.709 184.44C377.189 184.933 377.769 185.18 378.449 185.18C379.129 185.18 379.702 184.933 380.169 184.44C380.649 183.947 380.889 183.273 380.889 182.42ZM393.583 176.72C394.89 176.72 395.93 177.147 396.703 178C397.49 178.84 397.883 180 397.883 181.48V188H394.483V181.94C394.483 181.193 394.29 180.613 393.903 180.2C393.516 179.787 392.996 179.58 392.343 179.58C391.69 179.58 391.17 179.787 390.783 180.2C390.396 180.613 390.203 181.193 390.203 181.94V188H386.783V176.84H390.203V178.32C390.55 177.827 391.016 177.44 391.603 177.16C392.19 176.867 392.85 176.72 393.583 176.72ZM399.58 182.4C399.58 181.253 399.793 180.247 400.22 179.38C400.66 178.513 401.253 177.847 402 177.38C402.746 176.913 403.58 176.68 404.5 176.68C405.233 176.68 405.9 176.833 406.5 177.14C407.113 177.447 407.593 177.86 407.94 178.38V173.2H411.36V188H407.94V186.4C407.62 186.933 407.16 187.36 406.56 187.68C405.973 188 405.286 188.16 404.5 188.16C403.58 188.16 402.746 187.927 402 187.46C401.253 186.98 400.66 186.307 400.22 185.44C399.793 184.56 399.58 183.547 399.58 182.4ZM407.94 182.42C407.94 181.567 407.7 180.893 407.22 180.4C406.753 179.907 406.18 179.66 405.5 179.66C404.82 179.66 404.24 179.907 403.76 180.4C403.293 180.88 403.06 181.547 403.06 182.4C403.06 183.253 403.293 183.933 403.76 184.44C404.24 184.933 404.82 185.18 405.5 185.18C406.18 185.18 406.753 184.933 407.22 184.44C407.7 183.947 407.94 183.273 407.94 182.42ZM422.612 188.16C421.639 188.16 420.772 187.993 420.012 187.66C419.252 187.327 418.652 186.873 418.212 186.3C417.772 185.713 417.525 185.06 417.472 184.34H420.852C420.892 184.727 421.072 185.04 421.392 185.28C421.712 185.52 422.105 185.64 422.572 185.64C422.999 185.64 423.325 185.56 423.552 185.4C423.792 185.227 423.912 185.007 423.912 184.74C423.912 184.42 423.745 184.187 423.412 184.04C423.079 183.88 422.539 183.707 421.792 183.52C420.992 183.333 420.325 183.14 419.792 182.94C419.259 182.727 418.799 182.4 418.412 181.96C418.025 181.507 417.832 180.9 417.832 180.14C417.832 179.5 418.005 178.92 418.352 178.4C418.712 177.867 419.232 177.447 419.912 177.14C420.605 176.833 421.425 176.68 422.372 176.68C423.772 176.68 424.872 177.027 425.672 177.72C426.485 178.413 426.952 179.333 427.072 180.48H423.912C423.859 180.093 423.685 179.787 423.392 179.56C423.112 179.333 422.739 179.22 422.272 179.22C421.872 179.22 421.565 179.3 421.352 179.46C421.139 179.607 421.032 179.813 421.032 180.08C421.032 180.4 421.199 180.64 421.532 180.8C421.879 180.96 422.412 181.12 423.132 181.28C423.959 181.493 424.632 181.707 425.152 181.92C425.672 182.12 426.125 182.453 426.512 182.92C426.912 183.373 427.119 183.987 427.132 184.76C427.132 185.413 426.945 186 426.572 186.52C426.212 187.027 425.685 187.427 424.992 187.72C424.312 188.013 423.519 188.16 422.612 188.16ZM436.084 176.72C437.364 176.72 438.391 177.147 439.164 178C439.938 178.84 440.324 180 440.324 181.48V188H436.924V181.94C436.924 181.193 436.731 180.613 436.344 180.2C435.958 179.787 435.438 179.58 434.784 179.58C434.131 179.58 433.611 179.787 433.224 180.2C432.838 180.613 432.644 181.193 432.644 181.94V188H429.224V173.2H432.644V178.34C432.991 177.847 433.464 177.453 434.064 177.16C434.664 176.867 435.338 176.72 436.084 176.72ZM442.021 182.4C442.021 181.253 442.234 180.247 442.661 179.38C443.101 178.513 443.694 177.847 444.441 177.38C445.188 176.913 446.021 176.68 446.941 176.68C447.728 176.68 448.414 176.84 449.001 177.16C449.601 177.48 450.061 177.9 450.381 178.42V176.84H453.801V188H450.381V186.42C450.048 186.94 449.581 187.36 448.981 187.68C448.394 188 447.708 188.16 446.921 188.16C446.014 188.16 445.188 187.927 444.441 187.46C443.694 186.98 443.101 186.307 442.661 185.44C442.234 184.56 442.021 183.547 442.021 182.4ZM450.381 182.42C450.381 181.567 450.141 180.893 449.661 180.4C449.194 179.907 448.621 179.66 447.941 179.66C447.261 179.66 446.681 179.907 446.201 180.4C445.734 180.88 445.501 181.547 445.501 182.4C445.501 183.253 445.734 183.933 446.201 184.44C446.681 184.933 447.261 185.18 447.941 185.18C448.621 185.18 449.194 184.933 449.661 184.44C450.141 183.947 450.381 183.273 450.381 182.42ZM459.695 178.7C460.095 178.087 460.595 177.607 461.195 177.26C461.795 176.9 462.462 176.72 463.195 176.72V180.34H462.255C461.402 180.34 460.762 180.527 460.335 180.9C459.908 181.26 459.695 181.9 459.695 182.82V188H456.275V176.84H459.695V178.7ZM475.35 182.24C475.35 182.56 475.33 182.893 475.29 183.24H467.55C467.603 183.933 467.823 184.467 468.21 184.84C468.61 185.2 469.097 185.38 469.67 185.38C470.523 185.38 471.117 185.02 471.45 184.3H475.09C474.903 185.033 474.563 185.693 474.07 186.28C473.59 186.867 472.983 187.327 472.25 187.66C471.517 187.993 470.697 188.16 469.79 188.16C468.697 188.16 467.723 187.927 466.87 187.46C466.017 186.993 465.35 186.327 464.87 185.46C464.39 184.593 464.15 183.58 464.15 182.42C464.15 181.26 464.383 180.247 464.85 179.38C465.33 178.513 465.997 177.847 466.85 177.38C467.703 176.913 468.683 176.68 469.79 176.68C470.87 176.68 471.83 176.907 472.67 177.36C473.51 177.813 474.163 178.46 474.63 179.3C475.11 180.14 475.35 181.12 475.35 182.24ZM471.85 181.34C471.85 180.753 471.65 180.287 471.25 179.94C470.85 179.593 470.35 179.42 469.75 179.42C469.177 179.42 468.69 179.587 468.29 179.92C467.903 180.253 467.663 180.727 467.57 181.34H471.85ZM487.612 185.1V188H485.872C484.632 188 483.666 187.7 482.972 187.1C482.279 186.487 481.932 185.493 481.932 184.12V179.68H480.572V176.84H481.932V174.12H485.352V176.84H487.592V179.68H485.352V184.16C485.352 184.493 485.432 184.733 485.592 184.88C485.752 185.027 486.019 185.1 486.392 185.1H487.612ZM496.377 176.72C497.657 176.72 498.684 177.147 499.457 178C500.231 178.84 500.617 180 500.617 181.48V188H497.217V181.94C497.217 181.193 497.024 180.613 496.637 180.2C496.251 179.787 495.731 179.58 495.077 179.58C494.424 179.58 493.904 179.787 493.517 180.2C493.131 180.613 492.937 181.193 492.937 181.94V188H489.517V173.2H492.937V178.34C493.284 177.847 493.757 177.453 494.357 177.16C494.957 176.867 495.631 176.72 496.377 176.72ZM513.514 182.24C513.514 182.56 513.494 182.893 513.454 183.24H505.714C505.767 183.933 505.987 184.467 506.374 184.84C506.774 185.2 507.261 185.38 507.834 185.38C508.687 185.38 509.281 185.02 509.614 184.3H513.254C513.067 185.033 512.727 185.693 512.234 186.28C511.754 186.867 511.147 187.327 510.414 187.66C509.681 187.993 508.861 188.16 507.954 188.16C506.861 188.16 505.887 187.927 505.034 187.46C504.181 186.993 503.514 186.327 503.034 185.46C502.554 184.593 502.314 183.58 502.314 182.42C502.314 181.26 502.547 180.247 503.014 179.38C503.494 178.513 504.161 177.847 505.014 177.38C505.867 176.913 506.847 176.68 507.954 176.68C509.034 176.68 509.994 176.907 510.834 177.36C511.674 177.813 512.327 178.46 512.794 179.3C513.274 180.14 513.514 181.12 513.514 182.24ZM510.014 181.34C510.014 180.753 509.814 180.287 509.414 179.94C509.014 179.593 508.514 179.42 507.914 179.42C507.341 179.42 506.854 179.587 506.454 179.92C506.067 180.253 505.827 180.727 505.734 181.34H510.014ZM529.558 176.72C530.945 176.72 532.045 177.14 532.858 177.98C533.685 178.82 534.098 179.987 534.098 181.48V188H530.698V181.94C530.698 181.22 530.505 180.667 530.118 180.28C529.745 179.88 529.225 179.68 528.558 179.68C527.891 179.68 527.365 179.88 526.978 180.28C526.605 180.667 526.418 181.22 526.418 181.94V188H523.018V181.94C523.018 181.22 522.825 180.667 522.438 180.28C522.065 179.88 521.545 179.68 520.878 179.68C520.211 179.68 519.685 179.88 519.298 180.28C518.925 180.667 518.738 181.22 518.738 181.94V188H515.318V176.84H518.738V178.24C519.085 177.773 519.538 177.407 520.098 177.14C520.658 176.86 521.291 176.72 521.998 176.72C522.838 176.72 523.585 176.9 524.238 177.26C524.905 177.62 525.425 178.133 525.798 178.8C526.185 178.187 526.711 177.687 527.378 177.3C528.045 176.913 528.771 176.72 529.558 176.72ZM547.588 176.72C548.868 176.72 549.895 177.147 550.668 178C551.442 178.84 551.828 180 551.828 181.48V188H548.428V181.94C548.428 181.193 548.235 180.613 547.848 180.2C547.462 179.787 546.942 179.58 546.288 179.58C545.635 179.58 545.115 179.787 544.728 180.2C544.342 180.613 544.148 181.193 544.148 181.94V188H540.728V173.2H544.148V178.34C544.495 177.847 544.968 177.453 545.568 177.16C546.168 176.867 546.842 176.72 547.588 176.72ZM564.725 182.24C564.725 182.56 564.705 182.893 564.665 183.24H556.925C556.978 183.933 557.198 184.467 557.585 184.84C557.985 185.2 558.472 185.38 559.045 185.38C559.898 185.38 560.492 185.02 560.825 184.3H564.465C564.278 185.033 563.938 185.693 563.445 186.28C562.965 186.867 562.358 187.327 561.625 187.66C560.892 187.993 560.072 188.16 559.165 188.16C558.072 188.16 557.098 187.927 556.245 187.46C555.392 186.993 554.725 186.327 554.245 185.46C553.765 184.593 553.525 183.58 553.525 182.42C553.525 181.26 553.758 180.247 554.225 179.38C554.705 178.513 555.372 177.847 556.225 177.38C557.078 176.913 558.058 176.68 559.165 176.68C560.245 176.68 561.205 176.907 562.045 177.36C562.885 177.813 563.538 178.46 564.005 179.3C564.485 180.14 564.725 181.12 564.725 182.24ZM561.225 181.34C561.225 180.753 561.025 180.287 560.625 179.94C560.225 179.593 559.725 179.42 559.125 179.42C558.552 179.42 558.065 179.587 557.665 179.92C557.278 180.253 557.038 180.727 556.945 181.34H561.225ZM569.949 178.7C570.349 178.087 570.849 177.607 571.449 177.26C572.049 176.9 572.716 176.72 573.449 176.72V180.34H572.509C571.656 180.34 571.016 180.527 570.589 180.9C570.162 181.26 569.949 181.9 569.949 182.82V188H566.529V176.84H569.949V178.7ZM585.604 182.24C585.604 182.56 585.584 182.893 585.544 183.24H577.804C577.857 183.933 578.077 184.467 578.464 184.84C578.864 185.2 579.35 185.38 579.924 185.38C580.777 185.38 581.37 185.02 581.704 184.3H585.344C585.157 185.033 584.817 185.693 584.324 186.28C583.844 186.867 583.237 187.327 582.504 187.66C581.77 187.993 580.95 188.16 580.044 188.16C578.95 188.16 577.977 187.927 577.124 187.46C576.27 186.993 575.604 186.327 575.124 185.46C574.644 184.593 574.404 183.58 574.404 182.42C574.404 181.26 574.637 180.247 575.104 179.38C575.584 178.513 576.25 177.847 577.104 177.38C577.957 176.913 578.937 176.68 580.044 176.68C581.124 176.68 582.084 176.907 582.924 177.36C583.764 177.813 584.417 178.46 584.884 179.3C585.364 180.14 585.604 181.12 585.604 182.24ZM582.104 181.34C582.104 180.753 581.904 180.287 581.504 179.94C581.104 179.593 580.604 179.42 580.004 179.42C579.43 179.42 578.944 179.587 578.544 179.92C578.157 180.253 577.917 180.727 577.824 181.34H582.104ZM591.908 173.46L591.508 183.04H588.608L588.208 173.46H591.908ZM590.108 188.16C589.508 188.16 589.015 187.987 588.628 187.64C588.255 187.28 588.068 186.84 588.068 186.32C588.068 185.787 588.255 185.34 588.628 184.98C589.015 184.62 589.508 184.44 590.108 184.44C590.695 184.44 591.175 184.62 591.548 184.98C591.935 185.34 592.128 185.787 592.128 186.32C592.128 186.84 591.935 187.28 591.548 187.64C591.175 187.987 590.695 188.16 590.108 188.16Z" fill="#2D37D5"/>
<path d="M123.593 62.153C127.468 62.3686 133.013 65.583 133.013 71.1862C133.013 76.7893 127.431 78.9894 122.415 79.9033C125.817 84.1467 127.213 84.9674 126.864 86.7927C126.515 88.6179 123.375 93.638 123.118 99.3881C122.86 105.138 107.939 136.76 105.105 137.674C102.272 138.588 107.859 144.436 88.3157 145.093C83.1055 145.093 73.6522 137.008 73.6522 126.473C73.418 103.509 96.2305 99.1505 108.915 73.5308C114.737 61.7708 121.794 62.0501 123.593 62.153Z" fill="black"/>
<path d="M67.6934 170.309H235.591V245.876H67.6934V170.309Z" fill="#F3F3F3"/>
<path d="M87.4492 188.182H221.083" stroke="white" stroke-width="12.98" stroke-linecap="round" stroke-linejoin="round"/>
<path d="M170.986 190.596L175.724 187.734L179.079 193.82L174.342 196.679L170.986 190.596Z" fill="#E49D75"/>
<path d="M98.3359 208.25H203.51" stroke="white" stroke-width="12.98" stroke-linecap="round" stroke-linejoin="round"/>
<path d="M135.702 202.094L140.636 204.576L137.754 210.899L132.817 208.432L135.702 202.094Z" fill="#E49D75"/>
<path d="M163.142 148.434C167.942 148.434 175.002 178.532 178.037 187.357C177.402 189.204 173.801 192.08 171.825 192.08C168.012 185.397 159.472 171.069 157.955 168.854C156.74 167.09 158.341 148.434 163.142 148.434Z" fill="#FFD9EE"/>
<path opacity="0.27" d="M161.332 89.0412C162.152 88.5046 161.765 88.8648 162.412 87.875Z" fill="black"/>
<path d="M108.089 142.903C103.928 142.903 100.5 141.965 100.5 152.213C100.5 162.462 111.192 170.997 123.882 170.997C136.571 170.997 142.186 170.645 143.343 170.351C143.685 173.739 136.206 196.958 135.403 202.936C135.976 204.533 139.688 206.522 141.257 206.522C142.826 206.522 163.699 171.049 163.156 149.129C163.229 145.699 151.169 144.751 143.549 144.751C135.929 144.751 119.711 145.669 117.66 145.669" fill="#FFD9EE"/>
<path d="M101.951 143.91C101.422 141.629 98.5698 92.6115 115.68 93.4862C132.791 94.3608 132.615 138.042 130.667 144.936C122.858 148.396 102.509 146.318 101.951 143.91Z" fill="#2D37D5"/>
<path d="M121.453 89.5995C121.184 90.2683 119.732 93.8306 119.462 95.2859C119.193 96.7412 111.838 94.9013 112.25 94.1736C114.685 89.8714 115.084 85.3536 115.479 83.0923C115.842 81.0245 123.235 85.1699 121.453 89.5995Z" fill="#D18C65"/>
<path d="M119.341 118.396L108.785 119.572C108.066 120.499 108.378 122.689 108.366 123.816C108.319 127.981 108.497 132.636 110.904 136.144C111.841 137.509 113.375 138.839 114.885 138.817C117.25 139.797 121.196 140.927 121.196 140.927L127.183 142.308C127.183 142.308 137.285 144.183 142.273 144.06C143.933 144.016 145.622 143.815 147.28 143.864C148.242 143.891 149.769 144.205 150.668 143.864C150.93 143.764 150.867 143.159 150.804 142.921C150.588 142.09 149.83 141.507 149.132 141.145C147.511 140.302 146.594 140.836 144.931 140.865C143.57 140.89 141.948 140.165 139.587 139.197C136.803 138.055 133.628 136.661 130.79 135.662C127.556 134.522 124.256 133.292 121.1 131.94C120.477 131.673 119.814 131.479 119.161 131.266C119.46 129.486 119.629 127.684 119.667 125.876C119.739 123.916 119.77 121.858 119.496 119.928C119.426 119.43 119.54 118.857 119.341 118.396Z" fill="#E49D75"/>
<path d="M105.974 119.876C104.178 114.883 105.74 99.2767 111.571 98.255C119.683 96.9957 122.109 116.713 121.305 119.019C119.87 119.92 111.829 122.902 105.974 119.876Z" fill="#4049D3"/>
<path d="M130.129 72.7656C125.77 77.1156 120.028 79.6268 114.007 79.8167C113.726 80.187 113.573 80.6452 113.571 81.1177C113.574 81.645 113.757 82.1539 114.087 82.5522C114.418 82.9504 114.873 83.2116 115.372 83.2884C115.894 86.6277 117.583 89.2443 120.069 90.0357C124.05 91.3047 128.595 87.397 130.207 81.3063C131.021 78.2291 130.93 75.1887 130.129 72.7656Z" fill="#E49D75"/>
<path d="M136.332 144.385C140.547 144.385 155.768 144.258 158.561 144.258Z" fill="#FFC88E"/>
<path d="M133.728 144.592C138.177 144.592 153.533 144.212 156.081 144.212C158.057 141.027 167.237 124.25 167.843 122.98" stroke="#9D9D9D" stroke-width="5.79" stroke-linecap="round" stroke-linejoin="round"/>
<path d="M133.538 206.885L130.325 213.309L146.67 222.256L147.581 220.436L139.488 210.146L133.538 206.885Z" fill="black"/>
<path d="M173.347 195.044L176.918 201.257L192.726 191.312L191.715 189.551L179.103 191.423L173.347 195.044Z" fill="black"/>
<path d="M86.0637 199.636L75.5801 188.67L86.0637 177.701" stroke="#DFDFDF" stroke-width="12.98" stroke-linecap="round" stroke-linejoin="round"/>
<path d="M216.257 238.815L226.736 227.849L216.255 216.883" stroke="#DFDFDF" stroke-width="12.98" stroke-linecap="round" stroke-linejoin="round"/>
<path d="M87.4492 227.715H207.926" stroke="white" stroke-width="12.98" stroke-linecap="round" stroke-linejoin="round"/>
</svg>
