<svg width="661" height="294" viewBox="0 0 661 294" fill="none" xmlns="http://www.w3.org/2000/svg">
<rect width="661" height="294" rx="20" fill="#FFD9EE"/>
<path d="M61.98 65.52H56.74L55.9 68H52.32L57.4 53.96H61.36L66.44 68H62.82L61.98 65.52ZM61.1 62.88L59.36 57.74L57.64 62.88H61.1ZM77.8244 59.68H75.9844V68H72.5644V59.68H71.3244V56.84H72.5644V56.52C72.5644 55.1467 72.9577 54.1067 73.7444 53.4C74.531 52.68 75.6844 52.32 77.2044 52.32C77.4577 52.32 77.6444 52.3267 77.7644 52.34V55.24C77.111 55.2 76.651 55.2933 76.3844 55.52C76.1177 55.7467 75.9844 56.1533 75.9844 56.74V56.84H77.8244V59.68ZM81.1514 55.68C80.5514 55.68 80.0581 55.5067 79.6714 55.16C79.2981 54.8 79.1114 54.36 79.1114 53.84C79.1114 53.3067 79.2981 52.8667 79.6714 52.52C80.0581 52.16 80.5514 51.98 81.1514 51.98C81.7381 51.98 82.2181 52.16 82.5914 52.52C82.9781 52.8667 83.1714 53.3067 83.1714 53.84C83.1714 54.36 82.9781 54.8 82.5914 55.16C82.2181 55.5067 81.7381 55.68 81.1514 55.68ZM82.8514 56.84V68H79.4314V56.84H82.8514ZM88.7498 53.2V68H85.3298V53.2H88.7498ZM101.748 62.24C101.748 62.56 101.728 62.8933 101.688 63.24H93.9483C94.0016 63.9333 94.2216 64.4667 94.6083 64.84C95.0083 65.2 95.4949 65.38 96.0683 65.38C96.9216 65.38 97.5149 65.02 97.8483 64.3H101.488C101.302 65.0333 100.962 65.6933 100.468 66.28C99.9883 66.8667 99.3816 67.3267 98.6483 67.66C97.9149 67.9933 97.0949 68.16 96.1883 68.16C95.0949 68.16 94.1216 67.9267 93.2683 67.46C92.4149 66.9933 91.7483 66.3267 91.2683 65.46C90.7883 64.5933 90.5483 63.58 90.5483 62.42C90.5483 61.26 90.7816 60.2467 91.2483 59.38C91.7283 58.5133 92.3949 57.8467 93.2483 57.38C94.1016 56.9133 95.0816 56.68 96.1883 56.68C97.2683 56.68 98.2283 56.9067 99.0683 57.36C99.9083 57.8133 100.562 58.46 101.028 59.3C101.508 60.14 101.748 61.12 101.748 62.24ZM98.2483 61.34C98.2483 60.7533 98.0483 60.2867 97.6483 59.94C97.2483 59.5933 96.7483 59.42 96.1483 59.42C95.5749 59.42 95.0883 59.5867 94.6883 59.92C94.3016 60.2533 94.0616 60.7267 93.9683 61.34H98.2483ZM112.331 68.16C111.357 68.16 110.491 67.9933 109.731 67.66C108.971 67.3267 108.371 66.8733 107.931 66.3C107.491 65.7133 107.244 65.06 107.191 64.34H110.571C110.611 64.7267 110.791 65.04 111.111 65.28C111.431 65.52 111.824 65.64 112.291 65.64C112.717 65.64 113.044 65.56 113.271 65.4C113.511 65.2267 113.631 65.0067 113.631 64.74C113.631 64.42 113.464 64.1867 113.131 64.04C112.797 63.88 112.257 63.7067 111.511 63.52C110.711 63.3333 110.044 63.14 109.511 62.94C108.977 62.7267 108.517 62.4 108.131 61.96C107.744 61.5067 107.551 60.9 107.551 60.14C107.551 59.5 107.724 58.92 108.071 58.4C108.431 57.8667 108.951 57.4467 109.631 57.14C110.324 56.8333 111.144 56.68 112.091 56.68C113.491 56.68 114.591 57.0267 115.391 57.72C116.204 58.4133 116.671 59.3333 116.791 60.48H113.631C113.577 60.0933 113.404 59.7867 113.111 59.56C112.831 59.3333 112.457 59.22 111.991 59.22C111.591 59.22 111.284 59.3 111.071 59.46C110.857 59.6067 110.751 59.8133 110.751 60.08C110.751 60.4 110.917 60.64 111.251 60.8C111.597 60.96 112.131 61.12 112.851 61.28C113.677 61.4933 114.351 61.7067 114.871 61.92C115.391 62.12 115.844 62.4533 116.231 62.92C116.631 63.3733 116.837 63.9867 116.851 64.76C116.851 65.4133 116.664 66 116.291 66.52C115.931 67.0267 115.404 67.4267 114.711 67.72C114.031 68.0133 113.237 68.16 112.331 68.16ZM125.803 56.72C127.083 56.72 128.11 57.1467 128.883 58C129.656 58.84 130.043 60 130.043 61.48V68H126.643V61.94C126.643 61.1933 126.45 60.6133 126.063 60.2C125.676 59.7867 125.156 59.58 124.503 59.58C123.85 59.58 123.33 59.7867 122.943 60.2C122.556 60.6133 122.363 61.1933 122.363 61.94V68H118.943V53.2H122.363V58.34C122.71 57.8467 123.183 57.4533 123.783 57.16C124.383 56.8667 125.056 56.72 125.803 56.72ZM131.74 62.4C131.74 61.2533 131.953 60.2467 132.38 59.38C132.82 58.5133 133.413 57.8467 134.16 57.38C134.906 56.9133 135.74 56.68 136.66 56.68C137.446 56.68 138.133 56.84 138.72 57.16C139.32 57.48 139.78 57.9 140.1 58.42V56.84H143.52V68H140.1V66.42C139.766 66.94 139.3 67.36 138.7 67.68C138.113 68 137.426 68.16 136.64 68.16C135.733 68.16 134.906 67.9267 134.16 67.46C133.413 66.98 132.82 66.3067 132.38 65.44C131.953 64.56 131.74 63.5467 131.74 62.4ZM140.1 62.42C140.1 61.5667 139.86 60.8933 139.38 60.4C138.913 59.9067 138.34 59.66 137.66 59.66C136.98 59.66 136.4 59.9067 135.92 60.4C135.453 60.88 135.22 61.5467 135.22 62.4C135.22 63.2533 135.453 63.9333 135.92 64.44C136.4 64.9333 136.98 65.18 137.66 65.18C138.34 65.18 138.913 64.9333 139.38 64.44C139.86 63.9467 140.1 63.2733 140.1 62.42ZM149.414 58.7C149.814 58.0867 150.314 57.6067 150.914 57.26C151.514 56.9 152.181 56.72 152.914 56.72V60.34H151.974C151.121 60.34 150.481 60.5267 150.054 60.9C149.627 61.26 149.414 61.9 149.414 62.82V68H145.994V56.84H149.414V58.7ZM156.269 55.68C155.669 55.68 155.175 55.5067 154.789 55.16C154.415 54.8 154.229 54.36 154.229 53.84C154.229 53.3067 154.415 52.8667 154.789 52.52C155.175 52.16 155.669 51.98 156.269 51.98C156.855 51.98 157.335 52.16 157.709 52.52C158.095 52.8667 158.289 53.3067 158.289 53.84C158.289 54.36 158.095 54.8 157.709 55.16C157.335 55.5067 156.855 55.68 156.269 55.68ZM157.969 56.84V68H154.549V56.84H157.969ZM167.247 56.72C168.554 56.72 169.594 57.1467 170.367 58C171.154 58.84 171.547 60 171.547 61.48V68H168.147V61.94C168.147 61.1933 167.954 60.6133 167.567 60.2C167.18 59.7867 166.66 59.58 166.007 59.58C165.354 59.58 164.834 59.7867 164.447 60.2C164.06 60.6133 163.867 61.1933 163.867 61.94V68H160.447V56.84H163.867V58.32C164.214 57.8267 164.68 57.44 165.267 57.16C165.854 56.8667 166.514 56.72 167.247 56.72ZM178.164 56.68C178.95 56.68 179.637 56.84 180.224 57.16C180.824 57.48 181.284 57.9 181.604 58.42V56.84H185.024V67.98C185.024 69.0067 184.817 69.9333 184.404 70.76C184.004 71.6 183.384 72.2667 182.544 72.76C181.717 73.2533 180.684 73.5 179.444 73.5C177.79 73.5 176.45 73.1067 175.424 72.32C174.397 71.5467 173.81 70.4933 173.664 69.16H177.044C177.15 69.5867 177.404 69.92 177.804 70.16C178.204 70.4133 178.697 70.54 179.284 70.54C179.99 70.54 180.55 70.3333 180.964 69.92C181.39 69.52 181.604 68.8733 181.604 67.98V66.4C181.27 66.92 180.81 67.3467 180.224 67.68C179.637 68 178.95 68.16 178.164 68.16C177.244 68.16 176.41 67.9267 175.664 67.46C174.917 66.98 174.324 66.3067 173.884 65.44C173.457 64.56 173.244 63.5467 173.244 62.4C173.244 61.2533 173.457 60.2467 173.884 59.38C174.324 58.5133 174.917 57.8467 175.664 57.38C176.41 56.9133 177.244 56.68 178.164 56.68ZM181.604 62.42C181.604 61.5667 181.364 60.8933 180.884 60.4C180.417 59.9067 179.844 59.66 179.164 59.66C178.484 59.66 177.904 59.9067 177.424 60.4C176.957 60.88 176.724 61.5467 176.724 62.4C176.724 63.2533 176.957 63.9333 177.424 64.44C177.904 64.9333 178.484 65.18 179.164 65.18C179.844 65.18 180.417 64.9333 180.884 64.44C181.364 63.9467 181.604 63.2733 181.604 62.42ZM195.156 58.42C195.489 57.9 195.949 57.48 196.536 57.16C197.123 56.84 197.809 56.68 198.596 56.68C199.516 56.68 200.349 56.9133 201.096 57.38C201.843 57.8467 202.429 58.5133 202.856 59.38C203.296 60.2467 203.516 61.2533 203.516 62.4C203.516 63.5467 203.296 64.56 202.856 65.44C202.429 66.3067 201.843 66.98 201.096 67.46C200.349 67.9267 199.516 68.16 198.596 68.16C197.823 68.16 197.136 68 196.536 67.68C195.949 67.36 195.489 66.9467 195.156 66.44V73.32H191.736V56.84H195.156V58.42ZM200.036 62.4C200.036 61.5467 199.796 60.88 199.316 60.4C198.849 59.9067 198.269 59.66 197.576 59.66C196.896 59.66 196.316 59.9067 195.836 60.4C195.369 60.8933 195.136 61.5667 195.136 62.42C195.136 63.2733 195.369 63.9467 195.836 64.44C196.316 64.9333 196.896 65.18 197.576 65.18C198.256 65.18 198.836 64.9333 199.316 64.44C199.796 63.9333 200.036 63.2533 200.036 62.4ZM208.73 53.2V68H205.31V53.2H208.73ZM210.529 62.4C210.529 61.2533 210.742 60.2467 211.169 59.38C211.609 58.5133 212.202 57.8467 212.949 57.38C213.695 56.9133 214.529 56.68 215.449 56.68C216.235 56.68 216.922 56.84 217.509 57.16C218.109 57.48 218.569 57.9 218.889 58.42V56.84H222.309V68H218.889V66.42C218.555 66.94 218.089 67.36 217.489 67.68C216.902 68 216.215 68.16 215.429 68.16C214.522 68.16 213.695 67.9267 212.949 67.46C212.202 66.98 211.609 66.3067 211.169 65.44C210.742 64.56 210.529 63.5467 210.529 62.4ZM218.889 62.42C218.889 61.5667 218.649 60.8933 218.169 60.4C217.702 59.9067 217.129 59.66 216.449 59.66C215.769 59.66 215.189 59.9067 214.709 60.4C214.242 60.88 214.009 61.5467 214.009 62.4C214.009 63.2533 214.242 63.9333 214.709 64.44C215.189 64.9333 215.769 65.18 216.449 65.18C217.129 65.18 217.702 64.9333 218.169 64.44C218.649 63.9467 218.889 63.2733 218.889 62.42ZM231.003 65.1V68H229.263C228.023 68 227.056 67.7 226.363 67.1C225.67 66.4867 225.323 65.4933 225.323 64.12V59.68H223.963V56.84H225.323V54.12H228.743V56.84H230.983V59.68H228.743V64.16C228.743 64.4933 228.823 64.7333 228.983 64.88C229.143 65.0267 229.41 65.1 229.783 65.1H231.003ZM238.508 59.68H236.668V68H233.248V59.68H232.008V56.84H233.248V56.52C233.248 55.1467 233.641 54.1067 234.428 53.4C235.215 52.68 236.368 52.32 237.888 52.32C238.141 52.32 238.328 52.3267 238.448 52.34V55.24C237.795 55.2 237.335 55.2933 237.068 55.52C236.801 55.7467 236.668 56.1533 236.668 56.74V56.84H238.508V59.68ZM245.195 68.16C244.102 68.16 243.115 67.9267 242.235 67.46C241.368 66.9933 240.682 66.3267 240.175 65.46C239.682 64.5933 239.435 63.58 239.435 62.42C239.435 61.2733 239.688 60.2667 240.195 59.4C240.702 58.52 241.395 57.8467 242.275 57.38C243.155 56.9133 244.142 56.68 245.235 56.68C246.328 56.68 247.315 56.9133 248.195 57.38C249.075 57.8467 249.768 58.52 250.275 59.4C250.782 60.2667 251.035 61.2733 251.035 62.42C251.035 63.5667 250.775 64.58 250.255 65.46C249.748 66.3267 249.048 66.9933 248.155 67.46C247.275 67.9267 246.288 68.16 245.195 68.16ZM245.195 65.2C245.848 65.2 246.402 64.96 246.855 64.48C247.322 64 247.555 63.3133 247.555 62.42C247.555 61.5267 247.328 60.84 246.875 60.36C246.435 59.88 245.888 59.64 245.235 59.64C244.568 59.64 244.015 59.88 243.575 60.36C243.135 60.8267 242.915 61.5133 242.915 62.42C242.915 63.3133 243.128 64 243.555 64.48C243.995 64.96 244.542 65.2 245.195 65.2ZM256.269 58.7C256.669 58.0867 257.169 57.6067 257.769 57.26C258.369 56.9 259.036 56.72 259.769 56.72V60.34H258.829C257.976 60.34 257.336 60.5267 256.909 60.9C256.483 61.26 256.269 61.9 256.269 62.82V68H252.849V56.84H256.269V58.7ZM275.644 56.72C277.031 56.72 278.131 57.14 278.944 57.98C279.771 58.82 280.184 59.9867 280.184 61.48V68H276.784V61.94C276.784 61.22 276.591 60.6667 276.204 60.28C275.831 59.88 275.311 59.68 274.644 59.68C273.977 59.68 273.451 59.88 273.064 60.28C272.691 60.6667 272.504 61.22 272.504 61.94V68H269.104V61.94C269.104 61.22 268.911 60.6667 268.524 60.28C268.151 59.88 267.631 59.68 266.964 59.68C266.297 59.68 265.771 59.88 265.384 60.28C265.011 60.6667 264.824 61.22 264.824 61.94V68H261.404V56.84H264.824V58.24C265.171 57.7733 265.624 57.4067 266.184 57.14C266.744 56.86 267.377 56.72 268.084 56.72C268.924 56.72 269.671 56.9 270.324 57.26C270.991 57.62 271.511 58.1333 271.884 58.8C272.271 58.1867 272.797 57.6867 273.464 57.3C274.131 56.9133 274.857 56.72 275.644 56.72ZM293.034 65.1V68H291.294C290.054 68 289.088 67.7 288.394 67.1C287.701 66.4867 287.354 65.4933 287.354 64.12V59.68H285.994V56.84H287.354V54.12H290.774V56.84H293.014V59.68H290.774V64.16C290.774 64.4933 290.854 64.7333 291.014 64.88C291.174 65.0267 291.441 65.1 291.814 65.1H293.034ZM300.019 68.16C298.926 68.16 297.939 67.9267 297.059 67.46C296.193 66.9933 295.506 66.3267 294.999 65.46C294.506 64.5933 294.259 63.58 294.259 62.42C294.259 61.2733 294.513 60.2667 295.019 59.4C295.526 58.52 296.219 57.8467 297.099 57.38C297.979 56.9133 298.966 56.68 300.059 56.68C301.153 56.68 302.139 56.9133 303.019 57.38C303.899 57.8467 304.593 58.52 305.099 59.4C305.606 60.2667 305.859 61.2733 305.859 62.42C305.859 63.5667 305.599 64.58 305.079 65.46C304.573 66.3267 303.873 66.9933 302.979 67.46C302.099 67.9267 301.113 68.16 300.019 68.16ZM300.019 65.2C300.673 65.2 301.226 64.96 301.679 64.48C302.146 64 302.379 63.3133 302.379 62.42C302.379 61.5267 302.153 60.84 301.699 60.36C301.259 59.88 300.713 59.64 300.059 59.64C299.393 59.64 298.839 59.88 298.399 60.36C297.959 60.8267 297.739 61.5133 297.739 62.42C297.739 63.3133 297.953 64 298.379 64.48C298.819 64.96 299.366 65.2 300.019 65.2ZM318.772 56.72C320.052 56.72 321.079 57.1467 321.852 58C322.625 58.84 323.012 60 323.012 61.48V68H319.612V61.94C319.612 61.1933 319.419 60.6133 319.032 60.2C318.645 59.7867 318.125 59.58 317.472 59.58C316.819 59.58 316.299 59.7867 315.912 60.2C315.525 60.6133 315.332 61.1933 315.332 61.94V68H311.912V53.2H315.332V58.34C315.679 57.8467 316.152 57.4533 316.752 57.16C317.352 56.8667 318.025 56.72 318.772 56.72ZM335.908 62.24C335.908 62.56 335.888 62.8933 335.848 63.24H328.108C328.162 63.9333 328.382 64.4667 328.768 64.84C329.168 65.2 329.655 65.38 330.228 65.38C331.082 65.38 331.675 65.02 332.008 64.3H335.648C335.462 65.0333 335.122 65.6933 334.628 66.28C334.148 66.8667 333.542 67.3267 332.808 67.66C332.075 67.9933 331.255 68.16 330.348 68.16C329.255 68.16 328.282 67.9267 327.428 67.46C326.575 66.9933 325.908 66.3267 325.428 65.46C324.948 64.5933 324.708 63.58 324.708 62.42C324.708 61.26 324.942 60.2467 325.408 59.38C325.888 58.5133 326.555 57.8467 327.408 57.38C328.262 56.9133 329.242 56.68 330.348 56.68C331.428 56.68 332.388 56.9067 333.228 57.36C334.068 57.8133 334.722 58.46 335.188 59.3C335.668 60.14 335.908 61.12 335.908 62.24ZM332.408 61.34C332.408 60.7533 332.208 60.2867 331.808 59.94C331.408 59.5933 330.908 59.42 330.308 59.42C329.735 59.42 329.248 59.5867 328.848 59.92C328.462 60.2533 328.222 60.7267 328.128 61.34H332.408ZM341.133 53.2V68H337.713V53.2H341.133ZM347.031 58.42C347.364 57.9 347.824 57.48 348.411 57.16C348.998 56.84 349.684 56.68 350.471 56.68C351.391 56.68 352.224 56.9133 352.971 57.38C353.718 57.8467 354.304 58.5133 354.731 59.38C355.171 60.2467 355.391 61.2533 355.391 62.4C355.391 63.5467 355.171 64.56 354.731 65.44C354.304 66.3067 353.718 66.98 352.971 67.46C352.224 67.9267 351.391 68.16 350.471 68.16C349.698 68.16 349.011 68 348.411 67.68C347.824 67.36 347.364 66.9467 347.031 66.44V73.32H343.611V56.84H347.031V58.42ZM351.911 62.4C351.911 61.5467 351.671 60.88 351.191 60.4C350.724 59.9067 350.144 59.66 349.451 59.66C348.771 59.66 348.191 59.9067 347.711 60.4C347.244 60.8933 347.011 61.5667 347.011 62.42C347.011 63.2733 347.244 63.9467 347.711 64.44C348.191 64.9333 348.771 65.18 349.451 65.18C350.131 65.18 350.711 64.9333 351.191 64.44C351.671 63.9333 351.911 63.2533 351.911 62.4ZM57.78 98.16C56.8067 98.16 55.94 97.9933 55.18 97.66C54.42 97.3267 53.82 96.8733 53.38 96.3C52.94 95.7133 52.6933 95.06 52.64 94.34H56.02C56.06 94.7267 56.24 95.04 56.56 95.28C56.88 95.52 57.2733 95.64 57.74 95.64C58.1667 95.64 58.4933 95.56 58.72 95.4C58.96 95.2267 59.08 95.0067 59.08 94.74C59.08 94.42 58.9133 94.1867 58.58 94.04C58.2467 93.88 57.7067 93.7067 56.96 93.52C56.16 93.3333 55.4933 93.14 54.96 92.94C54.4267 92.7267 53.9667 92.4 53.58 91.96C53.1933 91.5067 53 90.9 53 90.14C53 89.5 53.1733 88.92 53.52 88.4C53.88 87.8667 54.4 87.4467 55.08 87.14C55.7733 86.8333 56.5933 86.68 57.54 86.68C58.94 86.68 60.04 87.0267 60.84 87.72C61.6533 88.4133 62.12 89.3333 62.24 90.48H59.08C59.0267 90.0933 58.8533 89.7867 58.56 89.56C58.28 89.3333 57.9067 89.22 57.44 89.22C57.04 89.22 56.7333 89.3 56.52 89.46C56.3067 89.6067 56.2 89.8133 56.2 90.08C56.2 90.4 56.3667 90.64 56.7 90.8C57.0467 90.96 57.58 91.12 58.3 91.28C59.1267 91.4933 59.8 91.7067 60.32 91.92C60.84 92.12 61.2933 92.4533 61.68 92.92C62.08 93.3733 62.2867 93.9867 62.3 94.76C62.3 95.4133 62.1133 96 61.74 96.52C61.38 97.0267 60.8533 97.4267 60.16 97.72C59.48 98.0133 58.6867 98.16 57.78 98.16ZM70.6123 95.1V98H68.8723C67.6323 98 66.6657 97.7 65.9723 97.1C65.279 96.4867 64.9323 95.4933 64.9323 94.12V89.68H63.5723V86.84H64.9323V84.12H68.3523V86.84H70.5923V89.68H68.3523V94.16C68.3523 94.4933 68.4323 94.7333 68.5923 94.88C68.7523 95.0267 69.019 95.1 69.3923 95.1H70.6123ZM83.5373 86.84V98H80.1173V96.48C79.7707 96.9733 79.2973 97.3733 78.6973 97.68C78.1107 97.9733 77.4573 98.12 76.7373 98.12C75.884 98.12 75.1307 97.9333 74.4773 97.56C73.824 97.1733 73.3173 96.62 72.9573 95.9C72.5973 95.18 72.4173 94.3333 72.4173 93.36V86.84H75.8173V92.9C75.8173 93.6467 76.0107 94.2267 76.3973 94.64C76.784 95.0533 77.304 95.26 77.9573 95.26C78.624 95.26 79.1507 95.0533 79.5373 94.64C79.924 94.2267 80.1173 93.6467 80.1173 92.9V86.84H83.5373ZM85.3139 92.4C85.3139 91.2533 85.5272 90.2467 85.9539 89.38C86.3939 88.5133 86.9872 87.8467 87.7339 87.38C88.4806 86.9133 89.3139 86.68 90.2339 86.68C90.9672 86.68 91.6339 86.8333 92.2339 87.14C92.8472 87.4467 93.3272 87.86 93.6739 88.38V83.2H97.0939V98H93.6739V96.4C93.3539 96.9333 92.8939 97.36 92.2939 97.68C91.7072 98 91.0206 98.16 90.2339 98.16C89.3139 98.16 88.4806 97.9267 87.7339 97.46C86.9872 96.98 86.3939 96.3067 85.9539 95.44C85.5272 94.56 85.3139 93.5467 85.3139 92.4ZM93.6739 92.42C93.6739 91.5667 93.4339 90.8933 92.9539 90.4C92.4872 89.9067 91.9139 89.66 91.2339 89.66C90.5539 89.66 89.9739 89.9067 89.4939 90.4C89.0272 90.88 88.7939 91.5467 88.7939 92.4C88.7939 93.2533 89.0272 93.9333 89.4939 94.44C89.9739 94.9333 90.5539 95.18 91.2339 95.18C91.9139 95.18 92.4872 94.9333 92.9539 94.44C93.4339 93.9467 93.6739 93.2733 93.6739 92.42ZM110.088 92.24C110.088 92.56 110.068 92.8933 110.028 93.24H102.288C102.341 93.9333 102.561 94.4667 102.948 94.84C103.348 95.2 103.835 95.38 104.408 95.38C105.261 95.38 105.855 95.02 106.188 94.3H109.828C109.641 95.0333 109.301 95.6933 108.808 96.28C108.328 96.8667 107.721 97.3267 106.988 97.66C106.255 97.9933 105.435 98.16 104.528 98.16C103.435 98.16 102.461 97.9267 101.608 97.46C100.755 96.9933 100.088 96.3267 99.6081 95.46C99.1281 94.5933 98.8881 93.58 98.8881 92.42C98.8881 91.26 99.1215 90.2467 99.5881 89.38C100.068 88.5133 100.735 87.8467 101.588 87.38C102.441 86.9133 103.421 86.68 104.528 86.68C105.608 86.68 106.568 86.9067 107.408 87.36C108.248 87.8133 108.901 88.46 109.368 89.3C109.848 90.14 110.088 91.12 110.088 92.24ZM106.588 91.34C106.588 90.7533 106.388 90.2867 105.988 89.94C105.588 89.5933 105.088 89.42 104.488 89.42C103.915 89.42 103.428 89.5867 103.028 89.92C102.641 90.2533 102.401 90.7267 102.308 91.34H106.588ZM118.692 86.72C119.999 86.72 121.039 87.1467 121.812 88C122.599 88.84 122.992 90 122.992 91.48V98H119.592V91.94C119.592 91.1933 119.399 90.6133 119.012 90.2C118.626 89.7867 118.106 89.58 117.452 89.58C116.799 89.58 116.279 89.7867 115.892 90.2C115.506 90.6133 115.312 91.1933 115.312 91.94V98H111.892V86.84H115.312V88.32C115.659 87.8267 116.126 87.44 116.712 87.16C117.299 86.8667 117.959 86.72 118.692 86.72ZM131.589 95.1V98H129.849C128.609 98 127.642 97.7 126.949 97.1C126.256 96.4867 125.909 95.4933 125.909 94.12V89.68H124.549V86.84H125.909V84.12H129.329V86.84H131.569V89.68H129.329V94.16C129.329 94.4933 129.409 94.7333 129.569 94.88C129.729 95.0267 129.996 95.1 130.369 95.1H131.589ZM138.034 98.16C137.061 98.16 136.194 97.9933 135.434 97.66C134.674 97.3267 134.074 96.8733 133.634 96.3C133.194 95.7133 132.947 95.06 132.894 94.34H136.274C136.314 94.7267 136.494 95.04 136.814 95.28C137.134 95.52 137.527 95.64 137.994 95.64C138.421 95.64 138.747 95.56 138.974 95.4C139.214 95.2267 139.334 95.0067 139.334 94.74C139.334 94.42 139.167 94.1867 138.834 94.04C138.501 93.88 137.961 93.7067 137.214 93.52C136.414 93.3333 135.747 93.14 135.214 92.94C134.681 92.7267 134.221 92.4 133.834 91.96C133.447 91.5067 133.254 90.9 133.254 90.14C133.254 89.5 133.427 88.92 133.774 88.4C134.134 87.8667 134.654 87.4467 135.334 87.14C136.027 86.8333 136.847 86.68 137.794 86.68C139.194 86.68 140.294 87.0267 141.094 87.72C141.907 88.4133 142.374 89.3333 142.494 90.48H139.334C139.281 90.0933 139.107 89.7867 138.814 89.56C138.534 89.3333 138.161 89.22 137.694 89.22C137.294 89.22 136.987 89.3 136.774 89.46C136.561 89.6067 136.454 89.8133 136.454 90.08C136.454 90.4 136.621 90.64 136.954 90.8C137.301 90.96 137.834 91.12 138.554 91.28C139.381 91.4933 140.054 91.7067 140.574 91.92C141.094 92.12 141.547 92.4533 141.934 92.92C142.334 93.3733 142.541 93.9867 142.554 94.76C142.554 95.4133 142.367 96 141.994 96.52C141.634 97.0267 141.107 97.4267 140.414 97.72C139.734 98.0133 138.941 98.16 138.034 98.16ZM154.485 89.68H152.645V98H149.225V89.68H147.985V86.84H149.225V86.52C149.225 85.1467 149.618 84.1067 150.405 83.4C151.191 82.68 152.345 82.32 153.865 82.32C154.118 82.32 154.305 82.3267 154.425 82.34V85.24C153.771 85.2 153.311 85.2933 153.045 85.52C152.778 85.7467 152.645 86.1533 152.645 86.74V86.84H154.485V89.68ZM157.812 85.68C157.212 85.68 156.718 85.5067 156.332 85.16C155.958 84.8 155.772 84.36 155.772 83.84C155.772 83.3067 155.958 82.8667 156.332 82.52C156.718 82.16 157.212 81.98 157.812 81.98C158.398 81.98 158.878 82.16 159.252 82.52C159.638 82.8667 159.832 83.3067 159.832 83.84C159.832 84.36 159.638 84.8 159.252 85.16C158.878 85.5067 158.398 85.68 157.812 85.68ZM159.512 86.84V98H156.092V86.84H159.512ZM168.79 86.72C170.097 86.72 171.137 87.1467 171.91 88C172.697 88.84 173.09 90 173.09 91.48V98H169.69V91.94C169.69 91.1933 169.497 90.6133 169.11 90.2C168.723 89.7867 168.203 89.58 167.55 89.58C166.897 89.58 166.377 89.7867 165.99 90.2C165.603 90.6133 165.41 91.1933 165.41 91.94V98H161.99V86.84H165.41V88.32C165.757 87.8267 166.223 87.44 166.81 87.16C167.397 86.8667 168.057 86.72 168.79 86.72ZM174.787 92.4C174.787 91.2533 175 90.2467 175.427 89.38C175.867 88.5133 176.46 87.8467 177.207 87.38C177.953 86.9133 178.787 86.68 179.707 86.68C180.44 86.68 181.107 86.8333 181.707 87.14C182.32 87.4467 182.8 87.86 183.147 88.38V83.2H186.567V98H183.147V96.4C182.827 96.9333 182.367 97.36 181.767 97.68C181.18 98 180.493 98.16 179.707 98.16C178.787 98.16 177.953 97.9267 177.207 97.46C176.46 96.98 175.867 96.3067 175.427 95.44C175 94.56 174.787 93.5467 174.787 92.4ZM183.147 92.42C183.147 91.5667 182.907 90.8933 182.427 90.4C181.96 89.9067 181.387 89.66 180.707 89.66C180.027 89.66 179.447 89.9067 178.967 90.4C178.5 90.88 178.267 91.5467 178.267 92.4C178.267 93.2533 178.5 93.9333 178.967 94.44C179.447 94.9333 180.027 95.18 180.707 95.18C181.387 95.18 181.96 94.9333 182.427 94.44C182.907 93.9467 183.147 93.2733 183.147 92.42ZM199.499 95.1V98H197.759C196.519 98 195.552 97.7 194.859 97.1C194.166 96.4867 193.819 95.4933 193.819 94.12V89.68H192.459V86.84H193.819V84.12H197.239V86.84H199.479V89.68H197.239V94.16C197.239 94.4933 197.319 94.7333 197.479 94.88C197.639 95.0267 197.906 95.1 198.279 95.1H199.499ZM211.924 92.24C211.924 92.56 211.904 92.8933 211.864 93.24H204.124C204.177 93.9333 204.397 94.4667 204.784 94.84C205.184 95.2 205.671 95.38 206.244 95.38C207.097 95.38 207.691 95.02 208.024 94.3H211.664C211.477 95.0333 211.137 95.6933 210.644 96.28C210.164 96.8667 209.557 97.3267 208.824 97.66C208.091 97.9933 207.271 98.16 206.364 98.16C205.271 98.16 204.297 97.9267 203.444 97.46C202.591 96.9933 201.924 96.3267 201.444 95.46C200.964 94.5933 200.724 93.58 200.724 92.42C200.724 91.26 200.957 90.2467 201.424 89.38C201.904 88.5133 202.571 87.8467 203.424 87.38C204.277 86.9133 205.257 86.68 206.364 86.68C207.444 86.68 208.404 86.9067 209.244 87.36C210.084 87.8133 210.737 88.46 211.204 89.3C211.684 90.14 211.924 91.12 211.924 92.24ZM208.424 91.34C208.424 90.7533 208.224 90.2867 207.824 89.94C207.424 89.5933 206.924 89.42 206.324 89.42C205.751 89.42 205.264 89.5867 204.864 89.92C204.477 90.2533 204.237 90.7267 204.144 91.34H208.424ZM220.328 98L218.188 94.9L216.388 98H212.688L216.368 92.3L212.588 86.84H216.428L218.568 89.92L220.368 86.84H224.068L220.328 92.46L224.168 98H220.328ZM231.706 95.1V98H229.966C228.726 98 227.759 97.7 227.066 97.1C226.373 96.4867 226.026 95.4933 226.026 94.12V89.68H224.666V86.84H226.026V84.12H229.446V86.84H231.686V89.68H229.446V94.16C229.446 94.4933 229.526 94.7333 229.686 94.88C229.846 95.0267 230.113 95.1 230.486 95.1H231.706ZM237.031 88.42C237.351 87.9 237.811 87.48 238.411 87.16C239.011 86.84 239.698 86.68 240.471 86.68C241.391 86.68 242.224 86.9133 242.971 87.38C243.718 87.8467 244.304 88.5133 244.731 89.38C245.171 90.2467 245.391 91.2533 245.391 92.4C245.391 93.5467 245.171 94.56 244.731 95.44C244.304 96.3067 243.718 96.98 242.971 97.46C242.224 97.9267 241.391 98.16 240.471 98.16C239.684 98.16 238.998 98.0067 238.411 97.7C237.824 97.38 237.364 96.96 237.031 96.44V98H233.611V83.2H237.031V88.42ZM241.911 92.4C241.911 91.5467 241.671 90.88 241.191 90.4C240.724 89.9067 240.144 89.66 239.451 89.66C238.771 89.66 238.191 89.9067 237.711 90.4C237.244 90.8933 237.011 91.5667 237.011 92.42C237.011 93.2733 237.244 93.9467 237.711 94.44C238.191 94.9333 238.771 95.18 239.451 95.18C240.131 95.18 240.711 94.9333 241.191 94.44C241.671 93.9333 241.911 93.2533 241.911 92.4ZM252.265 98.16C251.172 98.16 250.185 97.9267 249.305 97.46C248.439 96.9933 247.752 96.3267 247.245 95.46C246.752 94.5933 246.505 93.58 246.505 92.42C246.505 91.2733 246.759 90.2667 247.265 89.4C247.772 88.52 248.465 87.8467 249.345 87.38C250.225 86.9133 251.212 86.68 252.305 86.68C253.399 86.68 254.385 86.9133 255.265 87.38C256.145 87.8467 256.839 88.52 257.345 89.4C257.852 90.2667 258.105 91.2733 258.105 92.42C258.105 93.5667 257.845 94.58 257.325 95.46C256.819 96.3267 256.119 96.9933 255.225 97.46C254.345 97.9267 253.359 98.16 252.265 98.16ZM252.265 95.2C252.919 95.2 253.472 94.96 253.925 94.48C254.392 94 254.625 93.3133 254.625 92.42C254.625 91.5267 254.399 90.84 253.945 90.36C253.505 89.88 252.959 89.64 252.305 89.64C251.639 89.64 251.085 89.88 250.645 90.36C250.205 90.8267 249.985 91.5133 249.985 92.42C249.985 93.3133 250.199 94 250.625 94.48C251.065 94.96 251.612 95.2 252.265 95.2ZM265 98.16C263.906 98.16 262.92 97.9267 262.04 97.46C261.173 96.9933 260.486 96.3267 259.98 95.46C259.486 94.5933 259.24 93.58 259.24 92.42C259.24 91.2733 259.493 90.2667 260 89.4C260.506 88.52 261.2 87.8467 262.08 87.38C262.96 86.9133 263.946 86.68 265.04 86.68C266.133 86.68 267.12 86.9133 268 87.38C268.88 87.8467 269.573 88.52 270.08 89.4C270.586 90.2667 270.84 91.2733 270.84 92.42C270.84 93.5667 270.58 94.58 270.06 95.46C269.553 96.3267 268.853 96.9933 267.96 97.46C267.08 97.9267 266.093 98.16 265 98.16ZM265 95.2C265.653 95.2 266.206 94.96 266.66 94.48C267.126 94 267.36 93.3133 267.36 92.42C267.36 91.5267 267.133 90.84 266.68 90.36C266.24 89.88 265.693 89.64 265.04 89.64C264.373 89.64 263.82 89.88 263.38 90.36C262.94 90.8267 262.72 91.5133 262.72 92.42C262.72 93.3133 262.933 94 263.36 94.48C263.8 94.96 264.346 95.2 265 95.2ZM279.474 98L276.074 93.32V98H272.654V83.2H276.074V91.38L279.454 86.84H283.674L279.034 92.44L283.714 98H279.474ZM288.697 94.84L286.477 100.58H284.297L285.457 94.84H288.697ZM301.798 86.72C303.104 86.72 304.144 87.1467 304.918 88C305.704 88.84 306.098 90 306.098 91.48V98H302.698V91.94C302.698 91.1933 302.504 90.6133 302.118 90.2C301.731 89.7867 301.211 89.58 300.558 89.58C299.904 89.58 299.384 89.7867 298.998 90.2C298.611 90.6133 298.418 91.1933 298.418 91.94V98H294.998V86.84H298.418V88.32C298.764 87.8267 299.231 87.44 299.818 87.16C300.404 86.8667 301.064 86.72 301.798 86.72ZM313.554 98.16C312.461 98.16 311.474 97.9267 310.594 97.46C309.728 96.9933 309.041 96.3267 308.534 95.46C308.041 94.5933 307.794 93.58 307.794 92.42C307.794 91.2733 308.048 90.2667 308.554 89.4C309.061 88.52 309.754 87.8467 310.634 87.38C311.514 86.9133 312.501 86.68 313.594 86.68C314.688 86.68 315.674 86.9133 316.554 87.38C317.434 87.8467 318.128 88.52 318.634 89.4C319.141 90.2667 319.394 91.2733 319.394 92.42C319.394 93.5667 319.134 94.58 318.614 95.46C318.108 96.3267 317.408 96.9933 316.514 97.46C315.634 97.9267 314.648 98.16 313.554 98.16ZM313.554 95.2C314.208 95.2 314.761 94.96 315.214 94.48C315.681 94 315.914 93.3133 315.914 92.42C315.914 91.5267 315.688 90.84 315.234 90.36C314.794 89.88 314.248 89.64 313.594 89.64C312.928 89.64 312.374 89.88 311.934 90.36C311.494 90.8267 311.274 91.5133 311.274 92.42C311.274 93.3133 311.488 94 311.914 94.48C312.354 94.96 312.901 95.2 313.554 95.2ZM327.429 95.1V98H325.689C324.449 98 323.482 97.7 322.789 97.1C322.095 96.4867 321.749 95.4933 321.749 94.12V89.68H320.389V86.84H321.749V84.12H325.169V86.84H327.409V89.68H325.169V94.16C325.169 94.4933 325.249 94.7333 325.409 94.88C325.569 95.0267 325.835 95.1 326.209 95.1H327.429ZM339.854 92.24C339.854 92.56 339.834 92.8933 339.794 93.24H332.054C332.107 93.9333 332.327 94.4667 332.714 94.84C333.114 95.2 333.6 95.38 334.174 95.38C335.027 95.38 335.62 95.02 335.954 94.3H339.594C339.407 95.0333 339.067 95.6933 338.574 96.28C338.094 96.8667 337.487 97.3267 336.754 97.66C336.02 97.9933 335.2 98.16 334.294 98.16C333.2 98.16 332.227 97.9267 331.374 97.46C330.52 96.9933 329.854 96.3267 329.374 95.46C328.894 94.5933 328.654 93.58 328.654 92.42C328.654 91.26 328.887 90.2467 329.354 89.38C329.834 88.5133 330.5 87.8467 331.354 87.38C332.207 86.9133 333.187 86.68 334.294 86.68C335.374 86.68 336.334 86.9067 337.174 87.36C338.014 87.8133 338.667 88.46 339.134 89.3C339.614 90.14 339.854 91.12 339.854 92.24ZM336.354 91.34C336.354 90.7533 336.154 90.2867 335.754 89.94C335.354 89.5933 334.854 89.42 334.254 89.42C333.68 89.42 333.194 89.5867 332.794 89.92C332.407 90.2533 332.167 90.7267 332.074 91.34H336.354ZM346.198 98.16C345.225 98.16 344.358 97.9933 343.598 97.66C342.838 97.3267 342.238 96.8733 341.798 96.3C341.358 95.7133 341.111 95.06 341.058 94.34H344.438C344.478 94.7267 344.658 95.04 344.978 95.28C345.298 95.52 345.691 95.64 346.158 95.64C346.585 95.64 346.911 95.56 347.138 95.4C347.378 95.2267 347.498 95.0067 347.498 94.74C347.498 94.42 347.331 94.1867 346.998 94.04C346.665 93.88 346.125 93.7067 345.378 93.52C344.578 93.3333 343.911 93.14 343.378 92.94C342.845 92.7267 342.385 92.4 341.998 91.96C341.611 91.5067 341.418 90.9 341.418 90.14C341.418 89.5 341.591 88.92 341.938 88.4C342.298 87.8667 342.818 87.4467 343.498 87.14C344.191 86.8333 345.011 86.68 345.958 86.68C347.358 86.68 348.458 87.0267 349.258 87.72C350.071 88.4133 350.538 89.3333 350.658 90.48H347.498C347.445 90.0933 347.271 89.7867 346.978 89.56C346.698 89.3333 346.325 89.22 345.858 89.22C345.458 89.22 345.151 89.3 344.938 89.46C344.725 89.6067 344.618 89.8133 344.618 90.08C344.618 90.4 344.785 90.64 345.118 90.8C345.465 90.96 345.998 91.12 346.718 91.28C347.545 91.4933 348.218 91.7067 348.738 91.92C349.258 92.12 349.711 92.4533 350.098 92.92C350.498 93.3733 350.705 93.9867 350.718 94.76C350.718 95.4133 350.531 96 350.158 96.52C349.798 97.0267 349.271 97.4267 348.578 97.72C347.898 98.0133 347.105 98.16 346.198 98.16ZM356.49 94.84L354.27 100.58H352.09L353.25 94.84H356.49ZM57.78 128.16C56.8067 128.16 55.94 127.993 55.18 127.66C54.42 127.327 53.82 126.873 53.38 126.3C52.94 125.713 52.6933 125.06 52.64 124.34H56.02C56.06 124.727 56.24 125.04 56.56 125.28C56.88 125.52 57.2733 125.64 57.74 125.64C58.1667 125.64 58.4933 125.56 58.72 125.4C58.96 125.227 59.08 125.007 59.08 124.74C59.08 124.42 58.9133 124.187 58.58 124.04C58.2467 123.88 57.7067 123.707 56.96 123.52C56.16 123.333 55.4933 123.14 54.96 122.94C54.4267 122.727 53.9667 122.4 53.58 121.96C53.1933 121.507 53 120.9 53 120.14C53 119.5 53.1733 118.92 53.52 118.4C53.88 117.867 54.4 117.447 55.08 117.14C55.7733 116.833 56.5933 116.68 57.54 116.68C58.94 116.68 60.04 117.027 60.84 117.72C61.6533 118.413 62.12 119.333 62.24 120.48H59.08C59.0267 120.093 58.8533 119.787 58.56 119.56C58.28 119.333 57.9067 119.22 57.44 119.22C57.04 119.22 56.7333 119.3 56.52 119.46C56.3067 119.607 56.2 119.813 56.2 120.08C56.2 120.4 56.3667 120.64 56.7 120.8C57.0467 120.96 57.58 121.12 58.3 121.28C59.1267 121.493 59.8 121.707 60.32 121.92C60.84 122.12 61.2933 122.453 61.68 122.92C62.08 123.373 62.2867 123.987 62.3 124.76C62.3 125.413 62.1133 126 61.74 126.52C61.38 127.027 60.8533 127.427 60.16 127.72C59.48 128.013 58.6867 128.16 57.78 128.16ZM75.7923 116.84L68.7923 133.3H65.1123L67.6723 127.62L63.1323 116.84H66.9523L69.5323 123.82L72.0923 116.84H75.7923ZM80.4491 113.2V128H77.0291V113.2H80.4491ZM86.3475 113.2V128H82.9275V113.2H86.3475ZM88.1459 122.4C88.1459 121.253 88.3593 120.247 88.7859 119.38C89.2259 118.513 89.8193 117.847 90.5659 117.38C91.3126 116.913 92.1459 116.68 93.0659 116.68C93.8526 116.68 94.5393 116.84 95.1259 117.16C95.7259 117.48 96.1859 117.9 96.5059 118.42V116.84H99.9259V128H96.5059V126.42C96.1726 126.94 95.7059 127.36 95.1059 127.68C94.5193 128 93.8326 128.16 93.0459 128.16C92.1393 128.16 91.3126 127.927 90.5659 127.46C89.8193 126.98 89.2259 126.307 88.7859 125.44C88.3593 124.56 88.1459 123.547 88.1459 122.4ZM96.5059 122.42C96.5059 121.567 96.2659 120.893 95.7859 120.4C95.3193 119.907 94.7459 119.66 94.0659 119.66C93.3859 119.66 92.8059 119.907 92.3259 120.4C91.8593 120.88 91.6259 121.547 91.6259 122.4C91.6259 123.253 91.8593 123.933 92.3259 124.44C92.8059 124.933 93.3859 125.18 94.0659 125.18C94.7459 125.18 95.3193 124.933 95.7859 124.44C96.2659 123.947 96.5059 123.273 96.5059 122.42ZM105.82 118.42C106.14 117.9 106.6 117.48 107.2 117.16C107.8 116.84 108.487 116.68 109.26 116.68C110.18 116.68 111.013 116.913 111.76 117.38C112.507 117.847 113.093 118.513 113.52 119.38C113.96 120.247 114.18 121.253 114.18 122.4C114.18 123.547 113.96 124.56 113.52 125.44C113.093 126.307 112.507 126.98 111.76 127.46C111.013 127.927 110.18 128.16 109.26 128.16C108.473 128.16 107.787 128.007 107.2 127.7C106.613 127.38 106.153 126.96 105.82 126.44V128H102.4V113.2H105.82V118.42ZM110.7 122.4C110.7 121.547 110.46 120.88 109.98 120.4C109.513 119.907 108.933 119.66 108.24 119.66C107.56 119.66 106.98 119.907 106.5 120.4C106.033 120.893 105.8 121.567 105.8 122.42C105.8 123.273 106.033 123.947 106.5 124.44C106.98 124.933 107.56 125.18 108.24 125.18C108.92 125.18 109.5 124.933 109.98 124.44C110.46 123.933 110.7 123.253 110.7 122.4ZM126.994 116.84V128H123.574V126.48C123.228 126.973 122.754 127.373 122.154 127.68C121.568 127.973 120.914 128.12 120.194 128.12C119.341 128.12 118.588 127.933 117.934 127.56C117.281 127.173 116.774 126.62 116.414 125.9C116.054 125.18 115.874 124.333 115.874 123.36V116.84H119.274V122.9C119.274 123.647 119.468 124.227 119.854 124.64C120.241 125.053 120.761 125.26 121.414 125.26C122.081 125.26 122.608 125.053 122.994 124.64C123.381 124.227 123.574 123.647 123.574 122.9V116.84H126.994ZM133.991 128.16C133.018 128.16 132.151 127.993 131.391 127.66C130.631 127.327 130.031 126.873 129.591 126.3C129.151 125.713 128.904 125.06 128.851 124.34H132.231C132.271 124.727 132.451 125.04 132.771 125.28C133.091 125.52 133.484 125.64 133.951 125.64C134.378 125.64 134.704 125.56 134.931 125.4C135.171 125.227 135.291 125.007 135.291 124.74C135.291 124.42 135.124 124.187 134.791 124.04C134.458 123.88 133.918 123.707 133.171 123.52C132.371 123.333 131.704 123.14 131.171 122.94C130.638 122.727 130.178 122.4 129.791 121.96C129.404 121.507 129.211 120.9 129.211 120.14C129.211 119.5 129.384 118.92 129.731 118.4C130.091 117.867 130.611 117.447 131.291 117.14C131.984 116.833 132.804 116.68 133.751 116.68C135.151 116.68 136.251 117.027 137.051 117.72C137.864 118.413 138.331 119.333 138.451 120.48H135.291C135.238 120.093 135.064 119.787 134.771 119.56C134.491 119.333 134.118 119.22 133.651 119.22C133.251 119.22 132.944 119.3 132.731 119.46C132.518 119.607 132.411 119.813 132.411 120.08C132.411 120.4 132.578 120.64 132.911 120.8C133.258 120.96 133.791 121.12 134.511 121.28C135.338 121.493 136.011 121.707 136.531 121.92C137.051 122.12 137.504 122.453 137.891 122.92C138.291 123.373 138.498 123.987 138.511 124.76C138.511 125.413 138.324 126 137.951 126.52C137.591 127.027 137.064 127.427 136.371 127.72C135.691 128.013 134.898 128.16 133.991 128.16ZM144.283 124.84L142.063 130.58H139.883L141.043 124.84H144.283ZM149.904 122.4C149.904 121.253 150.117 120.247 150.544 119.38C150.984 118.513 151.577 117.847 152.324 117.38C153.07 116.913 153.904 116.68 154.824 116.68C155.61 116.68 156.297 116.84 156.884 117.16C157.484 117.48 157.944 117.9 158.264 118.42V116.84H161.684V128H158.264V126.42C157.93 126.94 157.464 127.36 156.864 127.68C156.277 128 155.59 128.16 154.804 128.16C153.897 128.16 153.07 127.927 152.324 127.46C151.577 126.98 150.984 126.307 150.544 125.44C150.117 124.56 149.904 123.547 149.904 122.4ZM158.264 122.42C158.264 121.567 158.024 120.893 157.544 120.4C157.077 119.907 156.504 119.66 155.824 119.66C155.144 119.66 154.564 119.907 154.084 120.4C153.617 120.88 153.384 121.547 153.384 122.4C153.384 123.253 153.617 123.933 154.084 124.44C154.564 124.933 155.144 125.18 155.824 125.18C156.504 125.18 157.077 124.933 157.544 124.44C158.024 123.947 158.264 123.273 158.264 122.42ZM170.958 116.72C172.265 116.72 173.305 117.147 174.078 118C174.865 118.84 175.258 120 175.258 121.48V128H171.858V121.94C171.858 121.193 171.665 120.613 171.278 120.2C170.891 119.787 170.371 119.58 169.718 119.58C169.065 119.58 168.545 119.787 168.158 120.2C167.771 120.613 167.578 121.193 167.578 121.94V128H164.158V116.84H167.578V118.32C167.925 117.827 168.391 117.44 168.978 117.16C169.565 116.867 170.225 116.72 170.958 116.72ZM176.955 122.4C176.955 121.253 177.168 120.247 177.595 119.38C178.035 118.513 178.628 117.847 179.375 117.38C180.121 116.913 180.955 116.68 181.875 116.68C182.608 116.68 183.275 116.833 183.875 117.14C184.488 117.447 184.968 117.86 185.315 118.38V113.2H188.735V128H185.315V126.4C184.995 126.933 184.535 127.36 183.935 127.68C183.348 128 182.661 128.16 181.875 128.16C180.955 128.16 180.121 127.927 179.375 127.46C178.628 126.98 178.035 126.307 177.595 125.44C177.168 124.56 176.955 123.547 176.955 122.4ZM185.315 122.42C185.315 121.567 185.075 120.893 184.595 120.4C184.128 119.907 183.555 119.66 182.875 119.66C182.195 119.66 181.615 119.907 181.135 120.4C180.668 120.88 180.435 121.547 180.435 122.4C180.435 123.253 180.668 123.933 181.135 124.44C181.615 124.933 182.195 125.18 182.875 125.18C183.555 125.18 184.128 124.933 184.595 124.44C185.075 123.947 185.315 123.273 185.315 122.42ZM209.687 116.72C211.074 116.72 212.174 117.14 212.987 117.98C213.814 118.82 214.227 119.987 214.227 121.48V128H210.827V121.94C210.827 121.22 210.634 120.667 210.247 120.28C209.874 119.88 209.354 119.68 208.687 119.68C208.02 119.68 207.494 119.88 207.107 120.28C206.734 120.667 206.547 121.22 206.547 121.94V128H203.147V121.94C203.147 121.22 202.954 120.667 202.567 120.28C202.194 119.88 201.674 119.68 201.007 119.68C200.34 119.68 199.814 119.88 199.427 120.28C199.054 120.667 198.867 121.22 198.867 121.94V128H195.447V116.84H198.867V118.24C199.214 117.773 199.667 117.407 200.227 117.14C200.787 116.86 201.42 116.72 202.127 116.72C202.967 116.72 203.714 116.9 204.367 117.26C205.034 117.62 205.554 118.133 205.927 118.8C206.314 118.187 206.84 117.687 207.507 117.3C208.174 116.913 208.9 116.72 209.687 116.72ZM221.699 128.16C220.606 128.16 219.619 127.927 218.739 127.46C217.872 126.993 217.186 126.327 216.679 125.46C216.186 124.593 215.939 123.58 215.939 122.42C215.939 121.273 216.192 120.267 216.699 119.4C217.206 118.52 217.899 117.847 218.779 117.38C219.659 116.913 220.646 116.68 221.739 116.68C222.832 116.68 223.819 116.913 224.699 117.38C225.579 117.847 226.272 118.52 226.779 119.4C227.286 120.267 227.539 121.273 227.539 122.42C227.539 123.567 227.279 124.58 226.759 125.46C226.252 126.327 225.552 126.993 224.659 127.46C223.779 127.927 222.792 128.16 221.699 128.16ZM221.699 125.2C222.352 125.2 222.906 124.96 223.359 124.48C223.826 124 224.059 123.313 224.059 122.42C224.059 121.527 223.832 120.84 223.379 120.36C222.939 119.88 222.392 119.64 221.739 119.64C221.072 119.64 220.519 119.88 220.079 120.36C219.639 120.827 219.419 121.513 219.419 122.42C219.419 123.313 219.632 124 220.059 124.48C220.499 124.96 221.046 125.2 221.699 125.2ZM232.773 118.7C233.173 118.087 233.673 117.607 234.273 117.26C234.873 116.9 235.54 116.72 236.273 116.72V120.34H235.333C234.48 120.34 233.84 120.527 233.413 120.9C232.987 121.26 232.773 121.9 232.773 122.82V128H229.353V116.84H232.773V118.7ZM248.428 122.24C248.428 122.56 248.408 122.893 248.368 123.24H240.628C240.681 123.933 240.901 124.467 241.288 124.84C241.688 125.2 242.175 125.38 242.748 125.38C243.601 125.38 244.195 125.02 244.528 124.3H248.168C247.981 125.033 247.641 125.693 247.148 126.28C246.668 126.867 246.061 127.327 245.328 127.66C244.595 127.993 243.775 128.16 242.868 128.16C241.775 128.16 240.801 127.927 239.948 127.46C239.095 126.993 238.428 126.327 237.948 125.46C237.468 124.593 237.228 123.58 237.228 122.42C237.228 121.26 237.461 120.247 237.928 119.38C238.408 118.513 239.075 117.847 239.928 117.38C240.781 116.913 241.761 116.68 242.868 116.68C243.948 116.68 244.908 116.907 245.748 117.36C246.588 117.813 247.241 118.46 247.708 119.3C248.188 120.14 248.428 121.12 248.428 122.24ZM244.928 121.34C244.928 120.753 244.728 120.287 244.328 119.94C243.928 119.593 243.428 119.42 242.828 119.42C242.255 119.42 241.768 119.587 241.368 119.92C240.981 120.253 240.741 120.727 240.648 121.34H244.928ZM251.832 128.16C251.232 128.16 250.739 127.987 250.352 127.64C249.979 127.28 249.792 126.84 249.792 126.32C249.792 125.787 249.979 125.34 250.352 124.98C250.739 124.62 251.232 124.44 251.832 124.44C252.419 124.44 252.899 124.62 253.272 124.98C253.659 125.34 253.852 125.787 253.852 126.32C253.852 126.84 253.659 127.28 253.272 127.64C252.899 127.987 252.419 128.16 251.832 128.16Z" fill="#2D37D5"/>
<path d="M473.058 47V146.528H478.769" stroke="#DFDFDF" stroke-width="4" stroke-miterlimit="10"/>
<path d="M576.084 255.147L555.253 219.271" stroke="#ED7562" stroke-width="4" stroke-linecap="round" stroke-linejoin="round"/>
<path d="M585.343 255.147L564.512 219.271" stroke="#ED7562" stroke-width="4" stroke-linecap="round" stroke-linejoin="round"/>
<path d="M518.221 255.147L539.052 219.271" stroke="#ED7562" stroke-width="4" stroke-linecap="round" stroke-linejoin="round"/>
<path d="M566.647 144.049H598.072L576.967 220.429H523.428V217.708H563.134L566.647 144.049Z" fill="#ED7562"/>
<path d="M520.095 252.127L514.169 253.049L514.993 258.345L520.919 257.423L520.095 252.127Z" fill="#DE8E68"/>
<path d="M482.833 250.095L478.169 247.066L475.462 251.234L480.126 254.263L482.833 250.095Z" fill="#DE8E68"/>
<path d="M505.065 194.391C500.693 194.391 478.873 245.27 478.873 247.129C478.873 248.988 483.609 251.097 484.308 251.097C485.397 250.085 506.284 219.845 508.458 217.735C510.633 215.626 505.065 194.391 505.065 194.391Z" fill="#2D37D5"/>
<path d="M539.875 156.779C538.424 157.243 531.344 163.405 530.107 170.807C528.847 170.654 521.287 170.334 518.137 170.204C517.107 168.574 514.938 167.444 512.422 167.444C508.914 167.444 506.069 169.634 506.069 172.333C506.069 172.393 506.069 172.45 506.069 172.51H518.751C518.751 172.45 518.751 172.393 518.751 172.333C518.747 171.651 518.566 170.982 518.226 170.394L529.244 172.177L542.332 173.56L543.681 161.948L539.875 156.779Z" fill="#D37C59"/>
<path d="M550.624 148.901C550.624 147.984 548.312 146.943 546.615 146.943C542.085 146.943 534.422 155.1 534.422 156.124C534.422 157.149 539.939 161.71 544.179 161.984C548.418 162.258 550.624 148.901 550.624 148.901Z" fill="#FCC486"/>
<path d="M561.641 142.314C586.717 142.314 580.987 199.322 577.809 201.73C574.63 204.138 546.768 204.359 544.954 201.951C543.14 199.543 531.884 142.314 561.641 142.314Z" fill="#FED385"/>
<path d="M566.248 131.32H555.832V144.759C555.832 146.892 566.248 146.908 566.248 144.759V131.32Z" fill="#D37C59"/>
<path d="M568.864 126.309C570.153 118.225 566.789 110.969 561.351 110.101C555.913 109.234 550.46 115.085 549.171 123.169C547.882 131.253 551.245 138.51 556.683 139.377C562.121 140.244 567.574 134.393 568.864 126.309Z" fill="#DE8E68"/>
<path d="M582.722 102.967C587.598 102.967 592.474 105.564 598.651 105.564C603.527 105.564 608.078 103.616 613.929 103.616C624.332 103.616 627.583 110.433 627.583 114.652C627.583 125.364 618.805 129.584 612.304 129.584C601.901 129.584 600.601 122.443 588.248 122.443C576.22 122.443 577.846 112.705 575.245 112.705C573.945 112.705 573.132 112.867 572.644 113.354C572.157 113.841 569.719 112.056 569.719 111.406C569.719 110.757 572.97 102.967 582.722 102.967Z" fill="black"/>
<path d="M560.843 106.438C549.521 106.438 547.152 115.202 547.152 117.732C547.152 120.263 548.724 122.139 549.527 122.201C550.027 119.175 552.408 115 552.52 114.905C553.161 115.557 555.532 117.648 557.962 117.837C559.986 117.942 561.951 118.565 563.676 119.647C563.818 120.489 564.13 121.292 564.591 122.005C565.246 123.079 566.236 123.899 567.402 124.334C567.686 125.061 567.849 125.832 567.885 126.614C567.885 130.092 567.565 131.499 567.245 132.476C572.462 132.476 574.927 127.008 574.927 120.1C574.927 108.727 565.036 106.438 560.843 106.438Z" fill="black"/>
<path d="M567.983 129.583C569.581 129.583 570.876 128.288 570.876 126.69C570.876 125.092 569.581 123.797 567.983 123.797C566.385 123.797 565.09 125.092 565.09 126.69C565.09 128.288 566.385 129.583 567.983 129.583Z" fill="#DE8E68"/>
<path d="M558.591 163.145C557.458 163.421 552.92 166.28 550.199 171.212C547.523 170.705 536.637 167.938 526.974 167.938C526.066 167.938 523.707 167.18 522.757 167.18C517.09 167.18 515.906 170.293 515.906 171.212C515.906 172.132 516.101 172.159 516.276 172.159C535.738 172.159 540.633 180.504 551.581 180.504C555.123 180.504 562.425 177.896 566.826 171.216C565.282 165.894 558.591 163.145 558.591 163.145Z" fill="#DE8E68"/>
<path d="M577.584 152.455C583.587 158.272 568.405 174.374 565.971 174.137C563.536 173.9 554.758 164.674 554.675 161.87C554.592 159.065 571.782 146.83 577.584 152.455Z" fill="#FED892"/>
<path d="M590.55 172.98H452.834V177.61H590.55V172.98Z" fill="#FD8369"/>
<path d="M577.789 204.576C577.789 203.171 578.033 201.544 577.161 201.181C556.464 192.609 526.163 191.498 521.495 191.498C516.826 191.498 503.176 191.975 503.176 195.9C503.176 210.076 511.039 253.719 512.636 255.35C513.394 256.118 520.005 255.605 520.828 254.775C520.773 251.18 522.851 215.073 520.955 210.7C538.35 217.105 558.103 220.138 563.308 220.138C578.394 220.122 577.789 206.243 577.789 204.576Z" fill="#2E279D"/>
<path d="M480.585 253.645L475.715 250.398L462.608 247.652L461.361 249.71L476.807 259.26L480.585 253.645Z" fill="black"/>
<path d="M521.169 256.305L514.96 257.239L502.598 264.29L503.11 266.72L522.271 263.188L521.169 256.305Z" fill="black"/>
<path d="M583.027 243.575V176.453" stroke="#FD8369" stroke-width="4" stroke-linecap="round" stroke-linejoin="round"/>
<path d="M468.458 243.575V176.453" stroke="#FD8369" stroke-width="4" stroke-linecap="round" stroke-linejoin="round"/>
<path d="M573.191 257.462V176.453" stroke="#FD8369" stroke-width="4" stroke-linecap="round" stroke-linejoin="round"/>
<path d="M458.042 257.462V176.453" stroke="#FD8369" stroke-width="4" stroke-linecap="round" stroke-linejoin="round"/>
<path d="M527.479 255.147L548.309 219.271" stroke="#ED7562" stroke-width="4" stroke-linecap="round" stroke-linejoin="round"/>
<path d="M525.743 172.402H503.176V172.981H525.743V172.402Z" fill="#74D5DE"/>
<path d="M527.479 119.168H477.716V155.044H527.479V119.168Z" fill="#2D37D5"/>
<path d="M495.721 148.678L488.71 172.981H500.999L507.805 148.678H495.721Z" fill="#2E279D"/>
<path d="M348.886 118.602H340V190.904" stroke="#DFDFDF" stroke-width="4" stroke-miterlimit="10"/>
<path d="M444.914 109.682H365.731V262.174H444.914V109.682Z" fill="#F3F3F3"/>
<path d="M513.391 82.7632C515.613 80.5892 517.017 77.7147 517.365 74.6253C517.713 71.5359 516.984 68.4211 515.3 65.8073C513.617 63.1935 511.083 61.2409 508.126 60.2796C505.17 59.3183 501.972 59.4071 499.073 60.5311C497.22 57.6908 494.629 55.4078 491.578 53.9262C488.527 52.4447 485.131 51.8204 481.753 52.1201C478.375 52.4198 475.141 53.6322 472.399 55.6277C469.657 57.6232 467.508 60.3267 466.184 63.4489C463.574 62.3934 460.699 62.1805 457.962 62.84C455.225 63.4995 452.763 64.9985 450.92 67.127C449.077 69.2554 447.946 71.9069 447.685 74.7102C447.424 77.5134 448.046 80.3281 449.465 82.7602L513.391 82.7632Z" fill="#DFDFDF"/>
<path d="M480.469 72.877V94.5176H414.065V115.081" stroke="#DFDFDF" stroke-width="4" stroke-miterlimit="10"/>
<path d="M438.352 119.326H372.292V132.059H438.352V119.326Z" fill="#DFDFDF"/>
<path d="M433.609 126.327C434.842 126.327 435.842 125.327 435.842 124.094C435.842 122.861 434.842 121.861 433.609 121.861C432.376 121.861 431.376 122.861 431.376 124.094C431.376 125.327 432.376 126.327 433.609 126.327Z" fill="#F3F3F3"/>
<path d="M395.104 124.096H429.496" stroke="#F3F3F3" stroke-width="4" stroke-linecap="round" stroke-linejoin="round"/>
<path d="M438.352 140.854H372.292V153.587H438.352V140.854Z" fill="#DFDFDF"/>
<path d="M433.609 147.854C434.842 147.854 435.842 146.855 435.842 145.622C435.842 144.388 434.842 143.389 433.609 143.389C432.376 143.389 431.376 144.388 431.376 145.622C431.376 146.855 432.376 147.854 433.609 147.854Z" fill="#F3F3F3"/>
<path d="M395.104 145.621H429.496" stroke="#F3F3F3" stroke-width="4" stroke-linecap="round" stroke-linejoin="round"/>
<path d="M438.352 162.375H372.292V175.108H438.352V162.375Z" fill="#DFDFDF"/>
<path d="M433.609 169.378C434.842 169.378 435.842 168.378 435.842 167.145C435.842 165.912 434.842 164.912 433.609 164.912C432.376 164.912 431.376 165.912 431.376 167.145C431.376 168.378 432.376 169.378 433.609 169.378Z" fill="#F3F3F3"/>
<path d="M395.104 167.145H429.496" stroke="#F3F3F3" stroke-width="4" stroke-linecap="round" stroke-linejoin="round"/>
<path d="M438.352 183.904H372.292V196.638H438.352V183.904Z" fill="#DFDFDF"/>
<path d="M433.609 190.901C434.842 190.901 435.842 189.902 435.842 188.668C435.842 187.435 434.842 186.436 433.609 186.436C432.376 186.436 431.376 187.435 431.376 188.668C431.376 189.902 432.376 190.901 433.609 190.901Z" fill="#F3F3F3"/>
<path d="M395.104 188.672H429.496" stroke="#F3F3F3" stroke-width="4" stroke-linecap="round" stroke-linejoin="round"/>
<path d="M433.609 212.427C434.842 212.427 435.842 211.427 435.842 210.194C435.842 208.961 434.842 207.961 433.609 207.961C432.376 207.961 431.376 208.961 431.376 210.194C431.376 211.427 432.376 212.427 433.609 212.427Z" fill="#F3F3F3"/>
<path d="M395.104 210.195H429.496" stroke="#F3F3F3" stroke-width="4" stroke-linecap="round" stroke-linejoin="round"/>
<path d="M351.786 128.49H361.695" stroke="#F3F3F3" stroke-width="2" stroke-linecap="round" stroke-linejoin="round"/>
<path d="M351.786 131.053H361.695" stroke="#F3F3F3" stroke-width="2" stroke-linecap="round" stroke-linejoin="round"/>
<path d="M351.786 145.938H361.695" stroke="#F3F3F3" stroke-width="2" stroke-linecap="round" stroke-linejoin="round"/>
<path d="M351.786 148.504H361.695" stroke="#F3F3F3" stroke-width="2" stroke-linecap="round" stroke-linejoin="round"/>
<path d="M351.786 167.145H361.695" stroke="#F3F3F3" stroke-width="2" stroke-linecap="round" stroke-linejoin="round"/>
<path d="M351.786 169.713H361.695" stroke="#F3F3F3" stroke-width="2" stroke-linecap="round" stroke-linejoin="round"/>
<path d="M351.786 187.666H361.695" stroke="#F3F3F3" stroke-width="2" stroke-linecap="round" stroke-linejoin="round"/>
<path d="M351.786 190.229H361.695" stroke="#F3F3F3" stroke-width="2" stroke-linecap="round" stroke-linejoin="round"/>
</svg>
