<svg width="661" height="294" viewBox="0 0 661 294" fill="none" xmlns="http://www.w3.org/2000/svg">
<rect width="661" height="294" rx="20" fill="#2D37D5"/>
<path d="M85.8 118H82.38L76.66 109.34V118H73.24V103.96H76.66L82.38 112.66V103.96H85.8V118ZM98.7991 112.24C98.7991 112.56 98.7791 112.893 98.7391 113.24H90.9991C91.0524 113.933 91.2724 114.467 91.6591 114.84C92.0591 115.2 92.5457 115.38 93.1191 115.38C93.9724 115.38 94.5657 115.02 94.8991 114.3H98.5391C98.3524 115.033 98.0124 115.693 97.5191 116.28C97.0391 116.867 96.4324 117.327 95.6991 117.66C94.9657 117.993 94.1457 118.16 93.2391 118.16C92.1457 118.16 91.1724 117.927 90.3191 117.46C89.4657 116.993 88.7991 116.327 88.3191 115.46C87.8391 114.593 87.5991 113.58 87.5991 112.42C87.5991 111.26 87.8324 110.247 88.2991 109.38C88.7791 108.513 89.4457 107.847 90.2991 107.38C91.1524 106.913 92.1324 106.68 93.2391 106.68C94.3191 106.68 95.2791 106.907 96.1191 107.36C96.9591 107.813 97.6124 108.46 98.0791 109.3C98.5591 110.14 98.7991 111.12 98.7991 112.24ZM95.2991 111.34C95.2991 110.753 95.0991 110.287 94.6991 109.94C94.2991 109.593 93.7991 109.42 93.1991 109.42C92.6257 109.42 92.1391 109.587 91.7391 109.92C91.3524 110.253 91.1124 110.727 91.0191 111.34H95.2991ZM111.123 112.24C111.123 112.56 111.103 112.893 111.063 113.24H103.323C103.377 113.933 103.597 114.467 103.983 114.84C104.383 115.2 104.87 115.38 105.443 115.38C106.297 115.38 106.89 115.02 107.223 114.3H110.863C110.677 115.033 110.337 115.693 109.843 116.28C109.363 116.867 108.757 117.327 108.023 117.66C107.29 117.993 106.47 118.16 105.563 118.16C104.47 118.16 103.497 117.927 102.643 117.46C101.79 116.993 101.123 116.327 100.643 115.46C100.163 114.593 99.9233 113.58 99.9233 112.42C99.9233 111.26 100.157 110.247 100.623 109.38C101.103 108.513 101.77 107.847 102.623 107.38C103.477 106.913 104.457 106.68 105.563 106.68C106.643 106.68 107.603 106.907 108.443 107.36C109.283 107.813 109.937 108.46 110.403 109.3C110.883 110.14 111.123 111.12 111.123 112.24ZM107.623 111.34C107.623 110.753 107.423 110.287 107.023 109.94C106.623 109.593 106.123 109.42 105.523 109.42C104.95 109.42 104.463 109.587 104.063 109.92C103.677 110.253 103.437 110.727 103.343 111.34H107.623ZM112.248 112.4C112.248 111.253 112.461 110.247 112.888 109.38C113.328 108.513 113.921 107.847 114.668 107.38C115.414 106.913 116.248 106.68 117.168 106.68C117.901 106.68 118.568 106.833 119.168 107.14C119.781 107.447 120.261 107.86 120.608 108.38V103.2H124.028V118H120.608V116.4C120.288 116.933 119.828 117.36 119.228 117.68C118.641 118 117.954 118.16 117.168 118.16C116.248 118.16 115.414 117.927 114.668 117.46C113.921 116.98 113.328 116.307 112.888 115.44C112.461 114.56 112.248 113.547 112.248 112.4ZM120.608 112.42C120.608 111.567 120.368 110.893 119.888 110.4C119.421 109.907 118.848 109.66 118.168 109.66C117.488 109.66 116.908 109.907 116.428 110.4C115.961 110.88 115.728 111.547 115.728 112.4C115.728 113.253 115.961 113.933 116.428 114.44C116.908 114.933 117.488 115.18 118.168 115.18C118.848 115.18 119.421 114.933 119.888 114.44C120.368 113.947 120.608 113.273 120.608 112.42ZM135.28 118.16C134.307 118.16 133.44 117.993 132.68 117.66C131.92 117.327 131.32 116.873 130.88 116.3C130.44 115.713 130.193 115.06 130.14 114.34H133.52C133.56 114.727 133.74 115.04 134.06 115.28C134.38 115.52 134.773 115.64 135.24 115.64C135.667 115.64 135.993 115.56 136.22 115.4C136.46 115.227 136.58 115.007 136.58 114.74C136.58 114.42 136.413 114.187 136.08 114.04C135.747 113.88 135.207 113.707 134.46 113.52C133.66 113.333 132.993 113.14 132.46 112.94C131.927 112.727 131.467 112.4 131.08 111.96C130.693 111.507 130.5 110.9 130.5 110.14C130.5 109.5 130.673 108.92 131.02 108.4C131.38 107.867 131.9 107.447 132.58 107.14C133.273 106.833 134.093 106.68 135.04 106.68C136.44 106.68 137.54 107.027 138.34 107.72C139.153 108.413 139.62 109.333 139.74 110.48H136.58C136.527 110.093 136.353 109.787 136.06 109.56C135.78 109.333 135.407 109.22 134.94 109.22C134.54 109.22 134.233 109.3 134.02 109.46C133.807 109.607 133.7 109.813 133.7 110.08C133.7 110.4 133.867 110.64 134.2 110.8C134.547 110.96 135.08 111.12 135.8 111.28C136.627 111.493 137.3 111.707 137.82 111.92C138.34 112.12 138.793 112.453 139.18 112.92C139.58 113.373 139.787 113.987 139.8 114.76C139.8 115.413 139.613 116 139.24 116.52C138.88 117.027 138.353 117.427 137.66 117.72C136.98 118.013 136.187 118.16 135.28 118.16ZM146.972 118.16C145.879 118.16 144.892 117.927 144.012 117.46C143.146 116.993 142.459 116.327 141.952 115.46C141.459 114.593 141.212 113.58 141.212 112.42C141.212 111.273 141.466 110.267 141.972 109.4C142.479 108.52 143.172 107.847 144.052 107.38C144.932 106.913 145.919 106.68 147.012 106.68C148.106 106.68 149.092 106.913 149.972 107.38C150.852 107.847 151.546 108.52 152.052 109.4C152.559 110.267 152.812 111.273 152.812 112.42C152.812 113.567 152.552 114.58 152.032 115.46C151.526 116.327 150.826 116.993 149.932 117.46C149.052 117.927 148.066 118.16 146.972 118.16ZM146.972 115.2C147.626 115.2 148.179 114.96 148.632 114.48C149.099 114 149.332 113.313 149.332 112.42C149.332 111.527 149.106 110.84 148.652 110.36C148.212 109.88 147.666 109.64 147.012 109.64C146.346 109.64 145.792 109.88 145.352 110.36C144.912 110.827 144.692 111.513 144.692 112.42C144.692 113.313 144.906 114 145.332 114.48C145.772 114.96 146.319 115.2 146.972 115.2ZM168.867 106.72C170.253 106.72 171.353 107.14 172.167 107.98C172.993 108.82 173.407 109.987 173.407 111.48V118H170.007V111.94C170.007 111.22 169.813 110.667 169.427 110.28C169.053 109.88 168.533 109.68 167.867 109.68C167.2 109.68 166.673 109.88 166.287 110.28C165.913 110.667 165.727 111.22 165.727 111.94V118H162.327V111.94C162.327 111.22 162.133 110.667 161.747 110.28C161.373 109.88 160.853 109.68 160.187 109.68C159.52 109.68 158.993 109.88 158.607 110.28C158.233 110.667 158.047 111.22 158.047 111.94V118H154.627V106.84H158.047V108.24C158.393 107.773 158.847 107.407 159.407 107.14C159.967 106.86 160.6 106.72 161.307 106.72C162.147 106.72 162.893 106.9 163.547 107.26C164.213 107.62 164.733 108.133 165.107 108.8C165.493 108.187 166.02 107.687 166.687 107.3C167.353 106.913 168.08 106.72 168.867 106.72ZM186.319 112.24C186.319 112.56 186.299 112.893 186.259 113.24H178.519C178.572 113.933 178.792 114.467 179.179 114.84C179.579 115.2 180.065 115.38 180.639 115.38C181.492 115.38 182.085 115.02 182.419 114.3H186.059C185.872 115.033 185.532 115.693 185.039 116.28C184.559 116.867 183.952 117.327 183.219 117.66C182.485 117.993 181.665 118.16 180.759 118.16C179.665 118.16 178.692 117.927 177.839 117.46C176.985 116.993 176.319 116.327 175.839 115.46C175.359 114.593 175.119 113.58 175.119 112.42C175.119 111.26 175.352 110.247 175.819 109.38C176.299 108.513 176.965 107.847 177.819 107.38C178.672 106.913 179.652 106.68 180.759 106.68C181.839 106.68 182.799 106.907 183.639 107.36C184.479 107.813 185.132 108.46 185.599 109.3C186.079 110.14 186.319 111.12 186.319 112.24ZM182.819 111.34C182.819 110.753 182.619 110.287 182.219 109.94C181.819 109.593 181.319 109.42 180.719 109.42C180.145 109.42 179.659 109.587 179.259 109.92C178.872 110.253 178.632 110.727 178.539 111.34H182.819ZM194.343 115.1V118H192.603C191.363 118 190.396 117.7 189.703 117.1C189.009 116.487 188.663 115.493 188.663 114.12V109.68H187.303V106.84H188.663V104.12H192.083V106.84H194.323V109.68H192.083V114.16C192.083 114.493 192.163 114.733 192.323 114.88C192.483 115.027 192.749 115.1 193.123 115.1H194.343ZM203.108 106.72C204.388 106.72 205.414 107.147 206.188 108C206.961 108.84 207.348 110 207.348 111.48V118H203.948V111.94C203.948 111.193 203.754 110.613 203.368 110.2C202.981 109.787 202.461 109.58 201.808 109.58C201.154 109.58 200.634 109.787 200.248 110.2C199.861 110.613 199.668 111.193 199.668 111.94V118H196.248V103.2H199.668V108.34C200.014 107.847 200.488 107.453 201.088 107.16C201.688 106.867 202.361 106.72 203.108 106.72ZM211.444 105.68C210.844 105.68 210.351 105.507 209.964 105.16C209.591 104.8 209.404 104.36 209.404 103.84C209.404 103.307 209.591 102.867 209.964 102.52C210.351 102.16 210.844 101.98 211.444 101.98C212.031 101.98 212.511 102.16 212.884 102.52C213.271 102.867 213.464 103.307 213.464 103.84C213.464 104.36 213.271 104.8 212.884 105.16C212.511 105.507 212.031 105.68 211.444 105.68ZM213.144 106.84V118H209.724V106.84H213.144ZM222.423 106.72C223.729 106.72 224.769 107.147 225.543 108C226.329 108.84 226.723 110 226.723 111.48V118H223.323V111.94C223.323 111.193 223.129 110.613 222.743 110.2C222.356 109.787 221.836 109.58 221.183 109.58C220.529 109.58 220.009 109.787 219.623 110.2C219.236 110.613 219.043 111.193 219.043 111.94V118H215.623V106.84H219.043V108.32C219.389 107.827 219.856 107.44 220.443 107.16C221.029 106.867 221.689 106.72 222.423 106.72ZM233.339 106.68C234.126 106.68 234.813 106.84 235.399 107.16C235.999 107.48 236.459 107.9 236.779 108.42V106.84H240.199V117.98C240.199 119.007 239.993 119.933 239.579 120.76C239.179 121.6 238.559 122.267 237.719 122.76C236.893 123.253 235.859 123.5 234.619 123.5C232.966 123.5 231.626 123.107 230.599 122.32C229.573 121.547 228.986 120.493 228.839 119.16H232.219C232.326 119.587 232.579 119.92 232.979 120.16C233.379 120.413 233.873 120.54 234.459 120.54C235.166 120.54 235.726 120.333 236.139 119.92C236.566 119.52 236.779 118.873 236.779 117.98V116.4C236.446 116.92 235.986 117.347 235.399 117.68C234.813 118 234.126 118.16 233.339 118.16C232.419 118.16 231.586 117.927 230.839 117.46C230.093 116.98 229.499 116.307 229.059 115.44C228.633 114.56 228.419 113.547 228.419 112.4C228.419 111.253 228.633 110.247 229.059 109.38C229.499 108.513 230.093 107.847 230.839 107.38C231.586 106.913 232.419 106.68 233.339 106.68ZM236.779 112.42C236.779 111.567 236.539 110.893 236.059 110.4C235.593 109.907 235.019 109.66 234.339 109.66C233.659 109.66 233.079 109.907 232.599 110.4C232.133 110.88 231.899 111.547 231.899 112.4C231.899 113.253 232.133 113.933 232.599 114.44C233.079 114.933 233.659 115.18 234.339 115.18C235.019 115.18 235.593 114.933 236.059 114.44C236.539 113.947 236.779 113.273 236.779 112.42ZM258.312 106.84L251.312 123.3H247.632L250.192 117.62L245.652 106.84H249.472L252.052 113.82L254.612 106.84H258.312ZM264.629 118.16C263.535 118.16 262.549 117.927 261.669 117.46C260.802 116.993 260.115 116.327 259.609 115.46C259.115 114.593 258.869 113.58 258.869 112.42C258.869 111.273 259.122 110.267 259.629 109.4C260.135 108.52 260.829 107.847 261.709 107.38C262.589 106.913 263.575 106.68 264.669 106.68C265.762 106.68 266.749 106.913 267.629 107.38C268.509 107.847 269.202 108.52 269.709 109.4C270.215 110.267 270.469 111.273 270.469 112.42C270.469 113.567 270.209 114.58 269.689 115.46C269.182 116.327 268.482 116.993 267.589 117.46C266.709 117.927 265.722 118.16 264.629 118.16ZM264.629 115.2C265.282 115.2 265.835 114.96 266.289 114.48C266.755 114 266.989 113.313 266.989 112.42C266.989 111.527 266.762 110.84 266.309 110.36C265.869 109.88 265.322 109.64 264.669 109.64C264.002 109.64 263.449 109.88 263.009 110.36C262.569 110.827 262.349 111.513 262.349 112.42C262.349 113.313 262.562 114 262.989 114.48C263.429 114.96 263.975 115.2 264.629 115.2ZM283.303 106.84V118H279.883V116.48C279.536 116.973 279.063 117.373 278.463 117.68C277.876 117.973 277.223 118.12 276.503 118.12C275.65 118.12 274.896 117.933 274.243 117.56C273.59 117.173 273.083 116.62 272.723 115.9C272.363 115.18 272.183 114.333 272.183 113.36V106.84H275.583V112.9C275.583 113.647 275.776 114.227 276.163 114.64C276.55 115.053 277.07 115.26 277.723 115.26C278.39 115.26 278.916 115.053 279.303 114.64C279.69 114.227 279.883 113.647 279.883 112.9V106.84H283.303ZM289.318 112.42C289.318 111.26 289.551 110.247 290.018 109.38C290.498 108.513 291.158 107.847 291.998 107.38C292.851 106.913 293.824 106.68 294.918 106.68C296.318 106.68 297.484 107.047 298.418 107.78C299.364 108.513 299.984 109.547 300.278 110.88H296.638C296.331 110.027 295.738 109.6 294.858 109.6C294.231 109.6 293.731 109.847 293.358 110.34C292.984 110.82 292.798 111.513 292.798 112.42C292.798 113.327 292.984 114.027 293.358 114.52C293.731 115 294.231 115.24 294.858 115.24C295.738 115.24 296.331 114.813 296.638 113.96H300.278C299.984 115.267 299.364 116.293 298.418 117.04C297.471 117.787 296.304 118.16 294.918 118.16C293.824 118.16 292.851 117.927 291.998 117.46C291.158 116.993 290.498 116.327 290.018 115.46C289.551 114.593 289.318 113.58 289.318 112.42ZM301.427 112.4C301.427 111.253 301.641 110.247 302.067 109.38C302.507 108.513 303.101 107.847 303.847 107.38C304.594 106.913 305.427 106.68 306.347 106.68C307.134 106.68 307.821 106.84 308.407 107.16C309.007 107.48 309.467 107.9 309.787 108.42V106.84H313.207V118H309.787V116.42C309.454 116.94 308.987 117.36 308.387 117.68C307.801 118 307.114 118.16 306.327 118.16C305.421 118.16 304.594 117.927 303.847 117.46C303.101 116.98 302.507 116.307 302.067 115.44C301.641 114.56 301.427 113.547 301.427 112.4ZM309.787 112.42C309.787 111.567 309.547 110.893 309.067 110.4C308.601 109.907 308.027 109.66 307.347 109.66C306.667 109.66 306.087 109.907 305.607 110.4C305.141 110.88 304.907 111.547 304.907 112.4C304.907 113.253 305.141 113.933 305.607 114.44C306.087 114.933 306.667 115.18 307.347 115.18C308.027 115.18 308.601 114.933 309.067 114.44C309.547 113.947 309.787 113.273 309.787 112.42ZM322.481 106.72C323.788 106.72 324.828 107.147 325.601 108C326.388 108.84 326.781 110 326.781 111.48V118H323.381V111.94C323.381 111.193 323.188 110.613 322.801 110.2C322.415 109.787 321.895 109.58 321.241 109.58C320.588 109.58 320.068 109.787 319.681 110.2C319.295 110.613 319.101 111.193 319.101 111.94V118H315.681V106.84H319.101V108.32C319.448 107.827 319.915 107.44 320.501 107.16C321.088 106.867 321.748 106.72 322.481 106.72ZM329.938 103.96H333.438L331.198 109.32H328.898L329.938 103.96ZM341.667 115.1V118H339.927C338.687 118 337.72 117.7 337.027 117.1C336.334 116.487 335.987 115.493 335.987 114.12V109.68H334.627V106.84H335.987V104.12H339.407V106.84H341.647V109.68H339.407V114.16C339.407 114.493 339.487 114.733 339.647 114.88C339.807 115.027 340.074 115.1 340.447 115.1H341.667ZM353.41 109.68H351.57V118H348.15V109.68H346.91V106.84H348.15V106.52C348.15 105.147 348.544 104.107 349.33 103.4C350.117 102.68 351.27 102.32 352.79 102.32C353.044 102.32 353.23 102.327 353.35 102.34V105.24C352.697 105.2 352.237 105.293 351.97 105.52C351.704 105.747 351.57 106.153 351.57 106.74V106.84H353.41V109.68ZM356.737 105.68C356.137 105.68 355.644 105.507 355.257 105.16C354.884 104.8 354.697 104.36 354.697 103.84C354.697 103.307 354.884 102.867 355.257 102.52C355.644 102.16 356.137 101.98 356.737 101.98C357.324 101.98 357.804 102.16 358.177 102.52C358.564 102.867 358.757 103.307 358.757 103.84C358.757 104.36 358.564 104.8 358.177 105.16C357.804 105.507 357.324 105.68 356.737 105.68ZM358.437 106.84V118H355.017V106.84H358.437ZM367.716 106.72C369.022 106.72 370.062 107.147 370.836 108C371.622 108.84 372.016 110 372.016 111.48V118H368.616V111.94C368.616 111.193 368.422 110.613 368.036 110.2C367.649 109.787 367.129 109.58 366.476 109.58C365.822 109.58 365.302 109.787 364.916 110.2C364.529 110.613 364.336 111.193 364.336 111.94V118H360.916V106.84H364.336V108.32C364.682 107.827 365.149 107.44 365.736 107.16C366.322 106.867 366.982 106.72 367.716 106.72ZM373.712 112.4C373.712 111.253 373.926 110.247 374.352 109.38C374.792 108.513 375.386 107.847 376.132 107.38C376.879 106.913 377.712 106.68 378.632 106.68C379.366 106.68 380.032 106.833 380.632 107.14C381.246 107.447 381.726 107.86 382.072 108.38V103.2H385.492V118H382.072V116.4C381.752 116.933 381.292 117.36 380.692 117.68C380.106 118 379.419 118.16 378.632 118.16C377.712 118.16 376.879 117.927 376.132 117.46C375.386 116.98 374.792 116.307 374.352 115.44C373.926 114.56 373.712 113.547 373.712 112.4ZM382.072 112.42C382.072 111.567 381.832 110.893 381.352 110.4C380.886 109.907 380.312 109.66 379.632 109.66C378.952 109.66 378.372 109.907 377.892 110.4C377.426 110.88 377.192 111.547 377.192 112.4C377.192 113.253 377.426 113.933 377.892 114.44C378.372 114.933 378.952 115.18 379.632 115.18C380.312 115.18 380.886 114.933 381.352 114.44C381.832 113.947 382.072 113.273 382.072 112.42ZM392.067 103.18C393.493 103.18 394.633 103.553 395.487 104.3C396.353 105.047 396.787 106.1 396.787 107.46C396.787 108.713 396.373 109.693 395.547 110.4C394.733 111.093 393.653 111.447 392.307 111.46L392.207 112.96H389.207L389.107 109.24H390.307C391.333 109.24 392.113 109.113 392.647 108.86C393.193 108.607 393.467 108.147 393.467 107.48C393.467 107.013 393.34 106.647 393.087 106.38C392.833 106.113 392.48 105.98 392.027 105.98C391.547 105.98 391.173 106.12 390.907 106.4C390.64 106.667 390.507 107.033 390.507 107.5H387.287C387.26 106.687 387.427 105.953 387.787 105.3C388.16 104.647 388.707 104.133 389.427 103.76C390.16 103.373 391.04 103.18 392.067 103.18ZM390.747 118.16C390.147 118.16 389.653 117.987 389.267 117.64C388.893 117.28 388.707 116.84 388.707 116.32C388.707 115.787 388.893 115.34 389.267 114.98C389.653 114.62 390.147 114.44 390.747 114.44C391.333 114.44 391.813 114.62 392.187 114.98C392.573 115.34 392.767 115.787 392.767 116.32C392.767 116.84 392.573 117.28 392.187 117.64C391.813 117.987 391.333 118.16 390.747 118.16ZM85.4 133.96V148H81.98V142.22H76.66V148H73.24V133.96H76.66V139.46H81.98V133.96H85.4ZM92.9489 148.16C91.8556 148.16 90.8689 147.927 89.9889 147.46C89.1222 146.993 88.4356 146.327 87.9289 145.46C87.4356 144.593 87.1889 143.58 87.1889 142.42C87.1889 141.273 87.4422 140.267 87.9489 139.4C88.4556 138.52 89.1489 137.847 90.0289 137.38C90.9089 136.913 91.8956 136.68 92.9889 136.68C94.0822 136.68 95.0689 136.913 95.9489 137.38C96.8289 137.847 97.5222 138.52 98.0289 139.4C98.5356 140.267 98.7889 141.273 98.7889 142.42C98.7889 143.567 98.5289 144.58 98.0089 145.46C97.5022 146.327 96.8022 146.993 95.9089 147.46C95.0289 147.927 94.0422 148.16 92.9489 148.16ZM92.9489 145.2C93.6022 145.2 94.1556 144.96 94.6089 144.48C95.0756 144 95.3089 143.313 95.3089 142.42C95.3089 141.527 95.0822 140.84 94.6289 140.36C94.1889 139.88 93.6422 139.64 92.9889 139.64C92.3222 139.64 91.7689 139.88 91.3289 140.36C90.8889 140.827 90.6689 141.513 90.6689 142.42C90.6689 143.313 90.8822 144 91.3089 144.48C91.7489 144.96 92.2956 145.2 92.9489 145.2ZM104.023 138.42C104.357 137.9 104.817 137.48 105.403 137.16C105.99 136.84 106.677 136.68 107.463 136.68C108.383 136.68 109.217 136.913 109.963 137.38C110.71 137.847 111.297 138.513 111.723 139.38C112.163 140.247 112.383 141.253 112.383 142.4C112.383 143.547 112.163 144.56 111.723 145.44C111.297 146.307 110.71 146.98 109.963 147.46C109.217 147.927 108.383 148.16 107.463 148.16C106.69 148.16 106.003 148 105.403 147.68C104.817 147.36 104.357 146.947 104.023 146.44V153.32H100.603V136.84H104.023V138.42ZM108.903 142.4C108.903 141.547 108.663 140.88 108.183 140.4C107.717 139.907 107.137 139.66 106.443 139.66C105.763 139.66 105.183 139.907 104.703 140.4C104.237 140.893 104.003 141.567 104.003 142.42C104.003 143.273 104.237 143.947 104.703 144.44C105.183 144.933 105.763 145.18 106.443 145.18C107.123 145.18 107.703 144.933 108.183 144.44C108.663 143.933 108.903 143.253 108.903 142.4ZM123.496 148.16C122.402 148.16 121.416 147.927 120.536 147.46C119.669 146.993 118.982 146.327 118.476 145.46C117.982 144.593 117.736 143.58 117.736 142.42C117.736 141.273 117.989 140.267 118.496 139.4C119.002 138.52 119.696 137.847 120.576 137.38C121.456 136.913 122.442 136.68 123.536 136.68C124.629 136.68 125.616 136.913 126.496 137.38C127.376 137.847 128.069 138.52 128.576 139.4C129.082 140.267 129.336 141.273 129.336 142.42C129.336 143.567 129.076 144.58 128.556 145.46C128.049 146.327 127.349 146.993 126.456 147.46C125.576 147.927 124.589 148.16 123.496 148.16ZM123.496 145.2C124.149 145.2 124.702 144.96 125.156 144.48C125.622 144 125.856 143.313 125.856 142.42C125.856 141.527 125.629 140.84 125.176 140.36C124.736 139.88 124.189 139.64 123.536 139.64C122.869 139.64 122.316 139.88 121.876 140.36C121.436 140.827 121.216 141.513 121.216 142.42C121.216 143.313 121.429 144 121.856 144.48C122.296 144.96 122.842 145.2 123.496 145.2ZM136.17 144.8L138.59 136.84H142.23L138.27 148H134.05L130.09 136.84H133.75L136.17 144.8ZM154.19 142.24C154.19 142.56 154.17 142.893 154.13 143.24H146.39C146.443 143.933 146.663 144.467 147.05 144.84C147.45 145.2 147.936 145.38 148.51 145.38C149.363 145.38 149.956 145.02 150.29 144.3H153.93C153.743 145.033 153.403 145.693 152.91 146.28C152.43 146.867 151.823 147.327 151.09 147.66C150.356 147.993 149.536 148.16 148.63 148.16C147.536 148.16 146.563 147.927 145.71 147.46C144.856 146.993 144.19 146.327 143.71 145.46C143.23 144.593 142.99 143.58 142.99 142.42C142.99 141.26 143.223 140.247 143.69 139.38C144.17 138.513 144.836 137.847 145.69 137.38C146.543 136.913 147.523 136.68 148.63 136.68C149.71 136.68 150.67 136.907 151.51 137.36C152.35 137.813 153.003 138.46 153.47 139.3C153.95 140.14 154.19 141.12 154.19 142.24ZM150.69 141.34C150.69 140.753 150.49 140.287 150.09 139.94C149.69 139.593 149.19 139.42 148.59 139.42C148.016 139.42 147.53 139.587 147.13 139.92C146.743 140.253 146.503 140.727 146.41 141.34H150.69ZM159.414 138.7C159.814 138.087 160.314 137.607 160.914 137.26C161.514 136.9 162.181 136.72 162.914 136.72V140.34H161.974C161.121 140.34 160.481 140.527 160.054 140.9C159.627 141.26 159.414 141.9 159.414 142.82V148H155.994V136.84H159.414V138.7ZM175.007 145.1V148H173.267C172.027 148 171.06 147.7 170.367 147.1C169.674 146.487 169.327 145.493 169.327 144.12V139.68H167.967V136.84H169.327V134.12H172.747V136.84H174.987V139.68H172.747V144.16C172.747 144.493 172.827 144.733 172.987 144.88C173.147 145.027 173.414 145.1 173.787 145.1H175.007ZM181.992 148.16C180.899 148.16 179.912 147.927 179.032 147.46C178.165 146.993 177.479 146.327 176.972 145.46C176.479 144.593 176.232 143.58 176.232 142.42C176.232 141.273 176.485 140.267 176.992 139.4C177.499 138.52 178.192 137.847 179.072 137.38C179.952 136.913 180.939 136.68 182.032 136.68C183.125 136.68 184.112 136.913 184.992 137.38C185.872 137.847 186.565 138.52 187.072 139.4C187.579 140.267 187.832 141.273 187.832 142.42C187.832 143.567 187.572 144.58 187.052 145.46C186.545 146.327 185.845 146.993 184.952 147.46C184.072 147.927 183.085 148.16 181.992 148.16ZM181.992 145.2C182.645 145.2 183.199 144.96 183.652 144.48C184.119 144 184.352 143.313 184.352 142.42C184.352 141.527 184.125 140.84 183.672 140.36C183.232 139.88 182.685 139.64 182.032 139.64C181.365 139.64 180.812 139.88 180.372 140.36C179.932 140.827 179.712 141.513 179.712 142.42C179.712 143.313 179.925 144 180.352 144.48C180.792 144.96 181.339 145.2 181.992 145.2ZM198.965 148.16C197.871 148.16 196.885 147.927 196.005 147.46C195.138 146.993 194.451 146.327 193.945 145.46C193.451 144.593 193.205 143.58 193.205 142.42C193.205 141.273 193.458 140.267 193.965 139.4C194.471 138.52 195.165 137.847 196.045 137.38C196.925 136.913 197.911 136.68 199.005 136.68C200.098 136.68 201.085 136.913 201.965 137.38C202.845 137.847 203.538 138.52 204.045 139.4C204.551 140.267 204.805 141.273 204.805 142.42C204.805 143.567 204.545 144.58 204.025 145.46C203.518 146.327 202.818 146.993 201.925 147.46C201.045 147.927 200.058 148.16 198.965 148.16ZM198.965 145.2C199.618 145.2 200.171 144.96 200.625 144.48C201.091 144 201.325 143.313 201.325 142.42C201.325 141.527 201.098 140.84 200.645 140.36C200.205 139.88 199.658 139.64 199.005 139.64C198.338 139.64 197.785 139.88 197.345 140.36C196.905 140.827 196.685 141.513 196.685 142.42C196.685 143.313 196.898 144 197.325 144.48C197.765 144.96 198.311 145.2 198.965 145.2ZM217.639 136.84V148H214.219V146.48C213.872 146.973 213.399 147.373 212.799 147.68C212.212 147.973 211.559 148.12 210.839 148.12C209.986 148.12 209.232 147.933 208.579 147.56C207.926 147.173 207.419 146.62 207.059 145.9C206.699 145.18 206.519 144.333 206.519 143.36V136.84H209.919V142.9C209.919 143.647 210.112 144.227 210.499 144.64C210.886 145.053 211.406 145.26 212.059 145.26C212.726 145.26 213.252 145.053 213.639 144.64C214.026 144.227 214.219 143.647 214.219 142.9V136.84H217.639ZM223.515 138.7C223.915 138.087 224.415 137.607 225.015 137.26C225.615 136.9 226.282 136.72 227.015 136.72V140.34H226.075C225.222 140.34 224.582 140.527 224.155 140.9C223.729 141.26 223.515 141.9 223.515 142.82V148H220.095V136.84H223.515V138.7ZM248.908 136.84L245.888 148H242.108L240.348 140.76L238.528 148H234.768L231.728 136.84H235.148L236.728 144.82L238.608 136.84H242.228L244.128 144.78L245.688 136.84H248.908ZM251.933 135.68C251.333 135.68 250.839 135.507 250.453 135.16C250.079 134.8 249.893 134.36 249.893 133.84C249.893 133.307 250.079 132.867 250.453 132.52C250.839 132.16 251.333 131.98 251.933 131.98C252.519 131.98 252.999 132.16 253.373 132.52C253.759 132.867 253.953 133.307 253.953 133.84C253.953 134.36 253.759 134.8 253.373 135.16C252.999 135.507 252.519 135.68 251.933 135.68ZM253.633 136.84V148H250.213V136.84H253.633ZM260.651 148.16C259.678 148.16 258.811 147.993 258.051 147.66C257.291 147.327 256.691 146.873 256.251 146.3C255.811 145.713 255.564 145.06 255.511 144.34H258.891C258.931 144.727 259.111 145.04 259.431 145.28C259.751 145.52 260.144 145.64 260.611 145.64C261.038 145.64 261.364 145.56 261.591 145.4C261.831 145.227 261.951 145.007 261.951 144.74C261.951 144.42 261.784 144.187 261.451 144.04C261.118 143.88 260.578 143.707 259.831 143.52C259.031 143.333 258.364 143.14 257.831 142.94C257.298 142.727 256.838 142.4 256.451 141.96C256.064 141.507 255.871 140.9 255.871 140.14C255.871 139.5 256.044 138.92 256.391 138.4C256.751 137.867 257.271 137.447 257.951 137.14C258.644 136.833 259.464 136.68 260.411 136.68C261.811 136.68 262.911 137.027 263.711 137.72C264.524 138.413 264.991 139.333 265.111 140.48H261.951C261.898 140.093 261.724 139.787 261.431 139.56C261.151 139.333 260.778 139.22 260.311 139.22C259.911 139.22 259.604 139.3 259.391 139.46C259.178 139.607 259.071 139.813 259.071 140.08C259.071 140.4 259.238 140.64 259.571 140.8C259.918 140.96 260.451 141.12 261.171 141.28C261.998 141.493 262.671 141.707 263.191 141.92C263.711 142.12 264.164 142.453 264.551 142.92C264.951 143.373 265.158 143.987 265.171 144.76C265.171 145.413 264.984 146 264.611 146.52C264.251 147.027 263.724 147.427 263.031 147.72C262.351 148.013 261.558 148.16 260.651 148.16ZM274.123 136.72C275.403 136.72 276.43 137.147 277.203 138C277.977 138.84 278.363 140 278.363 141.48V148H274.963V141.94C274.963 141.193 274.77 140.613 274.383 140.2C273.997 139.787 273.477 139.58 272.823 139.58C272.17 139.58 271.65 139.787 271.263 140.2C270.877 140.613 270.683 141.193 270.683 141.94V148H267.263V133.2H270.683V138.34C271.03 137.847 271.503 137.453 272.103 137.16C272.703 136.867 273.377 136.72 274.123 136.72ZM284.16 133.2V148H280.74V133.2H284.16ZM288.358 135.68C287.758 135.68 287.265 135.507 286.878 135.16C286.505 134.8 286.318 134.36 286.318 133.84C286.318 133.307 286.505 132.867 286.878 132.52C287.265 132.16 287.758 131.98 288.358 131.98C288.945 131.98 289.425 132.16 289.798 132.52C290.185 132.867 290.378 133.307 290.378 133.84C290.378 134.36 290.185 134.8 289.798 135.16C289.425 135.507 288.945 135.68 288.358 135.68ZM290.058 136.84V148H286.638V136.84H290.058ZM297.077 148.16C296.104 148.16 295.237 147.993 294.477 147.66C293.717 147.327 293.117 146.873 292.677 146.3C292.237 145.713 291.99 145.06 291.937 144.34H295.317C295.357 144.727 295.537 145.04 295.857 145.28C296.177 145.52 296.57 145.64 297.037 145.64C297.464 145.64 297.79 145.56 298.017 145.4C298.257 145.227 298.377 145.007 298.377 144.74C298.377 144.42 298.21 144.187 297.877 144.04C297.544 143.88 297.004 143.707 296.257 143.52C295.457 143.333 294.79 143.14 294.257 142.94C293.724 142.727 293.264 142.4 292.877 141.96C292.49 141.507 292.297 140.9 292.297 140.14C292.297 139.5 292.47 138.92 292.817 138.4C293.177 137.867 293.697 137.447 294.377 137.14C295.07 136.833 295.89 136.68 296.837 136.68C298.237 136.68 299.337 137.027 300.137 137.72C300.95 138.413 301.417 139.333 301.537 140.48H298.377C298.324 140.093 298.15 139.787 297.857 139.56C297.577 139.333 297.204 139.22 296.737 139.22C296.337 139.22 296.03 139.3 295.817 139.46C295.604 139.607 295.497 139.813 295.497 140.08C295.497 140.4 295.664 140.64 295.997 140.8C296.344 140.96 296.877 141.12 297.597 141.28C298.424 141.493 299.097 141.707 299.617 141.92C300.137 142.12 300.59 142.453 300.977 142.92C301.377 143.373 301.584 143.987 301.597 144.76C301.597 145.413 301.41 146 301.037 146.52C300.677 147.027 300.15 147.427 299.457 147.72C298.777 148.013 297.984 148.16 297.077 148.16ZM309.909 145.1V148H308.169C306.929 148 305.963 147.7 305.269 147.1C304.576 146.487 304.229 145.493 304.229 144.12V139.68H302.869V136.84H304.229V134.12H307.649V136.84H309.889V139.68H307.649V144.16C307.649 144.493 307.729 144.733 307.889 144.88C308.049 145.027 308.316 145.1 308.689 145.1H309.909ZM322.273 145.1V148H320.533C319.293 148 318.326 147.7 317.633 147.1C316.939 146.487 316.593 145.493 316.593 144.12V139.68H315.233V136.84H316.593V134.12H320.013V136.84H322.253V139.68H320.013V144.16C320.013 144.493 320.093 144.733 320.253 144.88C320.413 145.027 320.679 145.1 321.053 145.1H322.273ZM329.258 148.16C328.164 148.16 327.178 147.927 326.298 147.46C325.431 146.993 324.744 146.327 324.238 145.46C323.744 144.593 323.498 143.58 323.498 142.42C323.498 141.273 323.751 140.267 324.257 139.4C324.764 138.52 325.458 137.847 326.338 137.38C327.218 136.913 328.204 136.68 329.298 136.68C330.391 136.68 331.378 136.913 332.258 137.38C333.138 137.847 333.831 138.52 334.338 139.4C334.844 140.267 335.098 141.273 335.098 142.42C335.098 143.567 334.838 144.58 334.318 145.46C333.811 146.327 333.111 146.993 332.218 147.46C331.338 147.927 330.351 148.16 329.258 148.16ZM329.258 145.2C329.911 145.2 330.464 144.96 330.918 144.48C331.384 144 331.618 143.313 331.618 142.42C331.618 141.527 331.391 140.84 330.938 140.36C330.498 139.88 329.951 139.64 329.298 139.64C328.631 139.64 328.078 139.88 327.638 140.36C327.198 140.827 326.978 141.513 326.978 142.42C326.978 143.313 327.191 144 327.618 144.48C328.058 144.96 328.604 145.2 329.258 145.2ZM76.66 168.7C77.06 168.087 77.56 167.607 78.16 167.26C78.76 166.9 79.4267 166.72 80.16 166.72V170.34H79.22C78.3667 170.34 77.7267 170.527 77.3 170.9C76.8733 171.26 76.66 171.9 76.66 172.82V178H73.24V166.84H76.66V168.7ZM92.3147 172.24C92.3147 172.56 92.2947 172.893 92.2547 173.24H84.5147C84.568 173.933 84.788 174.467 85.1747 174.84C85.5747 175.2 86.0614 175.38 86.6347 175.38C87.488 175.38 88.0814 175.02 88.4147 174.3H92.0547C91.868 175.033 91.528 175.693 91.0347 176.28C90.5547 176.867 89.948 177.327 89.2147 177.66C88.4814 177.993 87.6614 178.16 86.7547 178.16C85.6614 178.16 84.688 177.927 83.8347 177.46C82.9814 176.993 82.3147 176.327 81.8347 175.46C81.3547 174.593 81.1147 173.58 81.1147 172.42C81.1147 171.26 81.348 170.247 81.8147 169.38C82.2947 168.513 82.9614 167.847 83.8147 167.38C84.668 166.913 85.648 166.68 86.7547 166.68C87.8347 166.68 88.7947 166.907 89.6347 167.36C90.4747 167.813 91.128 168.46 91.5947 169.3C92.0747 170.14 92.3147 171.12 92.3147 172.24ZM88.8147 171.34C88.8147 170.753 88.6147 170.287 88.2147 169.94C87.8147 169.593 87.3147 169.42 86.7147 169.42C86.1414 169.42 85.6547 169.587 85.2547 169.92C84.868 170.253 84.628 170.727 84.5347 171.34H88.8147ZM93.4389 172.44C93.4389 171.333 93.6656 170.347 94.1189 169.48C94.5856 168.613 95.2056 167.94 95.9789 167.46C96.7656 166.967 97.6189 166.72 98.5389 166.72C99.2456 166.72 99.8789 166.847 100.439 167.1C100.999 167.34 101.452 167.68 101.799 168.12V166.84H105.219V183.32H101.799V176.6C101.412 177.067 100.939 177.44 100.379 177.72C99.8322 178 99.2056 178.14 98.4989 178.14C97.5922 178.14 96.7522 177.9 95.9789 177.42C95.2056 176.94 94.5856 176.267 94.1189 175.4C93.6656 174.533 93.4389 173.547 93.4389 172.44ZM101.799 172.42C101.799 171.82 101.679 171.32 101.439 170.92C101.212 170.507 100.912 170.2 100.539 170C100.166 169.787 99.7722 169.68 99.3589 169.68C98.9589 169.68 98.5722 169.787 98.1989 170C97.8256 170.2 97.5189 170.507 97.2789 170.92C97.0389 171.333 96.9189 171.84 96.9189 172.44C96.9189 173.04 97.0389 173.547 97.2789 173.96C97.5189 174.36 97.8256 174.667 98.1989 174.88C98.5722 175.08 98.9589 175.18 99.3589 175.18C99.7589 175.18 100.146 175.08 100.519 174.88C100.906 174.667 101.212 174.353 101.439 173.94C101.679 173.527 101.799 173.02 101.799 172.42ZM118.713 166.84V178H115.293V176.48C114.946 176.973 114.473 177.373 113.873 177.68C113.286 177.973 112.633 178.12 111.913 178.12C111.06 178.12 110.306 177.933 109.653 177.56C109 177.173 108.493 176.62 108.133 175.9C107.773 175.18 107.593 174.333 107.593 173.36V166.84H110.993V172.9C110.993 173.647 111.186 174.227 111.573 174.64C111.96 175.053 112.48 175.26 113.133 175.26C113.8 175.26 114.326 175.053 114.713 174.64C115.1 174.227 115.293 173.647 115.293 172.9V166.84H118.713ZM131.69 172.24C131.69 172.56 131.67 172.893 131.63 173.24H123.89C123.943 173.933 124.163 174.467 124.55 174.84C124.95 175.2 125.436 175.38 126.01 175.38C126.863 175.38 127.456 175.02 127.79 174.3H131.43C131.243 175.033 130.903 175.693 130.41 176.28C129.93 176.867 129.323 177.327 128.59 177.66C127.856 177.993 127.036 178.16 126.13 178.16C125.036 178.16 124.063 177.927 123.21 177.46C122.356 176.993 121.69 176.327 121.21 175.46C120.73 174.593 120.49 173.58 120.49 172.42C120.49 171.26 120.723 170.247 121.19 169.38C121.67 168.513 122.336 167.847 123.19 167.38C124.043 166.913 125.023 166.68 126.13 166.68C127.21 166.68 128.17 166.907 129.01 167.36C129.85 167.813 130.503 168.46 130.97 169.3C131.45 170.14 131.69 171.12 131.69 172.24ZM128.19 171.34C128.19 170.753 127.99 170.287 127.59 169.94C127.19 169.593 126.69 169.42 126.09 169.42C125.516 169.42 125.03 169.587 124.63 169.92C124.243 170.253 124.003 170.727 123.91 171.34H128.19ZM138.034 178.16C137.061 178.16 136.194 177.993 135.434 177.66C134.674 177.327 134.074 176.873 133.634 176.3C133.194 175.713 132.947 175.06 132.894 174.34H136.274C136.314 174.727 136.494 175.04 136.814 175.28C137.134 175.52 137.527 175.64 137.994 175.64C138.421 175.64 138.747 175.56 138.974 175.4C139.214 175.227 139.334 175.007 139.334 174.74C139.334 174.42 139.167 174.187 138.834 174.04C138.501 173.88 137.961 173.707 137.214 173.52C136.414 173.333 135.747 173.14 135.214 172.94C134.681 172.727 134.221 172.4 133.834 171.96C133.447 171.507 133.254 170.9 133.254 170.14C133.254 169.5 133.427 168.92 133.774 168.4C134.134 167.867 134.654 167.447 135.334 167.14C136.027 166.833 136.847 166.68 137.794 166.68C139.194 166.68 140.294 167.027 141.094 167.72C141.907 168.413 142.374 169.333 142.494 170.48H139.334C139.281 170.093 139.107 169.787 138.814 169.56C138.534 169.333 138.161 169.22 137.694 169.22C137.294 169.22 136.987 169.3 136.774 169.46C136.561 169.607 136.454 169.813 136.454 170.08C136.454 170.4 136.621 170.64 136.954 170.8C137.301 170.96 137.834 171.12 138.554 171.28C139.381 171.493 140.054 171.707 140.574 171.92C141.094 172.12 141.547 172.453 141.934 172.92C142.334 173.373 142.541 173.987 142.554 174.76C142.554 175.413 142.367 176 141.994 176.52C141.634 177.027 141.107 177.427 140.414 177.72C139.734 178.013 138.941 178.16 138.034 178.16ZM150.866 175.1V178H149.126C147.886 178 146.92 177.7 146.226 177.1C145.533 176.487 145.186 175.493 145.186 174.12V169.68H143.826V166.84H145.186V164.12H148.606V166.84H150.846V169.68H148.606V174.16C148.606 174.493 148.686 174.733 148.846 174.88C149.006 175.027 149.273 175.1 149.646 175.1H150.866ZM162.61 169.68H160.77V178H157.35V169.68H156.11V166.84H157.35V166.52C157.35 165.147 157.743 164.107 158.53 163.4C159.316 162.68 160.47 162.32 161.99 162.32C162.243 162.32 162.43 162.327 162.55 162.34V165.24C161.896 165.2 161.436 165.293 161.17 165.52C160.903 165.747 160.77 166.153 160.77 166.74V166.84H162.61V169.68ZM169.297 178.16C168.203 178.16 167.217 177.927 166.337 177.46C165.47 176.993 164.783 176.327 164.277 175.46C163.783 174.593 163.537 173.58 163.537 172.42C163.537 171.273 163.79 170.267 164.297 169.4C164.803 168.52 165.497 167.847 166.377 167.38C167.257 166.913 168.243 166.68 169.337 166.68C170.43 166.68 171.417 166.913 172.297 167.38C173.177 167.847 173.87 168.52 174.377 169.4C174.883 170.267 175.137 171.273 175.137 172.42C175.137 173.567 174.877 174.58 174.357 175.46C173.85 176.327 173.15 176.993 172.257 177.46C171.377 177.927 170.39 178.16 169.297 178.16ZM169.297 175.2C169.95 175.2 170.503 174.96 170.957 174.48C171.423 174 171.657 173.313 171.657 172.42C171.657 171.527 171.43 170.84 170.977 170.36C170.537 169.88 169.99 169.64 169.337 169.64C168.67 169.64 168.117 169.88 167.677 170.36C167.237 170.827 167.017 171.513 167.017 172.42C167.017 173.313 167.23 174 167.657 174.48C168.097 174.96 168.643 175.2 169.297 175.2ZM180.371 168.7C180.771 168.087 181.271 167.607 181.871 167.26C182.471 166.9 183.138 166.72 183.871 166.72V170.34H182.931C182.078 170.34 181.438 170.527 181.011 170.9C180.584 171.26 180.371 171.9 180.371 172.82V178H176.951V166.84H180.371V168.7ZM191.464 165.68C190.864 165.68 190.371 165.507 189.984 165.16C189.611 164.8 189.424 164.36 189.424 163.84C189.424 163.307 189.611 162.867 189.984 162.52C190.371 162.16 190.864 161.98 191.464 161.98C192.051 161.98 192.531 162.16 192.904 162.52C193.291 162.867 193.484 163.307 193.484 163.84C193.484 164.36 193.291 164.8 192.904 165.16C192.531 165.507 192.051 165.68 191.464 165.68ZM193.164 166.84V178H189.744V166.84H193.164ZM201.862 175.1V178H200.122C198.882 178 197.916 177.7 197.222 177.1C196.529 176.487 196.182 175.493 196.182 174.12V169.68H194.822V166.84H196.182V164.12H199.602V166.84H201.842V169.68H199.602V174.16C199.602 174.493 199.682 174.733 199.842 174.88C200.002 175.027 200.269 175.1 200.642 175.1H201.862ZM208.267 163.46L207.867 173.04H204.967L204.567 163.46H208.267ZM206.467 178.16C205.867 178.16 205.374 177.987 204.987 177.64C204.614 177.28 204.427 176.84 204.427 176.32C204.427 175.787 204.614 175.34 204.987 174.98C205.374 174.62 205.867 174.44 206.467 174.44C207.054 174.44 207.534 174.62 207.907 174.98C208.294 175.34 208.487 175.787 208.487 176.32C208.487 176.84 208.294 177.28 207.907 177.64C207.534 177.987 207.054 178.16 206.467 178.16Z" fill="#FFD9EE"/>
<path fill-rule="evenodd" clip-rule="evenodd" d="M478.294 85.9846L477.632 82.6434C477.446 81.7092 476.896 80.8873 476.103 80.358C475.311 79.8288 474.341 79.6354 473.407 79.8204L460.101 82.467C459.167 82.6539 458.345 83.2037 457.816 83.996C457.287 84.7882 457.093 85.758 457.278 86.6926L466.982 135.404C467.074 135.867 467.257 136.307 467.519 136.7C467.781 137.092 468.118 137.429 468.51 137.691C468.903 137.953 469.343 138.135 469.806 138.227C470.269 138.319 470.745 138.319 471.208 138.227L479.977 136.48C481.139 136.183 482.667 135.733 482.667 135.733L478.294 85.9846Z" fill="#6BD5E1"/>
<path fill-rule="evenodd" clip-rule="evenodd" d="M514.134 240.57L515.203 243.927L524.133 241.875L523.377 237.859L514.134 240.57Z" fill="#E49D75"/>
<path fill-rule="evenodd" clip-rule="evenodd" d="M458.549 211.359L455.273 212.923L459.698 220.796L463.544 218.291L458.549 211.359Z" fill="#E49D75"/>
<path fill-rule="evenodd" clip-rule="evenodd" d="M478.808 128.906C478.808 128.906 487.782 176.122 490.373 182.498C486.935 185.29 458.372 211.418 458.372 211.418L463.224 218.533L504.576 194.857L496.074 124.096L478.808 128.906Z" fill="#FFD9EE"/>
<g filter="url(#filter0_d)">
<path fill-rule="evenodd" clip-rule="evenodd" d="M484.619 130.688C486.727 135.953 514.11 240.643 514.11 240.643L523.693 238.115L515.268 122.896C515.268 122.896 482.513 125.424 484.619 130.688Z" fill="#FFD9EE"/>
</g>
<path fill-rule="evenodd" clip-rule="evenodd" d="M489.499 76.7496C510.658 72.138 518.157 117.63 516.723 123.298C515.29 128.966 481.835 134.545 479.383 131.114C476.931 127.682 467.125 81.6258 489.499 76.7496Z" fill="#FFD98E"/>
<path fill-rule="evenodd" clip-rule="evenodd" d="M483.797 65.3618C485.191 68.9545 485.718 74.3446 486.057 79.5472C487.928 81.1748 493.461 80.6323 494.235 79.6707C493.615 78.0298 493.77 72.9507 494.112 71.3716C494.454 69.7925 483.018 63.3571 483.797 65.3618Z" fill="#D18C65"/>
<path fill-rule="evenodd" clip-rule="evenodd" d="M518.047 72.8122L524.754 47.0195L527.753 47.7981L521.046 73.6017L518.047 72.8122Z" fill="#DFDFDF"/>
<path d="M519.871 70.3828L521.589 70.8239" stroke="white" stroke-width="1.01" stroke-linecap="square" stroke-linejoin="round"/>
<path d="M520.753 66.9922L522.471 67.4333" stroke="white" stroke-width="1.01" stroke-linecap="square" stroke-linejoin="round"/>
<path d="M521.633 63.5996L523.353 64.0407" stroke="white" stroke-width="1.01" stroke-linecap="square" stroke-linejoin="round"/>
<path d="M522.515 60.207L524.235 60.6481" stroke="white" stroke-width="1.01" stroke-linecap="square" stroke-linejoin="round"/>
<path d="M523.397 56.8145L525.115 57.2555" stroke="white" stroke-width="1.01" stroke-linecap="square" stroke-linejoin="round"/>
<path d="M524.279 53.4238L525.997 53.8649" stroke="white" stroke-width="1.01" stroke-linecap="square" stroke-linejoin="round"/>
<path d="M525.161 50.0312L526.879 50.4723" stroke="white" stroke-width="1.01" stroke-linecap="square" stroke-linejoin="round"/>
<path fill-rule="evenodd" clip-rule="evenodd" d="M528.066 63.0323C529.857 62.4016 531.074 64.0579 531.564 65.5311C532.349 67.8997 531.829 70.0611 531.074 70.3831C530.655 70.5695 530.185 70.6088 529.741 70.4947C529.297 70.3806 528.904 70.1198 528.626 69.7545C528.573 70.4007 528.481 70.9388 527.303 71.4505C525.539 72.2158 523.589 69.9067 523.128 68.7158C522.515 67.1499 522.804 64.8121 524.121 64.2475C525.206 63.7822 525.947 64.1174 526.288 64.5453C526.771 63.7844 527.314 63.297 528.066 63.0323Z" fill="#56CAD8"/>
<path fill-rule="evenodd" clip-rule="evenodd" d="M526.926 58.2688C529.517 58.4894 527.57 62.5893 526.348 63.4626C525.484 62.7326 524.419 58.0549 526.926 58.2688Z" fill="#FD8369"/>
<path fill-rule="evenodd" clip-rule="evenodd" d="M480.173 106.659C479.987 110.556 478.949 121.006 486.769 122.814C494.208 124.537 518.66 107.961 523.051 106.973C527.442 105.985 527.515 107.546 530.701 106.351C536.985 103.991 535.774 101.402 535.278 98.7441C532.618 99.6087 494.797 108.889 493.52 109.224C492.975 108.014 492.68 106.707 492.653 105.38C492.653 105.38 480.358 102.762 480.173 106.659Z" fill="#E49D75"/>
<path fill-rule="evenodd" clip-rule="evenodd" d="M484.904 85.1183C495.437 84.6067 496.195 106.22 494.647 107.638C493.099 109.056 478.459 110.091 477.357 108.478C476.254 106.866 475.612 85.5704 484.904 85.1183Z" fill="#FFE4AD"/>
<path fill-rule="evenodd" clip-rule="evenodd" d="M507.434 97.7841C504.942 98.4105 503.348 100.607 503.872 102.689C504.397 104.771 506.841 105.96 509.335 105.322L536.502 98.4855L534.605 90.9473L507.434 97.7841Z" fill="#FD8369"/>
<path fill-rule="evenodd" clip-rule="evenodd" d="M507.055 92.3761L545.518 82.6523L546.841 87.8969L508.378 97.6185L507.055 92.3761Z" fill="#DFDFDF"/>
<path fill-rule="evenodd" clip-rule="evenodd" d="M506.073 83.393L533.913 76.3555L536.131 85.1309L508.29 92.1685L506.073 83.393Z" fill="#56CAD8"/>
<path fill-rule="evenodd" clip-rule="evenodd" d="M496.669 80.2179L535.138 70.4941L536.462 75.7453L497.999 85.4669L496.669 80.2179Z" fill="#FD8369"/>
<path d="M508.052 98.5508L509.43 104.108" stroke="#6BD5E1" stroke-width="1.36" stroke-linecap="square" stroke-linejoin="round"/>
<path fill-rule="evenodd" clip-rule="evenodd" d="M509.055 85.979L516.91 83.9941L517.537 86.4708L509.681 88.4557L509.055 85.979Z" fill="#DFDFDF"/>
<path d="M499.433 82.2672L515.29 78.207" stroke="#FFD98E" stroke-width="2.42" stroke-linecap="round" stroke-linejoin="round"/>
<path fill-rule="evenodd" clip-rule="evenodd" d="M448.125 216.519L460.727 239.851L464.28 237.976L460.321 220.773L455.302 212.852L448.125 216.519Z" fill="#2B2B2B"/>
<path fill-rule="evenodd" clip-rule="evenodd" d="M516.313 251.659L542.421 247.028L541.76 243.058L524.178 241.406L515.085 243.684L516.313 251.659Z" fill="#2B2B2B"/>
<path fill-rule="evenodd" clip-rule="evenodd" d="M499.21 48.9614C498.216 43.5449 492.892 41.2159 488.188 42.2326C480.008 43.997 476.058 48.4079 471.173 49.2305C463.762 50.47 456.861 47.6867 449.083 49.7378C438.541 52.5166 436.973 60.0438 438.497 66.7968C441.035 77.9674 450.644 80.4706 457.849 79.4164C468.347 77.8726 468.526 70.4711 475.109 69.3397C478.186 68.8126 480.182 69.4875 483.311 68.8986C486.441 68.3098 491.52 64.2518 493.015 62.7057C494.511 61.1597 499.801 52.177 499.21 48.9614Z" fill="black"/>
<path fill-rule="evenodd" clip-rule="evenodd" d="M482.515 60.9859C481.412 54.449 484.467 48.6509 489.339 48.0355C494.211 47.4202 499.058 52.2215 500.161 58.7628C501.264 65.3041 498.209 71.0978 493.337 71.7132C488.465 72.3285 483.618 67.5228 482.515 60.9859Z" fill="#E49D75"/>
<path fill-rule="evenodd" clip-rule="evenodd" d="M497.206 50.6019C498.011 54.8893 485.53 61.7945 481.605 62.6613C477.679 63.528 476.184 55.4319 476.184 55.4319C476.184 55.4319 489.463 39.8769 497.206 50.6019Z" fill="black"/>
<path fill-rule="evenodd" clip-rule="evenodd" d="M481.214 64.4052C481.213 63.9413 481.351 63.4878 481.608 63.1019C481.865 62.716 482.232 62.4152 482.66 62.2375C483.089 62.0598 483.56 62.0131 484.015 62.1035C484.47 62.1939 484.888 62.4172 485.216 62.7452C485.544 63.0732 485.767 63.4912 485.858 63.9462C485.948 64.4011 485.901 64.8727 485.724 65.3012C485.546 65.7296 485.245 66.0957 484.859 66.3532C484.473 66.6106 484.02 66.7478 483.556 66.7474C482.935 66.7474 482.339 66.5006 481.9 66.0614C481.461 65.6221 481.214 65.0264 481.214 64.4052Z" fill="#E49D75"/>
<path d="M476.915 83.97C478.047 83.0279 479.386 82.3687 480.823 82.0469" stroke="#6BD5E1" stroke-width="4" stroke-linecap="round" stroke-linejoin="round"/>
<path d="M480.832 82.0466C487.744 80.5292 495.139 87.4499 497.346 97.5067C498.229 101.492 498.151 105.371 497.318 108.697" stroke="#6BD5E1" stroke-width="4" stroke-linecap="round" stroke-linejoin="round"/>
<defs>
<filter id="filter0_d" x="480.521" y="122.896" width="47.1712" height="125.746" filterUnits="userSpaceOnUse" color-interpolation-filters="sRGB">
<feFlood flood-opacity="0" result="BackgroundImageFix"/>
<feColorMatrix in="SourceAlpha" type="matrix" values="0 0 0 0 0 0 0 0 0 0 0 0 0 0 0 0 0 0 127 0"/>
<feOffset dy="4"/>
<feGaussianBlur stdDeviation="2"/>
<feColorMatrix type="matrix" values="0 0 0 0 0 0 0 0 0 0 0 0 0 0 0 0 0 0 0.25 0"/>
<feBlend mode="normal" in2="BackgroundImageFix" result="effect1_dropShadow"/>
<feBlend mode="normal" in="SourceGraphic" in2="effect1_dropShadow" result="shape"/>
</filter>
</defs>
</svg>
