<svg width="548" height="548" viewBox="0 0 548 548" fill="none" xmlns="http://www.w3.org/2000/svg">
<path d="M297.053 198.381L345.747 199.664" stroke="#FD8369" stroke-width="8" stroke-miterlimit="10" stroke-linecap="round"/>
<path d="M111.815 307.044V388.207L184.347 428.467L304.903 396.514L306.41 314.077L224.342 277.662L111.815 307.044Z" fill="#FD8369"/>
<path d="M245.394 276.123C247.678 273.52 308.538 298.682 317.21 310.775C325.882 322.867 265.611 414.196 241.084 432.394C238.344 430.517 231.704 425.759 231.704 425.759C231.704 425.759 252.336 362.419 271.091 341.066C266.333 339.769 250.893 335.727 250.893 335.727L233.964 282.754C236.654 281.635 242.399 279.534 245.394 276.123Z" fill="#56CAD8"/>
<path d="M233.964 282.75L317.21 453.155L305.149 458.179C305.149 458.179 243.746 380.952 241.768 375.193C238.165 373.028 179.054 326.298 172.392 292.646C181.849 294.313 218.122 290.897 233.964 282.75Z" fill="#74D5DE"/>
<path d="M264.958 186.191C269.863 189.717 275.247 196.864 278.041 221.51C282.996 219.227 311.707 205.499 311.707 205.499C311.707 205.499 318.694 209.44 317.296 211.345C315.899 213.249 282.361 247.805 272.452 249.965C264.688 251.746 245.139 225.953 244.632 223.159C244.125 220.364 253.267 190.128 253.267 190.128L264.958 186.191Z" fill="#DE8E68"/>
<path d="M328.547 205.952C331.393 199.874 329.613 193.034 324.572 190.673C319.531 188.313 313.137 191.327 310.292 197.405C307.446 203.483 309.225 210.324 314.266 212.684C319.307 215.044 325.701 212.03 328.547 205.952Z" fill="#DE8E68"/>
<path d="M226.05 155.504C241.12 144.699 273.881 177.017 273.087 183.059C272.292 189.1 253.751 213.016 241.494 207.212C229.238 201.408 215.337 163.171 226.05 155.504Z" fill="#FCC486"/>
<path d="M209.61 141.287C148.38 141.287 162.263 281.803 169.272 289.759C185.649 298.855 238.275 286.055 245.403 276.123C251.075 267.98 265.323 141.287 209.61 141.287Z" fill="#FED385"/>
<path d="M147.403 189.348C143.868 194.193 127.059 237.754 131.296 250.221C138.767 272.141 190.394 312.675 190.394 312.675C191.307 309.022 193.54 298.518 193.54 298.518C193.54 298.518 158.285 249.5 156.45 245.828C159.331 241.371 171.912 216.734 173.095 203.888C174.278 191.042 147.403 189.348 147.403 189.348Z" fill="#DE8E68"/>
<path d="M218.287 150.727C218.287 155.23 198.682 154.965 198.682 150.727V122.025H218.287V150.727Z" fill="#D37C59"/>
<path d="M216.635 139.003C226.858 138.81 234.914 126.384 234.628 111.249C234.343 96.1144 225.825 84.0013 215.602 84.194C205.379 84.3867 197.323 96.8123 197.608 111.947C197.894 127.082 206.412 139.195 216.635 139.003Z" fill="#DE8E68"/>
<path d="M197.216 123.492C200.162 123.492 202.55 121.104 202.55 118.158C202.55 115.212 200.162 112.824 197.216 112.824C194.27 112.824 191.882 115.212 191.882 118.158C191.882 121.104 194.27 123.492 197.216 123.492Z" fill="#DE8E68"/>
<path d="M249.769 74.838C249.769 68.262 244.746 65.248 240.636 65.248C233.22 65.248 229.073 71.1847 222.369 71.1847C215.168 71.1847 213.478 67.0747 205.929 67.0747C191.343 67.0747 192.837 82.099 189.827 86.8301C186.042 92.7668 183.553 98.8496 183.553 103.151C183.553 111.043 188.407 114.513 192.344 115.975C192.775 115.036 193.47 114.242 194.343 113.691C195.217 113.139 196.232 112.853 197.265 112.868C198.299 112.882 199.305 113.197 200.163 113.772C201.021 114.348 201.693 115.161 202.098 116.112C204.865 114.915 205.089 112.81 205.089 112.116C205.089 109.6 202.381 105.266 206.203 101.338C209.427 98.0184 227.42 99.0962 230.617 95.2693C231.832 97.096 233.023 100.891 233.357 101.928C234.258 102.121 235.176 102.225 236.097 102.238C244.157 102.238 247.057 98.128 247.057 95.388C247.057 91.278 243.403 89.7573 243.403 87.168C243.376 82.5831 249.769 83.1539 249.769 74.838Z" fill="#FD8369"/>
<path d="M177.186 155.326C193.818 162.916 181.707 205.559 176.104 207.742C170.501 209.925 140.859 205.573 139.954 192.562C139.05 179.552 165.395 149.937 177.186 155.326Z" fill="#FED892"/>
<path d="M304.903 457.712L316.224 452.967H339.737L341.244 456.848L309.648 469.252L304.903 457.712Z" fill="black"/>
<path d="M231.854 425.549L241.705 432.874L253.688 453.1L251.117 456.378L224.342 435.513L231.854 425.549Z" fill="black"/>
<path d="M478.838 213.35C481.121 220.83 461.964 222.378 460.877 218.798C459.79 215.217 476.408 205.349 478.838 213.35Z" fill="#74D5DE"/>
<path d="M475.847 232.648C479.427 239.594 460.877 244.572 459.164 241.247C457.452 237.922 471.992 225.213 475.847 232.648Z" fill="#74D5DE"/>
<path d="M476.929 255.3C480.509 262.246 461.964 267.224 460.247 263.899C458.53 260.575 473.107 247.866 476.929 255.3Z" fill="#74D5DE"/>
<path d="M477.637 276.284C480.893 282.6 464.709 286.787 463.152 283.751C461.594 280.714 474.153 269.53 477.637 276.284Z" fill="#74D5DE"/>
<path d="M479.674 299.573C482.93 305.889 466.745 310.076 465.188 307.04C463.631 304.003 476.185 292.814 479.674 299.573Z" fill="#74D5DE"/>
<path d="M429.395 389.147C429.947 386.586 456.694 367.497 463.028 337.964C473.349 289.827 451.639 259.952 459.009 225.565C460.379 219.067 465.403 198.718 477.495 192.662" stroke="#74D5DE" stroke-width="9" stroke-miterlimit="10" stroke-linecap="round"/>
<path d="M452.041 329.965C458.196 326.412 463.138 342.378 460.187 344.081C457.237 345.784 445.451 333.769 452.041 329.965Z" fill="#74D5DE"/>
<path d="M451.703 311.277C456.415 305.957 466.156 319.539 463.9 322.087C461.644 324.635 446.656 316.968 451.703 311.277Z" fill="#74D5DE"/>
<path d="M452.337 289.367C457.05 284.047 466.791 297.628 464.535 300.177C462.279 302.725 447.291 295.062 452.337 289.367Z" fill="#74D5DE"/>
<path d="M449.004 271.118C452.657 265.013 464.75 276.53 463.01 279.453C461.27 282.375 445.113 277.653 449.004 271.118Z" fill="#74D5DE"/>
<path d="M444.163 245.932C448.73 240.489 458.836 253.796 456.649 256.404C454.461 259.011 439.272 251.759 444.163 245.932Z" fill="#74D5DE"/>
<path d="M445.053 219.201C450.077 214.2 458.941 228.38 456.525 230.777C454.109 233.175 439.651 224.571 445.053 219.201Z" fill="#74D5DE"/>
<path d="M461.233 185.05C466.257 180.027 475.121 194.229 472.705 196.627C470.289 199.024 455.817 190.402 461.233 185.05Z" fill="#74D5DE"/>
<path d="M428.86 309.017C427.517 305.436 426.577 295.659 426.577 290.905C426.577 258.98 407.621 253.002 397.926 253.002C379.056 253.002 368.411 270.451 368.411 284.763C368.411 297.422 373.782 308.674 380.367 318.182C381.323 317.013 382.528 316.071 383.894 315.426C385.26 314.78 386.752 314.447 388.263 314.451C389.774 314.454 391.265 314.794 392.628 315.446C393.99 316.098 395.191 317.046 396.142 318.22C397.093 319.393 397.77 320.764 398.125 322.233C398.479 323.701 398.502 325.231 398.192 326.709C397.882 328.188 397.246 329.578 396.331 330.781C395.416 331.983 394.245 332.966 392.902 333.658C398.341 339.723 402.839 344.431 403.958 347.582C407.762 358.113 406.114 363.109 408.264 368.26C413.507 380.814 418.845 387.349 425.234 386.792C440.048 385.499 445.907 372.936 445.907 340.472C445.93 331.275 433.956 322.589 428.86 309.017Z" fill="#74D5DE"/>
<path opacity="0.5" d="M393.418 274.16L306.41 294.413V97.1784L393.418 74.3223V274.16Z" fill="#F7F7F7"/>
<path d="M453.096 447.565H412.713C411.794 447.566 410.898 447.277 410.153 446.739C409.407 446.201 408.851 445.442 408.562 444.57L388.491 383.687C388.274 383.031 388.216 382.333 388.322 381.65C388.427 380.967 388.693 380.319 389.098 379.759C389.503 379.199 390.035 378.743 390.65 378.429C391.266 378.115 391.947 377.951 392.638 377.951H473.363C474.055 377.951 474.737 378.116 475.353 378.431C475.969 378.746 476.502 379.204 476.907 379.765C477.312 380.326 477.577 380.976 477.682 381.66C477.787 382.344 477.728 383.044 477.509 383.701L457.242 444.579C456.952 445.449 456.396 446.206 455.652 446.742C454.907 447.278 454.013 447.566 453.096 447.565Z" fill="#FD8369"/>
</svg>
