<svg width="578" height="578" viewBox="0 0 578 578" fill="none" xmlns="http://www.w3.org/2000/svg">
<path fill-rule="evenodd" clip-rule="evenodd" d="M284.199 7.24726C358.446 16.3532 402.769 82.596 451.954 138.934C505.892 200.715 580.499 256.973 573.547 338.677C565.766 430.129 500.378 509.865 417.104 548.531C335.088 586.613 237.743 576.693 159.854 530.762C89.0373 489.003 61.6701 407.73 42.7116 327.757C23.4751 246.61 5.24886 156.919 55.4392 90.3043C106.789 22.1517 199.48 -3.14284 284.199 7.24726Z" fill="#FFD9EE"/>
<path d="M400.747 470.588L342.465 372.328" stroke="#ED7562" stroke-width="4" stroke-linecap="round" stroke-linejoin="round"/>
<path d="M425.793 470.588L367.512 372.328" stroke="#ED7562" stroke-width="4" stroke-linecap="round" stroke-linejoin="round"/>
<path d="M239.87 470.588L298.152 372.328" stroke="#ED7562" stroke-width="4" stroke-linecap="round" stroke-linejoin="round"/>
<path d="M373.811 165.693H459.992L402.114 375.218H255.283V367.754H364.177L373.811 165.693Z" fill="#ED7562"/>
<path d="M245.799 462.795L229.462 465.336L231.732 479.935L248.069 477.395L245.799 462.795Z" fill="#DE8E68"/>
<path d="M149.612 453.561L135.746 444.557L127.699 456.948L141.565 465.953L149.612 453.561Z" fill="#DE8E68"/>
<path d="M204.03 303.449C191.923 303.449 131.495 443.472 131.495 448.588C131.495 453.704 144.61 459.509 146.546 459.509C149.561 456.723 207.406 373.501 213.428 367.695C219.45 361.89 204.03 303.449 204.03 303.449Z" fill="#56CAD8"/>
<path d="M299.811 200.373C295.855 201.623 276.541 218.25 273.167 238.222C269.73 237.808 249.109 236.945 240.517 236.594C237.706 232.197 231.79 229.149 224.926 229.149C215.358 229.149 207.598 235.057 207.598 242.34C207.598 242.502 207.598 242.655 207.598 242.817H242.19C242.19 242.655 242.19 242.502 242.19 242.34C242.179 240.5 241.685 238.695 240.758 237.107L270.813 241.918L306.515 245.65L310.193 214.32L299.811 200.373Z" fill="#D37C59"/>
<path d="M329.46 178.245C329.46 175.75 323.207 172.918 318.616 172.918C306.361 172.918 285.628 195.114 285.628 197.902C285.628 200.69 300.555 213.103 312.024 213.848C323.493 214.594 329.46 178.245 329.46 178.245Z" fill="#FCC486"/>
<path d="M360.024 159.914C429.397 159.914 413.545 317.048 404.752 323.686C395.958 330.323 318.875 330.933 313.857 324.296C308.838 317.658 277.699 159.914 360.024 159.914Z" fill="#FED385"/>
<path d="M372.328 130.051H344.392V167.484C344.392 173.424 372.328 173.469 372.328 167.484V130.051Z" fill="#D37C59"/>
<path d="M380.242 115.947C383.795 93.6608 374.524 73.6565 359.533 71.2661C344.541 68.8756 329.508 85.0042 325.954 107.29C322.401 129.576 331.672 149.58 346.664 151.971C361.655 154.361 376.688 138.233 380.242 115.947Z" fill="#DE8E68"/>
<path d="M418.379 51.5391C431.855 51.5391 445.331 58.6818 462.4 58.6818C475.876 58.6818 488.453 53.3248 504.624 53.3248C533.373 53.3248 542.357 72.0745 542.357 83.6815C542.357 113.145 518.1 124.752 500.132 124.752C471.384 124.752 467.79 105.11 433.652 105.11C400.411 105.11 404.903 78.3244 397.716 78.3244C394.122 78.3244 391.876 78.7709 390.529 80.1101C389.181 81.4494 382.443 76.5387 382.443 74.7531C382.443 72.9674 391.427 51.5391 418.379 51.5391Z" fill="black"/>
<path d="M358.289 61.1719C326.481 61.1719 319.827 85.328 319.827 92.3029C319.827 99.2778 324.242 104.448 326.499 104.619C327.902 96.2796 334.593 84.7715 334.907 84.5112C336.706 86.3065 343.37 92.0695 350.195 92.5902C355.881 92.8817 361.401 94.5982 366.247 97.5812C366.648 99.9009 367.524 102.113 368.819 104.08C370.659 107.04 373.439 109.299 376.715 110.499C377.514 112.503 377.973 114.627 378.073 116.782C378.073 126.369 377.173 130.247 376.274 132.94C390.932 132.94 397.857 117.868 397.857 98.8289C397.857 67.4825 370.069 61.1719 358.289 61.1719Z" fill="black"/>
<path d="M377.867 124.751C382.257 124.751 385.815 121.301 385.815 117.045C385.815 112.788 382.257 109.338 377.867 109.338C373.478 109.338 369.92 112.788 369.92 117.045C369.92 121.301 373.478 124.751 377.867 124.751Z" fill="#DE8E68"/>
<path d="M351.988 218.195C348.862 218.948 336.327 226.722 328.81 240.134C321.419 238.753 291.35 231.231 264.66 231.231C262.151 231.231 255.638 229.169 253.013 229.169C237.36 229.169 234.09 237.633 234.09 240.134C234.09 242.635 234.628 242.707 235.111 242.707C288.869 242.707 302.389 265.399 332.627 265.399C342.411 265.399 362.579 258.307 374.737 240.143C370.472 225.673 351.988 218.195 351.988 218.195Z" fill="#DE8E68"/>
<path d="M405.012 187.62C421.907 203.963 379.181 249.198 372.329 248.533C365.477 247.869 340.774 221.949 340.539 214.07C340.305 206.191 388.684 171.817 405.012 187.62Z" fill="#FED892"/>
<path d="M439.28 244.688H59.7266V256.729H439.28V244.688Z" fill="#FD8369"/>
<path d="M404.995 331.64C404.995 327.783 405.669 323.316 403.261 322.321C346.099 298.794 262.415 295.744 249.522 295.744C236.629 295.744 198.928 297.054 198.928 307.826C198.928 346.736 220.645 466.524 225.056 470.999C227.15 473.107 245.407 471.699 247.68 469.421C247.527 459.554 253.268 360.45 248.03 348.449C296.072 366.029 350.628 374.353 365.003 374.353C406.666 374.308 404.995 336.215 404.995 331.64Z" fill="#74D5DE"/>
<path d="M143.055 464.161L128.534 454.595L89.4523 446.506L85.7366 452.569L131.791 480.704L143.055 464.161Z" fill="black"/>
<path d="M249.344 473.479L232.167 476.2L197.965 496.744L199.382 503.824L252.393 493.534L249.344 473.479Z" fill="black"/>
<path d="M419.05 439.762V253.357" stroke="#FD8369" stroke-width="4" stroke-linecap="round" stroke-linejoin="round"/>
<path d="M103.558 439.762V253.357" stroke="#FD8369" stroke-width="4" stroke-linecap="round" stroke-linejoin="round"/>
<path d="M392.558 476.851V253.357" stroke="#FD8369" stroke-width="4" stroke-linecap="round" stroke-linejoin="round"/>
<path d="M75.14 476.851V253.357" stroke="#FD8369" stroke-width="4" stroke-linecap="round" stroke-linejoin="round"/>
<path d="M265.88 470.588L324.162 372.328" stroke="#ED7562" stroke-width="4" stroke-linecap="round" stroke-linejoin="round"/>
<path d="M262.027 242.277H198.928V244.686H262.027V242.277Z" fill="#74D5DE"/>
<path d="M266.843 95.8516H129.087V195.557H266.843V95.8516Z" fill="#74D5DE"/>
<path d="M178.532 176.771L159.432 244.686H192.911L211.452 176.771H178.532Z" fill="#56CAD8"/>
</svg>
