<svg width="689" height="474" viewBox="0 0 689 474" fill="none" xmlns="http://www.w3.org/2000/svg">
<path fill-rule="evenodd" clip-rule="evenodd" d="M375.72 0.162745C449.51 -3.24975 494.892 47.8271 551.6 76.0007C600.682 100.385 669.644 117.507 685.814 154.223C701.813 190.553 653.41 224.515 632.625 259.984C616.113 288.163 618.102 312.894 593.585 338.949C562.963 371.492 506.151 331.552 454.523 352.832C392.521 378.387 326.711 492.476 260.06 471.423C188.67 448.873 222.506 379.444 179.241 338.949C145.708 307.562 69.2422 299.822 41.2219 266.593C8.26832 227.513 -19.5853 97.7007 18.0504 60.1342C56.4212 21.8339 175.632 70.3855 238.824 46.2513C302.17 22.0584 300.577 3.6378 375.72 0.162745Z" fill="#FFD9EE"/>
</svg>
