<svg width="310" height="411" viewBox="0 0 310 411" fill="none" xmlns="http://www.w3.org/2000/svg">
<path d="M245.284 77.294C264.445 102.94 264.208 141.454 268.248 184.089C272.288 226.725 280.781 273.42 261.699 312.81C242.538 352.127 195.803 384.167 160.707 372.679C125.612 361.19 101.845 306.014 72.4908 266.613C43.1363 227.211 7.96729 203.589 1.25445 173.166C-5.4584 142.743 16.0532 105.608 45.4078 79.9626C74.3886 54.6598 111.341 40.3637 149.796 39.5772C187.638 38.944 226.123 51.6482 245.284 77.294Z" fill="#F1F1F1"/>
<path d="M123.357 376.676H108.954V393.841H123.357V376.676Z" fill="#E49D75"/>
<path d="M241.453 375.697L242.397 389.346L260.304 385.252L253.579 369.817L241.453 375.697Z" fill="#E49D75"/>
<path d="M176.082 177.875C177.913 181.171 255.885 369.998 255.885 369.998L240.329 377.874L148.445 247.106C148.445 247.106 151.74 174.03 176.082 177.875Z" fill="#2D37D5"/>
<path d="M105.377 179.679V377.677C108.909 379.876 121.718 380.792 124.832 377.677C125.747 374.567 169.307 179.668 169.307 179.668L105.377 179.679Z" fill="#2D37D5"/>
<path d="M196.413 75.761C199.899 75.8741 214.449 76.4112 223.129 75.761C231.808 75.1108 278.803 66.1947 284.431 64.1367C287.63 66.8845 290.85 73.2677 285.143 75.631C279.436 77.9943 222.14 98.2633 216.122 99.5071C210.104 100.751 198.837 101.87 193.734 101.486C188.632 101.102 196.413 75.761 196.413 75.761Z" fill="#E49D75"/>
<path d="M154.983 85.9724C156.678 73.7375 189.587 68.8357 194.684 73.0817C199.781 77.3277 199.741 103.245 194.78 106.581C189.819 109.916 152.858 101.334 154.983 85.9724Z" fill="#FFC78E"/>
<path d="M143.077 65.9688C175.461 65.9688 185.456 142.737 177.546 178.441C175.692 186.769 108.739 183.602 105.4 179.679C102.06 175.755 97.8053 65.9688 143.077 65.9688Z" fill="#FFD98E"/>
<path d="M90.6121 97.1729C84.6169 100.243 63.2014 123.695 62.642 127.675C62.0826 131.656 91.3128 168.643 96.0593 171.572C101.501 171.713 103.405 167.246 104.083 163.408C101.501 159.501 91.5953 136.116 89.0865 132.696C91.245 130.955 105.71 119.37 107.439 116.645C109.169 113.92 90.6121 97.1729 90.6121 97.1729Z" fill="#E49D75"/>
<path d="M133.534 40.1426C134.296 42.0875 137.455 69.2994 136.059 74.0656C137.687 75.5526 149.621 76.9943 152.05 74.0656C151.259 70.9447 150.796 56.5387 151.401 53.7853C152.005 51.0319 133.534 40.1426 133.534 40.1426Z" fill="#D38D6A"/>
<path d="M293.529 55.9333C302.626 55.9333 310 44.0007 310 29.2811C310 14.5615 302.626 2.62891 293.529 2.62891C284.432 2.62891 277.057 14.5615 277.057 29.2811C277.057 44.0007 284.432 55.9333 293.529 55.9333Z" fill="#6BD5E1"/>
<path d="M293.529 51.489C300.635 51.489 306.395 41.6852 306.395 29.5916C306.395 17.4981 300.635 7.69434 293.529 7.69434C286.423 7.69434 280.662 17.4981 280.662 29.5916C280.662 41.6852 286.423 51.489 293.529 51.489Z" fill="white"/>
<path d="M294.609 77.8461C300.899 76.865 305.382 72.1129 304.621 67.232C303.861 62.3511 298.145 59.1897 291.855 60.1708C285.565 61.1519 281.082 65.904 281.842 70.7849C282.603 75.6658 288.318 78.8272 294.609 77.8461Z" fill="#E49D75"/>
<path d="M126.9 81.5448C134.302 91.1902 115.989 118.47 109.66 119.25C103.331 120.03 85.3232 102.176 86.2725 96.2843C87.2218 90.393 117.605 69.4399 126.9 81.5448Z" fill="#FFE4AD"/>
<path d="M168.268 37.6915C168.753 24.0641 160.565 12.711 149.98 12.3338C139.395 11.9565 130.421 22.6979 129.936 36.3253C129.451 49.9528 137.638 61.3058 148.223 61.6831C158.808 62.0603 167.782 51.3189 168.268 37.6915Z" fill="#E49D75"/>
<path d="M128.098 39.3846C127.194 38.3104 125.538 27.6586 125.538 25.5158C125.538 17.1537 133.048 14.2081 137.342 9.41364C140.173 6.25314 143.281 0 147.575 0C153.514 0 156.52 3.11526 159.786 3.13788C164.493 3.1718 166.567 0.876345 174.477 0.497538C179.354 0.26573 181.382 7.02207 181.49 9.74156C181.71 16.3113 177.647 29.3943 167.731 30.0558C167.058 27.8791 165.764 24.402 165.764 24.402C163.674 24.9221 145.383 28.7611 138.811 28.8006C138.941 30.6551 139.15 38.0673 134.686 39.0397C130.222 40.0122 128.098 39.3846 128.098 39.3846Z" fill="#FD8369"/>
<path d="M131.398 46.2375C134.406 46.2375 136.845 43.7973 136.845 40.7872C136.845 37.7771 134.406 35.3369 131.398 35.3369C128.389 35.3369 125.951 37.7771 125.951 40.7872C125.951 43.7973 128.389 46.2375 131.398 46.2375Z" fill="#E49D75"/>
<path d="M95.788 169.473C95.9349 171.04 95.6128 176.852 98.1329 179.696C101.218 183.173 106.886 187.085 111.841 182.449C115.876 178.667 115.265 175.048 114.101 172.606C112.406 169.078 108.869 164.43 102.608 162.915C96.3474 161.4 95.788 169.473 95.788 169.473Z" fill="#E49D75"/>
<path d="M134.794 411H102.687L108.954 393.835H123.357L134.794 411Z" fill="black"/>
<path d="M242.397 389.346V403.752H291.28V398.257L258.693 384.416L242.397 389.346Z" fill="black"/>
<path d="M295.619 54.4971H290.059V83.015H295.619V54.4971Z" fill="#6BD5E1"/>
<path d="M284.516 37.6945C284.642 41.5022 285.477 45.2529 286.98 48.7534C288.884 50.6814 291.099 51.7895 293.472 51.7895C300.575 51.7895 306.339 41.8444 306.339 29.5756C306.339 22.6666 304.508 16.4983 301.643 12.4219C291.63 13.5696 284.053 24.5663 284.516 37.6945Z" fill="#E49D75"/>
<path d="M293.472 7.34961C286.516 7.34961 280.832 16.8876 280.617 28.789C281.991 29.5227 283.505 29.9545 285.059 30.0554C285.725 27.8787 287.019 24.4016 287.019 24.4016C288.528 24.7747 298.422 26.8667 306.299 28.0257C305.83 16.4749 300.27 7.34961 293.472 7.34961Z" fill="#FD8369"/>
</svg>
