<svg width="335" height="397" viewBox="0 0 335 397" fill="none" xmlns="http://www.w3.org/2000/svg">
<path d="M314.272 70.867C345.608 119.039 335.602 191.249 313.621 250.181C291.732 309.035 257.964 354.57 213.718 374.126C169.569 393.679 115.034 387.224 73.3168 363.557C31.5039 339.882 2.5048 299.021 0.168187 260.095C-2.2644 221.291 22.0573 184.514 49.3706 137.277C76.684 90.0397 107.177 32.3253 158.72 15.4892C210.351 -1.34697 282.936 22.7994 314.272 70.867Z" fill="#2D37D5"/>
<path fill-rule="evenodd" clip-rule="evenodd" d="M145.309 83.2156L144.058 76.8942C143.704 75.1267 142.664 73.5717 141.165 72.5705C139.666 71.5692 137.831 71.2034 136.063 71.5534L110.89 76.5604C109.123 76.914 107.568 77.9544 106.567 79.4532C105.565 80.952 105.199 82.7868 105.549 84.555L123.909 176.714C124.083 177.589 124.428 178.422 124.924 179.165C125.42 179.907 126.057 180.544 126.799 181.04C127.542 181.536 128.375 181.881 129.25 182.055C130.126 182.229 131.028 182.229 131.903 182.054L148.493 178.75C150.692 178.187 153.584 177.335 153.584 177.335L145.309 83.2156Z" fill="#6BD5E1"/>
<path fill-rule="evenodd" clip-rule="evenodd" d="M213.117 375.68L215.141 382.03L232.035 378.15L230.604 370.552L213.117 375.68Z" fill="#E49D75"/>
<path fill-rule="evenodd" clip-rule="evenodd" d="M107.953 320.415L101.757 323.373L110.127 338.269L117.404 333.529L107.953 320.415Z" fill="#E49D75"/>
<path fill-rule="evenodd" clip-rule="evenodd" d="M146.281 164.421C146.281 164.421 163.259 253.75 168.162 265.813C161.657 271.095 107.619 320.527 107.619 320.527L116.798 333.988L195.033 289.196L178.948 155.32L146.281 164.421Z" fill="#FFD9EE"/>
<g filter="url(#filter0_d)">
<path fill-rule="evenodd" clip-rule="evenodd" d="M157.277 167.791C161.265 177.751 213.072 375.817 213.072 375.817L231.201 371.035L215.262 153.05C215.262 153.05 153.292 157.832 157.277 167.791Z" fill="#FFD9EE"/>
</g>
<path fill-rule="evenodd" clip-rule="evenodd" d="M166.51 65.745C206.542 57.0202 220.728 143.087 218.016 153.81C215.304 164.534 152.011 175.09 147.371 168.598C142.731 162.105 124.18 74.9704 166.51 65.745Z" fill="#FFD98E"/>
<path fill-rule="evenodd" clip-rule="evenodd" d="M155.72 44.1968C158.357 50.9939 159.355 61.1915 159.997 71.0345C163.536 74.1138 174.004 73.0874 175.469 71.2682C174.296 68.1638 174.589 58.5545 175.235 55.567C175.882 52.5794 154.247 40.404 155.72 44.1968Z" fill="#D18C65"/>
<path fill-rule="evenodd" clip-rule="evenodd" d="M220.52 58.2958L233.208 9.49805L238.883 10.9709L226.194 59.7895L220.52 58.2958Z" fill="#DFDFDF"/>
<path d="M223.97 53.6982L227.221 54.5327" stroke="white" stroke-width="1.01" stroke-linecap="square" stroke-linejoin="round"/>
<path d="M225.639 47.2812L228.89 48.1158" stroke="white" stroke-width="1.01" stroke-linecap="square" stroke-linejoin="round"/>
<path d="M227.304 40.8633L230.558 41.6978" stroke="white" stroke-width="1.01" stroke-linecap="square" stroke-linejoin="round"/>
<path d="M228.973 34.4463L232.228 35.2808" stroke="white" stroke-width="1.01" stroke-linecap="square" stroke-linejoin="round"/>
<path d="M230.642 28.0293L233.892 28.8638" stroke="white" stroke-width="1.01" stroke-linecap="square" stroke-linejoin="round"/>
<path d="M232.311 21.6113L235.561 22.4458" stroke="white" stroke-width="1.01" stroke-linecap="square" stroke-linejoin="round"/>
<path d="M233.98 15.1943L237.23 16.0288" stroke="white" stroke-width="1.01" stroke-linecap="square" stroke-linejoin="round"/>
<path fill-rule="evenodd" clip-rule="evenodd" d="M239.475 39.792C242.863 38.5986 245.166 41.7322 246.093 44.5194C247.578 49.0007 246.593 53.0898 245.166 53.699C244.373 54.0517 243.484 54.1261 242.644 53.9103C241.803 53.6944 241.06 53.2009 240.535 52.5098C240.435 53.7324 240.259 54.7505 238.031 55.7185C234.693 57.1664 231.005 52.7977 230.133 50.5446C228.973 47.5821 229.519 43.1592 232.01 42.091C234.063 41.2106 235.465 41.8448 236.112 42.6543C237.026 41.2148 238.052 40.2927 239.475 39.792Z" fill="#56CAD8"/>
<path fill-rule="evenodd" clip-rule="evenodd" d="M237.318 30.7781C242.221 31.1954 238.536 38.9521 236.225 40.6044C234.589 39.2233 232.574 30.3734 237.318 30.7781Z" fill="#FD8369"/>
<path fill-rule="evenodd" clip-rule="evenodd" d="M148.864 122.333C148.514 129.705 146.549 149.475 161.345 152.896C175.418 156.155 221.679 124.794 229.987 122.925C238.294 121.056 238.432 124.01 244.461 121.748C256.349 117.284 254.058 112.385 253.119 107.357C248.087 108.993 176.533 126.551 174.117 127.185C173.086 124.896 172.528 122.423 172.477 119.913C172.477 119.913 149.215 114.96 148.864 122.333Z" fill="#E49D75"/>
<path fill-rule="evenodd" clip-rule="evenodd" d="M157.815 81.5755C177.743 80.6075 179.178 121.498 176.249 124.181C173.32 126.864 145.623 128.821 143.537 125.771C141.45 122.721 140.236 82.4309 157.815 81.5755Z" fill="#FFE4AD"/>
<path fill-rule="evenodd" clip-rule="evenodd" d="M200.441 105.537C195.726 106.722 192.709 110.878 193.702 114.817C194.695 118.756 199.318 121.005 204.038 119.799L255.435 106.864L251.846 92.6025L200.441 105.537Z" fill="#FD8369"/>
<path fill-rule="evenodd" clip-rule="evenodd" d="M199.724 95.3068L272.493 76.9102L274.996 86.8324L202.227 105.225L199.724 95.3068Z" fill="#DFDFDF"/>
<path fill-rule="evenodd" clip-rule="evenodd" d="M197.867 78.3116L250.537 64.9971L254.734 81.5996L202.06 94.9141L197.867 78.3116Z" fill="#56CAD8"/>
<path fill-rule="evenodd" clip-rule="evenodd" d="M180.075 72.3039L252.857 53.9072L255.36 63.842L182.591 82.2345L180.075 72.3039Z" fill="#FD8369"/>
<path d="M201.609 106.99L204.217 117.505" stroke="#6BD5E1" stroke-width="1.36" stroke-linecap="square" stroke-linejoin="round"/>
<path fill-rule="evenodd" clip-rule="evenodd" d="M203.508 83.2064L218.37 79.4512L219.555 84.1369L204.693 87.8922L203.508 83.2064Z" fill="#DFDFDF"/>
<path d="M185.303 76.1836L215.304 68.502" stroke="#FFD98E" stroke-width="2.42" stroke-linecap="round" stroke-linejoin="round"/>
<path fill-rule="evenodd" clip-rule="evenodd" d="M88.2334 330.178L112.075 374.319L118.797 370.773L111.307 338.227L101.811 323.239L88.2334 330.178Z" fill="#2B2B2B"/>
<path fill-rule="evenodd" clip-rule="evenodd" d="M217.24 396.659L266.634 387.897L265.382 380.386L232.119 377.261L214.916 381.571L217.24 396.659Z" fill="#2B2B2B"/>
<path fill-rule="evenodd" clip-rule="evenodd" d="M184.882 13.1705C183 2.92279 172.928 -1.4834 164.028 0.440134C148.552 3.77816 141.079 12.1232 131.837 13.6796C117.817 16.0245 104.761 10.7588 90.0446 14.6392C70.0999 19.8966 67.1333 34.1375 70.0165 46.9138C74.8191 68.0476 92.9988 72.7834 106.63 70.789C126.492 67.8682 126.83 53.8652 139.285 51.7247C145.105 50.7274 148.881 52.0042 154.802 50.8902C160.723 49.7761 170.332 42.0987 173.161 39.1737C175.99 36.2488 186 19.2541 184.882 13.1705Z" fill="black"/>
<path fill-rule="evenodd" clip-rule="evenodd" d="M153.296 35.919C151.21 23.5516 156.989 12.582 166.206 11.4179C175.423 10.2537 184.594 19.3373 186.681 31.7131C188.767 44.0888 182.988 55.05 173.771 56.2141C164.554 57.3783 155.382 48.2863 153.296 35.919Z" fill="#E49D75"/>
<path fill-rule="evenodd" clip-rule="evenodd" d="M181.089 16.2748C182.612 24.3861 159 37.4503 151.572 39.0901C144.145 40.7299 141.316 25.4126 141.316 25.4126C141.316 25.4126 166.439 -4.01625 181.089 16.2748Z" fill="black"/>
<path fill-rule="evenodd" clip-rule="evenodd" d="M150.834 42.3868C150.833 41.5092 151.093 40.6511 151.58 39.9211C152.067 39.1911 152.759 38.6219 153.57 38.2857C154.381 37.9495 155.273 37.8613 156.134 38.0323C156.994 38.2033 157.785 38.6258 158.406 39.2464C159.026 39.8669 159.449 40.6576 159.62 41.5184C159.791 42.3792 159.703 43.2713 159.366 44.0819C159.03 44.8926 158.461 45.5852 157.731 46.0723C157.001 46.5594 156.143 46.8189 155.265 46.8181C154.09 46.8181 152.963 46.3512 152.132 45.5202C151.301 44.6892 150.834 43.5621 150.834 42.3868Z" fill="#E49D75"/>
<path d="M142.702 79.405C144.843 77.6226 147.377 76.3754 150.095 75.7666" stroke="#6BD5E1" stroke-width="4" stroke-linecap="round" stroke-linejoin="round"/>
<path d="M150.112 75.7669C163.189 72.8962 177.179 85.9895 181.356 105.016C183.025 112.556 182.879 119.896 181.302 126.188" stroke="#6BD5E1" stroke-width="4" stroke-linecap="round" stroke-linejoin="round"/>
<defs>
<filter id="filter0_d" x="153.092" y="153.05" width="82.1089" height="230.767" filterUnits="userSpaceOnUse" color-interpolation-filters="sRGB">
<feFlood flood-opacity="0" result="BackgroundImageFix"/>
<feColorMatrix in="SourceAlpha" type="matrix" values="0 0 0 0 0 0 0 0 0 0 0 0 0 0 0 0 0 0 127 0"/>
<feOffset dy="4"/>
<feGaussianBlur stdDeviation="2"/>
<feColorMatrix type="matrix" values="0 0 0 0 0 0 0 0 0 0 0 0 0 0 0 0 0 0 0.25 0"/>
<feBlend mode="normal" in2="BackgroundImageFix" result="effect1_dropShadow"/>
<feBlend mode="normal" in="SourceGraphic" in2="effect1_dropShadow" result="shape"/>
</filter>
</defs>
</svg>
