<svg width="351" height="444" viewBox="0 0 351 444" fill="none" xmlns="http://www.w3.org/2000/svg">
<g clip-path="url(#clip0)">
<path d="M311.322 71.4147C337.479 103.736 354.398 139.191 350.42 170.773C346.538 202.26 321.78 229.964 295.608 268.374C269.451 306.88 241.725 356.192 201.792 368.471C161.769 380.751 109.545 356.097 68.4133 317.592C27.2814 279.086 -2.75807 226.914 0.199912 177.607C3.15789 128.299 39.0234 81.9421 80.1452 49.6263C121.267 17.3105 167.685 -0.998763 208.632 4.49202C249.579 9.98281 285.07 39.099 311.322 71.4147Z" fill="#F2F2F2"/>
<path fill-rule="evenodd" clip-rule="evenodd" d="M167.291 216.367C194.272 216.367 208.763 234.377 211.456 252.666C214.194 271.375 211.071 286.864 211.85 309.481C212.38 324.71 219.09 334.883 223.393 348.461C227.695 362.038 112.878 365.462 113.563 352.763C114.247 340.065 122.462 327.056 122.756 311.238C123.056 295.11 120.758 285.431 121.072 259.195C121.307 238.485 140.299 216.367 167.291 216.367Z" fill="black"/>
<path fill-rule="evenodd" clip-rule="evenodd" d="M56.5062 443.401C55.4719 430.652 61.163 385.189 78.756 351.24C144.466 314.886 226.91 332.202 259.507 351.24C270.545 362.442 278.524 436.857 276.111 442.198" fill="#FFD98E"/>
<path d="M94.4355 442.198C95.4698 433.927 97.1087 420.599 99.7819 408.255" stroke="#FF8364" stroke-width="5.73" stroke-linecap="round" stroke-linejoin="round"/>
<path d="M240.171 442.198C239.136 433.927 237.497 420.599 234.824 408.255" stroke="#FF8364" stroke-width="5.73" stroke-linecap="round" stroke-linejoin="round"/>
<path fill-rule="evenodd" clip-rule="evenodd" d="M125.584 275.399C125.583 273.955 126.011 272.543 126.813 271.342C127.615 270.14 128.755 269.204 130.09 268.65C131.425 268.096 132.894 267.949 134.312 268.229C135.73 268.509 137.033 269.203 138.056 270.223C139.08 271.242 139.778 272.542 140.062 273.958C140.346 275.374 140.204 276.842 139.653 278.177C139.102 279.512 138.167 280.654 136.967 281.458C135.767 282.262 134.355 282.693 132.909 282.696C131.949 282.698 130.997 282.511 130.109 282.145C129.22 281.779 128.413 281.242 127.733 280.564C127.052 279.887 126.512 279.082 126.144 278.195C125.775 277.309 125.585 276.358 125.584 275.399Z" fill="#D18C65"/>
<path fill-rule="evenodd" clip-rule="evenodd" d="M192.618 275.399C192.617 273.954 193.045 272.542 193.848 271.34C194.65 270.138 195.792 269.202 197.127 268.648C198.463 268.095 199.933 267.949 201.351 268.231C202.77 268.512 204.073 269.207 205.095 270.228C206.118 271.249 206.815 272.55 207.097 273.967C207.38 275.384 207.235 276.852 206.682 278.187C206.129 279.522 205.192 280.663 203.99 281.465C202.788 282.268 201.374 282.696 199.928 282.696C197.99 282.696 196.132 281.928 194.761 280.559C193.39 279.191 192.619 277.335 192.618 275.399Z" fill="#D18C65"/>
<path fill-rule="evenodd" clip-rule="evenodd" d="M196.401 149.684C189.026 143.939 187.207 150.358 186.053 154.177C184.898 157.995 184.983 164.729 190.764 164.584C195.831 169.122 200.548 163.247 201.997 160.262C203.446 157.277 207.003 150.803 196.401 149.684Z" fill="#FF8364"/>
<path d="M201.277 145.591C198.734 146.484 197.305 147.702 196.496 149.819" stroke="#FFD98E" stroke-width="2.83" stroke-linecap="round" stroke-linejoin="round"/>
<path fill-rule="evenodd" clip-rule="evenodd" d="M148.309 183.782C148.308 182.091 148.809 180.437 149.748 179.03C150.688 177.623 152.024 176.525 153.587 175.876C155.151 175.227 156.872 175.056 158.533 175.384C160.194 175.712 161.721 176.524 162.92 177.719C164.119 178.913 164.936 180.436 165.269 182.094C165.603 183.753 165.436 185.472 164.791 187.036C164.146 188.6 163.052 189.938 161.646 190.881C160.24 191.824 158.586 192.329 156.893 192.333C155.767 192.336 154.651 192.116 153.61 191.688C152.569 191.259 151.623 190.63 150.826 189.836C150.028 189.042 149.396 188.098 148.964 187.059C148.532 186.021 148.309 184.907 148.309 183.782Z" fill="#6BD5E1"/>
<path fill-rule="evenodd" clip-rule="evenodd" d="M89.0044 187.556L112.723 181.541L122.332 219.368L98.6178 225.357L89.0044 187.556Z" fill="#DFDFDF"/>
<path fill-rule="evenodd" clip-rule="evenodd" d="M94.001 191.723L110.32 187.585L111.579 192.542L95.2601 196.67L94.001 191.723Z" fill="#FF8364"/>
<path d="M96.6289 202.061L112.948 197.923" stroke="#6BD5E1" stroke-width="3.11" stroke-linecap="round" stroke-linejoin="round"/>
<path d="M97.998 207.443L114.322 203.305" stroke="#6BD5E1" stroke-width="3.11" stroke-linecap="round" stroke-linejoin="round"/>
<path d="M99.4321 213.058L115.766 208.915" stroke="#6BD5E1" stroke-width="3.11" stroke-linecap="round" stroke-linejoin="round"/>
<path d="M100.801 218.484L107.207 216.856" stroke="#6BD5E1" stroke-width="3.11" stroke-linecap="round" stroke-linejoin="round"/>
<path d="M114.567 214.99L117.135 214.341" stroke="#6BD5E1" stroke-width="3.11" stroke-linecap="round" stroke-linejoin="round"/>
<path fill-rule="evenodd" clip-rule="evenodd" d="M73.2798 101.67L134.658 72.4736L153.84 112.711L92.4617 141.912L73.2798 101.67Z" fill="#DFDFDF"/>
<path d="M94.5054 133.012L100.611 115.157L111.988 117.303L116.455 95.2851L127.448 97.1121L130.646 81.5781" stroke="#FF8364" stroke-width="3.11" stroke-linecap="round" stroke-linejoin="round"/>
<path fill-rule="evenodd" clip-rule="evenodd" d="M98.4576 116.305C98.1899 115.741 98.0955 115.11 98.1865 114.492C98.2775 113.874 98.5497 113.297 98.9687 112.834C99.3877 112.37 99.9348 112.041 100.541 111.888C101.147 111.735 101.785 111.765 102.374 111.974C102.963 112.183 103.477 112.562 103.851 113.062C104.224 113.563 104.441 114.163 104.474 114.786C104.507 115.41 104.354 116.029 104.035 116.566C103.715 117.103 103.244 117.533 102.68 117.802C102.304 117.982 101.897 118.085 101.481 118.107C101.066 118.129 100.65 118.068 100.257 117.929C99.8652 117.79 99.5043 117.575 99.1955 117.296C98.8866 117.018 98.6359 116.681 98.4576 116.305Z" fill="#FFD98E"/>
<path fill-rule="evenodd" clip-rule="evenodd" d="M113.747 97.1477C113.478 96.5825 113.383 95.9503 113.473 95.3309C113.564 94.7116 113.836 94.1329 114.255 93.6682C114.675 93.2034 115.223 92.8733 115.831 92.7198C116.438 92.5662 117.077 92.596 117.668 92.8054C118.258 93.0148 118.773 93.3944 119.148 93.8962C119.522 94.398 119.739 94.9995 119.771 95.6246C119.804 96.2496 119.65 96.8702 119.329 97.4079C119.008 97.9455 118.535 98.3761 117.969 98.6451C117.594 98.8245 117.187 98.928 116.771 98.9498C116.355 98.9715 115.939 98.9111 115.547 98.772C115.155 98.6329 114.794 98.4178 114.485 98.139C114.176 97.8603 113.926 97.5234 113.747 97.1477Z" fill="#FFD98E"/>
<path fill-rule="evenodd" clip-rule="evenodd" d="M230.013 131.08C230.013 128.937 230.649 126.842 231.841 125.06C233.034 123.278 234.728 121.89 236.711 121.071C238.693 120.251 240.874 120.038 242.978 120.458C245.082 120.877 247.014 121.911 248.529 123.428C250.045 124.945 251.076 126.876 251.492 128.979C251.908 131.081 251.69 133.26 250.867 135.239C250.043 137.218 248.65 138.908 246.865 140.096C245.079 141.284 242.981 141.916 240.835 141.912C237.963 141.908 235.209 140.765 233.18 138.734C231.151 136.702 230.011 133.95 230.013 131.08Z" fill="#FFD98E"/>
<path d="M259.158 129.188C259.678 131.041 259.763 132.988 259.406 134.879C259.049 136.769 258.258 138.551 257.097 140.086C255.936 141.621 254.436 142.867 252.713 143.727C250.99 144.587 249.092 145.037 247.166 145.042C246.349 145.043 245.534 144.964 244.732 144.807" stroke="#FF8364" stroke-width="3.11" stroke-linecap="round" stroke-linejoin="round"/>
<path fill-rule="evenodd" clip-rule="evenodd" d="M234.28 139.307L230.123 146.754L247.286 149.51L245.407 140.834" fill="#FFD98E"/>
<path fill-rule="evenodd" clip-rule="evenodd" d="M238.297 131.08C238.297 130.575 238.447 130.081 238.728 129.66C239.01 129.24 239.409 128.912 239.877 128.719C240.344 128.526 240.858 128.475 241.355 128.574C241.851 128.672 242.307 128.916 242.665 129.273C243.022 129.63 243.266 130.086 243.365 130.582C243.463 131.077 243.413 131.591 243.219 132.058C243.026 132.525 242.698 132.924 242.277 133.205C241.856 133.486 241.362 133.636 240.856 133.636C240.177 133.636 239.526 133.367 239.047 132.887C238.567 132.408 238.297 131.758 238.297 131.08Z" fill="#1B3C87"/>
<path fill-rule="evenodd" clip-rule="evenodd" d="M255.91 128.524C255.91 128.019 256.06 127.525 256.341 127.105C256.622 126.684 257.022 126.357 257.489 126.163C257.957 125.97 258.471 125.919 258.968 126.018C259.464 126.116 259.92 126.36 260.277 126.717C260.635 127.075 260.879 127.53 260.978 128.026C261.076 128.522 261.026 129.035 260.832 129.502C260.638 129.969 260.31 130.369 259.89 130.649C259.469 130.93 258.974 131.08 258.468 131.08C257.79 131.079 257.14 130.809 256.661 130.33C256.181 129.851 255.911 129.202 255.91 128.524Z" fill="#FFD98E"/>
<path fill-rule="evenodd" clip-rule="evenodd" d="M50.4206 49.6514L66.4546 53.9791L50.6654 112.381L34.6313 108.068L50.4206 49.6514Z" fill="#FF8364"/>
<path d="M39.728 89.2158L48.557 91.6018" stroke="#FFD98E" stroke-width="4.23" stroke-linecap="round" stroke-linejoin="round"/>
<path d="M36.9248 99.5781L45.7588 101.959" stroke="#FFD98E" stroke-width="4.23" stroke-linecap="round" stroke-linejoin="round"/>
<path d="M42.5259 78.8682L51.3598 81.2542" stroke="#FFD98E" stroke-width="4.23" stroke-linecap="round" stroke-linejoin="round"/>
<path d="M45.3291 68.5L54.1581 70.881" stroke="#FFD98E" stroke-width="4.23" stroke-linecap="round" stroke-linejoin="round"/>
<path d="M48.127 58.1426L56.9609 60.5236" stroke="#FFD98E" stroke-width="4.23" stroke-linecap="round" stroke-linejoin="round"/>
<path fill-rule="evenodd" clip-rule="evenodd" d="M215.568 37.542L276.111 52.1425L266.118 93.3833L205.6 78.7778L215.568 37.542Z" fill="#DFDFDF"/>
<path fill-rule="evenodd" clip-rule="evenodd" d="M251.778 82.2519C252.081 80.9986 252.749 79.8631 253.698 78.9891C254.647 78.115 255.834 77.5417 257.109 77.3417C258.384 77.1416 259.689 77.3237 260.861 77.865C262.032 78.4063 263.017 79.2825 263.69 80.3827C264.363 81.4829 264.694 82.7578 264.641 84.0461C264.589 85.3344 264.156 86.5782 263.396 87.6204C262.636 88.6625 261.583 89.4561 260.372 89.9008C259.161 90.3455 257.844 90.4213 256.59 90.1187C254.907 89.7129 253.455 88.6561 252.553 87.1808C251.651 85.7055 251.372 83.9326 251.778 82.2519Z" fill="#FF8364"/>
<path fill-rule="evenodd" clip-rule="evenodd" d="M253.707 87.6182L249.354 98.9541L255.43 97.5815L259.333 101.2L260.117 88.8511" fill="#FF8364"/>
<path d="M219.146 48.2393L266.943 59.7699" stroke="#6BD5E1" stroke-width="3.11" stroke-linecap="round" stroke-linejoin="round"/>
<path d="M216.377 59.5557L245.242 66.519" stroke="#6BD5E1" stroke-width="3.11" stroke-linecap="round" stroke-linejoin="round"/>
<path fill-rule="evenodd" clip-rule="evenodd" d="M119.488 43.1672L112.993 36.134L122.336 34.0226L131.685 31.9111L128.842 41.0558L125.999 50.1955L119.488 43.1672Z" fill="#6BD5E1"/>
<path fill-rule="evenodd" clip-rule="evenodd" d="M248.545 190.62L239.646 194.174L241.01 184.69L242.374 175.206L249.904 181.121L257.439 187.041L248.545 190.62Z" fill="#FFD98E"/>
<path d="M175.5 76.3727C175.5 75.4545 175.773 74.557 176.283 73.7936C176.794 73.0302 177.519 72.4352 178.369 72.0838C179.218 71.7325 180.152 71.6405 181.053 71.8197C181.955 71.9988 182.783 72.4409 183.433 73.0901C184.083 73.7394 184.525 74.5665 184.704 75.467C184.884 76.3675 184.792 77.3009 184.44 78.1492C184.088 78.9974 183.493 79.7224 182.728 80.2325C181.964 80.7426 181.066 81.0149 180.147 81.0149C178.914 81.0149 177.732 80.5258 176.861 79.6552C175.99 78.7846 175.5 77.6039 175.5 76.3727Z" stroke="#FF8364" stroke-width="3.11" stroke-linecap="round" stroke-linejoin="round"/>
<path fill-rule="evenodd" clip-rule="evenodd" d="M45.6689 154.142C45.6689 153.224 45.9415 152.327 46.4521 151.563C46.9627 150.8 47.6884 150.205 48.5375 149.853C49.3866 149.502 50.3209 149.41 51.2223 149.589C52.1237 149.768 52.9517 150.21 53.6016 150.86C54.2514 151.509 54.694 152.336 54.8733 153.237C55.0526 154.137 54.9606 155.07 54.6089 155.919C54.2572 156.767 53.6616 157.492 52.8974 158.002C52.1332 158.512 51.2348 158.784 50.3158 158.784C49.0833 158.784 47.9014 158.295 47.03 157.425C46.1585 156.554 45.6689 155.373 45.6689 154.142Z" fill="#FFD98E"/>
<path fill-rule="evenodd" clip-rule="evenodd" d="M150.802 302.867H181.875C181.875 302.867 182.02 334.938 181.875 347.557C181.875 352.763 150.812 352.169 150.812 347.557L150.802 302.867Z" fill="#D18C65"/>
<path fill-rule="evenodd" clip-rule="evenodd" d="M134.908 272.204C134.908 248.384 149.398 229.071 167.301 229.071C185.203 229.071 199.698 248.384 199.698 272.204C199.698 296.024 185.208 315.342 167.301 315.342C149.393 315.342 134.908 296.029 134.908 272.204Z" fill="#E49D75"/>
<path fill-rule="evenodd" clip-rule="evenodd" d="M184.794 225.981C176.565 245.084 142.468 263.733 128.108 268.095C125.839 256.689 140.534 208.106 184.794 225.981Z" fill="black"/>
<path fill-rule="evenodd" clip-rule="evenodd" d="M166.571 225.392C160.34 227.763 180.596 260.129 204.87 268.096C214.778 254.004 191.934 224.718 166.571 225.392Z" fill="black"/>
<path fill-rule="evenodd" clip-rule="evenodd" d="M212.889 8.55087C212.888 6.8583 213.39 5.20347 214.33 3.79573C215.271 2.388 216.609 1.29063 218.174 0.642453C219.739 -0.0057221 221.461 -0.175573 223.123 0.154389C224.785 0.484352 226.311 1.2993 227.509 2.49613C228.707 3.69296 229.523 5.21789 229.853 6.87798C230.183 8.53808 230.013 10.2587 229.365 11.8223C228.716 13.3858 227.617 14.722 226.208 15.6617C224.799 16.6014 223.143 17.1025 221.448 17.1015C219.178 17.1015 217.001 16.2007 215.396 14.5971C213.791 12.9935 212.889 10.8186 212.889 8.55087Z" fill="#FFD98E"/>
<path d="M65.2656 233.389C65.2656 231.809 65.7345 230.265 66.6129 228.952C67.4914 227.638 68.74 226.615 70.2008 226.01C71.6616 225.406 73.269 225.248 74.8198 225.556C76.3706 225.864 77.7951 226.625 78.9132 227.742C80.0312 228.859 80.7926 230.282 81.1011 231.831C81.4095 233.38 81.2512 234.986 80.6461 236.445C80.0411 237.905 79.0164 239.152 77.7017 240.03C76.387 240.907 74.8413 241.376 73.2602 241.376C71.1399 241.376 69.1064 240.534 67.6072 239.036C66.1079 237.539 65.2656 235.507 65.2656 233.389Z" stroke="#6BD5E1" stroke-width="3.11" stroke-linecap="round" stroke-linejoin="round"/>
<path d="M242.399 230.024C242.398 229.105 242.67 228.206 243.181 227.441C243.692 226.676 244.418 226.08 245.268 225.727C246.118 225.375 247.053 225.282 247.956 225.461C248.858 225.64 249.688 226.082 250.339 226.731C250.99 227.381 251.433 228.209 251.613 229.111C251.793 230.012 251.701 230.947 251.349 231.797C250.997 232.646 250.401 233.372 249.636 233.883C248.871 234.394 247.971 234.666 247.051 234.666C246.441 234.667 245.836 234.548 245.271 234.315C244.707 234.082 244.194 233.74 243.762 233.309C243.33 232.877 242.987 232.365 242.754 231.802C242.52 231.238 242.399 230.634 242.399 230.024V230.024Z" stroke="#FF8364" stroke-width="3.11" stroke-linecap="round" stroke-linejoin="round"/>
<path d="M311.322 71.79C337.479 104.106 354.398 139.566 350.42 171.123C346.538 202.66 321.78 230.334 295.608 268.75C269.451 307.255 241.725 356.562 201.792 368.842C161.769 381.126 109.545 356.472 68.4133 317.967C27.2814 279.462 -2.75807 227.289 0.199912 177.977C3.15789 128.665 39.0234 82.3174 80.1452 49.9966C121.267 17.6758 167.685 -0.603506 208.632 4.84236C249.579 10.2882 285.07 39.4693 311.322 71.79Z" fill="#FFD9EE"/>
<path fill-rule="evenodd" clip-rule="evenodd" d="M167.291 216.736C194.272 216.736 208.763 234.751 211.456 253.04C214.194 271.744 211.071 287.233 211.85 309.85C212.38 325.085 219.09 335.252 223.393 348.835C227.695 362.417 112.878 365.836 113.563 353.132C114.247 340.429 122.462 327.426 122.756 311.607C123.056 295.484 120.758 285.8 121.072 259.569C121.307 238.854 140.299 216.736 167.291 216.736Z" fill="black"/>
<path fill-rule="evenodd" clip-rule="evenodd" d="M56.5062 443.756C55.4719 431.007 61.163 385.544 78.756 351.6C144.466 315.246 226.91 332.557 259.507 351.6C270.545 362.802 278.524 437.212 276.111 442.553" fill="#2D37D5"/>
<path d="M94.4355 442.568C95.4698 434.297 97.1087 420.969 99.7819 408.625" stroke="#2E279D" stroke-width="5.73" stroke-linecap="round" stroke-linejoin="round"/>
<path d="M240.171 442.568C239.136 434.297 237.497 420.969 234.824 408.625" stroke="#2E279D" stroke-width="5.73" stroke-linecap="round" stroke-linejoin="round"/>
<path fill-rule="evenodd" clip-rule="evenodd" d="M125.584 275.768C125.583 274.324 126.011 272.912 126.813 271.711C127.615 270.509 128.755 269.573 130.09 269.019C131.425 268.465 132.894 268.319 134.312 268.599C135.73 268.879 137.033 269.572 138.056 270.592C139.08 271.611 139.778 272.911 140.062 274.327C140.346 275.743 140.204 277.211 139.653 278.546C139.102 279.881 138.167 281.023 136.967 281.827C135.767 282.632 134.355 283.063 132.909 283.066C131.949 283.067 130.997 282.88 130.109 282.514C129.22 282.149 128.413 281.611 127.733 280.934C127.052 280.256 126.512 279.451 126.144 278.564C125.775 277.678 125.585 276.728 125.584 275.768Z" fill="#D18C65"/>
<path fill-rule="evenodd" clip-rule="evenodd" d="M192.618 275.768C192.617 274.323 193.045 272.911 193.848 271.709C194.65 270.508 195.792 269.571 197.127 269.017C198.463 268.464 199.933 268.318 201.351 268.6C202.77 268.881 204.073 269.576 205.095 270.597C206.118 271.618 206.815 272.919 207.097 274.336C207.38 275.753 207.235 277.221 206.682 278.556C206.129 279.891 205.192 281.032 203.99 281.834C202.788 282.637 201.374 283.065 199.928 283.065C197.99 283.065 196.132 282.297 194.761 280.928C193.39 279.56 192.619 277.704 192.618 275.768Z" fill="#D18C65"/>
<path fill-rule="evenodd" clip-rule="evenodd" d="M196.401 150.059C189.026 144.308 187.207 150.733 186.053 154.551C184.898 158.37 184.983 165.103 190.764 164.959C195.831 169.501 200.548 163.626 201.997 160.641C203.446 157.656 207.003 151.177 196.401 150.059Z" fill="#FF8364"/>
<path d="M201.277 145.961C198.734 146.854 197.305 148.072 196.496 150.189" stroke="#FFD98E" stroke-width="2.83" stroke-linecap="round" stroke-linejoin="round"/>
<path fill-rule="evenodd" clip-rule="evenodd" d="M148.309 184.151C148.308 182.46 148.809 180.806 149.748 179.399C150.688 177.992 152.024 176.894 153.587 176.245C155.151 175.597 156.872 175.425 158.533 175.753C160.194 176.081 161.721 176.894 162.92 178.088C164.119 179.282 164.936 180.805 165.269 182.463C165.603 184.122 165.436 185.842 164.791 187.406C164.146 188.97 163.052 190.307 161.646 191.25C160.24 192.193 158.586 192.698 156.893 192.702C155.767 192.705 154.651 192.487 153.61 192.058C152.568 191.63 151.622 191.001 150.824 190.207C150.027 189.412 149.394 188.468 148.963 187.429C148.531 186.39 148.309 185.276 148.309 184.151Z" fill="#6BD5E1"/>
<path fill-rule="evenodd" clip-rule="evenodd" d="M89.0044 187.925L112.723 181.91L122.332 219.737L98.6178 225.752L89.0044 187.925Z" fill="#DFDFDF"/>
<path fill-rule="evenodd" clip-rule="evenodd" d="M94.001 192.093L110.32 187.955L111.579 192.912L95.2601 197.05L94.001 192.093Z" fill="#FF8364"/>
<path d="M96.6289 202.436L112.948 198.293" stroke="#6BD5E1" stroke-width="3.11" stroke-linecap="round" stroke-linejoin="round"/>
<path d="M97.998 207.817L114.322 203.659" stroke="#6BD5E1" stroke-width="3.11" stroke-linecap="round" stroke-linejoin="round"/>
<path d="M99.4321 213.427L115.766 209.284" stroke="#6BD5E1" stroke-width="3.11" stroke-linecap="round" stroke-linejoin="round"/>
<path d="M100.801 218.853L107.207 217.23" stroke="#6BD5E1" stroke-width="3.11" stroke-linecap="round" stroke-linejoin="round"/>
<path d="M114.567 215.359L117.135 214.71" stroke="#6BD5E1" stroke-width="3.11" stroke-linecap="round" stroke-linejoin="round"/>
<path fill-rule="evenodd" clip-rule="evenodd" d="M73.2798 102.044L134.658 72.8428L153.84 113.085L92.4617 142.261L73.2798 102.044Z" fill="#DFDFDF"/>
<path d="M94.5054 133.381L100.611 115.531L111.988 117.648L116.455 95.6297L127.448 97.4567L130.646 81.9277" stroke="#FF8364" stroke-width="3.11" stroke-linecap="round" stroke-linejoin="round"/>
<path fill-rule="evenodd" clip-rule="evenodd" d="M98.4578 116.699C98.1886 116.134 98.0931 115.502 98.1836 114.883C98.274 114.263 98.5462 113.685 98.9659 113.22C99.3855 112.755 99.9336 112.425 100.541 112.272C101.148 112.118 101.788 112.148 102.378 112.357C102.969 112.567 103.484 112.946 103.858 113.448C104.232 113.95 104.45 114.551 104.482 115.176C104.514 115.801 104.36 116.422 104.039 116.96C103.719 117.497 103.246 117.928 102.68 118.197C101.921 118.556 101.05 118.601 100.259 118.32C99.4676 118.039 98.8199 117.456 98.4578 116.699Z" fill="#FFD98E"/>
<path fill-rule="evenodd" clip-rule="evenodd" d="M113.747 97.5168C113.478 96.9516 113.383 96.3194 113.473 95.7001C113.564 95.0807 113.836 94.5021 114.255 94.0373C114.675 93.5725 115.223 93.2425 115.831 93.0889C116.438 92.9354 117.077 92.9652 117.668 93.1746C118.258 93.384 118.773 93.7636 119.148 94.2654C119.522 94.7672 119.739 95.3686 119.771 95.9937C119.804 96.6188 119.65 97.2394 119.329 97.777C119.008 98.3147 118.535 98.7452 117.969 99.0143C117.594 99.1936 117.187 99.2971 116.771 99.3189C116.355 99.3407 115.939 99.2803 115.547 99.1411C115.155 99.002 114.794 98.7869 114.485 98.5082C114.176 98.2294 113.926 97.8925 113.747 97.5168Z" fill="#FFD98E"/>
<path fill-rule="evenodd" clip-rule="evenodd" d="M230.013 131.449C230.009 129.305 230.642 127.208 231.832 125.424C233.022 123.64 234.715 122.248 236.697 121.426C238.679 120.604 240.861 120.388 242.966 120.805C245.071 121.222 247.005 122.254 248.522 123.77C250.04 125.286 251.073 127.218 251.491 129.321C251.908 131.424 251.692 133.604 250.869 135.584C250.046 137.564 248.653 139.255 246.867 140.444C245.081 141.633 242.981 142.265 240.835 142.261C237.967 142.256 235.217 141.115 233.188 139.089C231.16 137.062 230.018 134.315 230.013 131.449Z" fill="#FFD98E"/>
<path d="M259.158 129.562C259.472 130.666 259.63 131.809 259.627 132.957C259.628 134.799 259.22 136.618 258.432 138.283C257.644 139.949 256.496 141.419 255.071 142.588C253.646 143.757 251.979 144.595 250.19 145.043C248.402 145.49 246.536 145.536 244.728 145.176" stroke="#FF8364" stroke-width="3.11" stroke-linecap="round" stroke-linejoin="round"/>
<path fill-rule="evenodd" clip-rule="evenodd" d="M234.28 139.676L230.123 147.108L247.286 149.869L245.407 141.188" fill="#FFD98E"/>
<path fill-rule="evenodd" clip-rule="evenodd" d="M238.297 131.449C238.297 130.944 238.447 130.45 238.728 130.029C239.01 129.609 239.409 129.282 239.877 129.088C240.344 128.895 240.858 128.844 241.355 128.943C241.851 129.041 242.307 129.285 242.665 129.642C243.022 130 243.266 130.455 243.365 130.951C243.463 131.446 243.413 131.96 243.219 132.427C243.026 132.894 242.698 133.293 242.277 133.574C241.856 133.855 241.362 134.005 240.856 134.005C240.177 134.005 239.526 133.736 239.047 133.256C238.567 132.777 238.297 132.127 238.297 131.449Z" fill="#1B3C87"/>
<path fill-rule="evenodd" clip-rule="evenodd" d="M255.91 128.894C255.91 128.388 256.06 127.894 256.341 127.474C256.622 127.053 257.022 126.726 257.489 126.532C257.957 126.339 258.471 126.288 258.968 126.387C259.464 126.486 259.92 126.729 260.277 127.086C260.635 127.444 260.879 127.899 260.978 128.395C261.076 128.891 261.026 129.405 260.832 129.872C260.638 130.339 260.31 130.738 259.89 131.019C259.469 131.299 258.974 131.449 258.468 131.449C257.79 131.449 257.139 131.18 256.659 130.701C256.18 130.221 255.91 129.571 255.91 128.894Z" fill="#FFD98E"/>
<path fill-rule="evenodd" clip-rule="evenodd" d="M50.4204 50.0215L66.4544 54.3542L50.6652 112.756L34.6162 108.428L50.4204 50.0215Z" fill="#FF8364"/>
<path d="M39.728 89.5898L48.557 91.9708" stroke="#FFD98E" stroke-width="4.23" stroke-linecap="round" stroke-linejoin="round"/>
<path d="M36.9248 99.9473L45.7588 102.328" stroke="#FFD98E" stroke-width="4.23" stroke-linecap="round" stroke-linejoin="round"/>
<path d="M42.5259 79.2324L51.3598 81.6134" stroke="#FFD98E" stroke-width="4.23" stroke-linecap="round" stroke-linejoin="round"/>
<path d="M45.3291 68.8848L54.1581 71.2658" stroke="#FFD98E" stroke-width="4.23" stroke-linecap="round" stroke-linejoin="round"/>
<path d="M48.127 58.5117L56.9609 60.8977" stroke="#FFD98E" stroke-width="4.23" stroke-linecap="round" stroke-linejoin="round"/>
<path fill-rule="evenodd" clip-rule="evenodd" d="M215.568 37.9365L276.111 52.5171L266.118 93.7529L205.6 79.1474L215.568 37.9365Z" fill="#DFDFDF"/>
<path fill-rule="evenodd" clip-rule="evenodd" d="M251.778 82.6211C252.081 81.3677 252.749 80.2322 253.698 79.3582C254.647 78.4842 255.834 77.9109 257.109 77.7108C258.384 77.5107 259.689 77.6929 260.861 78.2341C262.032 78.7754 263.017 79.6516 263.69 80.7518C264.363 81.852 264.694 83.1269 264.641 84.4152C264.589 85.7035 264.156 86.9474 263.396 87.9895C262.636 89.0316 261.583 89.8252 260.372 90.2699C259.161 90.7146 257.844 90.7905 256.59 90.4878C254.907 90.0821 253.455 89.0253 252.553 87.55C251.651 86.0747 251.372 84.3017 251.778 82.6211Z" fill="#FF8364"/>
<path fill-rule="evenodd" clip-rule="evenodd" d="M253.707 87.9922L249.354 99.3332L255.43 97.9555L259.333 101.574L260.117 89.2201" fill="#FF8364"/>
<path d="M219.146 48.6133L266.943 60.1439" stroke="#6BD5E1" stroke-width="3.11" stroke-linecap="round" stroke-linejoin="round"/>
<path d="M216.377 59.9297L245.242 66.888" stroke="#6BD5E1" stroke-width="3.11" stroke-linecap="round" stroke-linejoin="round"/>
<path fill-rule="evenodd" clip-rule="evenodd" d="M119.488 43.5373L112.993 36.509L122.336 34.3976L131.685 32.2861L128.837 41.4308L125.994 50.5754L119.488 43.5373Z" fill="#6BD5E1"/>
<path fill-rule="evenodd" clip-rule="evenodd" d="M248.545 190.99L239.646 194.549L241.01 185.065L242.374 175.581L249.904 181.496L257.439 187.411L248.545 190.99Z" fill="#FFD98E"/>
<path d="M175.5 76.7516C175.5 75.8334 175.773 74.9359 176.283 74.1725C176.794 73.4091 177.519 72.8141 178.369 72.4627C179.218 72.1114 180.152 72.0195 181.053 72.1986C181.955 72.3777 182.783 72.8198 183.433 73.4691C184.083 74.1183 184.525 74.9454 184.704 75.8459C184.884 76.7464 184.792 77.6798 184.44 78.5281C184.088 79.3763 183.493 80.1014 182.728 80.6114C181.964 81.1215 181.066 81.3938 180.147 81.3938C178.914 81.3938 177.732 80.9047 176.861 80.0341C175.99 79.1635 175.5 77.9828 175.5 76.7516Z" stroke="#FF8364" stroke-width="3.11" stroke-linecap="round" stroke-linejoin="round"/>
<path fill-rule="evenodd" clip-rule="evenodd" d="M45.6689 154.511C45.6689 153.593 45.9415 152.696 46.4521 151.932C46.9627 151.169 47.6884 150.574 48.5375 150.223C49.3866 149.871 50.3209 149.779 51.2223 149.958C52.1237 150.137 52.9517 150.58 53.6016 151.229C54.2514 151.878 54.694 152.705 54.8733 153.606C55.0526 154.506 54.9606 155.44 54.6089 156.288C54.2572 157.136 53.6616 157.861 52.8974 158.371C52.1332 158.881 51.2348 159.154 50.3158 159.154C49.0833 159.154 47.9014 158.664 47.03 157.794C46.1585 156.923 45.6689 155.743 45.6689 154.511Z" fill="#FFD98E"/>
<path fill-rule="evenodd" clip-rule="evenodd" d="M150.802 303.236H181.875C181.875 303.236 182.02 335.308 181.875 347.931C181.875 353.138 150.812 352.539 150.812 347.931L150.802 303.236Z" fill="#D18C65"/>
<path fill-rule="evenodd" clip-rule="evenodd" d="M134.908 272.578C134.908 248.753 149.398 229.445 167.301 229.445C185.203 229.445 199.698 248.753 199.698 272.578C199.698 296.403 185.208 315.711 167.301 315.711C149.393 315.711 134.908 296.398 134.908 272.578Z" fill="#E49D75"/>
<path fill-rule="evenodd" clip-rule="evenodd" d="M184.794 226.351C176.565 245.454 142.468 264.107 128.108 268.47C125.839 257.069 140.534 208.481 184.794 226.351Z" fill="black"/>
<path fill-rule="evenodd" clip-rule="evenodd" d="M166.571 225.761C160.34 228.117 180.596 260.498 204.86 268.47C214.778 254.373 191.934 225.092 166.571 225.761Z" fill="black"/>
<path fill-rule="evenodd" clip-rule="evenodd" d="M212.889 8.925C212.887 7.23222 213.388 5.5769 214.328 4.16851C215.268 2.76012 216.605 1.66197 218.17 1.01303C219.735 0.364088 221.458 0.193524 223.12 0.522922C224.782 0.85232 226.309 1.66687 227.507 2.8635C228.706 4.06013 229.522 5.58505 229.853 7.24528C230.183 8.90552 230.014 10.6264 229.365 12.1903C228.716 13.7541 227.618 15.0906 226.209 16.0305C224.799 16.9705 223.143 17.4717 221.448 17.4707C219.179 17.4707 217.003 16.5705 215.398 14.968C213.793 13.3655 212.89 11.1919 212.889 8.925Z" fill="#FFD98E"/>
<path d="M65.2656 233.758C65.2656 232.178 65.7345 230.634 66.6129 229.321C67.4914 228.008 68.74 226.984 70.2008 226.379C71.6616 225.775 73.269 225.617 74.8198 225.925C76.3706 226.233 77.7951 226.994 78.9132 228.111C80.0312 229.228 80.7926 230.651 81.1011 232.2C81.4095 233.749 81.2512 235.355 80.6461 236.814C80.0411 238.274 79.0164 239.521 77.7017 240.399C76.387 241.276 74.8413 241.745 73.2602 241.745C71.1399 241.745 69.1064 240.903 67.6072 239.405C66.1079 237.908 65.2656 235.876 65.2656 233.758Z" stroke="#6BD5E1" stroke-width="3.11" stroke-linecap="round" stroke-linejoin="round"/>
<path d="M242.399 230.393C242.398 229.474 242.67 228.575 243.181 227.81C243.692 227.045 244.418 226.449 245.268 226.096C246.118 225.744 247.053 225.651 247.956 225.83C248.858 226.009 249.688 226.451 250.339 227.101C250.99 227.75 251.433 228.578 251.613 229.48C251.793 230.382 251.701 231.316 251.349 232.166C250.997 233.015 250.401 233.741 249.636 234.252C248.871 234.763 247.971 235.036 247.051 235.036C246.441 235.036 245.836 234.917 245.271 234.684C244.707 234.451 244.194 234.109 243.762 233.678C243.33 233.247 242.987 232.735 242.754 232.171C242.52 231.608 242.399 231.003 242.399 230.393V230.393Z" stroke="#FF8364" stroke-width="3.11" stroke-linecap="round" stroke-linejoin="round"/>
</g>
<defs>
<clipPath id="clip0">
<rect width="351" height="444" fill="white"/>
</clipPath>
</defs>
</svg>
