<svg width="544" height="569" viewBox="0 0 544 569" fill="none" xmlns="http://www.w3.org/2000/svg">
<path fill-rule="evenodd" clip-rule="evenodd" d="M302.261 65.0981C369.342 63.1565 435.41 90.0723 477.231 142.5C519.032 194.904 527.977 264.618 513.624 330.07C499.094 396.327 462.966 458.901 401.516 487.761C340.657 516.343 269.412 504.648 210.365 472.494C155.064 442.381 119.31 388.124 105.726 326.69C92.2735 265.851 102.12 202.106 139.56 152.274C178.425 100.543 237.539 66.9714 302.261 65.0981Z" fill="#2D37D5"/>
<path d="M237.334 120.291C244.836 120.708 255.571 126.929 255.571 137.773C255.571 148.618 244.764 152.876 235.053 154.644C241.64 162.857 244.342 164.445 243.667 167.978C242.991 171.51 236.912 181.226 236.413 192.355C235.915 203.483 207.028 264.684 201.543 266.453C196.058 268.221 206.874 279.54 169.039 280.811C158.952 280.811 140.651 265.163 140.651 244.774C140.198 200.33 184.362 191.895 208.919 142.311C220.188 119.551 233.852 120.092 237.334 120.291Z" fill="black"/>
<path d="M129.114 329.612H454.154V475.864H129.114V329.612Z" fill="#F3F3F3"/>
<path d="M167.362 364.203H426.07" stroke="white" stroke-width="12.98" stroke-linecap="round" stroke-linejoin="round"/>
<path d="M329.084 368.873L338.255 363.335L344.751 375.113L335.58 380.647L329.084 368.873Z" fill="#E49D75"/>
<path d="M188.437 403.042H392.047" stroke="white" stroke-width="12.98" stroke-linecap="round" stroke-linejoin="round"/>
<path d="M260.775 391.126L270.327 395.929L264.747 408.168L255.19 403.393L260.775 391.126Z" fill="#E49D75"/>
<path d="M313.897 287.274C323.19 287.274 336.858 345.526 342.734 362.605C341.505 366.18 334.533 371.747 330.707 371.747C323.326 358.812 306.793 331.083 303.856 326.796C301.503 323.382 304.604 287.274 313.897 287.274Z" fill="#FFD9EE"/>
<path opacity="0.27" d="M310.393 172.326C311.98 171.288 311.232 171.985 312.483 170.069L310.393 172.326Z" fill="black"/>
<path d="M207.318 276.572C199.263 276.572 192.626 274.756 192.626 294.59C192.626 314.425 213.325 330.945 237.891 330.945C262.457 330.945 273.328 330.262 275.568 329.693C276.23 336.25 261.75 381.187 260.195 392.757C261.306 395.848 268.491 399.699 271.529 399.699C274.566 399.699 314.976 331.044 313.924 288.62C314.065 281.982 290.718 280.147 275.967 280.147C261.215 280.147 229.817 281.925 225.846 281.925" fill="#FFD9EE"/>
<path d="M195.436 278.521C194.412 274.106 188.89 179.24 222.015 180.933C255.141 182.625 254.801 267.164 251.029 280.508C235.91 287.203 196.515 283.182 195.436 278.521Z" fill="#FFD98E"/>
<path d="M233.19 173.407C232.669 174.702 229.858 181.596 229.337 184.413C228.815 187.229 214.576 183.668 215.374 182.26C220.089 173.933 220.859 165.19 221.626 160.813C222.328 156.811 236.64 164.834 233.19 173.407Z" fill="#D18C65"/>
<path d="M229.101 229.141L208.665 231.417C207.273 233.209 207.876 237.448 207.853 239.629C207.763 247.69 208.107 256.699 212.767 263.489C214.581 266.13 217.55 268.705 220.474 268.662C225.053 270.559 232.691 272.745 232.691 272.745L244.283 275.419C244.283 275.419 263.84 279.047 273.496 278.81C276.71 278.724 279.979 278.335 283.188 278.43C285.051 278.482 288.007 279.089 289.748 278.43C290.256 278.236 290.133 277.065 290.011 276.605C289.594 274.997 288.125 273.869 286.774 273.167C283.637 271.536 281.86 272.57 278.641 272.626C276.007 272.674 272.866 271.27 268.296 269.397C262.906 267.188 256.759 264.49 251.264 262.555C245.004 260.35 238.616 257.97 232.506 255.353C231.3 254.836 230.017 254.461 228.752 254.049C229.33 250.602 229.657 247.115 229.731 243.617C229.872 239.824 229.931 235.841 229.4 232.104C229.264 231.142 229.486 230.032 229.101 229.141Z" fill="#E49D75"/>
<path d="M203.225 232.005C199.748 222.341 202.771 192.137 214.059 190.16C229.763 187.722 234.459 225.883 232.905 230.345C230.126 232.09 214.558 237.861 203.225 232.005Z" fill="#FFE4AD"/>
<path d="M249.986 140.827C241.547 149.246 230.431 154.106 218.774 154.474C218.231 155.19 217.934 156.077 217.931 156.991C217.936 158.012 218.29 158.997 218.93 159.768C219.569 160.539 220.452 161.044 221.417 161.193C222.428 167.655 225.697 172.72 230.511 174.251C238.218 176.707 247.017 169.144 250.136 157.357C251.713 151.401 251.537 145.517 249.986 140.827Z" fill="#E49D75"/>
<path d="M261.995 279.441C270.155 279.441 299.622 279.194 305.03 279.194L261.995 279.441Z" fill="#FFC88E"/>
<path d="M256.954 279.839C265.567 279.839 295.297 279.104 300.229 279.104C304.055 272.94 321.826 240.469 323 238.013" stroke="#9D9D9D" stroke-width="5.79" stroke-linecap="round" stroke-linejoin="round"/>
<path d="M256.587 400.4L250.367 412.833L282.01 430.15L283.773 426.627L268.106 406.712L256.587 400.4Z" fill="black"/>
<path d="M333.653 377.484L340.567 389.509L371.171 370.263L369.213 366.854L344.796 370.476L333.653 377.484Z" fill="black"/>
<path d="M164.678 386.37L144.382 365.146L164.678 343.918" stroke="#DFDFDF" stroke-width="12.98" stroke-linecap="round" stroke-linejoin="round"/>
<path d="M416.727 462.198L437.013 440.975L416.722 419.751" stroke="#DFDFDF" stroke-width="12.98" stroke-linecap="round" stroke-linejoin="round"/>
<path d="M167.362 440.714H400.597" stroke="white" stroke-width="12.98" stroke-linecap="round" stroke-linejoin="round"/>
</svg>
