<svg width="391" height="464" viewBox="0 0 391 464" fill="none" xmlns="http://www.w3.org/2000/svg">
<g clip-path="url(#clip0)">
<path d="M61.655 66.6774C23.3329 90.7434 -3.80864 133.974 0.435716 174.723C4.77501 215.378 40.5114 253.635 52.7865 301.856C65.0616 350.077 53.9872 408.424 74.4885 438.105C94.8894 467.886 147.089 469.174 189.622 456.082C232.278 443.084 265.334 415.706 302.081 391.183C338.828 366.749 379.2 345.086 388.694 313.833C398.188 282.674 376.782 241.903 353.51 211.508C330.334 180.991 305.13 160.895 279.094 132.781C253.059 104.667 226.096 68.6179 187.869 53.0442C149.552 37.4593 99.9658 42.5279 61.655 66.6774Z" fill="#FFD9EE"/>
<path d="M167.261 334.994L175.359 190.854" stroke="#FED385" stroke-width="5" stroke-miterlimit="10" stroke-linecap="round"/>
<path d="M167.261 334.994L264.993 205.631" stroke="#FED385" stroke-width="5" stroke-miterlimit="10" stroke-linecap="round"/>
<path d="M167.261 334.994L271.136 109.167" stroke="#FED385" stroke-width="5" stroke-miterlimit="10" stroke-linecap="round"/>
<path d="M334.776 87.0817C345.425 57.8524 335.564 27.44 312.75 19.1537C289.936 10.8675 262.808 27.8452 252.159 57.0746C241.509 86.3039 251.371 116.716 274.185 125.003C296.999 133.289 324.127 116.311 334.776 87.0817Z" fill="#FD8369"/>
<path d="M225.631 150.409C227.799 119.381 209.923 92.861 185.705 91.1744C161.488 89.4878 140.098 113.274 137.93 144.301C135.763 175.329 153.638 201.85 177.856 203.536C202.074 205.223 223.463 181.437 225.631 150.409Z" fill="#D37C59"/>
<path d="M340.917 175.42C356.033 144.407 347.042 108.942 320.833 96.2078C294.625 83.4733 261.125 98.2912 246.009 129.304C230.893 160.318 239.884 195.782 266.093 208.517C292.301 221.251 325.801 206.433 340.917 175.42Z" fill="#2D37D5"/>
<path d="M255.359 60.2301C259.829 30.8933 243.727 4.1149 219.394 0.41892C195.061 -3.27706 171.711 17.5089 167.241 46.8458C162.772 76.1826 178.874 102.961 203.207 106.657C227.54 110.353 250.889 89.567 255.359 60.2301Z" fill="#2D37D5"/>
<path d="M268.948 137.578C277.317 110.042 267.51 82.6942 247.045 76.4938C226.579 70.2935 203.205 87.5889 194.837 115.124C186.468 142.66 196.275 170.008 216.74 176.208C237.205 182.409 260.58 165.113 268.948 137.578Z" fill="#FED385"/>
<path d="M177.772 201.85L182.798 213.638C182.944 213.984 182.997 214.363 182.951 214.735C182.905 215.108 182.761 215.462 182.535 215.763C182.309 216.063 182.008 216.299 181.662 216.446C181.316 216.594 180.938 216.649 180.564 216.604L167.836 215.038C167.462 214.992 167.106 214.849 166.805 214.623C166.503 214.396 166.267 214.095 166.12 213.748C165.973 213.401 165.92 213.022 165.966 212.648C166.012 212.275 166.157 211.92 166.384 211.62L174.108 201.399C174.336 201.104 174.636 200.874 174.98 200.731C175.324 200.587 175.699 200.536 176.069 200.582C176.439 200.627 176.79 200.768 177.089 200.991C177.387 201.213 177.623 201.509 177.772 201.85Z" fill="#D37C59"/>
<path d="M167.261 334.994L148.832 128.125" stroke="#FED385" stroke-width="5" stroke-miterlimit="10" stroke-linecap="round"/>
<path d="M167.261 334.994L216.406 171.061" stroke="#FED385" stroke-width="5" stroke-miterlimit="10" stroke-linecap="round"/>
<path d="M218.227 171.211L221.153 183.684C221.238 184.05 221.225 184.432 221.115 184.792C221.006 185.151 220.803 185.476 220.528 185.732C220.253 185.989 219.915 186.168 219.549 186.253C219.182 186.338 218.799 186.325 218.439 186.216L206.153 182.496C205.792 182.387 205.467 182.186 205.209 181.911C204.952 181.637 204.771 181.299 204.686 180.933C204.6 180.567 204.613 180.184 204.723 179.825C204.832 179.465 205.035 179.14 205.31 178.883L214.67 170.134C214.944 169.877 215.282 169.696 215.649 169.61C216.016 169.524 216.399 169.537 216.76 169.646C217.121 169.755 217.446 169.957 217.704 170.232C217.961 170.506 218.142 170.844 218.227 171.211Z" fill="#FED385"/>
<path d="M268.294 203.462L267.4 216.231C267.375 216.608 267.251 216.972 267.04 217.286C266.829 217.599 266.539 217.852 266.198 218.017C265.858 218.182 265.48 218.255 265.102 218.227C264.725 218.199 264.362 218.072 264.049 217.859L253.438 210.699C253.126 210.489 252.874 210.2 252.709 209.862C252.544 209.524 252.471 209.148 252.497 208.772C252.524 208.397 252.649 208.035 252.86 207.724C253.072 207.412 253.362 207.161 253.701 206.997L265.222 201.388C265.56 201.225 265.935 201.153 266.309 201.18C266.684 201.208 267.045 201.332 267.355 201.542C267.666 201.752 267.917 202.04 268.081 202.377C268.246 202.714 268.319 203.088 268.294 203.462Z" fill="#74D5DE"/>
<path d="M149.378 134.343C178.431 132.009 199.737 102.247 196.967 67.8674C194.196 33.4877 168.398 7.5095 139.345 9.84341C110.292 12.1773 88.9859 41.9396 91.7563 76.3192C94.5267 110.699 120.325 136.677 149.378 134.343Z" fill="#FD8369"/>
<path d="M150.373 129.48L157.633 140.018C157.844 140.328 157.97 140.687 157.999 141.061C158.028 141.434 157.958 141.808 157.797 142.146C157.636 142.485 157.39 142.775 157.082 142.988C156.774 143.202 156.415 143.331 156.042 143.364L143.281 144.418C142.905 144.447 142.529 144.377 142.189 144.215C141.85 144.054 141.558 143.806 141.345 143.496C141.131 143.187 141.002 142.827 140.972 142.453C140.941 142.078 141.009 141.702 141.17 141.362L146.67 129.798C146.83 129.457 147.076 129.164 147.385 128.948C147.694 128.733 148.054 128.603 148.43 128.57C148.805 128.538 149.182 128.605 149.524 128.765C149.865 128.925 150.158 129.171 150.373 129.48Z" fill="#FD8369"/>
<path d="M115.736 437.703L238.033 461.97L259.805 352.589L137.507 328.323L115.736 437.703Z" fill="#DE8E68"/>
<path d="M142.443 366.247L264.736 390.514L259.827 352.586L137.528 328.319L142.443 366.247Z" fill="#D37C59"/>
<path d="M45.7277 423.802L115.747 437.695L137.519 328.315L67.4989 314.421L45.7277 423.802Z" fill="#D37C59"/>
<path d="M118.809 361.552L48.9219 347.685L67.6473 314.446L137.528 328.319L118.809 361.552Z" fill="#DE8E68"/>
<path d="M162.693 447.019L191.078 452.651L197.501 420.384L169.116 414.752L162.693 447.019Z" fill="#D37C59"/>
<path d="M132.042 395.373L174.789 403.854L179.477 380.299L136.73 371.817L132.042 395.373Z" fill="#FED385"/>
<path d="M161.94 397.725L171.603 399.643L175.009 382.53L165.347 380.613L161.94 397.725Z" fill="#FD8369"/>
<path d="M138.487 378.768L162.632 383.559L163.281 380.299L139.136 375.508L138.487 378.768Z" fill="#FD8369"/>
<path d="M137.37 384.345L161.515 389.136L162.164 385.876L138.019 381.085L137.37 384.345Z" fill="#FD8369"/>
</g>
<defs>
<clipPath id="clip0">
<rect width="391" height="464" fill="white"/>
</clipPath>
</defs>
</svg>
