<svg width="432" height="432" viewBox="0 0 432 432" fill="none" xmlns="http://www.w3.org/2000/svg">
<path d="M197.198 108.357L77.3959 130.539C64.7901 132.873 56.4632 144.985 58.7973 157.59L96.3285 360.288C98.6626 372.894 110.774 381.221 123.38 378.887L243.182 356.705C255.787 354.37 264.114 342.259 261.78 329.653L224.249 126.956C221.915 114.35 209.804 106.023 197.198 108.357Z" fill="#D0D0D0"/>
<path d="M172.743 112.882L54.5729 134.763L100.557 383.11L218.727 361.23L172.743 112.882Z" fill="#D0D0D0"/>
<path d="M193.465 97.6127L59.0625 132.822C46.6609 136.071 39.2412 148.759 42.49 161.16L94.7309 360.574C97.9798 372.976 110.667 380.395 123.069 377.146L257.471 341.937C269.873 338.688 277.293 326.001 274.044 313.599L221.803 114.185C218.554 101.784 205.867 94.3638 193.465 97.6127Z" fill="#DEDEDE"/>
<path d="M164.671 105.156L36.6031 138.706L100.609 383.03L228.677 349.48L164.671 105.156Z" fill="#DEDEDE"/>
<path d="M186.216 100.58L169.106 104.99L232.248 349.982L249.359 345.572L186.216 100.58Z" fill="#F3F3F3"/>
<path d="M208.126 126.707L63.2516 164.66L80.1294 229.086L225.004 191.133L208.126 126.707Z" fill="#F3F3F3"/>
<path d="M208.126 126.707L63.2516 164.66L80.1294 229.086L225.004 191.133L208.126 126.707Z" fill="#F3F3F3"/>
<path d="M156.508 318.489L100.976 333.037L109.885 367.044L165.417 352.496L156.508 318.489Z" fill="#F3F3F3"/>
<path d="M324.36 184.568C325.692 185.173 328.842 187.592 330.052 188.986C331.445 188.32 355.295 173.43 358.747 173.61C362.2 173.79 360.382 180.63 360.382 181.296C360.382 181.962 331.614 204.361 326.927 204.361C322.24 204.361 316.008 194.191 316.008 193.586C316.008 192.982 324.36 184.568 324.36 184.568Z" fill="#DE8E68"/>
<path d="M373.14 125.741L369.598 125.237L362.398 124.218L361.379 131.418L331.139 345.114L329.26 358.391C328.991 360.298 329.49 362.234 330.647 363.773C331.805 365.312 333.527 366.328 335.434 366.599L338.98 367.103C340.887 367.372 342.824 366.872 344.363 365.713C345.902 364.555 346.918 362.833 347.188 360.925L349.067 347.652L379.307 133.956L380.326 126.756L373.14 125.741Z" fill="#DFDFDF"/>
<path d="M374.717 101.829L362.405 124.218L380.333 126.756L374.717 101.829Z" fill="#F3F3F3"/>
<path d="M376.567 110.044L374.717 101.829L370.66 109.206L376.567 110.044Z" fill="#DFDFDF"/>
<path d="M349.345 345.509L331.416 342.97L330.504 349.407L348.433 351.946L349.345 345.509Z" fill="#F3F3F3"/>
<path d="M311.144 358.251H302.418V363.511H311.144V358.251Z" fill="#DE8E68"/>
<path d="M327.88 339.276L323.143 345.722L327.381 348.836L332.118 342.39L327.88 339.276Z" fill="#DE8E68"/>
<path d="M269.352 246.6C269.352 246.6 263.646 297.792 265.64 303.523C267.635 309.254 323.96 346.637 323.96 346.637L329.195 339.66L286.582 295.794C288.695 294.174 296.993 273.866 297.205 272.12C297.418 270.374 291.06 243.32 291.06 243.32L269.352 246.6Z" fill="#2D37D5"/>
<path d="M304.096 173.937C308.639 166.924 326.416 181.461 326.891 184.507C327.366 187.552 320.094 199.544 314.381 199.241C308.668 198.939 301.45 178.019 304.096 173.937Z" fill="#FCC486"/>
<path d="M291.812 163.004C326.459 163.004 317.135 234.097 316.606 239.817C313.956 244.371 271.886 249.371 269.352 246.599C268.294 238.651 259.074 163.004 291.812 163.004Z" fill="#FED385"/>
<path d="M288.605 166.5C288.605 168.509 299.729 168.937 299.729 166.5V152.838H288.605V166.5Z" fill="#DE8E68"/>
<path d="M301.166 158.753C306.284 156.717 308.215 149.49 305.478 142.612C302.741 135.733 296.374 131.808 291.256 133.844C286.137 135.881 284.207 143.107 286.943 149.986C289.68 156.864 296.048 160.79 301.166 158.753Z" fill="#DE8E68"/>
<path d="M288.821 154.356C289.823 153.639 289.802 151.893 288.774 150.458C287.746 149.022 286.1 148.441 285.098 149.158C284.096 149.876 284.117 151.622 285.145 153.057C286.173 154.492 287.819 155.074 288.821 154.356Z" fill="#DE8E68"/>
<path d="M277.607 145.35C277.607 143.492 279.338 141.451 279.666 139.118C279.835 137.937 279.468 133.02 280.847 131.357C283.727 127.911 285.404 128.617 287.597 127.814C291.416 126.417 292.878 124.103 296.032 124.103C299.632 124.103 301.072 125.96 303.624 125.96C306.554 125.96 308.959 124.61 313.074 124.61C315.266 124.61 318.132 127.49 318.132 130.01C318.132 135.993 312.566 135.137 312.566 136.591C312.566 137.603 312.905 138.391 312.905 139.799C312.905 141.599 310.543 142.679 309.193 142.679C305.082 142.679 304.535 142.178 304.535 142.178C303.72 140.546 302.677 139.039 301.439 137.7C301.273 137.527 298.602 139.413 294.239 139.561C290.664 139.68 288.144 140.371 288.144 142.034C288.144 143.211 288.576 146.714 288.551 147.686C288.526 148.658 288.191 149.306 287.957 149.306C287.723 149.306 287.597 148.989 286.24 148.989C284.767 148.989 284.652 150.789 284.4 150.789C282.924 150.779 277.607 149.58 277.607 145.35Z" fill="#FD8369"/>
<path d="M277.139 196.445C276.681 196.445 276.228 196.533 275.803 196.705C275.761 196.648 275.707 196.601 275.645 196.568C275.583 196.535 275.514 196.517 275.443 196.514C274.266 196.514 263.113 196.1 261.936 196.305C263.876 194.645 267.962 190.347 267.962 190.347L258.746 179.331C256.669 180.094 241.636 195.268 241.636 200.809C241.636 205.939 248.148 206.698 252.86 206.698C258.696 206.698 267.782 205.229 272.66 203.818C273.136 206.468 274.961 208.444 277.142 208.444C279.688 208.444 281.75 205.762 281.75 202.454C281.75 199.145 279.684 196.445 277.139 196.445Z" fill="#DE8E68"/>
<path d="M280.487 170.694C286.247 177.081 270.436 194.724 267.577 194.724C264.719 194.724 254.769 184.367 255.852 177.934C256.936 171.501 277.121 166.972 280.487 170.694Z" fill="#FED892"/>
<path d="M316.606 239.817L311.911 359.399H301.943L286.582 246.693" fill="#2D37D5"/>
<path d="M311.476 362.186V369.994H288.583V367.427L301.594 362.186H311.476Z" fill="black"/>
<path d="M331.441 341.669L336.816 344.913L330.912 367.031L328.432 366.369L326.264 348.739L331.441 341.669Z" fill="black"/>
</svg>
