<svg width="315" height="419" viewBox="0 0 315 419" fill="none" xmlns="http://www.w3.org/2000/svg">
<path d="M294.184 0H0V419H294.184V0Z" fill="#F3F3F3"/>
<path d="M294.184 0H0V26.9867H294.184V0Z" fill="#2D37D5"/>
<path d="M315 60.9785H67.937V129.998H315V60.9785Z" fill="#DFDFDF"/>
<path d="M303.244 74.3359H82.3643V80.5886H303.244V74.3359Z" fill="#F9F9F9"/>
<path d="M303.244 89.2314H82.3643V95.4841H303.244V89.2314Z" fill="#F9F9F9"/>
<path d="M303.244 104.132H82.3643V110.384H303.244V104.132Z" fill="#F9F9F9"/>
<path d="M315 157.733H67.937V226.753H315V157.733Z" fill="#DFDFDF"/>
<path d="M100.847 212.795C112.424 212.795 121.81 203.593 121.81 192.241C121.81 180.89 112.424 171.688 100.847 171.688C89.2689 171.688 79.8833 180.89 79.8833 192.241C79.8833 203.593 89.2689 212.795 100.847 212.795Z" fill="#F9F9F9"/>
<path d="M298.118 171.688H137.279V191.569H298.118V171.688Z" fill="#F9F9F9"/>
<path d="M298.118 198.307H137.279V205.61H298.118V198.307Z" fill="#F9F9F9"/>
<path d="M260.804 256.689H28.7559V368.625H260.804V256.689Z" fill="white"/>
</svg>
