<svg width="470" height="512" viewBox="0 0 470 512" fill="none" xmlns="http://www.w3.org/2000/svg">
<path d="M449.992 181.175V119.623C461.636 115.495 470 104.379 470 91.3421C470 74.7991 456.537 61.3401 439.987 61.3401C423.437 61.3401 409.974 74.7991 409.974 91.3421C409.974 104.379 418.338 115.495 429.982 119.624V181.176C418.338 185.304 409.974 196.421 409.974 209.458C409.974 226.001 423.437 239.46 439.987 239.46C456.537 239.46 470 226 470 209.457C470 196.42 461.636 185.304 449.992 181.175ZM439.987 219.459C434.471 219.459 429.983 214.972 429.983 209.457C429.983 203.942 434.47 199.455 439.987 199.455C445.504 199.455 449.991 203.942 449.991 209.457C449.991 214.972 445.503 219.459 439.987 219.459ZM439.987 101.344C434.47 101.344 429.983 96.8571 429.983 91.3421C429.983 85.8271 434.471 81.3401 439.987 81.3401C445.503 81.3401 449.991 85.8271 449.991 91.3421C449.991 96.8571 445.504 101.344 439.987 101.344Z" fill="#2D37D5"/>
<path d="M377.058 183.834L327.571 150.399L377.057 116.965C381.635 113.872 382.838 107.655 379.744 103.08C376.649 98.504 370.428 97.3019 365.853 100.394L304.104 142.113C301.351 143.973 299.702 147.077 299.702 150.398C299.702 153.719 301.351 156.823 304.103 158.683L365.852 200.403C367.57 201.563 369.518 202.119 371.446 202.119C374.656 202.119 377.81 200.577 379.744 197.719C382.838 193.144 381.635 186.927 377.058 183.834Z" fill="#2D37D5"/>
<path d="M241.194 180.188C256.089 178.439 267.685 165.751 267.685 150.399C267.685 135.894 257.333 123.761 243.626 120.992C236.976 99.434 222.134 82.09 199.238 69.243C191.432 64.863 183.009 61.149 174.248 57.929C191.054 54.283 206.618 50.511 218.843 45.265C225.975 42.204 247.677 32.892 247.677 10C247.677 4.478 243.197 0 237.672 0H30.013C24.488 0 20.008 4.478 20.008 10C20.008 32.892 41.71 42.204 48.842 45.265C61.067 50.511 76.631 54.284 93.437 57.929C84.676 61.15 76.253 64.864 68.447 69.243C45.552 82.09 30.71 99.434 24.061 120.992C10.353 123.76 0 135.893 0 150.399C0 165.748 11.592 178.434 26.484 180.187C32.425 193.627 42.482 206.069 56.813 217.755C72.38 230.449 91.657 241.237 111.474 251.363C64.15 275.305 20.009 302.068 20.009 350.224C20.009 406.379 57.231 434.567 99.96 451.798C99.842 451.828 99.725 451.86 99.606 451.89C79.74 457.077 60.975 461.976 47.049 468.483C40.361 471.608 20.009 481.117 20.009 502C20.009 507.522 24.489 512 30.014 512H237.672C243.197 512 247.677 507.522 247.677 502C247.677 481.117 227.325 471.608 220.637 468.483C206.711 461.976 187.946 457.077 168.08 451.89C167.962 451.86 167.845 451.828 167.726 451.798C210.455 434.567 247.677 406.379 247.677 350.224C247.677 302.068 203.536 275.305 156.212 251.363C176.029 241.237 195.306 230.449 210.873 217.755C225.203 206.07 235.253 193.627 241.194 180.188ZM237.672 140.397C243.188 140.397 247.676 144.884 247.676 150.399C247.676 155.914 243.188 160.401 237.672 160.401C232.156 160.401 227.668 155.914 227.668 150.399C227.668 144.884 232.155 140.397 237.672 140.397ZM56.736 26.887C51.192 24.508 47.486 22.169 45.01 20H222.676C220.199 22.169 216.493 24.508 210.95 26.887C197.88 32.495 142.371 44.258 133.843 46.254C125.315 44.258 69.805 32.495 56.736 26.887ZM133.842 66.804C154.837 71.887 175.23 78.218 191.612 88H76.077C92.457 78.218 112.849 71.886 133.842 66.804ZM30.013 160.401C24.497 160.401 20.009 155.914 20.009 150.399C20.009 144.884 24.496 140.397 30.013 140.397C35.53 140.397 40.017 144.884 40.017 150.399C40.017 155.914 35.529 160.401 30.013 160.401ZM221.391 492H46.294C57.336 483.598 123.841 466.234 133.842 463.314C143.843 466.234 210.348 483.598 221.391 492ZM133.842 442.463C115.333 436.846 97.061 430.022 81.683 420.682H186.001C170.623 430.021 152.352 436.846 133.842 442.463ZM210.23 400.682H57.455C49.622 391.498 44.507 381.14 41.954 369.333H225.731C223.177 381.14 218.062 391.497 210.23 400.682ZM227.651 349.333H40.034C40.229 337.589 44.249 327.311 51.063 318.047H216.624C223.437 327.311 227.457 337.589 227.651 349.333ZM196.145 298.047H71.54C88.591 285.139 110.833 273.953 133.843 262.547C156.853 273.953 179.095 285.139 196.145 298.047ZM133.842 240.222C115.368 231.043 97.519 221.929 82.432 211.853H185.245C170.161 221.929 152.315 231.043 133.842 240.222ZM58.168 191.853C53.408 186.738 49.43 181.317 46.429 175.498C54.609 170.133 60.026 160.89 60.026 150.4C60.026 139.001 53.633 129.067 44.243 123.991C46.414 118.08 49.386 112.784 53.004 108H214.684C218.302 112.783 221.274 118.078 223.444 123.989C214.052 129.065 207.658 138.999 207.658 150.399C207.658 160.886 213.072 170.127 221.249 175.493C218.248 181.314 214.268 186.736 209.507 191.853H58.168Z" fill="#2D37D5"/>
</svg>
