<svg width="512" height="495" viewBox="0 0 512 495" fill="none" xmlns="http://www.w3.org/2000/svg">
<path d="M385.51 139.799C381.333 139.799 377.525 137.109 376.108 133.184C374.728 129.365 375.858 124.958 378.917 122.282C382.195 119.415 387.088 119.022 390.787 121.312C394.305 123.489 396.147 127.782 395.297 131.832C394.335 136.413 390.198 139.799 385.51 139.799Z" fill="#2D37D5"/>
<path d="M427.277 341.751C411.493 341.751 396.811 346.559 384.619 354.788L338.391 307.603C352.91 290.221 361.657 267.861 361.657 243.496C361.657 222.114 354.92 202.275 343.458 185.99L360.654 168.796C364.56 164.891 364.56 158.56 360.655 154.654C356.751 150.749 350.42 150.749 346.513 154.653L330.344 170.821C312.383 153.801 288.138 143.346 261.498 143.346C239.424 143.346 218.995 150.524 202.422 162.667L175.334 131.471C175.503 131.222 175.671 130.972 175.835 130.719C182.235 120.889 184.424 109.155 181.997 97.6789C176.988 73.9899 153.64 58.7959 129.946 63.7989V63.7999C118.469 66.2259 108.625 72.9759 102.225 82.8059C95.825 92.6369 93.636 104.37 96.064 115.847C100.428 136.487 118.714 150.68 139.02 150.68C142.02 150.68 145.064 150.37 148.114 149.726C152.562 148.785 156.765 147.195 160.617 145.028L187.537 176.03C171.271 193.843 161.338 217.531 161.338 243.495C161.338 256.26 163.739 268.475 168.113 279.712L106.15 333.379C95.072 320.483 78.652 312.302 60.357 312.302C27.076 312.302 0 339.375 0 372.654C0 405.933 27.076 433.006 60.357 433.006C93.638 433.006 120.714 405.933 120.714 372.654C120.714 364.929 119.255 357.538 116.597 350.742C116.823 350.577 117.045 350.402 117.26 350.215L177.52 298.025C195.404 325.467 226.367 343.644 261.496 343.644C285.169 343.644 306.95 335.389 324.111 321.608L369.616 368.055C357.923 381.485 350.833 399.022 350.833 418.185C350.833 460.331 385.124 494.618 427.274 494.618C469.423 494.618 503.714 460.331 503.714 418.185C503.714 376.039 469.427 341.751 427.277 341.751ZM60.357 413.005C38.104 413.005 20 394.904 20 372.654C20 350.404 38.104 332.302 60.357 332.302C82.61 332.302 100.714 350.404 100.714 372.654C100.714 394.904 82.61 413.005 60.357 413.005ZM143.977 130.159C131.085 132.892 118.359 124.611 115.63 111.71C114.309 105.462 115.5 99.0719 118.985 93.7199C122.47 88.3659 127.832 84.6909 134.082 83.3679V83.3689C146.979 80.6399 159.7 88.9179 162.429 101.818C163.75 108.066 162.559 114.456 159.074 119.809C155.589 125.161 150.227 128.837 143.977 130.159ZM181.339 243.497C181.339 199.303 217.298 163.348 261.498 163.348C305.698 163.348 341.657 199.303 341.657 243.497C341.657 287.691 305.698 323.645 261.498 323.645C217.298 323.645 181.339 287.691 181.339 243.497ZM427.277 474.618C396.155 474.618 370.836 449.303 370.836 418.185C370.836 387.067 396.155 361.751 427.277 361.751C458.398 361.751 483.717 387.067 483.717 418.185C483.717 449.303 458.398 474.618 427.277 474.618Z" fill="#2D37D5"/>
<path d="M449.569 124.849C415.145 124.849 387.139 96.846 387.139 62.425C387.139 28.004 415.145 0 449.569 0C483.994 0 512 28.004 512 62.425C512 96.846 483.994 124.849 449.569 124.849ZM449.569 20C426.173 20 407.139 39.031 407.139 62.425C407.139 85.818 426.173 104.849 449.569 104.849C472.965 104.849 492 85.818 492 62.425C492 39.032 472.966 20 449.569 20Z" fill="#2D37D5"/>
</svg>
