<svg width="394" height="395" viewBox="0 0 394 395" fill="none" xmlns="http://www.w3.org/2000/svg">
<path d="M373.04 80C384.068 80 393.04 71.0283 393.04 60C393.04 48.9717 384.068 40 373.04 40C362.012 40 353.04 48.9717 353.04 60C353.04 71.0283 362.01 80 373.04 80ZM373.04 53.3333C376.718 53.3333 379.707 56.325 379.707 60C379.707 63.675 376.718 66.6667 373.04 66.6667C369.362 66.6667 366.373 63.675 366.373 60C366.373 56.325 369.36 53.3333 373.04 53.3333Z" fill="#2D37D5"/>
<path d="M296.373 46.6667C309.238 46.6667 319.707 36.1983 319.707 23.3333C319.707 10.4683 309.238 0 296.373 0C283.508 0 273.04 10.4683 273.04 23.3333C273.04 36.1983 283.508 46.6667 296.373 46.6667ZM296.373 13.3333C301.888 13.3333 306.373 17.8183 306.373 23.3333C306.373 28.8483 301.888 33.3333 296.373 33.3333C290.858 33.3333 286.373 28.8483 286.373 23.3333C286.373 17.8183 290.858 13.3333 296.373 13.3333Z" fill="#2D37D5"/>
<path d="M304.42 308.62L291.863 296.063C295.938 290.063 299.17 282.953 301.543 274.773L307.493 283.698C308.777 285.625 310.892 286.667 313.047 286.667C314.317 286.667 315.598 286.305 316.738 285.547C319.805 283.505 320.632 279.365 318.587 276.302L305.253 256.302C305.252 256.3 305.25 256.3 305.25 256.298C305.267 256.152 305.295 256.017 305.313 255.87C305.645 253.04 306.018 250.05 306.403 247.038L324.265 252.992C324.968 253.227 325.678 253.337 326.375 253.337C329.168 253.337 331.765 251.568 332.697 248.777C333.862 245.283 331.973 241.508 328.485 240.342L308.485 233.675C308.413 233.652 308.342 233.67 308.27 233.648C309.28 227.092 310.53 220.338 311.977 213.588L323.395 219.297C324.352 219.775 325.368 220 326.37 220C328.818 220 331.168 218.652 332.34 216.315C333.987 213.02 332.653 209.017 329.358 207.37L316.025 200.703C315.67 200.525 315.29 200.513 314.923 200.405L318.093 186.668H333.045C336.73 186.668 339.712 183.683 339.712 180.002C339.712 176.32 336.73 173.335 333.045 173.335H321.17L322.837 166.108C324.177 160.302 324.867 154.512 325.027 148.802L337.603 152.993C338.307 153.228 339.017 153.338 339.713 153.338C342.507 153.338 345.103 151.57 346.035 148.778C347.2 145.285 345.312 141.51 341.823 140.343L324.222 134.475C323.042 126.607 320.658 119.072 317.167 112.062L329.363 105.963C332.658 104.317 333.992 100.312 332.345 97.0184C330.692 93.7234 326.7 92.3934 323.4 94.0367L310.067 100.703C310.063 100.705 310.06 100.708 310.057 100.712C306.995 96.54 303.68 92.6267 299.988 89.155L311.095 78.0484C313.698 75.445 313.698 71.225 311.095 68.6217C308.492 66.0184 304.272 66.0184 301.668 68.6217L289.425 80.8651C283.672 76.9967 277.473 73.8784 270.915 71.5617L277.762 64.715C280.365 62.1117 280.365 57.8917 277.762 55.2884C275.158 52.685 270.938 52.685 268.335 55.2884L255.875 67.7484C252.742 67.2667 249.558 67.0017 246.34 66.8767C246.342 66.8034 246.382 66.7417 246.382 66.6684V46.6684C246.382 42.9867 243.4 40.0017 239.715 40.0017C236.03 40.0017 233.048 42.9867 233.048 46.6684V66.6684C233.048 66.895 233.155 67.085 233.177 67.3067C230.267 67.65 227.393 68.1567 224.548 68.8034C224.497 68.7484 224.482 68.6767 224.428 68.6234L204.428 48.6234C201.825 46.02 197.605 46.02 195.002 48.6234C192.398 51.2267 192.398 55.4467 195.002 58.05L210.315 73.3634C203.687 76.2017 197.637 79.9434 192.225 84.3884L170.382 68.0034C167.43 65.79 163.257 66.3951 161.048 69.3351C158.838 72.2817 159.433 76.46 162.38 78.6684L182.618 93.8467C180.853 95.9034 179.177 98.0317 177.628 100.258L138.617 106.76C134.987 107.365 132.533 110.8 133.138 114.433C133.682 117.692 136.505 120.003 139.707 120.003C140.068 120.003 140.438 119.973 140.81 119.912L169.435 115.14C166.972 120.945 165.165 127.05 164.048 133.335H153.045C149.363 133.335 146.378 136.32 146.378 140.002C146.378 143.683 149.363 146.668 153.045 146.668H162.785C162.707 151.32 163.017 156.005 163.732 160.693C163.275 160.895 162.797 161.023 162.378 161.337L135.712 181.337C132.765 183.543 132.17 187.723 134.38 190.67C135.688 192.415 137.69 193.337 139.718 193.337C141.108 193.337 142.512 192.903 143.712 192.002L166.962 174.563L171.107 188.037C171.362 188.867 171.602 189.727 171.853 190.563L156.013 201.122C152.95 203.163 152.123 207.303 154.165 210.367C155.45 212.293 157.563 213.335 159.718 213.335C160.988 213.335 162.273 212.973 163.41 212.215L175.658 204.05C176.387 206.817 177.097 209.638 177.79 212.497L154.998 235.288C152.395 237.892 152.395 242.112 154.998 244.715C156.3 246.017 158.007 246.668 159.712 246.668C161.417 246.668 163.123 246.017 164.425 244.715L181.26 227.882C183.107 236.68 184.842 245.922 186.47 255.833L176.728 260.703C173.433 262.35 172.1 266.355 173.747 269.648C174.915 271.985 177.268 273.333 179.717 273.333C180.717 273.333 181.735 273.108 182.692 272.63L188.683 269.633C189.938 277.058 191.768 283.657 194.197 289.418L188.328 295.287C185.725 297.89 185.725 302.11 188.328 304.713C189.63 306.015 191.337 306.667 193.042 306.667C194.747 306.667 196.453 306.015 197.755 304.713L201.02 301.448C205.95 308.002 212.168 312.795 219.707 315.858V333.335C219.707 337.017 222.688 340.002 226.373 340.002C230.058 340.002 233.04 337.017 233.04 333.335V319.327C236.215 319.755 239.53 320.002 243.04 320.002C245.012 320.002 246.922 319.907 248.805 319.773L253.743 329.65C254.915 331.987 257.265 333.335 259.713 333.335C260.717 333.335 261.732 333.11 262.688 332.632C265.983 330.985 267.317 326.98 265.67 323.687L262.527 317.4C270.415 315.133 277.272 311.352 283.092 306.147L294.993 318.048C296.295 319.35 298.002 320.002 299.707 320.002C301.412 320.002 303.118 319.35 304.42 318.048C307.023 315.443 307.023 311.225 304.42 308.62ZM243.04 306.667C218.255 306.667 205.827 294.362 201.49 265.52C196.672 233.443 191.06 207.573 183.843 184.113L179.13 168.795C168.782 135.158 184.885 98.57 215.793 85.4967C224.42 81.8484 233.587 79.9984 243.04 79.9984C267.507 79.9984 289.792 92.4467 302.662 113.297C311.295 127.293 313.912 145.448 309.837 163.112L299.863 206.343C295.99 223.14 293.75 240.018 292.07 254.315C288.007 289.053 271.51 306.667 243.04 306.667Z" fill="#2D37D5"/>
<path d="M66.3734 100C84.7517 100 99.7067 85.0451 99.7067 66.6667V40.0001C99.7067 21.6217 84.7517 6.66675 66.3734 6.66675C47.995 6.66675 33.04 21.6217 33.04 40.0001V66.6667C33.04 85.0467 47.9934 100 66.3734 100ZM46.3734 40.0001C46.3734 28.9717 55.345 20.0001 66.3734 20.0001C77.4017 20.0001 86.3734 28.9717 86.3734 40.0001V66.6667C86.3734 77.6951 77.4017 86.6667 66.3734 86.6667C55.345 86.6667 46.3734 77.6951 46.3734 66.6667V40.0001Z" fill="#2D37D5"/>
<path d="M141.131 262.397C132.678 259.575 123.638 260.222 115.681 264.207C107.716 268.188 101.781 275.033 98.9664 283.477L90.5314 308.773C87.7164 317.22 88.3564 326.257 92.3414 334.223C96.3231 342.188 103.168 348.123 111.611 350.938C115.075 352.093 118.64 352.667 122.185 352.667C127.288 352.667 132.363 351.478 137.061 349.128C145.026 345.147 150.961 338.302 153.776 329.858L162.211 304.562C165.026 296.115 164.386 287.078 160.401 279.112C156.421 271.147 149.575 265.212 141.131 262.397ZM149.563 300.342L141.128 325.642C139.438 330.707 135.878 334.815 131.098 337.205C126.313 339.598 120.893 339.978 115.831 338.288H115.828C110.763 336.598 106.655 333.038 104.265 328.258C101.875 323.478 101.491 318.06 103.181 312.992L111.616 287.692C113.306 282.627 116.866 278.518 121.646 276.128C124.465 274.718 127.506 274.007 130.57 274.007C132.698 274.007 134.838 274.352 136.918 275.045C141.983 276.735 146.091 280.295 148.481 285.075C150.871 289.855 151.251 295.273 149.563 300.342Z" fill="#2D37D5"/>
<path d="M69.0317 47.055C72.9683 47.055 76.1583 43.8634 76.1583 39.9284C76.1583 35.9934 72.9667 32.8 69.0317 32.8C65.0967 32.8 61.9033 35.9917 61.9033 39.9284C61.9033 43.8651 65.0967 47.055 69.0317 47.055Z" fill="#2D37D5"/>
<path d="M62.3647 73.7216C66.3013 73.7216 69.4913 70.5299 69.4913 66.5949C69.4913 62.6599 66.2997 59.4666 62.3647 59.4666C58.4297 59.4666 55.2363 62.6582 55.2363 66.5949C55.2363 70.5316 58.4297 73.7216 62.3647 73.7216Z" fill="#2D37D5"/>
<path d="M135.698 286.133C131.761 286.133 128.57 289.325 128.57 293.262C128.57 297.198 131.761 300.388 135.698 300.388C139.635 300.388 142.825 297.197 142.825 293.262C142.825 289.327 139.635 286.133 135.698 286.133Z" fill="#2D37D5"/>
<path d="M122.365 306.133C118.428 306.133 115.236 309.325 115.236 313.262C115.236 317.198 118.428 320.388 122.365 320.388C126.301 320.388 129.491 317.197 129.491 313.262C129.491 309.327 126.301 306.133 122.365 306.133Z" fill="#2D37D5"/>
<path d="M361.998 312.428C353.221 311.127 344.406 313.31 337.251 318.61L315.813 334.482C308.665 339.782 304.003 347.548 302.688 356.353C301.38 365.162 303.573 373.952 308.873 381.107C314.173 388.262 321.94 392.927 330.748 394.238C332.408 394.485 334.075 394.61 335.728 394.61C342.818 394.61 349.693 392.353 355.493 388.057L376.931 372.185C384.08 366.885 388.741 359.118 390.056 350.313C391.365 341.505 389.171 332.715 383.871 325.56C378.571 318.405 370.806 313.74 361.998 312.428ZM376.866 348.347C376.078 353.63 373.286 358.292 368.995 361.468L347.563 377.34C343.266 380.523 337.98 381.832 332.706 381.052C327.426 380.263 322.765 377.465 319.588 373.17C316.405 368.877 315.09 363.603 315.876 358.32C316.663 353.037 319.456 348.375 323.748 345.198L345.18 329.327C348.663 326.748 352.79 325.395 357.041 325.395C358.038 325.395 359.033 325.467 360.036 325.617C365.316 326.405 369.978 329.203 373.155 333.498C376.34 337.79 377.655 343.063 376.866 348.347Z" fill="#2D37D5"/>
<path d="M332.326 365.98C336.204 365.298 338.795 361.603 338.114 357.725C337.433 353.847 333.737 351.256 329.859 351.937C325.981 352.618 323.39 356.314 324.071 360.191C324.752 364.069 328.448 366.661 332.326 365.98Z" fill="#2D37D5"/>
<path d="M354.726 357.257C358.604 356.576 361.195 352.88 360.514 349.002C359.833 345.124 356.137 342.533 352.26 343.214C348.382 343.895 345.79 347.591 346.471 351.469C347.153 355.346 350.848 357.938 354.726 357.257Z" fill="#2D37D5"/>
<path d="M91.9948 190.177C88.1248 172.205 70.3348 160.717 52.3882 164.607L26.3198 170.222C8.35483 174.092 -3.11685 191.858 0.749821 209.825C4.11315 225.44 17.9698 236.147 33.3348 236.147C35.6532 236.147 38.0032 235.903 40.3565 235.395L66.4248 229.78C84.3898 225.908 95.8615 208.142 91.9948 190.177ZM63.6182 216.745L37.5498 222.36C26.7748 224.687 16.1082 217.797 13.7832 207.018C11.4615 196.237 18.3465 185.58 29.1248 183.255L55.1932 177.64C56.6065 177.337 58.0148 177.19 59.4048 177.19C68.6232 177.19 76.9398 183.613 78.9582 192.982C81.2815 203.763 74.3965 214.422 63.6182 216.745Z" fill="#2D37D5"/>
<path d="M26.4599 192.658C23.0716 194.662 21.9482 199.032 23.9516 202.422C25.9549 205.812 30.3249 206.933 33.7149 204.93C37.1032 202.927 38.2266 198.557 36.2232 195.167C34.2182 191.778 29.8482 190.655 26.4599 192.658Z" fill="#2D37D5"/>
<path d="M50.4614 193.958C47.073 195.962 45.9497 200.332 47.953 203.722C49.9564 207.11 54.3264 208.233 57.7147 206.23C61.103 204.227 62.2264 199.857 60.223 196.467C58.2197 193.077 53.8497 191.955 50.4614 193.958Z" fill="#2D37D5"/>
<path d="M195.698 119.467C191.762 119.467 188.57 122.658 188.57 126.595C188.57 130.532 191.762 133.722 195.698 133.722C199.635 133.722 202.825 130.53 202.825 126.595C202.825 122.66 199.635 119.467 195.698 119.467Z" fill="#2D37D5"/>
<path d="M242.826 146.595C242.826 142.658 239.635 139.467 235.7 139.467C231.765 139.467 228.571 142.658 228.571 146.595C228.571 150.532 231.763 153.722 235.7 153.722C239.636 153.722 242.826 150.532 242.826 146.595Z" fill="#2D37D5"/>
<path d="M255.698 259.467C251.762 259.467 248.57 262.658 248.57 266.595C248.57 270.532 251.762 273.722 255.698 273.722C259.635 273.722 262.825 270.53 262.825 266.595C262.825 262.66 259.635 259.467 255.698 259.467Z" fill="#2D37D5"/>
<path d="M216.16 186.595C216.16 182.658 212.968 179.467 209.033 179.467C205.098 179.467 201.905 182.658 201.905 186.595C201.905 190.532 205.096 193.722 209.033 193.722C212.97 193.722 216.16 190.532 216.16 186.595Z" fill="#2D37D5"/>
<path d="M242.365 212.8C238.428 212.8 235.236 215.992 235.236 219.928C235.236 223.865 238.428 227.055 242.365 227.055C246.301 227.055 249.491 223.863 249.491 219.928C249.491 215.993 246.301 212.8 242.365 212.8Z" fill="#2D37D5"/>
<path d="M215.698 239.467C211.762 239.467 208.57 242.658 208.57 246.595C208.57 250.532 211.762 253.722 215.698 253.722C219.635 253.722 222.825 250.53 222.825 246.595C222.825 242.66 219.635 239.467 215.698 239.467Z" fill="#2D37D5"/>
<path d="M276.16 126.595C276.16 122.658 272.968 119.467 269.033 119.467C265.098 119.467 261.905 122.658 261.905 126.595C261.905 130.532 265.096 133.722 269.033 133.722C272.97 133.722 276.16 130.532 276.16 126.595Z" fill="#2D37D5"/>
<path d="M275.698 186.133C271.762 186.133 268.57 189.325 268.57 193.262C268.57 197.198 271.762 200.388 275.698 200.388C279.635 200.388 282.825 197.197 282.825 193.262C282.825 189.327 279.635 186.133 275.698 186.133Z" fill="#2D37D5"/>
</svg>
