<svg width="471" height="470" viewBox="0 0 471 470" fill="none" xmlns="http://www.w3.org/2000/svg">
<path d="M377.53 189.806V74.858C388.764 73.61 397.53 64.062 397.53 52.5C397.53 40.093 387.437 30 375.03 30H275.03C262.623 30 252.53 40.093 252.53 52.5C252.53 64.061 261.296 73.61 272.53 74.858V189.808C249.855 198.62 229.678 213.073 213.924 231.841C211.26 235.014 211.674 239.744 214.846 242.407C216.252 243.587 217.963 244.163 219.664 244.163C221.804 244.163 223.929 243.252 225.412 241.485C240.583 223.412 260.318 209.803 282.484 202.129C285.505 201.083 287.53 198.238 287.53 195.042V75H330.03C334.172 75 337.53 71.642 337.53 67.5C337.53 63.358 334.172 60 330.03 60H275.03C270.894 60 267.53 56.636 267.53 52.5C267.53 48.364 270.894 45 275.03 45H375.03C379.166 45 382.53 48.364 382.53 52.5C382.53 56.636 379.166 60 375.03 60H360.03C355.888 60 352.53 63.358 352.53 67.5C352.53 71.642 355.888 75 360.03 75H362.53V195.041C362.53 198.237 364.556 201.083 367.576 202.128C419.885 220.238 455.03 269.616 455.03 324.999C455.03 396.681 396.712 454.999 325.03 454.999C308.131 454.999 291.681 451.797 276.138 445.483C272.302 443.923 267.926 445.771 266.367 449.608C264.808 453.445 266.656 457.82 270.493 459.379C287.838 466.425 306.186 469.998 325.03 469.998C404.983 469.998 470.03 404.951 470.03 324.998C470.03 265.027 433.078 211.367 377.53 189.806Z" fill="#2D37D5"/>
<path d="M380.923 358.875C385.065 358.875 388.423 355.517 388.423 351.375C388.423 347.233 385.065 343.875 380.923 343.875C376.781 343.875 373.423 347.233 373.423 351.375C373.423 355.517 376.781 358.875 380.923 358.875Z" fill="#2D37D5"/>
<path d="M350.923 388.875C355.065 388.875 358.423 385.517 358.423 381.375C358.423 377.233 355.065 373.875 350.923 373.875C346.781 373.875 343.423 377.233 343.423 381.375C343.423 385.517 346.781 388.875 350.923 388.875Z" fill="#2D37D5"/>
<path d="M282.67 415.605C278.921 413.85 274.455 415.465 272.697 419.216C270.94 422.967 272.557 427.432 276.308 429.189C291.624 436.363 308.016 440.001 325.03 440.001C388.441 440.001 440.03 388.412 440.03 325.001C440.03 304.788 434.707 284.903 424.636 267.495C423.108 264.854 420.135 263.399 417.111 263.823L414.381 264.203C414.039 264.25 413.699 264.322 413.367 264.416C402.029 267.634 395.914 272.545 391.001 276.491C385.558 280.863 381.961 283.751 371.585 283.751C362.724 283.751 358.726 280.316 353.192 275.562C347.067 270.3 339.444 263.751 325.025 263.751C310.607 263.751 302.985 270.3 296.86 275.563C291.327 280.317 287.33 283.751 278.471 283.751C268.096 283.751 264.501 280.863 259.058 276.491C254.145 272.545 248.031 267.634 236.695 264.416C236.362 264.321 236.023 264.25 235.68 264.203L232.95 263.823C229.932 263.4 226.966 264.847 225.435 267.478C225.37 267.589 225.307 267.702 225.238 267.83C223.174 271.421 224.412 276.006 228.003 278.07C229.563 278.966 231.309 279.24 232.956 278.968L233.081 278.986C241.171 281.364 245.3 284.68 249.665 288.187C256.131 293.381 262.818 298.752 278.471 298.752C292.889 298.752 300.511 292.203 306.636 286.94C312.169 282.186 316.166 278.752 325.025 278.752C333.886 278.752 337.884 282.187 343.418 286.941C349.543 292.203 357.166 298.752 371.585 298.752C387.239 298.752 393.926 293.381 400.394 288.188C404.247 285.093 407.914 282.148 414.284 279.863C421.329 293.784 425.031 309.277 425.031 325.002C425.031 380.142 380.171 425.002 325.031 425.002C310.232 425 295.98 421.839 282.67 415.605Z" fill="#2D37D5"/>
<path d="M181.03 193.781V44.858C192.264 43.61 201.03 34.062 201.03 22.5C201.03 10.093 190.937 0 178.53 0H78.5302C66.1232 0 56.0302 10.093 56.0302 22.5C56.0302 34.061 64.7962 43.61 76.0302 44.858V165.042C76.0302 169.184 79.3882 172.542 83.5302 172.542C87.6722 172.542 91.0302 169.184 91.0302 165.042V45H133.53C137.672 45 141.03 41.642 141.03 37.5C141.03 33.358 137.672 30 133.53 30H78.5302C74.3942 30 71.0302 26.636 71.0302 22.5C71.0302 18.364 74.3942 15 78.5302 15H178.53C182.666 15 186.03 18.364 186.03 22.5C186.03 26.636 182.666 30 178.53 30H163.53C159.388 30 156.03 33.358 156.03 37.5C156.03 41.642 159.388 45 163.53 45H166.03V195.042C166.03 195.876 166.169 196.705 166.442 197.493L239.331 408.247C243.733 420.975 242.74 432.782 236.536 441.493C230.331 450.203 219.498 455.001 206.031 455.001H51.0312C37.5642 455.001 26.7302 450.204 20.5252 441.493C14.3212 432.782 13.3282 420.975 17.7302 408.248L90.6192 197.495C91.9732 193.58 89.8972 189.309 85.9832 187.955C82.0692 186.602 77.7972 188.677 76.4432 192.591L3.55324 403.344C-2.47876 420.783 -0.789762 437.422 8.30724 450.194C17.4042 462.966 32.5772 470 51.0302 470H206.03C224.483 470 239.656 462.966 248.753 450.194C257.85 437.422 259.539 420.783 253.507 403.344L181.03 193.781Z" fill="#2D37D5"/>
<path d="M64.6523 348.777C62.7423 347.296 60.2333 346.824 57.9183 347.514C55.6013 348.203 53.7573 349.967 52.9673 352.252L31.9053 413.151C29.1333 421.167 29.4303 428.142 32.7423 432.791C36.0543 437.44 42.5483 440.001 51.0303 440.001H206.03C214.511 440.001 221.006 437.44 224.317 432.791C227.63 428.142 227.927 421.166 225.154 413.151L204.091 352.25C203.301 349.965 201.458 348.202 199.141 347.513C196.824 346.823 194.316 347.294 192.407 348.776C188.316 351.949 184.443 354.377 175.084 354.377C166.224 354.377 162.225 350.942 156.691 346.188C150.566 340.926 142.943 334.377 128.524 334.377C114.106 334.377 106.484 340.926 100.359 346.189C94.8263 350.943 90.8293 354.377 81.9693 354.377C72.6133 354.375 68.7413 351.949 64.6523 348.777ZM110.135 357.564C115.668 352.81 119.665 349.376 128.524 349.376C137.385 349.376 141.383 352.811 146.917 357.565C153.042 362.827 160.665 369.376 175.084 369.376C182.924 369.376 188.568 367.972 192.974 365.997L210.978 418.054C212.042 421.131 212.101 423.146 211.996 424.015C211.209 424.398 209.286 425.001 206.03 425.001H51.0303C47.7743 425.001 45.8513 424.398 45.0643 424.015C44.9593 423.146 45.0183 421.131 46.0823 418.054L64.0853 365.999C68.4893 367.974 74.1323 369.377 81.9703 369.377C96.3893 369.375 104.011 362.826 110.135 357.564Z" fill="#2D37D5"/>
</svg>
