<svg width="512" height="512" viewBox="0 0 512 512" fill="none" xmlns="http://www.w3.org/2000/svg">
<path d="M118.051 222.691C101.781 225.469 87.3749 234.828 78.2265 248.566C75.6171 252.492 76.6835 257.789 80.6093 260.398C84.535 263.008 89.8319 261.941 92.4413 258.016C98.9725 248.203 109.262 241.512 120.883 239.523C123.891 239.02 126.398 236.945 127.465 234.09C128.527 231.234 127.988 228.023 126.047 225.672C124.105 223.324 121.058 222.188 118.051 222.691Z" fill="#2D37D5"/>
<path d="M226.125 301.5C205.707 313.262 179.621 306.262 167.832 285.859C165.406 281.926 160.293 280.641 156.293 282.953C152.297 285.27 150.867 290.348 153.07 294.41C169.578 322.973 206.105 332.754 234.679 316.266C238.613 313.84 239.898 308.727 237.582 304.727C235.265 300.731 230.191 299.301 226.129 301.504L226.125 301.5Z" fill="#2D37D5"/>
<path d="M504.008 226.125C503.73 225.645 503.379 225.223 503.086 224.75C502.301 223.473 501.457 222.23 500.574 221.008C500.094 220.348 499.645 219.668 499.137 219.031C497.82 217.344 496.414 215.73 494.926 214.191C494.934 213.91 494.934 213.625 494.934 213.332C494.953 202.418 491.977 191.707 486.324 182.367C486.375 181.309 486.398 180.258 486.398 179.199C486.383 159.336 476.48 140.785 459.988 129.711C459.875 129.629 459.816 129.504 459.699 129.426C459.312 129.168 458.891 129 458.5 128.746C456.727 127.621 454.898 126.59 453.02 125.66C452.602 125.453 452.203 125.207 451.777 125.012C449.547 123.992 447.254 123.113 444.91 122.375C444.23 122.156 443.547 121.953 442.852 121.762C440.527 121.09 438.164 120.562 435.777 120.184C435.637 120.16 435.496 120.121 435.355 120.098C433.422 119.812 431.457 119.625 429.469 119.531C415.559 90.0859 380.617 77.2227 350.934 90.6133C340.422 71.5859 320.406 59.7578 298.668 59.7344C295.809 59.7734 292.953 60.0234 290.133 60.4844V51.1992C304.273 51.1992 315.734 39.7383 315.734 25.6016C315.734 11.4609 304.273 0 290.133 0H221.867C207.727 0 196.266 11.4609 196.266 25.6016C196.266 39.7383 207.727 51.1992 221.867 51.1992V77.5391C219.043 77.0859 216.191 76.8359 213.332 76.8008C192.684 76.8359 173.508 87.5117 162.602 105.047C156.922 103.281 151.012 102.391 145.066 102.398C115.41 102.477 90.2891 124.262 86.0156 153.609C85.793 153.602 85.5586 153.602 85.332 153.602C84.6289 153.602 83.9453 153.68 83.2461 153.707C82.457 153.73 81.6758 153.77 80.8867 153.824C79.5938 153.922 78.3203 154.066 77.0508 154.242C76.4961 154.32 75.9336 154.328 75.3828 154.426C75.2656 154.445 75.1797 154.523 75.0625 154.547C46.5039 159.555 25.6524 184.336 25.6016 213.332C25.5899 219.277 26.4844 225.191 28.2461 230.867C7.21876 243.902 -3.58593 268.555 1.07032 292.852C5.73048 317.145 24.8906 336.051 49.2461 340.383C49.5469 340.438 49.8438 340.473 50.1445 340.523C51.1367 340.68 52.1172 340.875 53.1289 340.984C63.7461 356.395 80.9453 365.965 99.6367 366.867C111.043 391.133 137.27 404.77 163.684 400.176C164.48 401.371 165.395 402.453 166.27 403.578C166.633 404.047 166.965 404.543 167.344 404.996C168.34 406.207 169.406 407.336 170.488 408.453C170.828 408.809 171.168 409.168 171.52 409.516C172.668 410.645 173.852 411.727 175.086 412.758C175.363 412.992 175.652 413.211 175.934 413.441C179.793 416.547 184.023 419.156 188.531 421.207C189.191 421.508 189.832 421.832 190.504 422.109C191.59 422.559 192.699 422.941 193.813 423.324C194.871 423.691 195.938 424.035 197.023 424.348C197.992 424.621 198.965 424.879 199.953 425.102C201.324 425.422 202.719 425.664 204.125 425.887C204.914 426.004 205.699 426.156 206.496 426.246C208.766 426.516 211.047 426.656 213.332 426.668C216.5 426.652 219.656 426.391 222.781 425.883C222.945 425.855 223.117 425.867 223.281 425.84C223.434 425.816 223.547 425.719 223.699 425.684C232.301 424.191 240.465 420.816 247.605 415.797C248.43 416.57 249.191 417.332 250.035 418.117C272.164 435.754 286.18 461.625 288.867 489.797C290.496 502.547 301.383 512.074 314.234 512H350.926C362.055 512.008 371.914 504.828 375.328 494.234V494.227C378.188 485.484 380.047 476.449 380.867 467.289C390.383 468.645 399.984 469.324 409.602 469.332C429.609 468.934 447.859 457.824 457.406 440.234C469.156 419.441 468.352 392.824 455.52 365.754C471.934 362.484 486.219 352.465 494.875 338.141C503.531 323.816 505.766 306.512 501.031 290.461C514.43 271.59 515.648 246.66 504.16 226.574C504.086 226.426 504.09 226.266 504.008 226.125ZM213.332 25.6016C213.336 20.8867 217.156 17.0703 221.867 17.0664H290.133C294.848 17.0664 298.668 20.8867 298.668 25.6016C298.668 30.3125 294.848 34.1328 290.133 34.1328H221.867C217.156 34.1289 213.336 30.3125 213.332 25.6016ZM273.066 51.1992V92.8008C273.066 100.648 275.23 108.344 279.316 115.043L307.84 162.047C305.91 162.215 303.984 161.73 302.367 160.668L295.898 156.359C287.242 150.574 275.957 150.574 267.301 156.359L260.824 160.668C257.906 162.633 254.086 162.633 251.168 160.668L244.699 156.359C236.043 150.574 224.758 150.574 216.102 156.359L209.625 160.668C207.961 161.762 205.965 162.238 203.988 162.016L232.684 115.035C236.773 108.34 238.934 100.645 238.934 92.8008V51.1992H273.066ZM194.742 177.156C202.727 180.562 211.891 179.699 219.102 174.867L225.566 170.559C228.492 168.609 232.305 168.609 235.234 170.559L241.691 174.867C250.344 180.668 261.645 180.668 270.301 174.867L276.766 170.559C279.695 168.609 283.508 168.609 286.434 170.559L292.891 174.867C300.039 179.652 309.109 180.535 317.047 177.223L349.207 230.219L162.059 230.668L194.742 177.156ZM364.031 464.102C363.402 472.559 361.746 480.906 359.094 488.961C357.953 492.512 354.656 494.926 350.926 494.934H314.23C310.016 495.012 306.402 491.934 305.816 487.758C302.734 455.578 286.836 425.992 261.699 405.668L260.055 404.125C260.496 403.574 260.855 402.961 261.277 402.395C262.152 401.211 263.039 400.043 263.824 398.789C264.828 397.199 265.703 395.539 266.555 393.859C266.832 393.309 267.188 392.809 267.449 392.238C269.613 393.555 271.855 394.734 274.168 395.766C274.914 396.105 275.688 396.367 276.449 396.672C278.039 397.312 279.645 397.91 281.289 398.41C282.199 398.691 283.117 398.926 284.039 399.156C285.613 399.555 287.199 399.887 288.801 400.156C289.738 400.312 290.68 400.465 291.629 400.578C292.18 400.645 292.715 400.773 293.266 400.824C293.48 401.676 293.832 402.438 294.07 403.277C294.68 405.43 295.371 407.492 296.117 409.512C296.699 411.09 297.293 412.656 297.961 414.176C298.941 416.398 300.02 418.504 301.152 420.555C301.816 421.75 302.457 422.949 303.18 424.102C304.57 426.293 306.07 428.414 307.68 430.453C308.367 431.34 309.012 432.258 309.742 433.117C311.688 435.379 313.762 437.527 315.953 439.551C316.512 440.074 317.004 440.645 317.578 441.156C320.363 443.609 323.301 445.879 326.375 447.953C327.387 448.637 328.508 449.238 329.559 449.895C331.707 451.223 333.867 452.508 336.094 453.664C337.605 454.453 339.18 455.188 340.762 455.922C342.84 456.875 344.93 457.762 347.039 458.582C348.648 459.215 350.223 459.867 351.895 460.445C355.402 461.656 358.922 462.703 362.426 463.613C362.98 463.762 363.469 463.957 364.031 464.102ZM442.547 431.832C436.031 444.066 423.453 451.863 409.602 452.266C398.023 452.316 386.473 451.289 375.086 449.191C374.863 449.125 374.68 448.988 374.449 448.941C358.125 446.277 342.754 439.461 329.824 429.141C329.492 428.855 329.148 428.59 328.824 428.297C326.316 426.07 323.996 423.648 321.875 421.051C321.602 420.707 321.363 420.32 321.098 419.969C319.43 417.805 317.91 415.527 316.551 413.152C316.035 412.27 315.562 411.355 315.09 410.434C314.023 408.328 313.074 406.168 312.25 403.957C311.891 403.004 311.496 402.082 311.172 401.086C311.039 400.68 310.977 400.23 310.852 399.816C311.66 399.645 312.438 399.398 313.23 399.199C313.574 399.113 313.914 399.027 314.258 398.934C328.824 395.02 341.352 385.699 349.289 372.871C349.469 372.996 349.672 373.086 349.855 373.211C352.059 374.75 354.363 376.137 356.754 377.363C356.902 377.441 357.039 377.547 357.188 377.621C357.426 377.746 357.688 377.812 357.93 377.93C360.43 379.164 363.012 380.223 365.66 381.094L365.723 381.121L365.754 381.129C368.441 381.977 371.191 382.633 373.973 383.09C374.223 383.133 374.461 383.227 374.715 383.27C375 383.312 375.297 383.297 375.582 383.336C378.371 383.758 381.184 383.977 384 384C385.984 384 387.945 383.887 389.883 383.699C390.012 383.684 390.145 383.691 390.277 383.676C390.797 383.625 391.301 383.508 391.82 383.438C393.102 383.266 394.371 383.09 395.629 382.84C396.375 382.695 397.105 382.512 397.848 382.34C399 382.066 400.148 381.773 401.277 381.434C401.988 381.219 402.695 380.992 403.398 380.75C404.594 380.348 405.758 379.898 406.914 379.422C407.492 379.18 408.074 378.949 408.645 378.691C410.145 378.016 411.605 377.277 413.039 376.484C413.227 376.379 413.422 376.289 413.609 376.184C418.945 373.141 423.777 369.289 427.934 364.766C428.203 364.84 428.484 364.855 428.758 364.93C431.234 365.594 433.746 366.09 436.289 366.422C436.441 366.441 436.59 366.492 436.746 366.512C450.234 390.809 452.383 414.434 442.551 431.832H442.547ZM483.523 291.832C485.395 296.742 486.367 301.945 486.398 307.199C486.371 330.754 467.285 349.84 443.734 349.867C441.898 349.816 440.066 349.648 438.254 349.355C440.469 344.535 442.031 339.441 442.906 334.211C443.688 329.562 440.547 325.164 435.898 324.387C431.25 323.609 426.852 326.746 426.074 331.395C424.887 338.379 421.969 344.953 417.582 350.516C416.965 351.301 416.328 352.059 415.668 352.793C414.828 353.73 413.93 354.602 413.012 355.457C412.191 356.227 411.363 356.969 410.492 357.664C409.203 358.688 407.859 359.641 406.461 360.512C405.836 360.898 405.195 361.258 404.551 361.617C402.93 362.516 401.25 363.309 399.523 363.992C399.27 364.09 399.02 364.227 398.762 364.32C396.699 365.055 394.582 365.633 392.434 366.047C391.902 366.152 391.367 366.242 390.832 366.328C388.574 366.711 386.289 366.914 384 366.934C381.07 366.934 378.152 366.629 375.285 366.023L375.129 365.977C372.387 365.391 369.707 364.535 367.133 363.426C366.461 363.137 365.871 362.707 365.219 362.387C363.344 361.504 361.535 360.488 359.809 359.344C358.824 358.66 357.969 357.824 357.047 357.066C355.773 356.078 354.562 355.023 353.414 353.898C347.566 347.875 343.637 340.254 342.113 331.996C371.113 327.402 392.48 302.426 392.535 273.066C392.535 268.355 388.711 264.535 384 264.535C379.285 264.535 375.465 268.355 375.465 273.066C375.465 290.754 364.547 306.609 348.023 312.922C331.5 319.23 312.793 314.691 301 301.508C297.844 298.051 292.492 297.777 289.004 300.902C285.516 304.023 285.195 309.375 288.285 312.891C297.793 323.473 310.758 330.32 324.859 332.203C326.234 342.477 330.273 352.207 336.574 360.434C331.461 370.621 322.496 378.352 311.668 381.918C311.211 382.062 310.73 382.148 310.266 382.281C308.758 382.73 307.23 383.094 305.684 383.371C304.746 383.527 303.773 383.582 302.816 383.676C301.441 383.852 300.055 383.961 298.668 384C287.66 383.996 277.078 379.734 269.141 372.109C266.922 369.988 263.734 369.227 260.793 370.113C257.855 370.996 255.617 373.391 254.934 376.383C254.41 378.625 253.707 380.82 252.836 382.949C252.477 383.832 252.016 384.664 251.598 385.523C251.047 386.664 250.496 387.805 249.852 388.883C249.211 389.961 248.48 390.957 247.75 391.965C247.211 392.707 246.676 393.453 246.094 394.156C245.18 395.254 244.195 396.297 243.164 397.305C233.359 407.188 219.258 411.508 205.598 408.816C205.012 408.711 204.43 408.586 203.852 408.453C198.809 407.32 194.016 405.273 189.707 402.418C189.535 402.305 189.379 402.184 189.215 402.07C187.098 400.621 185.117 398.984 183.289 397.18L183.133 397.035C181.262 395.152 179.57 393.102 178.074 390.906C177.941 390.711 177.836 390.496 177.707 390.297C170.367 379.184 168.656 365.273 173.09 352.719C174.566 348.305 172.234 343.523 167.848 341.969C163.465 340.414 158.641 342.66 157.008 347.016C152.809 358.875 152.48 371.762 156.07 383.82C155.25 383.871 154.414 384 153.602 384C135.48 383.965 119.348 372.508 113.352 355.41C112.066 351.715 108.434 349.375 104.543 349.734C103.852 349.793 103.16 349.867 102.398 349.867C92.168 349.824 82.2891 346.113 74.5625 339.402C90.1055 335.41 103.402 325.352 111.465 311.477C113.672 307.414 112.242 302.336 108.242 300.02C104.246 297.707 99.1289 298.992 96.7031 302.926C89.0547 316.109 74.9766 324.238 59.7344 324.266C58.4688 324.266 57.2344 324.059 55.9844 323.949C54.4063 323.832 52.8359 323.629 51.2774 323.34C50 323.086 48.7422 322.73 47.4883 322.355C29.4063 317.059 17.0039 300.445 17.0664 281.602C17.1055 264.754 27.0195 249.5 42.3984 242.625C44.4883 241.691 46.1094 239.957 46.9102 237.812C47.707 235.672 47.6094 233.297 46.6406 231.227C44.0117 225.629 42.6563 219.516 42.668 213.332C42.7109 190.105 61.3242 171.176 84.5469 170.746C85.1602 170.738 85.7774 170.738 86.3906 170.754C87.8125 170.793 89.3281 170.938 90.8789 171.129C99.3789 172.234 107.352 175.859 113.773 181.531C117.293 184.625 122.641 184.305 125.766 180.816C128.887 177.328 128.617 171.973 125.16 168.816C118.746 163.129 111.18 158.891 102.98 156.391C105.813 135.297 123.781 119.531 145.066 119.465C151.246 119.461 157.355 120.816 162.949 123.441C165.02 124.422 167.398 124.52 169.543 123.715C171.688 122.914 173.422 121.289 174.359 119.199C182.539 101.023 202.176 90.8828 221.734 94.7344C221.723 94.8906 221.715 95.0469 221.703 95.2031C221.543 96.9453 221.203 98.6641 220.691 100.34C220.609 100.609 220.5 100.871 220.406 101.141C219.828 102.887 219.059 104.562 218.117 106.141L184.57 161.066L179.703 169.027L147.449 221.832C146.684 223.109 146.09 224.484 145.684 225.914C145.02 228.371 144.938 230.945 145.453 233.438C145.52 233.789 145.492 234.152 145.582 234.5C145.695 234.941 145.953 235.352 146.105 235.793C146.398 236.766 146.785 237.711 147.25 238.613C148.02 239.969 148.969 241.207 150.07 242.305L150.188 242.395C153.531 245.652 158.016 247.473 162.684 247.465H349.316C353.984 247.473 358.469 245.652 361.812 242.395L361.93 242.305C363.035 241.211 363.984 239.969 364.75 238.617C365.156 237.812 365.492 236.977 365.762 236.117C366.008 235.59 366.227 235.051 366.418 234.496C366.438 234.43 366.43 234.359 366.445 234.289C367.488 230.055 366.809 225.578 364.551 221.844L364.512 221.77L327.434 161.066L327.422 161.055L293.887 106.156C291.434 102.133 290.137 97.5117 290.133 92.8008V77.707C311.027 73.457 331.852 85.2773 338.918 105.391C339.789 107.887 341.77 109.836 344.281 110.668C346.789 111.5 349.543 111.121 351.734 109.641C361.16 103.293 372.738 100.988 383.875 103.246C395.012 105.504 404.781 112.133 410.988 121.652C399.867 124.656 389.852 130.812 382.145 139.375C379.055 142.891 379.375 148.242 382.863 151.367C386.352 154.488 391.707 154.219 394.859 150.758C404.703 139.566 419.746 134.449 434.371 137.312C435.078 137.441 435.773 137.617 436.469 137.781C438.379 138.23 440.25 138.812 442.074 139.523C442.648 139.746 443.23 139.938 443.793 140.184C459.285 146.977 469.301 162.281 469.332 179.199C469.332 180.715 469.266 182.234 469.117 183.742C468.922 185.723 469.426 187.711 470.543 189.359C473.016 193.031 474.902 197.07 476.125 201.328C468.609 198.012 460.484 196.289 452.266 196.266C447.555 196.266 443.734 200.086 443.734 204.801C443.734 209.512 447.555 213.332 452.266 213.332C463.281 213.363 473.863 217.641 481.801 225.281C482.145 225.613 482.492 225.945 482.824 226.293C483.688 227.176 484.496 228.117 485.289 229.082C485.629 229.508 486 229.918 486.328 230.352C498.289 246.18 497.727 268.176 484.973 283.371C483 285.727 482.445 288.957 483.523 291.832Z" fill="#2D37D5"/>
<path d="M366.031 13.2501C363.922 9.03916 358.801 7.33213 354.582 9.4337L337.515 17.9689C333.301 20.0743 331.594 25.2032 333.699 29.4181C335.808 33.6329 340.933 35.3399 345.148 33.2345L362.219 24.6993C364.242 23.6876 365.781 21.9142 366.496 19.7657C367.211 17.6173 367.047 15.2735 366.031 13.2501Z" fill="#2D37D5"/>
<path d="M358.398 59.7344H366.934C371.645 59.7344 375.465 55.9141 375.465 51.1992C375.465 46.4883 371.645 42.668 366.934 42.668H358.398C353.687 42.668 349.867 46.4883 349.867 51.1992C349.867 55.9141 353.687 59.7344 358.398 59.7344Z" fill="#2D37D5"/>
<path d="M170.656 34.1329C174.617 34.1368 178.062 31.418 178.973 27.5665C179.883 23.711 178.027 19.7384 174.484 17.9688L157.418 9.43367C153.203 7.3243 148.074 9.03524 145.969 13.2501C143.859 17.4649 145.566 22.5899 149.781 24.6993L166.851 33.2345C168.031 33.8243 169.336 34.1329 170.656 34.1329Z" fill="#2D37D5"/>
<path d="M145.066 42.668C140.355 42.668 136.535 46.4883 136.535 51.1992C136.535 55.9141 140.355 59.7344 145.066 59.7344H153.602C158.312 59.7344 162.133 55.9141 162.133 51.1992C162.133 46.4883 158.312 42.668 153.602 42.668H145.066Z" fill="#2D37D5"/>
<path d="M393.949 222.691C389.301 221.91 384.898 225.043 384.117 229.691C383.336 234.34 386.469 238.742 391.117 239.524C402.738 241.512 413.023 248.203 419.558 258.016C421.246 260.555 424.16 262.004 427.203 261.809C430.246 261.617 432.957 259.816 434.312 257.086C435.668 254.352 435.461 251.106 433.773 248.566C424.625 234.828 410.219 225.469 393.949 222.691Z" fill="#2D37D5"/>
</svg>
