<svg width="400" height="400" viewBox="0 0 400 400" fill="none" xmlns="http://www.w3.org/2000/svg">
<path d="M157.82 290.984C156.309 290.984 154.787 290.395 153.545 289.197L110.812 247.954C109.338 246.53 108.491 244.45 108.491 242.253C108.491 240.06 109.342 237.98 110.812 236.556L153.545 195.314C156.32 192.632 160.488 193.012 162.854 196.157C165.216 199.307 164.884 204.031 162.106 206.708L125.28 242.253L162.106 277.798C164.884 280.479 165.216 285.204 162.854 288.349C161.546 290.09 159.688 290.984 157.82 290.984Z" fill="#2D37D5"/>
<path d="M242.18 290.984C240.312 290.984 238.455 290.09 237.15 288.349C234.784 285.204 235.12 280.479 237.894 277.798L274.72 242.253L237.894 206.708C235.12 204.031 234.784 199.307 237.15 196.157C239.512 193.012 243.684 192.632 246.455 195.314L289.188 236.556C290.662 237.98 291.51 240.06 291.51 242.253C291.51 244.45 290.662 246.53 289.188 247.954L246.455 289.197C245.213 290.395 243.691 290.984 242.18 290.984Z" fill="#2D37D5"/>
<path d="M184.873 321.918C184.419 321.918 183.962 321.864 183.502 321.755C179.934 320.903 177.65 316.931 178.401 312.888L205.034 169.568C205.786 165.525 209.287 162.935 212.857 163.787C216.425 164.639 218.709 168.607 217.958 172.654L191.325 315.975C190.669 319.5 187.927 321.918 184.873 321.918Z" fill="#2D37D5"/>
<path d="M355.66 400H44.3396C19.8924 400 0 377.458 0 349.744V50.2558C0 22.5466 19.8924 0 44.3396 0H355.66C380.108 0 400 22.5466 400 50.2558V349.744C400 377.458 380.108 400 355.66 400ZM44.3396 14.9698C27.1742 14.9698 13.2075 30.8001 13.2075 50.2558V349.744C13.2075 369.2 27.1742 385.03 44.3396 385.03H355.66C372.826 385.03 386.792 369.2 386.792 349.744V50.2558C386.792 30.8001 372.826 14.9698 355.66 14.9698H44.3396Z" fill="#2D37D5"/>
<path d="M393.396 119.855H6.60377C2.95548 119.855 0 116.505 0 112.37C0 108.239 2.95548 104.885 6.60377 104.885H393.396C397.045 104.885 400 108.239 400 112.37C400 116.505 397.045 119.855 393.396 119.855Z" fill="#2D37D5"/>
<path d="M112.832 84.0381C101.312 84.0381 91.9331 73.408 91.9331 60.3512C91.9331 47.2902 101.312 36.6643 112.832 36.6643C124.355 36.6643 133.73 47.2902 133.73 60.3512C133.73 73.408 124.355 84.0381 112.832 84.0381ZM112.832 51.6341C108.594 51.6341 105.141 55.5437 105.141 60.3512C105.141 65.1588 108.594 69.0683 112.832 69.0683C117.073 69.0683 120.522 65.1588 120.522 60.3512C120.522 55.5437 117.073 51.6341 112.832 51.6341Z" fill="#2D37D5"/>
<path d="M48.6216 83.8084C37.0981 83.8084 27.7231 73.1825 27.7231 60.1215C27.7231 47.0605 37.0981 36.4346 48.6216 36.4346C60.145 36.4346 69.52 47.0605 69.52 60.1215C69.52 73.1825 60.145 83.8084 48.6216 83.8084ZM48.6216 51.4044C44.3837 51.4044 40.9307 55.3181 40.9307 60.1215C40.9307 64.929 44.3837 68.8386 48.6216 68.8386C52.8632 68.8386 56.3125 64.929 56.3125 60.1215C56.3125 55.3181 52.8632 51.4044 48.6216 51.4044Z" fill="#2D37D5"/>
<path d="M177.042 84.2637C165.522 84.2637 156.147 73.6378 156.147 60.5768C156.147 47.5199 165.522 36.894 177.042 36.894C188.565 36.894 197.94 47.5199 197.94 60.5768C197.94 73.6378 188.565 84.2637 177.042 84.2637ZM177.042 51.8597C172.804 51.8597 169.355 55.7692 169.355 60.5768C169.355 65.3843 172.804 69.2938 177.042 69.2938C181.283 69.2938 184.733 65.3843 184.733 60.5768C184.733 55.7692 181.283 51.8597 177.042 51.8597Z" fill="#2D37D5"/>
</svg>
