<svg width="400" height="500" viewBox="0 0 400 500" fill="none" xmlns="http://www.w3.org/2000/svg">
<path d="M325 208.333H116.667C112.067 208.333 108.333 212.058 108.333 216.667C108.333 221.275 112.067 225 116.667 225H325C329.6 225 333.333 221.275 333.333 216.667C333.333 212.058 329.6 208.333 325 208.333Z" fill="#2D37D5"/>
<path d="M116.667 158.333H200C204.6 158.333 208.333 154.608 208.333 150C208.333 145.392 204.6 141.667 200 141.667H116.667C112.067 141.667 108.333 145.392 108.333 150C108.333 154.608 112.067 158.333 116.667 158.333Z" fill="#2D37D5"/>
<path d="M325 275H116.667C112.067 275 108.333 278.725 108.333 283.333C108.333 287.942 112.067 291.667 116.667 291.667H325C329.6 291.667 333.333 287.942 333.333 283.333C333.333 278.725 329.6 275 325 275Z" fill="#2D37D5"/>
<path d="M325 341.667H116.667C112.067 341.667 108.333 345.392 108.333 350C108.333 354.608 112.067 358.333 116.667 358.333H325C329.6 358.333 333.333 354.608 333.333 350C333.333 345.392 329.6 341.667 325 341.667Z" fill="#2D37D5"/>
<path d="M325 408.333H116.667C112.067 408.333 108.333 412.058 108.333 416.667C108.333 421.275 112.067 425 116.667 425H325C329.6 425 333.333 421.275 333.333 416.667C333.333 412.058 329.6 408.333 325 408.333Z" fill="#2D37D5"/>
<path d="M358.333 121.55V0H0V458.333H41.6667V500H400V163.217L358.333 121.55ZM283.333 70.1167L358.333 145.117L371.55 158.333H283.333V70.1167ZM16.6667 441.667V16.6667H341.667V104.883L278.45 41.6667H41.6667V441.667H16.6667ZM58.3333 483.333V458.333V58.3333H266.667V175H383.333V483.333H58.3333Z" fill="#2D37D5"/>
</svg>
