<svg width="513" height="492" viewBox="0 0 513 492" fill="none" xmlns="http://www.w3.org/2000/svg">
<path d="M502.002 0H10C4.477 0 0 4.478 0 10V112.859C0 118.381 4.477 122.859 10 122.859H502.002C507.525 122.859 512.002 118.381 512.002 112.859V10C512.002 4.478 507.525 0 502.002 0ZM492.002 102.859H20V20H492.002V102.859Z" fill="#2D37D5"/>
<path d="M469.41 80.1448L461.243 71.9778C463.472 67.5698 464.659 62.6718 464.659 57.5898C464.659 49.0568 461.336 41.0329 455.302 34.9989C442.846 22.5439 422.579 22.5429 410.122 34.9989C404.088 41.0329 400.765 49.0568 400.765 57.5898C400.765 66.1228 404.089 74.1469 410.122 80.1799C416.157 86.2139 424.18 89.5369 432.713 89.5369C437.796 89.5369 442.693 88.3489 447.101 86.1209L455.268 94.2878C457.221 96.2399 459.78 97.2169 462.339 97.2169C464.898 97.2169 467.458 96.2399 469.41 94.2878C473.315 90.3829 473.315 84.0508 469.41 80.1448ZM441.161 66.0369C438.905 68.2939 435.905 69.5369 432.713 69.5369C429.521 69.5369 426.522 68.2939 424.265 66.0369C422.009 63.7799 420.765 60.7808 420.765 57.5898C420.765 54.3988 422.009 51.3979 424.265 49.1418C426.594 46.8128 429.654 45.6488 432.713 45.6488C435.772 45.6488 438.832 46.8128 441.161 49.1418C443.417 51.3988 444.661 54.3988 444.661 57.5898C444.661 60.7808 443.418 63.7809 441.161 66.0369Z" fill="#2D37D5"/>
<path d="M358.341 77.5821C358.211 76.9411 358.021 76.3111 357.771 75.7121C357.521 75.1111 357.211 74.5221 356.851 73.9821C356.491 73.4421 356.071 72.9221 355.611 72.4621C355.151 72.0021 354.641 71.5821 354.091 71.2221C353.551 70.8621 352.971 70.5521 352.361 70.3021C351.761 70.0521 351.131 69.8621 350.491 69.7321C349.201 69.4721 347.871 69.4721 346.581 69.7321C345.941 69.8621 345.311 70.0521 344.711 70.3021C344.111 70.5521 343.531 70.8621 342.991 71.2221C342.441 71.5821 341.931 72.0021 341.461 72.4621C341.001 72.9221 340.591 73.4411 340.221 73.9821C339.861 74.5221 339.551 75.1121 339.301 75.7121C339.051 76.3121 338.861 76.9411 338.731 77.5821C338.601 78.2311 338.541 78.8821 338.541 79.5421C338.541 80.1911 338.601 80.8421 338.731 81.4921C338.861 82.1321 339.051 82.7621 339.301 83.3611C339.551 83.9621 339.861 84.5421 340.221 85.0911C340.591 85.6311 341.001 86.1511 341.461 86.6111C341.931 87.0711 342.441 87.4921 342.991 87.8511C343.531 88.2111 344.111 88.5211 344.711 88.7711C345.321 89.0211 345.951 89.2111 346.581 89.3411C347.231 89.4711 347.891 89.5311 348.541 89.5311C349.191 89.5311 349.851 89.4701 350.491 89.3411C351.131 89.2121 351.761 89.0211 352.361 88.7711C352.961 88.5211 353.551 88.2111 354.091 87.8511C354.641 87.4921 355.151 87.0711 355.611 86.6111C357.471 84.7421 358.541 82.1721 358.541 79.5421C358.541 78.8821 358.471 78.2311 358.341 77.5821Z" fill="#2D37D5"/>
<path d="M310.627 69.5371H102.794C97.2709 69.5371 92.7939 74.0151 92.7939 79.5371C92.7939 85.0591 97.2709 89.5371 102.794 89.5371H310.627C316.15 89.5371 320.627 85.0591 320.627 79.5371C320.627 74.0151 316.15 69.5371 310.627 69.5371Z" fill="#2D37D5"/>
<path d="M314.821 137.115H11.1812C5.65815 137.115 1.18115 141.593 1.18115 147.115V344.314C1.18115 349.837 5.65815 354.314 11.1812 354.314H314.821C320.344 354.314 324.821 349.836 324.821 344.314V147.115C324.821 141.593 320.344 137.115 314.821 137.115ZM121.806 334.313H36.9252L94.0901 268.127L135.49 316.067L121.806 334.313ZM146.806 334.313L165.452 309.452H213.941C219.464 309.452 223.941 304.974 223.941 299.452C223.941 293.93 219.464 289.452 213.941 289.452H180.453L187.469 280.098H250.258L290.923 334.313H146.806ZM202.468 260.098L218.863 238.239L235.258 260.098H202.468ZM304.821 319.511L226.863 215.571C224.974 213.053 222.01 211.571 218.863 211.571C215.716 211.571 212.752 213.053 210.863 215.571L147.773 299.69L101.659 246.29C99.7601 244.091 96.9972 242.826 94.0912 242.826C91.1852 242.826 88.4232 244.091 86.5232 246.29L21.1812 321.943V157.115H304.821V319.511Z" fill="#2D37D5"/>
<path d="M137.648 168.597C118.154 168.597 102.295 184.456 102.295 203.95C102.295 223.444 118.155 239.303 137.648 239.303C157.142 239.303 173.001 223.444 173.001 203.95C173.001 184.456 157.142 168.597 137.648 168.597ZM137.648 219.304C129.182 219.304 122.295 212.417 122.295 203.951C122.295 195.485 129.183 188.598 137.648 188.598C146.113 188.598 153.001 195.485 153.001 203.951C153.001 212.417 146.114 219.304 137.648 219.304Z" fill="#2D37D5"/>
<path d="M502.002 137.115H348.312C342.789 137.115 338.312 141.593 338.312 147.115V344.314C338.312 349.836 342.789 354.314 348.312 354.314H502.002C507.525 354.314 512.002 349.836 512.002 344.314V147.115C512.002 141.593 507.525 137.115 502.002 137.115ZM492.002 334.314H358.312V157.115H492.002V334.314Z" fill="#2D37D5"/>
<path d="M468.719 173.586H381.595C376.072 173.586 371.595 178.064 371.595 183.586C371.595 189.108 376.072 193.586 381.595 193.586H468.719C474.242 193.586 478.719 189.108 478.719 183.586C478.719 178.064 474.242 173.586 468.719 173.586Z" fill="#2D37D5"/>
<path d="M468.719 213.72H381.595C376.072 213.72 371.595 218.198 371.595 223.72C371.595 229.242 376.072 233.72 381.595 233.72H468.719C474.242 233.72 478.719 229.242 478.719 223.72C478.719 218.198 474.242 213.72 468.719 213.72Z" fill="#2D37D5"/>
<path d="M468.719 253.854H381.595C376.072 253.854 371.595 258.332 371.595 263.854C371.595 269.376 376.072 273.854 381.595 273.854H468.719C474.242 273.854 478.719 269.376 478.719 263.854C478.719 258.332 474.242 253.854 468.719 253.854Z" fill="#2D37D5"/>
<path d="M391.401 302.032C391.271 301.391 391.081 300.761 390.831 300.162C390.581 299.561 390.271 298.981 389.911 298.432C389.541 297.892 389.131 297.372 388.661 296.912C386.341 294.592 382.891 293.521 379.641 294.182C379.001 294.312 378.371 294.502 377.771 294.752C377.171 295.002 376.591 295.312 376.041 295.672C375.501 296.032 374.981 296.452 374.521 296.912C374.061 297.372 373.641 297.891 373.281 298.432C372.921 298.982 372.611 299.562 372.361 300.162C372.111 300.762 371.921 301.391 371.791 302.032C371.661 302.681 371.591 303.332 371.591 303.981C371.591 304.641 371.661 305.292 371.791 305.941C371.921 306.582 372.111 307.212 372.361 307.812C372.611 308.413 372.921 308.993 373.281 309.542C373.641 310.082 374.061 310.602 374.521 311.062C374.981 311.522 375.501 311.942 376.041 312.302C376.591 312.662 377.171 312.972 377.771 313.222C378.371 313.472 379.001 313.662 379.641 313.792C380.291 313.922 380.941 313.992 381.601 313.992C384.231 313.992 386.801 312.922 388.661 311.061C389.121 310.601 389.541 310.082 389.911 309.541C390.271 308.991 390.581 308.411 390.831 307.811C391.081 307.211 391.271 306.582 391.401 305.941C391.531 305.292 391.591 304.641 391.591 303.981C391.591 303.332 391.531 302.681 391.401 302.032Z" fill="#2D37D5"/>
<path d="M468.719 293.987H419.505C413.982 293.987 409.505 298.465 409.505 303.987C409.505 309.509 413.982 313.987 419.505 313.987H468.719C474.242 313.987 478.719 309.509 478.719 303.987C478.719 298.465 474.242 293.987 468.719 293.987Z" fill="#2D37D5"/>
<path d="M164.871 368.502H11.1812C5.65815 368.502 1.18115 372.98 1.18115 378.502V481.504C1.18115 487.026 5.65815 491.504 11.1812 491.504H164.871C170.394 491.504 174.871 487.026 174.871 481.504V378.502C174.871 372.98 170.394 368.502 164.871 368.502ZM154.871 471.504H21.1812V388.502H154.871V471.504Z" fill="#2D37D5"/>
<path d="M502.002 368.502H199.728C194.205 368.502 189.728 372.98 189.728 378.502V481.504C189.728 487.026 194.205 491.504 199.728 491.504H502.002C507.525 491.504 512.002 487.026 512.002 481.504V378.502C512.002 372.98 507.525 368.502 502.002 368.502ZM492.002 471.504H209.728V388.502H492.002V471.504Z" fill="#2D37D5"/>
<path d="M255.281 428.053C255.151 427.414 254.961 426.783 254.711 426.183C254.461 425.573 254.151 424.994 253.791 424.454C253.431 423.903 253.011 423.393 252.551 422.933C252.091 422.473 251.581 422.053 251.031 421.693C250.491 421.334 249.911 421.023 249.301 420.773C248.701 420.523 248.071 420.323 247.431 420.193C246.141 419.943 244.811 419.943 243.521 420.193C242.891 420.323 242.261 420.523 241.651 420.773C241.051 421.023 240.471 421.334 239.931 421.693C239.381 422.053 238.871 422.473 238.411 422.933C237.951 423.393 237.531 423.903 237.161 424.454C236.801 424.994 236.491 425.573 236.241 426.183C235.991 426.784 235.801 427.413 235.671 428.053C235.541 428.693 235.481 429.353 235.481 430.003C235.481 430.652 235.541 431.313 235.671 431.953C235.801 432.592 235.991 433.222 236.241 433.832C236.491 434.432 236.801 435.012 237.161 435.552C237.531 436.102 237.951 436.612 238.411 437.072C240.271 438.932 242.851 440.003 245.481 440.003C246.131 440.003 246.791 439.942 247.431 439.813C248.071 439.683 248.701 439.483 249.301 439.233C249.911 438.983 250.491 438.683 251.031 438.313C251.581 437.954 252.091 437.534 252.551 437.073C253.011 436.613 253.431 436.103 253.791 435.553C254.151 435.013 254.461 434.433 254.711 433.833C254.961 433.223 255.151 432.593 255.281 431.953C255.411 431.312 255.481 430.652 255.481 430.003C255.481 429.353 255.411 428.692 255.281 428.053Z" fill="#2D37D5"/>
<path d="M451.319 420.003H283.389C277.866 420.003 273.389 424.481 273.389 430.003C273.389 435.525 277.866 440.003 283.389 440.003H451.319C456.842 440.003 461.319 435.525 461.319 430.003C461.319 424.481 456.842 420.003 451.319 420.003Z" fill="#2D37D5"/>
</svg>
