<svg width="500" height="500" viewBox="0 0 500 500" fill="none" xmlns="http://www.w3.org/2000/svg">
<path d="M241.667 0H258.333V100H241.667V0Z" fill="#2D37D5"/>
<path d="M67.3257 79.1178L79.1095 67.334L149.821 138.045L138.037 149.829L67.3257 79.1178Z" fill="#2D37D5"/>
<path d="M0 241.667H100V258.333H0V241.667Z" fill="#2D37D5"/>
<path d="M67.3301 420.878L138.037 350.167L149.825 361.955L79.1139 432.662L67.3301 420.878Z" fill="#2D37D5"/>
<path d="M241.667 400H258.333V500H241.667V400Z" fill="#2D37D5"/>
<path d="M350.175 361.955L361.959 350.171L432.67 420.882L420.886 432.666L350.175 361.955Z" fill="#2D37D5"/>
<path d="M400 241.667H500V258.333H400V241.667Z" fill="#2D37D5"/>
<path d="M350.183 138.045L420.89 67.338L432.678 79.1219L361.967 149.833L350.183 138.045Z" fill="#2D37D5"/>
<path d="M369.6 308.557L408.492 324.666L414.868 309.265L376.017 293.176C385.771 265.218 385.771 234.782 376.017 206.824L414.868 190.735L408.492 175.334L369.6 191.443C356.547 164.913 335.087 143.453 308.557 130.4L324.666 91.508L309.265 85.1318L293.176 123.983C265.218 114.229 234.782 114.229 206.824 123.983L190.735 85.1318L175.334 91.508L191.443 130.4C164.913 143.453 143.453 164.913 130.4 191.443L91.508 175.334L85.1318 190.735L123.983 206.824C114.229 234.782 114.229 265.218 123.983 293.176L85.1318 309.265L91.508 324.666L130.4 308.557C143.453 335.087 164.913 356.547 191.443 369.6L175.334 408.492L190.735 414.868L206.824 376.017C234.782 385.771 265.218 385.771 293.176 376.017L309.265 414.868L324.666 408.492L308.557 369.6C335.087 356.547 356.547 335.087 369.6 308.557ZM250 366.667C185.567 366.667 133.333 314.433 133.333 250C133.333 185.567 185.567 133.333 250 133.333C314.433 133.333 366.667 185.567 366.667 250C366.597 314.404 314.404 366.597 250 366.667Z" fill="#2D37D5"/>
<path d="M291.667 241.667H267.501L275 159.09C275.313 155.379 273.124 151.912 269.637 150.598C266.15 149.284 262.219 150.439 260.002 153.434L193.335 245.101C191.5 247.624 191.227 250.964 192.631 253.748C194.035 256.535 196.879 258.305 200 258.333H224.206L216.667 340.91C216.353 344.621 218.542 348.088 222.03 349.402C225.517 350.716 229.447 349.561 231.665 346.566L298.332 254.899C300.167 252.376 300.439 249.036 299.036 246.252C297.632 243.465 294.787 241.695 291.667 241.667ZM236.035 312.325L241.667 250.757C241.882 248.421 241.097 246.102 239.51 244.368C237.923 242.639 235.681 241.658 233.333 241.667H216.365L255.631 187.675L250 249.243C249.784 251.579 250.57 253.898 252.156 255.631C253.743 257.361 255.985 258.341 258.333 258.333H275.301L236.035 312.325Z" fill="#2D37D5"/>
</svg>
