<svg width="503" height="352" viewBox="0 0 503 352" fill="none" xmlns="http://www.w3.org/2000/svg">
<path d="M501.5 192.6C499.7 179.6 486.3 169.2 461.2 161.6C440.9 155.5 415.2 151.8 387.2 151.2V44.5C387.2 42.3 386.5 40.2 385.1 38.5C381.8 26.9 368.4 17.5 345.2 10.5C322.7 3.7 293.3 0 262.4 0C231.6 0 202.5 3.7 180.5 10.5C162.4 16.1 140.7 26.5 140.7 44.4C140.7 45.5 140.8 46.6 141 47.7L142.1 93.3C77.2 80.8 14.5 123.5 2.1 188.5C0.7 195.8 0 203.3 0 210.8C0 276.8 53.7 330.5 119.7 330.5C147.2 330.5 173.8 321 195.2 303.7C214 308.1 236 310.5 259.3 310.7C264.4 338.4 324.4 351.1 380.4 351.1C411.2 351.1 440.2 347.3 462.4 340.4C480.6 334.8 502.2 324.3 502.2 306.4V196.5C502.2 195.2 502 193.8 501.5 192.6ZM186.5 29.6C206.7 23.4 233.7 19.9 262.5 19.9C291.1 19.9 319.1 23.4 339.5 29.6C361.2 36.2 365.9 43 365.9 44.4C365.9 45.8 361.2 52.7 339.4 59.2C319.1 65.3 291.1 68.9 262.5 68.9C234.9 68.9 208.7 65.7 188.8 59.9C167.3 53.7 161.3 46.8 160.8 44.6C160.8 44.4 160.8 44.3 160.7 44.3C160.8 42.9 165.4 36.1 186.5 29.6ZM367.2 69.4V95C366.3 96.4 365.8 98.1 365.9 99.8C365.9 101.1 361.2 108 339.4 114.6C319.1 120.7 291 124.3 262.4 124.3C237.7 124.3 213.5 121.7 194.3 116.8C194 116.7 193.8 116.7 193.5 116.6C184 109.1 173.5 103.2 162.2 98.9L161.5 70.7C168.4 74.2 175.6 77 183.1 79C204.8 85.3 232.9 88.7 262.4 88.7C293.3 88.7 322.7 85 345.1 78.2C352.8 76.1 360.2 73.1 367.2 69.4ZM186.8 284.5C146.1 321.6 83 318.6 46 277.9C9 237.2 11.9 174.1 52.6 137.1C71 120.4 94.9 111.1 119.7 111.1C129.7 111.1 139.7 112.6 149.3 115.5C183.9 126.4 210 155.1 217.5 190.6C218.8 197.2 219.5 204 219.5 210.7C219.5 238.9 207.6 265.7 186.8 284.5ZM212.2 286.7C220.3 276.8 226.8 265.7 231.4 253.8C239.9 254.5 248.9 255 258.1 255.1V256.9L258.6 290.8C243.1 290.6 227.6 289.2 212.2 286.7ZM238.8 198.9C244.7 199.3 250.8 199.5 257 199.6C257 199.8 257.1 200.1 257.1 200.3L257.7 235C250.6 234.9 243.7 234.6 237 234.1C238.5 226.4 239.3 218.5 239.3 210.7C239.4 206.8 239.2 202.9 238.8 198.9ZM263.4 179.7C263.1 179.7 262.8 179.7 262.5 179.7C252.9 179.7 243.6 179.3 235 178.7C231.2 165.3 225.2 152.7 217.1 141.5C232.1 143.4 247.2 144.4 262.4 144.4C293.3 144.4 322.7 140.7 345.2 133.9C352.9 131.5 360.2 128.6 367.2 124.9V151.4C324.2 152.6 279.8 161.6 263.4 179.7ZM276.8 195.1C277.8 192.3 285.1 185.8 305.6 180C325.1 174.5 350.5 171.5 377.2 171.5H378.5C407.1 171.5 435.1 174.8 455.5 181C476.6 187.4 481.6 193.8 481.9 195.5V195.6C481.8 197.1 476.8 204 454.6 210.6C434.1 216.7 407.1 220 378.5 220C351.5 220 325.7 216.9 305.9 211.4C286.8 206 279.1 199.9 277.2 196.8C277.1 196.2 277 195.6 276.8 195.1ZM482.2 306.4C482.2 307.8 477.7 314.7 456.5 321.3C436.2 327.6 409.2 331.1 380.4 331.1C351.5 331.1 324.5 327.7 304.5 321.6C283.3 315.1 279 308.4 279 306.9C279 306.8 279 306.8 279 306.7L278.5 277.8C302.3 289.9 342 295.4 378.4 295.4C409.3 295.4 438.5 291.7 460.9 284.9C468.3 282.7 475.4 279.7 482.2 276.1V306.4ZM481.3 251C481.3 252.4 476.7 259.2 455.1 265.8C434.6 272 407.4 275.4 378.4 275.4C323.5 275.4 286.3 263.1 278.1 253.4L277.9 244.8L277.5 221.9C284.8 225.6 292.4 228.5 300.3 230.6C321.8 236.6 349.5 240 378.3 240C408.7 240 437.7 236.4 460 229.8C467.7 227.6 475.1 224.7 482.1 221V246.7H482.2C482.2 248 481.3 249.5 481.3 251Z" fill="#2D37D5"/>
<path d="M169.6 264.2C167.6 259 161.9 256.5 156.7 258.4C156.7 258.3 156.7 258.3 156.7 258.3C137.8 265.5 116.5 260.9 102.3 246.6C99.3998 244 96.9998 240.9 95.1998 237.5H146.6C152.1 237.5 156.6 233 156.6 227.5C156.6 222 152.1 217.5 146.6 217.5H87.8998C87.2998 213.9 87.1998 210.2 87.5998 206.5H151.8C157.3 206.5 161.8 202 161.8 196.5C161.8 191 157.3 186.5 151.8 186.5H93.4998C95.8998 182.2 98.7998 178.3 102.2 174.7C116.5 160.5 137.8 155.9 156.6 163.2C161.8 165.2 167.5 162.6 169.5 157.5C171.5 152.3 168.9 146.6 163.8 144.6C137.6 134.5 107.9 140.8 87.9998 160.7C80.5998 168 74.9998 176.8 71.4998 186.6H57.2998C51.7998 186.6 47.2998 191.1 47.2998 196.6C47.2998 202.1 51.7998 206.6 57.2998 206.6H67.2998C67.0998 210.3 67.0998 213.9 67.4998 217.6H57.2998C51.7998 217.6 47.2998 222.1 47.2998 227.6C47.2998 233.1 51.7998 237.6 57.2998 237.6H72.5998C75.9998 246.3 81.2998 254.3 87.9998 260.9C107.8 280.8 137.5 287.2 163.8 277.1C169 275.1 171.5 269.4 169.6 264.2Z" fill="#2D37D5"/>
</svg>
