<svg width="581" height="571" viewBox="0 0 581 571" fill="none" xmlns="http://www.w3.org/2000/svg">
<path d="M571.317 183.536C568.748 183.536 566.285 184.61 564.469 186.522C562.654 188.434 561.633 191.028 561.633 193.732V509.822H367.967C353.465 509.859 339.121 512.997 325.804 519.046C312.488 525.094 300.478 533.927 290.5 545.009C280.524 533.925 268.513 525.091 255.197 519.042C241.88 512.994 227.536 509.857 213.033 509.822H19.3667V193.732C19.3667 191.028 18.3465 188.434 16.5305 186.522C14.7145 184.61 12.2515 183.536 9.68333 183.536C7.11515 183.536 4.65216 184.61 2.83618 186.522C1.02021 188.434 0 191.028 0 193.732V520.018C0 522.722 1.02021 525.316 2.83618 527.228C4.65216 529.14 7.11515 530.214 9.68333 530.214H213.033C226.557 530.25 239.889 533.582 251.985 539.951C264.081 546.319 274.612 555.551 282.753 566.921C283.655 568.188 284.825 569.216 286.169 569.924C287.514 570.632 288.997 571 290.5 571C292.003 571 293.486 570.632 294.831 569.924C296.175 569.216 297.345 568.188 298.247 566.921C306.387 555.55 316.918 546.318 329.014 539.95C341.11 533.581 354.443 530.249 367.967 530.214H571.317C573.885 530.214 576.348 529.14 578.164 527.228C579.98 525.316 581 522.722 581 520.018V193.732C581 191.028 579.98 188.434 578.164 186.522C576.348 184.61 573.885 183.536 571.317 183.536Z" fill="#2D37D5"/>
<path d="M96.8332 326.286C94.2651 326.286 91.8021 327.36 89.9861 329.272C88.1701 331.184 87.1499 333.778 87.1499 336.482V418.054C87.1499 420.758 88.1701 423.351 89.9861 425.264C91.8021 427.176 94.2651 428.25 96.8332 428.25H116.2C123.904 428.25 131.293 425.027 136.741 419.291C142.189 413.554 145.25 405.774 145.25 397.661C145.25 389.548 142.189 381.767 136.741 376.031C131.293 370.294 123.904 367.071 116.2 367.071H106.517V336.482C106.517 333.778 105.496 331.184 103.68 329.272C101.864 327.36 99.4014 326.286 96.8332 326.286ZM125.883 397.661C125.883 400.365 124.863 402.959 123.047 404.871C121.231 406.783 118.768 407.857 116.2 407.857H106.517V387.464H116.2C118.768 387.464 121.231 388.539 123.047 390.451C124.863 392.363 125.883 394.957 125.883 397.661Z" fill="#2D37D5"/>
<path d="M155.95 199.371L117.217 280.942C116.648 282.141 116.309 283.445 116.22 284.781C116.13 286.118 116.291 287.459 116.694 288.73C117.097 290.001 117.734 291.175 118.568 292.187C119.402 293.198 120.417 294.027 121.555 294.626C122.693 295.224 123.932 295.581 125.201 295.675C126.47 295.77 127.744 295.6 128.951 295.176C130.157 294.751 131.273 294.081 132.234 293.203C133.194 292.325 133.981 291.256 134.55 290.058L146.392 265.107H182.841L194.683 290.058C195.831 292.478 197.845 294.319 200.282 295.176C202.719 296.032 205.38 295.835 207.678 294.626C209.977 293.417 211.725 291.296 212.539 288.73C213.352 286.164 213.164 283.362 212.016 280.942L173.283 199.371C172.388 197.79 171.119 196.482 169.6 195.573C168.081 194.665 166.364 194.187 164.617 194.187C162.869 194.187 161.152 194.665 159.633 195.573C158.114 196.482 156.845 197.79 155.95 199.371ZM173.157 244.714H156.076L164.617 226.728L173.157 244.714Z" fill="#2D37D5"/>
<path d="M209.276 378.95C210.312 378.952 211.329 379.244 212.221 379.798C213.113 380.352 213.848 381.147 214.35 382.101C215.672 384.374 217.786 386.011 220.24 386.663C222.694 387.315 225.293 386.929 227.48 385.588C229.668 384.247 231.269 382.058 231.943 379.489C232.616 376.92 232.308 374.176 231.083 371.843C228.301 366.776 224.009 362.817 218.872 360.581C213.734 358.345 208.04 357.957 202.672 359.477C197.304 360.997 192.563 364.34 189.184 368.988C185.805 373.635 183.977 379.327 183.983 385.18V401.627C183.97 407.483 185.793 413.18 189.17 417.832C192.547 422.485 197.289 425.833 202.658 427.357C208.028 428.881 213.725 428.495 218.865 426.26C224.005 424.024 228.3 420.064 231.083 414.995C232.308 412.662 232.616 409.918 231.943 407.349C231.269 404.78 229.668 402.591 227.48 401.25C225.293 399.909 222.694 399.523 220.24 400.175C217.786 400.827 215.672 402.464 214.35 404.737C213.848 405.691 213.113 406.486 212.221 407.04C211.329 407.594 210.312 407.887 209.276 407.888C208.496 407.888 207.724 407.726 207.004 407.411C206.284 407.096 205.63 406.635 205.079 406.053C204.528 405.471 204.092 404.781 203.796 404.022C203.499 403.262 203.348 402.448 203.35 401.627V385.18C203.353 383.527 203.978 381.943 205.089 380.774C206.2 379.606 207.706 378.95 209.276 378.95Z" fill="#2D37D5"/>
<path d="M353.713 416.85C355.259 417.722 357.001 418.134 358.752 418.045C360.504 417.955 362.199 417.366 363.658 416.341L392.708 395.948C393.766 395.205 394.674 394.249 395.382 393.136C396.089 392.023 396.581 390.775 396.83 389.462C397.079 388.148 397.08 386.796 396.833 385.483C396.586 384.169 396.096 382.919 395.39 381.805C394.684 380.691 393.777 379.735 392.72 378.99C391.663 378.245 390.477 377.726 389.23 377.464C387.983 377.202 386.699 377.201 385.451 377.461C384.204 377.721 383.017 378.238 381.959 378.981L367.967 388.81V326.286C367.967 323.582 366.947 320.988 365.131 319.076C363.315 317.164 360.852 316.089 358.283 316.089H329.233C326.665 316.089 324.202 317.164 322.386 319.076C320.57 320.988 319.55 323.582 319.55 326.286C319.55 328.99 320.57 331.584 322.386 333.496C324.202 335.408 326.665 336.482 329.233 336.482H348.6V407.857C348.599 409.703 349.075 411.515 349.975 413.099C350.875 414.682 352.167 415.979 353.713 416.85Z" fill="#2D37D5"/>
<path d="M358.284 305.893C360.198 305.892 362.07 305.294 363.662 304.174C365.254 303.053 366.495 301.461 367.228 299.598C367.961 297.735 368.152 295.685 367.779 293.708C367.405 291.73 366.484 289.914 365.13 288.488L345.763 268.095C343.937 266.237 341.491 265.21 338.952 265.233C336.413 265.256 333.984 266.328 332.189 268.219C330.393 270.109 329.375 272.667 329.353 275.34C329.331 278.014 330.307 280.589 332.071 282.512L351.437 302.905C353.253 304.818 355.716 305.892 358.284 305.893Z" fill="#2D37D5"/>
<path d="M493.85 244.714C496.418 244.714 498.881 243.64 500.697 241.728C502.513 239.816 503.533 237.222 503.533 234.518C503.533 231.814 502.513 229.22 500.697 227.308C498.881 225.396 496.418 224.321 493.85 224.321H406.7C404.132 224.321 401.669 225.396 399.853 227.308C398.037 229.22 397.017 231.814 397.017 234.518C397.017 237.222 398.037 239.816 399.853 241.728C401.669 243.64 404.132 244.714 406.7 244.714H434.462L432.041 265.107H406.7C404.132 265.107 401.669 266.181 399.853 268.094C398.037 270.006 397.017 272.599 397.017 275.304C397.017 278.008 398.037 280.601 399.853 282.514C401.669 284.426 404.132 285.5 406.7 285.5H429.62L426.144 314.825C426.144 315.248 426.173 315.671 426.231 316.089H406.7C404.132 316.089 401.669 317.164 399.853 319.076C398.037 320.988 397.017 323.581 397.017 326.286C397.017 328.99 398.037 331.583 399.853 333.496C401.669 335.408 404.132 336.482 406.7 336.482H493.85C496.418 336.482 498.881 335.408 500.697 333.496C502.513 331.583 503.533 328.99 503.533 326.286C503.533 323.581 502.513 320.988 500.697 319.076C498.881 317.164 496.418 316.089 493.85 316.089H484.167V275.304C484.167 272.599 483.146 270.006 481.33 268.094C479.514 266.181 477.051 265.107 474.483 265.107H451.563L453.984 244.714H493.85ZM464.8 285.5V316.089H445.511L449.142 285.5H464.8Z" fill="#2D37D5"/>
<path d="M493.85 438.446C496.418 438.446 498.881 437.372 500.697 435.46C502.513 433.548 503.533 430.954 503.533 428.25V367.071C503.533 364.367 502.513 361.774 500.697 359.861C498.881 357.949 496.418 356.875 493.85 356.875H416.383C413.815 356.875 411.352 357.949 409.536 359.861C407.72 361.774 406.7 364.367 406.7 367.071V428.25C406.7 430.954 407.72 433.548 409.536 435.46C411.352 437.372 413.815 438.446 416.383 438.446C418.951 438.446 421.414 437.372 423.23 435.46C425.046 433.548 426.067 430.954 426.067 428.25V418.054H484.167V428.25C484.167 430.954 485.187 433.548 487.003 435.46C488.819 437.372 491.282 438.446 493.85 438.446ZM426.067 397.661V377.268H484.167V397.661H426.067Z" fill="#2D37D5"/>
<path d="M48.4167 367.071C50.9849 367.071 53.4479 365.997 55.2639 364.085C57.0799 362.173 58.1001 359.579 58.1001 356.875V163.143H149.365C151.934 163.143 154.397 162.069 156.213 160.156C158.029 158.244 159.049 155.651 159.049 152.946C159.049 150.242 158.029 147.649 156.213 145.736C154.397 143.824 151.934 142.75 149.365 142.75H48.4167C45.8486 142.75 43.3856 143.824 41.5696 145.736C39.7536 147.649 38.7334 150.242 38.7334 152.946V356.875C38.7334 359.579 39.7536 362.173 41.5696 364.085C43.3856 365.997 45.8486 367.071 48.4167 367.071Z" fill="#2D37D5"/>
<path d="M48.4167 489.429H208.463C235.44 489.475 262.039 496.107 286.172 508.802C286.298 508.863 286.452 508.802 286.588 508.904C287.819 509.489 289.15 509.801 290.5 509.821C291.841 509.785 293.16 509.455 294.373 508.853C294.519 508.792 294.674 508.853 294.819 508.751C318.959 496.072 345.561 489.458 372.537 489.429H532.583C535.152 489.429 537.615 488.354 539.431 486.442C541.247 484.53 542.267 481.936 542.267 479.232V152.946C542.267 150.242 541.247 147.649 539.431 145.736C537.615 143.824 535.152 142.75 532.583 142.75H431.635C429.066 142.75 426.603 143.824 424.788 145.736C422.972 147.649 421.951 150.242 421.951 152.946C421.951 155.651 422.972 158.244 424.788 160.156C426.603 162.069 429.066 163.143 431.635 163.143H522.9V469.036H372.537C347.736 469.093 323.176 474.153 300.183 483.943V275.304C300.183 272.599 299.163 270.006 297.347 268.094C295.531 266.181 293.068 265.107 290.5 265.107C287.932 265.107 285.469 266.181 283.653 268.094C281.837 270.006 280.817 272.599 280.817 275.304V483.851C257.818 474.096 233.258 469.067 208.463 469.036H58.1001V397.661C58.1001 394.956 57.0799 392.363 55.2639 390.451C53.4479 388.539 50.9849 387.464 48.4167 387.464C45.8486 387.464 43.3856 388.539 41.5696 390.451C39.7536 392.363 38.7334 394.956 38.7334 397.661V479.232C38.7334 481.936 39.7536 484.53 41.5696 486.442C43.3856 488.354 45.8486 489.429 48.4167 489.429Z" fill="#2D37D5"/>
<path d="M290.5 244.714C307.405 244.808 324.125 240.997 339.48 233.548C354.834 226.099 368.45 215.194 379.367 201.602C390.285 188.01 398.238 172.061 402.666 154.881C407.094 137.701 407.889 119.707 404.996 102.168C404.822 100.816 404.391 99.5137 403.731 98.3395C403.07 97.1653 402.192 96.1427 401.149 95.3324C400.106 94.522 398.919 93.9405 397.659 93.6221C396.398 93.3038 395.09 93.2551 393.811 93.4791C392.533 93.703 391.31 94.195 390.215 94.9258C389.12 95.6567 388.176 96.6115 387.438 97.7337C386.7 98.8559 386.184 100.123 385.92 101.459C385.656 102.795 385.649 104.174 385.9 105.513C388.183 119.279 387.737 133.393 384.589 146.969C381.441 160.544 375.661 173.288 367.61 184.397C359.56 195.507 349.414 204.742 337.81 211.524C326.206 218.305 313.395 222.485 300.183 223.801V209.384L324.924 192.05C326.691 190.809 328.022 188.991 328.711 186.876C329.4 184.761 329.41 182.466 328.739 180.344L320.722 154.986L356.163 108.337C357.066 107.149 357.706 105.764 358.034 104.282C358.363 102.801 358.373 101.26 358.063 99.7739C357.753 98.2877 357.13 96.8935 356.242 95.6934C355.354 94.4933 354.221 93.5178 352.928 92.8384L324.12 77.6764C321.823 76.4594 319.161 76.2533 316.719 77.1033C314.278 77.9532 312.257 79.7897 311.101 82.2087C309.945 84.6276 309.75 87.4309 310.557 90.0019C311.364 92.5728 313.108 94.7009 315.405 95.9178L333.504 105.451L302.255 146.574C301.245 147.903 300.567 149.477 300.283 151.153C299.999 152.829 300.118 154.553 300.629 156.168L307.978 179.376L285.077 195.445C283.76 196.382 282.683 197.647 281.94 199.126C281.197 200.606 280.811 202.255 280.817 203.929V223.801C264.855 222.143 249.541 216.303 236.273 206.814L245.366 203.307C247.691 202.415 249.603 200.62 250.711 198.29L270.078 157.504C270.886 155.814 271.232 153.92 271.076 152.035C270.921 150.149 270.27 148.347 269.197 146.829L245.182 113.119L268.296 88.7803C269.234 87.7934 269.97 86.6141 270.458 85.3154C270.946 84.0168 271.175 82.6264 271.131 81.2307C271.088 79.8349 270.772 78.4634 270.205 77.2013C269.637 75.9392 268.829 74.8133 267.831 73.8935L232.245 41.1018C240.472 34.5373 249.641 29.3982 259.407 25.8785L271.627 64.4006C272.199 66.2125 273.243 67.8187 274.64 69.0364C276.037 70.2541 277.73 71.0344 279.528 71.2884C281.325 71.5423 283.154 71.2598 284.806 70.4729C286.458 69.686 287.867 68.4264 288.873 66.8376L315.986 24.0839C340.284 31.1498 361.036 47.8554 373.883 70.6918C375.188 73.0215 377.318 74.7101 379.805 75.3861C382.292 76.062 384.932 75.67 387.144 74.2962C389.357 72.9225 390.96 70.6795 391.602 68.0607C392.244 65.442 391.872 62.662 390.567 60.3322C380.246 41.8503 365.493 26.5488 347.787 15.9605C330.081 5.37234 310.044 -0.130814 289.682 0.00236091C269.32 0.135536 249.349 5.90036 231.77 16.7194C214.19 27.5383 199.619 43.0316 189.516 61.6472C179.413 80.2628 174.133 101.347 174.204 122.788C174.276 144.229 179.697 165.273 189.924 183.813C200.151 202.354 214.826 217.739 232.477 228.427C250.129 239.115 270.138 244.732 290.5 244.714ZM294.828 20.6987L283.722 38.1958L278.357 21.2799C282.383 20.7149 286.439 20.4186 290.5 20.3928C291.952 20.3928 293.405 20.6273 294.828 20.6987ZM217.952 55.0607L247.283 82.0812L225.554 104.962C223.908 106.697 222.911 108.998 222.746 111.444C222.581 113.889 223.258 116.316 224.653 118.279L250.111 154.017L235.14 185.575L219.569 191.57C203.203 173.116 193.966 148.894 193.666 123.645C193.367 98.3966 202.028 73.9394 217.952 55.0607Z" fill="#2D37D5"/>
</svg>
