<svg width="500" height="460" viewBox="0 0 500 460" fill="none" xmlns="http://www.w3.org/2000/svg">
<path d="M498.816 347.958L432.454 75.7064C426.277 50.3612 403.743 32.6607 377.657 32.6607H333.353V13.1042H345.552C349.17 13.1042 352.104 10.1705 352.104 6.55212C352.104 2.93371 349.17 0 345.552 0H326.801H173.172H154.423C150.805 0 147.871 2.93371 147.871 6.55212C147.871 10.1705 150.805 13.1042 154.423 13.1042H166.62V32.6607H122.316C96.2307 32.6607 73.6964 50.3628 67.5194 75.7064L1.17593 347.888C-2.97483 364.917 4.09162 382.776 18.7602 392.326C21.3564 394.015 23.4695 395.36 25.042 396.316C92.8187 437.637 170.602 459.477 249.986 459.477C331.753 459.477 411.52 436.407 480.661 392.762C480.666 392.758 480.845 392.645 480.848 392.642C495.8 383.163 503.02 365.207 498.816 347.958ZM36.387 258.763C40.0693 261.996 44.3593 264.091 48.9818 264.786C50.1956 264.972 51.411 265.066 52.6264 265.066C58.104 265.066 63.5455 263.176 68.5513 259.503C77.6489 252.825 84.3157 240.738 86.3845 227.18C88.4697 213.624 85.7293 200.098 79.0494 191.001C74.5629 184.891 68.6594 181.122 61.991 180.103C59.8616 179.772 57.7174 179.756 55.5847 180.005L68.0599 128.824H121.982L92.4158 336.292H17.4891L36.387 258.763ZM51.981 194.781C54.6707 193.232 57.357 192.642 59.9992 193.053C64.0009 193.664 66.8232 196.491 68.4858 198.755C73.1509 205.109 75.0002 214.99 73.431 225.193C71.8749 235.396 67.1508 244.273 60.7953 248.938C58.5299 250.599 54.9917 252.455 50.954 251.831C45.3585 250.99 41.9891 245.932 40.3363 242.563L51.981 194.781ZM75.9192 96.5733H424.053L428.719 115.719H71.2524L75.9192 96.5733ZM135.217 128.823H364.779L394.345 336.291H105.651L135.217 128.823ZM407.582 336.291L378.016 128.823H431.914L444.387 180C442.264 179.752 440.13 179.77 438.014 180.1C431.332 181.12 425.429 184.889 420.942 190.999C414.264 200.097 411.522 213.622 413.605 227.17C415.677 240.738 422.344 252.825 431.443 259.501C436.449 263.177 441.892 265.067 447.36 265.067C448.567 265.067 449.78 264.974 450.985 264.789C455.616 264.093 459.906 262.001 463.59 258.772L482.484 336.289H407.582V336.291ZM459.644 242.585C457.986 245.955 454.618 250.993 449.013 251.835C445 252.45 441.462 250.6 439.198 248.938C432.842 244.274 428.118 235.396 426.559 225.185C424.991 214.99 426.841 205.109 431.506 198.755C433.168 196.49 435.989 193.664 440.004 193.051C442.623 192.642 445.304 193.227 447.989 194.768L459.644 242.585ZM179.724 13.1042H320.249V32.6607H179.724V13.1042ZM122.316 45.7649H377.657C397.684 45.7649 414.981 59.354 419.725 78.8105L420.86 83.469H79.1133L80.2485 78.8105C84.9922 59.354 102.29 45.7649 122.316 45.7649ZM473.834 381.576L473.669 381.679C406.622 424 329.275 446.371 249.986 446.371C173.01 446.371 97.5837 425.193 31.8611 385.125C30.2755 384.159 28.1985 382.833 25.9102 381.341C17.1451 375.636 12.3571 365.585 13.1958 355.367C13.3154 353.908 14.2933 349.393 14.2933 349.393H485.677C485.677 349.393 486.545 353.228 486.679 354.312C488.008 365.048 483.097 375.7 473.834 381.576Z" fill="#2D37D5"/>
<path d="M355.213 271.998C347.56 242.115 340.212 211.689 333.363 181.539C330.484 169.04 319.176 160.486 306.097 161.216C287.494 162.332 268.614 162.897 249.984 162.897C231.355 162.897 212.483 162.33 193.892 161.216C180.879 160.481 169.508 169.036 166.623 181.561C159.794 211.633 152.446 242.061 144.787 271.967C142.99 278.843 144.407 286.206 148.672 292.172C153.56 299.007 161.469 303.306 170.365 303.961C196.748 305.908 223.54 306.896 249.996 306.896C276.452 306.896 303.243 305.908 329.627 303.961C338.523 303.304 346.428 299.006 351.318 292.169C355.583 286.204 357 278.842 355.213 271.998ZM340.659 284.547C338.038 288.209 333.666 290.522 328.662 290.893C302.599 292.817 276.132 293.793 249.997 293.793C223.863 293.793 197.395 292.817 171.331 290.893C166.325 290.522 161.952 288.211 159.333 284.548C157.308 281.716 156.645 278.426 157.475 275.248C165.17 245.195 172.548 214.651 179.398 184.483C180.763 178.568 186.196 174.275 192.319 174.275C192.585 174.275 192.85 174.283 193.114 174.299C211.962 175.428 231.096 176.003 249.988 176.003C268.879 176.003 288.021 175.428 306.88 174.299C313.389 173.913 319.152 178.217 320.592 184.463C327.46 214.708 334.837 245.251 342.528 275.279C343.347 278.424 342.684 281.716 340.659 284.547Z" fill="#2D37D5"/>
<path d="M249.996 193.674C226.372 193.674 207.153 211.781 207.153 234.035C207.153 256.289 226.372 274.396 249.996 274.396C273.619 274.396 292.837 256.289 292.837 234.035C292.837 211.781 273.619 193.674 249.996 193.674ZM249.996 261.29C233.597 261.29 220.257 249.062 220.257 234.033C220.257 219.005 233.599 206.777 249.996 206.777C266.392 206.777 279.732 219.005 279.732 234.033C279.732 249.062 266.394 261.29 249.996 261.29Z" fill="#2D37D5"/>
</svg>
