<svg width="300" height="300" viewBox="0 0 300 300" fill="none" xmlns="http://www.w3.org/2000/svg">
<path d="M108.621 72.4139H82.7587V46.5518C82.7587 43.6915 80.4415 41.3794 77.5863 41.3794C74.7311 41.3794 72.4139 43.6915 72.4139 46.5518V72.4139H46.5518C43.6966 72.4139 41.3794 74.7259 41.3794 77.5863C41.3794 80.4466 43.6966 82.7587 46.5518 82.7587H72.4139V108.621C72.4139 111.481 74.7311 113.793 77.5863 113.793C80.4415 113.793 82.7587 111.481 82.7587 108.621V82.7587H108.621C111.476 82.7587 113.793 80.4466 113.793 77.5863C113.793 74.7259 111.476 72.4139 108.621 72.4139Z" fill="#2D37D5"/>
<path d="M253.448 72.4138H191.379C188.524 72.4138 186.207 74.7259 186.207 77.5862C186.207 80.4466 188.524 82.7586 191.379 82.7586H253.448C256.304 82.7586 258.621 80.4466 258.621 77.5862C258.621 74.7259 256.304 72.4138 253.448 72.4138Z" fill="#2D37D5"/>
<path d="M155.172 0H144.828H0V144.828V155.172V300H144.828H155.172H300V155.172V144.828V0H155.172ZM10.3448 10.3448H144.828V144.828H10.3448V10.3448ZM10.3448 289.655V155.172H144.828V289.655H10.3448ZM289.655 289.655H155.172V155.172H289.655V289.655ZM155.172 144.828V10.3448H289.655V144.828H155.172Z" fill="#2D37D5"/>
<path d="M191.379 243.103H253.448C256.304 243.103 258.621 240.791 258.621 237.931C258.621 235.071 256.304 232.759 253.448 232.759H191.379C188.524 232.759 186.207 235.071 186.207 237.931C186.207 240.791 188.524 243.103 191.379 243.103Z" fill="#2D37D5"/>
<path d="M191.379 212.069H253.448C256.304 212.069 258.621 209.757 258.621 206.897C258.621 204.036 256.304 201.724 253.448 201.724H191.379C188.524 201.724 186.207 204.036 186.207 206.897C186.207 209.757 188.524 212.069 191.379 212.069Z" fill="#2D37D5"/>
<path d="M107.104 192.895C105.082 190.872 101.813 190.872 99.7903 192.895L77.5851 215.1L55.3799 192.895C53.3575 190.872 50.0885 190.872 48.0661 192.895C46.0437 194.917 46.0437 198.186 48.0661 200.209L70.2713 222.414L48.0661 244.619C46.0437 246.641 46.0437 249.91 48.0661 251.933C49.0747 252.941 50.3989 253.448 51.723 253.448C53.0472 253.448 54.3713 252.941 55.3799 251.933L77.5851 229.728L99.7903 251.933C100.799 252.941 102.123 253.448 103.447 253.448C104.771 253.448 106.095 252.941 107.104 251.933C109.126 249.91 109.126 246.641 107.104 244.619L84.8989 222.414L107.104 200.209C109.126 198.186 109.126 194.917 107.104 192.895Z" fill="#2D37D5"/>
</svg>
