<svg width="512" height="460" viewBox="0 0 512 460" fill="none" xmlns="http://www.w3.org/2000/svg">
<path fill-rule="evenodd" clip-rule="evenodd" d="M482 0H29.9999C13.4579 0 0 13.4579 0 29.9999V349.999C0 366.541 13.4579 379.999 29.9999 379.999H193.193L176.298 447.573C175.551 450.56 176.222 453.725 178.117 456.153C180.012 458.58 182.92 459.999 185.999 459.999H326C329.079 459.999 331.987 458.58 333.882 456.153C335.778 453.726 336.448 450.561 335.701 447.573L318.807 379.999H482C498.542 379.999 512 366.541 512 349.999V29.9999C512 13.4579 498.542 0 482 0ZM19.9999 60.0008H491.999H492V319.997H491.999H20.0009H19.9999V60.0008ZM29.9999 19.9999H482C487.514 19.9999 492 24.4859 492 29.9999V40.0008H491.999H20.0009H19.9999V29.9999C19.9999 24.4859 24.4859 19.9999 29.9999 19.9999ZM313.192 439.998H198.807L213.808 379.999H298.192L313.192 439.998ZM482 359.999H29.9999C24.4859 359.999 19.9999 355.513 19.9999 349.999V339.997H20.0009H491.999H492V349.999C492 355.513 487.514 359.999 482 359.999Z" fill="#2D37D5"/>
<path fill-rule="evenodd" clip-rule="evenodd" d="M77.0728 227.033L141.576 161.868L175.115 195.751C178.998 199.656 185.312 199.673 189.217 195.79L260.002 124.279V132.375C260.002 137.898 264.479 142.375 270.002 142.375C275.525 142.375 280.002 137.898 280.002 132.375V100.002C280.002 94.479 275.525 90.002 270.002 90.002H237.629C232.106 90.002 227.629 94.479 227.629 100.002C227.629 105.525 232.106 110.002 237.629 110.002H246.074L182.186 174.546L148.608 140.624C144.703 136.741 138.389 136.758 134.506 140.663L62.9328 212.971C59.0498 216.876 59.0668 223.19 62.9718 227.073C66.8758 230.955 73.1898 230.937 77.0728 227.033Z" fill="#2D37D5"/>
<path fill-rule="evenodd" clip-rule="evenodd" d="M330.003 159.998H442C447.522 159.998 452 155.521 452 149.998C452 144.475 447.522 139.998 442 139.998H330.003C324.48 139.998 320.003 144.475 320.003 149.998C320.003 155.521 324.48 159.998 330.003 159.998Z" fill="#2D37D5"/>
<path fill-rule="evenodd" clip-rule="evenodd" d="M330.003 239.999H386.002C391.525 239.999 396.002 235.522 396.002 229.999C396.002 224.476 391.525 219.999 386.002 219.999H330.003C324.48 219.999 320.003 224.476 320.003 229.999C320.003 235.521 324.48 239.999 330.003 239.999Z" fill="#2D37D5"/>
<path fill-rule="evenodd" clip-rule="evenodd" d="M330.003 199.999H442C447.522 199.999 452 195.522 452 189.999C452 184.476 447.522 179.999 442 179.999H330.003C324.48 179.999 320.003 184.477 320.003 189.999C320.003 195.521 324.48 199.999 330.003 199.999Z" fill="#2D37D5"/>
<path fill-rule="evenodd" clip-rule="evenodd" d="M265.002 260.001H75.002C66.718 260.001 60.002 266.717 60.002 275.001C60.002 283.285 66.718 290.001 75.002 290.001H265.002C273.286 290.001 280.002 283.285 280.002 275.001C280.002 266.716 273.286 260.001 265.002 260.001Z" fill="#2D37D5"/>
</svg>
