<svg width="465" height="512" viewBox="0 0 465 512" fill="none" xmlns="http://www.w3.org/2000/svg">
<path d="M438.39 391.146C425.189 367.82 407.343 348.624 385.342 334.089C374.267 326.773 364.179 322.016 356.894 319.181C369.554 297.696 376.83 272.676 376.83 245.984V230.869H378.137C401.774 230.869 421.004 211.639 421.004 188.002C421.004 164.365 401.774 145.135 378.137 145.135H376.829V145.041C376.829 144.717 376.83 144.392 376.829 144.068C376.521 64.577 311.757 0 232.195 0C152.443 0 87.5604 64.883 87.5604 144.635V145.135H86.2534C62.6164 145.135 43.3864 164.365 43.3864 188.002C43.3864 211.639 62.6164 230.869 86.2534 230.869H87.5604V245.984C87.5604 272.679 94.8384 297.702 107.501 319.189C97.2974 323.181 80.2094 331.388 62.5414 346.568C37.4184 368.154 6.32539 408.547 0.86539 478.406C0.19739 486.956 -0.0856108 495.766 0.0223892 504.592C0.0733892 508.698 3.41639 512 7.52239 512H456.869C460.975 512 464.318 508.698 464.369 504.593C464.91 460.732 456.169 422.563 438.39 391.146ZM376.83 160.135H378.137C393.503 160.135 406.004 172.636 406.004 188.002C406.004 203.368 393.503 215.869 378.137 215.869H376.83V160.135ZM232.195 15C300.231 15 358.214 69.959 361.659 137.917C361.595 137.931 361.534 137.95 361.47 137.965C358.48 138.626 355.554 139.746 352.909 141.293C337.745 150.164 335.635 168.47 335.47 184.368C335.294 201.301 335.089 219.325 330.05 235.803C326.859 246.237 320.773 256.151 308.661 256.157C301.185 256.161 293.922 253.561 287.649 249.614C287.397 249.455 287.135 249.293 286.864 249.129C278.721 244.181 261.862 236.539 234.923 236.051C216.8 235.723 197.922 238.434 181.653 246.823C173.119 251.223 165.769 256.157 155.73 256.157C143.78 256.157 137.475 246.057 134.339 235.803C128.825 217.771 128.521 197.197 128.888 178.497C128.89 178.373 128.893 178.183 128.893 177.934C128.893 166.741 125.723 154.446 117.745 146.219C113.74 142.089 108.531 139.204 102.918 137.964C102.855 137.95 102.795 137.931 102.731 137.917C106.237 69.544 162.966 15 232.195 15ZM87.5614 215.869H86.2544C70.8884 215.869 58.3874 203.368 58.3874 188.002C58.3874 172.636 70.8884 160.135 86.2544 160.135H87.5614V215.869ZM102.56 245.985V153.586H102.561C102.684 153.641 102.811 153.691 102.932 153.749C111.32 157.774 114.106 169.58 113.893 178.175C113.891 178.253 113.89 178.331 113.89 178.409C113.89 199.084 114.616 222.591 119.996 240.189C126.28 260.738 138.302 271.158 155.729 271.157C166.054 271.157 176.038 267.69 184.753 262.295C198.742 253.635 216.015 251.026 232.196 251.026C253.069 251.026 266.937 255.694 274.997 259.705C286.03 265.195 295.909 271.158 308.663 271.158C327.595 271.158 339.2 257.181 344.396 240.189C349.777 222.592 350.502 199.084 350.502 178.409C350.502 178.347 350.501 178.261 350.499 178.197C350.282 169.622 352.994 157.793 361.464 153.748C361.584 153.691 361.708 153.641 361.83 153.587V245.985C361.83 296.205 333.125 339.845 291.261 361.364C291.175 361.408 291.088 361.452 291.001 361.496C231.026 391.906 155.591 370.067 121.026 312.611C108.966 292.564 102.56 269.376 102.56 245.985ZM15.0274 496.999C15.0764 493.463 15.1914 489.945 15.3724 486.46C15.7904 486.456 16.2034 486.446 16.6214 486.442C84.0434 485.76 151.899 476.633 215.857 454.771C235.684 447.994 255.158 439.978 273.941 430.686C277.596 428.878 279.146 424.294 277.338 420.638C275.502 416.925 271.004 415.405 267.29 417.241C236.158 432.641 202.985 444.423 169.318 452.874C138.587 460.588 107.198 465.677 75.6484 468.508C56.1884 470.254 36.6394 471.224 17.1024 471.439C16.9314 471.441 16.7594 471.44 16.5884 471.442C21.8954 423.605 40.4354 385.608 71.7654 358.422C89.9504 342.643 107.715 335.015 115.957 332.054C116.344 331.915 126.014 344.196 127.121 345.365C153.688 373.433 191.622 390.128 230.449 390.607C231.032 390.614 231.614 390.618 232.197 390.618C271.698 390.618 310.263 373.961 337.374 345.259C341.32 341.081 345.017 336.668 348.44 332.051C353.124 333.728 360.867 336.902 369.988 342.207C369.768 342.079 359.254 353.535 358.385 354.384C338.7 373.598 316.2 389.869 292.466 403.707C288.888 405.793 287.678 410.386 289.765 413.964C291.821 417.491 296.493 418.723 300.022 416.665C303.865 414.423 307.671 412.116 311.44 409.751C351.033 384.907 373.655 361.117 382.687 350.493C413.994 373.253 448.341 416.53 449.371 496.999H15.0274Z" fill="#2D37D5"/>
<path d="M209.064 160.807C201.866 151.856 191.156 146.722 179.68 146.722C168.206 146.722 157.498 151.854 150.3 160.802C147.702 164.031 148.213 168.752 151.441 171.348C154.669 173.944 159.39 173.433 161.986 170.205C166.322 164.814 172.771 161.723 179.679 161.723C186.588 161.723 193.038 164.815 197.374 170.207C199.943 173.401 204.733 173.914 207.919 171.352C211.147 168.756 211.66 164.035 209.064 160.807Z" fill="#2D37D5"/>
<path d="M179.686 203.71C187.501 203.71 193.836 197.375 193.836 189.56C193.836 181.745 187.501 175.41 179.686 175.41C171.872 175.41 165.536 181.745 165.536 189.56C165.536 197.375 171.872 203.71 179.686 203.71Z" fill="#2D37D5"/>
<path d="M314.093 160.803C306.895 151.855 296.186 146.722 284.712 146.722C273.236 146.723 262.526 151.857 255.327 160.808C252.731 164.036 253.244 168.757 256.472 171.353C259.663 173.918 264.446 173.403 267.017 170.208C271.353 164.816 277.803 161.723 284.712 161.723C291.62 161.723 298.068 164.815 302.404 170.205C305.001 173.433 309.721 173.945 312.949 171.348C316.177 168.752 316.689 164.031 314.093 160.803Z" fill="#2D37D5"/>
<path d="M284.706 203.71C292.521 203.71 298.856 197.375 298.856 189.56C298.856 181.745 292.521 175.41 284.706 175.41C276.891 175.41 270.556 181.745 270.556 189.56C270.556 197.375 276.891 203.71 284.706 203.71Z" fill="#2D37D5"/>
<path d="M290.513 288.743C284.858 277.581 273.567 270.647 261.046 270.647C255.906 270.647 250.753 271.882 246.144 274.218C245.278 274.656 240.375 276.293 232.198 276.293C224.019 276.293 219.118 274.657 218.254 274.218C213.643 271.881 208.488 270.645 203.346 270.645C190.829 270.645 179.539 277.576 173.881 288.734C165.65 304.97 172.162 324.875 188.397 333.107C200.113 339.047 215.668 342.318 232.197 342.318C248.721 342.318 264.273 339.048 275.988 333.112C292.225 324.884 298.74 304.98 290.513 288.743ZM269.208 319.732C259.555 324.624 246.411 327.318 232.198 327.318C217.981 327.318 204.834 324.623 195.18 319.729C186.321 315.237 182.769 304.375 187.26 295.517C190.347 289.428 196.511 285.645 203.346 285.645C206.182 285.645 208.916 286.302 211.472 287.598C214.997 289.384 222.292 291.293 232.198 291.293C242.101 291.293 249.397 289.385 252.924 287.598C255.479 286.303 258.212 285.647 261.047 285.647C267.883 285.647 274.047 289.431 277.133 295.523C281.622 304.382 278.067 315.242 269.208 319.732Z" fill="#2D37D5"/>
<path d="M262.599 303.061C261.423 299.089 257.249 296.822 253.278 297.999C247.123 299.822 239.833 300.785 232.197 300.785C224.591 300.785 217.325 299.828 211.183 298.019C207.21 296.849 203.04 299.12 201.869 303.093C200.699 307.066 202.97 311.236 206.944 312.407C214.444 314.617 223.176 315.785 232.197 315.785C241.255 315.785 250.018 314.608 257.537 312.382C261.509 311.206 263.775 307.033 262.599 303.061Z" fill="#2D37D5"/>
<path d="M299.378 105.172C297.905 101.301 293.573 99.357 289.701 100.83C271.544 107.74 243.437 108.486 232.195 108.486C220.953 108.486 192.845 107.74 174.689 100.829C170.819 99.356 166.485 101.299 165.012 105.171C163.538 109.042 165.482 113.375 169.353 114.848C189.836 122.644 220.124 123.486 232.195 123.486C244.266 123.486 274.554 122.644 295.037 114.849C298.908 113.376 300.852 109.043 299.378 105.172Z" fill="#2D37D5"/>
<path d="M285.945 76.786C284.472 72.915 280.141 70.971 276.268 72.444C267.899 75.63 250.6 77.687 232.196 77.687C213.792 77.687 196.492 75.629 188.124 72.444C184.251 70.971 179.92 72.914 178.447 76.786C176.973 80.658 178.917 84.991 182.788 86.464C193.028 90.361 211.498 92.688 232.196 92.688C252.894 92.688 271.364 90.361 281.604 86.464C285.475 84.99 287.419 80.657 285.945 76.786Z" fill="#2D37D5"/>
</svg>
