<svg width="400" height="444" viewBox="0 0 400 444" fill="none" xmlns="http://www.w3.org/2000/svg">
<path d="M399.953 170.441C400.389 149.266 397.783 128.139 392.217 107.704C384.751 82.3057 369.253 60.0112 348.048 44.1623C306.339 11.4824 267.357 -2.06092 221.784 0.25172C197.744 1.91657 173.857 5.33177 150.314 10.4702C116.984 17.1716 92.7715 28.89 76.2875 46.2976C63.2244 60.2081 53.1375 76.6382 46.6444 94.5822C43.8921 102.489 41.6512 110.564 39.9355 118.758L39.3444 121.314C37.7882 127.069 35.6878 132.663 33.0715 138.02C31.5494 141.433 30.02 144.847 28.6974 148.364C26.9845 152.266 26.3002 156.542 26.7099 160.784C28.2132 167.384 32.0392 173.224 37.4899 177.239C41.1177 180.563 43.4968 182.891 43.519 185.019C43.2301 186.121 42.7953 187.179 42.226 188.166C33.3777 206.823 22.5319 224.464 9.87864 240.781C4.57361 247.261 -0.982628 254.819 0.14783 262.496C1.76261 268.322 5.60956 273.276 10.8539 276.283C13.2987 277.966 15.8759 279.449 18.5603 280.716C21.7448 282.342 27.0867 285.061 27.4266 287.019C27.9055 289.507 27.6249 292.081 26.6212 294.407C25.5203 296.713 24.4047 298.707 23.4072 300.444C20.6956 305.239 16.1516 313.278 22.986 319.026C24.582 320.43 27.3158 322.58 29.8131 324.494C27.9678 327.739 27.139 331.463 27.434 335.185C27.835 338.078 29.4089 340.678 31.7859 342.374C33.4409 343.549 35.2068 344.591 36.9579 345.566C41.3024 348.041 42.9944 349.201 43.6077 351.477C44.0063 354.487 43.7338 357.547 42.8097 360.439C42.3812 362.383 41.9674 364.318 41.7088 366.254C40.9601 372.974 41.8081 379.777 44.184 386.107C48.0046 400.15 62.1562 408.737 76.3762 405.643C97.4734 400.556 118.28 394.333 138.707 387.001C155.316 396.813 165.815 426.494 168.549 437.628C169.359 440.933 172.321 443.257 175.724 443.258L361.178 442.749C363.517 442.741 365.715 441.627 367.102 439.744C368.49 437.861 368.905 435.432 368.219 433.195C366.387 428.153 363.853 423.394 360.69 419.061C358.944 416.554 357.364 413.935 355.961 411.221C352.631 404.406 349.839 397.341 347.612 390.09C343.395 375.818 340.482 361.192 338.908 346.394C336.29 324.3 339.627 301.907 348.573 281.536C354.041 270.256 360.771 259.633 368.633 249.869C373.066 243.862 377.699 237.655 381.851 231.102C393.511 213.005 399.789 191.968 399.953 170.441ZM356.774 241.128C348.238 251.785 340.945 263.382 335.037 275.692C325.039 298.478 321.314 323.524 324.249 348.233C325.904 363.909 328.985 379.4 333.456 394.516C335.905 402.479 338.968 410.241 342.618 417.731C344.298 421.036 346.202 424.222 348.314 427.269L348.846 428.075L181.309 428.548C176.388 411.015 167.473 394.86 155.264 381.349C157.149 380.692 158.959 380.078 160.592 379.487C166.192 377.529 170.426 376.044 172.539 375.379C204.214 365.434 220.055 351.041 219.627 332.592C219.387 328.574 216.085 325.424 212.061 325.373C210.101 325.419 208.24 326.243 206.887 327.662C205.535 329.081 204.802 330.979 204.849 332.939C205.027 340.549 198.798 351.647 168.098 361.282C165.882 361.976 161.515 363.498 155.7 365.545C150.432 367.392 143.967 369.653 136.896 372.069C116.084 379.597 94.8793 385.995 73.3764 391.235C66.4536 392.569 59.7158 388.188 58.1263 381.32C56.5308 377.172 55.9212 372.71 56.3456 368.286C56.5451 366.757 56.8924 365.227 57.2323 363.69C58.7483 358.563 58.9867 353.142 57.9268 347.901C55.8058 341.117 50.8301 335.596 44.3022 332.784L42.721 331.875C43.5123 330.261 44.4601 328.73 45.5509 327.301C46.78 325.732 47.3227 323.732 47.0555 321.756C46.7884 319.78 45.7341 317.996 44.1323 316.81C42.359 315.494 38.1327 312.332 35.1034 309.901C35.4802 309.214 35.9013 308.423 36.2929 307.766C37.4308 305.764 38.7238 303.451 39.9872 300.813C42.3504 295.647 43.0451 289.872 41.9748 284.292C40.2532 275.226 31.6307 270.808 25.2691 267.587C23.1243 266.57 21.0681 265.376 19.1218 264.018C17.5903 262.952 16.1383 261.777 14.7773 260.501C14.7773 259.393 15.9595 256.688 21.6413 249.75C34.8429 232.729 46.1618 214.327 55.3999 194.868C57.1789 191.822 58.1741 188.382 58.2962 184.856C57.5431 177.419 53.5923 170.677 47.4719 166.385C44.5165 163.651 41.6645 161.065 41.3468 158.789C41.3761 157.002 41.7787 155.24 42.5289 153.617C43.7407 150.411 45.1519 147.263 46.5631 144.115C49.5751 137.9 51.9778 131.407 53.7375 124.728L54.3359 122.149C55.9137 114.565 57.977 107.089 60.5128 99.769C66.3043 83.6769 75.3231 68.938 87.0158 56.4569C101.328 41.3841 122.991 31.0401 153.225 24.9592C176.057 19.9626 199.222 16.6388 222.538 15.0142C264.343 12.7976 300.229 25.4617 338.916 55.8141C357.714 69.6737 371.439 89.3251 377.979 111.746C383.163 130.795 385.587 150.489 385.176 170.227C385.047 189.049 379.565 207.446 369.372 223.27C365.5 229.343 361.052 235.335 356.752 241.128H356.774Z" fill="#2D37D5"/>
<path d="M148.74 125.614H156.129C160.209 125.614 163.517 122.306 163.517 118.226C163.517 114.145 160.209 110.837 156.129 110.837H148.74C136.498 110.837 126.574 120.761 126.574 133.003V140.392C126.574 152.633 136.498 162.557 148.74 162.557H156.129C160.209 162.557 163.517 159.249 163.517 155.169C163.517 151.088 160.209 147.78 156.129 147.78H148.74C144.659 147.78 141.351 144.472 141.351 140.392V133.003C141.351 128.922 144.659 125.614 148.74 125.614Z" fill="#2D37D5"/>
<path d="M200.461 103.448C196.38 103.448 193.072 106.756 193.072 110.837V125.614C193.072 129.695 189.764 133.003 185.683 133.003H178.295C174.214 133.003 170.906 136.311 170.906 140.392C170.906 144.472 174.214 147.78 178.295 147.78H185.683C197.925 147.78 207.849 137.856 207.849 125.614V110.837C207.849 106.756 204.541 103.448 200.461 103.448Z" fill="#2D37D5"/>
<path d="M230.015 103.449V96.0599C230.015 83.818 220.091 73.894 207.849 73.894H193.072C180.83 73.894 170.906 83.818 170.906 96.0599V103.449C170.906 107.529 174.214 110.837 178.295 110.837C182.375 110.837 185.683 107.529 185.683 103.449V96.0599C185.683 91.9793 188.991 88.6713 193.072 88.6713H207.849C211.93 88.6713 215.238 91.9793 215.238 96.0599V103.449C215.238 107.529 218.546 110.837 222.627 110.837C226.707 110.837 230.015 107.529 230.015 103.449Z" fill="#2D37D5"/>
<path d="M252.181 155.169H244.792C240.712 155.169 237.404 151.861 237.404 147.78V140.392C237.404 136.311 234.096 133.003 230.015 133.003C225.934 133.003 222.626 136.311 222.626 140.392V147.78C222.626 160.022 232.55 169.946 244.792 169.946H252.181C256.262 169.946 259.57 166.638 259.57 162.557C259.57 158.477 256.262 155.169 252.181 155.169Z" fill="#2D37D5"/>
<path d="M289.124 133.003C289.124 128.922 285.816 125.614 281.736 125.614H274.347C270.266 125.614 266.958 122.306 266.958 118.226C266.958 114.145 270.266 110.837 274.347 110.837H281.736C285.816 110.837 289.124 107.529 289.124 103.448C289.124 99.3678 285.816 96.0598 281.736 96.0598H274.347C262.105 96.0598 252.181 105.984 252.181 118.226C252.181 130.468 262.105 140.392 274.347 140.392H281.736C285.816 140.392 289.124 137.084 289.124 133.003Z" fill="#2D37D5"/>
<path d="M311.29 133.003C307.209 133.003 303.901 136.311 303.901 140.392V155.169C303.901 159.249 300.593 162.557 296.513 162.557H289.124C285.043 162.557 281.735 165.865 281.735 169.946C281.735 174.027 285.043 177.335 289.124 177.335H296.513C308.754 177.335 318.678 167.411 318.678 155.169V140.392C318.678 136.311 315.37 133.003 311.29 133.003Z" fill="#2D37D5"/>
<path d="M370.103 155.169C370.103 155.051 370.044 154.954 370.037 154.836C369.374 141.633 367.273 128.542 363.771 115.795C358.06 96.404 346.137 79.4264 329.835 67.4732C296.416 41.2584 266.116 29.5623 231.559 29.5623C228.84 29.5623 226.092 29.6361 223.277 29.7691C220.757 29.9021 218.238 30.1903 215.718 30.3972C215.548 30.3972 215.408 30.3011 215.238 30.3011C214.85 30.3439 214.467 30.4206 214.092 30.5302C194.619 32.4085 175.267 35.386 156.129 39.4482C147.736 41.1013 139.477 43.3758 131.421 46.2531C131.251 46.3196 131.081 46.3566 130.919 46.4305C118.462 50.528 107.116 57.4373 97.7587 66.6236C88.7004 76.352 81.4852 87.6454 76.4647 99.9536C76.238 100.371 76.0524 100.809 75.9106 101.261C75.4156 102.473 74.8466 103.618 74.3885 104.852C72.1202 111.007 68.5515 126.331 68.1008 128.259C66.4384 136.527 62.3155 164.863 79.0803 182.64C89.7199 193.915 105.99 198.082 127.358 195.052L137.303 193.634C184.708 186.814 208.499 183.393 228.973 203.416C232.911 207.266 236.945 211.197 241.142 215.017C236.495 229.631 230.466 260.826 255.181 279.297C281.735 299.247 281.735 304.648 281.735 317.718C281.721 320.286 283.041 322.677 285.221 324.033C287.402 325.389 290.13 325.516 292.427 324.368C294.362 323.363 311.29 313.935 311.29 280.775C311.29 262.636 324.811 246.958 338.162 233.983L338.384 233.784C345.624 228.814 351.885 222.552 356.855 215.312C362.216 206.862 366.049 197.536 368.182 187.76C368.619 186.807 368.846 185.771 368.847 184.723C369.775 179.877 370.294 174.961 370.399 170.027C370.473 165.069 370.362 160.156 370.096 155.302C370.102 155.258 370.104 155.213 370.103 155.169ZM296.513 280.775C296.638 286.92 295.759 293.045 293.912 298.907C290.461 290.27 282.467 281.322 264.003 267.468C249.321 256.474 250.356 238.195 253.526 225.353C267.368 236.465 284.541 242.608 302.29 242.798C305.169 242.776 308.044 242.609 310.906 242.295C302.028 253.202 296.972 266.719 296.513 280.775ZM344.391 207.436C339.22 215.186 331.906 221.265 323.341 224.932C309.78 229.297 295.16 229.079 281.735 224.311V214.278C281.735 210.197 285.043 206.889 289.124 206.889H311.29C315.37 206.889 318.678 203.581 318.678 199.5C318.678 195.42 315.37 192.112 311.29 192.112H289.124C276.882 192.112 266.958 202.036 266.958 214.278V216.576C257.034 209.525 247.773 201.587 239.288 192.858C230.709 184.163 219.785 178.153 207.849 175.561V169.946C207.849 165.865 204.541 162.557 200.46 162.557C196.38 162.557 193.072 165.865 193.072 169.946V173.758C173.658 173.798 154.286 175.555 135.182 179.012L125.267 180.423C120.809 181.08 116.299 181.312 111.797 181.118V177.335C111.797 173.254 108.489 169.946 104.408 169.946C100.328 169.946 97.0199 173.254 97.0199 177.335V177.689C94.3218 176.414 91.8763 174.662 89.8012 172.517C85.5665 167.618 82.8569 161.588 82.0062 155.169H89.6313C101.873 155.169 111.797 145.245 111.797 133.003C111.797 128.922 108.489 125.614 104.408 125.614C100.328 125.614 97.0199 128.922 97.0199 133.003C97.0199 137.084 93.7119 140.391 89.6313 140.391H81.3486C81.5496 137.367 81.942 134.359 82.5234 131.385C83.4913 127.188 86.2177 115.869 87.9393 110.837H111.797C115.878 110.837 119.186 107.529 119.186 103.448C119.186 99.3678 115.878 96.0598 111.797 96.0598H94.6703C98.4167 89.0654 103.054 82.5859 108.465 76.7829C113.697 71.5447 119.832 67.2945 126.574 64.237V73.894C126.574 86.1358 136.498 96.0598 148.74 96.0598C152.821 96.0598 156.129 92.7518 156.129 88.6712C156.129 84.5906 152.821 81.2826 148.74 81.2826C144.66 81.2826 141.352 77.9746 141.352 73.894V58.4517C147.178 56.6337 153.097 55.1292 159.084 53.9447C165.379 52.6738 171.822 51.4547 178.295 50.2947V51.7281C178.295 55.8087 181.603 59.1167 185.683 59.1167C189.764 59.1167 193.072 55.8087 193.072 51.7281V47.8343C197.993 47.0954 202.921 46.4157 207.849 45.8763V51.7281C207.849 55.8087 211.157 59.1167 215.238 59.1167C219.318 59.1167 222.626 55.8087 222.626 51.7281V44.6498C223.092 44.6498 223.565 44.5611 224.023 44.5316C228.589 44.3395 233.03 44.3395 237.404 44.5242V73.894C237.404 77.9746 240.712 81.2826 244.792 81.2826H259.569C263.65 81.2826 266.958 77.9746 266.958 73.894C266.958 69.8133 263.65 66.5053 259.569 66.5053H252.181V46.1349C265.108 48.3258 277.609 52.5449 289.22 58.6365C289.22 58.8064 289.124 58.9468 289.124 59.1167V81.2826C289.124 85.3632 292.432 88.6712 296.513 88.6712C300.593 88.6712 303.901 85.3632 303.901 81.2826V67.1703C308.748 70.3105 313.654 73.7388 318.678 77.603V96.0598C318.678 100.14 315.37 103.448 311.29 103.448C307.209 103.448 303.901 106.756 303.901 110.837C303.901 114.918 307.209 118.226 311.29 118.226C323.532 118.226 333.456 108.302 333.456 96.0598V90.9986C340.965 99.2394 346.474 109.1 349.555 119.814C352.061 128.969 353.752 138.327 354.609 147.78H340.844C336.764 147.78 333.456 151.088 333.456 155.169C333.456 159.249 336.764 162.557 340.844 162.557H355.466C355.518 164.973 355.636 167.375 355.599 169.813C355.562 172.384 355.282 174.859 355.001 177.335H340.844C336.764 177.335 333.456 180.643 333.456 184.723C333.456 188.804 336.764 192.112 340.844 192.112H351.661C349.848 197.488 347.407 202.631 344.391 207.436Z" fill="#2D37D5"/>
</svg>
