<svg width="512" height="513" viewBox="0 0 512 513" fill="none" xmlns="http://www.w3.org/2000/svg">
<path d="M48.7338 140.793C-16.5308 224.834 -15.9813 342.575 50.065 426.003C90.849 477.699 151.958 509.282 217.719 512.65C221.929 512.878 226.128 512.994 230.315 513C304.773 513.164 374.677 477.168 417.792 416.462L424.986 488.33C426.389 502.33 438.171 512.991 452.241 512.991C466.311 512.991 478.093 502.33 479.496 488.33L502.28 260.49C503.115 252.165 502.582 243.76 500.702 235.607L483.84 162.391C501.408 151.195 512.032 131.793 512 110.961C511.468 95.9176 507.616 81.1784 500.719 67.7989C494.404 53.5653 488.96 41.2773 492.834 23.2976C494.559 15.7016 491.385 7.83293 484.872 3.56001C479.089 -0.190789 471.551 0.198179 466.184 4.52427C416.606 42.7195 392.533 77.544 392.533 110.961C392.506 131.792 403.129 151.192 420.693 162.391L411.989 200.159C392.122 195.688 371.355 201.801 357.077 216.322L314.923 258.476C306.919 266.491 296.058 270.994 284.732 270.994C273.405 270.994 262.544 266.491 254.541 258.476C237.945 241.773 237.945 214.806 254.541 198.103L296.789 155.94C312.842 140.021 318.425 116.349 311.176 94.935C303.93 73.178 284.917 57.4537 262.187 54.4187C180.687 42.7889 99.2107 75.7587 48.7338 140.793ZM476.083 18.4251C476.235 18.8408 476.259 19.2927 476.151 19.7221C472.587 38.5267 475.749 57.9861 485.086 74.6939C491.008 85.9064 494.372 98.2924 494.933 110.961C494.875 115.172 494.212 119.354 492.962 123.377C489.822 123.157 486.709 122.652 483.661 121.866C471.48 118.53 460.845 111.049 453.589 100.712C451.823 98.152 450.261 95.3957 448.683 92.6565C445.332 86.1459 441.017 80.1791 435.883 74.9584C432.865 72.1872 429.447 69.8859 425.745 68.1317C440.031 49.2145 456.987 32.4711 476.083 18.4251ZM409.6 110.961C409.832 101.162 412.319 91.5493 416.87 82.8688C419.581 83.928 422.077 85.4722 424.235 87.4256C428.094 91.5235 431.347 96.1529 433.894 101.173C435.686 104.287 437.495 107.402 439.535 110.389C449.096 124.056 463.126 133.958 479.206 138.387C480.913 138.839 482.62 139.086 484.326 139.411C476.407 148.959 464.672 154.519 452.267 154.6C428.447 154.3 409.363 134.781 409.6 110.961ZM452.267 171.667C457.576 171.648 462.858 170.908 467.968 169.465L484.096 239.438C484.096 239.601 484.096 239.771 484.164 239.933H460.8C456.087 239.933 452.267 243.754 452.267 248.467C452.267 253.18 456.087 257 460.8 257H485.359C485.316 257.597 485.359 258.195 485.359 258.792L462.507 486.632C461.979 491.911 457.537 495.93 452.232 495.93C446.928 495.93 442.486 491.911 441.958 486.632L419.174 258.792C419.115 258.195 419.174 257.597 419.174 257H426.667C431.379 257 435.2 253.18 435.2 248.467C435.2 243.754 431.379 239.933 426.667 239.933H420.369C420.369 239.771 420.369 239.601 420.446 239.438L436.565 169.465C441.675 170.908 446.957 171.648 452.267 171.667ZM294.946 100.362C300.263 115.627 296.272 132.59 284.706 143.882L242.44 186.062C225.374 203.165 220.282 228.861 229.536 251.18C238.79 273.499 260.57 288.053 284.732 288.061C300.578 288.094 315.779 281.786 326.946 270.542L369.101 228.388C379.253 218.082 393.985 213.709 408.115 216.808L403.78 235.581C401.901 243.737 401.368 252.145 402.202 260.473L415.078 389.267C379.788 450.408 316.529 490.124 246.127 495.341C175.725 500.558 107.303 470.599 63.3855 415.328C9.06091 347.044 1.80903 252.556 45.0773 176.782C88.3455 101.008 173.406 59.2326 259.823 71.3147C276.171 73.3709 289.858 84.6903 294.946 100.362Z" fill="#2D37D5"/>
<path d="M171.81 95.1312C168.841 95.9899 166.569 98.3867 165.869 101.397C165.17 104.407 166.152 107.561 168.438 109.64C170.724 111.72 173.956 112.401 176.887 111.421C202.182 103.536 228.915 101.379 255.147 105.107C259.815 105.757 264.126 102.5 264.776 97.832C265.427 93.1639 262.17 88.8525 257.502 88.2021C228.778 84.1127 199.504 86.4799 171.81 95.1312Z" fill="#2D37D5"/>
<path d="M157.867 220.913C176.845 220.909 193.953 209.475 201.217 191.941C208.48 174.408 204.469 154.225 191.053 140.802C187.714 137.463 182.3 137.463 178.961 140.802C175.622 144.141 175.622 149.554 178.961 152.893C184.563 158.495 187.71 166.092 187.71 174.013C187.71 181.935 184.563 189.532 178.961 195.133C167.14 206.414 148.542 206.414 136.721 195.133C131.119 189.532 127.972 181.935 127.972 174.013C127.972 166.092 131.119 158.495 136.721 152.893C139.955 149.545 139.909 144.223 136.617 140.931C133.325 137.64 128.003 137.593 124.655 140.827C111.254 154.257 107.256 174.433 114.523 191.958C121.791 209.483 138.895 220.909 157.867 220.913Z" fill="#2D37D5"/>
<path d="M139.827 268.034C137.684 265.815 134.512 264.926 131.528 265.707C128.545 266.487 126.215 268.817 125.434 271.801C124.653 274.784 125.542 277.957 127.761 280.1C133.363 285.701 136.51 293.298 136.51 301.22C136.51 309.141 133.363 316.739 127.761 322.34C115.94 333.62 97.3414 333.62 85.5208 322.34C79.919 316.739 76.7719 309.141 76.7719 301.22C76.7719 293.298 79.919 285.701 85.5208 280.1C87.7391 277.957 88.6287 274.784 87.8478 271.801C87.0668 268.817 84.7369 266.487 81.7534 265.707C78.7699 264.926 75.5971 265.815 73.4546 268.034C60.0313 281.456 56.0155 301.643 63.2798 319.181C70.5441 336.719 87.6578 348.155 106.641 348.155C125.624 348.155 142.737 336.719 150.002 319.181C157.266 301.643 153.25 281.456 139.827 268.034Z" fill="#2D37D5"/>
<path d="M311.466 410.6C330.449 410.599 347.562 399.165 354.826 381.627C362.09 364.09 358.075 343.903 344.653 330.481C341.304 327.247 335.982 327.293 332.69 330.585C329.399 333.876 329.353 339.198 332.586 342.547C338.188 348.148 341.335 355.745 341.335 363.667C341.335 371.588 338.188 379.186 332.586 384.787C320.766 396.067 302.167 396.067 290.346 384.787C284.745 379.186 281.598 371.588 281.598 363.667C281.598 355.745 284.745 348.148 290.346 342.547C293.58 339.198 293.534 333.876 290.242 330.585C286.951 327.293 281.629 327.247 278.28 330.481C264.858 343.903 260.843 364.09 268.107 381.627C275.371 399.165 292.484 410.599 311.466 410.6Z" fill="#2D37D5"/>
<path d="M213.094 373.147C209.763 376.48 209.763 381.881 213.094 385.213C218.696 390.815 221.843 398.412 221.843 406.333C221.843 414.255 218.696 421.852 213.094 427.453C201.274 438.734 182.675 438.734 170.854 427.453C165.253 421.852 162.105 414.255 162.105 406.333C162.105 398.412 165.253 390.815 170.854 385.213C174.088 381.865 174.042 376.543 170.75 373.251C167.459 369.96 162.136 369.913 158.788 373.147C145.365 386.57 141.349 406.757 148.613 424.295C155.878 441.833 172.991 453.268 191.974 453.268C210.957 453.268 228.071 441.833 235.335 424.295C242.599 406.757 238.584 386.57 225.16 373.147C221.828 369.816 216.427 369.816 213.094 373.147Z" fill="#2D37D5"/>
</svg>
