<svg width="1004" height="294" viewBox="0 0 1004 294" fill="none" xmlns="http://www.w3.org/2000/svg">
<g clip-path="url(#clip0)">
<rect width="1004" height="294" rx="20" fill="white"/>
<rect width="1004" height="294" rx="20" fill="#2E279D"/>
<path d="M416.23 148.4C418.67 148.92 420.63 150.14 422.11 152.06C423.59 153.94 424.33 156.1 424.33 158.54C424.33 162.06 423.09 164.86 420.61 166.94C418.17 168.98 414.75 170 410.35 170H390.73V127.88H409.69C413.97 127.88 417.31 128.86 419.71 130.82C422.15 132.78 423.37 135.44 423.37 138.8C423.37 141.28 422.71 143.34 421.39 144.98C420.11 146.62 418.39 147.76 416.23 148.4ZM400.99 144.92H407.71C409.39 144.92 410.67 144.56 411.55 143.84C412.47 143.08 412.93 141.98 412.93 140.54C412.93 139.1 412.47 138 411.55 137.24C410.67 136.48 409.39 136.1 407.71 136.1H400.99V144.92ZM408.55 161.72C410.27 161.72 411.59 161.34 412.51 160.58C413.47 159.78 413.95 158.64 413.95 157.16C413.95 155.68 413.45 154.52 412.45 153.68C411.49 152.84 410.15 152.42 408.43 152.42H400.99V161.72H408.55ZM435.441 133.04C433.641 133.04 432.161 132.52 431.001 131.48C429.881 130.4 429.321 129.08 429.321 127.52C429.321 125.92 429.881 124.6 431.001 123.56C432.161 122.48 433.641 121.94 435.441 121.94C437.201 121.94 438.641 122.48 439.761 123.56C440.921 124.6 441.501 125.92 441.501 127.52C441.501 129.08 440.921 130.4 439.761 131.48C438.641 132.52 437.201 133.04 435.441 133.04ZM440.541 136.52V170H430.281V136.52H440.541ZM463.216 170.48C459.936 170.48 456.976 169.78 454.336 168.38C451.736 166.98 449.676 164.98 448.156 162.38C446.676 159.78 445.936 156.74 445.936 153.26C445.936 149.82 446.696 146.8 448.216 144.2C449.736 141.56 451.816 139.54 454.456 138.14C457.096 136.74 460.056 136.04 463.336 136.04C466.616 136.04 469.576 136.74 472.216 138.14C474.856 139.54 476.936 141.56 478.456 144.2C479.976 146.8 480.736 149.82 480.736 153.26C480.736 156.7 479.956 159.74 478.396 162.38C476.876 164.98 474.776 166.98 472.096 168.38C469.456 169.78 466.496 170.48 463.216 170.48ZM463.216 161.6C465.176 161.6 466.836 160.88 468.196 159.44C469.596 158 470.296 155.94 470.296 153.26C470.296 150.58 469.616 148.52 468.256 147.08C466.936 145.64 465.296 144.92 463.336 144.92C461.336 144.92 459.676 145.64 458.356 147.08C457.036 148.48 456.376 150.54 456.376 153.26C456.376 155.94 457.016 158 458.296 159.44C459.616 160.88 461.256 161.6 463.216 161.6ZM496.439 125.6V170H486.179V125.6H496.439ZM519.114 170.48C515.834 170.48 512.874 169.78 510.234 168.38C507.634 166.98 505.574 164.98 504.054 162.38C502.574 159.78 501.834 156.74 501.834 153.26C501.834 149.82 502.594 146.8 504.114 144.2C505.634 141.56 507.714 139.54 510.354 138.14C512.994 136.74 515.954 136.04 519.234 136.04C522.514 136.04 525.474 136.74 528.114 138.14C530.754 139.54 532.834 141.56 534.354 144.2C535.874 146.8 536.634 149.82 536.634 153.26C536.634 156.7 535.854 159.74 534.294 162.38C532.774 164.98 530.674 166.98 527.994 168.38C525.354 169.78 522.394 170.48 519.114 170.48ZM519.114 161.6C521.074 161.6 522.734 160.88 524.094 159.44C525.494 158 526.194 155.94 526.194 153.26C526.194 150.58 525.514 148.52 524.154 147.08C522.834 145.64 521.194 144.92 519.234 144.92C517.234 144.92 515.574 145.64 514.254 147.08C512.934 148.48 512.274 150.54 512.274 153.26C512.274 155.94 512.914 158 514.194 159.44C515.514 160.88 517.154 161.6 519.114 161.6ZM554.797 136.04C557.157 136.04 559.217 136.52 560.977 137.48C562.777 138.44 564.157 139.7 565.117 141.26V136.52H575.377V169.94C575.377 173.02 574.757 175.8 573.517 178.28C572.317 180.8 570.457 182.8 567.937 184.28C565.457 185.76 562.357 186.5 558.637 186.5C553.677 186.5 549.657 185.32 546.577 182.96C543.497 180.64 541.737 177.48 541.297 173.48H551.437C551.757 174.76 552.517 175.76 553.717 176.48C554.917 177.24 556.397 177.62 558.157 177.62C560.277 177.62 561.957 177 563.197 175.76C564.477 174.56 565.117 172.62 565.117 169.94V165.2C564.117 166.76 562.737 168.04 560.977 169.04C559.217 170 557.157 170.48 554.797 170.48C552.037 170.48 549.537 169.78 547.297 168.38C545.057 166.94 543.277 164.92 541.957 162.32C540.677 159.68 540.037 156.64 540.037 153.2C540.037 149.76 540.677 146.74 541.957 144.14C543.277 141.54 545.057 139.54 547.297 138.14C549.537 136.74 552.037 136.04 554.797 136.04ZM565.117 153.26C565.117 150.7 564.397 148.68 562.957 147.2C561.557 145.72 559.837 144.98 557.797 144.98C555.757 144.98 554.017 145.72 552.577 147.2C551.177 148.64 550.477 150.64 550.477 153.2C550.477 155.76 551.177 157.8 552.577 159.32C554.017 160.8 555.757 161.54 557.797 161.54C559.837 161.54 561.557 160.8 562.957 159.32C564.397 157.84 565.117 155.82 565.117 153.26ZM617 136.52L596 185.9H584.96L592.64 168.86L579.02 136.52H590.48L598.22 157.46L605.9 136.52H617Z" fill="#FFD9EE"/>
<path d="M903.348 47.3126L898.61 45.2314C899.082 43.171 899.207 40.8984 898.986 38.4261L901.546 40.2201C902.098 40.6075 902.783 40.6666 903.368 40.4386C903.713 40.3042 904.023 40.0704 904.252 39.7439C904.869 38.865 904.655 37.6534 903.776 37.0379L898.039 33.0176C898.039 33.0174 898.038 33.0175 898.038 33.0171C898.027 32.9755 898.02 32.9359 898.01 32.8941C897.8 32.0905 897.585 31.2391 897.371 30.3806L902.852 30.1074C903.067 30.0968 903.272 30.0516 903.461 29.9779C904.219 29.6823 904.737 28.9274 904.695 28.0708C904.642 26.9989 903.73 26.1736 902.659 26.2259L896.523 26.5316C896.501 26.5328 896.483 26.5454 896.462 26.5471C896.042 24.6598 895.667 22.6937 895.346 20.7077L899.05 21.0498C899.361 21.0784 899.661 21.032 899.933 20.926C900.597 20.667 901.093 20.0522 901.164 19.2937C901.262 18.2248 900.477 17.2788 899.408 17.1802L895.082 16.7806C894.967 16.7697 894.862 16.8067 894.751 16.8161L894.159 12.7506L898.219 11.1687C899.219 10.7789 899.713 9.65286 899.324 8.65312C898.934 7.65338 897.809 7.15828 896.808 7.54815L893.583 8.80451L893.271 6.66582C893.021 4.94727 892.596 3.30202 892.035 1.73458L895.894 1.5422C896.11 1.53161 896.314 1.48636 896.503 1.41265C897.262 1.11712 897.78 0.362216 897.737 -0.494413C897.684 -1.56627 896.772 -2.39157 895.701 -2.33931L890.301 -2.07059C889.148 -4.08235 887.704 -5.87629 886.014 -7.4104L888.68 -10.3568C889.401 -11.1525 889.339 -12.3811 888.544 -13.1012C887.746 -13.821 886.522 -13.7599 885.799 -12.9645L882.884 -9.74353C882.883 -9.74272 882.883 -9.74146 882.882 -9.7402C881.609 -10.5491 880.295 -11.261 878.926 -11.8131L880.766 -16.0042C881.198 -16.9865 880.751 -18.1324 879.769 -18.5639C878.787 -18.9954 877.641 -18.549 877.209 -17.5666L875.18 -12.9467C873.209 -13.3884 871.195 -13.5794 869.169 -13.5146L870.304 -16.0981C870.736 -17.0805 870.289 -18.2264 869.307 -18.6579C868.325 -19.0894 867.179 -18.6429 866.747 -17.6606L864.682 -12.9589C863.78 -12.7582 862.888 -12.4933 862.001 -12.1868C861.993 -12.2069 861.998 -12.2278 861.99 -12.2478L859.874 -17.6786C859.484 -18.6784 858.359 -19.1735 857.358 -18.7836C856.358 -18.3938 855.864 -17.2677 856.253 -16.268L858.369 -10.8371C858.393 -10.7756 858.442 -10.7352 858.472 -10.6773C857.718 -10.2762 856.991 -9.83466 856.287 -9.35806C856.267 -9.36753 856.256 -9.3854 856.235 -9.39424L848.689 -12.7092C847.706 -13.1407 846.56 -12.6942 846.129 -11.7118C845.697 -10.7295 846.144 -9.58356 847.126 -9.15207L852.904 -6.61394C851.405 -5.14194 850.158 -3.48583 849.159 -1.70626L841.494 -3.84452C840.458 -4.13326 839.389 -3.52744 839.1 -2.49545C838.812 -1.46149 839.415 -0.389836 840.449 -0.101928L847.551 1.87848C847.289 2.62369 847.059 3.37902 846.874 4.14747L836.969 10.0404C836.047 10.5887 835.744 11.781 836.293 12.7036C836.785 13.5309 837.796 13.8599 838.666 13.5212C838.764 13.4829 838.861 13.4356 838.956 13.3796L846.224 9.05535C846.169 10.8923 846.324 12.7412 846.686 14.566L843.698 15.7302C842.698 16.1197 842.204 17.246 842.593 18.2458C842.983 19.2455 844.109 19.7403 845.109 19.3508L847.754 18.3203C848.224 19.5917 848.804 20.8311 849.494 22.0285C849.392 22.1316 849.275 22.2171 849.195 22.3464L844.07 30.5986C843.503 31.5096 843.784 32.7076 844.696 33.2739C845.236 33.6093 845.877 33.6478 846.427 33.4333C846.805 33.2862 847.14 33.02 847.371 32.6482L851.839 25.4531L854.39 28.6732C854.547 28.8716 854.703 29.0797 854.86 29.2803L851.676 33.8232C851.06 34.7017 851.274 35.9134 852.152 36.5292C852.705 36.9164 853.389 36.9757 853.974 36.7477C854.319 36.6134 854.63 36.3792 854.858 36.053L857.32 32.54C857.811 33.2142 858.302 33.9053 858.793 34.6081L855.015 43.2084C854.584 44.1907 855.03 45.3367 856.012 45.7682C856.504 45.9839 857.036 45.9803 857.499 45.7999C857.962 45.6195 858.356 45.262 858.572 44.7708L861.363 38.4187C862.795 40.6125 864.244 42.9384 865.735 45.4576L863.605 47.8107C862.884 48.6065 862.946 49.8351 863.741 50.5551C864.306 51.066 865.087 51.1832 865.752 50.9242C866.024 50.8184 866.277 50.6495 866.486 50.4184L867.796 48.9708C868.922 50.8542 870.117 52.4523 871.386 53.76L870.413 55.9744C869.982 56.9567 870.428 58.1026 871.411 58.5341C871.902 58.7499 872.434 58.7463 872.897 58.5659C873.36 58.3855 873.755 58.028 873.97 57.5368L874.512 56.3048C876.544 57.5627 878.739 58.2064 881.11 58.2407L882.959 62.9864C883.349 63.9861 884.474 64.4812 885.475 64.0914C886.476 63.7015 886.97 62.5755 886.58 61.5757L885.098 57.7719C886.005 57.5523 886.932 57.2685 887.885 56.8972C888.42 56.6886 888.929 56.4607 889.426 56.2252L891.812 58.3847C892.377 58.8953 893.158 59.0128 893.823 58.7537C894.096 58.6476 894.347 58.4791 894.557 58.248C895.277 57.4522 895.215 56.2236 894.42 55.5036L892.901 54.129C894.803 52.6789 896.265 50.9266 897.295 48.8975L901.786 50.8701C902.277 51.0859 902.809 51.0823 903.272 50.9019C903.735 50.7215 904.13 50.364 904.346 49.8728C904.777 48.89 904.331 47.7445 903.348 47.3126ZM886.474 53.2761C879.744 55.8983 875.067 53.8719 870.838 46.4989C866.136 38.2984 861.875 31.8673 857.433 26.2603L854.533 22.5994C848.164 14.5604 848.666 2.92126 855.676 -3.8988C857.632 -5.80218 859.926 -7.27436 862.493 -8.27451C869.137 -10.8631 876.505 -9.84051 882.206 -5.54043C886.031 -2.6531 888.662 1.99995 889.424 7.22747L891.29 20.022C892.015 24.9928 893.193 29.813 894.249 33.873C896.821 43.7359 894.205 50.264 886.474 53.2761Z" fill="#FFD9EE"/>
<path d="M816.636 15.8468C821.627 13.9024 824.105 8.25926 822.161 3.26872L819.34 -3.97247C817.395 -8.96301 811.752 -11.4417 806.761 -9.49734C801.771 -7.55293 799.292 -1.90975 801.237 3.08079L804.058 10.322C806.002 15.313 811.645 17.7914 816.636 15.8468ZM804.857 1.67014C803.69 -1.32455 805.177 -4.70995 808.172 -5.87674C811.167 -7.04352 814.552 -5.55651 815.719 -2.56182L818.54 4.67937C819.707 7.67406 818.22 11.0595 815.225 12.2262C812.231 13.393 808.845 11.906 807.678 8.91133L804.857 1.67014Z" fill="#FFD9EE"/>
<path d="M854.117 52.0353C851.524 52.1634 849.137 53.2954 847.398 55.2193C845.657 57.1432 844.769 59.6299 844.898 62.2204L845.284 69.982C845.413 72.5735 846.543 74.9597 848.468 76.7014C850.392 78.443 852.879 79.3304 855.469 79.2015C856.532 79.1487 857.56 78.9272 858.523 78.5522C859.909 78.0122 861.161 77.1526 862.188 76.0174C863.93 74.0935 864.817 71.6069 864.689 69.0163L864.303 61.2547C864.173 58.6632 863.044 56.2771 861.119 54.5354C859.195 52.7936 856.708 51.9064 854.117 52.0353ZM860.422 61.447L860.808 69.2095C860.885 70.7636 860.353 72.2559 859.308 73.4106C858.262 74.5667 856.83 75.2434 855.277 75.32L855.276 75.3203C853.722 75.3973 852.229 74.8652 851.075 73.8201C849.92 72.775 849.243 71.3442 849.165 69.7891L848.779 62.0266C848.702 60.4725 849.234 58.9802 850.279 57.8255C850.895 57.1445 851.646 56.6294 852.478 56.3053C853.056 56.0801 853.673 55.9474 854.312 55.9156C855.866 55.8387 857.358 56.3707 858.513 57.4158C859.667 58.461 860.344 59.8921 860.422 61.447Z" fill="#FFD9EE"/>
<path d="M811.756 1.18897C812.825 0.77247 813.354 -0.431706 812.938 -1.50024C812.521 -2.56876 811.317 -3.09822 810.248 -2.6819C809.18 -2.26559 808.65 -1.06105 809.067 0.00792789C809.483 1.07691 810.688 1.60528 811.756 1.18897Z" fill="#FFD9EE"/>
<path d="M812.768 9.13624C813.837 8.71974 814.365 7.51556 813.949 6.44703C813.532 5.3785 812.328 4.84904 811.259 5.26536C810.191 5.68168 809.661 6.88621 810.078 7.95519C810.494 9.02418 811.699 9.55256 812.768 9.13624Z" fill="#FFD9EE"/>
<path d="M855.153 59.0564C854.084 59.4729 853.555 60.6772 853.972 61.7462C854.388 62.8152 855.593 63.3437 856.662 62.9272C857.731 62.5108 858.259 61.3066 857.843 60.238C857.426 59.1695 856.222 58.6399 855.153 59.0564Z" fill="#FFD9EE"/>
<path d="M853.649 65.8982C852.58 66.3147 852.051 67.519 852.467 68.588C852.884 69.657 854.088 70.1855 855.157 69.769C856.226 69.3526 856.754 68.1484 856.338 67.0798C855.922 66.0113 854.718 65.4817 853.649 65.8982Z" fill="#FFD9EE"/>
<path d="M919.386 42.2544C916.865 42.8295 914.702 44.355 913.32 46.5512L909.177 53.1292C907.797 55.3247 907.353 57.9269 907.927 60.457C908.504 62.9872 910.03 65.1421 912.226 66.5242C914.422 67.9064 917.025 68.3515 919.555 67.7757C920.032 67.6671 920.498 67.5247 920.947 67.3498C922.872 66.5996 924.5 65.2595 925.621 63.4791L929.763 56.9011C931.143 54.7056 931.587 52.1034 931.013 49.5734C930.436 47.0431 928.911 44.8883 926.714 43.5061C924.518 42.1239 921.916 41.6787 919.386 42.2544ZM927.223 50.4348C927.568 51.9529 927.303 53.5141 926.474 54.8307L922.333 61.4081C921.503 62.7271 920.206 63.6416 918.692 63.9878C917.175 64.3323 915.613 64.0656 914.296 63.2354C912.977 62.4064 912.062 61.1136 911.717 59.5957C911.371 58.0778 911.637 56.5164 912.466 55.1998L916.606 48.6224C917.28 47.5538 918.257 46.7497 919.411 46.2999C919.682 46.1944 919.96 46.1086 920.248 46.0432C921.765 45.6986 923.327 45.9653 924.644 46.7955C925.963 47.6239 926.878 48.9167 927.223 50.4348Z" fill="#FFD9EE"/>
<path d="M916.994 59.9355C917.975 59.3403 918.288 58.0626 917.693 57.0816C917.097 56.1007 915.82 55.788 914.839 56.3832C913.858 56.9784 913.545 58.2562 914.14 59.2371C914.735 60.218 916.013 60.5307 916.994 59.9355Z" fill="#FFD9EE"/>
<path d="M922.154 55.1972C923.135 54.602 923.448 53.3243 922.853 52.3434C922.257 51.3624 920.98 51.0497 919.999 51.6449C919.018 52.2401 918.705 53.5179 919.3 54.4988C919.896 55.4798 921.173 55.7925 922.154 55.1972Z" fill="#FFD9EE"/>
<path d="M833.134 37.6231C830.182 33.1524 824.136 31.9149 819.674 34.87L813.189 39.1527C808.72 42.1043 807.485 48.1424 810.436 52.6121C813.001 56.4964 817.897 57.9377 822.069 56.3121C822.699 56.0669 823.311 55.7522 823.896 55.3651L830.381 51.0824C834.85 48.1304 836.085 42.0923 833.134 37.6231ZM828.24 47.8398L821.755 52.1225C819.075 53.8943 815.45 53.1518 813.678 50.471C811.907 47.789 812.649 44.1668 815.33 42.3951L821.815 38.1124C822.166 37.8805 822.533 37.6916 822.911 37.5446C825.414 36.5693 828.352 37.4336 829.891 39.764C831.663 42.4459 830.921 46.0685 828.24 47.8398Z" fill="#FFD9EE"/>
<path d="M815.601 45.2313C814.893 46.1337 815.05 47.4392 815.953 48.1478C816.855 48.8564 818.161 48.6986 818.869 47.796C819.577 46.8935 819.42 45.588 818.517 44.8794C817.614 44.1715 816.309 44.3288 815.601 45.2313Z" fill="#FFD9EE"/>
<path d="M822.256 43.0439C821.547 43.9463 821.705 45.2518 822.607 45.9604C823.51 46.6686 824.815 46.5112 825.524 45.6088C826.232 44.7063 826.074 43.4008 825.172 42.6922C824.269 41.9836 822.964 42.1414 822.256 43.0439Z" fill="#FFD9EE"/>
<path d="M853.813 7.45091C852.744 7.8674 852.215 9.07176 852.632 10.1407C853.048 11.2097 854.252 11.7383 855.321 11.3218C856.39 10.9053 856.919 9.70111 856.502 8.63258C856.086 7.56405 854.882 7.03441 853.813 7.45091Z" fill="#FFD9EE"/>
<path d="M869.481 9.8318C869.064 8.76282 867.86 8.23381 866.791 8.65013C865.723 9.06645 865.193 10.271 865.61 11.34C866.026 12.4089 867.23 12.9375 868.299 12.521C869.368 12.1045 869.897 10.9008 869.481 9.8318Z" fill="#FFD9EE"/>
<path d="M884.918 39.1189C883.849 39.5354 883.32 40.7397 883.736 41.8087C884.153 42.8777 885.357 43.4062 886.426 42.9897C887.495 42.5733 888.023 41.3691 887.607 40.3005C887.191 39.232 885.987 38.7024 884.918 39.1189Z" fill="#FFD9EE"/>
<path d="M866.471 23.5134C866.055 22.4445 864.85 21.9154 863.782 22.3318C862.713 22.7481 862.184 23.9526 862.6 25.0216C863.017 26.0906 864.221 26.6191 865.29 26.2026C866.359 25.7861 866.888 24.5824 866.471 23.5134Z" fill="#FFD9EE"/>
<path d="M876.36 27.8572C875.291 28.2737 874.762 29.478 875.178 30.547C875.595 31.616 876.799 32.1445 877.868 31.728C878.937 31.3115 879.466 30.1074 879.049 29.0388C878.633 27.9703 877.429 27.4407 876.36 27.8572Z" fill="#FFD9EE"/>
<path d="M871.94 37.9197C870.871 38.3362 870.342 39.5405 870.759 40.6095C871.175 41.6785 872.379 42.207 873.448 41.7905C874.517 41.374 875.046 40.1699 874.629 39.1013C874.213 38.0328 873.009 37.5032 871.94 37.9197Z" fill="#FFD9EE"/>
<path d="M876.416 0.872811C876 -0.196171 874.795 -0.725176 873.727 -0.308857C872.658 0.107462 872.129 1.31199 872.545 2.38097C872.962 3.44996 874.166 3.97851 875.235 3.56202C876.304 3.14552 876.833 1.94179 876.416 0.872811Z" fill="#FFD9EE"/>
<path d="M882.59 17.0896C881.521 17.5061 880.992 18.7104 881.408 19.7794C881.825 20.8484 883.029 21.377 884.098 20.9605C885.167 20.544 885.696 19.3398 885.279 18.2713C884.863 17.2027 883.659 16.6731 882.59 17.0896Z" fill="#FFD9EE"/>
<path d="M107.827 256.598C110.956 257.335 114.1 255.389 114.836 252.26C115.572 249.132 113.626 245.988 110.498 245.251C107.369 244.515 104.225 246.461 103.489 249.59C102.753 252.718 104.698 255.862 107.827 256.598ZM109.608 249.034C110.651 249.279 111.299 250.327 111.054 251.37C110.808 252.412 109.761 253.062 108.717 252.816C107.674 252.57 107.026 251.522 107.271 250.48C107.517 249.437 108.564 248.788 109.608 249.034Z" fill="#FFD9EE"/>
<path d="M88.3038 242.025C91.9533 242.883 95.6219 240.613 96.4808 236.963C97.3397 233.314 95.0689 229.645 91.4194 228.786C87.7699 227.927 84.1014 230.198 83.2425 233.848C82.3836 237.497 84.6543 241.166 88.3038 242.025ZM90.5293 232.569C92.0937 232.937 93.0666 234.509 92.6984 236.073C92.3302 237.638 90.7585 238.61 89.194 238.242C87.6295 237.874 86.6567 236.302 87.0249 234.738C87.3931 233.173 88.9648 232.2 90.5293 232.569Z" fill="#FFD9EE"/>
<path d="M73.098 316.873L70.3742 312.472C71.9308 311.042 73.3222 309.241 74.5416 307.079L75.6336 310.008C75.8691 310.641 76.3995 311.077 77.0108 311.221C77.3711 311.306 77.7588 311.289 78.1328 311.15C79.1391 310.775 79.65 309.656 79.2744 308.651L76.8273 302.087C76.8269 302.086 76.8264 302.086 76.8266 302.086C76.8411 302.045 76.8581 302.009 76.8731 301.969C77.1561 301.188 77.4617 300.365 77.7719 299.536L82.4414 302.417C82.6253 302.531 82.8193 302.609 83.017 302.656C83.8094 302.842 84.664 302.514 85.1147 301.784C85.6784 300.871 85.3948 299.674 84.4831 299.11L79.2546 295.884C79.2359 295.873 79.2143 295.873 79.1954 295.862C79.9197 294.07 80.7252 292.237 81.5862 290.419L84.4442 292.801C84.6837 293 84.957 293.132 85.2412 293.199C85.9357 293.362 86.6924 293.137 87.1808 292.552C87.8679 291.727 87.7569 290.503 86.9321 289.815L83.5949 287.034C83.5061 286.96 83.399 286.931 83.3023 286.876L85.1186 283.191L89.3601 284.189C90.4054 284.435 91.4505 283.787 91.6963 282.743C91.9421 281.699 91.2956 280.653 90.2502 280.407L86.8816 279.614L87.8368 277.675C88.6046 276.117 89.1869 274.521 89.6135 272.912L92.9014 274.941C93.0852 275.054 93.2793 275.133 93.4769 275.179C94.2693 275.366 95.124 275.037 95.5747 274.308C96.1384 273.395 95.8547 272.198 94.9431 271.634L90.3417 268.794C90.5322 266.483 90.3592 264.186 89.8367 261.965L93.7037 261.049C94.7484 260.802 95.394 259.755 95.1468 258.711C94.8977 257.666 93.8542 257.022 92.8083 257.268L88.5809 258.269C88.5798 258.269 88.5787 258.27 88.5775 258.27C87.9875 256.883 87.3084 255.551 86.4929 254.32L90.3851 251.911C91.2974 251.346 91.5792 250.149 91.0145 249.236C90.4498 248.324 89.2527 248.042 88.3403 248.607L84.0498 251.263C82.676 249.781 81.1258 248.483 79.42 247.388L81.8194 245.903C82.7317 245.338 83.0134 244.141 82.4487 243.229C81.884 242.316 80.6869 242.035 79.7746 242.599L75.4081 245.302C74.5514 244.956 73.6661 244.669 72.7615 244.418C72.7668 244.397 72.7823 244.383 72.7872 244.362L74.1225 238.688C74.3682 237.644 73.7217 236.598 72.6764 236.352C71.631 236.106 70.5859 236.754 70.3401 237.798L69.0048 243.472C68.9897 243.536 69.0073 243.597 68.9986 243.661C68.1502 243.564 67.3013 243.516 66.451 243.51C66.4401 243.491 66.4406 243.469 66.429 243.451L62.0907 236.442C61.526 235.53 60.3289 235.248 59.4166 235.813C58.5043 236.377 58.2225 237.574 58.7872 238.487L62.1089 243.853C60.0391 244.216 58.0731 244.873 56.2411 245.773L51.1386 239.667C50.449 238.842 49.2248 238.735 48.402 239.421C47.5784 240.11 47.4682 241.335 48.1567 242.158L52.8845 247.815C52.2465 248.28 51.6288 248.772 51.0409 249.3L39.5401 248.54C38.47 248.47 37.5447 249.28 37.4737 250.351C37.4103 251.312 38.0569 252.156 38.9651 252.37C39.0677 252.394 39.1747 252.41 39.2842 252.418L47.7231 252.975C46.6367 254.457 45.7166 256.069 44.9802 257.777L41.8589 257.042C40.8145 256.796 39.7684 257.444 39.5226 258.488C39.2768 259.533 39.9243 260.579 40.9687 260.825L43.7317 261.475C43.3989 262.789 43.1741 264.139 43.0639 265.517C42.9209 265.543 42.7766 265.548 42.637 265.609L33.7371 269.502C32.7538 269.931 32.306 271.077 32.7362 272.061C32.9908 272.643 33.4971 273.038 34.0725 273.174C34.4668 273.266 34.8938 273.237 35.2945 273.062L43.0542 269.667L43.3305 273.766C43.3474 274.018 43.3581 274.278 43.3736 274.532L38.1753 276.47C37.17 276.845 36.6591 277.964 37.0337 278.969C37.2696 279.602 37.7996 280.038 38.4109 280.182C38.7712 280.267 39.1598 280.25 39.5329 280.111L43.5526 278.612C43.5745 279.446 43.5875 280.294 43.5934 281.151L35.6063 286.095C34.694 286.659 34.4122 287.856 34.9769 288.769C35.2593 289.225 35.6999 289.524 36.1836 289.637C36.6673 289.751 37.1949 289.68 37.6511 289.398L43.5506 285.747C43.4871 288.366 43.3622 291.103 43.1624 294.024L40.0738 294.755C39.0292 295.002 38.3835 296.049 38.6308 297.093C38.8062 297.834 39.3838 298.374 40.0783 298.537C40.362 298.604 40.6659 298.608 40.9692 298.536L42.869 298.086C42.7293 300.276 42.8079 302.27 43.1121 304.067L41.0556 305.34C40.1433 305.905 39.8615 307.102 40.4262 308.014C40.7086 308.47 41.1492 308.769 41.6329 308.883C42.1165 308.997 42.6442 308.926 43.1004 308.643L44.2445 307.935C45.2055 310.123 46.6495 311.898 48.5835 313.27L47.4167 318.228C47.1709 319.273 47.8174 320.318 48.8628 320.564C49.9081 320.811 50.9532 320.163 51.199 319.118L52.1343 315.145C53.0064 315.478 53.9303 315.769 54.926 316.004C55.4853 316.135 56.0335 316.236 56.5766 316.324L57.3181 319.455C57.4945 320.196 58.0711 320.736 58.7657 320.899C59.0503 320.966 59.3532 320.97 59.6566 320.898C60.7012 320.651 61.3468 319.604 61.0996 318.56L60.6276 316.567C63.0167 316.45 65.2142 315.835 67.2127 314.747L69.7944 318.918C70.0767 319.374 70.5174 319.673 71.001 319.787C71.4847 319.901 72.0123 319.83 72.4685 319.547C73.3809 318.982 73.6625 317.786 73.098 316.873ZM55.8163 312.221C48.7853 310.566 46.0812 306.246 46.7765 297.774C47.5512 288.353 47.6865 280.64 47.2055 273.503L46.8912 268.843C46.2013 258.61 53.2121 249.306 62.8529 247.661C65.5437 247.202 68.2676 247.289 70.9493 247.92C77.8899 249.554 83.3806 254.573 85.6395 261.347C87.1541 265.894 86.6843 271.218 84.3491 275.957L78.6336 287.555C76.4134 292.061 74.6512 296.7 73.2201 300.643C69.7482 310.226 63.8926 314.122 55.8163 312.221Z" fill="#FFD9EE"/>
<path d="M19.4977 241.8C24.7112 243.027 29.952 239.783 31.179 234.569L32.9593 227.004C34.1863 221.791 30.9424 216.55 25.7289 215.323C20.5153 214.096 15.2745 217.34 14.0475 222.554L12.2672 230.118C11.0401 235.332 14.2837 240.573 19.4977 241.8ZM17.8299 223.444C18.5662 220.315 21.7102 218.369 24.8387 219.105C27.9672 219.842 29.9133 222.986 29.177 226.114L27.3966 233.679C26.6604 236.807 23.5163 238.754 20.3878 238.017C17.2593 237.281 15.3133 234.137 16.0495 231.008L17.8299 223.444Z" fill="#FFD9EE"/>
<path d="M29.8629 292.858C27.6533 291.493 25.0457 291.073 22.5225 291.672C19.9972 292.27 17.8566 293.815 16.4943 296.022L12.4126 302.635C11.0501 304.843 10.6284 307.45 11.2269 309.976C11.8247 312.501 13.3702 314.642 15.5775 316.004C16.4828 316.563 17.4559 316.963 18.4615 317.2C19.9092 317.541 21.4282 317.543 22.9179 317.19C25.4432 316.592 27.5838 315.046 28.9461 312.839L33.0278 306.226C34.3902 304.018 34.812 301.412 34.2134 298.886C33.6162 296.36 32.0702 294.22 29.8629 292.858ZM29.7215 304.185L25.6395 310.798C24.822 312.122 23.5378 313.05 22.0223 313.409C20.5051 313.769 18.9422 313.514 17.6191 312.697L17.6182 312.697C16.2942 311.879 15.3664 310.595 15.0076 309.08C14.6487 307.564 14.9017 306.001 15.7195 304.677L19.8014 298.063C20.619 296.739 21.9032 295.811 23.4187 295.452C24.3123 295.24 25.2227 295.241 26.0917 295.446C26.6954 295.588 27.2795 295.829 27.8232 296.164C29.1472 296.982 30.075 298.266 30.4339 299.782C30.7927 301.297 30.5388 302.86 29.7215 304.185Z" fill="#FFD9EE"/>
<path d="M23.7863 226.957C24.903 227.22 26.021 226.528 26.2837 225.411C26.5464 224.295 25.8542 223.176 24.738 222.913C23.6217 222.651 22.5027 223.343 22.2399 224.46C21.9771 225.576 22.67 226.695 23.7863 226.957Z" fill="#FFD9EE"/>
<path d="M20.1149 234.076C21.2316 234.339 22.3496 233.647 22.6123 232.53C22.875 231.414 22.1828 230.295 21.0666 230.033C19.9503 229.77 18.8313 230.462 18.5685 231.579C18.3057 232.696 18.9986 233.814 20.1149 234.076Z" fill="#FFD9EE"/>
<path d="M20.7454 269.091C20.8474 263.734 16.5678 259.287 11.217 259.193L3.44717 259.045C-1.90747 258.944 -6.34787 263.218 -6.45049 268.573C-6.53889 273.227 -3.32288 277.189 1.03582 278.215C1.69348 278.37 2.37636 278.458 3.07789 278.471L10.8478 278.618C16.2025 278.719 20.6429 274.445 20.7454 269.091ZM10.9218 274.733L3.15196 274.585C-0.0599995 274.526 -2.62589 271.859 -2.56585 268.647C-2.50464 265.433 0.159946 262.87 3.37274 262.93L11.1426 263.077C11.5638 263.086 11.9731 263.138 12.3674 263.231C14.9824 263.846 16.9128 266.224 16.8599 269.016C16.7992 272.23 14.1345 274.794 10.9218 274.733Z" fill="#FFD9EE"/>
<path d="M1.98898 265.42C0.894041 265.762 0.283624 266.927 0.625598 268.022C0.967571 269.117 2.13236 269.727 3.22777 269.385C4.32271 269.043 4.93313 267.879 4.59115 266.783C4.24859 265.688 3.08392 265.078 1.98898 265.42Z" fill="#FFD9EE"/>
<path d="M8.71064 267.391C7.6157 267.733 7.00528 268.897 7.34725 269.993C7.68934 271.088 8.85401 271.698 9.94895 271.356C11.0439 271.014 11.6543 269.849 11.3123 268.754C10.9704 267.658 9.80558 267.049 8.71064 267.391Z" fill="#FFD9EE"/>
<path d="M54.8845 255.954C53.7677 255.692 52.6492 256.384 52.3864 257.501C52.1236 258.617 52.816 259.735 53.9327 259.998C55.0495 260.261 56.1675 259.569 56.4302 258.452C56.6929 257.336 56.0012 256.217 54.8845 255.954Z" fill="#FFD9EE"/>
<path d="M66.4424 266.798C66.7052 265.681 66.0129 264.563 64.8967 264.3C63.7804 264.037 62.6614 264.73 62.3986 265.846C62.1358 266.963 62.8282 268.081 63.9449 268.344C65.0617 268.607 66.1796 267.915 66.4424 266.798Z" fill="#FFD9EE"/>
<path d="M56.2071 276.364C56.4699 275.248 55.7776 274.129 54.6613 273.867C53.545 273.604 52.4261 274.296 52.1633 275.413C51.9004 276.53 52.5929 277.648 53.7096 277.91C54.8263 278.173 55.9442 277.481 56.2071 276.364Z" fill="#FFD9EE"/>
<path d="M61.8913 285.548C60.7745 285.285 59.6561 285.978 59.3932 287.094C59.1304 288.211 59.8228 289.329 60.9396 289.592C62.0563 289.855 63.1743 289.162 63.4371 288.046C63.6998 286.93 63.008 285.811 61.8913 285.548Z" fill="#FFD9EE"/>
<path d="M52.5466 291.333C51.4298 291.071 50.3113 291.763 50.0485 292.88C49.7857 293.996 50.4781 295.114 51.5949 295.377C52.7116 295.64 53.8296 294.948 54.0923 293.831C54.355 292.715 53.6633 291.596 52.5466 291.333Z" fill="#FFD9EE"/>
<path d="M77.2339 263.349C77.4967 262.232 76.8044 261.114 75.6882 260.851C74.5719 260.588 73.4529 261.28 73.1901 262.397C72.9273 263.514 73.6197 264.632 74.7365 264.895C75.8532 265.158 76.9711 264.466 77.2339 263.349Z" fill="#FFD9EE"/>
<path d="M73.1276 280.208C72.0109 279.946 70.8924 280.638 70.6296 281.755C70.3667 282.871 71.0592 283.989 72.1759 284.252C73.2927 284.515 74.4107 283.823 74.6734 282.706C74.9361 281.59 74.2444 280.471 73.1276 280.208Z" fill="#FFD9EE"/>
<path d="M69.8886 102.695C74.2136 99.5354 75.1621 93.4452 72.0027 89.1203L67.4186 82.8449C64.2593 78.52 58.1692 77.5715 53.8443 80.7308C49.5193 83.8901 48.5708 89.9803 51.7301 94.3052L56.3142 100.581C59.4738 104.906 65.5633 105.854 69.8886 102.695ZM54.8678 92.0131C52.972 89.4179 53.541 85.7643 56.1363 83.8685C58.7316 81.9727 62.3851 82.5417 64.2809 85.137L68.865 91.4124C70.7609 94.0076 70.1918 97.6612 67.5966 99.557C65.0013 101.453 61.3478 100.884 59.4519 98.2885L54.8678 92.0131Z" fill="#FFD9EE"/>
<path d="M61.4122 89.7776C62.3386 89.1009 62.5406 87.8015 61.8642 86.8754C61.1877 85.9494 59.8877 85.7466 58.9617 86.423C58.0357 87.0995 57.8328 88.3995 58.5096 89.3259C59.1863 90.2523 60.4861 90.4541 61.4122 89.7776Z" fill="#FFD9EE"/>
<path d="M64.4273 97.1995C65.3537 96.5228 65.5557 95.2233 64.8793 94.2973C64.2029 93.3713 62.9028 93.1685 61.9768 93.8449C61.0508 94.5214 60.848 95.8214 61.5247 96.7478C62.2014 97.6742 63.5013 97.876 64.4273 97.1995Z" fill="#FFD9EE"/>
<path d="M255.889 239.695C260.214 236.535 261.162 230.445 258.003 226.12L253.419 219.845C250.259 215.52 244.169 214.571 239.844 217.731C235.519 220.89 234.571 226.98 237.73 231.305L242.314 237.581C245.474 241.906 251.563 242.854 255.889 239.695ZM240.868 229.013C238.972 226.418 239.541 222.764 242.136 220.869C244.732 218.973 248.385 219.542 250.281 222.137L254.865 228.412C256.761 231.008 256.192 234.661 253.597 236.557C251.001 238.453 247.348 237.884 245.452 235.289L240.868 229.013Z" fill="#FFD9EE"/>
<path d="M247.412 226.778C248.339 226.101 248.541 224.801 247.864 223.875C247.188 222.949 245.888 222.747 244.962 223.423C244.036 224.099 243.833 225.4 244.51 226.326C245.186 227.252 246.486 227.454 247.412 226.778Z" fill="#FFD9EE"/>
<path d="M250.427 234.2C251.354 233.523 251.556 232.223 250.879 231.297C250.203 230.371 248.903 230.168 247.977 230.845C247.051 231.521 246.848 232.821 247.525 233.748C248.201 234.674 249.501 234.876 250.427 234.2Z" fill="#FFD9EE"/>
<path d="M778.389 209.86C783.567 211.229 788.895 208.13 790.264 202.952L792.251 195.439C793.621 190.261 790.522 184.933 785.344 183.564C780.166 182.194 774.838 185.293 773.469 190.471L771.482 197.984C770.112 203.163 773.211 208.49 778.389 209.86ZM777.225 191.465C778.047 188.358 781.243 186.499 784.35 187.321C787.458 188.142 789.317 191.339 788.495 194.446L786.508 201.959C785.686 205.066 782.49 206.925 779.383 206.103C776.275 205.281 774.416 202.085 775.238 198.978L777.225 191.465Z" fill="#FFD9EE"/>
<path d="M783.083 195.141C784.192 195.434 785.329 194.773 785.622 193.664C785.915 192.556 785.254 191.418 784.146 191.125C783.037 190.832 781.899 191.493 781.606 192.602C781.313 193.711 781.975 194.848 783.083 195.141Z" fill="#FFD9EE"/>
<path d="M779.218 202.157C780.327 202.45 781.464 201.789 781.757 200.68C782.05 199.571 781.389 198.434 780.28 198.141C779.172 197.847 778.034 198.509 777.741 199.618C777.447 200.727 778.109 201.864 779.218 202.157Z" fill="#FFD9EE"/>
<path d="M239.739 21.7804L236.245 17.9626C237.509 16.2683 238.541 14.24 239.338 11.8891L240.955 14.5643C241.304 15.1418 241.906 15.4723 242.534 15.5001C242.903 15.5165 243.281 15.4278 243.623 15.2217C244.542 14.6668 244.836 13.4722 244.28 12.5539L240.656 6.55906C240.656 6.55856 240.655 6.55854 240.656 6.55805C240.662 6.51557 240.672 6.47663 240.679 6.43417C240.813 5.61452 240.96 4.74881 241.111 3.87696L246.234 5.84068C246.436 5.91817 246.641 5.95935 246.844 5.96834C247.657 6.00438 248.436 5.52304 248.743 4.72229C249.128 3.72027 248.627 2.59685 247.626 2.21218L241.889 0.013195C241.869 0.00547928 241.848 0.00988618 241.827 0.00265442C242.206 -1.89323 242.657 -3.84328 243.165 -5.78983L246.416 -3.98057C246.688 -3.82897 246.981 -3.75034 247.273 -3.73742C247.986 -3.70583 248.687 -4.06807 249.058 -4.73325C249.58 -5.67132 249.244 -6.85406 248.306 -7.37599L244.51 -9.48896C244.409 -9.54546 244.298 -9.55376 244.193 -9.59003L245.293 -13.5485L249.646 -13.3555C250.719 -13.308 251.626 -14.1386 251.673 -15.2105C251.721 -16.2824 250.891 -17.1899 249.818 -17.2374L246.361 -17.3906L246.939 -19.4731C247.404 -21.1464 247.68 -22.8232 247.8 -24.4836L251.408 -23.1009C251.609 -23.0234 251.815 -22.9823 252.018 -22.9733C252.831 -22.9372 253.61 -23.4186 253.917 -24.2193C254.301 -25.2213 253.8 -26.3448 252.8 -26.7294L247.751 -28.665C247.509 -30.9711 246.912 -33.1956 245.986 -35.2815L249.616 -36.8996C250.596 -37.3366 251.036 -38.4854 250.599 -39.4654C250.16 -40.4461 249.015 -40.8848 248.033 -40.4489L244.065 -38.68C244.064 -38.6796 244.063 -38.6786 244.062 -38.6777C243.225 -39.9318 242.31 -41.1139 241.28 -42.1722L244.657 -45.2626C245.449 -45.9869 245.503 -47.2155 244.779 -48.0071C244.054 -48.7986 242.826 -48.853 242.034 -48.1287L238.312 -44.7221C236.686 -45.9226 234.922 -46.9104 233.043 -47.6695L235.124 -49.5745C235.916 -50.2989 235.97 -51.5275 235.246 -52.319C234.522 -53.1105 233.293 -53.165 232.501 -52.4406L228.713 -48.9738C227.807 -49.1544 226.884 -49.2727 225.948 -49.3506C225.95 -49.3719 225.962 -49.3893 225.963 -49.4107L226.221 -55.2335C226.269 -56.3054 225.439 -57.2129 224.366 -57.2605C223.293 -57.308 222.387 -56.4774 222.339 -55.4055L222.081 -49.5827C222.078 -49.5167 222.107 -49.46 222.11 -49.3952C221.259 -49.3328 220.416 -49.2224 219.579 -49.0708C219.565 -49.0875 219.561 -49.1085 219.546 -49.1247L213.982 -55.2056C213.257 -55.9971 212.029 -56.0516 211.237 -55.3272C210.445 -54.6029 210.391 -53.3743 211.115 -52.5827L215.376 -47.9268C213.41 -47.186 211.6 -46.1747 209.967 -44.9504L203.819 -50.0026C202.988 -50.685 201.765 -50.5627 201.085 -49.7353C200.403 -48.9059 200.522 -47.6817 201.352 -47.0008L207.048 -42.3206C206.508 -41.7446 205.992 -41.1466 205.513 -40.5183L194.071 -39.1287C193.006 -38.9994 192.248 -38.031 192.377 -36.9653C192.493 -36.0097 193.285 -35.3002 194.217 -35.2589C194.323 -35.2543 194.431 -35.2582 194.54 -35.2714L202.935 -36.2913C202.143 -34.633 201.538 -32.8789 201.132 -31.0635L197.929 -31.2054C196.857 -31.2529 195.949 -30.4224 195.902 -29.3505C195.854 -28.2786 196.685 -27.3711 197.757 -27.3236L200.592 -27.1979C200.51 -25.8446 200.539 -24.4766 200.687 -23.1024C200.552 -23.0496 200.411 -23.0184 200.285 -22.9326L192.263 -17.4538C191.377 -16.8493 191.149 -15.6401 191.755 -14.7536C192.113 -14.2287 192.684 -13.9346 193.275 -13.9084C193.679 -13.8905 194.093 -13.9985 194.455 -14.2455L201.449 -19.0226L202.481 -15.0465C202.545 -14.8015 202.604 -14.5481 202.666 -14.3012L197.918 -11.4316C197 -10.8767 196.706 -9.68205 197.261 -8.76385C197.61 -8.18634 198.212 -7.8558 198.839 -7.828C199.209 -7.81161 199.588 -7.90033 199.929 -8.10645L203.6 -10.3256C203.776 -9.51071 203.947 -8.68004 204.112 -7.83891L197.182 -1.49736C196.391 -0.773013 196.336 0.455609 197.06 1.24714C197.423 1.6429 197.911 1.85464 198.407 1.87664C198.904 1.89864 199.409 1.73093 199.805 1.36876L204.923 -3.31493C205.348 -0.729544 205.733 1.98348 206.08 4.89019L203.181 6.18237C202.2 6.61927 201.76 7.76809 202.197 8.74816C202.507 9.44354 203.175 9.86646 203.888 9.89805C204.179 9.91095 204.478 9.85858 204.763 9.73166L206.546 8.93651C206.816 11.1144 207.263 13.0591 207.896 14.7679L206.112 16.4007C205.32 17.125 205.266 18.3537 205.99 19.1452C206.352 19.5409 206.841 19.7527 207.337 19.7747C207.834 19.7967 208.339 19.629 208.735 19.2668L209.727 18.3583C211.078 20.3299 212.827 21.8057 214.982 22.7948L214.756 27.883C214.709 28.9549 215.538 29.8624 216.611 29.9099C217.684 29.9575 218.591 29.1269 218.638 28.055L218.819 23.9766C219.738 24.1423 220.7 24.2568 221.722 24.3021C222.296 24.3276 222.853 24.3246 223.403 24.31L224.713 27.2493C225.024 27.9447 225.691 28.3675 226.404 28.3991C226.696 28.4121 226.994 28.3597 227.279 28.2328C228.26 27.7959 228.7 26.647 228.263 25.667L227.429 23.7961C229.755 23.238 231.8 22.2254 233.561 20.7851L236.873 24.4037C237.235 24.7995 237.723 25.0112 238.22 25.0332C238.716 25.0552 239.221 24.8875 239.617 24.5254C240.409 23.8005 240.463 22.5724 239.739 21.7804ZM221.894 20.4198C214.678 20.1 211.218 16.3571 210.328 7.90417C209.339 -1.49685 208.039 -9.10109 206.24 -16.0244L205.066 -20.545C202.487 -30.4716 207.647 -40.9162 216.815 -44.3236C219.373 -45.2745 222.066 -45.6948 224.818 -45.5729C231.941 -45.2572 238.269 -41.3455 241.747 -35.1091C244.08 -30.9227 244.607 -25.6033 243.193 -20.5133L239.732 -8.05543C238.387 -3.21519 237.517 1.66989 236.844 5.81057C235.213 15.8719 230.183 20.7871 221.894 20.4198Z" fill="#FFD9EE"/>
<path d="M192.795 6.21606C190.371 5.28549 187.73 5.35714 185.363 6.41468C182.992 7.47115 181.176 9.38744 180.247 11.8093L177.465 19.0654C176.537 21.4883 176.607 24.1275 177.664 26.4983C178.72 28.8686 180.637 30.6849 183.059 31.6134C184.052 31.9943 185.083 32.2072 186.115 32.253C187.6 32.3188 189.093 32.0383 190.492 31.4148C192.862 30.3583 194.678 28.442 195.607 26.0201L198.389 18.764C199.317 16.3412 199.248 13.702 198.19 11.3311C197.134 8.96082 195.217 7.14456 192.795 6.21606ZM194.761 17.3722L191.979 24.6293C191.421 26.0821 190.332 27.2323 188.909 27.8664C187.485 28.5015 185.902 28.5422 184.45 27.9849L184.449 27.9848C182.997 27.4275 181.846 26.338 181.212 24.9155C180.578 23.493 180.536 21.9106 181.094 20.4568L183.876 13.1997C184.433 11.7469 185.523 10.5967 186.945 9.96254C187.784 9.58839 188.679 9.42043 189.571 9.45995C190.19 9.48741 190.809 9.61547 191.406 9.84416C192.858 10.4015 194.009 11.491 194.643 12.9135C195.277 14.336 195.318 15.9184 194.761 17.3722Z" fill="#FFD9EE"/>
<path d="M190.907 13.0568C189.761 13.006 188.79 13.8941 188.74 15.0402C188.689 16.1863 189.577 17.1562 190.723 17.207C191.869 17.2578 192.839 16.3698 192.89 15.2241C192.941 14.0785 192.053 13.1076 190.907 13.0568Z" fill="#FFD9EE"/>
<path d="M186.767 18.7072C185.621 18.6564 184.651 19.5445 184.6 20.6906C184.549 21.8367 185.437 22.8066 186.583 22.8574C187.729 22.9082 188.699 22.0202 188.75 20.8745C188.801 19.7289 187.913 18.758 186.767 18.7072Z" fill="#FFD9EE"/>
<path d="M256.453 23.6307C253.914 23.1385 251.32 23.6605 249.168 25.1112L242.722 29.4555C240.572 30.9063 239.115 33.1074 238.619 35.6539C238.124 38.2015 238.649 40.789 240.1 42.9405C241.551 45.092 243.752 46.5503 246.299 47.0459C246.779 47.1391 247.263 47.197 247.744 47.2183C249.809 47.3098 251.839 46.7415 253.583 45.5654L260.03 41.2211C262.179 39.7702 263.637 37.5692 264.133 35.0227C264.628 32.4751 264.102 29.8876 262.652 27.7361C261.201 25.5846 259 24.1263 256.453 23.6307ZM260.318 34.2799C260.021 35.8079 259.148 37.1291 257.857 37.9986L251.413 42.343C250.121 43.2144 248.565 43.5271 247.04 43.2319C245.512 42.9343 244.191 42.0595 243.322 40.768C242.45 39.477 242.136 37.9247 242.433 36.3967C242.73 34.8686 243.603 33.5475 244.894 32.678L251.338 28.3336C252.386 27.6278 253.605 27.2871 254.843 27.3419C255.133 27.3548 255.421 27.3885 255.712 27.4451C257.239 27.7428 258.56 28.6176 259.429 29.909C260.301 31.1996 260.616 32.7519 260.318 34.2799Z" fill="#FFD9EE"/>
<path d="M247.123 38.8401C248.261 38.6918 249.063 37.6493 248.915 36.5115C248.767 35.3737 247.724 34.5716 246.587 34.7198C245.449 34.8681 244.647 35.9106 244.795 37.0484C244.943 38.1862 245.986 38.9884 247.123 38.8401Z" fill="#FFD9EE"/>
<path d="M253.758 36.5882C254.895 36.4399 255.698 35.3973 255.549 34.2596C255.401 33.1218 254.359 32.3196 253.221 32.4679C252.083 32.6161 251.281 33.6587 251.429 34.7965C251.577 35.9342 252.62 36.7364 253.758 36.5882Z" fill="#FFD9EE"/>
<path d="M226.188 6.84002C225.042 6.78923 224.072 7.67728 224.021 8.82341C223.97 9.96953 224.858 10.9395 226.004 10.9902C227.15 11.041 228.12 10.153 228.171 9.00732C228.222 7.86168 227.334 6.89081 226.188 6.84002Z" fill="#FFD9EE"/>
<path d="M214.8 0.502125C213.654 0.451335 212.684 1.33939 212.633 2.48551C212.582 3.63164 213.47 4.60156 214.617 4.65235C215.763 4.70314 216.733 3.81507 216.783 2.66943C216.834 1.52379 215.947 0.552916 214.8 0.502125Z" fill="#FFD9EE"/>
<path d="M539.391 51.533L536.785 52.4966C536.199 51.525 535.399 50.6006 534.392 49.7282L536.05 49.4662C536.407 49.4098 536.694 49.1773 536.835 48.871C536.918 48.6904 536.95 48.4846 536.917 48.273C536.827 47.7035 536.293 47.3152 535.724 47.4056L532.009 47.9927C532.008 47.9929 532.008 47.9931 532.008 47.993C531.988 47.981 531.971 47.9682 531.951 47.956C531.571 47.7237 531.17 47.4751 530.767 47.2234L532.782 45.0739C532.861 44.9893 532.923 44.8955 532.969 44.7965C533.151 44.3994 533.07 43.9147 532.734 43.5997C532.314 43.2056 531.654 43.2271 531.26 43.6467L529.004 46.0535C528.996 46.0622 528.994 46.0735 528.986 46.0823C528.12 45.5099 527.242 44.8906 526.377 44.2434L527.935 42.9937C528.066 42.889 528.164 42.7592 528.23 42.6169C528.39 42.2689 528.352 41.8466 528.096 41.5273C527.736 41.0777 527.08 41.0054 526.63 41.366L524.81 42.8253C524.762 42.8641 524.735 42.9173 524.696 42.9623L522.951 41.6133L523.929 39.488C524.17 38.9642 523.94 38.3452 523.417 38.1044C522.894 37.8636 522.274 38.0922 522.033 38.616L521.257 40.3039L520.338 39.5944C519.601 39.0241 518.823 38.5474 518.022 38.1512L519.44 36.6376C519.519 36.553 519.581 36.4593 519.627 36.3603C519.81 35.9632 519.728 35.4785 519.392 35.1634C518.972 34.7694 518.312 34.7909 517.918 35.2104L515.932 37.3286C514.737 36.9817 513.51 36.8276 512.285 36.8655L512.216 34.7329C512.197 34.1569 511.715 33.7054 511.14 33.7241C510.563 33.7436 510.113 34.224 510.131 34.8005L510.206 37.1318C510.206 37.1324 510.207 37.1331 510.207 37.1338C509.414 37.2961 508.64 37.5114 507.906 37.8091L507.053 35.5039C506.853 34.9636 506.254 34.6876 505.713 34.8874C505.173 35.0872 504.897 35.687 505.097 36.2273L506.036 38.7684C505.11 39.3332 504.262 40.0103 503.503 40.791L502.978 39.37C502.778 38.8297 502.178 38.5537 501.638 38.7535C501.098 38.9532 500.822 39.5531 501.021 40.0934L501.978 42.6794C501.704 43.0933 501.458 43.5285 501.23 43.9778C501.22 43.9727 501.214 43.963 501.203 43.9582L498.36 42.6501C497.837 42.4093 497.218 42.6379 496.977 43.1617C496.736 43.6855 496.965 44.3046 497.488 44.5454L500.331 45.8535C500.363 45.8683 500.397 45.8656 500.43 45.877C500.289 46.3131 500.173 46.7546 500.079 47.2013C500.067 47.2051 500.056 47.2025 500.045 47.2066L495.894 48.7414C495.354 48.9412 495.078 49.541 495.278 50.0814C495.478 50.6217 496.077 50.8977 496.618 50.6979L499.796 49.5228C499.766 50.6506 499.902 51.7553 500.18 52.8152L496.422 54.8485C495.915 55.1233 495.728 55.756 496.001 56.2622C496.275 56.7691 496.908 56.9578 497.415 56.6834L500.896 54.7993C501.073 55.1847 501.266 55.5623 501.481 55.928L499.854 61.8985C499.702 62.454 500.03 63.0274 500.586 63.1791C501.085 63.3149 501.598 63.0648 501.807 62.6097C501.831 62.5583 501.851 62.5038 501.867 62.4469L503.06 58.0659C503.725 58.7958 504.474 59.4519 505.294 60.0216L504.575 61.5857C504.334 62.109 504.563 62.7286 505.086 62.9693C505.61 63.2101 506.229 62.9811 506.47 62.4577L507.107 61.0733C507.763 61.3886 508.449 61.651 509.163 61.856C509.161 61.9341 509.148 62.0105 509.166 62.0904L510.264 67.189C510.385 67.7522 510.94 68.1102 511.504 67.9887C511.837 67.9169 512.099 67.6927 512.232 67.4043C512.323 67.2068 512.353 66.9789 512.303 66.7494L511.345 62.304L513.532 62.596C513.666 62.6141 513.804 62.6362 513.94 62.6552L514.404 65.5973C514.494 66.1662 515.029 66.5545 515.598 66.4647C515.956 66.408 516.242 66.1758 516.383 65.8694C516.466 65.6889 516.498 65.4826 516.465 65.2714L516.106 62.9964C516.546 63.0738 516.994 63.1574 517.446 63.2458L519.195 67.9762C519.394 68.5165 519.994 68.7925 520.535 68.5927C520.805 68.4928 521.009 68.2929 521.12 68.0505C521.232 67.8082 521.251 67.5229 521.151 67.2528L519.859 63.7588C521.231 64.0718 522.658 64.4296 524.173 64.8464L524.228 66.5496C524.247 67.1257 524.729 67.5772 525.305 67.5585C525.713 67.5453 526.059 67.2989 526.219 66.9509C526.285 66.8088 526.319 66.6493 526.314 66.482L526.28 65.4344C527.417 65.7416 528.475 65.913 529.453 65.9447L529.903 67.1627C530.103 67.703 530.703 67.979 531.243 67.7792C531.513 67.6793 531.717 67.4793 531.829 67.237C531.94 66.9946 531.959 66.7094 531.859 66.4393L531.609 65.7616C532.863 65.4895 533.951 64.9191 534.879 64.0479L537.364 65.1909C537.887 65.4317 538.506 65.2031 538.747 64.6793C538.988 64.1555 538.759 63.5365 538.236 63.2957L536.244 62.3795C536.513 61.9562 536.765 61.5011 536.994 61.0022C537.123 60.7219 537.235 60.4442 537.339 60.1678L539.066 60.1118C539.475 60.0981 539.82 59.8523 539.98 59.5042C540.046 59.3616 540.08 59.2026 540.075 59.0354C540.056 58.4593 539.574 58.0078 538.998 58.0265L537.899 58.0621C538.093 56.7926 538.004 55.5706 537.644 54.4029L540.115 53.4896C540.385 53.3897 540.589 53.1897 540.701 52.9474C540.812 52.705 540.831 52.4198 540.731 52.1497C540.531 51.6092 539.932 51.3333 539.391 51.533ZM535.099 60.13C533.478 63.6531 530.916 64.6149 526.533 63.345C521.658 61.9319 517.614 61.0376 513.807 60.529L511.321 60.1971C505.863 59.4681 501.716 54.7861 501.879 49.5376C501.925 48.0728 502.261 46.6488 502.879 45.3051C504.48 41.8273 507.707 39.4738 511.512 39.008C514.066 38.6963 516.818 39.5118 519.062 41.2463L524.555 45.4914C526.689 47.1406 528.942 48.5629 530.864 49.7367C535.536 52.5863 536.961 56.0832 535.099 60.13Z" fill="#FFD9EE"/>
<path d="M505.393 54.6157C505.136 55.1752 505.38 55.8377 505.94 56.0951C506.5 56.3526 507.162 56.1076 507.419 55.548C507.677 54.9884 507.432 54.3262 506.872 54.0689C506.313 53.8115 505.65 54.0561 505.393 54.6157Z" fill="#FFD9EE"/>
<path d="M512.332 49.6919C511.773 49.4344 511.11 49.6794 510.853 50.2387C510.596 50.798 510.84 51.4607 511.4 51.7182C511.96 51.9756 512.622 51.7306 512.879 51.171C513.137 50.6115 512.892 49.9494 512.332 49.6919Z" fill="#FFD9EE"/>
<path d="M516.274 56.0982C515.715 55.8407 515.052 56.0856 514.795 56.645C514.537 57.2043 514.782 57.867 515.342 58.1244C515.901 58.3819 516.564 58.1369 516.821 57.5773C517.079 57.0177 516.834 56.3556 516.274 56.0982Z" fill="#FFD9EE"/>
<path d="M521.713 54.0864C521.455 54.6459 521.7 55.3084 522.26 55.5658C522.819 55.8233 523.482 55.5783 523.739 55.0187C523.997 54.4591 523.752 53.7969 523.192 53.5396C522.633 53.2822 521.97 53.5268 521.713 54.0864Z" fill="#FFD9EE"/>
<path d="M523.76 59.6215C523.502 60.1811 523.747 60.8435 524.307 61.101C524.866 61.3585 525.528 61.1134 525.786 60.5538C526.043 59.9943 525.798 59.3321 525.239 59.0747C524.68 58.8174 524.017 59.0619 523.76 59.6215Z" fill="#FFD9EE"/>
<path d="M511.669 43.645C511.11 43.3876 510.447 43.6325 510.19 44.1918C509.932 44.7512 510.177 45.4138 510.737 45.6713C511.296 45.9288 511.959 45.6837 512.216 45.1242C512.474 44.5646 512.229 43.9025 511.669 43.645Z" fill="#FFD9EE"/>
<path d="M520.102 47.6039C519.845 48.1635 520.09 48.8259 520.649 49.0834C521.209 49.3409 521.871 49.0958 522.129 48.5363C522.386 47.9767 522.141 47.3145 521.582 47.0571C521.022 46.7998 520.36 47.0444 520.102 47.6039Z" fill="#FFD9EE"/>
<path d="M833.518 363.209L831.221 357.395C833.405 356.102 835.474 354.335 837.416 352.103L838.079 355.797C838.222 356.594 838.762 357.235 839.464 357.553C839.878 357.74 840.347 357.815 840.827 357.744C842.118 357.552 842.978 356.367 842.75 355.099L841.263 346.821C841.262 346.82 841.262 346.82 841.262 346.819C841.289 346.775 841.317 346.737 841.344 346.693C841.856 345.849 842.405 344.96 842.961 344.067L847.929 348.579C848.125 348.757 848.34 348.897 848.567 348.999C849.477 349.411 850.576 349.236 851.278 348.493C852.157 347.562 852.081 346.092 851.111 345.209L845.548 340.156C845.528 340.138 845.502 340.134 845.482 340.116C846.747 338.196 848.119 336.249 849.555 334.332L852.459 337.817C852.702 338.109 853.001 338.33 853.328 338.478C854.125 338.839 855.084 338.76 855.799 338.195C856.806 337.398 856.944 335.938 856.105 334.933L852.714 330.863C852.624 330.754 852.502 330.694 852.398 330.606L855.393 326.738L860.264 328.943C861.464 329.486 862.862 328.984 863.388 327.822C863.914 326.66 863.369 325.278 862.168 324.735L858.3 322.984L859.875 320.949C861.141 319.314 862.193 317.588 863.061 315.81L866.559 318.987C866.755 319.165 866.97 319.305 867.197 319.407C868.107 319.819 869.206 319.644 869.908 318.901C870.787 317.97 870.711 316.5 869.741 315.617L864.845 311.17C865.584 308.513 865.884 305.783 865.748 303.056L870.593 302.93C871.901 302.896 872.908 301.829 872.842 300.547C872.774 299.263 871.664 298.255 870.354 298.287L865.058 298.424C865.056 298.425 865.055 298.425 865.053 298.426C864.652 296.658 864.131 294.934 863.424 293.294L868.629 291.426C869.849 290.989 870.452 289.657 869.975 288.451C869.499 287.246 868.124 286.624 866.904 287.061L861.167 289.12C859.845 287.051 858.271 285.153 856.465 283.454L859.674 282.303C860.894 281.865 861.497 280.534 861.021 279.328C860.544 278.123 859.17 277.5 857.95 277.938L852.11 280.033C851.158 279.419 850.159 278.866 849.129 278.352C849.14 278.329 849.161 278.315 849.172 278.292L852.029 271.98C852.555 270.819 852.01 269.437 850.809 268.893C849.609 268.35 848.211 268.852 847.685 270.014L844.828 276.326C844.796 276.398 844.803 276.473 844.779 276.547C843.782 276.226 842.773 275.962 841.754 275.747C841.745 275.722 841.75 275.697 841.741 275.672L838.082 266.411C837.606 265.206 836.231 264.583 835.011 265.021C833.791 265.459 833.188 266.791 833.664 267.996L836.466 275.087C833.901 275.005 831.395 275.294 828.997 275.899L824.222 267.507C823.576 266.373 822.13 265.949 820.991 266.551C819.85 267.155 819.447 268.561 820.092 269.693L824.517 277.467C823.648 277.856 822.798 278.28 821.975 278.755L808.337 275.054C807.068 274.71 805.778 275.432 805.456 276.668C805.168 277.776 805.757 278.922 806.8 279.394C806.918 279.448 807.043 279.493 807.173 279.528L817.18 282.243C815.548 283.712 814.088 285.372 812.826 287.191L809.241 285.569C808.042 285.026 806.643 285.528 806.117 286.69C805.591 287.852 806.137 289.234 807.337 289.777L810.51 291.213C809.82 292.669 809.252 294.194 808.815 295.779C808.637 295.775 808.463 295.745 808.282 295.782L796.738 298.162C795.462 298.424 794.671 299.655 794.971 300.911C795.148 301.655 795.668 302.241 796.329 302.54C796.782 302.745 797.301 302.815 797.82 302.707L807.886 300.632L807.312 305.496C807.276 305.795 807.231 306.102 807.194 306.403L800.525 307.399C799.236 307.592 798.375 308.777 798.603 310.045C798.746 310.842 799.286 311.482 799.988 311.8C800.401 311.988 800.872 312.063 801.35 311.991L806.507 311.22C806.349 312.201 806.177 313.196 805.995 314.201L795.314 318.033C794.094 318.47 793.491 319.802 793.967 321.008C794.206 321.61 794.668 322.068 795.224 322.319C795.779 322.571 796.429 322.617 797.039 322.398L804.928 319.568C804.272 322.617 803.518 325.789 802.632 329.157L798.763 329.258C797.454 329.292 796.448 330.359 796.514 331.641C796.561 332.551 797.135 333.323 797.932 333.684C798.258 333.832 798.622 333.911 799.002 333.901L801.382 333.839C800.73 336.367 800.384 338.719 800.352 340.896L797.602 341.883C796.382 342.32 795.779 343.652 796.255 344.858C796.493 345.46 796.956 345.918 797.512 346.169C798.067 346.42 798.716 346.466 799.326 346.248L800.856 345.699C801.526 348.494 802.867 350.923 804.886 353.002L802.389 358.517C801.863 359.679 802.408 361.061 803.609 361.604C804.809 362.148 806.207 361.645 806.733 360.483L808.734 356.063C809.707 356.666 810.752 357.233 811.895 357.75C812.538 358.041 813.174 358.293 813.806 358.528L814.004 362.373C814.052 363.284 814.625 364.056 815.423 364.417C815.75 364.565 816.112 364.643 816.492 364.633C817.801 364.6 818.808 363.532 818.741 362.25L818.615 359.803C821.509 360.25 824.283 360.068 826.923 359.284L829.1 364.795C829.338 365.397 829.801 365.855 830.356 366.106C830.912 366.358 831.561 366.404 832.171 366.185C833.391 365.746 833.994 364.415 833.518 363.209ZM813.8 353.542C805.726 349.887 803.435 344.171 806.142 334.429C809.154 323.595 811.021 314.604 812.021 306.136L812.674 300.606C814.108 288.465 824.58 279.292 836.517 279.724C839.849 279.845 843.099 280.612 846.179 282.006C854.15 285.614 859.632 292.829 860.846 301.307C861.659 306.997 859.919 313.113 856.068 318.086L846.643 330.259C842.982 334.989 839.841 339.985 837.252 344.25C830.966 354.614 823.075 357.74 813.8 353.542Z" fill="#FFD9EE"/>
<path d="M825.119 287.481C823.836 286.9 822.34 287.437 821.778 288.679C821.216 289.922 821.8 291.399 823.082 291.98C824.365 292.56 825.86 292.023 826.422 290.781C826.984 289.54 826.401 288.061 825.119 287.481Z" fill="#FFD9EE"/>
<path d="M519.44 288.468L515.512 289.92C514.628 288.456 513.424 287.062 511.905 285.748L514.404 285.353C514.943 285.268 515.375 284.917 515.587 284.456C515.712 284.184 515.761 283.873 515.711 283.554C515.576 282.696 514.77 282.111 513.913 282.247L508.314 283.132C508.313 283.132 508.313 283.133 508.313 283.132C508.283 283.114 508.257 283.095 508.227 283.077C507.653 282.727 507.05 282.352 506.442 281.973L509.479 278.733C509.598 278.605 509.692 278.464 509.76 278.315C510.036 277.716 509.913 276.986 509.407 276.511C508.773 275.917 507.778 275.95 507.184 276.582L503.785 280.209C503.773 280.222 503.77 280.24 503.758 280.253C502.453 279.39 501.129 278.457 499.826 277.481L502.174 275.598C502.371 275.44 502.519 275.244 502.618 275.03C502.859 274.505 502.802 273.869 502.417 273.388C501.874 272.71 500.885 272.601 500.207 273.145L497.464 275.344C497.391 275.402 497.351 275.483 497.292 275.55L494.662 273.517L496.135 270.314C496.499 269.525 496.153 268.592 495.364 268.229C494.576 267.866 493.642 268.21 493.279 269L492.108 271.544L490.725 270.474C489.613 269.615 488.44 268.896 487.233 268.299L489.37 266.018C489.49 265.891 489.584 265.749 489.652 265.6C489.928 265.002 489.805 264.271 489.299 263.796C488.665 263.202 487.67 263.235 487.076 263.867L484.084 267.06C482.282 266.537 480.433 266.305 478.587 266.362L478.483 263.148C478.455 262.279 477.728 261.599 476.86 261.627C475.992 261.656 475.313 262.38 475.34 263.249L475.454 266.763C475.454 266.764 475.454 266.765 475.455 266.766C474.259 267.011 473.094 267.335 471.986 267.784L470.702 264.309C470.401 263.495 469.497 263.079 468.682 263.38C467.868 263.681 467.452 264.585 467.753 265.4L469.169 269.23C467.773 270.081 466.494 271.101 465.351 272.278L464.56 270.136C464.259 269.322 463.354 268.906 462.54 269.207C461.726 269.508 461.31 270.412 461.611 271.227L463.052 275.124C462.64 275.748 462.269 276.404 461.925 277.081C461.91 277.073 461.901 277.059 461.885 277.051L457.6 275.08C456.811 274.717 455.878 275.062 455.515 275.851C455.152 276.64 455.497 277.573 456.286 277.936L460.571 279.908C460.619 279.93 460.67 279.926 460.72 279.943C460.507 280.601 460.332 281.266 460.19 281.939C460.173 281.945 460.156 281.941 460.14 281.947L453.884 284.26C453.069 284.561 452.653 285.466 452.954 286.28C453.255 287.094 454.159 287.51 454.974 287.209L459.764 285.438C459.719 287.138 459.924 288.803 460.343 290.4L454.679 293.465C453.914 293.879 453.632 294.832 454.045 295.595C454.458 296.359 455.412 296.644 456.175 296.23L461.422 293.391C461.689 293.971 461.979 294.54 462.304 295.092L459.851 304.09C459.623 304.927 460.117 305.792 460.955 306.02C461.706 306.225 462.48 305.848 462.796 305.162C462.831 305.085 462.861 305.002 462.885 304.917L464.684 298.314C465.685 299.414 466.815 300.403 468.051 301.261L466.966 303.619C466.604 304.407 466.949 305.341 467.738 305.704C468.526 306.067 469.46 305.722 469.823 304.933L470.783 302.846C471.772 303.322 472.806 303.717 473.881 304.026C473.879 304.144 473.859 304.259 473.885 304.379L475.541 312.064C475.724 312.913 476.56 313.452 477.41 313.269C477.912 313.161 478.307 312.823 478.507 312.388C478.644 312.09 478.69 311.747 478.615 311.401L477.171 304.701L480.466 305.141C480.669 305.169 480.877 305.202 481.081 305.231L481.781 309.665C481.917 310.522 482.722 311.107 483.58 310.972C484.119 310.887 484.55 310.537 484.763 310.075C484.888 309.803 484.937 309.492 484.887 309.174L484.345 305.745C485.009 305.861 485.684 305.988 486.365 306.121L489.001 313.25C489.302 314.064 490.206 314.48 491.02 314.179C491.427 314.029 491.735 313.727 491.903 313.362C492.071 312.997 492.1 312.567 491.949 312.16L490.003 306.894C492.07 307.366 494.22 307.905 496.504 308.533L496.587 311.1C496.615 311.968 497.342 312.649 498.21 312.621C498.826 312.601 499.346 312.229 499.588 311.705C499.686 311.491 499.738 311.25 499.73 310.998L499.679 309.419C501.393 309.882 502.987 310.141 504.461 310.188L505.14 312.024C505.441 312.838 506.345 313.254 507.159 312.953C507.566 312.803 507.874 312.501 508.042 312.136C508.21 311.771 508.239 311.341 508.088 310.934L507.711 309.912C509.601 309.502 511.241 308.643 512.64 307.33L516.384 309.052C517.173 309.415 518.106 309.071 518.469 308.281C518.833 307.492 518.487 306.559 517.698 306.196L514.697 304.815C515.102 304.177 515.482 303.491 515.828 302.739C516.022 302.317 516.19 301.898 516.347 301.482L518.95 301.397C519.566 301.377 520.086 301.006 520.328 300.482C520.426 300.267 520.478 300.027 520.47 299.775C520.442 298.907 519.716 298.226 518.848 298.254L517.191 298.308C517.483 296.395 517.349 294.553 516.807 292.793L520.53 291.417C520.937 291.266 521.245 290.965 521.413 290.599C521.581 290.234 521.61 289.804 521.46 289.397C521.158 288.583 520.254 288.167 519.44 288.468ZM512.971 301.425C510.528 306.735 506.666 308.184 500.06 306.27C492.713 304.14 486.618 302.793 480.881 302.026L477.134 301.526C468.908 300.427 462.657 293.371 462.903 285.46C462.972 283.253 463.479 281.106 464.411 279.081C466.823 273.84 471.686 270.293 477.422 269.591C481.271 269.121 485.419 270.35 488.801 272.964L497.08 279.362C500.296 281.848 503.691 283.991 506.588 285.76C513.63 290.055 515.777 295.326 512.971 301.425Z" fill="#FFD9EE"/>
<path d="M468.199 293.114C467.811 293.957 468.18 294.955 469.024 295.343C469.867 295.731 470.865 295.362 471.253 294.519C471.641 293.675 471.272 292.677 470.429 292.289C469.586 291.902 468.587 292.27 468.199 293.114Z" fill="#FFD9EE"/>
<path d="M478.658 285.694C477.815 285.306 476.816 285.675 476.428 286.518C476.04 287.361 476.409 288.36 477.253 288.748C478.096 289.136 479.094 288.766 479.482 287.923C479.87 287.08 479.501 286.082 478.658 285.694Z" fill="#FFD9EE"/>
<path d="M492.796 292.317C492.408 293.16 492.777 294.158 493.62 294.546C494.464 294.934 495.462 294.565 495.85 293.722C496.238 292.878 495.869 291.88 495.026 291.493C494.183 291.105 493.184 291.473 492.796 292.317Z" fill="#FFD9EE"/>
<path d="M477.659 276.58C476.815 276.192 475.817 276.562 475.429 277.405C475.041 278.248 475.41 279.246 476.254 279.634C477.097 280.022 478.095 279.653 478.483 278.81C478.871 277.966 478.502 276.968 477.659 276.58Z" fill="#FFD9EE"/>
<path d="M490.369 282.547C489.981 283.39 490.35 284.389 491.193 284.777C492.036 285.165 493.035 284.796 493.423 283.952C493.811 283.109 493.441 282.111 492.598 281.723C491.755 281.335 490.757 281.704 490.369 282.547Z" fill="#FFD9EE"/>
<path d="M1010.39 198.533L1007.78 199.497C1007.2 198.525 1006.4 197.601 1005.39 196.728L1007.05 196.466C1007.41 196.41 1007.69 196.177 1007.83 195.871C1007.92 195.69 1007.95 195.485 1007.92 195.273C1007.83 194.704 1007.29 194.315 1006.72 194.406L1003.01 194.993C1003.01 194.993 1003.01 194.993 1003.01 194.993C1002.99 194.981 1002.97 194.968 1002.95 194.956C1002.57 194.724 1002.17 194.475 1001.77 194.223L1003.78 192.074C1003.86 191.989 1003.92 191.896 1003.97 191.797C1004.15 191.399 1004.07 190.915 1003.73 190.6C1003.31 190.206 1002.65 190.227 1002.26 190.647L1000 193.054C999.996 193.062 999.994 193.074 999.986 193.082C999.12 192.51 998.242 191.891 997.377 191.243L998.935 189.994C999.066 189.889 999.164 189.759 999.23 189.617C999.39 189.269 999.352 188.847 999.096 188.527C998.736 188.078 998.08 188.005 997.63 188.366L995.81 189.825C995.762 189.864 995.735 189.917 995.696 189.962L993.951 188.613L994.929 186.488C995.17 185.964 994.94 185.345 994.417 185.104C993.894 184.864 993.274 185.092 993.033 185.616L992.257 187.304L991.338 186.594C990.601 186.024 989.823 185.547 989.022 185.151L990.44 183.638C990.519 183.553 990.581 183.459 990.627 183.36C990.81 182.963 990.728 182.478 990.392 182.163C989.972 181.769 989.312 181.791 988.918 182.21L986.932 184.329C985.737 183.982 984.51 183.828 983.285 183.865L983.216 181.733C983.197 181.157 982.715 180.705 982.14 180.724C981.563 180.744 981.113 181.224 981.131 181.801L981.206 184.132C981.206 184.132 981.207 184.133 981.207 184.134C980.414 184.296 979.64 184.511 978.906 184.809L978.053 182.504C977.853 181.964 977.254 181.688 976.713 181.887C976.173 182.087 975.897 182.687 976.097 183.227L977.036 185.768C976.11 186.333 975.262 187.01 974.503 187.791L973.978 186.37C973.778 185.83 973.178 185.554 972.638 185.753C972.098 185.953 971.822 186.553 972.021 187.093L972.978 189.679C972.704 190.093 972.458 190.528 972.23 190.978C972.22 190.973 972.214 190.963 972.203 190.958L969.36 189.65C968.837 189.409 968.218 189.638 967.977 190.162C967.736 190.686 967.965 191.305 968.488 191.545L971.331 192.853C971.363 192.868 971.397 192.866 971.43 192.877C971.289 193.313 971.173 193.755 971.079 194.201C971.067 194.205 971.056 194.203 971.045 194.207L966.894 195.741C966.354 195.941 966.078 196.541 966.278 197.081C966.478 197.622 967.077 197.898 967.618 197.698L970.796 196.523C970.766 197.651 970.902 198.755 971.18 199.815L967.422 201.848C966.915 202.123 966.728 202.756 967.001 203.262C967.275 203.769 967.908 203.958 968.415 203.683L971.896 201.799C972.073 202.185 972.266 202.562 972.481 202.928L970.854 208.898C970.702 209.454 971.03 210.027 971.586 210.179C972.085 210.315 972.598 210.065 972.807 209.61C972.831 209.558 972.851 209.504 972.867 209.447L974.06 205.066C974.725 205.796 975.474 206.452 976.294 207.022L975.575 208.586C975.334 209.109 975.563 209.729 976.086 209.969C976.61 210.21 977.229 209.981 977.47 209.458L978.107 208.073C978.763 208.389 979.449 208.651 980.163 208.856C980.161 208.934 980.148 209.01 980.166 209.09L981.264 214.189C981.385 214.752 981.94 215.11 982.504 214.989C982.837 214.917 983.099 214.693 983.232 214.404C983.323 214.207 983.353 213.979 983.303 213.749L982.345 209.304L984.532 209.596C984.666 209.614 984.804 209.636 984.94 209.655L985.404 212.597C985.494 213.166 986.029 213.555 986.598 213.465C986.956 213.408 987.242 213.176 987.383 212.869C987.466 212.689 987.498 212.483 987.465 212.271L987.106 209.996C987.546 210.074 987.994 210.157 988.446 210.246L990.195 214.976C990.394 215.517 990.994 215.793 991.535 215.593C991.805 215.493 992.009 215.293 992.12 215.051C992.232 214.808 992.251 214.523 992.151 214.253L990.859 210.759C992.231 211.072 993.658 211.43 995.173 211.846L995.228 213.55C995.247 214.126 995.729 214.577 996.305 214.559C996.713 214.545 997.059 214.299 997.219 213.951C997.285 213.809 997.319 213.649 997.314 213.482L997.28 212.434C998.417 212.742 999.475 212.913 1000.45 212.945L1000.9 214.163C1001.1 214.703 1001.7 214.979 1002.24 214.779C1002.51 214.679 1002.72 214.479 1002.83 214.237C1002.94 213.995 1002.96 213.709 1002.86 213.439L1002.61 212.762C1003.86 212.489 1004.95 211.919 1005.88 211.048L1008.36 212.191C1008.89 212.432 1009.51 212.203 1009.75 211.679C1009.99 211.156 1009.76 210.536 1009.24 210.296L1007.24 209.379C1007.51 208.956 1007.76 208.501 1007.99 208.002C1008.12 207.722 1008.23 207.444 1008.34 207.168L1010.07 207.112C1010.47 207.098 1010.82 206.852 1010.98 206.504C1011.05 206.362 1011.08 206.203 1011.07 206.035C1011.06 205.459 1010.57 205.008 1010 205.026L1008.9 205.062C1009.09 203.793 1009 202.571 1008.64 201.403L1011.11 200.49C1011.38 200.39 1011.59 200.19 1011.7 199.947C1011.81 199.705 1011.83 199.42 1011.73 199.15C1011.53 198.609 1010.93 198.333 1010.39 198.533ZM1006.1 207.13C1004.48 210.653 1001.92 211.615 997.533 210.345C992.658 208.932 988.614 208.038 984.807 207.529L982.321 207.197C976.863 206.468 972.716 201.786 972.879 196.538C972.925 195.073 973.261 193.649 973.879 192.305C975.48 188.827 978.707 186.474 982.512 186.008C985.066 185.696 987.818 186.512 990.062 188.246L995.555 192.491C997.689 194.141 999.942 195.563 1001.86 196.737C1006.54 199.586 1007.96 203.083 1006.1 207.13Z" fill="#FFD9EE"/>
<path d="M976.393 201.616C976.136 202.175 976.38 202.838 976.94 203.095C977.5 203.353 978.162 203.108 978.419 202.548C978.677 201.988 978.432 201.326 977.872 201.069C977.313 200.812 976.65 201.056 976.393 201.616Z" fill="#FFD9EE"/>
<path d="M983.332 196.692C982.773 196.434 982.11 196.679 981.853 197.239C981.596 197.798 981.84 198.461 982.4 198.718C982.96 198.976 983.622 198.731 983.879 198.171C984.137 197.611 983.892 196.949 983.332 196.692Z" fill="#FFD9EE"/>
<path d="M987.274 203.098C986.715 202.841 986.052 203.086 985.795 203.645C985.537 204.204 985.782 204.867 986.342 205.124C986.901 205.382 987.564 205.137 987.821 204.577C988.079 204.018 987.834 203.356 987.274 203.098Z" fill="#FFD9EE"/>
<path d="M992.713 201.086C992.455 201.646 992.7 202.308 993.26 202.566C993.819 202.823 994.482 202.578 994.739 202.019C994.997 201.459 994.752 200.797 994.192 200.54C993.633 200.282 992.97 200.527 992.713 201.086Z" fill="#FFD9EE"/>
<path d="M994.76 206.622C994.502 207.181 994.747 207.844 995.307 208.101C995.866 208.358 996.528 208.113 996.786 207.554C997.043 206.994 996.798 206.332 996.239 206.075C995.68 205.817 995.017 206.062 994.76 206.622Z" fill="#FFD9EE"/>
<path d="M982.669 190.645C982.11 190.388 981.447 190.632 981.19 191.192C980.932 191.751 981.177 192.414 981.737 192.671C982.296 192.929 982.959 192.684 983.216 192.124C983.474 191.565 983.229 190.903 982.669 190.645Z" fill="#FFD9EE"/>
<path d="M991.102 194.604C990.845 195.164 991.09 195.826 991.649 196.083C992.209 196.341 992.871 196.096 993.129 195.536C993.386 194.977 993.141 194.315 992.582 194.057C992.022 193.8 991.36 194.044 991.102 194.604Z" fill="#FFD9EE"/>
</g>
<defs>
<clipPath id="clip0">
<rect width="1004" height="294" rx="20" fill="white"/>
</clipPath>
</defs>
</svg>
