<svg width="1004" height="294" viewBox="0 0 1004 294" fill="none" xmlns="http://www.w3.org/2000/svg">
<g clip-path="url(#clip0)">
<rect width="1004" height="294" rx="20" fill="white"/>
<rect width="1004" height="294" rx="20" fill="#2E279D"/>
<path d="M277.678 127.88V170H267.418V144.74L257.998 170H249.718L240.238 144.68V170H229.978V127.88H242.098L253.918 157.04L265.618 127.88H277.678ZM300.296 170.48C297.016 170.48 294.056 169.78 291.416 168.38C288.816 166.98 286.756 164.98 285.236 162.38C283.756 159.78 283.016 156.74 283.016 153.26C283.016 149.82 283.776 146.8 285.296 144.2C286.816 141.56 288.896 139.54 291.536 138.14C294.176 136.74 297.136 136.04 300.416 136.04C303.696 136.04 306.656 136.74 309.296 138.14C311.936 139.54 314.016 141.56 315.536 144.2C317.056 146.8 317.816 149.82 317.816 153.26C317.816 156.7 317.036 159.74 315.476 162.38C313.956 164.98 311.856 166.98 309.176 168.38C306.536 169.78 303.576 170.48 300.296 170.48ZM300.296 161.6C302.256 161.6 303.916 160.88 305.276 159.44C306.676 158 307.376 155.94 307.376 153.26C307.376 150.58 306.696 148.52 305.336 147.08C304.016 145.64 302.376 144.92 300.416 144.92C298.416 144.92 296.756 145.64 295.436 147.08C294.116 148.48 293.456 150.54 293.456 153.26C293.456 155.94 294.096 158 295.376 159.44C296.696 160.88 298.336 161.6 300.296 161.6ZM333.519 125.6V170H323.259V125.6H333.519ZM372.514 152.72C372.514 153.68 372.454 154.68 372.334 155.72H349.114C349.274 157.8 349.934 159.4 351.094 160.52C352.294 161.6 353.754 162.14 355.474 162.14C358.034 162.14 359.814 161.06 360.814 158.9H371.734C371.174 161.1 370.154 163.08 368.674 164.84C367.234 166.6 365.414 167.98 363.214 168.98C361.014 169.98 358.554 170.48 355.834 170.48C352.554 170.48 349.634 169.78 347.074 168.38C344.514 166.98 342.514 164.98 341.074 162.38C339.634 159.78 338.914 156.74 338.914 153.26C338.914 149.78 339.614 146.74 341.014 144.14C342.454 141.54 344.454 139.54 347.014 138.14C349.574 136.74 352.514 136.04 355.834 136.04C359.074 136.04 361.954 136.72 364.474 138.08C366.994 139.44 368.954 141.38 370.354 143.9C371.794 146.42 372.514 149.36 372.514 152.72ZM362.014 150.02C362.014 148.26 361.414 146.86 360.214 145.82C359.014 144.78 357.514 144.26 355.714 144.26C353.994 144.26 352.534 144.76 351.334 145.76C350.174 146.76 349.454 148.18 349.174 150.02H362.014ZM375.887 153.26C375.887 149.78 376.587 146.74 377.987 144.14C379.427 141.54 381.407 139.54 383.927 138.14C386.487 136.74 389.407 136.04 392.687 136.04C396.887 136.04 400.387 137.14 403.187 139.34C406.027 141.54 407.887 144.64 408.767 148.64H397.847C396.927 146.08 395.147 144.8 392.507 144.8C390.627 144.8 389.127 145.54 388.007 147.02C386.887 148.46 386.327 150.54 386.327 153.26C386.327 155.98 386.887 158.08 388.007 159.56C389.127 161 390.627 161.72 392.507 161.72C395.147 161.72 396.927 160.44 397.847 157.88H408.767C407.887 161.8 406.027 164.88 403.187 167.12C400.347 169.36 396.847 170.48 392.687 170.48C389.407 170.48 386.487 169.78 383.927 168.38C381.407 166.98 379.427 164.98 377.987 162.38C376.587 159.78 375.887 156.74 375.887 153.26ZM447.315 136.52V170H437.055V165.44C436.015 166.92 434.595 168.12 432.795 169.04C431.035 169.92 429.075 170.36 426.915 170.36C424.355 170.36 422.095 169.8 420.135 168.68C418.175 167.52 416.655 165.86 415.575 163.7C414.495 161.54 413.955 159 413.955 156.08V136.52H424.155V154.7C424.155 156.94 424.735 158.68 425.895 159.92C427.055 161.16 428.615 161.78 430.575 161.78C432.575 161.78 434.155 161.16 435.315 159.92C436.475 158.68 437.055 156.94 437.055 154.7V136.52H447.315ZM464.945 125.6V170H454.685V125.6H464.945ZM470.34 153.2C470.34 149.76 470.98 146.74 472.26 144.14C473.58 141.54 475.36 139.54 477.6 138.14C479.84 136.74 482.34 136.04 485.1 136.04C487.46 136.04 489.52 136.52 491.28 137.48C493.08 138.44 494.46 139.7 495.42 141.26V136.52H505.68V170H495.42V165.26C494.42 166.82 493.02 168.08 491.22 169.04C489.46 170 487.4 170.48 485.04 170.48C482.32 170.48 479.84 169.78 477.6 168.38C475.36 166.94 473.58 164.92 472.26 162.32C470.98 159.68 470.34 156.64 470.34 153.2ZM495.42 153.26C495.42 150.7 494.7 148.68 493.26 147.2C491.86 145.72 490.14 144.98 488.1 144.98C486.06 144.98 484.32 145.72 482.88 147.2C481.48 148.64 480.78 150.64 480.78 153.2C480.78 155.76 481.48 157.8 482.88 159.32C484.32 160.8 486.06 161.54 488.1 161.54C490.14 161.54 491.86 160.8 493.26 159.32C494.7 157.84 495.42 155.82 495.42 153.26ZM523.363 142.1C524.563 140.26 526.063 138.82 527.863 137.78C529.663 136.7 531.663 136.16 533.863 136.16V147.02H531.043C528.483 147.02 526.563 147.58 525.283 148.7C524.003 149.78 523.363 151.7 523.363 154.46V170H513.103V136.52H523.363V142.1ZM576.982 148.4C579.422 148.92 581.382 150.14 582.862 152.06C584.342 153.94 585.082 156.1 585.082 158.54C585.082 162.06 583.842 164.86 581.362 166.94C578.922 168.98 575.502 170 571.102 170H551.482V127.88H570.442C574.722 127.88 578.062 128.86 580.462 130.82C582.902 132.78 584.122 135.44 584.122 138.8C584.122 141.28 583.462 143.34 582.142 144.98C580.862 146.62 579.142 147.76 576.982 148.4ZM561.742 144.92H568.462C570.142 144.92 571.422 144.56 572.302 143.84C573.222 143.08 573.682 141.98 573.682 140.54C573.682 139.1 573.222 138 572.302 137.24C571.422 136.48 570.142 136.1 568.462 136.1H561.742V144.92ZM569.302 161.72C571.022 161.72 572.342 161.34 573.262 160.58C574.222 159.78 574.702 158.64 574.702 157.16C574.702 155.68 574.202 154.52 573.202 153.68C572.242 152.84 570.902 152.42 569.182 152.42H561.742V161.72H569.302ZM596.193 133.04C594.393 133.04 592.913 132.52 591.753 131.48C590.633 130.4 590.073 129.08 590.073 127.52C590.073 125.92 590.633 124.6 591.753 123.56C592.913 122.48 594.393 121.94 596.193 121.94C597.953 121.94 599.393 122.48 600.513 123.56C601.673 124.6 602.253 125.92 602.253 127.52C602.253 129.08 601.673 130.4 600.513 131.48C599.393 132.52 597.953 133.04 596.193 133.04ZM601.293 136.52V170H591.033V136.52H601.293ZM623.968 170.48C620.688 170.48 617.728 169.78 615.088 168.38C612.488 166.98 610.428 164.98 608.908 162.38C607.428 159.78 606.688 156.74 606.688 153.26C606.688 149.82 607.448 146.8 608.968 144.2C610.488 141.56 612.568 139.54 615.208 138.14C617.848 136.74 620.808 136.04 624.088 136.04C627.368 136.04 630.328 136.74 632.968 138.14C635.608 139.54 637.688 141.56 639.208 144.2C640.728 146.8 641.488 149.82 641.488 153.26C641.488 156.7 640.708 159.74 639.148 162.38C637.628 164.98 635.528 166.98 632.848 168.38C630.208 169.78 627.248 170.48 623.968 170.48ZM623.968 161.6C625.928 161.6 627.588 160.88 628.948 159.44C630.348 158 631.048 155.94 631.048 153.26C631.048 150.58 630.368 148.52 629.008 147.08C627.688 145.64 626.048 144.92 624.088 144.92C622.088 144.92 620.428 145.64 619.108 147.08C617.788 148.48 617.128 150.54 617.128 153.26C617.128 155.94 617.768 158 619.048 159.44C620.368 160.88 622.008 161.6 623.968 161.6ZM657.191 125.6V170H646.931V125.6H657.191ZM679.866 170.48C676.586 170.48 673.626 169.78 670.986 168.38C668.386 166.98 666.326 164.98 664.806 162.38C663.326 159.78 662.586 156.74 662.586 153.26C662.586 149.82 663.346 146.8 664.866 144.2C666.386 141.56 668.466 139.54 671.106 138.14C673.746 136.74 676.706 136.04 679.986 136.04C683.266 136.04 686.226 136.74 688.866 138.14C691.506 139.54 693.586 141.56 695.106 144.2C696.626 146.8 697.386 149.82 697.386 153.26C697.386 156.7 696.606 159.74 695.046 162.38C693.526 164.98 691.426 166.98 688.746 168.38C686.106 169.78 683.146 170.48 679.866 170.48ZM679.866 161.6C681.826 161.6 683.486 160.88 684.846 159.44C686.246 158 686.946 155.94 686.946 153.26C686.946 150.58 686.266 148.52 684.906 147.08C683.586 145.64 681.946 144.92 679.986 144.92C677.986 144.92 676.326 145.64 675.006 147.08C673.686 148.48 673.026 150.54 673.026 153.26C673.026 155.94 673.666 158 674.946 159.44C676.266 160.88 677.906 161.6 679.866 161.6ZM715.549 136.04C717.909 136.04 719.969 136.52 721.729 137.48C723.529 138.44 724.909 139.7 725.869 141.26V136.52H736.129V169.94C736.129 173.02 735.509 175.8 734.269 178.28C733.069 180.8 731.209 182.8 728.689 184.28C726.209 185.76 723.109 186.5 719.389 186.5C714.429 186.5 710.409 185.32 707.329 182.96C704.249 180.64 702.489 177.48 702.049 173.48H712.189C712.509 174.76 713.269 175.76 714.469 176.48C715.669 177.24 717.149 177.62 718.909 177.62C721.029 177.62 722.709 177 723.949 175.76C725.229 174.56 725.869 172.62 725.869 169.94V165.2C724.869 166.76 723.489 168.04 721.729 169.04C719.969 170 717.909 170.48 715.549 170.48C712.789 170.48 710.289 169.78 708.049 168.38C705.809 166.94 704.029 164.92 702.709 162.32C701.429 159.68 700.789 156.64 700.789 153.2C700.789 149.76 701.429 146.74 702.709 144.14C704.029 141.54 705.809 139.54 708.049 138.14C710.289 136.74 712.789 136.04 715.549 136.04ZM725.869 153.26C725.869 150.7 725.149 148.68 723.709 147.2C722.309 145.72 720.589 144.98 718.549 144.98C716.509 144.98 714.769 145.72 713.329 147.2C711.929 148.64 711.229 150.64 711.229 153.2C711.229 155.76 711.929 157.8 713.329 159.32C714.769 160.8 716.509 161.54 718.549 161.54C720.589 161.54 722.309 160.8 723.709 159.32C725.149 157.84 725.869 155.82 725.869 153.26ZM777.752 136.52L756.752 185.9H745.712L753.392 168.86L739.772 136.52H751.232L758.972 157.46L766.652 136.52H777.752Z" fill="#FFD9EE"/>
<path d="M901.237 146.746L903.657 138.233C905.429 138.12 907.023 136.911 907.535 135.108C908.186 132.82 906.853 130.43 904.564 129.779C902.275 129.129 899.884 130.461 899.234 132.749C898.721 134.552 899.441 136.418 900.889 137.447L898.47 145.959C896.697 146.073 895.103 147.281 894.591 149.084C893.941 151.372 895.274 153.763 897.562 154.413C899.851 155.064 902.242 153.731 902.893 151.444C903.405 149.641 902.685 147.774 901.237 146.746ZM898.349 151.647C897.586 151.43 897.141 150.633 897.358 149.871C897.575 149.108 898.372 148.664 899.135 148.881C899.898 149.097 900.342 149.894 900.125 150.657C899.909 151.42 899.111 151.864 898.349 151.647ZM902.991 135.312C902.228 135.095 901.784 134.298 902.001 133.535C902.218 132.773 903.015 132.329 903.778 132.545C904.541 132.762 904.985 133.559 904.768 134.322C904.551 135.085 903.754 135.529 902.991 135.312Z" fill="#FFD9EE"/>
<path d="M891.046 144.245L885.516 137.676L893.674 134.997C894.429 134.75 894.84 133.937 894.592 133.183C894.343 132.428 893.53 132.017 892.776 132.265L882.596 135.608C882.142 135.757 881.792 136.121 881.662 136.581C881.531 137.04 881.637 137.534 881.945 137.899L888.845 146.096C889.037 146.324 889.284 146.478 889.551 146.554C889.995 146.68 890.492 146.59 890.872 146.271C891.479 145.76 891.557 144.853 891.046 144.245Z" fill="#FFD9EE"/>
<path d="M872.4 138.401C874.528 138.744 876.631 137.445 877.234 135.322C877.805 133.316 876.85 131.231 875.063 130.309C874.991 127.067 873.62 124.084 870.958 121.408C870.051 120.495 869.032 119.65 867.947 118.861C870.414 119.017 872.715 119.107 874.612 118.862C875.719 118.719 879.086 118.284 879.986 115.119C880.203 114.355 879.759 113.559 878.995 113.342L850.276 105.18C849.512 104.963 848.717 105.406 848.5 106.169C847.6 109.335 850.235 111.476 851.101 112.18C852.586 113.386 854.59 114.52 856.771 115.684C855.432 115.785 854.122 115.968 852.87 116.267C849.199 117.144 846.464 118.959 844.697 121.679C842.693 121.523 840.784 122.794 840.214 124.8C839.61 126.923 840.715 129.133 842.706 129.961C842.999 132.053 843.901 134.169 845.423 136.349C847.077 138.716 849.319 140.966 851.662 143.145C844.176 144.596 837.019 146.562 835.126 153.222C832.919 160.988 836.959 166.35 842.191 170.413C842.173 170.412 842.156 170.412 842.138 170.411C839.187 170.348 836.399 170.288 834.218 170.64C833.17 170.81 829.981 171.325 829.16 174.213C828.943 174.976 829.387 175.772 830.151 175.989L858.87 184.151C859.634 184.369 860.43 183.925 860.647 183.162C861.468 180.274 859.027 178.159 858.225 177.464C856.554 176.016 854.152 174.601 851.608 173.103C851.593 173.094 851.578 173.085 851.563 173.076C858.15 172.373 864.405 169.937 866.613 162.171C868.506 155.511 863.453 150.075 857.849 144.904C860.988 144.282 864.078 143.548 866.73 142.404C869.171 141.351 871.05 140.026 872.4 138.401ZM873.477 132.759C874.24 132.976 874.684 133.773 874.467 134.536C874.25 135.298 873.453 135.742 872.69 135.526C871.928 135.309 871.483 134.512 871.7 133.749C871.917 132.986 872.714 132.542 873.477 132.759ZM852.915 109.949C852.242 109.402 851.821 108.933 851.564 108.535L876.135 115.519C875.707 115.721 875.103 115.899 874.243 116.01C872.215 116.272 864.076 115.717 862.818 115.658C861.717 115.047 854.502 111.238 852.915 109.949ZM862.01 118.5C864.714 120.028 867.285 121.705 869.166 123.702L853.188 119.161C855.838 118.452 858.907 118.378 862.01 118.5ZM843.971 127.363C843.208 127.146 842.764 126.349 842.981 125.587C843.198 124.824 843.995 124.38 844.758 124.597C845.521 124.813 845.965 125.61 845.748 126.373C845.531 127.136 844.734 127.58 843.971 127.363ZM857.405 180.746L833.189 173.863C835.046 173.135 844.926 173.348 846.424 173.337C847.692 174.134 856.208 179.149 857.405 180.746ZM847.244 170.453C844.905 168.949 842.646 167.287 840.886 165.391L855.313 169.491C852.82 170.178 850.024 170.404 847.244 170.453ZM859.45 167.678L838.322 161.672C837.599 160.094 837.299 158.461 837.41 156.728L862.826 163.951C862.009 165.484 860.895 166.715 859.45 167.678ZM863.878 161.261L837.931 153.886C838.419 152.27 839.379 151.006 840.686 149.993L863.583 156.501C864.161 158.05 864.313 159.629 863.878 161.261ZM861.537 152.93L844.304 148.032C847.17 146.917 850.685 146.244 854.316 145.571C857.05 148.053 859.686 150.474 861.537 152.93ZM855.193 142.484C852.999 140.488 850.889 138.526 849.198 136.539L863.417 140.581C860.935 141.381 858.109 141.94 855.193 142.484ZM846.629 132.82C846.172 131.925 845.835 131.019 845.648 130.096C846.99 129.676 848.103 128.61 848.515 127.16C848.963 125.583 848.47 123.958 847.371 122.887C847.903 122.155 848.522 121.539 849.211 121.02L871.571 127.375C871.883 128.179 872.086 129.028 872.154 129.931C870.656 130.263 869.381 131.386 868.933 132.963C868.52 134.413 868.906 135.904 869.826 136.967C869.182 137.654 868.419 138.248 867.559 138.768L846.629 132.82Z" fill="#FFD9EE"/>
<path d="M73.735 284.871C73.3803 284.871 73.0569 284.643 72.9366 284.31C72.8194 283.985 72.9154 283.611 73.1751 283.384C73.4535 283.141 73.869 283.107 74.1831 283.302C74.4818 283.487 74.6382 283.851 74.566 284.195C74.4843 284.584 74.133 284.871 73.735 284.871Z" fill="#FFD9EE"/>
<path d="M77.2818 302.019C75.9415 302.019 74.6948 302.427 73.6596 303.126L69.7342 299.119C70.967 297.643 71.7098 295.745 71.7098 293.676C71.7098 291.86 71.1377 290.175 70.1644 288.793L71.6246 287.333C71.9563 287.001 71.9563 286.463 71.6247 286.132C71.2932 285.8 70.7556 285.8 70.4238 286.132L69.0509 287.505C67.5257 286.059 65.467 285.172 63.2049 285.172C61.3305 285.172 59.5958 285.781 58.1885 286.812L55.8883 284.163C55.9027 284.142 55.9169 284.121 55.9309 284.099C56.4743 283.265 56.6602 282.268 56.4541 281.294C56.0288 279.282 54.0462 277.992 52.0342 278.417V278.417C51.0597 278.623 50.2238 279.196 49.6803 280.031C49.1369 280.866 48.951 281.862 49.1572 282.836C49.5278 284.589 51.0805 285.794 52.8048 285.794C53.0595 285.794 53.318 285.768 53.577 285.713C53.9547 285.633 54.3116 285.498 54.6386 285.314L56.9245 287.947C55.5433 289.459 54.6999 291.471 54.6999 293.676C54.6999 294.76 54.9037 295.797 55.2752 296.751L50.0136 301.308C49.073 300.213 47.6787 299.518 46.1252 299.518C43.2991 299.518 41 301.817 41 304.643C41 307.469 43.2991 309.768 46.1252 309.768C48.9512 309.768 51.2503 307.469 51.2503 304.643C51.2503 303.987 51.1264 303.359 50.9007 302.782C50.9199 302.768 50.9388 302.753 50.957 302.738L56.0739 298.306C57.5925 300.636 60.2217 302.18 63.2047 302.18C65.2149 302.18 67.0644 301.479 68.5216 300.308L72.3856 304.252C71.3927 305.393 70.7907 306.882 70.7907 308.509C70.7907 312.088 73.7024 314.999 77.2816 314.999C80.8606 314.999 83.7724 312.088 83.7724 308.509C83.7724 304.93 80.861 302.019 77.2818 302.019ZM46.1252 308.069C44.2356 308.069 42.6983 306.532 42.6983 304.643C42.6983 302.754 44.2356 301.217 46.1252 301.217C48.0148 301.217 49.552 302.754 49.552 304.643C49.552 306.532 48.0148 308.069 46.1252 308.069ZM53.2257 284.052C52.131 284.284 51.0503 283.581 50.8186 282.485C50.7064 281.955 50.8076 281.412 51.1035 280.958C51.3994 280.503 51.8547 280.191 52.3854 280.079V280.079C53.4806 279.847 54.5608 280.55 54.7925 281.645C54.9047 282.176 54.8035 282.718 54.5076 283.173C54.2117 283.627 53.7564 283.94 53.2257 284.052ZM56.3982 293.676C56.3982 289.923 59.4517 286.87 63.2049 286.87C66.9581 286.87 70.0115 289.923 70.0115 293.676C70.0115 297.428 66.9581 300.481 63.2049 300.481C59.4517 300.481 56.3982 297.428 56.3982 293.676ZM77.2818 313.301C74.6391 313.301 72.4892 311.152 72.4892 308.509C72.4892 305.867 74.6391 303.717 77.2818 303.717C79.9244 303.717 82.0744 305.867 82.0744 308.509C82.0744 311.152 79.9244 313.301 77.2818 313.301Z" fill="#FFD9EE"/>
<path d="M79.1747 283.601C76.2516 283.601 73.8735 281.224 73.8735 278.301C73.8735 275.378 76.2516 273 79.1747 273C82.0979 273 84.476 275.378 84.476 278.301C84.476 281.224 82.0979 283.601 79.1747 283.601ZM79.1747 274.698C77.1881 274.698 75.5718 276.314 75.5718 278.301C75.5718 280.287 77.1881 281.903 79.1747 281.903C81.1614 281.903 82.7777 280.287 82.7777 278.301C82.7777 276.314 81.1615 274.698 79.1747 274.698Z" fill="#FFD9EE"/>
<path d="M990.063 19.9683C989.54 19.6056 989.297 18.9383 989.46 18.3239C989.619 17.726 990.143 17.2724 990.758 17.203C991.417 17.1286 992.064 17.5042 992.328 18.112C992.58 18.6899 992.438 19.3873 991.98 19.8205C991.461 20.3105 990.65 20.3752 990.063 19.9683Z" fill="#FFD9EE"/>
<path d="M977.761 48.8759C975.785 47.5056 973.53 46.833 971.289 46.8048L969.598 36.8846C972.925 35.9689 975.961 33.929 978.076 30.8788C979.932 28.202 980.811 25.1335 980.79 22.0997L984.435 21.44C985.263 21.2902 985.813 20.4976 985.663 19.6697C985.514 18.8419 984.721 18.2923 983.893 18.4418L980.465 19.0623C979.694 15.3723 977.567 11.9587 974.231 9.64603C971.468 7.72975 968.287 6.85489 965.158 6.93634L964.476 0.679368C964.518 0.662867 964.561 0.646155 964.604 0.628719C966.258 -0.0463033 967.551 -1.32525 968.243 -2.97262C969.673 -6.37309 968.069 -10.3021 964.668 -11.7327L964.668 -11.7326C963.021 -12.4252 961.202 -12.4347 959.548 -11.7597C957.893 -11.0846 956.6 -9.80574 955.908 -8.15815C954.663 -5.19539 955.72 -1.83113 958.262 -0.068336C958.637 0.192099 959.045 0.417545 959.483 0.601698C960.122 0.870033 960.786 1.03585 961.456 1.09896L962.135 7.31707C958.552 8.13499 955.252 10.2382 952.998 13.4886C951.89 15.0867 951.13 16.8243 950.702 18.6108L938.286 19.9502C938.019 17.3741 936.674 14.9245 934.383 13.3362C930.217 10.4471 924.477 11.4858 921.588 15.652C918.699 19.8182 919.738 25.558 923.905 28.4472C928.071 31.3363 933.811 30.2976 936.7 26.1314C937.371 25.1643 937.83 24.1124 938.087 23.0308C938.13 23.0298 938.173 23.0272 938.216 23.0224L950.29 21.72C950.147 26.708 952.445 31.6715 956.843 34.7211C959.807 36.7762 963.25 37.6336 966.595 37.3982L968.259 47.1632C965.63 47.8294 963.22 49.4094 961.556 51.8084C957.897 57.0847 959.214 64.3539 964.49 68.013C969.767 71.672 977.036 70.3565 980.695 65.0802C984.354 59.804 983.038 52.535 977.761 48.8759ZM925.641 25.9432C922.855 24.0114 922.16 20.1737 924.092 17.3882C926.023 14.6028 929.861 13.9082 932.647 15.84C935.433 17.7719 936.128 21.6097 934.196 24.3952C932.265 27.1806 928.427 27.8751 925.641 25.9432ZM960.664 -2.20703C958.813 -2.98406 957.938 -5.12553 958.717 -6.97751C959.094 -7.87437 959.798 -8.57094 960.698 -8.93842C961.599 -9.30615 962.59 -9.30074 963.487 -8.92379L963.487 -8.92367C965.338 -8.1457 966.212 -6.00505 965.434 -4.15319C965.057 -3.25633 964.353 -2.55976 963.452 -2.19215C962.551 -1.82467 961.561 -1.82996 960.664 -2.20703ZM955.502 15.2252C959.339 9.69255 966.962 8.31301 972.495 12.1501C978.028 15.9872 979.409 23.61 975.572 29.1427C971.736 34.6753 964.113 36.0547 958.579 32.2176C953.046 28.3806 951.666 20.7578 955.502 15.2252ZM966.227 65.5095C962.331 62.8077 961.359 57.4406 964.06 53.5449C966.762 49.6492 972.129 48.6779 976.025 51.3797C979.921 54.0813 980.893 59.4486 978.192 63.3443C975.49 67.2399 970.123 68.2111 966.227 65.5095Z" fill="#FFD9EE"/>
<path d="M999.381 23.6569C995.072 20.6685 993.996 14.7316 996.985 10.4224C999.973 6.11324 1005.91 5.03867 1010.22 8.02707C1014.53 11.0156 1015.6 16.9526 1012.62 21.2618C1009.63 25.5709 1003.69 26.6454 999.381 23.6569ZM1008.48 10.5309C1005.55 8.49982 1001.52 9.22994 999.488 12.1586C997.458 15.0872 998.188 19.1221 1001.12 21.1531C1004.05 23.1841 1008.08 22.4541 1010.11 19.5256C1012.14 16.597 1011.41 12.562 1008.48 10.5309Z" fill="#FFD9EE"/>
<path d="M116.644 141.227C116.282 140.977 116.114 140.515 116.227 140.091C116.337 139.678 116.699 139.364 117.124 139.316C117.58 139.265 118.027 139.524 118.209 139.944C118.383 140.344 118.285 140.826 117.969 141.125C117.61 141.464 117.049 141.509 116.644 141.227Z" fill="#FFD9EE"/>
<path d="M108.142 161.206C106.776 160.259 105.217 159.794 103.669 159.775L102.5 152.918C104.799 152.285 106.898 150.876 108.36 148.767C109.642 146.917 110.25 144.797 110.235 142.7L112.755 142.244C113.327 142.14 113.707 141.593 113.603 141.02C113.5 140.448 112.952 140.068 112.38 140.172L110.011 140.6C109.478 138.05 108.007 135.691 105.702 134.092C103.792 132.768 101.594 132.163 99.4315 132.22L98.9595 127.895C98.989 127.884 99.0186 127.872 99.0479 127.86C100.191 127.394 101.085 126.51 101.563 125.371C102.551 123.021 101.443 120.305 99.0926 119.317L99.0925 119.317C97.9539 118.838 96.6972 118.831 95.5536 119.298C94.41 119.765 93.5166 120.648 93.0381 121.787C92.1773 123.835 92.9079 126.16 94.6649 127.378C94.9245 127.558 95.2064 127.714 95.509 127.842C95.9503 128.027 96.4094 128.142 96.8727 128.185L97.3418 132.483C94.8656 133.048 92.5849 134.502 91.0271 136.748C90.2612 137.853 89.736 139.054 89.4403 140.288L80.859 141.214C80.6742 139.434 79.7443 137.741 78.1614 136.643C75.2818 134.646 71.3147 135.364 69.3179 138.243C67.3212 141.123 68.0396 145.09 70.9192 147.087C73.7988 149.084 77.7659 148.366 79.7626 145.486C80.2261 144.818 80.5434 144.091 80.7211 143.343C80.7506 143.343 80.7803 143.341 80.8101 143.337L89.1555 142.437C89.0564 145.885 90.6448 149.315 93.6843 151.423C95.7326 152.843 98.1125 153.436 100.424 153.273L101.575 160.022C99.7572 160.483 98.0915 161.575 96.9417 163.233C94.413 166.879 95.3228 171.904 98.9698 174.433C102.617 176.961 107.641 176.052 110.17 172.406C112.698 168.759 111.789 163.735 108.142 161.206ZM72.1193 145.356C70.1938 144.021 69.7134 141.369 71.0484 139.443C72.3834 137.518 75.036 137.038 76.9614 138.373C78.8868 139.709 79.3671 142.361 78.0322 144.286C76.6972 146.211 74.0447 146.691 72.1193 145.356ZM96.325 125.9C95.0456 125.363 94.4413 123.883 94.9793 122.603C95.2398 121.983 95.7263 121.502 96.3489 121.248C96.9717 120.994 97.6562 120.997 98.2763 121.258L98.2763 121.258C99.5559 121.796 100.16 123.275 99.622 124.555C99.3615 125.175 98.875 125.656 98.2523 125.911C97.6296 126.165 96.9451 126.161 96.325 125.9ZM92.7575 137.948C95.4092 134.125 100.678 133.171 104.502 135.823C108.327 138.475 109.281 143.744 106.629 147.567C103.977 151.391 98.7088 152.345 94.8844 149.693C91.06 147.041 90.1059 141.772 92.7575 137.948ZM100.17 172.702C97.4772 170.835 96.8054 167.125 98.6725 164.433C100.54 161.741 104.249 161.069 106.942 162.936C109.635 164.804 110.307 168.513 108.439 171.206C106.572 173.898 102.863 174.569 100.17 172.702Z" fill="#FFD9EE"/>
<path d="M123.084 143.777C120.106 141.711 119.363 137.608 121.428 134.63C123.493 131.652 127.597 130.909 130.575 132.974C133.554 135.04 134.297 139.143 132.231 142.121C130.166 145.1 126.063 145.842 123.084 143.777ZM129.375 134.705C127.351 133.301 124.562 133.806 123.158 135.83C121.755 137.854 122.26 140.643 124.284 142.046C126.309 143.45 129.097 142.945 130.501 140.921C131.904 138.897 131.399 136.109 129.375 134.705Z" fill="#FFD9EE"/>
<path d="M509.015 11.8942C507.979 11.1756 506.796 10.8228 505.621 10.808L504.734 5.60501C506.479 5.12478 508.071 4.05489 509.18 2.45508C510.154 1.05114 510.615 -0.558229 510.604 -2.14938L512.516 -2.49538C512.95 -2.57394 513.238 -2.98963 513.16 -3.4239C513.081 -3.85805 512.665 -4.14631 512.231 -4.06787L510.433 -3.74247C510.029 -5.67779 508.913 -7.46816 507.164 -8.68112C505.714 -9.68617 504.046 -10.145 502.405 -10.1023L502.047 -13.384C502.069 -13.3926 502.092 -13.4014 502.114 -13.4105C502.982 -13.7646 503.66 -14.4354 504.023 -15.2994C504.773 -17.0829 503.932 -19.1436 502.148 -19.8939L502.148 -19.8938C501.284 -20.2571 500.33 -20.2621 499.462 -19.9081C498.595 -19.5539 497.917 -18.8832 497.554 -18.0191C496.9 -16.4652 497.455 -14.7007 498.788 -13.7761C498.985 -13.6395 499.199 -13.5213 499.429 -13.4247C499.763 -13.284 500.112 -13.197 500.463 -13.1639L500.819 -9.90262C498.94 -9.47363 497.21 -8.37054 496.027 -6.66574C495.446 -5.82759 495.048 -4.91624 494.823 -3.97926L488.311 -3.27674C488.171 -4.62789 487.465 -5.91267 486.264 -6.74566C484.079 -8.26099 481.068 -7.71618 479.553 -5.53108C478.038 -3.34599 478.583 -0.335575 480.768 1.17975C482.954 2.69507 485.964 2.15026 487.479 -0.0348344C487.831 -0.542056 488.072 -1.09378 488.207 -1.66102C488.229 -1.66157 488.252 -1.66295 488.274 -1.66544L494.607 -2.34852C494.532 0.267596 495.737 2.87088 498.044 4.47034C499.598 5.5482 501.404 5.99789 503.159 5.87439L504.032 10.996C502.652 11.3454 501.388 12.1741 500.516 13.4323C498.597 16.1996 499.287 20.0122 502.055 21.9313C504.822 23.8504 508.635 23.1605 510.554 20.3932C512.473 17.6259 511.783 13.8134 509.015 11.8942ZM481.679 -0.133514C480.218 -1.14672 479.853 -3.15953 480.866 -4.62046C481.88 -6.08139 483.892 -6.44567 485.354 -5.43247C486.815 -4.41926 487.179 -2.40639 486.166 -0.945458C485.153 0.515475 483.14 0.879691 481.679 -0.133514ZM500.048 -14.8978C499.077 -15.3054 498.618 -16.4285 499.027 -17.3999C499.224 -17.8703 499.593 -18.2356 500.066 -18.4283C500.539 -18.6212 501.058 -18.6184 501.529 -18.4207L501.529 -18.4206C502.5 -18.0126 502.958 -16.8898 502.55 -15.9186C502.352 -15.4482 501.983 -15.0828 501.51 -14.89C501.038 -14.6973 500.518 -14.7001 500.048 -14.8978ZM497.341 -5.75494C499.353 -8.65672 503.351 -9.38026 506.253 -7.36779C509.155 -5.35531 509.879 -1.35725 507.867 1.54452C505.855 4.4463 501.857 5.16978 498.955 3.1573C496.052 1.14482 495.328 -2.85317 497.341 -5.75494ZM502.966 20.6183C500.922 19.2013 500.412 16.3863 501.829 14.3431C503.246 12.2999 506.061 11.7904 508.105 13.2074C510.148 14.6244 510.658 17.4395 509.241 19.4827C507.824 21.5259 505.009 22.0353 502.966 20.6183Z" fill="#FFD9EE"/>
<path d="M520.354 -1.33296C518.094 -2.90033 517.53 -6.01415 519.097 -8.27423C520.664 -10.5343 523.778 -11.0979 526.039 -9.53054C528.299 -7.96313 528.863 -4.84924 527.296 -2.58916C525.728 -0.329079 522.614 0.234448 520.354 -1.33296ZM525.128 -8.21734C523.592 -9.28259 521.476 -8.89965 520.41 -7.3636C519.345 -5.82762 519.729 -3.71141 521.265 -2.64616C522.801 -1.58091 524.917 -1.9638 525.982 -3.49978C527.047 -5.03577 526.664 -7.15204 525.128 -8.21734Z" fill="#FFD9EE"/>
<path d="M322.305 69.1053L313.456 68.9874C312.885 67.3055 311.302 66.0818 309.428 66.0568C307.05 66.0251 305.089 67.9348 305.057 70.3141C305.026 72.6934 306.935 74.6547 309.313 74.6864C311.187 74.7114 312.802 73.5302 313.417 71.8641L322.266 71.982C322.838 73.6639 324.42 74.8877 326.294 74.9126C328.672 74.9443 330.633 73.0346 330.665 70.6553C330.696 68.276 328.787 66.3148 326.409 66.2831C324.535 66.2581 322.921 67.4392 322.305 69.1053ZM327.789 70.617C327.779 71.41 327.125 72.0466 326.332 72.0361C325.539 72.0255 324.903 71.3718 324.913 70.5787C324.924 69.7855 325.578 69.1491 326.371 69.1596C327.163 69.1702 327.8 69.824 327.789 70.617ZM310.809 70.3908C310.798 71.1839 310.144 71.8204 309.352 71.8098C308.559 71.7992 307.922 71.1454 307.933 70.3524C307.943 69.5594 308.597 68.9228 309.39 68.9334C310.183 68.9439 310.819 69.5976 310.809 70.3908Z" fill="#FFD9EE"/>
<path d="M274.969 240.16L279.779 247.589C278.696 248.997 278.556 250.992 279.574 252.566C280.867 254.562 283.543 255.135 285.541 253.841C287.538 252.548 288.111 249.872 286.819 247.875C285.8 246.302 283.922 245.614 282.194 246.025L277.384 238.597C278.467 237.189 278.608 235.193 277.589 233.62C276.296 231.623 273.62 231.051 271.622 232.344C269.625 233.638 269.052 236.314 270.345 238.311C271.363 239.884 273.241 240.572 274.969 240.16ZM273.185 234.758C273.851 234.327 274.743 234.518 275.174 235.184C275.605 235.849 275.414 236.741 274.748 237.172C274.083 237.604 273.19 237.413 272.759 236.747C272.328 236.082 272.519 235.189 273.185 234.758ZM282.415 249.013C283.081 248.582 283.973 248.773 284.404 249.439C284.835 250.104 284.644 250.997 283.978 251.428C283.312 251.859 282.42 251.668 281.989 251.002C281.558 250.337 281.749 249.444 282.415 249.013Z" fill="#FFD9EE"/>
<path d="M119.373 -8.02482C121.368 -8.84366 122.482 -11.0495 121.888 -13.1752C121.327 -15.1837 119.423 -16.4629 117.418 -16.3156C115.663 -19.0432 112.936 -20.8701 109.268 -21.7626C108.018 -22.0668 106.708 -22.255 105.37 -22.3617C107.556 -23.5172 109.565 -24.642 111.055 -25.8417C111.924 -26.5417 114.568 -28.6713 113.682 -31.8411C113.468 -32.6057 112.675 -33.0523 111.91 -32.8384L83.1558 -24.7987C82.3908 -24.5848 81.9438 -23.7913 82.1576 -23.0267C83.0439 -19.8569 86.4094 -19.4077 87.5154 -19.26C89.4113 -19.0069 91.7124 -19.0871 94.1806 -19.233C93.0922 -18.4478 92.0697 -17.6075 91.1584 -16.6989C88.4856 -14.0336 87.102 -11.0574 87.0159 -7.81498C85.225 -6.90099 84.2612 -4.82015 84.8228 -2.81156C85.4171 -0.686248 87.5133 0.621537 89.6432 0.287712C90.9862 1.91869 92.8604 3.25212 95.2972 4.3154C97.9442 5.4704 101.031 6.21784 104.167 6.85272C98.5412 12.0001 93.4654 17.4148 95.3298 24.0827C97.5039 31.8583 103.749 34.3203 110.333 35.0519C110.318 35.0607 110.303 35.0696 110.287 35.0784C107.737 36.5657 105.329 37.9706 103.652 39.4107C102.847 40.1024 100.397 42.207 101.206 45.0986C101.42 45.8632 102.213 46.3098 102.978 46.0959L131.732 38.0562C132.497 37.8423 132.944 37.0488 132.73 36.2842C131.922 33.3926 128.735 32.8639 127.688 32.6901C125.508 32.3283 122.72 32.3764 119.769 32.4274C119.751 32.4278 119.734 32.4279 119.716 32.4283C124.965 28.3881 129.028 23.044 126.854 15.2684C124.99 8.60043 117.841 6.60362 110.362 5.12065C112.714 2.95131 114.965 0.711219 116.629 -1.64916C118.161 -3.82193 119.071 -5.93396 119.373 -8.02482ZM117.345 -13.3982C118.109 -13.6117 118.904 -13.1642 119.118 -12.4005C119.331 -11.6369 118.883 -10.8418 118.12 -10.6283C117.356 -10.4147 116.561 -10.8623 116.347 -11.6259C116.134 -12.3896 116.581 -13.1846 117.345 -13.3982ZM87.897 -22.1104C87.0372 -22.2251 86.4335 -22.4055 86.0067 -22.61L110.607 -29.4885C110.348 -29.0922 109.926 -28.6249 109.25 -28.0809C107.658 -26.7983 100.427 -23.0205 99.3235 -22.4139C98.0654 -22.3602 89.9237 -21.8398 87.897 -22.1104ZM100.119 -19.5684C103.223 -19.6774 106.292 -19.5903 108.939 -18.8701L92.9411 -14.3971C94.8304 -16.3857 97.4089 -18.052 100.119 -19.5684ZM89.3658 -2.5886C88.6021 -2.37505 87.8069 -2.82259 87.5934 -3.58623C87.3799 -4.34987 87.8274 -5.14488 88.5914 -5.35848C89.3553 -5.57207 90.1503 -5.12449 90.3638 -4.36085C90.5773 -3.59721 90.1296 -2.80216 89.3658 -2.5886ZM128.703 35.9172L104.458 42.6963C105.662 41.1054 114.198 36.1263 115.47 35.3347C116.968 35.3519 126.849 35.1814 128.703 35.9172ZM114.663 32.4476C111.883 32.3864 109.088 32.1489 106.597 31.451L121.042 27.4123C119.274 29.3008 117.008 30.9532 114.663 32.4476ZM123.622 23.7049L102.468 29.6197C101.028 28.6513 99.9188 27.4151 99.1082 25.8791L124.555 18.764C124.659 20.4978 124.351 22.1299 123.622 23.7049ZM124.047 15.9204L98.0681 23.1841C97.6404 21.5504 97.7991 19.9716 98.3839 18.425L121.309 12.0152C122.611 13.0342 123.565 14.3017 124.047 15.9204ZM117.699 10.0388L100.445 14.8629C102.306 12.4155 104.953 10.0055 107.697 7.53529C111.325 8.22378 114.838 8.91155 117.699 10.0388ZM106.833 4.44407C103.92 3.88833 101.095 3.31739 98.6161 2.50631L112.852 -1.47418C111.154 0.504994 109.035 2.45789 106.833 4.44407ZM94.482 0.676386C93.6249 0.152419 92.8642 -0.444193 92.2234 -1.13374C93.1483 -2.19331 93.5405 -3.68287 93.1344 -5.13538C92.6931 -6.71375 91.4233 -7.84177 89.9266 -8.18108C89.9983 -9.0836 90.2048 -9.93198 90.5206 -10.7345L112.908 -16.994C113.594 -16.4718 114.21 -15.8537 114.74 -15.1193C113.636 -14.0528 113.135 -12.4297 113.576 -10.8512C113.982 -9.39911 115.09 -8.32916 116.43 -7.90273C116.24 -6.98053 115.898 -6.07568 115.437 -5.18282L94.482 0.676386Z" fill="#FFD9EE"/>
<path d="M729.645 293.144C730.163 291.994 730.295 290.766 730.096 289.608L735.051 287.79C735.84 289.418 737.182 290.789 738.957 291.589C740.514 292.291 742.181 292.452 743.743 292.152L744.431 293.969C744.587 294.382 745.049 294.59 745.461 294.433C745.874 294.277 746.082 293.816 745.926 293.403L745.279 291.695C747.108 290.945 748.666 289.522 749.541 287.582C750.265 285.974 750.413 284.25 750.073 282.644L753.235 281.695C753.247 281.715 753.26 281.736 753.273 281.756C753.779 282.545 754.562 283.09 755.477 283.29C757.368 283.703 759.241 282.501 759.654 280.61L759.654 280.61C759.854 279.695 759.686 278.756 759.18 277.967C758.674 277.178 757.891 276.633 756.975 276.433C755.329 276.074 753.694 276.94 753.028 278.419C752.929 278.637 752.852 278.869 752.799 279.113C752.721 279.468 752.699 279.826 752.73 280.178L749.588 281.121C748.825 279.351 747.425 277.85 745.534 276.997C744.604 276.578 743.635 276.352 742.673 276.302L740.798 270.026C742.101 269.642 743.236 268.715 743.837 267.382C744.93 264.958 743.847 262.097 741.422 261.004C738.998 259.911 736.137 260.995 735.044 263.419C733.952 265.844 735.035 268.705 737.459 269.797C738.022 270.051 738.608 270.187 739.19 270.217C739.195 270.239 739.2 270.261 739.207 270.283L741.03 276.386C738.444 276.787 736.103 278.446 734.95 281.005C734.173 282.73 734.059 284.587 734.499 286.29L729.622 288.08C729.028 286.787 727.983 285.695 726.587 285.066C723.517 283.682 719.893 285.054 718.51 288.124C717.126 291.195 718.497 294.818 721.568 296.202C724.638 297.586 728.261 296.214 729.645 293.144ZM736.501 264.076C737.232 262.455 739.145 261.73 740.766 262.461C742.387 263.192 743.111 265.105 742.38 266.726C741.65 268.347 739.736 269.071 738.116 268.341C736.495 267.61 735.771 265.697 736.501 264.076ZM754.36 279.454C754.584 278.425 755.605 277.77 756.634 277.995C757.133 278.103 757.559 278.4 757.835 278.83C758.11 279.259 758.202 279.77 758.093 280.269L758.093 280.269C757.868 281.298 756.848 281.953 755.818 281.728C755.32 281.619 754.894 281.323 754.618 280.893C754.343 280.464 754.251 279.952 754.36 279.454ZM744.877 278.454C748.096 279.905 749.535 283.705 748.084 286.925C746.632 290.145 742.833 291.584 739.613 290.133C736.394 288.682 734.956 284.882 736.407 281.662C737.858 278.442 741.658 277.003 744.877 278.454ZM719.966 288.781C720.988 286.514 723.664 285.501 725.93 286.523C728.197 287.544 729.21 290.22 728.188 292.487C727.166 294.754 724.491 295.767 722.224 294.745C719.957 293.724 718.945 291.048 719.966 288.781Z" fill="#FFD9EE"/>
<path d="M664.301 52.6014C661.378 52.6014 659 50.2236 659 47.3008C659 44.3779 661.378 42 664.301 42C667.224 42 669.602 44.3779 669.602 47.3008C669.602 50.2236 667.224 52.6014 664.301 52.6014ZM664.301 43.6983C662.315 43.6983 660.698 45.3143 660.698 47.3008C660.698 49.2872 662.315 50.9032 664.301 50.9032C666.288 50.9032 667.904 49.2872 667.904 47.3008C667.904 45.3144 666.288 43.6983 664.301 43.6983Z" fill="#FFD9EE"/>
<path d="M528.301 256.601C525.378 256.601 523 254.224 523 251.301C523 248.378 525.378 246 528.301 246C531.224 246 533.602 248.378 533.602 251.301C533.602 254.224 531.224 256.601 528.301 256.601ZM528.301 247.698C526.315 247.698 524.698 249.314 524.698 251.301C524.698 253.287 526.315 254.903 528.301 254.903C530.288 254.903 531.904 253.287 531.904 251.301C531.904 249.314 530.288 247.698 528.301 247.698Z" fill="#FFD9EE"/>
<path d="M933.301 245.601C930.378 245.601 928 243.224 928 240.301C928 237.378 930.378 235 933.301 235C936.224 235 938.602 237.378 938.602 240.301C938.602 243.224 936.224 245.601 933.301 245.601ZM933.301 236.698C931.315 236.698 929.698 238.314 929.698 240.301C929.698 242.287 931.315 243.903 933.301 243.903C935.288 243.903 936.904 242.287 936.904 240.301C936.904 238.314 935.288 236.698 933.301 236.698Z" fill="#FFD9EE"/>
</g>
<defs>
<clipPath id="clip0">
<rect width="1004" height="294" rx="20" fill="white"/>
</clipPath>
</defs>
</svg>
