<svg width="1004" height="294" viewBox="0 0 1004 294" fill="none" xmlns="http://www.w3.org/2000/svg">
<g clip-path="url(#clip0)">
<rect width="1004" height="294" rx="20" fill="white"/>
<rect width="1004" height="294" rx="20" fill="#2E279D"/>
<path d="M441.285 148.88C441.285 144.72 442.185 141.02 443.985 137.78C445.785 134.5 448.285 131.96 451.485 130.16C454.725 128.32 458.385 127.4 462.465 127.4C467.465 127.4 471.745 128.72 475.305 131.36C478.865 134 481.245 137.6 482.445 142.16H471.165C470.325 140.4 469.125 139.06 467.565 138.14C466.045 137.22 464.305 136.76 462.345 136.76C459.185 136.76 456.625 137.86 454.665 140.06C452.705 142.26 451.725 145.2 451.725 148.88C451.725 152.56 452.705 155.5 454.665 157.7C456.625 159.9 459.185 161 462.345 161C464.305 161 466.045 160.54 467.565 159.62C469.125 158.7 470.325 157.36 471.165 155.6H482.445C481.245 160.16 478.865 163.76 475.305 166.4C471.745 169 467.465 170.3 462.465 170.3C458.385 170.3 454.725 169.4 451.485 167.6C448.285 165.76 445.785 163.22 443.985 159.98C442.185 156.74 441.285 153.04 441.285 148.88ZM514.948 162.56H499.228L496.708 170H485.968L501.208 127.88H513.088L528.328 170H517.468L514.948 162.56ZM512.308 154.64L507.088 139.22L501.928 154.64H512.308ZM563.266 127.88V136.1H552.106V170H541.846V136.1H530.686V127.88H563.266Z" fill="#FFD9EE"/>
<path d="M26.4062 34.324L-1.05065 32.4856C-1.6569 32.4451 -2.18179 32.903 -2.22246 33.5104C-2.26312 34.1177 -1.80396 34.6416 -1.19772 34.6822L26.2591 36.5205C26.8653 36.5611 27.3902 36.1031 27.4309 35.4958C27.4716 34.8884 27.0124 34.3645 26.4062 34.324Z" fill="#FFD9EE"/>
<path d="M-0.609339 25.897L10.3734 26.6324C10.9796 26.6729 11.5045 26.215 11.5452 25.6076C11.5859 25.0003 11.1267 24.4764 10.5205 24.4358L-0.462274 23.7005C-1.06852 23.6599 -1.59342 24.1179 -1.63408 24.7252C-1.67474 25.3326 -1.21559 25.8564 -0.609339 25.897Z" fill="#FFD9EE"/>
<path d="M25.8178 43.1111L-1.63903 41.2728C-2.24528 41.2322 -2.77017 41.6901 -2.81084 42.2975C-2.8515 42.9048 -2.39234 43.4287 -1.7861 43.4693L25.6707 45.3076C26.277 45.3482 26.8019 44.8902 26.8425 44.2829C26.8832 43.6755 26.424 43.1517 25.8178 43.1111Z" fill="#FFD9EE"/>
<path d="M25.2299 51.8962L-2.22692 50.0579C-2.83317 50.0173 -3.35806 50.4753 -3.39873 51.0826C-3.43939 51.69 -2.98023 52.2139 -2.37399 52.2545L25.0828 54.0928C25.6891 54.1334 26.214 53.6754 26.2546 53.068C26.2953 52.4607 25.8361 51.9368 25.2299 51.8962Z" fill="#FFD9EE"/>
<path d="M24.6415 60.6833L-2.8153 58.845C-3.42155 58.8044 -3.94644 59.2624 -3.98711 59.8698C-4.02777 60.4771 -3.56861 61.001 -2.96237 61.0416L24.4945 62.8799C25.1007 62.9205 25.6256 62.4625 25.6663 61.8551C25.7069 61.2478 25.2478 60.7239 24.6415 60.6833Z" fill="#FFD9EE"/>
<path d="M31.5653 23.1813L32.6378 7.16191L-14.5879 4L-18.6322 64.405L-13.1408 64.7727L-13.5085 70.264L33.7172 73.4259L36.689 29.0403L31.5653 23.1813ZM22.1347 15.741L31.3573 26.2872L32.9826 28.1457L21.3563 27.3673L22.1347 15.741ZM-16.2886 62.3555L-12.5384 6.34361L30.2942 9.21139L29.5158 20.8377L21.7421 11.9484L-9.46419 9.85903L-12.9938 62.5761L-16.2886 62.3555ZM-11.1649 68.2146L-10.9443 64.9197L-7.41471 12.2026L20.0421 14.041L19.0127 29.4168L34.3885 30.4462L31.6678 71.0823L-11.1649 68.2146Z" fill="#FFD9EE"/>
<path d="M128.821 275.128L104.357 307.32C103.817 308.031 103.909 309.01 104.565 309.509C105.221 310.007 106.189 309.834 106.73 309.123L131.193 276.931C131.734 276.22 131.642 275.24 130.986 274.742C130.33 274.243 129.361 274.417 128.821 275.128Z" fill="#FFD9EE"/>
<path d="M97.2383 301.91L107.024 289.033C107.564 288.322 107.472 287.342 106.816 286.844C106.16 286.345 105.191 286.519 104.651 287.23L94.8658 300.107C94.3256 300.818 94.4175 301.797 95.0735 302.296C95.7295 302.795 96.6981 302.621 97.2383 301.91Z" fill="#FFD9EE"/>
<path d="M138.311 282.341L113.847 314.533C113.307 315.243 113.399 316.223 114.055 316.722C114.711 317.22 115.68 317.046 116.22 316.336L140.684 284.144C141.224 283.433 141.132 282.453 140.476 281.955C139.82 281.456 138.851 281.63 138.311 282.341Z" fill="#FFD9EE"/>
<path d="M147.8 289.55L123.336 321.742C122.796 322.452 122.888 323.432 123.544 323.931C124.2 324.429 125.168 324.255 125.709 323.545L150.172 291.353C150.713 290.642 150.621 289.662 149.965 289.164C149.309 288.665 148.34 288.839 147.8 289.55Z" fill="#FFD9EE"/>
<path d="M120.381 260.588L103.078 247.439L61 302.809L126.245 352.391L131.138 345.953L137.069 350.46L179.147 295.09L131.205 258.657L120.381 260.588ZM104.252 266.613L123.736 263.137L127.169 262.525L116.81 276.156L104.252 266.613ZM125.829 348.013L65.3297 302.036L103.493 251.817L116.051 261.36L99.6288 264.29L71.8241 300.878L128.765 344.15L125.829 348.013ZM136.654 346.082L133.095 343.377L76.1538 300.105L100.618 267.914L117.225 280.535L130.925 262.507L174.817 295.862L136.654 346.082Z" fill="#FFD9EE"/>
<path d="M793.103 124.464L760.991 122.315C760.282 122.267 759.669 122.803 759.621 123.513C759.573 124.223 760.11 124.836 760.819 124.883L792.931 127.033C793.64 127.081 794.253 126.545 794.301 125.835C794.349 125.125 793.812 124.512 793.103 124.464Z" fill="#FFD9EE"/>
<path d="M761.508 114.608L774.352 115.468C775.061 115.515 775.675 114.98 775.723 114.27C775.77 113.559 775.233 112.947 774.524 112.899L761.68 112.039C760.971 111.992 760.357 112.527 760.31 113.238C760.262 113.948 760.799 114.561 761.508 114.608Z" fill="#FFD9EE"/>
<path d="M792.415 134.742L760.303 132.592C759.594 132.544 758.981 133.08 758.933 133.79C758.885 134.501 759.422 135.113 760.131 135.161L792.243 137.311C792.952 137.358 793.565 136.823 793.613 136.112C793.661 135.402 793.124 134.789 792.415 134.742Z" fill="#FFD9EE"/>
<path d="M791.727 145.015L759.616 142.865C758.907 142.818 758.293 143.353 758.246 144.064C758.198 144.774 758.735 145.387 759.444 145.434L791.555 147.584C792.264 147.632 792.878 147.096 792.926 146.386C792.973 145.675 792.436 145.063 791.727 145.015Z" fill="#FFD9EE"/>
<path d="M791.039 155.293L758.928 153.143C758.219 153.095 757.605 153.631 757.558 154.341C757.51 155.051 758.047 155.664 758.756 155.712L790.867 157.861C791.576 157.909 792.19 157.373 792.238 156.663C792.285 155.953 791.748 155.34 791.039 155.293Z" fill="#FFD9EE"/>
<path d="M799.136 111.433L800.391 92.6979L745.16 89L740.43 159.644L746.852 160.074L746.422 166.497L801.653 170.195L805.129 118.285L799.136 111.433ZM788.107 102.731L798.893 115.065L800.794 117.239L787.197 116.328L788.107 102.731ZM743.171 157.248L747.557 91.7409L797.65 95.0948L796.74 108.692L787.648 98.2957L751.152 95.8522L747.024 157.506L743.171 157.248ZM749.163 164.1L749.421 160.246L753.549 98.5931L785.66 100.743L784.456 118.725L802.438 119.929L799.256 167.454L749.163 164.1Z" fill="#FFD9EE"/>
<path d="M228.892 101.35L201.04 117.474C200.425 117.83 200.214 118.617 200.571 119.233C200.927 119.849 201.715 120.058 202.33 119.702L230.182 103.578C230.797 103.222 231.008 102.435 230.651 101.819C230.295 101.203 229.507 100.994 228.892 101.35Z" fill="#FFD9EE"/>
<path d="M197.171 110.792L208.312 104.343C208.927 103.987 209.138 103.2 208.781 102.584C208.425 101.967 207.637 101.758 207.022 102.114L195.881 108.564C195.266 108.92 195.055 109.707 195.412 110.323C195.769 110.939 196.556 111.148 197.171 110.792Z" fill="#FFD9EE"/>
<path d="M234.053 110.264L206.2 126.388C205.585 126.744 205.374 127.531 205.731 128.147C206.088 128.763 206.875 128.972 207.49 128.616L235.342 112.492C235.957 112.136 236.168 111.35 235.812 110.733C235.455 110.117 234.668 109.908 234.053 110.264Z" fill="#FFD9EE"/>
<path d="M239.212 119.176L211.36 135.3C210.745 135.656 210.534 136.443 210.891 137.059C211.247 137.676 212.035 137.885 212.65 137.529L240.502 121.405C241.117 121.049 241.328 120.262 240.971 119.646C240.615 119.029 239.827 118.82 239.212 119.176Z" fill="#FFD9EE"/>
<path d="M244.372 128.09L216.52 144.214C215.905 144.57 215.694 145.357 216.051 145.973C216.407 146.59 217.195 146.799 217.81 146.443L245.662 130.319C246.277 129.963 246.488 129.176 246.131 128.56C245.775 127.943 244.987 127.734 244.372 128.09Z" fill="#FFD9EE"/>
<path d="M226.633 87.1694L217.226 70.9191L169.319 98.6523L204.792 159.928L210.363 156.703L213.587 162.274L261.494 134.54L235.428 89.5151L226.633 87.1694ZM212.625 86.0978L228.457 90.32L231.247 91.0641L219.453 97.8916L212.625 86.0978ZM205.73 156.41L172.837 99.5906L216.287 74.4372L223.115 86.2311L209.771 82.6722L178.115 100.998L209.073 154.475L205.73 156.41ZM214.526 158.755L212.591 155.413L181.633 101.936L209.485 85.8124L218.515 101.41L234.112 92.3803L257.976 133.602L214.526 158.755Z" fill="#FFD9EE"/>
<path d="M515.871 -6.81485L489.429 0.806475C488.845 0.974754 488.507 1.58411 488.676 2.169C488.845 2.7539 489.455 3.0901 490.038 2.92182L516.48 -4.6995C517.064 -4.86778 517.402 -5.47713 517.233 -6.06203C517.065 -6.64692 516.454 -6.98313 515.871 -6.81485Z" fill="#FFD9EE"/>
<path d="M518.309 1.64804L491.867 9.26937C491.283 9.43764 490.946 10.047 491.114 10.6319C491.283 11.2168 491.893 11.553 492.477 11.3847L518.919 3.76339C519.503 3.59511 519.84 2.98576 519.672 2.40086C519.503 1.81597 518.893 1.47976 518.309 1.64804Z" fill="#FFD9EE"/>
<path d="M520.748 10.107L494.306 17.7284C493.722 17.8966 493.385 18.506 493.553 19.0909C493.722 19.6758 494.332 20.012 494.916 19.8437L521.358 12.2224C521.942 12.0541 522.279 11.4447 522.111 10.8598C521.942 10.275 521.332 9.93875 520.748 10.107Z" fill="#FFD9EE"/>
<path d="M523.187 18.5699L496.745 26.1912C496.161 26.3595 495.824 26.9689 495.992 27.5538C496.161 28.1387 496.771 28.4749 497.355 28.3066L523.797 20.6853C524.381 20.517 524.718 19.9076 524.55 19.3227C524.381 18.7378 523.771 18.4016 523.187 18.5699Z" fill="#FFD9EE"/>
<path d="M516.927 -19.0486L512.48 -34.4759L467 -21.3672L483.767 36.8049L489.055 35.2806L490.58 40.569L536.06 27.4603L523.739 -15.2845L516.927 -19.0486ZM505.526 -22.8329L517.789 -16.0575L519.95 -14.8635L508.753 -11.6364L505.526 -22.8329ZM485.273 34.0798L469.725 -19.8615L510.974 -31.7508L514.202 -20.5543L503.865 -26.2652L473.813 -17.6031L488.446 33.1653L485.273 34.0798ZM492.085 37.844L491.171 34.6709L476.538 -16.0974L502.98 -23.7188L507.247 -8.91132L522.055 -13.1793L533.334 25.9547L492.085 37.844Z" fill="#FFD9EE"/>
<path d="M627.871 293.185L601.429 300.806C600.845 300.975 600.507 301.584 600.676 302.169C600.845 302.754 601.455 303.09 602.038 302.922L628.48 295.301C629.064 295.132 629.402 294.523 629.233 293.938C629.065 293.353 628.454 293.017 627.871 293.185Z" fill="#FFD9EE"/>
<path d="M599.6 294.461L610.176 291.412C610.76 291.244 611.098 290.635 610.929 290.05C610.76 289.465 610.15 289.129 609.567 289.297L598.99 292.346C598.406 292.514 598.068 293.123 598.237 293.708C598.406 294.293 599.016 294.629 599.6 294.461Z" fill="#FFD9EE"/>
<path d="M628.927 280.951L624.48 265.524L579 278.633L595.767 336.805L601.055 335.281L602.58 340.569L648.06 327.46L635.739 284.715L628.927 280.951ZM617.526 277.167L629.789 283.942L631.95 285.136L620.753 288.364L617.526 277.167ZM597.273 334.08L581.725 280.138L622.974 268.249L626.202 279.446L615.865 273.735L585.813 282.397L600.446 333.165L597.273 334.08ZM604.085 337.844L603.171 334.671L588.538 283.903L614.98 276.281L619.247 291.089L634.055 286.821L645.334 325.955L604.085 337.844Z" fill="#FFD9EE"/>
<path d="M1031.78 276.611L985.957 273.543C984.945 273.475 984.069 274.239 984.001 275.253C983.933 276.267 984.699 277.141 985.711 277.209L1031.54 280.277C1032.55 280.345 1033.42 279.58 1033.49 278.566C1033.56 277.553 1032.79 276.679 1031.78 276.611Z" fill="#FFD9EE"/>
<path d="M986.694 262.547L1005.02 263.774C1006.04 263.842 1006.91 263.077 1006.98 262.064C1007.05 261.05 1006.28 260.176 1005.27 260.108L986.939 258.881C985.927 258.813 985.051 259.577 984.983 260.591C984.915 261.604 985.682 262.479 986.694 262.547Z" fill="#FFD9EE"/>
<path d="M1030.8 291.277L984.975 288.209C983.963 288.141 983.087 288.905 983.019 289.919C982.951 290.933 983.717 291.807 984.729 291.875L1030.55 294.943C1031.57 295.011 1032.44 294.246 1032.51 293.233C1032.58 292.219 1031.81 291.345 1030.8 291.277Z" fill="#FFD9EE"/>
<path d="M1040.39 258.013L1042.18 231.277L963.363 226L956.613 326.815L965.778 327.429L965.165 336.594L1043.98 341.871L1048.94 267.792L1040.39 258.013ZM1024.65 245.596L1040.05 263.197L1042.76 266.299L1023.35 265L1024.65 245.596ZM960.525 323.394L966.784 229.911L1038.27 234.698L1036.97 254.102L1024 239.266L971.915 235.779L966.024 323.763L960.525 323.394ZM969.076 333.173L969.444 327.674L975.335 239.69L1021.16 242.758L1019.44 268.42L1045.1 270.138L1040.56 337.959L969.076 333.173Z" fill="#FFD9EE"/>
<path d="M986.504 -23.3074L945.136 -3.35662C944.222 -2.91611 943.838 -1.81893 944.279 -0.903873C944.72 0.0111868 945.818 0.393329 946.732 -0.0471839L988.1 -19.998C989.013 -20.4385 989.398 -21.5356 988.956 -22.4507C988.515 -23.3658 987.417 -23.7479 986.504 -23.3074Z" fill="#FFD9EE"/>
<path d="M992.888 -10.0691L951.52 9.88166C950.607 10.3222 950.222 11.4193 950.664 12.3344C951.105 13.2495 952.203 13.6316 953.117 13.1911L994.484 -6.75968C995.398 -7.20019 995.782 -8.29736 995.341 -9.21242C994.9 -10.1275 993.802 -10.5096 992.888 -10.0691Z" fill="#FFD9EE"/>
<path d="M999.273 3.16721L957.905 23.118C956.991 23.5585 956.607 24.6557 957.048 25.5707C957.489 26.4858 958.587 26.8679 959.501 26.4274L1000.87 6.47665C1001.78 6.03614 1002.17 4.93896 1001.73 4.0239C1001.28 3.10884 1000.19 2.7267 999.273 3.16721Z" fill="#FFD9EE"/>
<path d="M1005.66 16.4055L964.289 36.3563C963.376 36.7968 962.991 37.894 963.433 38.809C963.874 39.7241 964.972 40.1062 965.886 39.6657L1007.25 19.7149C1008.17 19.2744 1008.55 18.1772 1008.11 17.2622C1007.67 16.3471 1006.57 15.965 1005.66 16.4055Z" fill="#FFD9EE"/>
<path d="M984.813 -43.7323L973.172 -67.8681L902.02 -33.5527L945.911 57.4569L954.185 53.4667L958.175 61.7403L1029.33 27.425L997.076 -39.4489L984.813 -43.7323ZM964.995 -46.763L987.069 -39.0528L990.959 -37.6941L973.443 -29.2461L964.995 -46.763ZM947.625 52.5514L906.925 -31.8394L971.459 -62.9626L979.907 -45.4457L961.3 -51.9445L914.283 -29.2693L952.589 50.1573L947.625 52.5514ZM959.888 56.8348L957.494 51.8706L919.189 -27.5559L960.557 -47.5067L971.729 -24.3406L994.895 -35.513L1024.42 25.7116L959.888 56.8348Z" fill="#FFD9EE"/>
</g>
<defs>
<clipPath id="clip0">
<rect width="1004" height="294" rx="20" fill="white"/>
</clipPath>
</defs>
</svg>
