<svg width="1004" height="294" viewBox="0 0 1004 294" fill="none" xmlns="http://www.w3.org/2000/svg">
<g clip-path="url(#clip0)">
<rect width="1004" height="294" rx="20" fill="white"/>
<rect width="1004" height="294" rx="20" fill="#2E279D"/>
<path d="M341.119 148.88C341.119 144.72 342.019 141.02 343.819 137.78C345.619 134.5 348.119 131.96 351.319 130.16C354.559 128.32 358.219 127.4 362.299 127.4C367.299 127.4 371.579 128.72 375.139 131.36C378.699 134 381.079 137.6 382.279 142.16H370.999C370.159 140.4 368.959 139.06 367.399 138.14C365.879 137.22 364.139 136.76 362.179 136.76C359.019 136.76 356.459 137.86 354.499 140.06C352.539 142.26 351.559 145.2 351.559 148.88C351.559 152.56 352.539 155.5 354.499 157.7C356.459 159.9 359.019 161 362.179 161C364.139 161 365.879 160.54 367.399 159.62C368.959 158.7 370.159 157.36 370.999 155.6H382.279C381.079 160.16 378.699 163.76 375.139 166.4C371.579 169 367.299 170.3 362.299 170.3C358.219 170.3 354.559 169.4 351.319 167.6C348.119 165.76 345.619 163.22 343.819 159.98C342.019 156.74 341.119 153.04 341.119 148.88ZM409.142 136.16C412.982 136.16 416.062 137.44 418.382 140C420.702 142.52 421.862 146 421.862 150.44V170H411.662V151.82C411.662 149.58 411.082 147.84 409.922 146.6C408.762 145.36 407.202 144.74 405.242 144.74C403.282 144.74 401.722 145.36 400.562 146.6C399.402 147.84 398.822 149.58 398.822 151.82V170H388.562V125.6H398.822V141.02C399.862 139.54 401.282 138.36 403.082 137.48C404.882 136.6 406.902 136.16 409.142 136.16ZM460.551 152.72C460.551 153.68 460.491 154.68 460.371 155.72H437.151C437.311 157.8 437.971 159.4 439.131 160.52C440.331 161.6 441.791 162.14 443.511 162.14C446.071 162.14 447.851 161.06 448.851 158.9H459.771C459.211 161.1 458.191 163.08 456.711 164.84C455.271 166.6 453.451 167.98 451.251 168.98C449.051 169.98 446.591 170.48 443.871 170.48C440.591 170.48 437.671 169.78 435.111 168.38C432.551 166.98 430.551 164.98 429.111 162.38C427.671 159.78 426.951 156.74 426.951 153.26C426.951 149.78 427.651 146.74 429.051 144.14C430.491 141.54 432.491 139.54 435.051 138.14C437.611 136.74 440.551 136.04 443.871 136.04C447.111 136.04 449.991 136.72 452.511 138.08C455.031 139.44 456.991 141.38 458.391 143.9C459.831 146.42 460.551 149.36 460.551 152.72ZM450.051 150.02C450.051 148.26 449.451 146.86 448.251 145.82C447.051 144.78 445.551 144.26 443.751 144.26C442.031 144.26 440.571 144.76 439.371 145.76C438.211 146.76 437.491 148.18 437.211 150.02H450.051ZM508.684 136.16C512.844 136.16 516.144 137.42 518.584 139.94C521.064 142.46 522.304 145.96 522.304 150.44V170H512.104V151.82C512.104 149.66 511.524 148 510.364 146.84C509.244 145.64 507.684 145.04 505.684 145.04C503.684 145.04 502.104 145.64 500.944 146.84C499.824 148 499.264 149.66 499.264 151.82V170H489.064V151.82C489.064 149.66 488.484 148 487.324 146.84C486.204 145.64 484.644 145.04 482.644 145.04C480.644 145.04 479.064 145.64 477.904 146.84C476.784 148 476.224 149.66 476.224 151.82V170H465.964V136.52H476.224V140.72C477.264 139.32 478.624 138.22 480.304 137.42C481.984 136.58 483.884 136.16 486.004 136.16C488.524 136.16 490.764 136.7 492.724 137.78C494.724 138.86 496.284 140.4 497.404 142.4C498.564 140.56 500.144 139.06 502.144 137.9C504.144 136.74 506.324 136.16 508.684 136.16ZM534.64 133.04C532.84 133.04 531.36 132.52 530.2 131.48C529.08 130.4 528.52 129.08 528.52 127.52C528.52 125.92 529.08 124.6 530.2 123.56C531.36 122.48 532.84 121.94 534.64 121.94C536.4 121.94 537.84 122.48 538.96 123.56C540.12 124.6 540.7 125.92 540.7 127.52C540.7 129.08 540.12 130.4 538.96 131.48C537.84 132.52 536.4 133.04 534.64 133.04ZM539.74 136.52V170H529.48V136.52H539.74ZM560.795 170.48C557.875 170.48 555.275 169.98 552.995 168.98C550.715 167.98 548.915 166.62 547.595 164.9C546.275 163.14 545.535 161.18 545.375 159.02H555.515C555.635 160.18 556.175 161.12 557.135 161.84C558.095 162.56 559.275 162.92 560.675 162.92C561.955 162.92 562.935 162.68 563.615 162.2C564.335 161.68 564.695 161.02 564.695 160.22C564.695 159.26 564.195 158.56 563.195 158.12C562.195 157.64 560.575 157.12 558.335 156.56C555.935 156 553.935 155.42 552.335 154.82C550.735 154.18 549.355 153.2 548.195 151.88C547.035 150.52 546.455 148.7 546.455 146.42C546.455 144.5 546.975 142.76 548.015 141.2C549.095 139.6 550.655 138.34 552.695 137.42C554.775 136.5 557.235 136.04 560.075 136.04C564.275 136.04 567.575 137.08 569.975 139.16C572.415 141.24 573.815 144 574.175 147.44H564.695C564.535 146.28 564.015 145.36 563.135 144.68C562.295 144 561.175 143.66 559.775 143.66C558.575 143.66 557.655 143.9 557.015 144.38C556.375 144.82 556.055 145.44 556.055 146.24C556.055 147.2 556.555 147.92 557.555 148.4C558.595 148.88 560.195 149.36 562.355 149.84C564.835 150.48 566.855 151.12 568.415 151.76C569.975 152.36 571.335 153.36 572.495 154.76C573.695 156.12 574.315 157.96 574.355 160.28C574.355 162.24 573.795 164 572.675 165.56C571.595 167.08 570.015 168.28 567.935 169.16C565.895 170.04 563.515 170.48 560.795 170.48ZM599.292 161.3V170H594.072C590.352 170 587.452 169.1 585.372 167.3C583.292 165.46 582.252 162.48 582.252 158.36V145.04H578.172V136.52H582.252V128.36H592.512V136.52H599.232V145.04H592.512V158.48C592.512 159.48 592.752 160.2 593.232 160.64C593.712 161.08 594.512 161.3 595.632 161.3H599.292ZM615.267 142.1C616.467 140.26 617.967 138.82 619.767 137.78C621.567 136.7 623.567 136.16 625.767 136.16V147.02H622.947C620.387 147.02 618.467 147.58 617.187 148.7C615.907 149.78 615.267 151.7 615.267 154.46V170H605.007V136.52H615.267V142.1ZM664.871 136.52L643.871 185.9H632.831L640.511 168.86L626.891 136.52H638.351L646.091 157.46L653.771 136.52H664.871Z" fill="#FFD9EE"/>
<path d="M203.223 141.251L211.452 125.368C213.093 126 214.988 125.308 215.816 123.71C216.704 121.996 216.032 119.879 214.318 118.991L200.5 111.832C198.786 110.944 196.669 111.616 195.781 113.33C194.953 114.928 195.481 116.875 196.944 117.851L188.715 133.734C184.951 133.329 181.128 133.881 177.608 135.347C177.013 135.595 176.731 136.278 176.979 136.873C177.089 137.136 177.284 137.339 177.519 137.46C177.815 137.614 178.173 137.64 178.505 137.502C181.895 136.091 185.596 135.623 189.208 136.149C189.7 136.221 190.184 135.973 190.413 135.531L199.006 118.945L204.878 121.987C205.451 122.284 206.155 122.06 206.452 121.488C206.748 120.916 206.525 120.211 205.952 119.915L198.353 115.977C197.781 115.681 197.557 114.976 197.853 114.404C198.149 113.833 198.855 113.609 199.427 113.905L213.244 121.063C213.815 121.36 214.039 122.065 213.743 122.637C213.447 123.208 212.742 123.432 212.17 123.136L210.097 122.062C209.525 121.766 208.821 121.989 208.524 122.562C208.228 123.134 208.451 123.838 209.024 124.135L209.369 124.314L200.776 140.9C200.547 141.342 200.623 141.88 200.966 142.241C206.897 148.488 208.218 157.826 204.253 165.479C199.122 175.383 186.889 179.267 176.985 174.135C174.65 172.925 172.606 171.305 170.91 169.32C170.492 168.83 169.755 168.772 169.265 169.191C168.775 169.609 168.717 170.346 169.135 170.836C171.028 173.051 173.307 174.859 175.911 176.208C186.958 181.931 200.602 177.6 206.326 166.553C210.619 158.266 209.355 148.206 203.223 141.251Z" fill="#FFD9EE"/>
<path d="M191.589 164.856C192.161 165.152 192.866 164.929 193.162 164.356C193.459 163.784 193.235 163.08 192.663 162.783C192.09 162.486 191.386 162.71 191.09 163.282C190.793 163.855 191.017 164.559 191.589 164.856Z" fill="#FFD9EE"/>
<path d="M185.296 166.856C185.868 167.152 186.572 166.929 186.869 166.356C187.165 165.784 186.942 165.08 186.369 164.783C185.797 164.486 185.093 164.71 184.796 165.282C184.5 165.855 184.723 166.559 185.296 166.856Z" fill="#FFD9EE"/>
<path d="M173.952 165.661C173.559 165.15 172.827 165.054 172.315 165.446C171.804 165.839 171.708 166.572 172.1 167.083C173.703 169.171 175.707 170.847 178.058 172.065C186.82 176.604 197.641 173.169 202.181 164.407C203.628 161.614 204.316 158.486 204.17 155.359C204.148 154.885 203.842 154.471 203.394 154.313L202.989 154.17C202.939 154.152 202.886 154.138 202.834 154.127C201.037 153.76 199.84 154.001 198.879 154.195C197.814 154.409 197.11 154.551 195.677 153.808C194.452 153.173 194.146 152.413 193.721 151.36C193.252 150.194 192.667 148.743 190.675 147.711C188.683 146.679 187.161 147.038 185.938 147.327C184.833 147.588 184.035 147.776 182.811 147.142C181.377 146.399 181.087 145.743 180.648 144.749C180.252 143.852 179.758 142.736 178.422 141.48C178.383 141.443 178.341 141.409 178.297 141.378L177.947 141.13C177.561 140.855 177.047 140.843 176.647 141.097C176.63 141.107 176.614 141.119 176.595 141.131C176.053 141.48 175.896 142.202 176.244 142.744C176.395 142.98 176.617 143.142 176.864 143.223L176.88 143.234C177.828 144.142 178.161 144.896 178.513 145.693C179.034 146.873 179.574 148.094 181.737 149.215C183.729 150.247 185.251 149.888 186.474 149.599C187.579 149.338 188.377 149.15 189.601 149.784C190.825 150.418 191.132 151.179 191.556 152.232C192.026 153.398 192.61 154.848 194.603 155.88C196.766 157.001 198.074 156.738 199.34 156.483C200.093 156.331 200.811 156.187 201.855 156.327C201.832 158.755 201.234 161.161 200.108 163.334C196.161 170.952 186.751 173.94 179.132 169.992C177.088 168.933 175.345 167.476 173.952 165.661Z" fill="#FFD9EE"/>
<path d="M175.787 127.735L186.448 107.158C188.09 107.789 189.985 107.098 190.812 105.5C191.701 103.786 191.028 101.669 189.314 100.78L175.497 93.6218C173.782 92.7336 171.665 93.4056 170.777 95.12C169.95 96.7174 170.477 98.6643 171.94 99.641L163.336 116.247C163.04 116.82 163.264 117.524 163.836 117.82C164.408 118.117 165.113 117.893 165.409 117.321L174.003 100.734L179.875 103.777C180.447 104.073 181.152 103.85 181.448 103.277C181.745 102.705 181.521 102.001 180.949 101.704L173.349 97.767C172.778 97.4709 172.554 96.7652 172.85 96.1938C173.146 95.6223 173.852 95.3983 174.423 95.6944L188.24 102.853C188.812 103.149 189.036 103.855 188.74 104.426C188.444 104.998 187.738 105.222 187.167 104.926L185.094 103.852C184.522 103.555 183.817 103.779 183.521 104.351C183.224 104.924 183.448 105.628 184.02 105.924L184.366 106.103L173.624 126.835C173.565 126.951 173.525 127.075 173.506 127.203L168.49 161.542C168.187 163.616 167.205 165.176 165.724 165.936C164.243 166.695 162.403 166.582 160.542 165.618L139.125 154.522C137.264 153.558 136.111 152.12 135.877 150.472C135.643 148.824 136.351 147.122 137.871 145.678L163.029 121.776C163.496 121.332 163.515 120.593 163.071 120.126C162.627 119.659 161.889 119.639 161.421 120.083L136.263 143.986C134.181 145.964 133.223 148.384 133.566 150.8C133.908 153.216 135.501 155.274 138.051 156.595L159.468 167.691C162.018 169.012 164.618 169.126 166.789 168.012C168.96 166.899 170.385 164.721 170.8 161.879L175.787 127.735Z" fill="#FFD9EE"/>
<path d="M148.611 140.82C148.453 140.479 148.14 140.234 147.771 140.164C147.401 140.093 147.02 140.205 146.748 140.464L139.478 147.371C138.521 148.28 138.063 149.265 138.188 150.144C138.312 151.024 139.026 151.843 140.198 152.45L161.615 163.546C162.787 164.153 163.868 164.264 164.658 163.859C165.449 163.454 165.989 162.511 166.18 161.205L167.629 151.282C167.684 150.91 167.555 150.534 167.284 150.273C167.014 150.012 166.633 149.898 166.263 149.966C165.471 150.111 164.762 150.17 163.469 149.5C162.245 148.865 161.938 148.104 161.514 147.051C161.044 145.886 160.46 144.435 158.467 143.403C156.475 142.371 154.953 142.73 153.73 143.019C152.625 143.28 151.827 143.468 150.603 142.834C149.31 142.164 148.949 141.551 148.611 140.82ZM154.267 145.29C155.371 145.03 156.169 144.841 157.394 145.475C158.618 146.11 158.924 146.871 159.349 147.924C159.818 149.089 160.403 150.54 162.395 151.572C163.478 152.133 164.359 152.343 165.109 152.386L163.87 160.868C163.797 161.369 163.661 161.652 163.584 161.764C163.448 161.761 163.139 161.706 162.689 161.473L141.272 150.377C140.822 150.144 140.6 149.923 140.518 149.814C140.566 149.686 140.718 149.412 141.086 149.063L147.3 143.159C147.767 143.748 148.446 144.345 149.529 144.906C151.522 145.938 153.044 145.579 154.267 145.29Z" fill="#FFD9EE"/>
<path d="M836.888 77.73L822.234 67.4722C823.077 65.9287 822.642 63.959 821.168 62.9273C819.587 61.8201 817.399 62.2061 816.292 63.7879L807.368 76.5366C806.261 78.1184 806.647 80.3058 808.229 81.413C809.703 82.4447 811.702 82.1793 812.864 80.8584L827.518 91.1164C826.618 94.7936 826.66 98.6557 827.647 102.339C827.814 102.962 828.454 103.331 829.077 103.164C829.352 103.09 829.579 102.924 829.73 102.707C829.921 102.434 829.995 102.082 829.902 101.735C828.952 98.188 828.978 94.4576 829.978 90.9469C830.114 90.4684 829.932 89.9564 829.524 89.6712L814.22 78.9588L818.013 73.5406C818.383 73.0125 818.254 72.2847 817.726 71.9151C817.198 71.5455 816.47 71.6739 816.101 72.202L811.193 79.2138C810.824 79.7411 810.095 79.8698 809.567 79.5007C809.04 79.1316 808.911 78.4025 809.28 77.8752L818.204 65.1264C818.573 64.5992 819.302 64.4705 819.83 64.8396C820.357 65.2087 820.486 65.9377 820.117 66.465L818.778 68.3773C818.408 68.9054 818.537 69.6332 819.065 70.0028C819.593 70.3724 820.321 70.244 820.69 69.7159L820.913 69.3972L836.217 80.1095C836.625 80.3947 837.168 80.3904 837.571 80.0986C844.548 75.046 853.979 74.9719 861.04 79.9142C870.178 86.311 872.409 98.9501 866.012 108.089C864.504 110.243 862.628 112.054 860.436 113.473C859.895 113.822 859.74 114.545 860.09 115.086C860.44 115.628 861.163 115.782 861.704 115.432C864.15 113.85 866.243 111.83 867.924 109.427C875.059 99.2341 872.571 85.1367 862.378 78.0018C854.733 72.65 844.594 72.5724 836.888 77.73Z" fill="#FFD9EE"/>
<path d="M858.745 92.3824C859.114 91.8544 858.986 91.1266 858.458 90.757C857.93 90.3873 857.202 90.5158 856.832 91.0438C856.463 91.5719 856.591 92.2997 857.119 92.6693C857.647 93.0389 858.375 92.9105 858.745 92.3824Z" fill="#FFD9EE"/>
<path d="M859.893 98.8863C860.263 98.3583 860.134 97.6305 859.606 97.2609C859.078 96.8912 858.35 97.0197 857.981 97.5477C857.611 98.0758 857.74 98.8036 858.268 99.1732C858.796 99.5428 859.523 99.4144 859.893 98.8863Z" fill="#FFD9EE"/>
<path d="M857.21 109.973C856.652 110.295 856.459 111.008 856.781 111.567C857.102 112.126 857.815 112.318 858.374 111.997C860.656 110.684 862.582 108.919 864.1 106.75C869.759 98.6658 867.786 87.4851 859.702 81.8264C857.125 80.0226 854.115 78.9267 850.997 78.6572C850.524 78.6163 850.073 78.8655 849.857 79.2888L849.662 79.6708C849.637 79.7186 849.616 79.7683 849.599 79.819C848.997 81.5517 849.078 82.7695 849.142 83.748C849.214 84.8321 849.261 85.5484 848.335 86.8712C847.544 88.0008 846.75 88.204 845.65 88.4853C844.432 88.7966 842.917 89.184 841.63 91.0222C840.344 92.8603 840.498 94.4165 840.623 95.667C840.735 96.7966 840.816 97.6126 840.026 98.7421C839.1 100.065 838.411 100.265 837.368 100.569C836.426 100.843 835.255 101.185 833.833 102.343C833.791 102.377 833.752 102.413 833.715 102.453L833.423 102.767C833.1 103.114 833.019 103.621 833.218 104.051C833.227 104.07 833.235 104.088 833.245 104.108C833.519 104.691 834.214 104.943 834.798 104.669C835.051 104.55 835.242 104.352 835.354 104.118L835.368 104.104C836.393 103.284 837.184 103.054 838.021 102.81C839.26 102.45 840.541 102.076 841.938 100.081C843.225 98.2426 843.07 96.6865 842.946 95.4359C842.833 94.3063 842.752 93.4903 843.543 92.3609C844.334 91.2312 845.128 91.0281 846.228 90.7468C847.446 90.4355 848.961 90.0481 850.247 88.2098C851.644 86.2141 851.556 84.8823 851.472 83.5943C851.421 82.8269 851.373 82.0966 851.65 81.0806C854.053 81.4247 856.359 82.3354 858.363 83.7386C865.393 88.6593 867.109 98.3816 862.188 105.411C860.867 107.298 859.193 108.833 857.21 109.973Z" fill="#FFD9EE"/>
<path d="M819.86 103.136L800.874 89.8458C801.717 88.3023 801.282 86.3326 799.808 85.3009C798.226 84.1937 796.039 84.5797 794.932 86.1615L786.008 98.9102C784.901 100.492 785.287 102.679 786.869 103.787C788.342 104.818 790.342 104.553 791.504 103.232L806.826 113.957C807.354 114.327 808.081 114.198 808.451 113.67C808.821 113.142 808.692 112.414 808.164 112.045L792.86 101.332L796.653 95.9142C797.023 95.3861 796.894 94.6583 796.366 94.2887C795.838 93.9191 795.11 94.0475 794.741 94.5756L789.833 101.587C789.463 102.115 788.734 102.243 788.207 101.874C787.68 101.505 787.551 100.776 787.92 100.249L796.844 87.5C797.213 86.9728 797.942 86.8441 798.47 87.2132C798.997 87.5823 799.126 88.3113 798.756 88.8386L797.418 90.7509C797.048 91.279 797.177 92.0068 797.705 92.3764C798.233 92.746 798.961 92.6176 799.33 92.0895L799.553 91.7708L818.682 105.16C818.788 105.235 818.906 105.291 819.031 105.327L852.404 114.842C854.42 115.416 855.836 116.596 856.393 118.165C856.95 119.733 856.595 121.542 855.393 123.259L841.561 143.02C840.359 144.737 838.781 145.69 837.117 145.703C835.452 145.717 833.859 144.79 832.629 143.093L812.265 114.993C811.887 114.471 811.157 114.355 810.635 114.733C810.113 115.111 809.997 115.841 810.375 116.363L830.738 144.463C832.423 146.788 834.695 148.058 837.136 148.038C839.576 148.018 841.826 146.711 843.473 144.358L857.305 124.598C858.952 122.245 859.409 119.683 858.593 117.384C857.776 115.084 855.806 113.384 853.044 112.597L819.86 103.136Z" fill="#FFD9EE"/>
<path d="M829.235 131.804C828.875 131.915 828.591 132.193 828.473 132.55C828.354 132.906 828.414 133.299 828.635 133.604L834.519 141.723C835.294 142.792 836.21 143.377 837.098 143.369C837.986 143.362 838.892 142.762 839.649 141.681L853.481 121.921C854.238 120.839 854.491 119.783 854.194 118.946C853.897 118.108 853.034 117.448 851.765 117.086L842.121 114.337C841.759 114.234 841.37 114.311 841.075 114.545C840.78 114.779 840.617 115.141 840.635 115.516C840.675 116.321 840.639 117.032 839.803 118.225C839.013 119.354 838.218 119.558 837.118 119.839C835.901 120.15 834.386 120.538 833.099 122.376C831.812 124.214 831.967 125.77 832.091 127.021C832.204 128.15 832.285 128.966 831.494 130.096C830.659 131.288 830.004 131.566 829.235 131.804ZM834.414 126.789C834.302 125.66 834.22 124.844 835.011 123.714C835.802 122.585 836.596 122.381 837.696 122.1C838.914 121.789 840.429 121.402 841.716 119.563C842.415 118.564 842.74 117.719 842.881 116.981L851.125 119.331C851.612 119.47 851.874 119.642 851.975 119.733C851.954 119.868 851.859 120.167 851.569 120.582L837.737 140.343C837.446 140.758 837.198 140.949 837.079 141.015C836.958 140.951 836.707 140.764 836.41 140.353L831.38 133.413C832.025 133.028 832.707 132.433 833.406 131.434C834.693 129.596 834.538 128.04 834.414 126.789Z" fill="#FFD9EE"/>
<path d="M527.769 -34.4868L524.271 -56.7111C526.405 -57.2943 527.809 -59.4071 527.457 -61.6425C527.079 -64.0413 524.821 -65.6855 522.422 -65.3079L503.088 -62.2646C500.689 -61.8871 499.045 -59.6285 499.423 -57.2297C499.774 -54.9945 501.76 -53.415 503.97 -53.5156L507.468 -31.291C503.352 -28.8972 499.891 -25.4888 497.416 -21.3807C496.998 -20.6861 497.222 -19.7842 497.916 -19.3659C498.224 -19.1805 498.572 -19.1213 498.901 -19.173C499.315 -19.2381 499.698 -19.479 499.931 -19.8657C502.314 -23.8217 505.715 -27.0535 509.768 -29.2118C510.32 -29.5059 510.625 -30.1176 510.527 -30.7355L506.874 -53.9447L515.091 -55.2381C515.892 -55.3641 516.439 -56.1156 516.313 -56.9164C516.187 -57.7172 515.436 -58.2643 514.635 -58.1382L504.001 -56.4644C503.201 -56.3385 502.449 -56.8865 502.323 -57.6862C502.197 -58.4859 502.745 -59.2386 503.544 -59.3645L522.879 -62.4078C523.678 -62.5337 524.431 -61.9857 524.557 -61.186C524.683 -60.3863 524.135 -59.6336 523.335 -59.5077L520.435 -59.0512C519.634 -58.9251 519.087 -58.1737 519.213 -57.3729C519.339 -56.5721 520.091 -56.025 520.891 -56.1511L521.375 -56.2271L525.028 -33.0182C525.125 -32.4003 525.604 -31.9117 526.219 -31.8015C536.884 -29.892 545.182 -21.4148 546.867 -10.7069C549.049 3.15221 539.548 16.2023 525.689 18.3838C522.422 18.8981 519.144 18.7796 515.947 18.0319C515.157 17.847 514.368 18.3375 514.183 19.1268C513.998 19.9161 514.489 20.7057 515.278 20.8904C518.846 21.7248 522.502 21.8572 526.145 21.2837C541.604 18.8505 552.2 4.29465 549.767 -11.1636C547.942 -22.7585 539.165 -32.0087 527.769 -34.4868Z" fill="#FFD9EE"/>
<path d="M528.683 4.81251C529.484 4.68645 530.031 3.93504 529.905 3.13419C529.779 2.33335 529.027 1.78632 528.226 1.91238C527.426 2.03844 526.879 2.78984 527.005 3.59069C527.131 4.39154 527.882 4.93856 528.683 4.81251Z" fill="#FFD9EE"/>
<path d="M516.3 12.0543C515.522 11.8291 514.707 12.2773 514.482 13.056C514.256 13.8347 514.705 14.6487 515.483 14.8743C518.663 15.7952 521.943 15.9997 525.232 15.4819C537.492 13.5522 545.897 2.00785 543.967 -10.2522C543.352 -14.1602 541.717 -17.8428 539.24 -20.902C538.865 -21.3661 538.246 -21.5569 537.674 -21.3829L537.157 -21.2264C537.093 -21.2069 537.029 -21.1826 536.968 -21.1543C534.874 -20.1871 533.841 -19.0515 533.011 -18.1391C532.092 -17.1281 531.484 -16.4603 529.478 -16.1445C527.765 -15.8749 526.887 -16.4173 525.673 -17.168C524.328 -17.999 522.655 -19.0332 519.867 -18.5944C517.08 -18.1556 515.806 -16.6575 514.781 -15.4535C513.856 -14.366 513.188 -13.5804 511.475 -13.3108C509.469 -12.995 508.686 -13.444 507.501 -14.1237C506.431 -14.7371 505.099 -15.5005 502.81 -15.7777C502.743 -15.7859 502.675 -15.7893 502.607 -15.788L502.068 -15.7784C501.471 -15.7683 500.942 -15.3983 500.726 -14.843C500.717 -14.8196 500.708 -14.7958 500.699 -14.7689C500.409 -14.0118 500.788 -13.163 501.545 -12.8733C501.874 -12.7475 502.22 -12.7477 502.53 -12.8504L502.554 -12.8507C504.191 -12.6371 505.09 -12.1217 506.041 -11.5765C507.449 -10.769 508.905 -9.9341 511.932 -10.4105C514.719 -10.8492 515.994 -12.3474 517.018 -13.5514C517.943 -14.6389 518.611 -15.4245 520.324 -15.6941C522.037 -15.9637 522.915 -15.4213 524.129 -14.6706C525.474 -13.8396 527.147 -12.8054 529.935 -13.2442C532.961 -13.7206 534.091 -14.9625 535.183 -16.1634C535.834 -16.8791 536.453 -17.56 537.615 -18.1957C539.401 -15.7186 540.588 -12.8358 541.067 -9.7955C542.745 0.865374 535.437 10.9039 524.776 12.582C521.915 13.032 519.063 12.8545 516.3 12.0543Z" fill="#FFD9EE"/>
<path d="M489.898 -27.7386L485.366 -56.5317C487.5 -57.1148 488.904 -59.2276 488.552 -61.4631C488.175 -63.8619 485.916 -65.5061 483.517 -65.1285L464.183 -62.0852C461.784 -61.7076 460.14 -59.4491 460.518 -57.0503C460.87 -54.8151 462.855 -53.2356 465.065 -53.3362L468.723 -30.0996C468.849 -29.2988 469.6 -28.7517 470.401 -28.8778C471.202 -29.0038 471.749 -29.7553 471.623 -30.5561L467.969 -53.7652L476.186 -55.0586C476.987 -55.1847 477.534 -55.9361 477.408 -56.737C477.282 -57.5378 476.531 -58.0848 475.73 -57.9588L465.096 -56.285C464.297 -56.1591 463.544 -56.7071 463.418 -57.5068C463.292 -58.3064 463.84 -59.0592 464.64 -59.1851L483.974 -62.2284C484.774 -62.3543 485.526 -61.8062 485.652 -61.0066C485.778 -60.2069 485.23 -59.4541 484.43 -59.3283L481.53 -58.8718C480.729 -58.7457 480.182 -57.9943 480.308 -57.1935C480.434 -56.3926 481.186 -55.8456 481.987 -55.9716L482.47 -56.0477L487.036 -27.0383C487.062 -26.8771 487.114 -26.721 487.191 -26.577L507.697 11.9524C508.935 14.2793 509.103 16.5923 508.168 18.4653C507.234 20.3381 505.285 21.5954 502.681 22.0053L472.713 26.7224C470.11 27.1322 467.869 26.5345 466.404 25.0391C464.94 23.5437 464.388 21.2912 464.852 18.6965L472.531 -24.2691C472.673 -25.0672 472.142 -25.8298 471.344 -25.9725C470.546 -26.1149 469.783 -25.5837 469.641 -24.7858L461.962 18.1798C461.326 21.7351 462.159 24.9007 464.307 27.0932C466.454 29.2857 469.602 30.1839 473.17 29.6224L503.138 24.9053C506.705 24.3437 509.425 22.522 510.795 19.7757C512.165 17.0295 511.985 13.7611 510.289 10.573L489.898 -27.7386Z" fill="#FFD9EE"/>
<path d="M472.114 5.7693C471.7 5.54108 471.2 5.52618 470.774 5.73004C470.347 5.93377 470.044 6.33094 469.961 6.79677L467.742 19.2121C467.45 20.8463 467.72 22.1858 468.501 22.9838C469.283 23.7819 470.617 24.0794 472.257 23.8213L502.225 19.1042C503.864 18.8461 505.042 18.1533 505.541 17.1536C506.04 16.154 505.885 14.7962 505.105 13.3309L499.179 2.19724C498.957 1.77949 498.547 1.49472 498.078 1.43202C497.609 1.36913 497.138 1.53651 496.814 1.88114C496.12 2.61912 495.445 3.20642 493.636 3.49124C491.923 3.76088 491.045 3.21845 489.83 2.46772C488.486 1.63676 486.813 0.60255 484.025 1.04136C481.237 1.48014 479.963 2.9783 478.939 4.18226C478.014 5.2698 477.346 6.05537 475.633 6.32501C473.824 6.60935 473.001 6.25814 472.114 5.7693ZM481.175 6.08401C482.1 4.99648 482.769 4.2109 484.481 3.9413C486.195 3.67163 487.072 4.21409 488.287 4.96482C489.631 5.79578 491.304 6.82999 494.092 6.39117C495.608 6.15258 496.656 5.70937 497.448 5.19343L502.513 14.7103C502.813 15.2728 502.885 15.6606 502.892 15.8318C502.751 15.9298 502.398 16.1049 501.768 16.204L471.8 20.9211C471.171 21.0202 470.78 20.9622 470.617 20.9121C470.57 20.7473 470.52 20.3559 470.632 19.7286L472.529 9.11629C473.44 9.36411 474.574 9.46364 476.089 9.2251C478.877 8.7859 480.151 7.28775 481.175 6.08401Z" fill="#FFD9EE"/>
<path d="M72.8693 -8.64784L71.5756 -27.0523C72.9531 -27.3041 73.9535 -28.5603 73.853 -29.9892C73.7453 -31.5225 72.4102 -32.6821 70.8769 -32.5743L58.5186 -31.7056C56.9852 -31.5979 55.8256 -30.2628 55.9334 -28.7295C56.0338 -27.3008 57.2001 -26.1968 58.5993 -26.1402L59.6433 -11.2874C59.6793 -10.7755 60.1235 -10.3897 60.6353 -10.4256C61.1472 -10.4616 61.5331 -10.9058 61.4971 -11.4177L60.4543 -26.2529L65.7066 -26.6221C66.2185 -26.6581 66.6043 -27.1023 66.5683 -27.6142C66.5323 -28.1261 66.0882 -28.5119 65.5763 -28.4759L58.7792 -27.9981C58.268 -27.9622 57.8231 -28.3487 57.7871 -28.8598C57.7512 -29.371 58.1377 -29.8159 58.6489 -29.8519L71.0073 -30.7206C71.5184 -30.7565 71.9634 -30.37 71.9993 -29.8589C72.0352 -29.3477 71.6487 -28.9027 71.1376 -28.8668L69.2838 -28.7365C68.7719 -28.7005 68.3861 -28.2564 68.4221 -27.7445C68.4581 -27.2326 68.9022 -26.8468 69.4141 -26.8828L69.7231 -26.9045L71.0265 -8.36169C71.0337 -8.25862 71.0581 -8.15738 71.0987 -8.06237L81.9374 17.3502C82.592 18.885 82.5719 20.3528 81.8808 21.4832C81.1896 22.6135 79.8925 23.3006 78.2282 23.4176L59.0727 24.7641C57.4084 24.8811 56.0278 24.3823 55.1853 23.3597C54.3429 22.337 54.1177 20.8865 54.5511 19.2754L61.7282 -7.40344C61.8615 -7.89904 61.5679 -8.40883 61.0724 -8.54216C60.5769 -8.67537 60.067 -8.38182 59.9337 -7.88635L52.7565 18.7925C52.1625 21.0001 52.5158 23.0418 53.751 24.5411C54.9862 26.0405 56.9224 26.778 59.2029 26.6177L78.3584 25.2712C80.6389 25.1109 82.4529 24.1098 83.4662 22.4524C84.4795 20.7949 84.5437 18.724 83.6468 16.6212L72.8693 -8.64784Z" fill="#FFD9EE"/>
<path d="M59.8335 11.5217C59.5846 11.3553 59.2704 11.3188 58.9903 11.4242C58.7099 11.5294 58.4974 11.7635 58.4196 12.0527L56.3457 19.7618C56.0728 20.7765 56.1701 21.636 56.6198 22.1817C57.0695 22.7275 57.8943 22.9876 58.9425 22.9139L78.098 21.5674C79.1461 21.4937 79.9266 21.1208 80.2954 20.5175C80.6644 19.9142 80.6405 19.0495 80.2282 18.0831L77.0961 10.7396C76.9786 10.4641 76.7355 10.2622 76.4432 10.1972C76.1509 10.1321 75.845 10.2121 75.6219 10.4118C75.1439 10.8395 74.6864 11.1732 73.5298 11.2545C72.4348 11.3315 71.9108 10.9417 71.1855 10.4022C70.3829 9.80515 69.3839 9.06202 67.602 9.18728C65.8201 9.31253 64.9351 10.1881 64.2238 10.8917C63.5813 11.5273 63.1172 11.9864 62.0222 12.0634C60.866 12.1444 60.3664 11.8782 59.8335 11.5217ZM65.5308 12.2126C66.1733 11.577 66.6374 11.1179 67.7322 11.0409C68.8273 10.9639 69.3513 11.3537 70.0765 11.8932C70.8791 12.4903 71.8781 13.2334 73.6601 13.1081C74.629 13.04 75.3143 12.8175 75.8416 12.5351L78.5188 18.8121C78.6771 19.1832 78.7019 19.4317 78.6964 19.54C78.6025 19.5941 78.3701 19.6854 77.9677 19.7137L58.8122 21.0601C58.4098 21.0884 58.1669 21.0306 58.0663 20.9901C58.0458 20.8836 58.0356 20.6341 58.1404 20.2446L59.913 13.655C60.4744 13.8609 61.184 13.9852 62.1527 13.9171C63.9346 13.7916 64.8197 12.9161 65.5308 12.2126Z" fill="#FFD9EE"/>
<path d="M975.082 269.653L973.287 244.122C975.198 243.773 976.586 242.03 976.446 240.048C976.297 237.921 974.445 236.312 972.318 236.462L955.174 237.667C953.047 237.816 951.439 239.668 951.588 241.795C951.727 243.777 953.345 245.309 955.286 245.387L956.735 265.991C956.785 266.701 957.401 267.237 958.111 267.187C958.821 267.137 959.356 266.521 959.306 265.81L957.86 245.231L965.146 244.719C965.856 244.669 966.391 244.053 966.341 243.343C966.291 242.633 965.675 242.097 964.965 242.147L955.536 242.81C954.827 242.86 954.21 242.324 954.16 241.615C954.11 240.906 954.646 240.288 955.355 240.238L972.499 239.033C973.208 238.984 973.825 239.52 973.875 240.229C973.925 240.938 973.389 241.555 972.679 241.605L970.108 241.786C969.398 241.836 968.863 242.452 968.913 243.162C968.962 243.872 969.579 244.407 970.289 244.357L970.717 244.327L972.525 270.05C972.535 270.193 972.569 270.333 972.626 270.465L987.661 305.717C988.569 307.846 988.541 309.883 987.583 311.451C986.624 313.019 984.824 313.972 982.516 314.134L955.943 316.002C953.634 316.164 951.719 315.472 950.55 314.054C949.382 312.635 949.069 310.623 949.671 308.388L959.627 271.379C959.812 270.692 959.404 269.984 958.717 269.799C958.03 269.615 957.322 270.022 957.137 270.709L947.181 307.718C946.357 310.781 946.847 313.613 948.561 315.693C950.274 317.773 952.96 318.796 956.124 318.573L982.696 316.705C985.86 316.483 988.376 315.094 989.782 312.795C991.188 310.496 991.277 307.623 990.032 304.706L975.082 269.653Z" fill="#FFD9EE"/>
<path d="M956.998 297.629C956.653 297.399 956.217 297.348 955.828 297.494C955.439 297.64 955.145 297.965 955.037 298.366L952.16 309.06C951.781 310.468 951.916 311.66 952.54 312.417C953.164 313.174 954.308 313.535 955.762 313.433L982.335 311.565C983.789 311.463 984.871 310.945 985.383 310.108C985.895 309.272 985.862 308.072 985.29 306.731L980.945 296.545C980.782 296.162 980.445 295.882 980.039 295.792C979.634 295.702 979.209 295.813 978.9 296.09C978.237 296.683 977.602 297.146 975.998 297.259C974.479 297.366 973.752 296.825 972.746 296.077C971.632 295.248 970.246 294.217 967.774 294.391C965.303 294.565 964.075 295.779 963.088 296.756C962.197 297.637 961.553 298.274 960.034 298.381C958.43 298.493 957.737 298.124 956.998 297.629ZM964.901 298.588C965.793 297.706 966.436 297.069 967.955 296.962C969.474 296.856 970.201 297.396 971.207 298.145C972.321 298.973 973.706 300.004 976.178 299.83C977.522 299.736 978.473 299.427 979.205 299.035L982.918 307.743C983.138 308.257 983.172 308.602 983.165 308.752C983.034 308.828 982.712 308.954 982.154 308.993L955.581 310.861C955.023 310.9 954.686 310.82 954.547 310.764C954.518 310.616 954.504 310.27 954.649 309.73L957.108 300.589C957.887 300.874 958.871 301.047 960.215 300.952C962.687 300.778 963.915 299.564 964.901 298.588Z" fill="#FFD9EE"/>
<path d="M18.9962 273.989L9.59812 264.553C10.4183 263.532 10.3572 262.032 9.41194 261.083C8.39755 260.064 6.74382 260.061 5.72533 261.075L-2.48368 269.251C-3.50218 270.265 -3.50551 271.919 -2.49112 272.938C-1.5459 273.887 -0.0455793 273.954 0.978657 273.138L10.3769 282.574C9.23598 285.151 8.76132 287.987 9.00253 290.816C9.04327 291.294 9.46397 291.649 9.94209 291.608C10.154 291.59 10.3415 291.497 10.4812 291.358C10.6568 291.183 10.7568 290.935 10.7341 290.669C10.5018 287.945 11.0092 285.214 12.2014 282.772C12.3639 282.439 12.2975 282.04 12.0362 281.777L2.22162 271.923L5.71045 268.448C6.05047 268.11 6.05158 267.559 5.71293 267.219C5.37428 266.879 4.82407 266.878 4.48406 267.217L-0.0309005 271.714C-0.370425 272.052 -0.921615 272.051 -1.25977 271.711C-1.59793 271.372 -1.59682 270.821 -1.25729 270.482L6.95172 262.306C7.29124 261.968 7.84243 261.969 8.18059 262.309C8.51875 262.648 8.51764 263.2 8.17811 263.538L6.94676 264.764C6.60674 265.103 6.60563 265.653 6.94428 265.993C7.28293 266.333 7.83313 266.334 8.17315 265.996L8.37838 265.791L18.1929 275.645C18.4542 275.908 18.8532 275.976 19.1865 275.815C24.9612 273.024 31.8834 274.204 36.4115 278.751C42.2722 284.635 42.2529 294.191 36.3685 300.051C34.9813 301.433 33.3691 302.515 31.5769 303.268C31.1345 303.453 30.9264 303.963 31.1121 304.405C31.2978 304.847 31.8072 305.055 32.2497 304.87C34.2496 304.03 36.0479 302.823 37.5948 301.283C44.1582 294.746 44.1797 284.088 37.6428 277.524C32.7396 272.601 25.319 271.218 18.9962 273.989Z" fill="#FFD9EE"/>
<path d="M33.0984 287.591C33.4384 287.252 33.4396 286.702 33.1009 286.362C32.7622 286.022 32.2121 286.021 31.872 286.359C31.532 286.698 31.5309 287.248 31.8695 287.588C32.2082 287.928 32.7584 287.929 33.0984 287.591Z" fill="#FFD9EE"/>
<path d="M33.0882 292.509C33.4282 292.17 33.4293 291.62 33.0906 291.28C32.752 290.94 32.2018 290.939 31.8618 291.277C31.5217 291.616 31.5206 292.166 31.8593 292.506C32.1979 292.846 32.7481 292.847 33.0882 292.509Z" fill="#FFD9EE"/>
<path d="M29.6707 300.282C29.2194 300.445 28.9848 300.942 29.1472 301.394C29.3096 301.846 29.8074 302.08 30.259 301.918C32.1028 301.254 33.7459 300.213 35.1426 298.822C40.348 293.637 40.3651 285.184 35.1806 279.979C33.528 278.32 31.4653 277.122 29.2153 276.517C28.8739 276.425 28.5109 276.549 28.2973 276.831L28.1043 277.085C28.08 277.117 28.058 277.151 28.0384 277.185C27.3708 278.377 27.2704 279.28 27.1897 280.005C27.1003 280.809 27.0411 281.34 26.1894 282.189C25.462 282.913 24.8529 282.958 24.01 283.02C23.0769 283.089 21.9157 283.175 20.7321 284.354C19.5485 285.532 19.4582 286.693 19.3857 287.626C19.3202 288.469 19.2729 289.077 18.5456 289.802C17.694 290.65 17.1627 290.707 16.3585 290.793C15.6325 290.871 14.7291 290.967 13.5354 291.63C13.5003 291.649 13.4667 291.671 13.4347 291.696L13.1795 291.888C12.8972 292.1 12.772 292.461 12.8614 292.802C12.8652 292.816 12.8692 292.831 12.874 292.847C12.9982 293.311 13.4747 293.586 13.9382 293.462C14.1396 293.408 14.3053 293.287 14.4183 293.13L14.43 293.122C15.2885 292.655 15.8986 292.59 16.5436 292.521C17.4991 292.419 18.4872 292.313 19.7721 291.033C20.9557 289.854 21.0459 288.694 21.1184 287.761C21.184 286.918 21.2313 286.309 21.9585 285.585C22.6859 284.861 23.295 284.816 24.138 284.753C25.071 284.685 26.2322 284.599 27.4159 283.42C28.7009 282.14 28.8107 281.153 28.9171 280.198C28.9803 279.628 29.0406 279.087 29.3767 278.378C31.0932 278.945 32.6638 279.914 33.9494 281.205C38.4576 285.732 38.4428 293.082 33.9164 297.59C32.7013 298.8 31.273 299.706 29.6707 300.282Z" fill="#FFD9EE"/>
<path d="M980.996 15.835L971.598 25.2711C972.418 26.2921 972.357 27.7926 971.412 28.7417C970.398 29.7602 968.744 29.7635 967.725 28.7491L959.516 20.5732C958.498 19.5588 958.494 17.905 959.509 16.8866C960.454 15.9375 961.954 15.8703 962.979 16.6864L972.377 7.25011C971.236 4.67284 970.761 1.83673 971.003 -0.991978C971.043 -1.47026 971.464 -1.82469 971.942 -1.78396C972.154 -1.76587 972.342 -1.67326 972.481 -1.53419C972.657 -1.35923 972.757 -1.1107 972.734 -0.844401C972.502 1.87959 973.009 4.61028 974.201 7.05252C974.364 7.38538 974.297 7.78448 974.036 8.04684L964.222 17.9011L967.71 21.3759C968.05 21.7145 968.052 22.2647 967.713 22.6048C967.374 22.9448 966.824 22.9459 966.484 22.6072L961.969 18.1105C961.63 17.7723 961.078 17.7734 960.74 18.1129C960.402 18.4525 960.403 19.0037 960.743 19.3418L968.952 27.5178C969.291 27.8559 969.842 27.8548 970.181 27.5153C970.519 27.1758 970.518 26.6246 970.178 26.2864L968.947 25.06C968.607 24.7214 968.606 24.1712 968.944 23.8311C969.283 23.4911 969.833 23.49 970.173 23.8287L970.378 24.0331L980.193 14.1789C980.454 13.9165 980.853 13.8485 981.187 14.0097C986.961 16.7998 993.883 15.6198 998.412 11.0734C1004.27 5.18899 1004.25 -4.36639 998.369 -10.2271C996.981 -11.6087 995.369 -12.6908 993.577 -13.4433C993.135 -13.6289 992.926 -14.1383 993.112 -14.5808C993.298 -15.0232 993.807 -15.2313 994.25 -15.0455C996.25 -14.2058 998.048 -12.999 999.595 -11.4583C1006.16 -4.92143 1006.18 5.7365 999.643 12.2998C994.74 17.2229 987.319 18.6067 980.996 15.835Z" fill="#FFD9EE"/>
<path d="M995.098 2.23341C995.438 2.57207 995.44 3.12225 995.101 3.46228C994.762 3.80231 994.212 3.80342 993.872 3.46476C993.532 3.1261 993.531 2.57592 993.87 2.23589C994.208 1.89586 994.758 1.89475 995.098 2.23341Z" fill="#FFD9EE"/>
<path d="M991.671 -10.458C991.219 -10.6205 990.985 -11.1182 991.147 -11.5699C991.31 -12.0214 991.807 -12.2558 992.259 -12.0933C994.103 -11.43 995.746 -10.3884 997.143 -8.99738C1002.35 -3.81292 1002.37 4.63991 997.181 9.84533C995.528 11.5046 993.465 12.7018 991.215 13.3074C990.874 13.3993 990.511 13.2756 990.297 12.9936L990.104 12.7392C990.08 12.7074 990.058 12.6737 990.038 12.6388C989.371 11.4476 989.27 10.5445 989.19 9.81893C989.1 9.01502 989.041 8.48385 988.189 7.63551C987.462 6.91104 986.853 6.86615 986.01 6.80395C985.077 6.73513 983.916 6.64949 982.732 5.4706C981.548 4.29179 981.458 3.13101 981.386 2.19819C981.32 1.35556 981.273 0.746871 980.546 0.0225631C979.694 -0.825692 979.163 -0.882542 978.358 -0.968661C977.633 -1.04642 976.729 -1.14315 975.535 -1.80581C975.5 -1.82524 975.467 -1.84713 975.435 -1.87131L975.18 -2.06332C974.897 -2.27535 974.772 -2.63663 974.861 -2.97778C974.865 -2.99221 974.869 -3.00664 974.874 -3.02278C974.998 -3.48632 975.475 -3.76149 975.938 -3.63732C976.14 -3.58333 976.305 -3.46307 976.418 -3.30609L976.43 -3.29734C977.289 -2.83112 977.899 -2.76574 978.544 -2.69675C979.499 -2.59447 980.487 -2.48865 981.772 -1.20887C982.956 -0.0300629 983.046 1.13071 983.118 2.06353C983.184 2.90616 983.231 3.51485 983.959 4.23916C984.686 4.96363 985.295 5.00853 986.138 5.07073C987.071 5.13955 988.232 5.22519 989.416 6.40408C990.701 7.68394 990.811 8.67158 990.917 9.62669C990.98 10.1958 991.041 10.7373 991.377 11.4457C993.093 10.8789 994.664 9.9098 995.949 8.61893C1000.46 4.09249 1000.44 -3.25781 995.916 -7.76603C994.701 -8.97582 993.273 -9.88157 991.671 -10.458Z" fill="#FFD9EE"/>
<g clip-path="url(#clip1)">
<path d="M568.336 262.769L554.431 247.551C553.66 246.707 553.07 245.734 552.676 244.661L550.943 239.927C550.756 239.417 550.779 238.865 551.008 238.373C551.286 237.772 551.315 237.099 551.087 236.477L550.841 235.807C550.704 235.432 550.289 235.24 549.914 235.377L540.44 238.846C540.065 238.984 539.872 239.399 540.01 239.773L540.255 240.444C540.483 241.066 540.939 241.562 541.539 241.84C542.032 242.069 542.406 242.475 542.593 242.985L544.326 247.719C544.719 248.792 544.897 249.916 544.853 251.059L544.636 256.719C544.636 256.721 544.636 256.723 544.636 256.725L544.064 271.657C544.018 272.853 544.569 273.988 545.536 274.692C546.504 275.396 547.753 275.571 548.877 275.16L566.923 268.551C568.047 268.139 568.888 267.2 569.172 266.037C569.456 264.874 569.144 263.652 568.336 262.769ZM546.297 251.114C546.348 249.783 546.142 248.473 545.683 247.222L543.95 242.488C543.63 241.616 542.991 240.92 542.148 240.529C541.9 240.414 541.711 240.21 541.615 239.955L549.733 236.982C549.824 237.239 549.812 237.517 549.697 237.765C549.306 238.607 549.266 239.552 549.586 240.424L551.319 245.157C551.777 246.409 552.466 247.542 553.364 248.526L556.465 251.919L546.121 255.707L546.297 251.114ZM567.768 265.694C567.596 266.398 567.107 266.944 566.426 267.194L548.38 273.802C547.7 274.052 546.973 273.95 546.387 273.523C545.945 273.202 545.654 272.747 545.55 272.232L546.668 271.823C547.042 271.686 547.235 271.27 547.098 270.896C546.961 270.521 546.545 270.328 546.171 270.466L545.547 270.694L545.631 268.508L546.775 268.089C547.15 267.952 547.343 267.537 547.206 267.162C547.068 266.787 546.653 266.595 546.278 266.732L545.691 266.947L545.774 264.762L546.951 264.331C547.326 264.194 547.519 263.778 547.381 263.404C547.244 263.029 546.829 262.836 546.454 262.974L545.834 263.201L545.918 261.015L547.127 260.573C547.502 260.435 547.694 260.02 547.557 259.645C547.42 259.271 547.005 259.078 546.63 259.215L545.978 259.454L546.061 257.269L557.519 253.073L567.27 263.744C567.758 264.279 567.94 264.99 567.768 265.694Z" fill="#FFD9EE"/>
<path d="M565.001 264.037C564.732 263.742 564.275 263.721 563.98 263.99C563.685 264.259 563.664 264.716 563.933 265.011L563.94 265.018C564.144 265.241 564.455 265.308 564.722 265.21C564.808 265.178 564.889 265.13 564.961 265.065C565.255 264.796 565.276 264.339 565.007 264.044L565.001 264.037Z" fill="#FFD9EE"/>
<path d="M563.186 262.054L558.586 257.021C558.317 256.726 557.86 256.705 557.565 256.975C557.271 257.244 557.25 257.701 557.519 257.996L562.119 263.029C562.322 263.252 562.634 263.318 562.901 263.22C562.987 263.189 563.068 263.141 563.14 263.075C563.434 262.806 563.455 262.349 563.186 262.054Z" fill="#FFD9EE"/>
</g>
</g>
<defs>
<clipPath id="clip0">
<rect width="1004" height="294" rx="20" fill="white"/>
</clipPath>
<clipPath id="clip1">
<rect x="527.767" y="243.488" width="37" height="37" transform="rotate(-20.1129 527.767 243.488)" fill="white"/>
</clipPath>
</defs>
</svg>
