<svg width="1004" height="294" viewBox="0 0 1004 294" fill="none" xmlns="http://www.w3.org/2000/svg">
<g clip-path="url(#clip0)">
<rect width="1004" height="294" rx="20" fill="white"/>
<rect width="1004" height="294" rx="20" fill="#2E279D"/>
<path d="M219.009 148.88C219.009 144.72 219.909 141.02 221.709 137.78C223.509 134.5 226.009 131.96 229.209 130.16C232.449 128.32 236.109 127.4 240.189 127.4C245.189 127.4 249.469 128.72 253.029 131.36C256.589 134 258.969 137.6 260.169 142.16H248.889C248.049 140.4 246.849 139.06 245.289 138.14C243.769 137.22 242.029 136.76 240.069 136.76C236.909 136.76 234.349 137.86 232.389 140.06C230.429 142.26 229.449 145.2 229.449 148.88C229.449 152.56 230.429 155.5 232.389 157.7C234.349 159.9 236.909 161 240.069 161C242.029 161 243.769 160.54 245.289 159.62C246.849 158.7 248.049 157.36 248.889 155.6H260.169C258.969 160.16 256.589 163.76 253.029 166.4C249.469 169 245.189 170.3 240.189 170.3C236.109 170.3 232.449 169.4 229.209 167.6C226.009 165.76 223.509 163.22 221.709 159.98C219.909 156.74 219.009 153.04 219.009 148.88ZM281.692 170.48C278.412 170.48 275.452 169.78 272.812 168.38C270.212 166.98 268.152 164.98 266.632 162.38C265.152 159.78 264.412 156.74 264.412 153.26C264.412 149.82 265.172 146.8 266.692 144.2C268.212 141.56 270.292 139.54 272.932 138.14C275.572 136.74 278.532 136.04 281.812 136.04C285.092 136.04 288.052 136.74 290.692 138.14C293.332 139.54 295.412 141.56 296.932 144.2C298.452 146.8 299.212 149.82 299.212 153.26C299.212 156.7 298.432 159.74 296.872 162.38C295.352 164.98 293.252 166.98 290.572 168.38C287.932 169.78 284.972 170.48 281.692 170.48ZM281.692 161.6C283.652 161.6 285.312 160.88 286.672 159.44C288.072 158 288.772 155.94 288.772 153.26C288.772 150.58 288.092 148.52 286.732 147.08C285.412 145.64 283.772 144.92 281.812 144.92C279.812 144.92 278.152 145.64 276.832 147.08C275.512 148.48 274.852 150.54 274.852 153.26C274.852 155.94 275.492 158 276.772 159.44C278.092 160.88 279.732 161.6 281.692 161.6ZM347.376 136.16C351.536 136.16 354.836 137.42 357.276 139.94C359.756 142.46 360.996 145.96 360.996 150.44V170H350.796V151.82C350.796 149.66 350.216 148 349.056 146.84C347.936 145.64 346.376 145.04 344.376 145.04C342.376 145.04 340.796 145.64 339.636 146.84C338.516 148 337.956 149.66 337.956 151.82V170H327.756V151.82C327.756 149.66 327.176 148 326.016 146.84C324.896 145.64 323.336 145.04 321.336 145.04C319.336 145.04 317.756 145.64 316.596 146.84C315.476 148 314.916 149.66 314.916 151.82V170H304.656V136.52H314.916V140.72C315.956 139.32 317.316 138.22 318.996 137.42C320.676 136.58 322.576 136.16 324.696 136.16C327.216 136.16 329.456 136.7 331.416 137.78C333.416 138.86 334.976 140.4 336.096 142.4C337.256 140.56 338.836 139.06 340.836 137.9C342.836 136.74 345.016 136.16 347.376 136.16ZM378.431 141.26C379.431 139.7 380.811 138.44 382.571 137.48C384.331 136.52 386.391 136.04 388.751 136.04C391.511 136.04 394.011 136.74 396.251 138.14C398.491 139.54 400.251 141.54 401.531 144.14C402.851 146.74 403.511 149.76 403.511 153.2C403.511 156.64 402.851 159.68 401.531 162.32C400.251 164.92 398.491 166.94 396.251 168.38C394.011 169.78 391.511 170.48 388.751 170.48C386.431 170.48 384.371 170 382.571 169.04C380.811 168.08 379.431 166.84 378.431 165.32V185.96H368.171V136.52H378.431V141.26ZM393.071 153.2C393.071 150.64 392.351 148.64 390.911 147.2C389.511 145.72 387.771 144.98 385.691 144.98C383.651 144.98 381.911 145.72 380.471 147.2C379.071 148.68 378.371 150.7 378.371 153.26C378.371 155.82 379.071 157.84 380.471 159.32C381.911 160.8 383.651 161.54 385.691 161.54C387.731 161.54 389.471 160.8 390.911 159.32C392.351 157.8 393.071 155.76 393.071 153.2ZM441.954 136.52V170H431.694V165.44C430.654 166.92 429.234 168.12 427.434 169.04C425.674 169.92 423.714 170.36 421.554 170.36C418.994 170.36 416.734 169.8 414.774 168.68C412.814 167.52 411.294 165.86 410.214 163.7C409.134 161.54 408.594 159 408.594 156.08V136.52H418.794V154.7C418.794 156.94 419.374 158.68 420.534 159.92C421.694 161.16 423.254 161.78 425.214 161.78C427.214 161.78 428.794 161.16 429.954 159.92C431.114 158.68 431.694 156.94 431.694 154.7V136.52H441.954ZM467.984 161.3V170H462.764C459.044 170 456.144 169.1 454.064 167.3C451.984 165.46 450.944 162.48 450.944 158.36V145.04H446.864V136.52H450.944V128.36H461.204V136.52H467.924V145.04H461.204V158.48C461.204 159.48 461.444 160.2 461.924 160.64C462.404 161.08 463.204 161.3 464.324 161.3H467.984ZM505.259 152.72C505.259 153.68 505.199 154.68 505.079 155.72H481.859C482.019 157.8 482.679 159.4 483.839 160.52C485.039 161.6 486.499 162.14 488.219 162.14C490.779 162.14 492.559 161.06 493.559 158.9H504.479C503.919 161.1 502.899 163.08 501.419 164.84C499.979 166.6 498.159 167.98 495.959 168.98C493.759 169.98 491.299 170.48 488.579 170.48C485.299 170.48 482.379 169.78 479.819 168.38C477.259 166.98 475.259 164.98 473.819 162.38C472.379 159.78 471.659 156.74 471.659 153.26C471.659 149.78 472.359 146.74 473.759 144.14C475.199 141.54 477.199 139.54 479.759 138.14C482.319 136.74 485.259 136.04 488.579 136.04C491.819 136.04 494.699 136.72 497.219 138.08C499.739 139.44 501.699 141.38 503.099 143.9C504.539 146.42 505.259 149.36 505.259 152.72ZM494.759 150.02C494.759 148.26 494.159 146.86 492.959 145.82C491.759 144.78 490.259 144.26 488.459 144.26C486.739 144.26 485.279 144.76 484.079 145.76C482.919 146.76 482.199 148.18 481.919 150.02H494.759ZM520.931 142.1C522.131 140.26 523.631 138.82 525.431 137.78C527.231 136.7 529.231 136.16 531.431 136.16V147.02H528.611C526.051 147.02 524.131 147.58 522.851 148.7C521.571 149.78 520.931 151.7 520.931 154.46V170H510.671V136.52H520.931V142.1ZM564.29 170.42C561.21 170.42 558.45 169.92 556.01 168.92C553.57 167.92 551.61 166.44 550.13 164.48C548.69 162.52 547.93 160.16 547.85 157.4H558.77C558.93 158.96 559.47 160.16 560.39 161C561.31 161.8 562.51 162.2 563.99 162.2C565.51 162.2 566.71 161.86 567.59 161.18C568.47 160.46 568.91 159.48 568.91 158.24C568.91 157.2 568.55 156.34 567.83 155.66C567.15 154.98 566.29 154.42 565.25 153.98C564.25 153.54 562.81 153.04 560.93 152.48C558.21 151.64 555.99 150.8 554.27 149.96C552.55 149.12 551.07 147.88 549.83 146.24C548.59 144.6 547.97 142.46 547.97 139.82C547.97 135.9 549.39 132.84 552.23 130.64C555.07 128.4 558.77 127.28 563.33 127.28C567.97 127.28 571.71 128.4 574.55 130.64C577.39 132.84 578.91 135.92 579.11 139.88H568.01C567.93 138.52 567.43 137.46 566.51 136.7C565.59 135.9 564.41 135.5 562.97 135.5C561.73 135.5 560.73 135.84 559.97 136.52C559.21 137.16 558.83 138.1 558.83 139.34C558.83 140.7 559.47 141.76 560.75 142.52C562.03 143.28 564.03 144.1 566.75 144.98C569.47 145.9 571.67 146.78 573.35 147.62C575.07 148.46 576.55 149.68 577.79 151.28C579.03 152.88 579.65 154.94 579.65 157.46C579.65 159.86 579.03 162.04 577.79 164C576.59 165.96 574.83 167.52 572.51 168.68C570.19 169.84 567.45 170.42 564.29 170.42ZM583.924 153.26C583.924 149.78 584.624 146.74 586.024 144.14C587.464 141.54 589.444 139.54 591.964 138.14C594.524 136.74 597.444 136.04 600.724 136.04C604.924 136.04 608.424 137.14 611.224 139.34C614.064 141.54 615.924 144.64 616.804 148.64H605.884C604.964 146.08 603.184 144.8 600.544 144.8C598.664 144.8 597.164 145.54 596.044 147.02C594.924 148.46 594.364 150.54 594.364 153.26C594.364 155.98 594.924 158.08 596.044 159.56C597.164 161 598.664 161.72 600.544 161.72C603.184 161.72 604.964 160.44 605.884 157.88H616.804C615.924 161.8 614.064 164.88 611.224 167.12C608.384 169.36 604.884 170.48 600.724 170.48C597.444 170.48 594.524 169.78 591.964 168.38C589.444 166.98 587.464 164.98 586.024 162.38C584.624 159.78 583.924 156.74 583.924 153.26ZM627.452 133.04C625.652 133.04 624.172 132.52 623.012 131.48C621.892 130.4 621.332 129.08 621.332 127.52C621.332 125.92 621.892 124.6 623.012 123.56C624.172 122.48 625.652 121.94 627.452 121.94C629.212 121.94 630.652 122.48 631.772 123.56C632.932 124.6 633.512 125.92 633.512 127.52C633.512 129.08 632.932 130.4 631.772 131.48C630.652 132.52 629.212 133.04 627.452 133.04ZM632.552 136.52V170H622.292V136.52H632.552ZM671.548 152.72C671.548 153.68 671.488 154.68 671.368 155.72H648.148C648.308 157.8 648.968 159.4 650.128 160.52C651.328 161.6 652.788 162.14 654.508 162.14C657.068 162.14 658.848 161.06 659.848 158.9H670.768C670.208 161.1 669.188 163.08 667.708 164.84C666.268 166.6 664.448 167.98 662.248 168.98C660.048 169.98 657.588 170.48 654.868 170.48C651.588 170.48 648.668 169.78 646.108 168.38C643.548 166.98 641.548 164.98 640.108 162.38C638.668 159.78 637.948 156.74 637.948 153.26C637.948 149.78 638.648 146.74 640.048 144.14C641.488 141.54 643.488 139.54 646.048 138.14C648.608 136.74 651.548 136.04 654.868 136.04C658.108 136.04 660.988 136.72 663.508 138.08C666.028 139.44 667.988 141.38 669.388 143.9C670.828 146.42 671.548 149.36 671.548 152.72ZM661.048 150.02C661.048 148.26 660.448 146.86 659.248 145.82C658.048 144.78 656.548 144.26 654.748 144.26C653.028 144.26 651.568 144.76 650.368 145.76C649.208 146.76 648.488 148.18 648.208 150.02H661.048ZM697.36 136.16C701.28 136.16 704.4 137.44 706.72 140C709.08 142.52 710.26 146 710.26 150.44V170H700.06V151.82C700.06 149.58 699.48 147.84 698.32 146.6C697.16 145.36 695.6 144.74 693.64 144.74C691.68 144.74 690.12 145.36 688.96 146.6C687.8 147.84 687.22 149.58 687.22 151.82V170H676.96V136.52H687.22V140.96C688.26 139.48 689.66 138.32 691.42 137.48C693.18 136.6 695.16 136.16 697.36 136.16ZM715.35 153.26C715.35 149.78 716.05 146.74 717.45 144.14C718.89 141.54 720.87 139.54 723.39 138.14C725.95 136.74 728.87 136.04 732.15 136.04C736.35 136.04 739.85 137.14 742.65 139.34C745.49 141.54 747.35 144.64 748.23 148.64H737.31C736.39 146.08 734.61 144.8 731.97 144.8C730.09 144.8 728.59 145.54 727.47 147.02C726.35 148.46 725.79 150.54 725.79 153.26C725.79 155.98 726.35 158.08 727.47 159.56C728.59 161 730.09 161.72 731.97 161.72C734.61 161.72 736.39 160.44 737.31 157.88H748.23C747.35 161.8 745.49 164.88 742.65 167.12C739.81 169.36 736.31 170.48 732.15 170.48C728.87 170.48 725.95 169.78 723.39 168.38C720.87 166.98 718.89 164.98 717.45 162.38C716.05 159.78 715.35 156.74 715.35 153.26ZM785.278 152.72C785.278 153.68 785.218 154.68 785.098 155.72H761.878C762.038 157.8 762.698 159.4 763.858 160.52C765.058 161.6 766.518 162.14 768.238 162.14C770.798 162.14 772.578 161.06 773.578 158.9H784.498C783.938 161.1 782.918 163.08 781.438 164.84C779.998 166.6 778.178 167.98 775.978 168.98C773.778 169.98 771.318 170.48 768.598 170.48C765.318 170.48 762.398 169.78 759.838 168.38C757.278 166.98 755.278 164.98 753.838 162.38C752.398 159.78 751.678 156.74 751.678 153.26C751.678 149.78 752.378 146.74 753.778 144.14C755.218 141.54 757.218 139.54 759.778 138.14C762.338 136.74 765.278 136.04 768.598 136.04C771.838 136.04 774.718 136.72 777.238 138.08C779.758 139.44 781.718 141.38 783.118 143.9C784.558 146.42 785.278 149.36 785.278 152.72ZM774.778 150.02C774.778 148.26 774.178 146.86 772.978 145.82C771.778 144.78 770.278 144.26 768.478 144.26C766.758 144.26 765.298 144.76 764.098 145.76C762.938 146.76 762.218 148.18 761.938 150.02H774.778Z" fill="#FFD9EE"/>
<path d="M760.123 3.87489C759.868 3.74443 759.661 3.51334 759.554 3.20322L755.883 -7.46668C755.756 -7.83502 755.792 -8.26025 755.982 -8.63209C756.171 -9.00322 756.495 -9.28176 756.867 -9.39586L767.66 -12.6862C768.362 -12.9004 769.034 -12.4762 769.163 -11.7396C769.291 -11.0026 768.827 -10.2317 768.125 -10.0185L758.824 -7.18239L761.987 2.01321C762.226 2.70697 761.874 3.53513 761.203 3.86348C760.831 4.0453 760.439 4.03621 760.123 3.87489Z" fill="#FFD9EE"/>
<path d="M774.401 11.1587C774.085 10.9973 773.848 10.6857 773.777 10.2783C773.648 9.54168 774.113 8.77111 774.814 8.55687L784.116 5.72072L780.952 -3.47487C780.714 -4.16761 781.065 -4.99609 781.737 -5.32482C782.409 -5.65317 783.148 -5.3573 783.385 -4.66418L787.056 6.00572C787.183 6.37406 787.147 6.79929 786.957 7.17042C786.768 7.54226 786.445 7.82112 786.072 7.9349L775.279 11.2252C774.965 11.3209 774.657 11.2891 774.401 11.1587Z" fill="#FFD9EE"/>
<path d="M762.031 11.4457C761.954 11.4066 761.882 11.358 761.813 11.2998C761.283 10.8476 761.239 9.97802 761.716 9.35864L778.598 -12.5982C779.074 -13.2176 779.891 -13.3536 780.421 -12.9011C780.952 -12.4489 780.996 -11.58 780.519 -10.9599L763.636 10.997C763.221 11.537 762.548 11.7095 762.031 11.4457Z" fill="#FFD9EE"/>
<path d="M784.194 39.4084L731.504 12.5272C727.367 10.4163 725.946 4.88346 728.339 0.193059L754.199 -50.4944C756.591 -55.1841 761.905 -57.2824 766.042 -55.1715L818.732 -28.2903C822.87 -26.1794 824.29 -20.6459 821.897 -15.9562L796.038 34.7313C793.645 39.4217 788.332 41.5193 784.194 39.4084ZM764.75 -52.6379C761.845 -54.12 758.114 -52.6468 756.434 -49.354L730.575 1.33347C728.895 4.62629 729.892 8.51148 732.797 9.99363L785.487 36.8748C788.392 38.3569 792.123 36.8837 793.803 33.5908L819.662 -17.0966C821.342 -20.3894 820.345 -24.2746 817.44 -25.7567L764.75 -52.6379Z" fill="#FFD9EE"/>
<path d="M133.533 154.689C133.306 154.622 133.104 154.466 132.971 154.231L128.391 146.141C128.233 145.862 128.198 145.512 128.296 145.182C128.393 144.853 128.613 144.579 128.897 144.43L137.144 140.14C137.68 139.861 138.289 140.104 138.504 140.681C138.718 141.259 138.459 141.953 137.923 142.231L130.815 145.929L134.762 152.901C135.06 153.427 134.9 154.15 134.405 154.517C134.132 154.721 133.813 154.772 133.533 154.689Z" fill="#FFD9EE"/>
<path d="M146.194 158.438C145.913 158.355 145.674 158.138 145.556 157.819C145.341 157.242 145.601 156.548 146.137 156.269L153.244 152.571L149.297 145.599C149 145.074 149.159 144.35 149.654 143.983C150.149 143.616 150.792 143.744 151.088 144.27L155.668 152.359C155.826 152.638 155.861 152.988 155.764 153.317C155.666 153.647 155.446 153.922 155.162 154.07L146.915 158.36C146.675 158.485 146.42 158.505 146.194 158.438Z" fill="#FFD9EE"/>
<path d="M136.219 160.536C136.151 160.516 136.085 160.487 136.021 160.45C135.523 160.164 135.357 159.466 135.649 158.893L146.018 138.567C146.311 137.993 146.951 137.76 147.449 138.047C147.947 138.333 148.113 139.03 147.82 139.605L137.452 159.93C137.197 160.43 136.678 160.671 136.219 160.536Z" fill="#FFD9EE"/>
<path d="M158.38 179.845L111.656 166.005C107.987 164.918 106.003 160.65 107.235 156.491L120.55 111.543C121.782 107.384 125.77 104.884 129.439 105.971L176.163 119.812C179.832 120.899 181.815 125.167 180.583 129.326L167.269 174.274C166.037 178.433 162.049 180.932 158.38 179.845ZM128.773 108.218C126.197 107.455 123.397 109.21 122.532 112.13L109.218 157.078C108.353 159.998 109.745 162.995 112.321 163.758L159.045 177.598C161.622 178.362 164.422 176.607 165.287 173.687L178.601 128.738C179.466 125.818 178.074 122.822 175.497 122.059L128.773 108.218Z" fill="#FFD9EE"/>
<path d="M176.498 139.472L118.447 122.277C117.9 122.114 117.605 121.48 117.789 120.86C117.972 120.24 118.565 119.868 119.113 120.03L177.164 137.226C177.711 137.388 178.006 138.023 177.822 138.643C177.638 139.263 177.046 139.635 176.498 139.472Z" fill="#FFD9EE"/>
<path d="M135.983 121.631C134.254 121.119 133.319 119.106 133.899 117.147C134.48 115.187 136.36 114.009 138.089 114.521C139.818 115.033 140.753 117.045 140.172 119.005C139.592 120.965 137.712 122.143 135.983 121.631ZM137.423 116.768C136.787 116.579 136.095 117.012 135.881 117.734C135.668 118.456 136.012 119.196 136.648 119.384C137.285 119.573 137.976 119.139 138.19 118.418C138.404 117.696 138.06 116.956 137.423 116.768Z" fill="#FFD9EE"/>
<path d="M126.356 118.74C124.626 118.228 123.691 116.216 124.272 114.256C124.853 112.296 126.732 111.118 128.462 111.63C130.191 112.143 131.126 114.154 130.545 116.114C129.964 118.075 128.085 119.253 126.356 118.74ZM127.796 113.877C127.16 113.689 126.468 114.122 126.254 114.843C126.041 115.565 126.385 116.305 127.021 116.494C127.658 116.682 128.349 116.249 128.563 115.527C128.776 114.806 128.433 114.066 127.796 113.877Z" fill="#FFD9EE"/>
<path d="M145.609 124.515C143.88 124.003 142.946 121.991 143.526 120.031C144.107 118.071 145.986 116.893 147.715 117.405C149.445 117.918 150.379 119.929 149.799 121.889C149.218 123.849 147.339 125.027 145.609 124.515ZM147.05 119.652C146.414 119.463 145.722 119.897 145.508 120.618C145.295 121.34 145.639 122.08 146.275 122.268C146.911 122.457 147.603 122.023 147.816 121.302C148.03 120.58 147.686 119.84 147.05 119.652Z" fill="#FFD9EE"/>
<path d="M40.4948 307.454C40.1616 307.577 39.7718 307.539 39.4248 307.314C38.7965 306.909 38.5461 306.045 38.8648 305.384L43.0966 296.629L34.1969 292.71C33.5263 292.414 33.1563 291.594 33.3714 290.877C33.586 290.161 34.3048 289.82 34.975 290.116L45.302 294.663C45.6584 294.82 45.9461 295.135 46.09 295.526C46.2343 295.918 46.2198 296.345 46.0505 296.695L41.1395 306.855C40.9968 307.15 40.7641 307.355 40.4948 307.454Z" fill="#FFD9EE"/>
<path d="M32.3085 316.732C32.2277 316.761 32.1426 316.782 32.0534 316.793C31.3614 316.875 30.6932 316.317 30.5618 315.547L25.8995 288.245C25.768 287.475 26.2222 286.783 26.9148 286.7C27.6068 286.618 28.2747 287.176 28.4064 287.947L33.0687 315.248C33.1832 315.92 32.8532 316.531 32.3085 316.732Z" fill="#FFD9EE"/>
<path d="M67.8857 319.439L12.3793 339.88C8.02049 341.486 2.99363 338.773 1.17391 333.832L-18.4911 280.435C-20.3106 275.495 -18.2443 270.168 -13.8856 268.563L41.6208 248.121C45.9796 246.516 51.0068 249.23 52.8262 254.17L72.4912 307.567C74.3109 312.508 72.2444 317.833 67.8857 319.439ZM-12.9026 271.232C-15.9631 272.359 -17.4138 276.099 -16.1363 279.568L3.52873 332.964C4.80623 336.433 8.33585 338.339 11.3963 337.211L66.9027 316.77C69.9632 315.642 71.4139 311.903 70.1364 308.434L50.4714 255.037C49.1939 251.568 45.6643 249.663 42.6038 250.79L-12.9026 271.232Z" fill="#FFD9EE"/>
<path d="M56.219 267.014L-12.7435 292.411C-13.3939 292.651 -14.1408 292.248 -14.4123 291.51C-14.6836 290.774 -14.3769 289.982 -13.7264 289.742L55.2361 264.345C55.8866 264.105 56.6337 264.509 56.905 265.245C57.1765 265.983 56.8695 266.774 56.219 267.014Z" fill="#FFD9EE"/>
<path d="M3.84404 279.049C1.79014 279.805 -0.580007 278.526 -1.43734 276.198C-2.29496 273.869 -1.32052 271.359 0.733375 270.602C2.78793 269.846 5.15714 271.125 6.01476 273.453C6.8721 275.781 5.89859 278.292 3.84404 279.049ZM1.71632 273.271C0.960733 273.55 0.601798 274.473 0.917472 275.331C1.23315 276.188 2.1055 276.658 2.86109 276.38C3.61734 276.101 3.97561 275.178 3.65994 274.321C3.34427 273.463 2.47257 272.993 1.71632 273.271Z" fill="#FFD9EE"/>
<path d="M15.307 274.873C13.2531 275.629 10.8839 274.35 10.0262 272.021C9.16891 269.693 10.1427 267.183 12.1966 266.427C14.2511 265.67 16.6204 266.949 17.4777 269.277C18.3353 271.606 17.3615 274.116 15.307 274.873ZM13.1793 269.095C12.4237 269.373 12.0654 270.297 12.3811 271.154C12.6967 272.011 13.5684 272.482 14.324 272.204C15.0803 271.925 15.4385 271.001 15.1229 270.144C14.8072 269.287 13.9355 268.817 13.1793 269.095Z" fill="#FFD9EE"/>
<path d="M851.309 139.663C850.814 139.855 850.241 139.855 849.682 139.62L830.458 131.537C829.795 131.257 829.254 130.684 828.975 129.964C828.697 129.246 828.712 128.457 829.013 127.804L837.773 108.88C838.341 107.65 839.754 107.245 840.928 107.975C842.101 108.707 842.591 110.295 842.021 111.525L834.472 127.835L851.039 134.802C852.289 135.327 852.997 136.832 852.623 138.161C852.415 138.898 851.92 139.426 851.309 139.663Z" fill="#FFD9EE"/>
<path d="M878.93 128.961C878.319 129.198 877.597 129.141 876.949 128.736C875.775 128.007 875.286 126.417 875.854 125.187L883.403 108.877L866.836 101.91C865.588 101.386 864.879 99.8814 865.254 98.5501C865.629 97.2206 866.946 96.567 868.194 97.0935L887.418 105.177C888.081 105.456 888.622 106.03 888.901 106.748C889.179 107.467 889.166 108.256 888.864 108.909L880.103 127.834C879.849 128.384 879.425 128.77 878.93 128.961Z" fill="#FFD9EE"/>
<path d="M864.09 146.358C863.941 146.416 863.785 146.456 863.62 146.479C862.344 146.652 861.092 145.641 860.826 144.222L851.365 93.9165C851.099 92.4973 851.916 91.2053 853.194 91.0313C854.47 90.8578 855.721 91.8672 855.988 93.2878L865.449 143.594C865.681 144.831 865.09 145.971 864.09 146.358Z" fill="#FFD9EE"/>
<path d="M39.8965 40.8064C39.604 40.7406 39.3351 40.5603 39.1469 40.2741L32.6706 30.4288C32.4473 30.0889 32.3738 29.6493 32.4695 29.224C32.565 28.7994 32.8204 28.4338 33.1671 28.2222L43.236 22.0994C43.89 21.7011 44.6803 21.9563 45.0013 22.6682C45.3214 23.3807 45.0515 24.2808 44.397 24.6781L35.7197 29.9552L41.3006 38.4403C41.7217 39.0805 41.5801 40.0094 40.9858 40.5154C40.6567 40.7956 40.2582 40.8878 39.8965 40.8064Z" fill="#FFD9EE"/>
<path d="M56.228 44.4807C55.8663 44.3994 55.5457 44.1454 55.369 43.7514C55.048 43.0395 55.3187 42.1396 55.9727 41.7413L64.6499 36.4642L59.0691 27.9791C58.6485 27.3399 58.7893 26.4108 59.3845 25.9042C59.9788 25.3982 60.8029 25.5063 61.2226 26.1461L67.6989 35.9914C67.9222 36.3314 67.9957 36.771 67.9002 37.1955C67.8045 37.6208 67.5498 37.9866 67.2024 38.1981L57.1334 44.3208C56.8408 44.4988 56.5205 44.5465 56.228 44.4807Z" fill="#FFD9EE"/>
<path d="M43.7867 47.971C43.699 47.9513 43.6129 47.9209 43.5284 47.8798C42.875 47.5595 42.6057 46.691 42.9273 45.941L54.3255 19.3558C54.6471 18.6058 55.4377 18.257 56.0918 18.5775C56.7453 18.8978 57.0148 19.7655 56.693 20.5162L45.2948 47.1015C45.0142 47.7553 44.3781 48.1041 43.7867 47.971Z" fill="#FFD9EE"/>
<path d="M458.995 289.658C458.751 289.67 458.501 289.587 458.29 289.403L451.053 283.082C450.803 282.863 450.65 282.534 450.632 282.179C450.614 281.825 450.735 281.482 450.961 281.24L457.536 274.231C457.962 273.776 458.639 273.804 459.047 274.293C459.454 274.783 459.438 275.549 459.011 276.004L453.345 282.044L459.582 287.492C460.053 287.903 460.144 288.664 459.788 289.191C459.59 289.483 459.297 289.643 458.995 289.658Z" fill="#FFD9EE"/>
<path d="M472.628 288.978C472.327 288.993 472.019 288.863 471.794 288.592C471.387 288.103 471.403 287.337 471.83 286.881L477.495 280.841L471.258 275.393C470.788 274.982 470.696 274.222 471.053 273.694C471.41 273.166 472.081 273.072 472.55 273.483L479.788 279.804C480.037 280.022 480.191 280.352 480.209 280.706C480.226 281.061 480.106 281.404 479.879 281.646L473.305 288.654C473.114 288.858 472.873 288.966 472.628 288.978Z" fill="#FFD9EE"/>
<path d="M463.616 294.438C463.543 294.441 463.468 294.436 463.393 294.422C462.81 294.313 462.408 293.69 462.497 293.03L465.649 269.655C465.738 268.996 466.283 268.549 466.867 268.658C467.45 268.767 467.852 269.39 467.763 270.05L464.611 293.425C464.533 294 464.109 294.413 463.616 294.438Z" fill="#FFD9EE"/>
<path d="M957.533 225.375H911.045C910.204 225.375 909.398 225.709 908.803 226.303C908.209 226.897 907.875 227.704 907.875 228.544V262.347C907.875 263.187 908.209 263.993 908.803 264.587C909.398 265.182 910.204 265.516 911.045 265.516H957.533C958.374 265.516 959.18 265.182 959.775 264.587C960.369 263.993 960.703 263.187 960.703 262.347V228.544C960.703 227.704 960.369 226.897 959.775 226.303C959.18 225.709 958.374 225.375 957.533 225.375ZM911.045 227.488H957.533C957.814 227.488 958.082 227.599 958.281 227.797C958.479 227.995 958.59 228.264 958.59 228.544V229.6H909.988V228.544C909.988 228.264 910.099 227.995 910.298 227.797C910.496 227.599 910.764 227.488 911.045 227.488ZM957.533 263.403H911.045C910.764 263.403 910.496 263.292 910.298 263.094C910.099 262.895 909.988 262.627 909.988 262.347V231.713H958.59V262.347C958.59 262.627 958.479 262.895 958.281 263.094C958.082 263.292 957.814 263.403 957.533 263.403ZM926.587 239.857L918.874 247.558L926.587 255.259C926.786 255.458 926.897 255.727 926.897 256.009C926.897 256.29 926.786 256.56 926.587 256.759C926.388 256.958 926.118 257.069 925.837 257.069C925.555 257.069 925.285 256.958 925.086 256.759L916.634 248.308C916.535 248.21 916.456 248.093 916.403 247.964C916.349 247.835 916.321 247.697 916.321 247.558C916.321 247.419 916.349 247.28 916.403 247.152C916.456 247.023 916.535 246.906 916.634 246.808L925.086 238.357C925.285 238.158 925.555 238.047 925.837 238.047C926.118 238.047 926.388 238.158 926.587 238.357C926.786 238.556 926.897 238.826 926.897 239.107C926.897 239.389 926.786 239.658 926.587 239.857ZM951.944 246.808C952.043 246.906 952.122 247.023 952.175 247.152C952.229 247.28 952.257 247.419 952.257 247.558C952.257 247.697 952.229 247.835 952.175 247.964C952.122 248.093 952.043 248.21 951.944 248.308L943.492 256.759C943.293 256.958 943.023 257.069 942.742 257.069C942.46 257.069 942.19 256.958 941.991 256.759C941.792 256.56 941.681 256.29 941.681 256.009C941.681 255.727 941.792 255.458 941.991 255.259L949.704 247.558L941.991 239.857C941.792 239.658 941.681 239.389 941.681 239.107C941.681 238.826 941.792 238.556 941.991 238.357C942.19 238.158 942.46 238.047 942.742 238.047C943.023 238.047 943.293 238.158 943.492 238.357L951.944 246.808ZM939.456 239.583L931.003 256.484C930.866 256.713 930.647 256.881 930.39 256.954C930.134 257.028 929.859 257.002 929.621 256.882C929.383 256.762 929.199 256.556 929.107 256.306C929.014 256.055 929.02 255.78 929.122 255.533L937.575 238.632C937.713 238.403 937.931 238.235 938.188 238.162C938.444 238.088 938.719 238.114 938.957 238.234C939.195 238.354 939.379 238.56 939.471 238.81C939.564 239.061 939.558 239.336 939.456 239.583Z" fill="#FFD9EE"/>
<path d="M373.986 5.28653C373.699 5.28653 373.41 5.17463 373.174 4.94687L365.054 -2.88915C364.774 -3.15976 364.613 -3.55498 364.613 -3.97241C364.613 -4.38905 364.775 -4.78427 365.054 -5.05488L373.174 -12.8909C373.701 -13.4004 374.493 -13.3282 374.942 -12.7306C375.391 -12.1322 375.328 -11.2347 374.8 -10.726L367.803 -3.97241L374.8 2.78113C375.328 3.29063 375.391 4.18819 374.942 4.78577C374.694 5.1167 374.341 5.28653 373.986 5.28653Z" fill="#FFD9EE"/>
<path d="M390.014 5.28653C389.659 5.28653 389.306 5.1167 389.058 4.78577C388.609 4.18819 388.673 3.29063 389.2 2.78113L396.197 -3.97241L389.2 -10.726C388.673 -11.2347 388.609 -12.1322 389.058 -12.7306C389.507 -13.3282 390.3 -13.4004 390.826 -12.8909L398.946 -5.05488C399.226 -4.78427 399.387 -4.38905 399.387 -3.97241C399.387 -3.55498 399.226 -3.15976 398.946 -2.88915L390.826 4.94687C390.59 5.17463 390.301 5.28653 390.014 5.28653Z" fill="#FFD9EE"/>
<path d="M379.126 11.1656C379.04 11.1656 378.953 11.1553 378.865 11.1347C378.188 10.9728 377.753 10.218 377.896 9.44984L382.957 -17.781C383.099 -18.5492 383.765 -19.0412 384.443 -18.8793C385.121 -18.7174 385.555 -17.9635 385.412 -17.1945L380.352 10.0363C380.227 10.7061 379.706 11.1656 379.126 11.1656Z" fill="#FFD9EE"/>
<path d="M411.575 26H352.425C347.78 26 344 21.7169 344 16.4514V-40.4514C344 -45.7161 347.78 -50 352.425 -50H411.575C416.22 -50 420 -45.7161 420 -40.4514V16.4514C420 21.7169 416.22 26 411.575 26ZM352.425 -47.1557C349.163 -47.1557 346.509 -44.148 346.509 -40.4514V16.4514C346.509 20.148 349.163 23.1557 352.425 23.1557H411.575C414.837 23.1557 417.491 20.148 417.491 16.4514V-40.4514C417.491 -44.148 414.837 -47.1557 411.575 -47.1557H352.425Z" fill="#FFD9EE"/>
<path d="M1035.53 123.375H989.045C988.204 123.375 987.398 123.709 986.803 124.303C986.209 124.897 985.875 125.704 985.875 126.544V160.347C985.875 161.187 986.209 161.993 986.803 162.587C987.398 163.182 988.204 163.516 989.045 163.516H1035.53C1036.37 163.516 1037.18 163.182 1037.77 162.587C1038.37 161.993 1038.7 161.187 1038.7 160.347V126.544C1038.7 125.704 1038.37 124.897 1037.77 124.303C1037.18 123.709 1036.37 123.375 1035.53 123.375ZM989.045 125.488H1035.53C1035.81 125.488 1036.08 125.599 1036.28 125.797C1036.48 125.995 1036.59 126.264 1036.59 126.544V127.6H987.988V126.544C987.988 126.264 988.099 125.995 988.298 125.797C988.496 125.599 988.764 125.488 989.045 125.488ZM1035.53 161.403H989.045C988.764 161.403 988.496 161.292 988.298 161.094C988.099 160.895 987.988 160.627 987.988 160.347V129.713H1036.59V160.347C1036.59 160.627 1036.48 160.895 1036.28 161.094C1036.08 161.292 1035.81 161.403 1035.53 161.403ZM1004.59 137.857L996.874 145.558L1004.59 153.259C1004.79 153.458 1004.9 153.727 1004.9 154.009C1004.9 154.29 1004.79 154.56 1004.59 154.759C1004.39 154.958 1004.12 155.069 1003.84 155.069C1003.56 155.069 1003.29 154.958 1003.09 154.759L994.634 146.308C994.535 146.21 994.456 146.093 994.403 145.964C994.349 145.835 994.321 145.697 994.321 145.558C994.321 145.419 994.349 145.28 994.403 145.152C994.456 145.023 994.535 144.906 994.634 144.808L1003.09 136.357C1003.29 136.158 1003.56 136.047 1003.84 136.047C1004.12 136.047 1004.39 136.158 1004.59 136.357C1004.79 136.556 1004.9 136.826 1004.9 137.107C1004.9 137.389 1004.79 137.658 1004.59 137.857ZM1029.94 144.808C1030.04 144.906 1030.12 145.023 1030.18 145.152C1030.23 145.28 1030.26 145.419 1030.26 145.558C1030.26 145.697 1030.23 145.835 1030.18 145.964C1030.12 146.093 1030.04 146.21 1029.94 146.308L1021.49 154.759C1021.29 154.958 1021.02 155.069 1020.74 155.069C1020.46 155.069 1020.19 154.958 1019.99 154.759C1019.79 154.56 1019.68 154.29 1019.68 154.009C1019.68 153.727 1019.79 153.458 1019.99 153.259L1027.7 145.558L1019.99 137.857C1019.79 137.658 1019.68 137.389 1019.68 137.107C1019.68 136.826 1019.79 136.556 1019.99 136.357C1020.19 136.158 1020.46 136.047 1020.74 136.047C1021.02 136.047 1021.29 136.158 1021.49 136.357L1029.94 144.808ZM1017.46 137.583L1009 154.484C1008.87 154.713 1008.65 154.881 1008.39 154.954C1008.13 155.028 1007.86 155.002 1007.62 154.882C1007.38 154.762 1007.2 154.556 1007.11 154.306C1007.01 154.055 1007.02 153.78 1007.12 153.533L1015.57 136.632C1015.71 136.403 1015.93 136.235 1016.19 136.162C1016.44 136.088 1016.72 136.114 1016.96 136.234C1017.2 136.354 1017.38 136.56 1017.47 136.81C1017.56 137.061 1017.56 137.336 1017.46 137.583Z" fill="#FFD9EE"/>
</g>
<defs>
<clipPath id="clip0">
<rect width="1004" height="294" rx="20" fill="white"/>
</clipPath>
</defs>
</svg>
