<svg width="1004" height="294" viewBox="0 0 1004 294" fill="none" xmlns="http://www.w3.org/2000/svg">
<g clip-path="url(#clip0)">
<rect width="1004" height="294" rx="20" fill="white"/>
<rect width="1004" height="294" rx="20" fill="#2E279D"/>
<path d="M392.875 127.88V136.1H381.715V170H371.455V136.1H360.295V127.88H392.875ZM429.585 152.72C429.585 153.68 429.525 154.68 429.405 155.72H406.185C406.345 157.8 407.005 159.4 408.165 160.52C409.365 161.6 410.825 162.14 412.545 162.14C415.105 162.14 416.885 161.06 417.885 158.9H428.805C428.245 161.1 427.225 163.08 425.745 164.84C424.305 166.6 422.485 167.98 420.285 168.98C418.085 169.98 415.625 170.48 412.905 170.48C409.625 170.48 406.705 169.78 404.145 168.38C401.585 166.98 399.585 164.98 398.145 162.38C396.705 159.78 395.985 156.74 395.985 153.26C395.985 149.78 396.685 146.74 398.085 144.14C399.525 141.54 401.525 139.54 404.085 138.14C406.645 136.74 409.585 136.04 412.905 136.04C416.145 136.04 419.025 136.72 421.545 138.08C424.065 139.44 426.025 141.38 427.425 143.9C428.865 146.42 429.585 149.36 429.585 152.72ZM419.085 150.02C419.085 148.26 418.485 146.86 417.285 145.82C416.085 144.78 414.585 144.26 412.785 144.26C411.065 144.26 409.605 144.76 408.405 145.76C407.245 146.76 406.525 148.18 406.245 150.02H419.085ZM454.797 170L448.377 160.7L442.977 170H431.877L442.917 152.9L431.577 136.52H443.097L449.517 145.76L454.917 136.52H466.017L454.797 153.38L466.317 170H454.797ZM488.931 161.3V170H483.711C479.991 170 477.091 169.1 475.011 167.3C472.931 165.46 471.891 162.48 471.891 158.36V145.04H467.811V136.52H471.891V128.36H482.151V136.52H488.871V145.04H482.151V158.48C482.151 159.48 482.391 160.2 482.871 160.64C483.351 161.08 484.151 161.3 485.271 161.3H488.931ZM504.906 141.26C505.866 139.7 507.246 138.44 509.046 137.48C510.846 136.52 512.906 136.04 515.226 136.04C517.986 136.04 520.486 136.74 522.726 138.14C524.966 139.54 526.726 141.54 528.006 144.14C529.326 146.74 529.986 149.76 529.986 153.2C529.986 156.64 529.326 159.68 528.006 162.32C526.726 164.92 524.966 166.94 522.726 168.38C520.486 169.78 517.986 170.48 515.226 170.48C512.866 170.48 510.806 170.02 509.046 169.1C507.286 168.14 505.906 166.88 504.906 165.32V170H494.646V125.6H504.906V141.26ZM519.546 153.2C519.546 150.64 518.826 148.64 517.386 147.2C515.986 145.72 514.246 144.98 512.166 144.98C510.126 144.98 508.386 145.72 506.946 147.2C505.546 148.68 504.846 150.7 504.846 153.26C504.846 155.82 505.546 157.84 506.946 159.32C508.386 160.8 510.126 161.54 512.166 161.54C514.206 161.54 515.946 160.8 517.386 159.32C518.826 157.8 519.546 155.76 519.546 153.2ZM550.608 170.48C547.328 170.48 544.368 169.78 541.728 168.38C539.128 166.98 537.068 164.98 535.548 162.38C534.068 159.78 533.328 156.74 533.328 153.26C533.328 149.82 534.088 146.8 535.608 144.2C537.128 141.56 539.208 139.54 541.848 138.14C544.488 136.74 547.448 136.04 550.728 136.04C554.008 136.04 556.968 136.74 559.608 138.14C562.248 139.54 564.328 141.56 565.848 144.2C567.368 146.8 568.128 149.82 568.128 153.26C568.128 156.7 567.348 159.74 565.788 162.38C564.268 164.98 562.168 166.98 559.488 168.38C556.848 169.78 553.888 170.48 550.608 170.48ZM550.608 161.6C552.568 161.6 554.228 160.88 555.588 159.44C556.988 158 557.688 155.94 557.688 153.26C557.688 150.58 557.008 148.52 555.648 147.08C554.328 145.64 552.688 144.92 550.728 144.92C548.728 144.92 547.068 145.64 545.748 147.08C544.428 148.48 543.768 150.54 543.768 153.26C543.768 155.94 544.408 158 545.688 159.44C547.008 160.88 548.648 161.6 550.608 161.6ZM588.812 170.48C585.532 170.48 582.572 169.78 579.932 168.38C577.332 166.98 575.272 164.98 573.752 162.38C572.272 159.78 571.532 156.74 571.532 153.26C571.532 149.82 572.292 146.8 573.812 144.2C575.332 141.56 577.412 139.54 580.052 138.14C582.692 136.74 585.652 136.04 588.932 136.04C592.212 136.04 595.172 136.74 597.812 138.14C600.452 139.54 602.532 141.56 604.052 144.2C605.572 146.8 606.332 149.82 606.332 153.26C606.332 156.7 605.552 159.74 603.992 162.38C602.472 164.98 600.372 166.98 597.692 168.38C595.052 169.78 592.092 170.48 588.812 170.48ZM588.812 161.6C590.772 161.6 592.432 160.88 593.792 159.44C595.192 158 595.892 155.94 595.892 153.26C595.892 150.58 595.212 148.52 593.852 147.08C592.532 145.64 590.892 144.92 588.932 144.92C586.932 144.92 585.272 145.64 583.952 147.08C582.632 148.48 581.972 150.54 581.972 153.26C581.972 155.94 582.612 158 583.892 159.44C585.212 160.88 586.852 161.6 588.812 161.6ZM632.235 170L622.035 155.96V170H611.775V125.6H622.035V150.14L632.175 136.52H644.835L630.915 153.32L644.955 170H632.235Z" fill="#FFD9EE"/>
<g clip-path="url(#clip1)">
<path d="M101.347 254.21C101.995 253.874 102.248 253.076 101.913 252.428L99.4998 247.766C98.4948 245.824 96.0981 245.062 94.1562 246.067L43.4598 272.304C36.704 275.801 33.9965 284.077 37.4257 290.757L65.7314 345.449L65.733 345.453C67.4067 348.709 70.2503 351.113 73.7417 352.224C77.2191 353.329 80.9173 353.014 84.156 351.338L135.016 325.016C136.958 324.011 137.72 321.614 136.715 319.672L104.343 257.124C104.008 256.475 103.21 256.221 102.562 256.557C101.914 256.892 101.66 257.69 101.996 258.338L123.74 300.353C123.305 300.413 122.874 300.546 122.462 300.759L87.9513 318.62C87.3026 318.956 87.0492 319.753 87.3846 320.401C87.72 321.049 88.5174 321.303 89.1661 320.967L123.677 303.106C124.324 302.771 125.123 303.025 125.458 303.672C125.793 304.32 125.539 305.119 124.892 305.454L74.0319 331.776C72.0159 332.819 70.5393 334.592 69.8756 336.768C69.2122 338.944 69.4478 341.239 70.539 343.232C72.7032 347.185 77.7745 348.688 81.8432 346.583L132.586 320.321C133.234 319.986 134.032 320.24 134.367 320.887C134.702 321.534 134.448 322.333 133.801 322.668L82.9412 348.99C80.3295 350.342 77.3467 350.596 74.5423 349.706C71.7252 348.809 69.4303 346.867 68.0805 344.238C65.317 338.854 67.5147 332.173 72.9803 329.344L84.4703 323.397C85.1191 323.062 85.3721 322.264 85.0367 321.616C84.7013 320.968 83.9042 320.714 83.2555 321.05L71.7654 326.997C67.684 329.109 65.0836 332.966 64.4171 337.16L39.7752 289.547C37.0114 284.162 39.2091 277.48 44.6746 274.652L95.371 248.414C96.0185 248.079 96.8174 248.333 97.1526 248.981L99.5657 253.643C99.9011 254.291 100.699 254.545 101.347 254.21ZM72.8574 341.963C72.1109 340.599 71.9495 339.029 72.4041 337.54C72.8581 336.05 73.8679 334.837 75.2467 334.123L122.83 309.497C122.864 310.284 122.964 311.061 123.131 311.821L77.9807 335.189C77.3325 335.524 77.0785 336.321 77.414 336.969C77.7494 337.618 78.5474 337.871 79.1955 337.536L123.963 314.367C124.198 314.905 124.469 315.428 124.772 315.932L80.0054 339.101C79.3573 339.436 79.1036 340.234 79.439 340.882C79.7744 341.53 80.5724 341.784 81.2205 341.449L126.371 318.081C126.895 318.656 127.471 319.187 128.094 319.669L80.6281 344.235C77.8242 345.686 74.3377 344.667 72.8574 341.963ZM131.371 317.973L130.754 318.292C127.233 316.172 125.188 312.22 125.49 308.12L126.106 307.801C126.518 307.588 126.876 307.312 127.176 306.992L132.649 317.567C132.215 317.627 131.783 317.76 131.371 317.973Z" fill="#FFD9EE"/>
<path d="M58.209 281.001C55.6714 282.315 54.6755 285.447 55.9888 287.985L60.7013 297.09C62.0143 299.627 65.1471 300.624 67.6847 299.31L101.671 281.721C104.209 280.407 105.205 277.274 103.892 274.737L99.1796 265.632C97.8663 263.094 94.7332 262.098 92.1955 263.412L58.209 281.001ZM96.8317 266.847L101.544 275.952C102.187 277.195 101.7 278.73 100.456 279.373L66.4699 296.963C65.2267 297.606 63.6917 297.118 63.0486 295.875L58.3361 286.77C57.6927 285.527 58.1806 283.992 59.4238 283.348L93.4104 265.759C94.6536 265.116 96.1883 265.603 96.8317 266.847Z" fill="#FFD9EE"/>
<path d="M94.9484 275.282L66.3112 290.103C65.663 290.439 65.4093 291.237 65.7448 291.885C66.0802 292.533 66.8782 292.787 67.5263 292.451L96.1635 277.63C96.8116 277.295 97.0647 276.497 96.7293 275.849C96.3939 275.201 95.5965 274.947 94.9484 275.282Z" fill="#FFD9EE"/>
<path d="M92.3546 270.271L63.7174 285.092C63.0693 285.427 62.8156 286.225 63.151 286.873C63.4864 287.521 64.2841 287.774 64.9322 287.439L93.5695 272.618C94.2176 272.282 94.471 271.485 94.1356 270.837C93.8001 270.189 93.0028 269.935 92.3546 270.271Z" fill="#FFD9EE"/>
</g>
<g clip-path="url(#clip2)">
<path d="M972.835 75.0456C973.377 74.7652 973.589 74.0982 973.308 73.5563L971.291 69.6578C970.45 68.0341 968.446 67.397 966.823 68.2374L924.435 90.1751C918.786 93.0985 916.522 100.018 919.389 105.604L943.056 151.333L943.058 151.336C944.457 154.058 946.835 156.069 949.754 156.998C952.661 157.921 955.753 157.658 958.461 156.256L1000.99 134.248C1002.61 133.408 1003.25 131.404 1002.41 129.78L975.34 77.482C975.06 76.9402 974.393 76.7278 973.851 77.0082C973.309 77.2887 973.097 77.9559 973.377 78.4978L991.558 113.627C991.195 113.677 990.834 113.788 990.49 113.967L961.635 128.9C961.092 129.181 960.88 129.847 961.161 130.389C961.441 130.931 962.108 131.144 962.65 130.863L991.505 115.929C992.047 115.649 992.715 115.861 992.995 116.402C993.275 116.944 993.062 117.612 992.521 117.892L949.996 139.9C948.311 140.773 947.076 142.255 946.521 144.075C945.967 145.894 946.164 147.813 947.076 149.479C948.886 152.784 953.126 154.041 956.528 152.281L998.955 130.323C999.496 130.042 1000.16 130.255 1000.44 130.796C1000.72 131.337 1000.51 132.005 999.97 132.285L957.446 154.294C955.262 155.424 952.768 155.636 950.423 154.892C948.068 154.142 946.149 152.518 945.02 150.32C942.71 145.819 944.547 140.232 949.117 137.867L958.724 132.895C959.267 132.614 959.478 131.947 959.198 131.405C958.917 130.863 958.251 130.652 957.708 130.932L948.101 135.904C944.689 137.671 942.515 140.895 941.957 144.402L921.354 104.592C919.043 100.089 920.88 94.5028 925.45 92.1377L967.838 70.2C968.38 69.9198 969.048 70.1321 969.328 70.6735L971.346 74.5721C971.626 75.114 972.293 75.3261 972.835 75.0456ZM949.014 148.418C948.39 147.278 948.255 145.964 948.635 144.72C949.015 143.474 949.859 142.459 951.012 141.863L990.797 121.272C990.826 121.931 990.91 122.581 991.049 123.216L953.298 142.754C952.756 143.034 952.544 143.701 952.824 144.243C953.105 144.785 953.772 144.997 954.314 144.716L991.744 125.344C991.942 125.795 992.168 126.232 992.422 126.653L954.991 146.025C954.449 146.305 954.237 146.972 954.517 147.514C954.798 148.056 955.465 148.268 956.007 147.988L993.758 128.45C994.196 128.93 994.678 129.375 995.199 129.777L955.512 150.317C953.167 151.531 950.252 150.679 949.014 148.418ZM997.939 128.36L997.423 128.626C994.479 126.854 992.769 123.549 993.021 120.121L993.537 119.854C993.881 119.676 994.18 119.446 994.431 119.178L999.007 128.02C998.644 128.071 998.283 128.181 997.939 128.36Z" fill="#FFD9EE"/>
<path d="M936.767 97.4462C934.645 98.5443 933.812 101.163 934.91 103.285L938.851 110.898C939.948 113.02 942.568 113.853 944.69 112.755L973.106 98.0478C975.228 96.9497 976.061 94.3298 974.963 92.2085L971.023 84.5953C969.925 82.4736 967.305 81.6411 965.184 82.7392L936.767 97.4462ZM969.06 85.6113L973 93.2245C973.538 94.2635 973.13 95.5472 972.091 96.0852L943.674 110.792C942.634 111.33 941.351 110.922 940.813 109.883L936.873 102.269C936.335 101.23 936.743 99.9467 937.782 99.4088L966.199 84.7019C967.239 84.1639 968.522 84.5718 969.06 85.6113Z" fill="#FFD9EE"/>
<path d="M967.485 92.6643L943.541 105.056C942.999 105.337 942.787 106.004 943.068 106.546C943.348 107.088 944.015 107.3 944.557 107.02L968.501 94.6274C969.043 94.347 969.255 93.68 968.974 93.1381C968.694 92.5962 968.027 92.3839 967.485 92.6643Z" fill="#FFD9EE"/>
<path d="M965.316 88.4729L941.372 100.865C940.83 101.146 940.618 101.813 940.899 102.355C941.179 102.896 941.846 103.108 942.388 102.828L966.332 90.4355C966.874 90.1551 967.086 89.4886 966.805 88.9467C966.525 88.4048 965.858 88.1925 965.316 88.4729Z" fill="#FFD9EE"/>
</g>
<g clip-path="url(#clip3)">
<path d="M-5.71568 104.433C-6.0561 103.926 -6.74282 103.792 -7.2492 104.132L-10.8922 106.581C-12.4095 107.601 -12.814 109.665 -11.794 111.182L14.8339 150.793C18.3823 156.071 25.5148 157.531 30.7372 154.046L73.4697 125.319L73.472 125.317C76.0171 123.617 77.7435 121.025 78.3335 118.019C78.9195 115.025 78.3054 111.983 76.6043 109.453L49.8907 69.715C48.8707 68.1977 46.8073 67.7933 45.29 68.8133L-3.58074 101.666C-4.08713 102.007 -4.2221 102.693 -3.88169 103.2C-3.54127 103.706 -2.85424 103.841 -2.34785 103.5L30.4796 81.4323C30.5704 81.788 30.7221 82.1336 30.9385 82.4555L49.0649 109.42C49.4056 109.926 50.0919 110.061 50.5982 109.72C51.1046 109.38 51.2396 108.693 50.8989 108.187L32.7725 81.2226C32.4324 80.7167 32.5672 80.0289 33.0727 79.6891C33.5786 79.349 34.2664 79.4838 34.6065 79.9897L61.3201 119.728C62.379 121.303 63.9925 122.36 65.8635 122.704C67.7338 123.048 69.6178 122.633 71.1697 121.537C74.2469 119.362 75.012 115.006 72.8749 111.827L46.2227 72.1808C45.8826 71.6749 46.0174 70.9871 46.5229 70.6473C47.0288 70.3072 47.7166 70.442 48.0567 70.9479L74.7703 110.686C76.1421 112.726 76.6374 115.18 76.1654 117.594C75.6887 120.02 74.2945 122.111 72.2396 123.483C68.0308 126.292 62.2711 125.103 59.4003 120.833L53.3653 111.856C53.0246 111.349 52.3378 111.215 51.8314 111.555C51.3251 111.895 51.1906 112.582 51.5313 113.088L57.5663 122.066C59.7101 125.255 63.1617 127.047 66.7089 127.201L29.5076 152.209C25.2983 155.019 19.5386 153.83 16.6679 149.56L-9.95998 109.949C-10.3001 109.443 -10.1653 108.756 -9.65936 108.415L-6.01631 105.966C-5.50993 105.626 -5.37527 104.939 -5.71568 104.433ZM69.8943 119.732C68.8324 120.482 67.5432 120.766 66.2634 120.53C64.9828 120.295 63.8782 119.572 63.1541 118.495L38.1615 81.317C38.8123 81.2137 39.4483 81.056 40.0634 80.8448L63.7784 116.122C64.1189 116.629 64.8054 116.764 65.3118 116.423C65.8182 116.083 65.9529 115.396 65.6124 114.889L42.0989 79.9117C42.5237 79.6644 42.9322 79.3897 43.3216 79.0897L66.8351 114.067C67.1755 114.574 67.8626 114.708 68.3689 114.368C68.8753 114.028 69.01 113.341 68.6696 112.834L44.9545 77.5567C45.3819 77.0672 45.7685 76.5374 46.1093 75.9742L71.0405 113.061C72.5132 115.251 71.9992 118.245 69.8943 119.732ZM44.3883 73.414L44.7122 73.8959C43.2866 77.0231 40.1989 79.0988 36.7644 79.2388L36.4405 78.7568C36.2241 78.4349 35.9609 78.1643 35.6662 77.9456L43.9293 72.3908C44.0206 72.7462 44.1719 73.0921 44.3883 73.414Z" fill="#FFD9EE"/>
<path d="M20.6511 137.711C21.9839 139.694 24.6809 140.222 26.6636 138.89L33.7779 134.107C35.7602 132.774 36.2893 130.077 34.9564 128.094L17.1053 101.54C15.7724 99.5572 13.0746 99.0284 11.0924 100.361L3.97806 105.144C1.99535 106.476 1.46706 109.174 2.79992 111.157L20.6511 137.711ZM5.21126 106.978L12.3256 102.195C13.2965 101.543 14.6183 101.801 15.2713 102.773L33.1224 129.327C33.7754 130.299 33.5159 131.62 32.5451 132.273L25.4307 137.056C24.4594 137.709 23.138 137.45 22.485 136.478L4.63392 109.924C3.98093 108.952 4.23991 107.631 5.21126 106.978Z" fill="#FFD9EE"/>
<path d="M12.3978 107.739L27.4393 130.114C27.7797 130.62 28.4668 130.755 28.9731 130.415C29.4795 130.074 29.6142 129.387 29.2738 128.881L14.2323 106.506C13.8919 105.999 13.2052 105.865 12.6988 106.206C12.1924 106.546 12.0574 107.233 12.3978 107.739Z" fill="#FFD9EE"/>
<path d="M8.48159 110.37L23.523 132.745C23.8635 133.251 24.5505 133.386 25.0569 133.046C25.5633 132.705 25.6975 132.018 25.357 131.512L10.3156 109.137C9.97517 108.631 9.28891 108.496 8.78253 108.837C8.27615 109.177 8.14117 109.863 8.48159 110.37Z" fill="#FFD9EE"/>
</g>
<g clip-path="url(#clip4)">
<path d="M981.85 286.903C982.36 287.237 983.045 287.094 983.38 286.584L985.786 282.912C986.788 281.383 986.359 279.325 984.83 278.322L944.911 252.16C939.591 248.673 932.452 250.097 928.993 255.337L900.768 298.403L900.766 298.405C899.081 300.961 898.496 304.019 899.12 307.019C899.743 310.005 901.49 312.57 904.04 314.241L944.088 340.488C945.617 341.49 947.675 341.062 948.678 339.532L980.957 290.281C981.291 289.77 981.149 289.085 980.638 288.751C980.128 288.416 979.443 288.559 979.108 289.069L957.426 322.153C957.204 321.86 956.93 321.601 956.606 321.388L929.431 303.578C928.921 303.244 928.236 303.386 927.901 303.896C927.567 304.407 927.709 305.092 928.22 305.427L955.394 323.236C955.904 323.57 956.047 324.257 955.713 324.766C955.379 325.276 954.693 325.419 954.183 325.085L914.135 298.838C912.548 297.797 910.65 297.449 908.792 297.859C906.935 298.269 905.36 299.382 904.356 300.995C902.364 304.194 903.351 308.505 906.555 310.605L946.51 336.791C947.02 337.126 947.163 337.812 946.829 338.321C946.495 338.831 945.809 338.974 945.299 338.64L905.251 312.393C903.195 311.045 901.786 308.976 901.283 306.568C900.78 304.148 901.253 301.679 902.614 299.617C905.402 295.394 911.171 294.253 915.475 297.074L924.522 303.003C925.033 303.338 925.718 303.195 926.053 302.685C926.387 302.174 926.245 301.49 925.734 301.155L916.686 295.225C913.473 293.119 909.596 292.808 906.267 294.043L930.839 256.552C933.627 252.329 939.396 251.187 943.7 254.008L983.619 280.171C984.129 280.505 984.272 281.191 983.938 281.701L981.531 285.372C981.197 285.883 981.34 286.568 981.85 286.903ZM906.232 302.163C906.919 301.06 907.997 300.297 909.268 300.018C910.539 299.737 911.838 299.975 912.924 300.686L950.391 325.242C949.832 325.59 949.307 325.982 948.822 326.416L913.27 303.115C912.759 302.78 912.074 302.923 911.74 303.433C911.405 303.943 911.548 304.629 912.058 304.963L947.309 328.066C947.013 328.459 946.743 328.87 946.501 329.298L911.251 306.195C910.74 305.861 910.055 306.004 909.721 306.514C909.386 307.024 909.529 307.71 910.039 308.044L945.592 331.345C945.388 331.962 945.237 332.6 945.142 333.252L907.766 308.756C905.558 307.309 904.87 304.351 906.232 302.163ZM947.722 334.943L947.236 334.624C947.336 331.189 949.375 328.077 952.486 326.615L952.972 326.933C953.296 327.146 953.644 327.293 954 327.38L948.542 335.707C948.32 335.415 948.046 335.155 947.722 334.943Z" fill="#FFD9EE"/>
<path d="M944.63 266.472C942.631 265.163 939.941 265.723 938.631 267.721L933.932 274.891C932.623 276.889 933.183 279.58 935.181 280.889L961.943 298.429C963.941 299.738 966.632 299.178 967.941 297.18L972.64 290.01C973.95 288.012 973.389 285.321 971.391 284.012L944.63 266.472ZM970.792 288.799L966.093 295.969C965.451 296.947 964.133 297.222 963.154 296.58L936.392 279.041C935.413 278.399 935.139 277.081 935.781 276.102L940.48 268.933C941.121 267.954 942.439 267.679 943.418 268.321L970.18 285.86C971.159 286.502 971.433 287.82 970.792 288.799Z" fill="#FFD9EE"/>
<path d="M963.874 290.888L941.324 276.11C940.814 275.775 940.129 275.918 939.794 276.428C939.46 276.939 939.602 277.624 940.113 277.959L962.662 292.737C963.173 293.072 963.857 292.929 964.192 292.418C964.526 291.908 964.384 291.223 963.874 290.888Z" fill="#FFD9EE"/>
<path d="M966.461 286.941L943.911 272.162C943.401 271.828 942.715 271.971 942.381 272.481C942.047 272.991 942.19 273.676 942.7 274.011L965.249 288.789C965.76 289.124 966.444 288.981 966.779 288.471C967.113 287.961 966.971 287.276 966.461 286.941Z" fill="#FFD9EE"/>
</g>
<g clip-path="url(#clip5)">
<path d="M466.107 -25.3073C466.546 -25.5348 466.726 -26.0608 466.508 -26.4818L464.94 -29.5105C464.288 -30.772 462.685 -31.2434 461.368 -30.5617L426.98 -12.7644C422.398 -10.3927 420.48 -4.9349 422.707 -0.595008L441.094 34.9321L441.095 34.9341C442.182 37.0493 444.065 38.5926 446.4 39.28C448.724 39.9634 451.214 39.7136 453.411 38.5767L487.91 20.722C489.227 20.0403 489.767 18.46 489.114 17.1985L468.086 -23.4319C467.869 -23.8529 467.336 -24.01 466.896 -23.7825C466.456 -23.555 466.276 -23.0288 466.494 -22.6078L480.619 4.68438C480.326 4.72846 480.034 4.82079 479.755 4.96543L456.346 17.0806C455.906 17.3084 455.726 17.8339 455.944 18.2549C456.162 18.6759 456.695 18.8331 457.135 18.6054L480.544 6.49018C480.983 6.26287 481.517 6.42002 481.735 6.84024C481.953 7.26085 481.772 7.78762 481.333 8.01494L446.834 25.8696C445.467 26.5773 444.454 27.7571 443.982 29.1918C443.51 30.6258 443.642 32.1279 444.352 33.4221C445.761 35.9885 449.152 36.9145 451.912 35.4861L486.331 17.6725C486.771 17.4452 487.305 17.6023 487.522 18.0226C487.74 18.4432 487.56 18.9699 487.121 19.1973L452.622 37.0519C450.85 37.9688 448.842 38.1702 446.967 37.6196C445.084 37.0644 443.564 35.8181 442.688 34.1104C440.893 30.6129 442.449 26.2063 446.156 24.2875L453.95 20.2539C454.39 20.0261 454.569 19.5002 454.352 19.0792C454.134 18.6582 453.601 18.5014 453.161 18.7291L445.367 22.7628C442.598 24.1956 440.805 26.7548 440.308 29.5123L424.301 -1.4163C422.506 -4.91428 424.062 -9.32088 427.769 -11.2396L462.157 -29.037C462.597 -29.2643 463.131 -29.1071 463.348 -28.6865L464.916 -25.6577C465.134 -25.2367 465.667 -25.0798 466.107 -25.3073ZM445.925 32.5627C445.44 31.6771 445.35 30.6493 445.673 29.668C445.995 28.686 446.688 27.8784 447.624 27.3943L479.9 10.69C479.913 11.2058 479.972 11.7142 480.075 12.2103L449.449 28.0608C449.009 28.2884 448.829 28.8141 449.047 29.2351C449.265 29.6561 449.798 29.8131 450.238 29.5856L480.604 13.8698C480.757 14.2201 480.932 14.5597 481.13 14.8863L450.764 30.6021C450.325 30.8296 450.145 31.3558 450.363 31.7768C450.58 32.1978 451.114 32.3548 451.554 32.1272L482.18 16.2767C482.525 16.6473 482.907 16.9891 483.32 17.2977L451.123 33.961C449.221 34.9453 446.889 34.3182 445.925 32.5627ZM485.542 16.1474L485.124 16.3639C482.781 15.0149 481.453 12.4479 481.704 9.75622L482.122 9.53969C482.402 9.39505 482.645 9.20999 482.851 8.99649L486.406 15.8663C486.113 15.9108 485.822 16.0027 485.542 16.1474Z" fill="#FFD9EE"/>
<path d="M436.793 -7.23464C435.072 -6.34379 434.366 -4.27828 435.219 -2.62989L438.28 3.28485C439.133 4.93285 441.227 5.54945 442.949 4.6586L466.002 -7.27263C467.723 -8.16348 468.43 -10.2296 467.577 -11.8776L464.516 -17.7923C463.663 -19.4407 461.568 -20.0567 459.847 -19.1659L436.793 -7.23464ZM462.923 -16.9681L465.984 -11.0533C466.402 -10.2462 466.056 -9.23382 465.213 -8.79738L442.159 3.13385C441.316 3.57029 440.29 3.26799 439.872 2.46082L436.811 -3.45392C436.393 -4.26149 436.739 -5.27345 437.582 -5.70989L460.636 -17.6411C461.479 -18.0776 462.505 -17.7757 462.923 -16.9681Z" fill="#FFD9EE"/>
<path d="M461.558 -11.4166L442.133 -1.36329C441.693 -1.13577 441.514 -0.609598 441.731 -0.188599C441.949 0.232401 442.483 0.389376 442.922 0.161853L462.347 -9.89146C462.787 -10.119 462.967 -10.6449 462.749 -11.0659C462.531 -11.4869 461.998 -11.6441 461.558 -11.4166Z" fill="#FFD9EE"/>
</g>
<g clip-path="url(#clip6)">
<path d="M525.876 341.142C525.798 341.747 526.225 342.301 526.831 342.379L531.184 342.94C532.997 343.174 534.662 341.889 534.896 340.076L540.997 292.739C541.81 286.431 537.411 280.63 531.187 279.807L480.119 273.224L480.116 273.224C477.081 272.824 474.074 273.634 471.648 275.505C469.234 277.369 467.689 280.061 467.3 283.085L461.179 330.574C460.945 332.388 462.229 334.052 464.043 334.286L522.446 341.814C523.052 341.892 523.606 341.465 523.684 340.86C523.762 340.255 523.334 339.7 522.729 339.622L483.498 334.566C483.664 334.238 483.778 333.878 483.828 333.494L487.981 301.27C488.059 300.664 487.632 300.111 487.027 300.033C486.422 299.955 485.867 300.382 485.789 300.988L481.636 333.211C481.558 333.816 481.003 334.244 480.399 334.166C479.795 334.088 479.366 333.533 479.444 332.929L485.565 285.439C485.808 283.557 485.292 281.698 484.112 280.206C482.933 278.714 481.243 277.783 479.354 277.584C475.606 277.19 472.159 279.96 471.669 283.759L465.562 331.139C465.484 331.744 464.929 332.172 464.325 332.094C463.721 332.016 463.292 331.462 463.37 330.857L469.491 283.367C469.806 280.929 471.051 278.758 472.998 277.254C474.956 275.745 477.383 275.092 479.833 275.416C484.849 276.079 488.395 280.771 487.737 285.874L486.355 296.603C486.276 297.209 486.704 297.762 487.309 297.84C487.915 297.918 488.468 297.491 488.546 296.885L489.929 286.157C490.42 282.346 489.007 278.722 486.442 276.267L530.9 281.998C535.917 282.662 539.463 287.353 538.806 292.457L532.704 339.794C532.626 340.398 532.071 340.826 531.467 340.748L527.113 340.187C526.508 340.109 525.954 340.537 525.876 341.142ZM479.122 279.782C480.415 279.918 481.572 280.555 482.378 281.576C483.186 282.597 483.54 283.869 483.374 285.157L477.647 329.587C477.09 329.235 476.507 328.934 475.906 328.688L481.34 286.529C481.418 285.924 480.991 285.369 480.385 285.291C479.78 285.213 479.226 285.641 479.148 286.246L473.76 328.047C473.278 327.953 472.789 327.89 472.299 327.859L477.687 286.058C477.765 285.453 477.337 284.898 476.732 284.82C476.127 284.742 475.572 285.17 475.494 285.775L470.06 327.934C469.416 328.02 468.776 328.164 468.149 328.362L473.861 284.042C474.199 281.424 476.559 279.512 479.122 279.782ZM467.754 331.422L467.829 330.846C470.962 329.435 474.652 329.911 477.327 332.07L477.253 332.646C477.203 333.031 477.222 333.408 477.3 333.767L467.425 332.494C467.59 332.166 467.705 331.807 467.754 331.422Z" fill="#FFD9EE"/>
<path d="M527.999 298.736C528.304 296.367 526.625 294.191 524.255 293.886L515.753 292.79C513.385 292.484 511.208 294.163 510.903 296.533L506.812 328.267C506.507 330.637 508.186 332.813 510.555 333.119L519.057 334.214C521.427 334.52 523.603 332.84 523.908 330.471L527.999 298.736ZM519.34 332.022L510.838 330.926C509.678 330.777 508.854 329.711 509.004 328.55L513.094 296.815C513.244 295.654 514.311 294.832 515.471 294.981L523.973 296.077C525.134 296.227 525.956 297.293 525.807 298.454L521.716 330.188C521.567 331.349 520.501 332.172 519.34 332.022Z" fill="#FFD9EE"/>
</g>
<g clip-path="url(#clip7)">
<path d="M774.691 0.638457C774.181 0.303991 773.496 0.44699 773.161 0.957322L770.755 4.62877C769.753 6.15787 770.182 8.21647 771.711 9.21862L811.63 35.3812C816.95 38.8676 824.089 37.4436 827.549 32.2038L855.773 -10.8619L855.775 -10.8642C857.46 -13.4198 858.045 -16.4781 857.421 -19.4775C856.798 -22.464 855.051 -25.0287 852.501 -26.7001L812.453 -52.947C810.924 -53.9491 808.866 -53.5206 807.863 -51.9915L775.584 -2.73974C775.25 -2.2294 775.392 -1.5443 775.903 -1.20983C776.413 -0.875367 777.098 -1.01805 777.433 -1.52839L799.115 -34.6117C799.337 -34.3192 799.611 -34.0596 799.935 -33.847L827.11 -16.0373C827.62 -15.7026 828.305 -15.8451 828.64 -16.3554C828.974 -16.8657 828.832 -17.5508 828.321 -17.8856L801.147 -35.6953C800.637 -36.0295 800.494 -36.7157 800.828 -37.225C801.162 -37.7349 801.848 -37.8777 802.358 -37.5436L842.406 -11.2967C843.993 -10.2564 845.891 -9.9084 847.749 -10.3181C849.606 -10.7276 851.181 -11.8411 852.185 -13.4542C854.177 -16.653 853.19 -20.9641 849.986 -23.0638L810.031 -49.2504C809.521 -49.5845 809.378 -50.2707 809.712 -50.7801C810.046 -51.29 810.732 -51.4328 811.242 -51.0987L851.29 -24.8518C853.346 -23.504 854.755 -21.4353 855.258 -19.0272C855.761 -16.6068 855.288 -14.1382 853.927 -12.0761C851.139 -7.85333 845.37 -6.71211 841.066 -9.53269L832.019 -15.4623C831.508 -15.7971 830.823 -15.6541 830.488 -15.1437C830.154 -14.6334 830.296 -13.9488 830.807 -13.614L839.855 -7.6844C843.068 -5.57813 846.945 -5.26663 850.274 -6.50225L825.702 30.9891C822.914 35.2123 817.145 36.3535 812.841 33.5329L772.922 7.37033C772.412 7.03618 772.269 6.34998 772.604 5.84012L775.01 2.16867C775.344 1.65834 775.202 0.972925 774.691 0.638457ZM850.309 -14.6221C849.622 -13.5185 848.544 -12.7564 847.273 -12.4766C846.002 -12.196 844.703 -12.4335 843.617 -13.145L806.15 -37.7009C806.709 -38.0488 807.234 -38.4411 807.719 -38.8746L843.271 -15.5739C843.782 -15.2394 844.467 -15.3816 844.801 -15.892C845.136 -16.4023 844.993 -17.0877 844.483 -17.4222L809.232 -40.5249C809.528 -40.9177 809.798 -41.3294 810.04 -41.7571L845.29 -18.6544C845.801 -18.3199 846.486 -18.4626 846.82 -18.9729C847.155 -19.4833 847.012 -20.1687 846.502 -20.5032L810.949 -43.8038C811.153 -44.4209 811.304 -45.0592 811.399 -45.7106L848.775 -21.2151C850.983 -19.7681 851.671 -16.8102 850.309 -14.6221ZM808.819 -47.4016L809.305 -47.0833C809.205 -43.648 807.166 -40.5362 804.055 -39.0736L803.569 -39.3919C803.245 -39.6045 802.897 -39.7517 802.541 -39.8388L807.999 -48.1663C808.221 -47.8743 808.495 -47.6142 808.819 -47.4016Z" fill="#FFD9EE"/>
<path d="M811.911 21.0685C813.91 22.3781 816.6 21.818 817.91 19.8198L822.609 12.65C823.918 10.6523 823.358 7.96124 821.36 6.65166L794.598 -10.8876C792.6 -12.1972 789.909 -11.6369 788.6 -9.63918L783.901 -2.4694C782.591 -0.471234 783.152 2.21971 785.15 3.52928L811.911 21.0685ZM785.749 -1.25774L790.448 -8.42752C791.09 -9.40597 792.408 -9.68087 793.387 -9.03929L820.149 8.49995C821.128 9.14153 821.402 10.4602 820.76 11.4387L816.061 18.6085C815.42 19.5874 814.102 19.8618 813.123 19.2202L786.361 1.68099C785.382 1.03942 785.108 -0.278814 785.749 -1.25774Z" fill="#FFD9EE"/>
<path d="M792.667 -3.34738L815.217 11.4313C815.727 11.7657 816.412 11.6231 816.747 11.1127C817.081 10.6024 816.939 9.91698 816.428 9.58251L793.879 -5.19615C793.368 -5.53061 792.684 -5.38762 792.349 -4.87728C792.015 -4.36695 792.157 -3.68185 792.667 -3.34738Z" fill="#FFD9EE"/>
<path d="M790.08 0.599885L812.63 15.3785C813.14 15.713 813.826 15.5703 814.16 15.06C814.494 14.5497 814.351 13.8647 813.841 13.5303L791.292 -1.24841C790.781 -1.58287 790.097 -1.44035 789.762 -0.930017C789.428 -0.419686 789.57 0.265419 790.08 0.599885Z" fill="#FFD9EE"/>
</g>
<g clip-path="url(#clip8)">
<path d="M181.474 -5.3327C181.834 -5.07472 182.336 -5.15814 182.594 -5.51864L184.45 -8.11215C185.223 -9.19231 184.973 -10.6994 183.893 -11.4724L155.694 -31.6522C151.936 -34.3413 146.711 -33.52 144.044 -29.8194L122.273 0.602264L122.272 0.603939C120.973 2.40887 120.457 4.61157 120.821 6.80738C121.184 8.9938 122.376 10.9076 124.177 12.1968L152.467 32.4415C153.547 33.2145 155.054 32.9647 155.827 31.8845L180.725 -2.90703C180.983 -3.26753 180.9 -3.76908 180.539 -4.02706C180.179 -4.28504 179.677 -4.20186 179.419 -3.84137L162.695 19.5288C162.543 19.3098 162.351 19.1132 162.122 18.9492L142.926 5.21228C142.566 4.95406 142.064 5.03714 141.806 5.39764C141.548 5.75814 141.631 6.2597 141.992 6.51792L161.188 20.2549C161.548 20.5126 161.631 21.015 161.374 21.3748C161.116 21.735 160.614 21.8183 160.254 21.5605L131.964 1.31579C130.842 0.51332 129.475 0.204261 128.115 0.446354C126.754 0.688353 125.578 1.44976 124.801 2.59084C123.26 4.85365 123.848 8.01244 126.111 9.63201L154.336 29.8302C154.696 30.088 154.779 30.5903 154.522 30.9502C154.264 31.3103 153.761 31.3936 153.401 31.1359L125.111 10.8911C123.659 9.85154 122.697 8.30793 122.404 6.54489C122.111 4.77294 122.528 2.99501 123.577 1.53861C125.727 -1.44373 129.949 -2.10044 132.989 0.0751292L139.38 4.64876C139.741 4.90698 140.242 4.82356 140.5 4.46306C140.758 4.10256 140.675 3.60134 140.314 3.34312L133.923 -1.23051C131.653 -2.85511 128.848 -3.19662 126.395 -2.39874L145.348 -28.8827C147.497 -31.8654 151.719 -32.5221 154.759 -30.3465L182.958 -10.1668C183.318 -9.90903 183.402 -9.40666 183.144 -9.04649L181.288 -6.45297C181.03 -6.09248 181.113 -5.59068 181.474 -5.3327ZM126.128 3.49445C126.66 2.71384 127.465 2.19266 128.396 2.02744C129.327 1.86155 130.263 2.07262 131.029 2.62143L157.497 21.5619C157.08 21.7978 156.687 22.0669 156.323 22.3671L131.208 4.39486C130.848 4.13688 130.346 4.21972 130.088 4.58022C129.83 4.94072 129.913 5.44251 130.274 5.70049L155.175 23.5201C154.949 23.7964 154.741 24.0873 154.552 24.3905L129.651 6.57092C129.291 6.31294 128.789 6.39612 128.531 6.75662C128.273 7.11711 128.356 7.61891 128.716 7.87689L153.831 25.8492C153.665 26.291 153.536 26.7499 153.448 27.22L127.045 8.32604C125.486 7.20996 125.074 5.04227 126.128 3.49445ZM155.27 28.5242L154.927 28.2787C155.102 25.7879 156.675 23.5898 158.976 22.6206L159.319 22.8662C159.548 23.0301 159.796 23.1473 160.053 23.2212L155.843 29.1038C155.69 28.8852 155.499 28.6882 155.27 28.5242Z" fill="#FFD9EE"/>
<path d="M155.064 -21.2698C153.652 -22.2799 151.682 -21.9534 150.672 -20.5419L147.048 -15.4771C146.038 -14.066 146.364 -12.0958 147.776 -11.0857L166.68 2.44267C168.092 3.45277 170.062 3.12615 171.072 1.71498L174.696 -3.34976C175.706 -4.76127 175.38 -6.73134 173.968 -7.74144L155.064 -21.2698ZM173.39 -4.28434L169.766 0.780403C169.271 1.47158 168.306 1.63189 167.614 1.13703L148.71 -12.3913C148.018 -12.8862 147.859 -13.8516 148.353 -14.5428L151.978 -19.6075C152.473 -20.2991 153.438 -20.459 154.129 -19.9642L173.034 -6.4358C173.725 -5.94094 173.885 -4.97586 173.39 -4.28434Z" fill="#FFD9EE"/>
</g>
</g>
<defs>
<clipPath id="clip0">
<rect width="1004" height="294" rx="20" fill="white"/>
</clipPath>
<clipPath id="clip1">
<rect x="25" y="281.859" width="88.8955" height="88.8955" transform="rotate(-27.3635 25 281.859)" fill="white"/>
</clipPath>
<clipPath id="clip2">
<rect x="909" y="98.1641" width="74.3272" height="74.3272" transform="rotate(-27.3635 909 98.1641)" fill="white"/>
</clipPath>
<clipPath id="clip3">
<rect x="24.5298" y="165.215" width="74.3272" height="74.3272" transform="rotate(-123.911 24.5298 165.215)" fill="white"/>
</clipPath>
<clipPath id="clip4">
<rect x="930.375" y="242.633" width="74.3272" height="74.3272" transform="rotate(33.2404 930.375 242.633)" fill="white"/>
</clipPath>
<clipPath id="clip5">
<rect x="414.458" y="-6.2832" width="60.2991" height="57.7449" transform="rotate(-27.3635 414.458 -6.2832)" fill="white"/>
</clipPath>
<clipPath id="clip6">
<rect x="543.219" y="275.502" width="74.3272" height="74.3272" transform="rotate(97.3445 543.219 275.502)" fill="white"/>
</clipPath>
<clipPath id="clip7">
<rect x="826.166" y="44.9082" width="74.3272" height="74.3272" transform="rotate(-146.76 826.166 44.9082)" fill="white"/>
</clipPath>
<clipPath id="clip8">
<rect x="145.426" y="-39" width="54" height="54" transform="rotate(35.5882 145.426 -39)" fill="white"/>
</clipPath>
</defs>
</svg>
