<svg width="513" height="44" viewBox="0 0 513 44" fill="none" xmlns="http://www.w3.org/2000/svg">
<path d="M16.1035 0.879999C20.5435 0.879999 24.4235 1.76 27.7435 3.52C31.0635 5.28 33.6235 7.76 35.4235 10.96C37.2635 14.12 38.1835 17.78 38.1835 21.94C38.1835 26.06 37.2635 29.72 35.4235 32.92C33.6235 36.12 31.0435 38.6 27.6835 40.36C24.3635 42.12 20.5035 43 16.1035 43H0.323516V0.879999H16.1035ZM15.4435 34.12C19.3235 34.12 22.3435 33.06 24.5035 30.94C26.6635 28.82 27.7435 25.82 27.7435 21.94C27.7435 18.06 26.6635 15.04 24.5035 12.88C22.3435 10.72 19.3235 9.64 15.4435 9.64H10.5835V34.12H15.4435ZM54.1773 9.1V17.62H67.9173V25.54H54.1773V34.78H69.7173V43H43.9173V0.879999H69.7173V9.1H54.1773ZM103.798 0.879999V9.1H86.6382V17.98H99.4782V25.96H86.6382V43H76.3782V0.879999H103.798ZM135.411 35.56H119.691L117.171 43H106.431L121.671 0.879999H133.551L148.791 43H137.931L135.411 35.56ZM132.771 27.64L127.551 12.22L122.391 27.64H132.771ZM163.509 0.879999V26.08C163.509 28.6 164.129 30.54 165.369 31.9C166.609 33.26 168.429 33.94 170.829 33.94C173.229 33.94 175.069 33.26 176.349 31.9C177.629 30.54 178.269 28.6 178.269 26.08V0.879999H188.529V26.02C188.529 29.78 187.729 32.96 186.129 35.56C184.529 38.16 182.369 40.12 179.649 41.44C176.969 42.76 173.969 43.42 170.649 43.42C167.329 43.42 164.349 42.78 161.709 41.5C159.109 40.18 157.049 38.22 155.529 35.62C154.009 32.98 153.249 29.78 153.249 26.02V0.879999H163.509ZM205.994 35.08H219.434V43H195.734V0.879999H205.994V35.08ZM254.627 0.879999V9.1H243.467V43H233.207V9.1H222.047V0.879999H254.627ZM297.991 21.4C300.431 21.92 302.391 23.14 303.871 25.06C305.351 26.94 306.091 29.1 306.091 31.54C306.091 35.06 304.851 37.86 302.371 39.94C299.931 41.98 296.511 43 292.111 43H272.491V0.879999H291.451C295.731 0.879999 299.071 1.86 301.471 3.82C303.911 5.78 305.131 8.44 305.131 11.8C305.131 14.28 304.471 16.34 303.151 17.98C301.871 19.62 300.151 20.76 297.991 21.4ZM282.751 17.92H289.471C291.151 17.92 292.431 17.56 293.311 16.84C294.231 16.08 294.691 14.98 294.691 13.54C294.691 12.1 294.231 11 293.311 10.24C292.431 9.48 291.151 9.1 289.471 9.1H282.751V17.92ZM290.311 34.72C292.031 34.72 293.351 34.34 294.271 33.58C295.231 32.78 295.711 31.64 295.711 30.16C295.711 28.68 295.211 27.52 294.211 26.68C293.251 25.84 291.911 25.42 290.191 25.42H282.751V34.72H290.311ZM338.262 35.56H322.542L320.022 43H309.282L324.522 0.879999H336.402L351.642 43H340.782L338.262 35.56ZM335.622 27.64L330.402 12.22L325.242 27.64H335.622ZM393.961 43H383.701L366.541 17.02V43H356.281V0.879999H366.541L383.701 26.98V0.879999H393.961V43ZM439.078 43H428.818L411.658 17.02V43H401.398V0.879999H411.658L428.818 26.98V0.879999H439.078V43ZM456.775 9.1V17.62H470.515V25.54H456.775V34.78H472.315V43H446.515V0.879999H472.315V9.1H456.775ZM500.456 43L491.696 27.1H489.236V43H478.976V0.879999H496.196C499.516 0.879999 502.336 1.46 504.656 2.62C507.016 3.78 508.776 5.38 509.936 7.42C511.096 9.42 511.676 11.66 511.676 14.14C511.676 16.94 510.876 19.44 509.276 21.64C507.716 23.84 505.396 25.4 502.316 26.32L512.036 43H500.456ZM489.236 19.84H495.596C497.476 19.84 498.876 19.38 499.796 18.46C500.756 17.54 501.236 16.24 501.236 14.56C501.236 12.96 500.756 11.7 499.796 10.78C498.876 9.86 497.476 9.4 495.596 9.4H489.236V19.84Z" fill="black"/>
</svg>
