<svg width="1004" height="294" viewBox="0 0 1004 294" fill="none" xmlns="http://www.w3.org/2000/svg">
<g clip-path="url(#clip0)">
<rect width="1004" height="294" rx="20" fill="white"/>
<rect width="1004" height="294" rx="20" fill="#2E279D"/>
<path d="M415.064 127.88C419.504 127.88 423.384 128.76 426.704 130.52C430.024 132.28 432.584 134.76 434.384 137.96C436.224 141.12 437.144 144.78 437.144 148.94C437.144 153.06 436.224 156.72 434.384 159.92C432.584 163.12 430.004 165.6 426.644 167.36C423.324 169.12 419.464 170 415.064 170H399.284V127.88H415.064ZM414.404 161.12C418.284 161.12 421.304 160.06 423.464 157.94C425.624 155.82 426.704 152.82 426.704 148.94C426.704 145.06 425.624 142.04 423.464 139.88C421.304 137.72 418.284 136.64 414.404 136.64H409.544V161.12H414.404ZM474.438 152.72C474.438 153.68 474.378 154.68 474.258 155.72H451.038C451.198 157.8 451.858 159.4 453.018 160.52C454.218 161.6 455.678 162.14 457.398 162.14C459.958 162.14 461.738 161.06 462.738 158.9H473.658C473.098 161.1 472.078 163.08 470.598 164.84C469.158 166.6 467.338 167.98 465.138 168.98C462.938 169.98 460.478 170.48 457.758 170.48C454.478 170.48 451.558 169.78 448.998 168.38C446.438 166.98 444.438 164.98 442.998 162.38C441.558 159.78 440.838 156.74 440.838 153.26C440.838 149.78 441.538 146.74 442.938 144.14C444.378 141.54 446.378 139.54 448.938 138.14C451.498 136.74 454.438 136.04 457.758 136.04C460.998 136.04 463.878 136.72 466.398 138.08C468.918 139.44 470.878 141.38 472.278 143.9C473.718 146.42 474.438 149.36 474.438 152.72ZM463.938 150.02C463.938 148.26 463.338 146.86 462.138 145.82C460.938 144.78 459.438 144.26 457.638 144.26C455.918 144.26 454.458 144.76 453.258 145.76C452.098 146.76 451.378 148.18 451.098 150.02H463.938ZM493.471 170.48C490.551 170.48 487.951 169.98 485.671 168.98C483.391 167.98 481.591 166.62 480.271 164.9C478.951 163.14 478.211 161.18 478.051 159.02H488.191C488.311 160.18 488.851 161.12 489.811 161.84C490.771 162.56 491.951 162.92 493.351 162.92C494.631 162.92 495.611 162.68 496.291 162.2C497.011 161.68 497.371 161.02 497.371 160.22C497.371 159.26 496.871 158.56 495.871 158.12C494.871 157.64 493.251 157.12 491.011 156.56C488.611 156 486.611 155.42 485.011 154.82C483.411 154.18 482.031 153.2 480.871 151.88C479.711 150.52 479.131 148.7 479.131 146.42C479.131 144.5 479.651 142.76 480.691 141.2C481.771 139.6 483.331 138.34 485.371 137.42C487.451 136.5 489.911 136.04 492.751 136.04C496.951 136.04 500.251 137.08 502.651 139.16C505.091 141.24 506.491 144 506.851 147.44H497.371C497.211 146.28 496.691 145.36 495.811 144.68C494.971 144 493.851 143.66 492.451 143.66C491.251 143.66 490.331 143.9 489.691 144.38C489.051 144.82 488.731 145.44 488.731 146.24C488.731 147.2 489.231 147.92 490.231 148.4C491.271 148.88 492.871 149.36 495.031 149.84C497.511 150.48 499.531 151.12 501.091 151.76C502.651 152.36 504.011 153.36 505.171 154.76C506.371 156.12 506.991 157.96 507.031 160.28C507.031 162.24 506.471 164 505.351 165.56C504.271 167.08 502.691 168.28 500.611 169.16C498.571 170.04 496.191 170.48 493.471 170.48ZM518.468 133.04C516.668 133.04 515.188 132.52 514.028 131.48C512.908 130.4 512.348 129.08 512.348 127.52C512.348 125.92 512.908 124.6 514.028 123.56C515.188 122.48 516.668 121.94 518.468 121.94C520.228 121.94 521.668 122.48 522.788 123.56C523.948 124.6 524.528 125.92 524.528 127.52C524.528 129.08 523.948 130.4 522.788 131.48C521.668 132.52 520.228 133.04 518.468 133.04ZM523.568 136.52V170H513.308V136.52H523.568ZM543.723 136.04C546.083 136.04 548.143 136.52 549.903 137.48C551.703 138.44 553.083 139.7 554.043 141.26V136.52H564.303V169.94C564.303 173.02 563.683 175.8 562.443 178.28C561.243 180.8 559.383 182.8 556.863 184.28C554.383 185.76 551.283 186.5 547.563 186.5C542.603 186.5 538.583 185.32 535.503 182.96C532.423 180.64 530.663 177.48 530.223 173.48H540.363C540.683 174.76 541.443 175.76 542.643 176.48C543.843 177.24 545.323 177.62 547.083 177.62C549.203 177.62 550.883 177 552.123 175.76C553.403 174.56 554.043 172.62 554.043 169.94V165.2C553.043 166.76 551.663 168.04 549.903 169.04C548.143 170 546.083 170.48 543.723 170.48C540.963 170.48 538.463 169.78 536.223 168.38C533.983 166.94 532.203 164.92 530.883 162.32C529.603 159.68 528.963 156.64 528.963 153.2C528.963 149.76 529.603 146.74 530.883 144.14C532.203 141.54 533.983 139.54 536.223 138.14C538.463 136.74 540.963 136.04 543.723 136.04ZM554.043 153.26C554.043 150.7 553.323 148.68 551.883 147.2C550.483 145.72 548.763 144.98 546.723 144.98C544.683 144.98 542.943 145.72 541.503 147.2C540.103 148.64 539.403 150.64 539.403 153.2C539.403 155.76 540.103 157.8 541.503 159.32C542.943 160.8 544.683 161.54 546.723 161.54C548.763 161.54 550.483 160.8 551.883 159.32C553.323 157.84 554.043 155.82 554.043 153.26ZM592.126 136.16C596.046 136.16 599.166 137.44 601.486 140C603.846 142.52 605.026 146 605.026 150.44V170H594.826V151.82C594.826 149.58 594.246 147.84 593.086 146.6C591.926 145.36 590.366 144.74 588.406 144.74C586.446 144.74 584.886 145.36 583.726 146.6C582.566 147.84 581.986 149.58 581.986 151.82V170H571.726V136.52H581.986V140.96C583.026 139.48 584.426 138.32 586.186 137.48C587.946 136.6 589.926 136.16 592.126 136.16Z" fill="#FFD9EE"/>
<path d="M254.229 95.085L190.299 99.2436C189.582 99.2903 189.038 99.91 189.085 100.628L189.954 113.993C190.001 114.71 190.62 115.254 191.338 115.208L255.268 111.049C255.985 111.002 256.529 110.383 256.482 109.665L255.613 96.2998C255.566 95.5823 254.947 95.0383 254.229 95.085ZM253.799 108.535L192.468 112.524L191.768 101.758L253.099 97.7683L253.799 108.535Z" fill="#FFD9EE"/>
<path d="M250.672 105.773L249.541 104.781C249.794 104.189 249.907 103.543 249.864 102.883C249.792 101.774 249.292 100.759 248.457 100.026C246.733 98.5132 244.1 98.6844 242.586 100.408C241.853 101.243 241.489 102.314 241.561 103.423C241.634 104.531 242.133 105.546 242.968 106.279C243.803 107.012 244.874 107.376 245.983 107.304C246.643 107.261 247.269 107.065 247.823 106.738L248.954 107.73C249.224 107.968 249.565 108.073 249.897 108.051C250.23 108.03 250.554 107.881 250.791 107.611C251.266 107.071 251.212 106.248 250.672 105.773ZM246.882 104.179C246.608 104.491 246.228 104.678 245.814 104.705C245.399 104.732 244.999 104.596 244.686 104.322C244.374 104.047 244.187 103.668 244.16 103.254C244.133 102.839 244.269 102.439 244.544 102.126C244.826 101.804 245.214 101.627 245.612 101.601C246.009 101.575 246.417 101.701 246.739 101.984C247.051 102.258 247.238 102.637 247.265 103.052C247.292 103.466 247.156 103.867 246.882 104.179Z" fill="#FFD9EE"/>
<path d="M236.218 106.38C236.196 106.298 236.166 106.217 236.128 106.142C236.09 106.066 236.045 105.992 235.994 105.925C235.943 105.858 235.884 105.794 235.82 105.738C235.756 105.682 235.686 105.632 235.612 105.589C235.539 105.547 235.461 105.512 235.379 105.485C235.299 105.457 235.216 105.438 235.132 105.426C234.962 105.403 234.789 105.415 234.623 105.459C234.541 105.482 234.461 105.512 234.385 105.549C234.309 105.587 234.237 105.632 234.17 105.683C234.101 105.735 234.038 105.794 233.981 105.857C233.925 105.921 233.877 105.992 233.833 106.065C233.791 106.139 233.756 106.218 233.728 106.298C233.701 106.378 233.681 106.461 233.67 106.546C233.658 106.631 233.656 106.716 233.662 106.802C233.667 106.886 233.68 106.97 233.703 107.054C233.725 107.136 233.755 107.216 233.793 107.292C233.83 107.368 233.875 107.441 233.927 107.509C233.98 107.576 234.037 107.64 234.101 107.696C234.166 107.752 234.236 107.802 234.31 107.844C234.383 107.886 234.461 107.922 234.541 107.949C234.623 107.976 234.706 107.996 234.789 108.007C234.875 108.019 234.961 108.021 235.046 108.015C235.13 108.01 235.215 107.996 235.297 107.974C235.379 107.952 235.46 107.922 235.535 107.884C235.611 107.847 235.685 107.802 235.752 107.75C235.821 107.699 235.884 107.64 235.94 107.576C236.165 107.318 236.283 106.975 236.26 106.633C236.255 106.547 236.24 106.463 236.218 106.38Z" fill="#FFD9EE"/>
<path d="M229.95 105.737L202.944 107.494C202.227 107.54 201.683 108.16 201.73 108.878C201.776 109.595 202.396 110.139 203.113 110.092L230.119 108.336C230.836 108.289 231.38 107.669 231.334 106.952C231.287 106.234 230.667 105.69 229.95 105.737Z" fill="#FFD9EE"/>
<path d="M231.066 114.484L191.612 117.05C190.894 117.097 190.35 117.717 190.397 118.434L192.064 144.058C192.111 144.775 192.73 145.319 193.448 145.273L232.902 142.706C233.62 142.659 234.164 142.04 234.117 141.322L232.45 115.699C232.403 114.981 231.784 114.437 231.066 114.484ZM207.653 141.739L196.624 142.456L203.492 133.373L209.277 139.252L207.653 141.739ZM210.902 141.527L213.114 138.139L219.415 137.73C220.132 137.683 220.676 137.063 220.63 136.346C220.583 135.628 219.963 135.084 219.246 135.131L214.894 135.414L215.727 134.139L223.886 133.608L229.628 140.309L210.902 141.527ZM217.507 131.414L219.452 128.435L221.767 131.136L217.507 131.414ZM231.309 138.268L220.3 125.422C220.034 125.11 219.636 124.943 219.227 124.969C218.818 124.996 218.445 125.214 218.221 125.557L210.735 137.02L204.291 130.471C204.026 130.202 203.656 130.061 203.279 130.085C202.901 130.11 202.553 130.298 202.324 130.599L194.474 140.982L193.08 119.564L229.936 117.167L231.309 138.268Z" fill="#FFD9EE"/>
<path d="M208.311 120.072C205.778 120.237 203.851 122.432 204.016 124.965C204.181 127.498 206.376 129.424 208.909 129.26C211.442 129.095 213.368 126.9 213.203 124.367C213.039 121.834 210.844 119.908 208.311 120.072ZM208.74 126.661C207.64 126.733 206.686 125.896 206.615 124.796C206.543 123.696 207.38 122.743 208.48 122.671C209.58 122.6 210.533 123.436 210.605 124.536C210.676 125.636 209.84 126.589 208.74 126.661Z" fill="#FFD9EE"/>
<path d="M255.388 112.902L235.418 114.201C234.7 114.247 234.157 114.867 234.203 115.585L235.87 141.208C235.917 141.926 236.536 142.47 237.254 142.423L257.224 141.124C257.942 141.077 258.486 140.458 258.439 139.74L256.772 114.116C256.725 113.399 256.106 112.855 255.388 112.902ZM255.756 138.61L238.384 139.74L236.886 116.715L254.258 115.585L255.756 138.61Z" fill="#FFD9EE"/>
<path d="M251.372 117.921L240.051 118.658C239.333 118.704 238.789 119.324 238.836 120.042C238.883 120.759 239.502 121.303 240.22 121.256L251.541 120.52C252.258 120.473 252.802 119.854 252.755 119.136C252.709 118.419 252.089 117.875 251.372 117.921Z" fill="#FFD9EE"/>
<path d="M251.711 123.136L240.39 123.873C239.673 123.919 239.129 124.539 239.175 125.256C239.222 125.974 239.842 126.518 240.559 126.471L251.88 125.735C252.598 125.688 253.141 125.068 253.095 124.351C253.048 123.633 252.429 123.089 251.711 123.136Z" fill="#FFD9EE"/>
<path d="M252.05 128.351L240.73 129.087C240.012 129.134 239.468 129.754 239.515 130.471C239.561 131.189 240.181 131.733 240.899 131.686L252.219 130.95C252.937 130.903 253.481 130.283 253.434 129.566C253.387 128.848 252.768 128.304 252.05 128.351Z" fill="#FFD9EE"/>
<path d="M242.411 135.264C242.388 135.182 242.358 135.102 242.321 135.026C242.283 134.95 242.238 134.877 242.187 134.809C242.134 134.742 242.076 134.678 242.011 134.622C241.69 134.34 241.233 134.23 240.816 134.344C240.734 134.366 240.654 134.396 240.578 134.434C240.502 134.471 240.429 134.516 240.361 134.568C240.294 134.619 240.23 134.678 240.174 134.742C240.118 134.805 240.068 134.876 240.026 134.95C239.984 135.024 239.948 135.102 239.921 135.182C239.893 135.262 239.874 135.346 239.863 135.43C239.851 135.516 239.848 135.601 239.853 135.685C239.859 135.771 239.873 135.855 239.896 135.938C239.918 136.02 239.948 136.1 239.985 136.176C240.023 136.252 240.068 136.325 240.12 136.393C240.171 136.46 240.23 136.524 240.294 136.58C240.357 136.636 240.428 136.686 240.502 136.729C240.576 136.771 240.654 136.806 240.734 136.834C240.814 136.861 240.898 136.88 240.982 136.892C241.067 136.903 241.153 136.907 241.238 136.901C241.58 136.879 241.905 136.718 242.131 136.461C242.187 136.397 242.237 136.326 242.28 136.253C242.323 136.178 242.358 136.1 242.385 136.02C242.413 135.94 242.432 135.857 242.444 135.772C242.455 135.687 242.457 135.602 242.452 135.516C242.446 135.432 242.433 135.348 242.411 135.264Z" fill="#FFD9EE"/>
<path d="M252.389 133.566L245.994 133.982C245.277 134.029 244.733 134.648 244.779 135.366C244.826 136.083 245.446 136.627 246.163 136.581L252.558 136.165C253.276 136.118 253.82 135.498 253.773 134.781C253.726 134.063 253.107 133.519 252.389 133.566Z" fill="#FFD9EE"/>
<path d="M213.538 145.818L193.567 147.117C192.85 147.163 192.306 147.783 192.353 148.501L193.223 161.884C193.27 162.602 193.889 163.146 194.607 163.099L214.577 161.8C215.295 161.754 215.839 161.134 215.792 160.416L214.922 147.032C214.875 146.315 214.255 145.771 213.538 145.818ZM213.109 159.286L195.737 160.416L195.036 149.631L212.407 148.501L213.109 159.286Z" fill="#FFD9EE"/>
<path d="M257.344 142.968L218.067 145.523C217.349 145.57 216.805 146.189 216.852 146.907L217.723 160.291C217.769 161.008 218.389 161.552 219.107 161.506L258.383 158.951C259.101 158.904 259.645 158.284 259.598 157.567L258.728 144.183C258.681 143.465 258.061 142.921 257.344 142.968ZM256.915 156.436L220.237 158.822L219.535 148.037L256.213 145.651L256.915 156.436Z" fill="#FFD9EE"/>
<path d="M225.789 152.79C225.766 152.708 225.736 152.628 225.699 152.552C225.661 152.475 225.616 152.402 225.565 152.335C225.513 152.267 225.454 152.204 225.391 152.148C225.327 152.092 225.257 152.042 225.183 152C225.11 151.958 225.032 151.922 224.95 151.895C224.87 151.868 224.787 151.847 224.702 151.835C224.533 151.814 224.36 151.825 224.194 151.869C224.113 151.891 224.033 151.922 223.956 151.96C223.88 151.997 223.808 152.043 223.74 152.094C223.672 152.145 223.609 152.204 223.553 152.268C223.498 152.331 223.447 152.401 223.404 152.476C223.362 152.549 223.326 152.627 223.299 152.708C223.272 152.789 223.252 152.872 223.241 152.956C223.229 153.04 223.227 153.127 223.232 153.211C223.238 153.295 223.251 153.381 223.274 153.463C223.296 153.545 223.326 153.625 223.364 153.702C223.401 153.778 223.446 153.851 223.498 153.918C223.55 153.986 223.609 154.049 223.673 154.105C223.93 154.331 224.275 154.448 224.616 154.426C224.701 154.421 224.786 154.407 224.868 154.385C224.95 154.363 225.03 154.331 225.106 154.294C225.183 154.256 225.256 154.212 225.323 154.16C225.392 154.108 225.454 154.049 225.51 153.986C225.566 153.922 225.616 153.852 225.659 153.778C225.701 153.704 225.736 153.626 225.764 153.546C225.791 153.465 225.81 153.381 225.822 153.297C225.833 153.213 225.837 153.126 225.831 153.042C225.826 152.958 225.811 152.872 225.789 152.79Z" fill="#FFD9EE"/>
<path d="M251.194 150.088L229.373 151.507C228.655 151.554 228.112 152.174 228.158 152.891C228.205 153.609 228.825 154.153 229.542 154.106L251.363 152.687C252.08 152.64 252.624 152.02 252.577 151.303C252.531 150.585 251.911 150.041 251.194 150.088Z" fill="#FFD9EE"/>
<path d="M1070.91 55.7183L943.987 63.9748C942.562 64.0674 941.482 65.2978 941.575 66.7224L943.301 93.2577C943.394 94.6822 944.624 95.7623 946.049 95.6697L1072.97 87.4132C1074.4 87.3205 1075.48 86.0901 1075.39 84.6656L1073.66 58.1302C1073.57 56.7057 1072.34 55.6256 1070.91 55.7183ZM1070.06 82.4214L948.293 90.3423L946.902 68.9665L1068.67 61.0456L1070.06 82.4214Z" fill="#FFD9EE"/>
<path d="M1022.71 76.8659L969.092 80.3537C967.667 80.4464 966.587 81.6767 966.68 83.1013C966.773 84.5258 968.003 85.6059 969.428 85.5132L1023.04 82.0255C1024.47 81.9328 1025.55 80.7025 1025.46 79.2779C1025.36 77.8533 1024.13 76.7733 1022.71 76.8659Z" fill="#FFD9EE"/>
<path d="M1024.92 94.2328L946.592 99.3283C945.168 99.421 944.088 100.651 944.181 102.076L947.49 152.949C947.582 154.374 948.813 155.453 950.237 155.361L1028.57 150.265C1029.99 150.173 1031.07 148.942 1030.98 147.518L1027.67 96.6447C1027.58 95.2202 1026.35 94.1401 1024.92 94.2328ZM978.441 148.345L956.543 149.769L970.18 131.735L981.665 143.408L978.441 148.345ZM984.89 147.925L989.283 141.199L1001.79 140.385C1003.22 140.292 1004.3 139.062 1004.2 137.637C1004.11 136.213 1002.88 135.133 1001.46 135.225L992.817 135.787L994.47 133.256L1010.67 132.203L1022.07 145.507L984.89 147.925ZM998.004 127.845L1001.87 121.931L1006.46 127.295L998.004 127.845ZM1025.41 141.455L1003.55 115.949C1003.02 115.331 1002.23 114.998 1001.42 115.051C1000.61 115.104 999.868 115.536 999.423 116.217L984.558 138.977L971.766 125.975C971.239 125.439 970.505 125.159 969.755 125.208C969.006 125.257 968.314 125.629 967.861 126.229L952.274 146.842L949.508 104.32L1022.68 99.5601L1025.41 141.455Z" fill="#FFD9EE"/>
<path d="M979.747 105.329C974.718 105.656 970.893 110.013 971.22 115.042C971.547 120.071 975.905 123.896 980.933 123.569C985.962 123.242 989.787 118.885 989.46 113.856C989.133 108.827 984.776 105.001 979.747 105.329ZM980.598 118.41C978.414 118.552 976.521 116.891 976.379 114.707C976.237 112.523 977.899 110.63 980.082 110.488C982.266 110.346 984.159 112.007 984.301 114.192C984.443 116.376 982.782 118.268 980.598 118.41Z" fill="#FFD9EE"/>
<path d="M990.124 156.443L950.475 159.022C949.05 159.114 947.971 160.345 948.063 161.769L949.792 188.341C949.885 189.766 951.115 190.846 952.539 190.753L992.188 188.174C993.613 188.082 994.693 186.851 994.6 185.427L992.871 158.854C992.779 157.43 991.549 156.35 990.124 156.443ZM989.273 183.183L954.784 185.426L953.391 164.013L987.88 161.77L989.273 183.183Z" fill="#FFD9EE"/>
<path d="M1077.1 150.785L999.117 155.858C997.692 155.95 996.612 157.181 996.705 158.605L998.433 185.177C998.526 186.602 999.756 187.682 1001.18 187.589L1079.16 182.517C1080.59 182.424 1081.67 181.194 1081.57 179.769L1079.84 153.197C1079.75 151.772 1078.52 150.692 1077.1 150.785ZM1076.25 177.525L1003.43 182.262L1002.03 160.849L1074.85 156.112L1076.25 177.525Z" fill="#FFD9EE"/>
<path d="M772.647 -9.57852L737.939 -7.32073C736.691 -7.2396 735.746 -6.16254 735.827 -4.91548L737.34 18.346C737.421 19.593 738.498 20.5385 739.745 20.4574L774.454 18.1996C775.701 18.1185 776.647 17.0414 776.565 15.7944L775.052 -7.46708C774.971 -8.71414 773.894 -9.65966 772.647 -9.57852ZM771.902 13.8298L741.71 15.7938L740.491 -2.95094L770.683 -4.91492L771.902 13.8298Z" fill="#FFD9EE"/>
<path d="M848.783 -14.5308L780.519 -10.0903C779.272 -10.0091 778.327 -8.93207 778.408 -7.68501L779.921 15.5764C780.002 16.8235 781.079 17.769 782.326 17.6879L850.59 13.2473C851.837 13.1662 852.783 12.0891 852.701 10.842L851.188 -12.4194C851.107 -13.6664 850.03 -14.612 848.783 -14.5308ZM848.038 8.87751L784.291 13.0243L783.071 -5.72047L846.819 -9.86723L848.038 8.87751Z" fill="#FFD9EE"/>
<path d="M793.94 2.54021C793.901 2.39781 793.849 2.2581 793.784 2.12627C793.718 1.99219 793.64 1.86598 793.55 1.74932C793.461 1.63017 793.359 1.52117 793.248 1.42404C793.137 1.32691 793.016 1.23955 792.887 1.16633C792.759 1.09319 792.624 1.03148 792.482 0.983981C792.343 0.936337 792.198 0.900421 792.052 0.880464C791.757 0.842956 791.456 0.862495 791.169 0.937904C791.028 0.976518 790.889 1.03094 790.755 1.09636C790.623 1.16164 790.497 1.24039 790.38 1.3294C790.261 1.41878 790.152 1.52112 790.055 1.63176C789.958 1.74241 789.87 1.86375 789.795 1.99362C789.721 2.12086 789.66 2.25617 789.612 2.39761C789.565 2.53701 789.531 2.68185 789.511 2.82829C789.491 2.97473 789.487 3.12467 789.497 3.27146C789.507 3.41803 789.53 3.56642 789.569 3.70904C789.607 3.85144 789.659 3.99093 789.725 4.12501C789.79 4.25684 789.869 4.38327 789.958 4.49993C790.05 4.61871 790.152 4.72772 790.263 4.82484C790.71 5.21757 791.308 5.42154 791.902 5.3829C792.049 5.37336 792.197 5.34988 792.34 5.31135C792.482 5.27259 792.622 5.21816 792.754 5.15289C792.888 5.08747 793.014 5.0112 793.131 4.91971C793.25 4.83056 793.359 4.72821 793.456 4.61734C793.553 4.5067 793.64 4.38536 793.714 4.25586C793.787 4.12862 793.848 3.99308 793.896 3.85391C793.944 3.71248 793.977 3.56741 793.997 3.42096C794.017 3.27429 794.023 3.12422 794.014 2.97765C794.004 2.83086 793.979 2.68261 793.94 2.54021Z" fill="#FFD9EE"/>
<path d="M838.094 -2.15685L800.169 0.310126C798.922 0.391262 797.977 1.46832 798.058 2.71538C798.139 3.96244 799.216 4.90796 800.463 4.82682L838.388 2.35984C839.635 2.27871 840.58 1.20165 840.499 -0.0454106C840.418 -1.29247 839.341 -2.23799 838.094 -2.15685Z" fill="#FFD9EE"/>
<path d="M77.7495 263.668L75.0121 258.887C76.5895 257.137 77.7486 255.031 78.3844 252.692C79.4519 248.764 78.9262 244.655 76.9038 241.123C72.7286 233.831 63.4001 231.296 56.108 235.47C52.5757 237.493 50.0423 240.771 48.9748 244.698C47.9073 248.626 48.4335 252.735 50.4556 256.267C52.4786 259.799 55.7557 262.332 59.6834 263.4C62.023 264.036 64.4257 264.102 66.7334 263.627L69.4708 268.408C70.1255 269.551 71.1812 270.321 72.359 270.641C73.5369 270.961 74.8375 270.832 75.9802 270.178C78.2661 268.869 79.0583 265.954 77.7495 263.668ZM66.5118 253.64C65.1911 254.397 63.6547 254.593 62.1855 254.194C60.7162 253.795 59.4913 252.847 58.7348 251.526C57.9788 250.205 57.7814 248.669 58.1806 247.2C58.5798 245.731 59.5278 244.506 60.8485 243.75C62.2118 242.969 63.7659 242.816 65.174 243.199C66.582 243.581 67.8448 244.5 68.6255 245.863C69.3815 247.185 69.5788 248.721 69.1796 250.19C68.7804 251.659 67.8329 252.884 66.5118 253.64Z" fill="#FFD9EE"/>
<path d="M798.157 139.887L795.483 135.217C797.024 133.508 798.157 131.45 798.778 129.165C799.82 125.329 799.307 121.315 797.331 117.865C793.253 110.743 784.141 108.265 777.018 112.344C773.567 114.319 771.093 117.521 770.05 121.357C769.007 125.194 769.521 129.208 771.496 132.658C773.472 136.108 776.674 138.583 780.51 139.625C782.796 140.247 785.142 140.311 787.397 139.848L790.071 144.518C790.71 145.634 791.741 146.386 792.892 146.699C794.042 147.012 795.313 146.885 796.429 146.246C798.662 144.967 799.436 142.12 798.157 139.887ZM787.18 130.092C785.89 130.831 784.389 131.023 782.954 130.633C781.519 130.243 780.323 129.318 779.584 128.027C778.845 126.737 778.652 125.236 779.042 123.801C779.432 122.367 780.358 121.169 781.648 120.431C782.98 119.668 784.498 119.519 785.873 119.893C787.249 120.267 788.482 121.164 789.245 122.496C789.983 123.786 790.176 125.287 789.786 126.722C789.396 128.156 788.471 129.353 787.18 130.092Z" fill="#FFD9EE"/>
<path d="M423.732 14.6678L420.995 9.88687C422.572 8.13678 423.732 6.03079 424.367 3.69161C425.435 -0.236028 424.909 -4.3451 422.887 -7.87735C418.711 -15.1685 409.383 -17.7045 402.091 -13.5296C398.559 -11.5071 396.025 -8.22944 394.958 -4.30181C393.89 -0.374174 394.416 3.73502 396.439 7.26669C398.461 10.7991 401.739 13.3323 405.666 14.3998C408.006 15.0357 410.409 15.1016 412.716 14.6275L415.454 19.4084C416.108 20.5512 417.164 21.321 418.342 21.6412C419.52 21.9613 420.82 21.8319 421.963 21.1776C424.249 19.8687 425.041 16.9542 423.732 14.6678ZM412.495 4.63996C411.174 5.39659 409.638 5.59342 408.168 5.19408C406.699 4.79475 405.474 3.84743 404.718 2.52619C403.962 1.20509 403.764 -0.330945 404.163 -1.79972C404.563 -3.2685 405.511 -4.49419 406.831 -5.25037C408.195 -6.03101 409.749 -6.18396 411.157 -5.80127C412.565 -5.41858 413.828 -4.49998 414.608 -3.1366C415.364 -1.8155 415.562 -0.279008 415.163 1.18977C414.763 2.65855 413.816 3.88391 412.495 4.63996Z" fill="#FFD9EE"/>
<path d="M51.6151 -31.3912L-21.7427 -2.13349C-23.0771 -1.60131 -23.7272 -0.0880609 -23.1951 1.24602L-4.19371 48.8882C-3.66153 50.2226 -2.14852 50.8728 -0.814196 50.3406L72.5436 21.0829C73.878 20.5507 74.5281 19.0375 73.996 17.7034L54.9946 -29.9388C54.4625 -31.2729 52.9494 -31.9234 51.6151 -31.3912ZM23.985 34.8491L3.47819 43.0279L10.9115 21.5295L25.5329 29.1224L23.985 34.8491ZM30.0249 32.4401L32.1341 24.6372L43.8488 19.965C45.1831 19.4328 45.8333 17.9195 45.3012 16.5854C44.7691 15.2514 43.256 14.6009 41.9217 15.1331L33.8311 18.3598L34.6248 15.4239L49.7943 9.3738L64.8428 18.5535L30.0249 32.4401ZM36.3214 9.14679L38.1761 2.28601L44.2433 5.98725L36.3214 9.14679ZM66.7742 13.6383L37.9246 -3.96132C37.2256 -4.38763 36.3668 -4.46007 35.6065 -4.15684C34.8462 -3.85361 34.2729 -3.20996 34.0591 -2.41961L26.9223 23.9822L10.636 15.5245C9.96531 15.1762 9.1759 15.1368 8.47382 15.4168C7.77175 15.6968 7.22635 16.2686 6.97921 16.9829L-1.51741 41.5564L-17.3997 1.73484L51.1263 -25.5957L66.7742 13.6383Z" fill="#FFD9EE"/>
<path d="M11.8463 -6.71118C7.13662 -4.83281 4.8333 0.526765 6.71167 5.23641C8.59005 9.94606 13.9499 12.2493 18.6593 10.371C23.3689 8.49264 25.6722 3.13307 23.7939 -1.57658C21.9155 -6.28622 16.5559 -8.58956 11.8463 -6.71118ZM16.7322 5.53936C14.6869 6.35511 12.3594 5.35486 11.5437 3.30952C10.7279 1.26418 11.7284 -1.06339 13.7735 -1.87904C15.8186 -2.6947 18.1463 -1.69455 18.9621 0.350795C19.7778 2.39614 18.7776 4.72361 16.7322 5.53936Z" fill="#FFD9EE"/>
<path d="M558.535 271.707L509.023 262.992C508.123 262.834 507.264 263.435 507.106 264.336L501.445 296.491C501.287 297.392 501.888 298.25 502.789 298.409L552.301 307.124C553.202 307.283 554.06 306.681 554.219 305.781L559.879 273.625C560.037 272.725 559.436 271.866 558.535 271.707ZM521.402 298.323L507.561 295.886L518.782 286.735L524.157 295.74L521.402 298.323ZM525.478 299.04L529.232 295.522L537.139 296.913C538.04 297.072 538.898 296.47 539.057 295.57C539.215 294.669 538.614 293.811 537.713 293.652L532.253 292.691L533.665 291.367L543.904 293.169L548.978 303.177L525.478 299.04ZM536.685 288.536L539.986 285.443L542.032 289.478L536.685 288.536ZM551.669 301.162L541.941 281.976C541.705 281.511 541.264 281.184 540.751 281.094C540.238 281.004 539.712 281.16 539.332 281.517L526.63 293.422L520.643 283.391C520.397 282.978 519.982 282.693 519.508 282.609C519.035 282.526 518.548 282.653 518.175 282.957L505.349 293.417L510.08 266.54L556.331 274.682L551.669 301.162Z" fill="#FFD9EE"/>
<path d="M528.742 271.759C525.563 271.199 522.522 273.33 521.962 276.509C521.403 279.688 523.534 282.729 526.712 283.288C529.891 283.848 532.932 281.717 533.492 278.538C534.051 275.36 531.92 272.318 528.742 271.759ZM527.286 280.027C525.906 279.784 524.981 278.464 525.224 277.083C525.467 275.703 526.787 274.777 528.168 275.02C529.548 275.263 530.474 276.584 530.231 277.964C529.988 279.345 528.667 280.27 527.286 280.027Z" fill="#FFD9EE"/>
<path d="M956.615 266.609L883.257 295.867C881.923 296.399 881.273 297.912 881.805 299.246L900.806 346.888C901.338 348.223 902.851 348.873 904.186 348.341L977.544 319.083C978.878 318.551 979.528 317.037 978.996 315.703L959.995 268.061C959.463 266.727 957.949 266.077 956.615 266.609ZM928.985 332.849L908.478 341.028L915.911 319.529L930.533 327.122L928.985 332.849ZM935.025 330.44L937.134 322.637L948.849 317.965C950.183 317.433 950.833 315.92 950.301 314.585C949.769 313.251 948.256 312.601 946.922 313.133L938.831 316.36L939.625 313.424L954.794 307.374L969.843 316.554L935.025 330.44ZM941.321 307.147L943.176 300.286L949.243 303.987L941.321 307.147ZM971.774 311.638L942.925 294.039C942.226 293.612 941.367 293.54 940.606 293.843C939.846 294.146 939.273 294.79 939.059 295.58L931.922 321.982L915.636 313.524C914.965 313.176 914.176 313.137 913.474 313.417C912.772 313.697 912.226 314.269 911.979 314.983L903.483 339.556L887.6 299.735L956.126 272.404L971.774 311.638Z" fill="#FFD9EE"/>
<path d="M916.846 291.289C912.137 293.167 909.833 298.527 911.712 303.236C913.59 307.946 918.95 310.249 923.659 308.371C928.369 306.493 930.672 301.133 928.794 296.423C926.915 291.714 921.556 289.41 916.846 291.289ZM921.732 303.539C919.687 304.355 917.359 303.355 916.544 301.31C915.728 299.264 916.728 296.937 918.773 296.121C920.819 295.305 923.146 296.305 923.962 298.351C924.778 300.396 923.778 302.724 921.732 303.539Z" fill="#FFD9EE"/>
</g>
<defs>
<clipPath id="clip0">
<rect width="1004" height="294" rx="20" fill="white"/>
</clipPath>
</defs>
</svg>
