<svg width="1004" height="294" viewBox="0 0 1004 294" fill="none" xmlns="http://www.w3.org/2000/svg">
<g clip-path="url(#clip0)">
<rect width="1004" height="294" rx="20" fill="white"/>
<rect width="1004" height="294" rx="20" fill="#2E279D"/>
<path d="M230.98 136.1V144.62H244.72V152.54H230.98V161.78H246.52V170H220.72V127.88H246.52V136.1H230.98ZM263.441 125.6V170H253.181V125.6H263.441ZM302.436 152.72C302.436 153.68 302.376 154.68 302.256 155.72H279.036C279.196 157.8 279.856 159.4 281.016 160.52C282.216 161.6 283.676 162.14 285.396 162.14C287.956 162.14 289.736 161.06 290.736 158.9H301.656C301.096 161.1 300.076 163.08 298.596 164.84C297.156 166.6 295.336 167.98 293.136 168.98C290.936 169.98 288.476 170.48 285.756 170.48C282.476 170.48 279.556 169.78 276.996 168.38C274.436 166.98 272.436 164.98 270.996 162.38C269.556 159.78 268.836 156.74 268.836 153.26C268.836 149.78 269.536 146.74 270.936 144.14C272.376 141.54 274.376 139.54 276.936 138.14C279.496 136.74 282.436 136.04 285.756 136.04C288.996 136.04 291.876 136.72 294.396 138.08C296.916 139.44 298.876 141.38 300.276 143.9C301.716 146.42 302.436 149.36 302.436 152.72ZM291.936 150.02C291.936 148.26 291.336 146.86 290.136 145.82C288.936 144.78 287.436 144.26 285.636 144.26C283.916 144.26 282.456 144.76 281.256 145.76C280.096 146.76 279.376 148.18 279.096 150.02H291.936ZM305.809 153.26C305.809 149.78 306.509 146.74 307.909 144.14C309.349 141.54 311.329 139.54 313.849 138.14C316.409 136.74 319.329 136.04 322.609 136.04C326.809 136.04 330.309 137.14 333.109 139.34C335.949 141.54 337.809 144.64 338.689 148.64H327.769C326.849 146.08 325.069 144.8 322.429 144.8C320.549 144.8 319.049 145.54 317.929 147.02C316.809 148.46 316.249 150.54 316.249 153.26C316.249 155.98 316.809 158.08 317.929 159.56C319.049 161 320.549 161.72 322.429 161.72C325.069 161.72 326.849 160.44 327.769 157.88H338.689C337.809 161.8 335.949 164.88 333.109 167.12C330.269 169.36 326.769 170.48 322.609 170.48C319.329 170.48 316.409 169.78 313.849 168.38C311.329 166.98 309.349 164.98 307.909 162.38C306.509 159.78 305.809 156.74 305.809 153.26ZM362.837 161.3V170H357.617C353.897 170 350.997 169.1 348.917 167.3C346.837 165.46 345.797 162.48 345.797 158.36V145.04H341.717V136.52H345.797V128.36H356.057V136.52H362.777V145.04H356.057V158.48C356.057 159.48 356.297 160.2 356.777 160.64C357.257 161.08 358.057 161.3 359.177 161.3H362.837ZM378.812 142.1C380.012 140.26 381.512 138.82 383.312 137.78C385.112 136.7 387.112 136.16 389.312 136.16V147.02H386.492C383.932 147.02 382.012 147.58 380.732 148.7C379.452 149.78 378.812 151.7 378.812 154.46V170H368.552V136.52H378.812V142.1ZM399.376 133.04C397.576 133.04 396.096 132.52 394.936 131.48C393.816 130.4 393.256 129.08 393.256 127.52C393.256 125.92 393.816 124.6 394.936 123.56C396.096 122.48 397.576 121.94 399.376 121.94C401.136 121.94 402.576 122.48 403.696 123.56C404.856 124.6 405.436 125.92 405.436 127.52C405.436 129.08 404.856 130.4 403.696 131.48C402.576 132.52 401.136 133.04 399.376 133.04ZM404.476 136.52V170H394.216V136.52H404.476ZM409.871 153.26C409.871 149.78 410.571 146.74 411.971 144.14C413.411 141.54 415.391 139.54 417.911 138.14C420.471 136.74 423.391 136.04 426.671 136.04C430.871 136.04 434.371 137.14 437.171 139.34C440.011 141.54 441.871 144.64 442.751 148.64H431.831C430.911 146.08 429.131 144.8 426.491 144.8C424.611 144.8 423.111 145.54 421.991 147.02C420.871 148.46 420.311 150.54 420.311 153.26C420.311 155.98 420.871 158.08 421.991 159.56C423.111 161 424.611 161.72 426.491 161.72C429.131 161.72 430.911 160.44 431.831 157.88H442.751C441.871 161.8 440.011 164.88 437.171 167.12C434.331 169.36 430.831 170.48 426.671 170.48C423.391 170.48 420.471 169.78 417.911 168.38C415.391 166.98 413.411 164.98 411.971 162.38C410.571 159.78 409.871 156.74 409.871 153.26ZM446.2 153.2C446.2 149.76 446.84 146.74 448.12 144.14C449.44 141.54 451.22 139.54 453.46 138.14C455.7 136.74 458.2 136.04 460.96 136.04C463.32 136.04 465.38 136.52 467.14 137.48C468.94 138.44 470.32 139.7 471.28 141.26V136.52H481.54V170H471.28V165.26C470.28 166.82 468.88 168.08 467.08 169.04C465.32 170 463.26 170.48 460.9 170.48C458.18 170.48 455.7 169.78 453.46 168.38C451.22 166.94 449.44 164.92 448.12 162.32C446.84 159.68 446.2 156.64 446.2 153.2ZM471.28 153.26C471.28 150.7 470.56 148.68 469.12 147.2C467.72 145.72 466 144.98 463.96 144.98C461.92 144.98 460.18 145.72 458.74 147.2C457.34 148.64 456.64 150.64 456.64 153.2C456.64 155.76 457.34 157.8 458.74 159.32C460.18 160.8 461.92 161.54 463.96 161.54C466 161.54 467.72 160.8 469.12 159.32C470.56 157.84 471.28 155.82 471.28 153.26ZM499.222 125.6V170H488.962V125.6H499.222ZM529.632 136.1V144.62H543.372V152.54H529.632V161.78H545.172V170H519.372V127.88H545.172V136.1H529.632ZM572.233 136.16C576.153 136.16 579.273 137.44 581.593 140C583.953 142.52 585.133 146 585.133 150.44V170H574.933V151.82C574.933 149.58 574.353 147.84 573.193 146.6C572.033 145.36 570.473 144.74 568.513 144.74C566.553 144.74 564.993 145.36 563.833 146.6C562.673 147.84 562.093 149.58 562.093 151.82V170H551.833V136.52H562.093V140.96C563.133 139.48 564.533 138.32 566.293 137.48C568.053 136.6 570.033 136.16 572.233 136.16ZM604.983 136.04C607.343 136.04 609.403 136.52 611.163 137.48C612.963 138.44 614.343 139.7 615.303 141.26V136.52H625.563V169.94C625.563 173.02 624.943 175.8 623.703 178.28C622.503 180.8 620.643 182.8 618.123 184.28C615.643 185.76 612.543 186.5 608.823 186.5C603.863 186.5 599.843 185.32 596.763 182.96C593.683 180.64 591.923 177.48 591.483 173.48H601.623C601.943 174.76 602.703 175.76 603.903 176.48C605.103 177.24 606.583 177.62 608.343 177.62C610.463 177.62 612.143 177 613.383 175.76C614.663 174.56 615.303 172.62 615.303 169.94V165.2C614.303 166.76 612.923 168.04 611.163 169.04C609.403 170 607.343 170.48 604.983 170.48C602.223 170.48 599.723 169.78 597.483 168.38C595.243 166.94 593.463 164.92 592.143 162.32C590.863 159.68 590.223 156.64 590.223 153.2C590.223 149.76 590.863 146.74 592.143 144.14C593.463 141.54 595.243 139.54 597.483 138.14C599.723 136.74 602.223 136.04 604.983 136.04ZM615.303 153.26C615.303 150.7 614.583 148.68 613.143 147.2C611.743 145.72 610.023 144.98 607.983 144.98C605.943 144.98 604.203 145.72 602.763 147.2C601.363 148.64 600.663 150.64 600.663 153.2C600.663 155.76 601.363 157.8 602.763 159.32C604.203 160.8 605.943 161.54 607.983 161.54C610.023 161.54 611.743 160.8 613.143 159.32C614.583 157.84 615.303 155.82 615.303 153.26ZM638.146 133.04C636.346 133.04 634.866 132.52 633.706 131.48C632.586 130.4 632.026 129.08 632.026 127.52C632.026 125.92 632.586 124.6 633.706 123.56C634.866 122.48 636.346 121.94 638.146 121.94C639.906 121.94 641.346 122.48 642.466 123.56C643.626 124.6 644.206 125.92 644.206 127.52C644.206 129.08 643.626 130.4 642.466 131.48C641.346 132.52 639.906 133.04 638.146 133.04ZM643.246 136.52V170H632.986V136.52H643.246ZM671.081 136.16C675.001 136.16 678.121 137.44 680.441 140C682.801 142.52 683.981 146 683.981 150.44V170H673.781V151.82C673.781 149.58 673.201 147.84 672.041 146.6C670.881 145.36 669.321 144.74 667.361 144.74C665.401 144.74 663.841 145.36 662.681 146.6C661.521 147.84 660.941 149.58 660.941 151.82V170H650.681V136.52H660.941V140.96C661.981 139.48 663.381 138.32 665.141 137.48C666.901 136.6 668.881 136.16 671.081 136.16ZM722.671 152.72C722.671 153.68 722.611 154.68 722.491 155.72H699.271C699.431 157.8 700.091 159.4 701.251 160.52C702.451 161.6 703.911 162.14 705.631 162.14C708.191 162.14 709.971 161.06 710.971 158.9H721.891C721.331 161.1 720.311 163.08 718.831 164.84C717.391 166.6 715.571 167.98 713.371 168.98C711.171 169.98 708.711 170.48 705.991 170.48C702.711 170.48 699.791 169.78 697.231 168.38C694.671 166.98 692.671 164.98 691.231 162.38C689.791 159.78 689.071 156.74 689.071 153.26C689.071 149.78 689.771 146.74 691.171 144.14C692.611 141.54 694.611 139.54 697.171 138.14C699.731 136.74 702.671 136.04 705.991 136.04C709.231 136.04 712.111 136.72 714.631 138.08C717.151 139.44 719.111 141.38 720.511 143.9C721.951 146.42 722.671 149.36 722.671 152.72ZM712.171 150.02C712.171 148.26 711.571 146.86 710.371 145.82C709.171 144.78 707.671 144.26 705.871 144.26C704.151 144.26 702.691 144.76 701.491 145.76C700.331 146.76 699.611 148.18 699.331 150.02H712.171ZM759.643 152.72C759.643 153.68 759.583 154.68 759.463 155.72H736.243C736.403 157.8 737.063 159.4 738.223 160.52C739.423 161.6 740.883 162.14 742.603 162.14C745.163 162.14 746.943 161.06 747.943 158.9H758.863C758.303 161.1 757.283 163.08 755.803 164.84C754.363 166.6 752.543 167.98 750.343 168.98C748.143 169.98 745.683 170.48 742.963 170.48C739.683 170.48 736.763 169.78 734.203 168.38C731.643 166.98 729.643 164.98 728.203 162.38C726.763 159.78 726.043 156.74 726.043 153.26C726.043 149.78 726.743 146.74 728.143 144.14C729.583 141.54 731.583 139.54 734.143 138.14C736.703 136.74 739.643 136.04 742.963 136.04C746.203 136.04 749.083 136.72 751.603 138.08C754.123 139.44 756.083 141.38 757.483 143.9C758.923 146.42 759.643 149.36 759.643 152.72ZM749.143 150.02C749.143 148.26 748.543 146.86 747.343 145.82C746.143 144.78 744.643 144.26 742.843 144.26C741.123 144.26 739.663 144.76 738.463 145.76C737.303 146.76 736.583 148.18 736.303 150.02H749.143ZM775.316 142.1C776.516 140.26 778.016 138.82 779.816 137.78C781.616 136.7 783.616 136.16 785.816 136.16V147.02H782.996C780.436 147.02 778.516 147.58 777.236 148.7C775.956 149.78 775.316 151.7 775.316 154.46V170H765.056V136.52H775.316V142.1Z" fill="#FFD9EE"/>
<path d="M941.217 27H943.783V42.4H941.217V27Z" fill="#FFD9EE"/>
<path d="M914.368 39.1858L916.183 37.3711L927.072 48.2606L925.258 50.0754L914.368 39.1858Z" fill="#FFD9EE"/>
<path d="M904 64.2148H919.4V66.7815H904V64.2148Z" fill="#FFD9EE"/>
<path d="M914.369 91.8153L925.258 80.9258L927.073 82.7411L916.184 93.63L914.369 91.8153Z" fill="#FFD9EE"/>
<path d="M941.217 88.6016H943.783V104.002H941.217V88.6016Z" fill="#FFD9EE"/>
<path d="M957.927 82.7405L959.742 80.9258L970.631 91.8153L968.817 93.63L957.927 82.7405Z" fill="#FFD9EE"/>
<path d="M965.6 64.2148H981V66.7815H965.6V64.2148Z" fill="#FFD9EE"/>
<path d="M957.928 48.26L968.817 37.3711L970.632 39.1858L959.743 50.0754L957.928 48.26Z" fill="#FFD9EE"/>
<path d="M960.919 74.5169L966.908 76.9977L967.89 74.6259L961.907 72.1483C963.409 67.8427 963.409 63.1555 961.907 58.8499L967.89 56.3723L966.908 54.0005L960.919 56.4813C958.908 52.3957 955.604 49.0908 951.518 47.0806L953.999 41.0913L951.627 40.1094L949.149 46.0924C944.844 44.5904 940.156 44.5904 935.851 46.0924L933.373 40.1094L931.001 41.0913L933.482 47.0806C929.397 49.0908 926.092 52.3957 924.082 56.4813L918.092 54.0005L917.11 56.3723L923.093 58.8499C921.591 63.1555 921.591 67.8427 923.093 72.1483L917.11 74.6259L918.092 76.9977L924.082 74.5169C926.092 78.6025 929.397 81.9074 933.482 83.9176L931.001 89.9069L933.373 90.8888L935.851 84.9058C940.156 86.4078 944.844 86.4078 949.149 84.9058L951.627 90.8888L953.999 89.9069L951.518 83.9176C955.604 81.9074 958.908 78.6025 960.919 74.5169ZM942.5 83.4658C932.577 83.4658 924.533 75.4218 924.533 65.4991C924.533 55.5764 932.577 47.5324 942.5 47.5324C952.423 47.5324 960.467 55.5764 960.467 65.4991C960.456 75.4174 952.418 83.4551 942.5 83.4658Z" fill="#FFD9EE"/>
<path d="M948.917 64.2167H945.195L946.35 51.4999C946.398 50.9284 946.061 50.3945 945.524 50.1921C944.987 49.9897 944.382 50.1676 944.04 50.6288L933.774 64.7455C933.491 65.134 933.449 65.6485 933.665 66.0771C933.881 66.5063 934.319 66.7789 934.8 66.7833H938.528L937.367 79.5001C937.318 80.0716 937.656 80.6055 938.193 80.8079C938.73 81.0103 939.335 80.8323 939.676 80.3711L949.943 66.2544C950.226 65.8659 950.268 65.3515 950.051 64.9229C949.835 64.4936 949.397 64.221 948.917 64.2167ZM940.349 75.0981L941.217 65.6165C941.25 65.2569 941.129 64.8997 940.885 64.6327C940.64 64.3664 940.295 64.2154 939.933 64.2167H937.32L943.367 55.9019L942.5 65.3834C942.467 65.7431 942.588 66.1003 942.832 66.3672C943.076 66.6336 943.422 66.7846 943.783 66.7833H946.396L940.349 75.0981Z" fill="#FFD9EE"/>
<path d="M-3.86133 -5.38475L-1.38671 -7.85938L13.4627 6.99007L10.9881 9.46469L-3.86133 -5.38475Z" fill="#FFD9EE"/>
<path d="M-18 28.75H3.00011V32.25H-18V28.75Z" fill="#FFD9EE"/>
<path d="M-3.86084 66.3846L10.9878 51.5352L13.4632 54.0106L-1.38622 68.8592L-3.86084 66.3846Z" fill="#FFD9EE"/>
<path d="M32.7505 62H36.2505V83.0001H32.7505V62Z" fill="#FFD9EE"/>
<path d="M55.5366 54.0098L58.0112 51.5352L72.8607 66.3846L70.3861 68.8592L55.5366 54.0098Z" fill="#FFD9EE"/>
<path d="M66.0005 28.75H87.0006V32.25H66.0005V28.75Z" fill="#FFD9EE"/>
<path d="M55.5386 6.98922L70.3872 -7.85938L72.8626 -5.38475L58.0132 9.46469L55.5386 6.98922Z" fill="#FFD9EE"/>
<path d="M59.6166 42.7946L67.7839 46.1775L69.1229 42.9432L60.9642 39.5646C63.0124 33.6933 63.0124 27.3017 60.9642 21.4304L69.1229 18.0518L67.7839 14.8175L59.6166 18.2004C56.8754 12.6291 52.3688 8.1225 46.7975 5.38128L50.1804 -2.786L46.9462 -4.125L43.5675 4.03373C37.6962 1.98551 31.3046 1.98551 25.4334 4.03373L22.0547 -4.125L18.8204 -2.786L22.2034 5.38128C16.632 8.1225 12.1254 12.6291 9.38421 18.2004L1.21693 14.8175L-0.12207 18.0518L8.03666 21.4304C5.98844 27.3017 5.98844 33.6933 8.03666 39.5646L-0.12207 42.9432L1.21693 46.1775L9.38421 42.7946C12.1254 48.3659 16.632 52.8725 22.2034 55.6137L18.8204 63.781L22.0547 65.12L25.4334 56.9613C31.3046 59.0095 37.6962 59.0095 43.5675 56.9613L46.9462 65.12L50.1804 63.781L46.7975 55.6137C52.3688 52.8725 56.8754 48.3659 59.6166 42.7946ZM34.5004 54.9976C20.9695 54.9976 10.0003 44.0285 10.0003 30.4975C10.0003 16.9665 20.9695 5.99737 34.5004 5.99737C48.0314 5.99737 59.0006 16.9665 59.0006 30.4975C58.986 44.0225 48.0254 54.9831 34.5004 54.9976Z" fill="#FFD9EE"/>
<path d="M43.2502 28.749H38.1753L39.7501 11.4078C39.8159 10.6285 39.3562 9.9005 38.6239 9.6245C37.8916 9.3485 37.0662 9.59118 36.6005 10.2201L22.6004 29.4702C22.215 30 22.1578 30.7015 22.4526 31.286C22.7474 31.8713 23.3447 32.243 24.0001 32.249H29.0835L27.5001 49.5902C27.4343 50.3695 27.894 51.0975 28.6263 51.3735C29.3586 51.6495 30.1841 51.4068 30.6498 50.7779L44.6498 31.5278C45.0352 30.998 45.0925 30.2965 44.7977 29.712C44.5029 29.1267 43.9056 28.755 43.2502 28.749ZM31.5675 43.5873L32.7501 30.6579C32.7954 30.1675 32.6305 29.6804 32.2972 29.3164C31.964 28.9532 31.4931 28.7473 31.0001 28.749H27.4368L35.6827 17.4107L34.5001 30.3401C34.4548 30.8305 34.6197 31.3176 34.953 31.6816C35.2863 32.0448 35.7571 32.2507 36.2501 32.249H39.8134L31.5675 43.5873Z" fill="#FFD9EE"/>
<path d="M98.5381 164.391L100.575 163.269L107.307 175.491L105.27 176.613L98.5381 164.391Z" fill="#FFD9EE"/>
<path d="M82.555 185.8L83.202 183.566L96.6051 187.448L95.9582 189.682L82.555 185.8Z" fill="#FFD9EE"/>
<path d="M85.2695 210.199L97.492 203.467L98.6141 205.504L86.3916 212.236L85.2695 210.199Z" fill="#FFD9EE"/>
<path d="M105.564 227.568L109.446 214.166L111.68 214.813L107.798 228.215L105.564 227.568Z" fill="#FFD9EE"/>
<path d="M125.466 213.281L127.503 212.159L134.236 224.382L132.199 225.504L125.466 213.281Z" fill="#FFD9EE"/>
<path d="M136.167 201.323L136.814 199.089L150.217 202.972L149.57 205.205L136.167 201.323Z" fill="#FFD9EE"/>
<path d="M134.16 183.27L146.382 176.537L147.504 178.574L135.282 185.307L134.16 183.27Z" fill="#FFD9EE"/>
<path d="M121.094 173.959L124.976 160.556L127.21 161.203L123.328 174.606L121.094 173.959Z" fill="#FFD9EE"/>
<path d="M134.947 193.489L140.785 192.84L140.527 190.528L134.696 191.177C134.006 187.103 131.957 183.383 128.882 180.623L132.548 176.041L130.732 174.588L127.062 179.175C123.681 176.811 119.613 175.633 115.492 175.823L114.843 169.985L112.531 170.243L113.18 176.075C109.106 176.765 105.386 178.814 102.626 181.888L98.0436 178.223L96.5904 180.039L101.178 183.708C98.8138 187.089 97.6356 191.157 97.8262 195.278L91.9881 195.928L92.2457 198.239L98.0773 197.59C98.7674 201.664 100.816 205.384 103.891 208.145L100.225 212.727L102.042 214.18L105.711 209.593C109.092 211.957 113.16 213.135 117.281 212.944L117.93 218.782L120.242 218.525L119.593 212.693C123.667 212.003 127.387 209.954 130.147 206.88L134.729 210.545L136.183 208.729L131.595 205.06C133.959 201.678 135.137 197.611 134.947 193.489ZM124.241 208.643C116.365 212.981 106.465 210.113 102.127 202.238C97.7892 194.363 100.657 184.462 108.532 180.124C116.408 175.786 126.308 178.654 130.646 186.53C134.973 194.406 132.108 204.299 124.241 208.643Z" fill="#FFD9EE"/>
<path d="M120.919 190.563L117.965 192.19L113.322 181.592C113.111 181.117 112.61 180.841 112.095 180.915C111.58 180.989 111.178 181.395 111.108 181.911L109.131 197.603C109.077 198.035 109.268 198.461 109.627 198.707C109.987 198.953 110.453 198.978 110.837 198.771L113.795 197.142L118.433 207.742C118.645 208.217 119.145 208.493 119.66 208.419C120.175 208.345 120.578 207.939 120.647 207.424L122.624 191.732C122.679 191.3 122.487 190.873 122.128 190.627C121.769 190.381 121.302 190.356 120.919 190.563ZM118.876 202.944L115.419 195.04C115.288 194.74 115.036 194.51 114.726 194.405C114.415 194.3 114.075 194.331 113.789 194.49L111.715 195.632L112.879 186.39L116.336 194.294C116.467 194.594 116.719 194.825 117.03 194.93C117.34 195.034 117.68 195.003 117.966 194.844L120.04 193.702L118.876 202.944Z" fill="#FFD9EE"/>
<path d="M506.227 -13.3765L507.288 -17.0391L529.266 -10.6731L528.205 -7.01047L506.227 -13.3765Z" fill="#FFD9EE"/>
<path d="M510.678 26.6328L530.72 15.5934L532.56 18.9338L512.518 29.9732L510.678 26.6328Z" fill="#FFD9EE"/>
<path d="M543.957 55.1175L550.322 33.1397L553.986 34.2009L547.62 56.1783L543.957 55.1175Z" fill="#FFD9EE"/>
<path d="M576.592 31.6914L579.932 29.8515L590.972 49.8938L587.631 51.7337L576.592 31.6914Z" fill="#FFD9EE"/>
<path d="M594.139 12.0844L595.2 8.42179L617.178 14.7878L616.117 18.4505L594.139 12.0844Z" fill="#FFD9EE"/>
<path d="M592.138 -0.764702L601.711 -1.82944L601.289 -5.62008L591.726 -4.55575C590.595 -11.2359 587.235 -17.336 582.194 -21.8628L588.204 -29.3762L585.226 -31.7591L579.209 -24.2371C573.665 -28.1132 566.994 -30.0453 560.236 -29.7327L559.171 -39.3058L555.381 -38.8835L556.445 -29.3208C549.765 -28.1892 543.665 -24.8293 539.138 -19.7881L531.625 -25.7985L529.242 -22.8204L536.764 -16.804C532.888 -11.2591 530.956 -4.58898 531.268 2.16924L521.695 3.23398L522.117 7.02461L531.68 5.96029C532.812 12.6405 536.172 18.7406 541.213 23.2673L535.202 30.7808L538.181 33.1636L544.197 25.6416C549.742 29.5178 556.412 31.4498 563.17 31.1372L564.235 40.7104L568.026 40.2881L566.961 30.7254C573.641 29.5938 579.741 26.2338 584.268 21.1926L591.782 27.2031L594.165 24.225L586.643 18.2086C590.519 12.6636 592.451 5.99351 592.138 -0.764702ZM574.582 24.0849C561.669 31.1979 545.434 26.4953 538.321 13.5815C531.208 0.667754 535.91 -15.5674 548.824 -22.6804C561.738 -29.7934 577.973 -25.0908 585.086 -12.177C592.182 0.738711 587.483 16.9612 574.582 24.0849Z" fill="#FFD9EE"/>
<path d="M569.135 -5.56199L564.291 -2.89422L556.678 -20.2723C556.332 -21.0506 555.51 -21.5038 554.666 -21.3822C553.822 -21.2607 553.162 -20.5952 553.048 -19.7501L549.806 5.98153C549.717 6.68974 550.031 7.38938 550.619 7.79222C551.208 8.19588 551.974 8.23665 552.603 7.89783L557.454 5.22557L565.059 22.6081C565.406 23.3865 566.227 23.8396 567.071 23.7181C567.915 23.5965 568.575 22.931 568.689 22.086L571.931 -3.64569C572.021 -4.3539 571.706 -5.05354 571.118 -5.45638C570.529 -5.86004 569.763 -5.90081 569.135 -5.56199ZM565.785 14.7409L560.117 1.77958C559.902 1.28767 559.489 0.909511 558.98 0.737285C558.471 0.565873 557.913 0.616838 557.443 0.877653L554.043 2.75079L555.952 -12.4051L561.62 0.556258C561.835 1.04818 562.248 1.42633 562.758 1.59856C563.267 1.76997 563.824 1.719 564.294 1.45819L567.695 -0.414951L565.785 14.7409Z" fill="#FFD9EE"/>
<path d="M948.601 252.788L945.845 250.287L955.245 241.646C955.665 241.255 955.774 240.633 955.512 240.122C955.25 239.611 954.683 239.336 954.12 239.448L937.031 243.004C936.56 243.102 936.183 243.455 936.056 243.918C935.927 244.381 936.068 244.877 936.421 245.203L939.182 247.708L929.777 256.346C929.357 256.737 929.248 257.359 929.51 257.869C929.772 258.38 930.34 258.655 930.902 258.543L947.992 254.987C948.462 254.889 948.839 254.536 948.967 254.074C949.095 253.611 948.954 253.114 948.601 252.788ZM934.944 255.09L941.958 248.651C942.224 248.407 942.374 248.061 942.373 247.699C942.371 247.338 942.216 246.994 941.948 246.752L940.013 244.996L950.078 242.901L943.065 249.341C942.798 249.585 942.648 249.93 942.65 250.292C942.652 250.654 942.806 250.998 943.074 251.24L945.01 252.996L934.944 255.09Z" fill="#FFD9EE"/>
<path d="M504.576 244.242L501.086 242.951L506.581 231.425C506.825 230.906 506.694 230.288 506.261 229.912C505.827 229.536 505.198 229.493 504.717 229.807L490.19 239.484C489.79 239.75 489.573 240.218 489.627 240.695C489.68 241.173 489.997 241.58 490.446 241.751L493.942 243.045L488.441 254.569C488.197 255.088 488.328 255.705 488.761 256.082C489.195 256.458 489.824 256.501 490.305 256.187L504.832 246.51C505.232 246.243 505.449 245.775 505.395 245.298C505.342 244.821 505.025 244.413 504.576 244.242ZM492.766 251.475L496.869 242.883C497.025 242.558 497.035 242.181 496.899 241.845C496.762 241.511 496.49 241.249 496.151 241.125L493.7 240.219L502.257 234.519L498.153 243.11C497.997 243.436 497.987 243.813 498.123 244.148C498.26 244.483 498.532 244.744 498.871 244.868L501.322 245.775L492.766 251.475Z" fill="#FFD9EE"/>
<path d="M280.218 6.57037L276.728 5.27907L282.224 -6.24694C282.467 -6.76618 282.336 -7.38387 281.903 -7.76003C281.469 -8.1362 280.84 -8.17933 280.359 -7.86528L265.832 1.81202C265.433 2.07833 265.215 2.54626 265.269 3.02326C265.323 3.50084 265.639 3.90848 266.088 4.07936L269.584 5.37284L264.083 16.8967C263.839 17.4159 263.97 18.0336 264.404 18.4098C264.837 18.7859 265.466 18.8291 265.947 18.515L280.474 8.83771C280.874 8.5714 281.092 8.10347 281.038 7.62647C280.984 7.14889 280.667 6.74126 280.218 6.57037ZM268.408 13.8031L272.511 5.21153C272.667 4.88572 272.677 4.50877 272.541 4.17361C272.404 3.83904 272.133 3.5776 271.793 3.45332L269.342 2.54665L277.899 -3.15332L273.795 5.4382C273.639 5.76402 273.629 6.14097 273.765 6.47612C273.902 6.81069 274.174 7.07213 274.513 7.19641L276.964 8.10308L268.408 13.8031Z" fill="#FFD9EE"/>
<path d="M10.6008 291.788L7.84465 289.287L17.2451 280.646C17.6648 280.255 17.7739 279.633 17.5122 279.122C17.2505 278.611 16.6826 278.336 16.1198 278.448L-0.969439 282.004C-1.4398 282.102 -1.81659 282.455 -1.94449 282.918C-2.07281 283.381 -1.93159 283.877 -1.57859 284.203L1.18219 286.708L-8.22286 295.346C-8.64261 295.737 -8.75168 296.359 -8.48998 296.869C-8.22827 297.38 -7.66039 297.655 -7.09756 297.543L9.99164 293.987C10.462 293.889 10.8388 293.536 10.9667 293.074C11.095 292.611 10.9538 292.114 10.6008 291.788ZM-3.05587 294.09L3.95757 287.651C4.22386 287.407 4.3743 287.061 4.37268 286.699C4.37065 286.338 4.21642 285.994 3.9478 285.752L2.01261 283.996L12.0781 281.901L5.06463 288.341C4.79834 288.585 4.6479 288.93 4.64952 289.292C4.65155 289.654 4.80578 289.998 5.0744 290.24L7.00959 291.996L-3.05587 294.09Z" fill="#FFD9EE"/>
<g clip-path="url(#clip1)">
<path d="M189.402 76H191.598C193.375 76 194.82 74.5546 194.82 72.778V72.0349C195.576 71.7936 196.31 71.489 197.015 71.1241L197.541 71.6508C198.817 72.9279 200.86 72.8904 202.098 71.6503L203.651 70.0979C204.891 68.8586 204.927 66.8161 203.65 65.5407L203.124 65.0144C203.489 64.3095 203.794 63.5758 204.035 62.8203H204.778C206.555 62.8203 208 61.3749 208 59.5983V57.4017C208 55.6251 206.555 54.1797 204.778 54.1797H204.035C203.794 53.4243 203.489 52.6905 203.124 51.9856L203.651 51.459C204.927 50.1844 204.892 48.1416 203.65 46.9018L202.098 45.3492C200.856 44.1062 198.814 44.0751 197.541 45.3496L197.014 45.8758C196.309 45.511 195.576 45.2064 194.82 44.965V44.222C194.82 42.4454 193.375 41 191.598 41H189.402C187.625 41 186.18 42.4454 186.18 44.222V44.9651C185.424 45.2064 184.691 45.511 183.986 45.8759L183.459 45.3492C182.183 44.0721 180.14 44.1096 178.902 45.3497L177.349 46.9021C176.109 48.1414 176.073 50.1839 177.35 51.4593L177.876 51.9856C177.511 52.6905 177.206 53.4242 176.965 54.1797H176.222C174.445 54.1797 173 55.6251 173 57.4017V59.5983C173 61.3749 174.445 62.8203 176.222 62.8203H176.965C177.206 63.5757 177.511 64.3095 177.876 65.0144L177.349 65.5411C176.073 66.8157 176.108 68.8584 177.35 70.0983L178.902 71.6508C180.144 72.8939 182.186 72.9249 183.459 71.6504L183.986 71.1243C184.691 71.489 185.424 71.7936 186.18 72.035V72.7782C186.18 74.5546 187.625 76 189.402 76ZM196.672 68.9706C195.692 69.5498 194.638 69.9874 193.539 70.2711C193.086 70.388 192.77 70.7963 192.77 71.264V72.778C192.77 73.4238 192.244 73.9492 191.598 73.9492H189.402C188.756 73.9492 188.23 73.4238 188.23 72.778V71.264C188.23 70.7963 187.914 70.388 187.461 70.2711C186.362 69.9874 185.308 69.5498 184.328 68.9706C183.925 68.7323 183.412 68.7971 183.081 69.1282L182.009 70.2007C181.546 70.6636 180.804 70.6529 180.353 70.2011L178.799 68.6476C178.349 68.1982 178.334 67.4556 178.799 66.9916L179.872 65.9187C180.203 65.5877 180.267 65.0746 180.029 64.6717C179.45 63.6924 179.013 62.6383 178.729 61.5387C178.612 61.0859 178.204 60.7696 177.736 60.7696H176.222C175.576 60.7696 175.051 60.2442 175.051 59.5984V57.4017C175.051 56.7559 175.576 56.2305 176.222 56.2305H177.736C178.204 56.2305 178.612 55.9142 178.729 55.4614C179.013 54.3619 179.45 53.3078 180.029 52.3284C180.267 51.9255 180.203 51.4124 179.872 51.0814L178.799 50.0089C178.336 49.5459 178.348 48.8035 178.799 48.3529L180.352 46.7995C180.803 46.3486 181.545 46.3354 182.008 46.7991L183.081 47.872C183.412 48.203 183.925 48.2678 184.328 48.0295C185.308 47.4503 186.362 47.0128 187.461 46.729C187.914 46.6122 188.23 46.2038 188.23 45.7361V44.222C188.23 43.5762 188.756 43.0508 189.402 43.0508H191.598C192.244 43.0508 192.769 43.5762 192.769 44.222V45.736C192.769 46.2037 193.086 46.612 193.539 46.7289C194.638 47.0126 195.692 47.4502 196.672 48.0294C197.075 48.2676 197.588 48.2028 197.919 47.8718L198.991 46.7993C199.454 46.3364 200.196 46.3471 200.647 46.7989L202.201 48.3524C202.651 48.8018 202.666 49.5444 202.201 50.0084L201.128 51.0813C200.797 51.4123 200.732 51.9254 200.971 52.3283C201.55 53.3076 201.987 54.3617 202.271 55.4613C202.388 55.9141 202.796 56.2304 203.264 56.2304H204.778C205.424 56.2305 205.949 56.7559 205.949 57.4017V59.5983C205.949 60.2441 205.424 60.7695 204.778 60.7695H203.264C202.796 60.7695 202.388 61.0859 202.271 61.5386C201.987 62.6382 201.55 63.6923 200.971 64.6716C200.732 65.0745 200.797 65.5876 201.128 65.9186L202.201 66.9911C202.664 67.4542 202.652 68.1966 202.201 68.6471L200.648 70.2006C200.197 70.6515 199.455 70.6647 198.992 70.201L197.919 69.1281C197.675 68.8843 197.168 68.6773 196.672 68.9706Z" fill="#FFD9EE"/>
<path d="M190.5 66.1172C194.699 66.1172 198.115 62.701 198.115 58.502C198.115 54.3029 194.699 50.8867 190.5 50.8867C186.301 50.8867 182.885 54.3029 182.885 58.502C182.885 62.701 186.301 66.1172 190.5 66.1172ZM190.5 52.9375C193.568 52.9375 196.064 55.4337 196.064 58.502C196.064 61.5702 193.568 64.0664 190.5 64.0664C187.432 64.0664 184.936 61.5702 184.936 58.502C184.936 55.4337 187.432 52.9375 190.5 52.9375Z" fill="#FFD9EE"/>
</g>
<g clip-path="url(#clip2)">
<path d="M711.716 260H713.285C714.554 260 715.586 258.968 715.586 257.699V257.168C716.125 256.995 716.65 256.778 717.153 256.517L717.529 256.893C718.44 257.806 719.9 257.779 720.785 256.893L721.893 255.784C722.78 254.899 722.805 253.44 721.893 252.529L721.517 252.153C721.778 251.65 721.995 251.126 722.168 250.586H722.699C723.968 250.586 725 249.554 725 248.285V246.715C725 245.446 723.968 244.414 722.699 244.414H722.168C721.995 243.875 721.778 243.35 721.517 242.847L721.893 242.471C722.805 241.56 722.78 240.101 721.893 239.216L720.784 238.107C719.897 237.219 718.438 237.197 717.529 238.107L717.153 238.483C716.65 238.222 716.125 238.005 715.586 237.832V237.301C715.586 236.032 714.554 235 713.284 235H711.715C710.446 235 709.414 236.032 709.414 237.301V237.832C708.875 238.005 708.35 238.222 707.847 238.483L707.471 238.107C706.56 237.194 705.1 237.221 704.216 238.107L703.107 239.216C702.22 240.101 702.195 241.56 703.107 242.471L703.483 242.847C703.222 243.35 703.005 243.874 702.832 244.414H702.301C701.032 244.414 700 245.446 700 246.715V248.285C700 249.554 701.032 250.586 702.301 250.586H702.832C703.005 251.125 703.222 251.65 703.483 252.153L703.107 252.529C702.195 253.44 702.22 254.899 703.107 255.784L704.216 256.893C705.103 257.781 706.562 257.804 707.471 256.893L707.847 256.517C708.35 256.778 708.875 256.995 709.414 257.168V257.699C709.414 258.968 710.446 260 711.716 260ZM716.908 254.979C716.209 255.393 715.456 255.705 714.671 255.908C714.347 255.991 714.121 256.283 714.121 256.617V257.699C714.121 258.16 713.746 258.535 713.284 258.535H711.715C711.254 258.535 710.879 258.16 710.879 257.699V256.617C710.879 256.283 710.653 255.991 710.329 255.908C709.544 255.705 708.791 255.393 708.092 254.979C707.804 254.809 707.437 254.855 707.201 255.092L706.435 255.858C706.105 256.188 705.574 256.181 705.252 255.858L704.142 254.748C703.821 254.427 703.81 253.897 704.142 253.565L704.908 252.799C705.145 252.563 705.191 252.196 705.021 251.908C704.607 251.209 704.295 250.456 704.092 249.671C704.008 249.347 703.717 249.121 703.383 249.121H702.301C701.84 249.121 701.465 248.746 701.465 248.285V246.716C701.465 246.254 701.84 245.879 702.301 245.879H703.383C703.717 245.879 704.008 245.653 704.092 245.33C704.295 244.544 704.607 243.791 705.021 243.092C705.191 242.804 705.145 242.437 704.908 242.201L704.142 241.435C703.811 241.104 703.82 240.574 704.142 240.252L705.252 239.142C705.573 238.82 706.104 238.811 706.434 239.142L707.201 239.909C707.437 240.145 707.804 240.191 708.092 240.021C708.791 239.607 709.544 239.295 710.329 239.092C710.653 239.009 710.879 238.717 710.879 238.383V237.301C710.879 236.84 711.254 236.465 711.715 236.465H713.284C713.746 236.465 714.121 236.84 714.121 237.301V238.383C714.121 238.717 714.347 239.009 714.67 239.092C715.456 239.295 716.209 239.607 716.908 240.021C717.196 240.191 717.563 240.145 717.799 239.908L718.565 239.142C718.895 238.812 719.426 238.819 719.748 239.142L720.858 240.252C721.179 240.573 721.19 241.103 720.858 241.435L720.092 242.201C719.855 242.437 719.809 242.804 719.979 243.092C720.393 243.791 720.705 244.544 720.908 245.329C720.991 245.653 721.283 245.879 721.617 245.879H722.699C723.16 245.879 723.535 246.254 723.535 246.715V248.285C723.535 248.746 723.16 249.121 722.699 249.121H721.617C721.283 249.121 720.991 249.347 720.908 249.67C720.705 250.456 720.393 251.209 719.979 251.908C719.809 252.196 719.855 252.563 720.092 252.799L720.858 253.565C721.189 253.896 721.18 254.426 720.858 254.748L719.748 255.858C719.427 256.18 718.896 256.189 718.565 255.858L717.799 255.092C717.625 254.917 717.263 254.77 716.908 254.979Z" fill="#FFD9EE"/>
<path d="M712.5 252.941C715.499 252.941 717.939 250.501 717.939 247.502C717.939 244.503 715.499 242.062 712.5 242.062C709.5 242.062 707.06 244.503 707.06 247.502C707.06 250.501 709.5 252.941 712.5 252.941ZM712.5 243.527C714.691 243.527 716.474 245.31 716.474 247.502C716.474 249.694 714.691 251.477 712.5 251.477C710.308 251.477 708.525 249.694 708.525 247.502C708.525 245.31 710.308 243.527 712.5 243.527Z" fill="#FFD9EE"/>
</g>
<g clip-path="url(#clip3)">
<path d="M739.716 62H741.285C742.554 62 743.586 60.9676 743.586 59.6986V59.1678C744.125 58.9954 744.65 58.7778 745.153 58.5172L745.529 58.8934C746.44 59.8056 747.9 59.7789 748.785 58.8931L749.893 57.7842C750.78 56.899 750.805 55.44 749.893 54.5291L749.517 54.1532C749.778 53.6496 749.995 53.1255 750.168 52.5859H750.699C751.968 52.5859 753 51.5535 753 50.2845V48.7155C753 47.4465 751.968 46.4141 750.699 46.4141H750.168C749.995 45.8745 749.778 45.3504 749.517 44.8468L749.893 44.4707C750.805 43.5603 750.78 42.1012 749.893 41.2156L748.784 40.1066C747.897 39.2187 746.438 39.1965 745.529 40.1069L745.153 40.4827C744.65 40.2222 744.125 40.0046 743.586 39.8322V39.3014C743.586 38.0324 742.554 37 741.284 37H739.715C738.446 37 737.414 38.0324 737.414 39.3014V39.8322C736.875 40.0046 736.35 40.2222 735.847 40.4828L735.471 40.1066C734.56 39.1944 733.1 39.2211 732.216 40.1069L731.107 41.2158C730.22 42.101 730.195 43.56 731.107 44.4709L731.483 44.8468C731.222 45.3504 731.005 45.8745 730.832 46.4141H730.301C729.032 46.4141 728 47.4465 728 48.7155V50.2845C728 51.5535 729.032 52.5859 730.301 52.5859H730.832C731.005 53.1255 731.222 53.6496 731.483 54.1532L731.107 54.5293C730.195 55.4398 730.22 56.8989 731.107 57.7845L732.216 58.8935C733.103 59.7813 734.562 59.8035 735.471 58.8932L735.847 58.5173C736.35 58.7779 736.875 58.9955 737.414 59.1679V59.6987C737.414 60.9676 738.446 62 739.716 62ZM744.908 56.979C744.209 57.3927 743.456 57.7053 742.671 57.908C742.347 57.9914 742.121 58.2831 742.121 58.6171V59.6986C742.121 60.1599 741.746 60.5352 741.284 60.5352H739.715C739.254 60.5352 738.879 60.1599 738.879 59.6986V58.6171C738.879 58.2831 738.653 57.9914 738.329 57.908C737.544 57.7053 736.791 57.3927 736.092 56.979C735.804 56.8088 735.437 56.8551 735.201 57.0916L734.435 57.8576C734.105 58.1883 733.574 58.1806 733.252 57.858L732.142 56.7483C731.821 56.4273 731.81 55.8968 732.142 55.5654L732.908 54.7991C733.145 54.5626 733.191 54.1961 733.021 53.9083C732.607 53.2088 732.295 52.4559 732.092 51.6705C732.008 51.3471 731.717 51.1211 731.383 51.1211H730.301C729.84 51.1211 729.465 50.7458 729.465 50.2846V48.7155C729.465 48.2542 729.84 47.879 730.301 47.879H731.383C731.717 47.879 732.008 47.653 732.092 47.3296C732.295 46.5442 732.607 45.7913 733.021 45.0917C733.191 44.804 733.145 44.4375 732.908 44.201L732.142 43.435C731.811 43.1042 731.82 42.5739 732.142 42.2521L733.252 41.1425C733.573 40.8204 734.104 40.811 734.434 41.1422L735.201 41.9085C735.437 42.145 735.804 42.1913 736.092 42.0211C736.791 41.6074 737.544 41.2948 738.329 41.0921C738.653 41.0087 738.879 40.717 738.879 40.383V39.3014C738.879 38.8401 739.254 38.4648 739.715 38.4648H741.284C741.746 38.4648 742.121 38.8401 742.121 39.3014V40.3829C742.121 40.7169 742.347 41.0086 742.67 41.092C743.456 41.2947 744.209 41.6073 744.908 42.021C745.196 42.1912 745.563 42.1449 745.799 41.9084L746.565 41.1424C746.895 40.8117 747.426 40.8194 747.748 41.142L748.858 42.2517C749.179 42.5727 749.19 43.1031 748.858 43.4346L748.092 44.2009C747.855 44.4374 747.809 44.8039 747.979 45.0917C748.393 45.7912 748.705 46.5441 748.908 47.3295C748.991 47.6529 749.283 47.8789 749.617 47.8789H750.699C751.16 47.8789 751.535 48.2542 751.535 48.7155V50.2845C751.535 50.7458 751.16 51.1211 750.699 51.1211H749.617C749.283 51.1211 748.991 51.3471 748.908 51.6705C748.705 52.4559 748.393 53.2088 747.979 53.9083C747.809 54.1961 747.855 54.5626 748.092 54.799L748.858 55.5651C749.189 55.8959 749.18 56.4261 748.858 56.7479L747.748 57.8576C747.427 58.1796 746.896 58.1891 746.565 57.8579L745.799 57.0915C745.625 56.9173 745.263 56.7695 744.908 56.979Z" fill="#FFD9EE"/>
<path d="M740.5 54.9414C743.499 54.9414 745.939 52.5013 745.939 49.502C745.939 46.5026 743.499 44.0625 740.5 44.0625C737.5 44.0625 735.06 46.5026 735.06 49.502C735.06 52.5013 737.5 54.9414 740.5 54.9414ZM740.5 45.5273C742.691 45.5273 744.474 47.3104 744.474 49.502C744.474 51.6936 742.691 53.4766 740.5 53.4766C738.308 53.4766 736.525 51.6936 736.525 49.502C736.525 47.3104 738.308 45.5273 740.5 45.5273Z" fill="#FFD9EE"/>
</g>
</g>
<defs>
<clipPath id="clip0">
<rect width="1004" height="294" rx="20" fill="white"/>
</clipPath>
<clipPath id="clip1">
<rect width="35" height="35" transform="matrix(-1 0 0 1 208 41)" fill="white"/>
</clipPath>
<clipPath id="clip2">
<rect width="25" height="25" transform="matrix(-1 0 0 1 725 235)" fill="white"/>
</clipPath>
<clipPath id="clip3">
<rect width="25" height="25" transform="matrix(-1 0 0 1 753 37)" fill="white"/>
</clipPath>
</defs>
</svg>
