<svg width="1004" height="294" viewBox="0 0 1004 294" fill="none" xmlns="http://www.w3.org/2000/svg">
<g clip-path="url(#clip0)">
<rect width="1004" height="294" rx="20" fill="white"/>
<rect width="1004" height="294" rx="20" fill="#2E279D"/>
<path d="M347.669 136.1V144.62H361.409V152.54H347.669V161.78H363.209V170H337.409V127.88H363.209V136.1H347.669ZM367.83 153.26C367.83 149.78 368.53 146.74 369.93 144.14C371.37 141.54 373.35 139.54 375.87 138.14C378.43 136.74 381.35 136.04 384.63 136.04C388.83 136.04 392.33 137.14 395.13 139.34C397.97 141.54 399.83 144.64 400.71 148.64H389.79C388.87 146.08 387.09 144.8 384.45 144.8C382.57 144.8 381.07 145.54 379.95 147.02C378.83 148.46 378.27 150.54 378.27 153.26C378.27 155.98 378.83 158.08 379.95 159.56C381.07 161 382.57 161.72 384.45 161.72C387.09 161.72 388.87 160.44 389.79 157.88H400.71C399.83 161.8 397.97 164.88 395.13 167.12C392.29 169.36 388.79 170.48 384.63 170.48C381.35 170.48 378.43 169.78 375.87 168.38C373.35 166.98 371.37 164.98 369.93 162.38C368.53 159.78 367.83 156.74 367.83 153.26ZM421.439 170.48C418.159 170.48 415.199 169.78 412.559 168.38C409.959 166.98 407.899 164.98 406.379 162.38C404.899 159.78 404.159 156.74 404.159 153.26C404.159 149.82 404.919 146.8 406.439 144.2C407.959 141.56 410.039 139.54 412.679 138.14C415.319 136.74 418.279 136.04 421.559 136.04C424.839 136.04 427.799 136.74 430.439 138.14C433.079 139.54 435.159 141.56 436.679 144.2C438.199 146.8 438.959 149.82 438.959 153.26C438.959 156.7 438.179 159.74 436.619 162.38C435.099 164.98 432.999 166.98 430.319 168.38C427.679 169.78 424.719 170.48 421.439 170.48ZM421.439 161.6C423.399 161.6 425.059 160.88 426.419 159.44C427.819 158 428.519 155.94 428.519 153.26C428.519 150.58 427.839 148.52 426.479 147.08C425.159 145.64 423.519 144.92 421.559 144.92C419.559 144.92 417.899 145.64 416.579 147.08C415.259 148.48 414.599 150.54 414.599 153.26C414.599 155.94 415.239 158 416.519 159.44C417.839 160.88 419.479 161.6 421.439 161.6ZM464.802 136.16C468.722 136.16 471.842 137.44 474.162 140C476.522 142.52 477.702 146 477.702 150.44V170H467.502V151.82C467.502 149.58 466.922 147.84 465.762 146.6C464.602 145.36 463.042 144.74 461.082 144.74C459.122 144.74 457.562 145.36 456.402 146.6C455.242 147.84 454.662 149.58 454.662 151.82V170H444.402V136.52H454.662V140.96C455.702 139.48 457.102 138.32 458.862 137.48C460.622 136.6 462.602 136.16 464.802 136.16ZM500.071 170.48C496.791 170.48 493.831 169.78 491.191 168.38C488.591 166.98 486.531 164.98 485.011 162.38C483.531 159.78 482.791 156.74 482.791 153.26C482.791 149.82 483.551 146.8 485.071 144.2C486.591 141.56 488.671 139.54 491.311 138.14C493.951 136.74 496.911 136.04 500.191 136.04C503.471 136.04 506.431 136.74 509.071 138.14C511.711 139.54 513.791 141.56 515.311 144.2C516.831 146.8 517.591 149.82 517.591 153.26C517.591 156.7 516.811 159.74 515.251 162.38C513.731 164.98 511.631 166.98 508.951 168.38C506.311 169.78 503.351 170.48 500.071 170.48ZM500.071 161.6C502.031 161.6 503.691 160.88 505.051 159.44C506.451 158 507.151 155.94 507.151 153.26C507.151 150.58 506.471 148.52 505.111 147.08C503.791 145.64 502.151 144.92 500.191 144.92C498.191 144.92 496.531 145.64 495.211 147.08C493.891 148.48 493.231 150.54 493.231 153.26C493.231 155.94 493.871 158 495.151 159.44C496.471 160.88 498.111 161.6 500.071 161.6ZM565.754 136.16C569.914 136.16 573.214 137.42 575.654 139.94C578.134 142.46 579.374 145.96 579.374 150.44V170H569.174V151.82C569.174 149.66 568.594 148 567.434 146.84C566.314 145.64 564.754 145.04 562.754 145.04C560.754 145.04 559.174 145.64 558.014 146.84C556.894 148 556.334 149.66 556.334 151.82V170H546.134V151.82C546.134 149.66 545.554 148 544.394 146.84C543.274 145.64 541.714 145.04 539.714 145.04C537.714 145.04 536.134 145.64 534.974 146.84C533.854 148 533.294 149.66 533.294 151.82V170H523.034V136.52H533.294V140.72C534.334 139.32 535.694 138.22 537.374 137.42C539.054 136.58 540.954 136.16 543.074 136.16C545.594 136.16 547.834 136.7 549.794 137.78C551.794 138.86 553.354 140.4 554.474 142.4C555.634 140.56 557.214 139.06 559.214 137.9C561.214 136.74 563.394 136.16 565.754 136.16ZM591.71 133.04C589.91 133.04 588.43 132.52 587.27 131.48C586.15 130.4 585.59 129.08 585.59 127.52C585.59 125.92 586.15 124.6 587.27 123.56C588.43 122.48 589.91 121.94 591.71 121.94C593.47 121.94 594.91 122.48 596.03 123.56C597.19 124.6 597.77 125.92 597.77 127.52C597.77 129.08 597.19 130.4 596.03 131.48C594.91 132.52 593.47 133.04 591.71 133.04ZM596.81 136.52V170H586.55V136.52H596.81ZM602.205 153.26C602.205 149.78 602.905 146.74 604.305 144.14C605.745 141.54 607.725 139.54 610.245 138.14C612.805 136.74 615.725 136.04 619.005 136.04C623.205 136.04 626.705 137.14 629.505 139.34C632.345 141.54 634.205 144.64 635.085 148.64H624.165C623.245 146.08 621.465 144.8 618.825 144.8C616.945 144.8 615.445 145.54 614.325 147.02C613.205 148.46 612.645 150.54 612.645 153.26C612.645 155.98 613.205 158.08 614.325 159.56C615.445 161 616.945 161.72 618.825 161.72C621.465 161.72 623.245 160.44 624.165 157.88H635.085C634.205 161.8 632.345 164.88 629.505 167.12C626.665 169.36 623.165 170.48 619.005 170.48C615.725 170.48 612.805 169.78 610.245 168.38C607.725 166.98 605.745 164.98 604.305 162.38C602.905 159.78 602.205 156.74 602.205 153.26ZM654.194 170.48C651.274 170.48 648.674 169.98 646.394 168.98C644.114 167.98 642.314 166.62 640.994 164.9C639.674 163.14 638.934 161.18 638.774 159.02H648.914C649.034 160.18 649.574 161.12 650.534 161.84C651.494 162.56 652.674 162.92 654.074 162.92C655.354 162.92 656.334 162.68 657.014 162.2C657.734 161.68 658.094 161.02 658.094 160.22C658.094 159.26 657.594 158.56 656.594 158.12C655.594 157.64 653.974 157.12 651.734 156.56C649.334 156 647.334 155.42 645.734 154.82C644.134 154.18 642.754 153.2 641.594 151.88C640.434 150.52 639.854 148.7 639.854 146.42C639.854 144.5 640.374 142.76 641.414 141.2C642.494 139.6 644.054 138.34 646.094 137.42C648.174 136.5 650.634 136.04 653.474 136.04C657.674 136.04 660.974 137.08 663.374 139.16C665.814 141.24 667.214 144 667.574 147.44H658.094C657.934 146.28 657.414 145.36 656.534 144.68C655.694 144 654.574 143.66 653.174 143.66C651.974 143.66 651.054 143.9 650.414 144.38C649.774 144.82 649.454 145.44 649.454 146.24C649.454 147.2 649.954 147.92 650.954 148.4C651.994 148.88 653.594 149.36 655.754 149.84C658.234 150.48 660.254 151.12 661.814 151.76C663.374 152.36 664.734 153.36 665.894 154.76C667.094 156.12 667.714 157.96 667.754 160.28C667.754 162.24 667.194 164 666.074 165.56C664.994 167.08 663.414 168.28 661.334 169.16C659.294 170.04 656.914 170.48 654.194 170.48Z" fill="#FFD9EE"/>
<path d="M936.488 146.559C935.39 144.739 932.97 143.976 929.227 144.306C926.204 144.58 922.644 145.522 918.993 147.056L911.889 131.257C911.743 130.932 911.513 130.661 911.219 130.491C910.021 128.964 907.668 128.35 904.21 128.658C900.856 128.956 896.819 130.112 892.835 131.904C888.863 133.69 885.357 135.925 882.973 138.207C881.012 140.086 878.907 142.884 880.098 145.534C880.172 145.697 880.258 145.854 880.357 146.005L883.534 152.693C874.334 154.605 869.092 164.563 871.82 174.906C872.126 176.068 872.535 177.219 873.034 178.33C877.428 188.102 887.928 192.94 896.438 189.114C899.984 187.519 902.781 184.571 904.389 180.768C907.106 180.33 910.103 179.41 913.12 178.088C915.622 181.894 924.204 180.296 931.425 177.049C935.396 175.264 938.883 173.02 941.286 170.711C943.26 168.826 945.346 166.019 944.154 163.369L936.838 147.096C936.751 146.904 936.632 146.708 936.488 146.559ZM885.019 140.687C887.21 138.598 890.459 136.514 894.172 134.845C897.86 133.187 901.704 132.081 904.747 131.817C907.984 131.536 909.043 132.27 909.136 132.478C909.23 132.685 909.083 133.979 906.705 136.205C904.493 138.285 901.122 140.442 897.435 142.1C893.876 143.7 890.285 144.745 887.332 145.04C884.147 145.369 882.914 144.695 882.703 144.398C882.69 144.369 882.683 144.354 882.671 144.36C882.59 144.147 882.731 142.873 885.019 140.687ZM910.968 136.104L912.673 139.894C912.65 140.154 912.699 140.435 912.825 140.68C912.911 140.873 912.765 142.167 910.393 144.408C908.182 146.488 904.798 148.651 901.11 150.309C897.925 151.741 894.632 152.759 891.83 153.147C891.784 153.149 891.759 153.161 891.713 153.163C889.989 152.604 888.242 152.339 886.499 152.357L884.531 148.222C885.654 148.34 886.769 148.338 887.869 148.199C891.087 147.874 894.936 146.748 898.74 145.038C902.724 143.246 906.269 140.994 908.705 138.688C909.558 137.931 910.312 137.058 910.968 136.104ZM902.028 178.412C899.25 186.265 890.914 189.48 883.433 185.598C875.952 181.717 872.125 172.206 874.91 164.368C876.171 160.828 878.633 158.065 881.831 156.628C883.121 156.048 884.51 155.69 885.941 155.563C891.128 155.171 896.404 157.907 899.735 162.729C900.342 163.631 900.885 164.597 901.331 165.589C903.208 169.765 903.458 174.423 902.028 178.412ZM905.449 177.265C905.835 175.33 905.934 173.31 905.735 171.281C906.877 170.892 908.071 170.444 909.264 169.925L909.384 170.192L911.705 175.182C909.693 176.051 907.601 176.743 905.449 177.265ZM903.034 162.723C903.821 162.44 904.621 162.116 905.427 161.771C905.44 161.801 905.473 161.84 905.487 161.869L907.874 166.972C906.952 167.369 906.042 167.725 905.145 168.039C904.826 166.812 904.403 165.596 903.884 164.441C903.637 163.858 903.352 163.292 903.034 162.723ZM904.927 158.454C904.889 158.471 904.85 158.489 904.811 158.506C903.574 159.063 902.348 159.542 901.199 159.952C899.817 158.188 898.204 156.671 896.414 155.482C898.475 154.894 900.488 154.166 902.448 153.285C906.433 151.493 909.977 149.241 912.426 146.93C913.259 146.128 914.007 145.275 914.663 144.322L916.428 148.245C910.963 150.916 905.837 154.823 904.927 158.454ZM907.681 159.957C907.623 159.485 908.132 158.099 910.389 156.052C912.537 154.107 915.612 152.19 919.055 150.642L919.223 150.566C922.911 148.908 926.741 147.774 929.784 147.509C932.931 147.233 934.002 147.891 934.153 148.125L934.16 148.14C934.247 148.368 934.062 149.679 931.639 151.944C929.401 154.036 926.14 156.09 922.452 157.748C918.97 159.313 915.437 160.35 912.518 160.683C909.696 160.991 908.297 160.534 907.845 160.186C907.792 160.103 907.74 160.02 907.681 159.957ZM941.575 164.529C941.669 164.736 941.548 166.018 939.254 168.225C937.055 170.335 933.807 172.418 930.093 174.088C926.367 175.763 922.659 176.825 919.674 177.082C916.508 177.348 915.507 176.606 915.407 176.384C915.401 176.369 915.401 176.369 915.394 176.354L913.406 172.104C917.28 172.516 922.765 171.028 927.459 168.918C931.443 167.126 934.962 164.886 937.398 162.58C938.205 161.825 938.921 160.969 939.558 160.042L941.575 164.529ZM937.771 156.378C937.864 156.585 937.724 157.859 935.378 160.088C933.148 162.195 929.867 164.275 926.127 165.956C919.048 169.139 913.433 169.475 911.73 168.514L911.131 167.252L909.555 163.885C910.743 164.009 911.916 163.998 913.074 163.851C916.246 163.493 920.044 162.39 923.758 160.721C927.677 158.958 931.177 156.744 933.613 154.474C934.46 153.701 935.221 152.843 935.877 151.889L937.588 155.695L937.601 155.689C937.687 155.881 937.671 156.156 937.771 156.378Z" fill="#FFD9EE"/>
<path d="M898.459 176.404C897.855 175.75 896.953 175.71 896.409 176.293C896.403 176.278 896.403 176.278 896.403 176.278C894.445 178.44 891.392 178.994 888.609 177.7C888.062 177.483 887.546 177.163 887.088 176.764L893.715 173.784C894.425 173.465 894.705 172.538 894.339 171.723C893.973 170.909 893.093 170.504 892.384 170.822L884.815 174.226C884.498 173.727 884.239 173.185 884.044 172.614L892.322 168.892C893.031 168.573 893.312 167.646 892.946 166.832C892.58 166.017 891.7 165.612 890.991 165.931L883.473 169.311C883.496 168.535 883.611 167.789 883.809 167.059C884.708 164.128 887.148 162.212 890.058 162.203C890.862 162.197 891.424 161.482 891.342 160.611C891.254 159.725 890.539 159.031 889.748 159.031C885.698 159.055 882.287 161.709 881.046 165.81C880.578 167.32 880.442 168.947 880.643 170.601L878.812 171.424C878.103 171.743 877.822 172.671 878.188 173.485C878.555 174.299 879.434 174.705 880.144 174.386L881.433 173.806C881.654 174.365 881.893 174.899 882.191 175.423L880.876 176.015C880.167 176.333 879.886 177.261 880.252 178.075C880.618 178.889 881.498 179.295 882.207 178.976L884.18 178.089C885.198 179.18 886.414 180.057 887.717 180.646C891.595 182.445 895.851 181.67 898.57 178.65C899.107 178.052 899.05 177.063 898.459 176.404Z" fill="#FFD9EE"/>
<path d="M52.4542 307.336C53.4223 305.106 52.3055 302.171 49.0687 298.55C46.4463 295.629 42.7388 292.567 38.3688 289.774L48.6512 272.901C48.8632 272.553 48.9548 272.154 48.8973 271.75C49.4933 269.597 48.2801 266.82 45.2859 263.477C42.3832 260.233 38.0905 256.815 33.2041 253.837C28.3335 250.869 23.3752 248.65 19.2409 247.605C15.839 246.747 11.4052 246.3 9.68027 249.131C9.57427 249.305 9.48408 249.488 9.40971 249.682L5.18933 256.999C-3.86911 248.768 -17.8991 249.478 -26.1238 258.562C-27.0487 259.581 -27.8821 260.7 -28.6049 261.886C-34.9651 272.323 -31.6481 285.99 -21.2111 292.35C-16.8624 295 -11.7405 296.061 -6.68923 295.387C-4.14028 297.895 -0.892574 300.395 2.77272 302.672C0.909855 307.543 9.17416 315.334 18.0298 320.73C22.9004 323.698 27.8525 325.892 32.028 326.94C35.4458 327.809 39.8734 328.23 41.5983 325.399L52.189 308.02C52.3143 307.814 52.4176 307.574 52.4542 307.336ZM18.3491 251.204C22.141 252.17 26.7479 254.219 31.3022 256.994C35.8249 259.75 39.9154 263.002 42.5439 265.948C45.3395 269.083 45.4274 270.611 45.2925 270.833C45.1576 271.054 43.7494 271.692 39.6757 270.619C35.8777 269.628 31.1029 267.499 26.5803 264.743C22.2157 262.083 18.3809 259.052 15.7929 256.217C12.9905 253.165 12.7066 251.496 12.8395 251.099C12.8588 251.068 12.8684 251.052 12.8526 251.042C13.0034 250.831 14.3861 250.199 18.3491 251.204ZM43.0889 274.911L40.6219 278.96C40.3447 279.094 40.1018 279.315 39.9538 279.593C39.8285 279.799 38.4203 280.437 34.3369 279.38C30.5389 278.388 25.7484 276.25 21.2257 273.494C17.3198 271.113 13.7434 268.37 11.1794 265.745C11.1416 265.7 11.11 265.681 11.0722 265.636C10.2926 263.535 9.20077 261.59 7.82821 259.821L10.4351 255.294C11.1889 256.513 12.0577 257.649 13.0509 258.688C15.8754 261.776 19.9914 265.021 24.6564 267.864C29.5428 270.842 34.5485 273.09 38.7461 274.173C40.1661 274.583 41.6254 274.822 43.0889 274.911ZM-6.16733 291.542C-16.1787 293.487 -25.8679 286.931 -27.7969 276.93C-29.7258 266.928 -23.1864 257.229 -13.1847 255.3C-8.66568 254.432 -3.99002 255.265 -0.0682449 257.655C1.51311 258.618 2.94993 259.819 4.18857 261.203C8.60967 266.261 9.9713 273.315 7.73629 279.651C7.30585 280.82 6.76125 281.963 6.11559 283.023C3.39805 287.482 -1.0664 290.573 -6.16733 291.542ZM-2.36268 294.337C-0.127745 293.552 1.96981 292.423 3.844 290.985C5.1207 291.915 6.49574 292.861 7.94096 293.764L7.76749 294.048L4.57973 299.457C2.14789 297.932 -0.168302 296.217 -2.36268 294.337ZM10.3047 283.016C11.1992 283.648 12.1446 284.268 13.1154 284.881C13.0961 284.913 13.083 284.97 13.0637 285.001L9.81468 290.546C8.70155 289.846 7.63932 289.134 6.62799 288.409C7.60722 287.336 8.49502 286.164 9.24669 284.931C9.63833 284.324 9.98253 283.688 10.3047 283.016ZM16.0451 282.351C15.9977 282.322 15.9502 282.293 15.9028 282.264C14.3847 281.339 12.9526 280.38 11.6504 279.456C12.3408 276.971 12.6062 274.4 12.4047 271.848C14.5936 273.594 16.8851 275.207 19.2887 276.672C24.1751 279.65 29.1809 281.898 33.3943 282.991C34.8432 283.354 36.277 283.598 37.7406 283.688L35.1868 287.878C28.2713 283.924 20.3828 281.069 16.0451 282.351ZM16.6801 286.077C17.1081 285.731 18.8888 285.407 22.6896 286.465C26.3032 287.474 30.609 289.448 34.8312 292.021L35.0368 292.146C39.5595 294.902 43.6693 298.122 46.2978 301.068C49.0177 304.114 49.1916 305.608 49.0753 305.906L49.0656 305.921C48.9053 306.149 47.4496 306.758 43.303 305.663C39.4734 304.652 34.8857 302.572 30.363 299.816C26.0933 297.214 22.3122 294.237 19.7111 291.459C17.2111 288.765 16.5813 287.058 16.5795 286.385C16.6215 286.28 16.6635 286.176 16.6801 286.077ZM38.4356 323.472C38.3007 323.693 36.9242 324.351 32.9357 323.351C29.1184 322.391 24.5114 320.343 19.9571 317.568C15.387 314.783 11.445 311.643 8.87007 308.751C6.14397 305.68 6.10964 304.206 6.25419 303.969C6.26383 303.953 6.26383 303.953 6.27347 303.937L8.97941 299.319C11.577 303.526 17.325 308.222 23.0811 311.729C27.9675 314.707 32.9417 316.936 37.1392 318.019C38.5214 318.384 39.9333 318.594 41.3555 318.68L38.4356 323.472ZM43.632 314.624C43.4971 314.846 42.1144 315.478 38.0626 314.44C34.2234 313.445 29.5944 311.361 25.0085 308.567C16.3268 303.276 11.6295 297.746 11.2675 295.422L12.0646 294.043L14.2082 290.383C15.006 291.672 15.9284 292.863 16.9753 293.956C19.797 296.977 23.8497 300.184 28.404 302.959C33.2114 305.889 38.1442 308.114 42.3067 309.219C43.7363 309.613 45.186 309.868 46.6495 309.957L44.1729 314.021L44.1887 314.031C44.0634 314.237 43.7766 314.387 43.632 314.624Z" fill="#FFD9EE"/>
<path d="M-6.93154 286.675C-6.7467 285.659 -7.40716 284.715 -8.41256 284.514C-8.40293 284.498 -8.40293 284.498 -8.40293 284.498C-12.0855 283.816 -15.0105 281.036 -15.878 277.406C-16.0861 276.715 -16.1669 275.994 -16.1239 275.283L-7.99567 280.236C-7.12592 280.766 -5.98066 280.488 -5.45064 279.618C-4.92062 278.748 -5.19858 277.603 -6.06833 277.073L-15.3509 271.416C-15.0989 270.789 -14.7581 270.195 -14.3383 269.648L-4.18599 275.835C-3.31624 276.365 -2.17098 276.087 -1.64096 275.217C-1.11095 274.347 -1.38891 273.202 -2.25865 272.672L-11.478 267.054C-10.6841 266.605 -9.84966 266.268 -8.96507 266.026C-5.33532 265.159 -1.52374 266.484 0.745744 269.45C1.37532 270.267 2.52724 270.406 3.33499 269.792C4.15237 269.162 4.29051 268.01 3.67674 267.203C0.506886 263.081 -4.79686 261.215 -9.86147 262.444C-11.7352 262.885 -13.4687 263.737 -14.9666 264.95L-17.2121 263.581C-18.0819 263.051 -19.2272 263.329 -19.7572 264.199C-20.2872 265.069 -20.0092 266.214 -19.1395 266.744L-17.5581 267.708C-17.9463 268.273 -18.2932 268.843 -18.5865 269.466L-20.1995 268.483C-21.0693 267.953 -22.2145 268.231 -22.7445 269.101C-23.2746 269.971 -22.9966 271.116 -22.1268 271.646L-19.7074 273.121C-20.0081 274.824 -19.9409 276.6 -19.5174 278.289C-18.304 283.344 -14.2241 287.218 -9.09185 288.156C-8.07681 288.34 -7.13218 287.68 -6.93154 286.675Z" fill="#FFD9EE"/>
<path d="M251.966 24.9821C251.539 21.9459 248.36 19.5169 242.406 17.742C237.59 16.3173 231.494 15.4531 224.852 15.313V-9.60695C224.852 -10.1208 224.686 -10.6112 224.354 -11.0083C223.571 -13.7175 220.392 -15.9128 214.888 -17.5477C209.551 -19.1359 202.577 -20 195.247 -20C187.94 -20 181.037 -19.1359 175.818 -17.5477C171.525 -16.2398 166.377 -13.8109 166.377 -9.63031C166.377 -9.3734 166.401 -9.11649 166.448 -8.85958L166.709 1.79037C151.313 -1.12902 136.44 8.84363 133.498 24.0245C133.166 25.7294 133 27.4811 133 29.2327C133 44.6471 145.739 57.1888 161.395 57.1888C167.919 57.1888 174.229 54.9701 179.305 50.9297C183.765 51.9573 188.984 52.5178 194.511 52.5645C195.721 59.0339 209.954 62 223.239 62C230.545 62 237.424 61.1125 242.691 59.501C247.008 58.1931 252.132 55.7408 252.132 51.5602V25.8929C252.132 25.5893 252.085 25.2623 251.966 24.9821ZM177.242 -13.0869C182.033 -14.5349 188.438 -15.3523 195.27 -15.3523C202.055 -15.3523 208.697 -14.5349 213.536 -13.0869C218.684 -11.5454 219.799 -9.95728 219.799 -9.63031C219.799 -9.30333 218.684 -7.69183 213.513 -6.17374C208.697 -4.74907 202.055 -3.90829 195.27 -3.90829C188.723 -3.90829 182.508 -4.65565 177.787 -6.01025C172.687 -7.45827 171.264 -9.06978 171.145 -9.58359C171.145 -9.6303 171.145 -9.65366 171.121 -9.65366C171.145 -9.98063 172.236 -11.5688 177.242 -13.0869ZM220.107 -3.79151V2.18741C219.894 2.51439 219.775 2.91142 219.799 3.30846C219.799 3.61208 218.684 5.22358 213.513 6.76502C208.697 8.18969 202.031 9.03048 195.247 9.03048C189.387 9.03048 183.647 8.42324 179.092 7.27884C179.021 7.25549 178.973 7.25548 178.902 7.23213C176.649 5.48049 174.158 4.10254 171.477 3.09826L171.311 -3.48789C172.948 -2.67046 174.656 -2.01652 176.435 -1.54942C181.583 -0.0780392 188.249 0.716036 195.247 0.716036C202.577 0.716036 209.551 -0.148106 214.865 -1.73626C216.691 -2.22672 218.447 -2.92737 220.107 -3.79151ZM177.313 46.4455C167.658 55.1102 152.689 54.4096 143.912 44.904C135.135 35.3985 135.823 20.6614 145.478 12.0199C149.843 8.11962 155.512 5.94759 161.395 5.94759C163.767 5.94759 166.14 6.29792 168.417 6.97522C176.625 9.52094 182.816 16.2239 184.595 24.515C184.904 26.0564 185.07 27.6445 185.07 29.2093C185.07 35.7955 182.247 42.0547 177.313 46.4455ZM183.338 46.9593C185.26 44.6471 186.802 42.0547 187.893 39.2754C189.909 39.4389 192.044 39.5557 194.227 39.579V39.9994L194.345 47.9168C190.668 47.8701 186.991 47.5432 183.338 46.9593ZM189.648 26.4534C191.048 26.5469 192.495 26.5936 193.966 26.6169C193.966 26.6636 193.989 26.7337 193.989 26.7804L194.132 34.8846C192.447 34.8613 190.811 34.7912 189.221 34.6745C189.577 32.8761 189.767 31.031 189.767 29.2093C189.791 28.2985 189.743 27.3876 189.648 26.4534ZM195.484 21.9692C195.413 21.9692 195.342 21.9692 195.27 21.9692C192.993 21.9692 190.787 21.8758 188.747 21.7357C187.845 18.6061 186.422 15.6633 184.501 13.0476C188.059 13.4913 191.641 13.7249 195.247 13.7249C202.577 13.7249 209.551 12.8607 214.888 11.2726C216.715 10.712 218.447 10.0347 220.107 9.17061V15.3597C209.907 15.64 199.374 17.742 195.484 21.9692ZM198.663 25.5659C198.9 24.912 200.632 23.3939 205.495 22.0393C210.12 20.7548 216.146 20.0541 222.48 20.0541H222.788C229.572 20.0541 236.215 20.8248 241.054 22.2729C246.059 23.7676 247.245 25.2623 247.316 25.6594V25.6827C247.293 26.033 246.107 27.6445 240.84 29.186C235.977 30.6107 229.572 31.3814 222.788 31.3814C216.383 31.3814 210.263 30.6574 205.566 29.3728C201.035 28.1117 199.208 26.687 198.757 25.963C198.734 25.8228 198.71 25.6827 198.663 25.5659ZM247.388 51.5602C247.388 51.8872 246.32 53.4987 241.291 55.0402C236.476 56.5115 230.071 57.329 223.239 57.329C216.383 57.329 209.978 56.5349 205.234 55.1102C200.205 53.5921 199.184 52.0274 199.184 51.677C199.184 51.6537 199.184 51.6537 199.184 51.6303L199.066 44.8807C204.712 47.7066 214.129 48.9912 222.764 48.9912C230.094 48.9912 237.021 48.127 242.335 46.5389C244.09 46.0251 245.775 45.3244 247.388 44.4836V51.5602ZM247.174 38.6215C247.174 38.9484 246.083 40.5366 240.959 42.078C236.096 43.5261 229.644 44.3201 222.764 44.3201C209.741 44.3201 200.916 41.4475 198.971 39.182L198.924 37.1735L198.829 31.8251C200.56 32.6893 202.363 33.3666 204.237 33.857C209.338 35.2583 215.909 36.0524 222.74 36.0524C229.952 36.0524 236.831 35.2116 242.121 33.6702C243.948 33.1564 245.703 32.4791 247.364 31.6149V37.6172H247.388C247.388 37.9208 247.174 38.2711 247.174 38.6215Z" fill="#FFD9EE"/>
<path d="M173.233 41.7043C172.758 40.4899 171.406 39.906 170.173 40.3497C170.173 40.3264 170.173 40.3264 170.173 40.3264C165.689 42.0079 160.636 40.9336 157.268 37.5938C156.58 36.9866 156.011 36.2626 155.584 35.4685H167.777C169.081 35.4685 170.149 34.4175 170.149 33.133C170.149 31.8484 169.081 30.7975 167.777 30.7975H153.852C153.71 29.9567 153.686 29.0925 153.781 28.2284H169.01C170.315 28.2284 171.382 27.1774 171.382 25.8929C171.382 24.6083 170.315 23.5574 169.01 23.5574H155.18C155.75 22.5531 156.438 21.6422 157.244 20.8014C160.636 17.485 165.689 16.4107 170.149 18.1156C171.382 18.5827 172.735 17.9755 173.209 16.7844C173.683 15.5699 173.067 14.2386 171.857 13.7715C165.642 11.4127 158.596 12.884 153.876 17.5317C152.12 19.2366 150.792 21.2919 149.961 23.5807H146.593C145.288 23.5807 144.221 24.6317 144.221 25.9162C144.221 27.2008 145.288 28.2517 146.593 28.2517H148.965C148.918 29.1159 148.918 29.9567 149.013 30.8208H146.593C145.288 30.8208 144.221 31.8718 144.221 33.1563C144.221 34.4409 145.288 35.4918 146.593 35.4918H150.222C151.029 37.5237 152.286 39.3922 153.876 40.9336C158.573 45.5813 165.618 47.076 171.857 44.7171C173.09 44.25 173.683 42.9188 173.233 41.7043Z" fill="#FFD9EE"/>
<path d="M692.907 231.123C692.696 230.575 692.094 230.311 691.546 230.511C691.546 230.501 691.546 230.501 691.546 230.501C689.551 231.261 687.303 230.775 685.804 229.266C685.498 228.992 685.245 228.664 685.055 228.306H690.48C691.06 228.306 691.535 227.831 691.535 227.25C691.535 226.67 691.06 226.195 690.48 226.195H684.285C684.221 225.815 684.211 225.424 684.253 225.034H691.028C691.609 225.034 692.084 224.559 692.084 223.979C692.084 223.398 691.609 222.923 691.028 222.923H684.876C685.129 222.469 685.435 222.058 685.794 221.678C687.303 220.179 689.551 219.694 691.535 220.464C692.084 220.675 692.685 220.401 692.896 219.863C693.108 219.314 692.833 218.712 692.295 218.501C689.53 217.435 686.395 218.1 684.295 220.2C683.514 220.971 682.923 221.9 682.554 222.934H681.055C680.475 222.934 680 223.409 680 223.989C680 224.57 680.475 225.045 681.055 225.045H682.111C682.09 225.435 682.09 225.815 682.132 226.205H681.055C680.475 226.205 680 226.68 680 227.261C680 227.841 680.475 228.316 681.055 228.316H682.67C683.029 229.234 683.588 230.079 684.295 230.775C686.385 232.875 689.519 233.551 692.295 232.485C692.844 232.274 693.108 231.672 692.907 231.123Z" fill="#FFD9EE"/>
<path d="M409.907 75.1234C409.696 74.5746 409.094 74.3108 408.546 74.5113C408.546 74.5007 408.546 74.5007 408.546 74.5007C406.551 75.2606 404.303 74.7751 402.804 73.266C402.498 72.9916 402.245 72.6644 402.055 72.3056H407.48C408.06 72.3056 408.535 71.8307 408.535 71.2502C408.535 70.6698 408.06 70.1949 407.48 70.1949H401.285C401.221 69.8149 401.211 69.4245 401.253 69.034H408.028C408.609 69.034 409.084 68.5591 409.084 67.9786C409.084 67.3982 408.609 66.9233 408.028 66.9233H401.876C402.129 66.4695 402.435 66.0579 402.794 65.6779C404.303 64.1793 406.551 63.6939 408.535 64.4643C409.084 64.6754 409.685 64.401 409.896 63.8627C410.108 63.3139 409.833 62.7124 409.295 62.5013C406.53 61.4354 403.395 62.1003 401.295 64.2004C400.514 64.9709 399.923 65.8996 399.554 66.9338H398.055C397.475 66.9338 397 67.4087 397 67.9892C397 68.5696 397.475 69.0445 398.055 69.0445H399.111C399.09 69.435 399.09 69.8149 399.132 70.2054H398.055C397.475 70.2054 397 70.6803 397 71.2608C397 71.8412 397.475 72.3161 398.055 72.3161H399.67C400.029 73.2343 400.588 74.0786 401.295 74.7751C403.385 76.8753 406.519 77.5507 409.295 76.4848C409.844 76.2737 410.108 75.6722 409.907 75.1234Z" fill="#FFD9EE"/>
<path d="M96.9072 136.207C96.6144 135.446 95.7798 135.08 95.0184 135.358C95.0184 135.344 95.0184 135.344 95.0184 135.344C92.2511 136.398 89.1323 135.724 87.0531 133.63C86.6285 133.25 86.2771 132.796 86.0135 132.298H93.5396C94.3449 132.298 95.0038 131.639 95.0038 130.834C95.0038 130.028 94.3449 129.37 93.5396 129.37H84.9447C84.8568 128.842 84.8422 128.301 84.9007 127.759H94.3009C95.1063 127.759 95.7651 127.1 95.7651 126.295C95.7651 125.489 95.1063 124.831 94.3009 124.831H85.7646C86.116 124.201 86.5407 123.63 87.0385 123.103C89.1323 121.024 92.2511 120.35 95.0038 121.419C95.7651 121.712 96.5997 121.331 96.8926 120.584C97.1854 119.823 96.8047 118.988 96.058 118.696C92.2218 117.217 87.8731 118.139 84.9593 121.053C83.8758 122.122 83.0558 123.41 82.5434 124.845H80.4642C79.6589 124.845 79 125.504 79 126.309C79 127.115 79.6589 127.774 80.4642 127.774H81.9284C81.8991 128.315 81.8991 128.842 81.9577 129.384H80.4642C79.6589 129.384 79 130.043 79 130.848C79 131.654 79.6589 132.313 80.4642 132.313H82.7044C83.2023 133.586 83.9783 134.758 84.9593 135.724C87.8584 138.638 92.2071 139.575 96.058 138.096C96.8194 137.803 97.1854 136.969 96.9072 136.207Z" fill="#FFD9EE"/>
<path d="M858.933 50.1498C858.721 49.5999 858.119 49.3355 857.569 49.5365C857.569 49.5259 857.569 49.5259 857.569 49.5259C855.57 50.2873 853.318 49.8008 851.816 48.2886C851.509 48.0137 851.256 47.6859 851.065 47.3263H856.501C857.082 47.3263 857.558 46.8505 857.558 46.2688C857.558 45.6872 857.082 45.2114 856.501 45.2114H850.293C850.23 44.8307 850.219 44.4394 850.262 44.0481H857.051C857.632 44.0481 858.108 43.5723 858.108 42.9907C858.108 42.409 857.632 41.9332 857.051 41.9332H850.886C851.139 41.4785 851.446 41.066 851.806 40.6853C853.318 39.1837 855.57 38.6973 857.558 39.4692C858.108 39.6807 858.711 39.4058 858.922 38.8665C859.134 38.3166 858.859 37.7138 858.32 37.5023C855.549 36.4343 852.408 37.1005 850.304 39.2049C849.521 39.9768 848.929 40.9074 848.559 41.9438H847.057C846.476 41.9438 846 42.4196 846 43.0012C846 43.5828 846.476 44.0587 847.057 44.0587H848.115C848.094 44.45 848.094 44.8307 848.136 45.2219H847.057C846.476 45.2219 846 45.6978 846 46.2794C846 46.861 846.476 47.3369 847.057 47.3369H848.675C849.035 48.2569 849.595 49.1029 850.304 49.8008C852.398 51.9052 855.538 52.582 858.32 51.514C858.87 51.3025 859.134 50.6997 858.933 50.1498Z" fill="#FFD9EE"/>
<path d="M983.233 -35.4321C982.452 -32.9699 983.792 -30.4141 986.225 -29.5967C986.196 -29.5604 986.196 -29.5604 986.196 -29.5604C995.126 -26.6958 1001.51 -18.8629 1002.51 -9.57268C1002.81 -7.79144 1002.78 -5.97388 1002.45 -4.22139L983.832 -19.1033C981.84 -20.6958 978.907 -20.369 977.315 -18.3771C975.723 -16.3853 976.049 -13.4527 978.041 -11.8602L999.3 5.13529C998.475 6.61277 997.44 7.9817 996.224 9.20586L972.973 -9.38211C970.981 -10.9745 968.049 -10.6477 966.456 -8.65588C964.864 -6.66403 965.191 -3.73144 967.183 -2.13901L988.296 14.7407C986.182 15.6031 984.003 16.1759 981.729 16.4952C972.439 17.4975 963.393 12.9964 958.698 4.90945C957.394 2.67957 954.577 1.97084 952.376 3.23877C950.146 4.54291 949.437 7.35998 950.705 9.5609C957.269 20.8044 969.85 27.1219 982.818 25.6767C987.612 25.1755 992.188 23.61 996.293 21.0742L1001.44 25.1856C1003.43 26.778 1006.36 26.4512 1007.95 24.4593C1009.54 22.4675 1009.22 19.5349 1007.23 17.9425L1003.6 15.0471C1004.75 13.7651 1005.79 12.4613 1006.72 11.0055L1010.41 13.9588C1012.4 15.5512 1015.34 15.2244 1016.93 13.2325C1018.52 11.2407 1018.19 8.30809 1016.2 6.71566L1010.66 2.28582C1011.95 -1.84934 1012.34 -6.28111 1011.83 -10.6112C1010.42 -23.5508 1001.52 -34.4677 989.068 -38.4246C986.606 -39.2059 984.05 -37.8654 983.233 -35.4321Z" fill="#FFD9EE"/>
<path d="M758.926 295.326C758.736 293.954 757.322 292.857 754.673 292.055C752.531 291.411 749.818 291.02 746.863 290.957V279.696C746.863 279.464 746.79 279.243 746.642 279.063C746.294 277.839 744.879 276.847 742.431 276.108C740.056 275.39 736.954 275 733.693 275C730.442 275 727.371 275.39 725.049 276.108C723.139 276.699 720.849 277.797 720.849 279.686C720.849 279.802 720.859 279.918 720.881 280.034L720.997 284.846C714.147 283.527 707.53 288.034 706.222 294.893C706.074 295.664 706 296.455 706 297.247C706 304.212 711.667 309.88 718.633 309.88C721.535 309.88 724.342 308.877 726.601 307.051C728.585 307.516 730.906 307.769 733.365 307.79C733.904 310.713 740.236 312.054 746.146 312.054C749.396 312.054 752.457 311.653 754.8 310.924C756.72 310.333 759 309.225 759 307.336V295.738C759 295.601 758.979 295.453 758.926 295.326ZM725.682 278.124C727.814 277.47 730.664 277.1 733.703 277.1C736.721 277.1 739.676 277.47 741.829 278.124C744.119 278.82 744.615 279.538 744.615 279.686C744.615 279.834 744.119 280.562 741.819 281.248C739.676 281.891 736.721 282.271 733.703 282.271C730.79 282.271 728.025 281.934 725.925 281.322C723.656 280.667 723.023 279.939 722.97 279.707C722.97 279.686 722.97 279.675 722.96 279.675C722.97 279.527 723.456 278.81 725.682 278.124ZM744.753 282.324V285.026C744.658 285.174 744.605 285.353 744.615 285.532C744.615 285.67 744.119 286.398 741.819 287.094C739.676 287.738 736.711 288.118 733.693 288.118C731.086 288.118 728.532 287.844 726.506 287.327C726.474 287.316 726.453 287.316 726.421 287.305C725.419 286.514 724.31 285.891 723.118 285.437L723.044 282.461C723.772 282.831 724.532 283.126 725.324 283.337C727.614 284.002 730.579 284.361 733.693 284.361C736.954 284.361 740.056 283.971 742.42 283.253C743.233 283.031 744.014 282.715 744.753 282.324ZM725.714 305.025C721.419 308.94 714.759 308.624 710.855 304.328C706.95 300.033 707.256 293.374 711.551 289.469C713.493 287.706 716.015 286.725 718.633 286.725C719.688 286.725 720.743 286.883 721.756 287.189C725.408 288.34 728.162 291.369 728.954 295.115C729.091 295.812 729.165 296.529 729.165 297.236C729.165 300.212 727.909 303.041 725.714 305.025ZM728.395 305.257C729.25 304.212 729.935 303.041 730.421 301.785C731.318 301.859 732.268 301.912 733.239 301.922V302.112L733.292 305.69C731.656 305.669 730.02 305.521 728.395 305.257ZM731.202 295.991C731.825 296.033 732.468 296.054 733.123 296.065C733.123 296.086 733.133 296.118 733.133 296.139L733.197 299.801C732.447 299.79 731.719 299.759 731.012 299.706C731.17 298.893 731.255 298.06 731.255 297.236C731.265 296.825 731.244 296.413 731.202 295.991ZM733.798 293.965C733.766 293.965 733.735 293.965 733.703 293.965C732.69 293.965 731.708 293.923 730.801 293.859C730.4 292.445 729.767 291.115 728.912 289.933C730.495 290.134 732.088 290.239 733.693 290.239C736.954 290.239 740.056 289.849 742.431 289.131C743.244 288.878 744.014 288.572 744.753 288.181V290.978C740.215 291.105 735.529 292.055 733.798 293.965ZM735.212 295.59C735.318 295.295 736.088 294.609 738.252 293.996C740.31 293.416 742.99 293.099 745.808 293.099H745.945C748.964 293.099 751.919 293.448 754.071 294.102C756.298 294.777 756.826 295.453 756.858 295.632V295.643C756.847 295.801 756.319 296.529 753.977 297.226C751.813 297.87 748.964 298.218 745.945 298.218C743.096 298.218 740.373 297.891 738.283 297.31C736.268 296.74 735.455 296.097 735.254 295.769C735.244 295.706 735.233 295.643 735.212 295.59ZM756.889 307.336C756.889 307.484 756.414 308.212 754.177 308.909C752.035 309.573 749.185 309.943 746.146 309.943C743.096 309.943 740.246 309.584 738.136 308.94C735.898 308.254 735.444 307.547 735.444 307.389C735.444 307.378 735.444 307.378 735.444 307.368L735.392 304.318C737.903 305.595 742.093 306.175 745.935 306.175C749.196 306.175 752.277 305.785 754.641 305.067C755.422 304.835 756.172 304.518 756.889 304.138V307.336ZM756.794 301.489C756.794 301.637 756.309 302.355 754.029 303.051C751.866 303.706 748.995 304.065 745.935 304.065C740.141 304.065 736.215 302.766 735.349 301.743L735.328 300.835L735.286 298.418C736.057 298.809 736.859 299.115 737.692 299.337C739.961 299.97 742.885 300.329 745.924 300.329C749.132 300.329 752.193 299.949 754.546 299.252C755.359 299.02 756.14 298.714 756.879 298.323V301.036H756.889C756.889 301.173 756.794 301.331 756.794 301.489Z" fill="#FFD9EE"/>
<path d="M723.899 302.883C723.688 302.334 723.086 302.071 722.538 302.271C722.538 302.26 722.538 302.26 722.538 302.26C720.543 303.02 718.295 302.535 716.796 301.026C716.49 300.751 716.237 300.424 716.047 300.065H721.472C722.052 300.065 722.527 299.59 722.527 299.01C722.527 298.43 722.052 297.955 721.472 297.955H715.277C715.213 297.575 715.203 297.184 715.245 296.794H722.02C722.601 296.794 723.076 296.319 723.076 295.738C723.076 295.158 722.601 294.683 722.02 294.683H715.868C716.121 294.229 716.427 293.818 716.786 293.438C718.295 291.939 720.543 291.454 722.527 292.224C723.076 292.435 723.677 292.161 723.888 291.622C724.099 291.074 723.825 290.472 723.287 290.261C720.522 289.195 717.387 289.86 715.287 291.96C714.506 292.731 713.915 293.659 713.546 294.694H712.047C711.467 294.694 710.992 295.168 710.992 295.749C710.992 296.329 711.467 296.804 712.047 296.804H713.103C713.082 297.195 713.082 297.575 713.124 297.965H712.047C711.467 297.965 710.992 298.44 710.992 299.021C710.992 299.601 711.467 300.076 712.047 300.076H713.662C714.021 300.994 714.58 301.838 715.287 302.535C717.377 304.635 720.511 305.31 723.287 304.245C723.836 304.033 724.099 303.432 723.899 302.883Z" fill="#FFD9EE"/>
<path d="M724.893 -10.0738C724.617 -8.11136 722.562 -6.54144 718.714 -5.39419C715.601 -4.47337 711.661 -3.91484 707.368 -3.82427V12.2825C707.368 12.6146 707.26 12.9316 707.046 13.1883C706.54 14.9393 704.485 16.3583 700.928 17.415C697.478 18.4415 692.97 19 688.233 19C683.51 19 679.048 18.4415 675.675 17.415C672.9 16.5696 669.573 14.9997 669.573 12.2976C669.573 12.1316 669.588 11.9655 669.619 11.7995L669.788 4.91598C659.837 6.8029 650.223 0.357164 648.322 -9.45486C648.107 -10.5568 648 -11.689 648 -12.8211C648 -22.7841 656.234 -30.8904 666.353 -30.8904C670.569 -30.8904 674.648 -29.4563 677.929 -26.8448C680.812 -27.509 684.185 -27.8713 687.757 -27.9015C688.539 -32.0829 697.739 -34 706.325 -34C711.047 -34 715.494 -33.4264 718.898 -32.3848C721.688 -31.5395 725 -29.9544 725 -27.2524V-10.6625C725 -10.4662 724.969 -10.2549 724.893 -10.0738ZM676.595 14.5318C679.692 15.4677 683.832 15.996 688.248 15.996C692.633 15.996 696.926 15.4677 700.054 14.5318C703.381 13.5355 704.102 12.509 704.102 12.2976C704.102 12.0863 703.381 11.0447 700.039 10.0635C696.926 9.14269 692.633 8.59926 688.248 8.59926C684.016 8.59926 679.999 9.08231 676.948 9.95785C673.651 10.8938 672.731 11.9353 672.655 12.2674C672.655 12.2976 672.655 12.3127 672.639 12.3127C672.655 12.5241 673.36 13.5506 676.595 14.5318ZM704.301 8.52378V4.65936C704.163 4.44802 704.086 4.1914 704.102 3.93477C704.102 3.73853 703.381 2.69695 700.039 1.70065C696.926 0.779835 692.618 0.236399 688.233 0.236399C684.445 0.236399 680.735 0.62888 677.791 1.36855C677.745 1.38365 677.714 1.38365 677.668 1.39875C676.212 2.5309 674.602 3.42153 672.869 4.07063L672.762 8.32754C673.82 7.7992 674.924 7.37653 676.074 7.07462C679.401 6.12361 683.709 5.61037 688.233 5.61037C692.97 5.61037 697.478 6.1689 700.913 7.19538C702.093 7.51239 703.228 7.96525 704.301 8.52378ZM676.641 -23.9465C670.401 -29.5469 660.726 -29.094 655.053 -22.9502C649.38 -16.8063 649.825 -7.28112 656.065 -1.69581C658.886 0.825121 662.551 2.22899 666.353 2.22899C667.886 2.22899 669.42 2.00256 670.891 1.56479C676.197 -0.0806046 680.198 -4.41299 681.348 -9.77186C681.548 -10.7682 681.655 -11.7946 681.655 -12.806C681.655 -17.0629 679.83 -21.1085 676.641 -23.9465ZM680.536 -24.2786C681.778 -22.7841 682.774 -21.1085 683.479 -19.3122C684.783 -19.4178 686.163 -19.4933 687.573 -19.5084V-19.7801L687.65 -24.8975C685.273 -24.8673 682.897 -24.6559 680.536 -24.2786ZM684.614 -11.0248C685.519 -11.0852 686.454 -11.1154 687.405 -11.1304C687.405 -11.1606 687.42 -11.2059 687.42 -11.2361L687.512 -16.4742C686.423 -16.4591 685.365 -16.4138 684.338 -16.3384C684.568 -15.176 684.691 -13.9835 684.691 -12.806C684.706 -12.2173 684.675 -11.6286 684.614 -11.0248ZM688.386 -8.12646C688.34 -8.12646 688.294 -8.12646 688.248 -8.12646C686.776 -8.12646 685.35 -8.06608 684.031 -7.97551C683.449 -5.95272 682.529 -4.0507 681.287 -2.36001C683.587 -2.64683 685.902 -2.79778 688.233 -2.79778C692.97 -2.79778 697.478 -2.23925 700.928 -1.21276C702.109 -0.850471 703.228 -0.412704 704.301 0.145826V-3.85446C697.708 -4.0356 690.9 -5.39419 688.386 -8.12646ZM690.44 -10.4512C690.594 -10.0285 691.713 -9.04728 694.856 -8.17175C697.846 -7.3415 701.741 -6.88864 705.834 -6.88864H706.034C710.419 -6.88864 714.712 -7.38678 717.84 -8.3227C721.075 -9.28881 721.841 -10.2549 721.887 -10.5115V-10.5266C721.872 -10.7531 721.106 -11.7946 717.702 -12.7909C714.559 -13.7118 710.419 -14.2099 706.034 -14.2099C701.894 -14.2099 697.938 -13.742 694.902 -12.9117C691.974 -12.0966 690.793 -11.1757 690.502 -10.7078C690.486 -10.6172 690.471 -10.5266 690.44 -10.4512ZM721.933 -27.2524C721.933 -27.4637 721.244 -28.5053 717.993 -29.5016C714.881 -30.4526 710.741 -30.9809 706.325 -30.9809C701.894 -30.9809 697.754 -30.4677 694.688 -29.5469C691.437 -28.5657 690.778 -27.5543 690.778 -27.3278C690.778 -27.3127 690.778 -27.3127 690.778 -27.2976L690.701 -22.9351C694.35 -24.7616 700.437 -25.5919 706.018 -25.5919C710.756 -25.5919 715.233 -25.0333 718.668 -24.0068C719.802 -23.6747 720.891 -23.2219 721.933 -22.6784V-27.2524ZM721.795 -18.8895C721.795 -19.1008 721.09 -20.1273 717.778 -21.1236C714.635 -22.0595 710.465 -22.5728 706.018 -22.5728C697.601 -22.5728 691.897 -20.716 690.64 -19.2518L690.609 -17.9536L690.548 -14.4967C691.667 -15.0553 692.832 -15.493 694.044 -15.81C697.34 -16.7158 701.587 -17.229 706.003 -17.229C710.664 -17.229 715.111 -16.6856 718.53 -15.6893C719.71 -15.3572 720.845 -14.9194 721.918 -14.3609V-18.2404H721.933C721.933 -18.4366 721.795 -18.6631 721.795 -18.8895Z" fill="#FFD9EE"/>
<path d="M334.997 241.082C334.997 237.354 332.409 236.285 329.61 235.684L328.127 235.379C325.933 234.941 325.763 234.295 325.763 233.43C325.763 232.308 326.76 231.637 328.428 231.637C330.404 231.637 330.911 232.645 331.121 233.402L331.141 233.465C331.389 234.125 331.967 234.519 332.688 234.519C332.874 234.519 333.042 234.49 333.167 234.464C333.941 234.308 334.479 233.683 334.479 232.942C334.479 232.759 334.447 232.577 334.381 232.4C333.985 231.106 332.871 229.07 329.786 228.605V226.386C329.786 224.538 326.935 224.538 326.935 226.386V228.618C323.62 229.145 322.4 231.434 322.4 233.429C322.4 237.06 324.89 238.072 327.322 238.581L328.927 238.927C331.213 239.399 331.616 240.004 331.616 241.1C331.616 242.44 330.5 243.238 328.63 243.238C326.203 243.238 325.708 242.128 325.377 240.883C325.184 240.193 324.57 239.749 323.813 239.749C323.648 239.749 323.516 239.771 323.356 239.799L323.308 239.808C322.525 239.997 322 240.623 322 241.365C322 241.506 322.025 241.626 322.045 241.723L322.069 241.833C322.421 243.042 323.199 245.68 327.075 246.269V248.591C327.075 249.516 327.791 250 328.5 250C329.209 250 329.926 249.516 329.926 248.591V246.31C333.004 245.903 335 243.906 335 241.082" fill="#FFD9EE"/>
<path d="M596.997 40.0815C596.997 36.3541 594.409 35.2854 591.61 34.6838L590.127 34.3787C587.933 33.9408 587.763 33.2947 587.763 32.4299C587.763 31.3076 588.76 30.6369 590.428 30.6369C592.404 30.6369 592.911 31.6447 593.121 32.4018L593.141 32.4647C593.389 33.1248 593.967 33.5186 594.688 33.5186C594.874 33.5186 595.042 33.4897 595.167 33.4639C595.941 33.3076 596.479 32.6826 596.479 31.9424C596.479 31.7588 596.447 31.5767 596.381 31.3998C595.985 30.106 594.871 28.0697 591.786 27.6048V25.3861C591.786 23.538 588.935 23.538 588.935 25.3861V27.6181C585.62 28.1447 584.4 30.4338 584.4 32.4291C584.4 36.0596 586.89 37.0717 589.322 37.5811L590.927 37.9272C593.213 38.3991 593.616 39.0042 593.616 40.1003C593.616 41.4398 592.5 42.2382 590.63 42.2382C588.203 42.2382 587.708 41.1284 587.377 39.8827C587.184 39.1932 586.57 38.7491 585.813 38.7491C585.648 38.7491 585.516 38.7714 585.356 38.7991L585.308 38.8085C584.525 38.9971 584 39.6229 584 40.3647C584 40.5058 584.025 40.6257 584.045 40.7226L584.069 40.8335C584.421 42.0417 585.199 44.6804 589.075 45.2691V47.5914C589.075 48.516 589.791 49 590.5 49C591.209 49 591.926 48.516 591.926 47.5914V45.3097C595.004 44.9027 597 42.9062 597 40.0819" fill="#FFD9EE"/>
<path d="M946.997 264.082C946.997 260.354 944.409 259.285 941.61 258.684L940.127 258.379C937.933 257.941 937.763 257.295 937.763 256.43C937.763 255.308 938.76 254.637 940.428 254.637C942.404 254.637 942.911 255.645 943.121 256.402L943.141 256.465C943.389 257.125 943.967 257.519 944.688 257.519C944.874 257.519 945.042 257.49 945.167 257.464C945.941 257.308 946.479 256.683 946.479 255.942C946.479 255.759 946.447 255.577 946.381 255.4C945.985 254.106 944.871 252.07 941.786 251.605V249.386C941.786 247.538 938.935 247.538 938.935 249.386V251.618C935.62 252.145 934.4 254.434 934.4 256.429C934.4 260.06 936.89 261.072 939.322 261.581L940.927 261.927C943.213 262.399 943.616 263.004 943.616 264.1C943.616 265.44 942.5 266.238 940.63 266.238C938.203 266.238 937.708 265.128 937.377 263.883C937.184 263.193 936.57 262.749 935.813 262.749C935.648 262.749 935.516 262.771 935.356 262.799L935.308 262.808C934.525 262.997 934 263.623 934 264.365C934 264.506 934.025 264.626 934.045 264.723L934.069 264.833C934.421 266.042 935.199 268.68 939.075 269.269V271.591C939.075 272.516 939.791 273 940.5 273C941.209 273 941.926 272.516 941.926 271.591V269.31C945.004 268.903 947 266.906 947 264.082" fill="#FFD9EE"/>
</g>
<defs>
<clipPath id="clip0">
<rect width="1004" height="294" rx="20" fill="white"/>
</clipPath>
</defs>
</svg>
