<svg width="1004" height="294" viewBox="0 0 1004 294" fill="none" xmlns="http://www.w3.org/2000/svg">
<g clip-path="url(#clip0)">
<rect width="1004" height="294" rx="20" fill="white"/>
<rect width="1004" height="294" rx="20" fill="#2E279D"/>
<path d="M350.541 162.08H363.981V170H340.281V127.88H350.541V162.08ZM374.034 133.04C372.234 133.04 370.754 132.52 369.594 131.48C368.474 130.4 367.914 129.08 367.914 127.52C367.914 125.92 368.474 124.6 369.594 123.56C370.754 122.48 372.234 121.94 374.034 121.94C375.794 121.94 377.234 122.48 378.354 123.56C379.514 124.6 380.094 125.92 380.094 127.52C380.094 129.08 379.514 130.4 378.354 131.48C377.234 132.52 375.794 133.04 374.034 133.04ZM379.134 136.52V170H368.874V136.52H379.134ZM406.97 136.16C410.89 136.16 414.01 137.44 416.33 140C418.69 142.52 419.87 146 419.87 150.44V170H409.67V151.82C409.67 149.58 409.09 147.84 407.93 146.6C406.77 145.36 405.21 144.74 403.25 144.74C401.29 144.74 399.73 145.36 398.57 146.6C397.41 147.84 396.83 149.58 396.83 151.82V170H386.57V136.52H396.83V140.96C397.87 139.48 399.27 138.32 401.03 137.48C402.79 136.6 404.77 136.16 406.97 136.16ZM439.719 136.04C442.079 136.04 444.139 136.52 445.899 137.48C447.699 138.44 449.079 139.7 450.039 141.26V136.52H460.299V169.94C460.299 173.02 459.679 175.8 458.439 178.28C457.239 180.8 455.379 182.8 452.859 184.28C450.379 185.76 447.279 186.5 443.559 186.5C438.599 186.5 434.579 185.32 431.499 182.96C428.419 180.64 426.659 177.48 426.219 173.48H436.359C436.679 174.76 437.439 175.76 438.639 176.48C439.839 177.24 441.319 177.62 443.079 177.62C445.199 177.62 446.879 177 448.119 175.76C449.399 174.56 450.039 172.62 450.039 169.94V165.2C449.039 166.76 447.659 168.04 445.899 169.04C444.139 170 442.079 170.48 439.719 170.48C436.959 170.48 434.459 169.78 432.219 168.38C429.979 166.94 428.199 164.92 426.879 162.32C425.599 159.68 424.959 156.64 424.959 153.2C424.959 149.76 425.599 146.74 426.879 144.14C428.199 141.54 429.979 139.54 432.219 138.14C434.459 136.74 436.959 136.04 439.719 136.04ZM450.039 153.26C450.039 150.7 449.319 148.68 447.879 147.2C446.479 145.72 444.759 144.98 442.719 144.98C440.679 144.98 438.939 145.72 437.499 147.2C436.099 148.64 435.399 150.64 435.399 153.2C435.399 155.76 436.099 157.8 437.499 159.32C438.939 160.8 440.679 161.54 442.719 161.54C444.759 161.54 446.479 160.8 447.879 159.32C449.319 157.84 450.039 155.82 450.039 153.26ZM500.782 136.52V170H490.522V165.44C489.482 166.92 488.062 168.12 486.262 169.04C484.502 169.92 482.542 170.36 480.382 170.36C477.822 170.36 475.562 169.8 473.602 168.68C471.642 167.52 470.122 165.86 469.042 163.7C467.962 161.54 467.422 159 467.422 156.08V136.52H477.622V154.7C477.622 156.94 478.202 158.68 479.362 159.92C480.522 161.16 482.082 161.78 484.042 161.78C486.042 161.78 487.622 161.16 488.782 159.92C489.942 158.68 490.522 156.94 490.522 154.7V136.52H500.782ZM513.312 133.04C511.512 133.04 510.032 132.52 508.872 131.48C507.752 130.4 507.192 129.08 507.192 127.52C507.192 125.92 507.752 124.6 508.872 123.56C510.032 122.48 511.512 121.94 513.312 121.94C515.072 121.94 516.512 122.48 517.632 123.56C518.792 124.6 519.372 125.92 519.372 127.52C519.372 129.08 518.792 130.4 517.632 131.48C516.512 132.52 515.072 133.04 513.312 133.04ZM518.412 136.52V170H508.152V136.52H518.412ZM539.467 170.48C536.547 170.48 533.947 169.98 531.667 168.98C529.387 167.98 527.587 166.62 526.267 164.9C524.947 163.14 524.207 161.18 524.047 159.02H534.187C534.307 160.18 534.847 161.12 535.807 161.84C536.767 162.56 537.947 162.92 539.347 162.92C540.627 162.92 541.607 162.68 542.287 162.2C543.007 161.68 543.367 161.02 543.367 160.22C543.367 159.26 542.867 158.56 541.867 158.12C540.867 157.64 539.247 157.12 537.007 156.56C534.607 156 532.607 155.42 531.007 154.82C529.407 154.18 528.027 153.2 526.867 151.88C525.707 150.52 525.127 148.7 525.127 146.42C525.127 144.5 525.647 142.76 526.687 141.2C527.767 139.6 529.327 138.34 531.367 137.42C533.447 136.5 535.907 136.04 538.747 136.04C542.947 136.04 546.247 137.08 548.647 139.16C551.087 141.24 552.487 144 552.847 147.44H543.367C543.207 146.28 542.687 145.36 541.807 144.68C540.967 144 539.847 143.66 538.447 143.66C537.247 143.66 536.327 143.9 535.687 144.38C535.047 144.82 534.727 145.44 534.727 146.24C534.727 147.2 535.227 147.92 536.227 148.4C537.267 148.88 538.867 149.36 541.027 149.84C543.507 150.48 545.527 151.12 547.087 151.76C548.647 152.36 550.007 153.36 551.167 154.76C552.367 156.12 552.987 157.96 553.027 160.28C553.027 162.24 552.467 164 551.347 165.56C550.267 167.08 548.687 168.28 546.607 169.16C544.567 170.04 542.187 170.48 539.467 170.48ZM577.964 161.3V170H572.744C569.024 170 566.124 169.1 564.044 167.3C561.964 165.46 560.924 162.48 560.924 158.36V145.04H556.844V136.52H560.924V128.36H571.184V136.52H577.904V145.04H571.184V158.48C571.184 159.48 571.424 160.2 571.904 160.64C572.384 161.08 573.184 161.3 574.304 161.3H577.964ZM588.839 133.04C587.039 133.04 585.559 132.52 584.399 131.48C583.279 130.4 582.719 129.08 582.719 127.52C582.719 125.92 583.279 124.6 584.399 123.56C585.559 122.48 587.039 121.94 588.839 121.94C590.599 121.94 592.039 122.48 593.159 123.56C594.319 124.6 594.899 125.92 594.899 127.52C594.899 129.08 594.319 130.4 593.159 131.48C592.039 132.52 590.599 133.04 588.839 133.04ZM593.939 136.52V170H583.679V136.52H593.939ZM599.334 153.26C599.334 149.78 600.034 146.74 601.434 144.14C602.874 141.54 604.854 139.54 607.374 138.14C609.934 136.74 612.854 136.04 616.134 136.04C620.334 136.04 623.834 137.14 626.634 139.34C629.474 141.54 631.334 144.64 632.214 148.64H621.294C620.374 146.08 618.594 144.8 615.954 144.8C614.074 144.8 612.574 145.54 611.454 147.02C610.334 148.46 609.774 150.54 609.774 153.26C609.774 155.98 610.334 158.08 611.454 159.56C612.574 161 614.074 161.72 615.954 161.72C618.594 161.72 620.374 160.44 621.294 157.88H632.214C631.334 161.8 629.474 164.88 626.634 167.12C623.794 169.36 620.294 170.48 616.134 170.48C612.854 170.48 609.934 169.78 607.374 168.38C604.854 166.98 602.874 164.98 601.434 162.38C600.034 159.78 599.334 156.74 599.334 153.26ZM651.322 170.48C648.402 170.48 645.802 169.98 643.522 168.98C641.242 167.98 639.442 166.62 638.122 164.9C636.802 163.14 636.062 161.18 635.902 159.02H646.042C646.162 160.18 646.702 161.12 647.662 161.84C648.622 162.56 649.802 162.92 651.202 162.92C652.482 162.92 653.462 162.68 654.142 162.2C654.862 161.68 655.222 161.02 655.222 160.22C655.222 159.26 654.722 158.56 653.722 158.12C652.722 157.64 651.102 157.12 648.862 156.56C646.462 156 644.462 155.42 642.862 154.82C641.262 154.18 639.882 153.2 638.722 151.88C637.562 150.52 636.982 148.7 636.982 146.42C636.982 144.5 637.502 142.76 638.542 141.2C639.622 139.6 641.182 138.34 643.222 137.42C645.302 136.5 647.762 136.04 650.602 136.04C654.802 136.04 658.102 137.08 660.502 139.16C662.942 141.24 664.342 144 664.702 147.44H655.222C655.062 146.28 654.542 145.36 653.662 144.68C652.822 144 651.702 143.66 650.302 143.66C649.102 143.66 648.182 143.9 647.542 144.38C646.902 144.82 646.582 145.44 646.582 146.24C646.582 147.2 647.082 147.92 648.082 148.4C649.122 148.88 650.722 149.36 652.882 149.84C655.362 150.48 657.382 151.12 658.942 151.76C660.502 152.36 661.862 153.36 663.022 154.76C664.222 156.12 664.842 157.96 664.882 160.28C664.882 162.24 664.322 164 663.202 165.56C662.122 167.08 660.542 168.28 658.462 169.16C656.422 170.04 654.042 170.48 651.322 170.48Z" fill="#FFD9EE"/>
<path d="M207.406 -63.3114C206.971 -63.0518 206.663 -62.621 206.549 -62.1137C206.435 -61.6065 206.524 -61.0645 206.798 -60.6068L238.756 -7.1125L205.98 12.4681C203.529 13.9406 201.419 15.9219 199.777 18.2919C198.135 20.6619 196.995 23.3711 196.427 26.2554C193.618 25.3882 190.692 25.1074 187.827 25.4301C184.962 25.7528 182.217 26.6722 179.759 28.1325L146.984 47.713L115.026 -5.78126C114.752 -6.23892 114.317 -6.5747 113.817 -6.71471C113.316 -6.85472 112.79 -6.78751 112.356 -6.52786C111.921 -6.2682 111.613 -5.83738 111.499 -5.33016C111.385 -4.82294 111.475 -4.28087 111.748 -3.82321L144.737 51.3967C145.01 51.8544 145.445 52.1902 145.946 52.3302C146.446 52.4702 146.972 52.403 147.407 52.1433L181.821 31.5837C184.113 30.2224 186.707 29.4385 189.398 29.2933C192.089 29.1481 194.804 29.6457 197.332 30.747C197.612 30.8701 197.914 30.9258 198.213 30.9097C198.512 30.8935 198.801 30.806 199.055 30.654C199.309 30.502 199.523 30.2898 199.679 30.034C199.835 29.7783 199.929 29.486 199.954 29.1805C200.182 26.433 201.031 23.8059 202.434 21.5051C203.837 19.2044 205.756 17.2925 208.042 15.9193L242.456 -4.64028C242.891 -4.89993 243.199 -5.33075 243.313 -5.83798C243.427 -6.34519 243.338 -6.88726 243.064 -7.34492L210.075 -62.5648C209.802 -63.0225 209.367 -63.3583 208.866 -63.4983C208.366 -63.6383 207.84 -63.5711 207.406 -63.3114Z" fill="#FFD9EE"/>
<path d="M141.538 8.8198C141.103 9.07945 140.795 9.51028 140.681 10.0175C140.567 10.5247 140.656 11.0668 140.93 11.5245L149.177 25.3294C149.45 25.7871 149.885 26.1229 150.386 26.2629C150.887 26.4029 151.412 26.3357 151.847 26.076L155.124 24.118C156.428 23.339 157.353 22.0465 157.695 20.5249C158.037 19.0032 157.768 17.377 156.948 16.004C156.128 14.631 154.823 13.6237 153.321 13.2037C151.819 12.7836 150.243 12.9853 148.939 13.7642L147.3 14.7433L144.207 9.5664C143.934 9.10873 143.499 8.77296 142.998 8.63295C142.498 8.49293 141.972 8.56015 141.538 8.8198ZM153.67 17.9621C153.944 18.4197 154.033 18.9618 153.919 19.469C153.805 19.9762 153.497 20.4071 153.063 20.6667L151.424 21.6458L149.362 18.1945L151.001 17.2155C151.435 16.9558 151.961 16.8886 152.461 17.0286C152.962 17.1686 153.397 17.5044 153.67 17.9621Z" fill="#FFD9EE"/>
<path d="M138.711 -18.6362L140.403 -0.915074C140.428 -0.654785 140.502 -0.39976 140.622 -0.164556C140.742 0.0706485 140.905 0.281424 141.102 0.455736C141.298 0.630048 141.525 0.764483 141.768 0.851366C142.012 0.93825 142.267 0.975881 142.52 0.96211C142.774 0.948336 143.019 0.883433 143.244 0.7711C143.468 0.65877 143.666 0.501208 143.828 0.307418C143.989 0.113628 144.11 -0.112599 144.184 -0.358344C144.258 -0.604088 144.283 -0.86454 144.258 -1.12483L143.74 -6.54477L149.908 -10.2298L154.435 -7.20459C154.874 -6.91104 155.401 -6.80311 155.9 -6.90452C156.399 -7.00594 156.829 -7.30839 157.096 -7.74536C157.363 -8.18233 157.444 -8.71801 157.322 -9.23455C157.201 -9.7511 156.886 -10.2062 156.447 -10.4998L141.644 -20.3886C141.333 -20.5656 140.986 -20.6587 140.637 -20.6589C140.288 -20.6591 139.949 -20.5663 139.653 -20.3897C139.358 -20.213 139.115 -19.9586 138.95 -19.6512C138.785 -19.3438 138.702 -18.9941 138.711 -18.6362ZM146.207 -12.7021L143.316 -10.975L142.943 -14.8825L146.207 -12.7021Z" fill="#FFD9EE"/>
<path d="M165.892 6.36342C166.067 6.25893 166.269 6.2057 166.476 6.20925C166.683 6.2128 166.888 6.273 167.069 6.38362C167.523 6.63462 168.046 6.698 168.527 6.56019C169.008 6.42237 169.409 6.09433 169.644 5.64627C169.878 5.19822 169.928 4.66578 169.782 4.16294C169.637 3.6601 169.307 3.22682 168.864 2.95589C167.881 2.37957 166.754 2.14358 165.659 2.28455C164.563 2.42552 163.56 2.93556 162.805 3.73552C162.051 4.53549 161.586 5.58065 161.484 6.70883C161.382 7.83701 161.648 8.98511 162.241 9.975L163.904 12.7584C164.494 13.7508 165.378 14.5305 166.42 14.9765C167.462 15.4225 168.603 15.5098 169.666 15.2248C170.729 14.9398 171.654 14.2986 172.298 13.4006C172.942 12.5026 173.268 11.3981 173.227 10.2587C173.198 9.74021 172.973 9.24455 172.599 8.87788C172.225 8.5112 171.733 8.30265 171.227 8.29687C170.722 8.29109 170.243 8.48855 169.893 8.84696C169.544 9.20537 169.352 9.69625 169.358 10.2145C169.369 10.4267 169.325 10.6356 169.23 10.8195C169.135 11.0035 168.993 11.1558 168.818 11.2607C168.686 11.3396 168.538 11.3902 168.385 11.4098C168.231 11.4293 168.074 11.4173 167.922 11.3746C167.77 11.3318 167.626 11.2591 167.499 11.1605C167.372 11.062 167.264 10.9396 167.182 10.8004L165.519 8.01694C165.352 7.73689 165.298 7.40548 165.368 7.09546C165.438 6.78544 165.626 6.52216 165.892 6.36342Z" fill="#FFD9EE"/>
<path d="M194.168 -1.82328C194.518 -1.83217 194.854 -1.93842 195.142 -2.1307C195.429 -2.32298 195.656 -2.59406 195.799 -2.91502L198.654 -9.30335C198.758 -9.53609 198.815 -9.78963 198.822 -10.0495C198.83 -10.3094 198.787 -10.5705 198.696 -10.8179C198.605 -11.0653 198.469 -11.2942 198.294 -11.4916C198.12 -11.6889 197.91 -11.8508 197.678 -11.968C197.446 -12.0852 197.196 -12.1554 196.942 -12.1746C196.687 -12.1938 196.434 -12.1616 196.197 -12.0799C195.959 -11.9982 195.742 -11.8685 195.557 -11.6984C195.372 -11.5282 195.223 -11.3208 195.12 -11.0881L193.745 -8.00987L187.424 -18.5914C187.15 -19.0491 186.716 -19.3848 186.215 -19.5248C185.714 -19.6649 185.189 -19.5976 184.754 -19.338L179.838 -16.4009C179.403 -16.1412 179.095 -15.7104 178.981 -15.2032C178.867 -14.696 178.956 -14.1539 179.23 -13.6963C179.503 -13.2386 179.938 -12.9028 180.439 -12.7628C180.939 -12.6228 181.465 -12.69 181.9 -12.9497L185.177 -14.9077L192.393 -2.82835C192.58 -2.51587 192.844 -2.25734 193.156 -2.08033C193.469 -1.90332 193.818 -1.81448 194.168 -1.82328Z" fill="#FFD9EE"/>
<path d="M137.467 20.6175C137.902 20.3578 138.21 19.927 138.324 19.4198C138.438 18.9126 138.348 18.3705 138.075 17.9128L118.488 -14.874L133.933 -24.1013C134.368 -24.361 134.676 -24.7918 134.79 -25.299C134.904 -25.8062 134.815 -26.3483 134.541 -26.806C134.268 -27.2636 133.833 -27.5994 133.332 -27.7394C132.832 -27.8794 132.306 -27.8122 131.872 -27.5526L114.787 -17.3462C114.353 -17.0866 114.044 -16.6557 113.93 -16.1485C113.816 -15.6413 113.906 -15.0992 114.179 -14.6416L134.797 19.8709C135.071 20.3286 135.506 20.6643 136.006 20.8043C136.507 20.9444 137.032 20.8771 137.467 20.6175Z" fill="#FFD9EE"/>
<path d="M149.838 41.325L176.924 25.1436C181.494 22.424 186.666 20.857 192.034 20.5656C192.061 20.5632 192.081 20.5372 192.115 20.5407C192.382 20.5153 192.639 20.4335 192.869 20.3005C193.093 20.1587 193.283 19.9695 193.427 19.745C193.445 19.7199 193.478 19.7146 193.492 19.6827C196.296 15.0963 200.129 11.2873 204.691 8.55495L231.777 -7.62641C232.212 -7.88607 232.52 -8.31689 232.634 -8.82411C232.748 -9.33133 232.659 -9.8734 232.385 -10.3311L199.396 -65.551C199.123 -66.0087 198.688 -66.3444 198.187 -66.4844C197.687 -66.6245 197.161 -66.5572 196.727 -66.2976L179.642 -56.0912C179.208 -55.8316 178.899 -55.4007 178.785 -54.8935C178.671 -54.3863 178.761 -53.8442 179.034 -53.3866C179.308 -52.9289 179.743 -52.5931 180.243 -52.4531C180.744 -52.3131 181.269 -52.3803 181.704 -52.64L197.15 -61.8673L228.077 -10.0986L202.63 5.1037C198.438 7.62088 194.793 10.9605 191.892 14.9419L170.797 -20.3678C170.524 -20.8255 170.089 -21.1613 169.588 -21.3013C169.088 -21.4413 168.562 -21.3741 168.128 -21.1144C167.693 -20.8548 167.385 -20.424 167.271 -19.9167C167.157 -19.4095 167.246 -18.8674 167.52 -18.4098L188.605 16.8844C183.726 17.5587 179.061 19.1907 174.862 21.6923L149.415 36.8947L142.199 24.8153C141.925 24.3577 141.49 24.0219 140.99 23.8819C140.489 23.7419 139.964 23.8091 139.529 24.0687C139.094 24.3284 138.786 24.7592 138.672 25.2664C138.558 25.7736 138.648 26.3157 138.921 26.7734L147.168 40.5784C147.442 41.036 147.877 41.3718 148.377 41.5118C148.878 41.6518 149.403 41.5846 149.838 41.325Z" fill="#FFD9EE"/>
<path d="M1000.24 65.3368C999.81 65.0772 999.502 64.6464 999.388 64.1391C999.274 63.6319 999.364 63.0899 999.637 62.6322L1031.59 9.13789L998.819 -10.4427C996.369 -11.9152 994.258 -13.8965 992.616 -16.2665C990.974 -18.6365 989.835 -21.3457 989.267 -24.23C986.458 -23.3628 983.532 -23.082 980.667 -23.4047C977.801 -23.7274 975.057 -24.6468 972.599 -26.1071L939.823 -45.6877L907.865 7.80665C907.591 8.26431 907.157 8.60009 906.656 8.7401C906.155 8.88012 905.63 8.8129 905.195 8.55325C904.761 8.29359 904.452 7.86277 904.338 7.35555C904.224 6.84833 904.314 6.30626 904.587 5.8486L937.576 -49.3713C937.85 -49.829 938.285 -50.1648 938.785 -50.3048C939.286 -50.4448 939.811 -50.3776 940.246 -50.1179L974.66 -29.5583C976.953 -28.197 979.546 -27.4131 982.237 -27.2679C984.928 -27.1227 987.644 -27.6203 990.171 -28.7216C990.452 -28.8447 990.754 -28.9004 991.053 -28.8843C991.352 -28.8681 991.64 -28.7806 991.894 -28.6286C992.149 -28.4766 992.362 -28.2644 992.518 -28.0086C992.674 -27.7529 992.768 -27.4607 992.793 -27.1551C993.021 -24.4076 993.87 -21.7805 995.273 -19.4797C996.676 -17.179 998.596 -15.2671 1000.88 -13.8939L1035.3 6.66567C1035.73 6.92532 1036.04 7.35614 1036.15 7.86337C1036.27 8.37058 1036.18 8.91265 1035.9 9.37031L1002.91 64.5902C1002.64 65.0479 1002.21 65.3837 1001.71 65.5237C1001.2 65.6637 1000.68 65.5965 1000.24 65.3368Z" fill="#FFD9EE"/>
<path d="M931.55 20.6616L933.242 2.94046C933.267 2.68018 933.342 2.42515 933.462 2.18995C933.582 1.95474 933.745 1.74397 933.941 1.56965C934.138 1.39534 934.364 1.26091 934.608 1.17402C934.851 1.08714 935.107 1.04951 935.36 1.06328C935.613 1.07705 935.859 1.14196 936.083 1.25429C936.307 1.36662 936.506 1.52418 936.667 1.71797C936.828 1.91176 936.949 2.13799 937.023 2.38373C937.097 2.62948 937.122 2.88993 937.097 3.15022L936.579 8.57017L942.747 12.2552L947.274 9.22998C947.713 8.93643 948.24 8.8285 948.739 8.92991C949.238 9.03133 949.668 9.33378 949.935 9.77075C950.202 10.2077 950.283 10.7434 950.162 11.2599C950.04 11.7765 949.725 12.2316 949.286 12.5251L934.484 22.414C934.172 22.591 933.825 22.6841 933.476 22.6843C933.127 22.6845 932.788 22.5917 932.493 22.4151C932.197 22.2384 931.955 21.984 931.789 21.6766C931.624 21.3692 931.542 21.0194 931.55 20.6616ZM939.047 14.7274L936.156 13.0004L935.783 16.9079L939.047 14.7274Z" fill="#FFD9EE"/>
<path d="M958.731 -4.33803C958.907 -4.23354 959.108 -4.18031 959.315 -4.18386C959.522 -4.18741 959.727 -4.24761 959.908 -4.35823C960.362 -4.60923 960.885 -4.67261 961.367 -4.5348C961.848 -4.39698 962.249 -4.06894 962.483 -3.62088C962.718 -3.17283 962.767 -2.64038 962.622 -2.13754C962.476 -1.6347 962.146 -1.20143 961.703 -0.930496C960.72 -0.354176 959.593 -0.118193 958.498 -0.259161C957.402 -0.400129 956.399 -0.910168 955.645 -1.71013C954.89 -2.5101 954.426 -3.55526 954.324 -4.68344C954.221 -5.81162 954.488 -6.95972 955.081 -7.94961L956.743 -10.733C957.333 -11.7254 958.218 -12.5051 959.26 -12.9511C960.302 -13.3971 961.442 -13.4844 962.505 -13.1994C963.568 -12.9144 964.493 -12.2732 965.137 -11.3752C965.781 -10.4772 966.108 -9.37271 966.066 -8.23333C966.037 -7.71482 965.812 -7.21916 965.438 -6.85249C965.065 -6.48581 964.572 -6.27726 964.067 -6.27148C963.561 -6.2657 963.082 -6.46316 962.733 -6.82157C962.383 -7.17998 962.191 -7.67086 962.197 -8.18912C962.208 -8.40131 962.164 -8.61019 962.069 -8.79414C961.974 -8.97809 961.832 -9.13041 961.657 -9.23534C961.525 -9.31419 961.378 -9.36484 961.224 -9.38437C961.07 -9.4039 960.913 -9.39195 960.761 -9.34918C960.609 -9.30641 960.465 -9.23367 960.338 -9.13514C960.211 -9.03661 960.104 -8.91421 960.021 -8.77498L958.358 -5.99155C958.191 -5.7115 958.137 -5.38009 958.207 -5.07007C958.277 -4.76005 958.465 -4.49677 958.731 -4.33803Z" fill="#FFD9EE"/>
<path d="M987.007 3.84867C987.357 3.85756 987.694 3.96381 987.981 4.15609C988.268 4.34837 988.496 4.61946 988.639 4.94041L991.493 11.3287C991.597 11.5615 991.655 11.815 991.662 12.0749C991.669 12.3348 991.626 12.5959 991.535 12.8433C991.445 13.0907 991.308 13.3196 991.134 13.517C990.959 13.7143 990.75 13.8762 990.517 13.9934C990.285 14.1106 990.035 14.1808 989.781 14.2C989.527 14.2192 989.274 14.187 989.036 14.1053C988.799 14.0236 988.581 13.8939 988.396 13.7237C988.211 13.5536 988.063 13.3462 987.959 13.1135L986.585 10.0353L980.263 20.6168C979.99 21.0744 979.555 21.4102 979.054 21.5502C978.554 21.6902 978.028 21.623 977.593 21.3634L972.677 18.4263C972.242 18.1666 971.934 17.7358 971.82 17.2286C971.706 16.7214 971.796 16.1793 972.069 15.7216C972.343 15.264 972.778 14.9282 973.278 14.7882C973.779 14.6482 974.304 14.7154 974.739 14.975L978.016 16.9331L985.233 4.85374C985.419 4.54126 985.683 4.28273 985.995 4.10572C986.308 3.92871 986.658 3.83987 987.007 3.84867Z" fill="#FFD9EE"/>
<path d="M976.562 23.0906C976.886 23.2843 977.143 23.5748 977.299 23.9254C977.455 24.276 977.504 24.6709 977.44 25.0602C977.375 25.4496 977.201 25.8159 976.937 26.1128C976.674 26.4098 976.335 26.624 975.961 26.7285L970.622 28.2216C970.125 28.3513 969.607 28.278 969.18 28.0173C968.752 27.7567 968.45 27.3297 968.337 26.8282C968.224 26.3267 968.311 25.791 968.577 25.3363C968.844 24.8816 969.269 24.5444 969.762 24.3973L975.102 22.9041C975.602 22.764 976.128 22.8311 976.562 23.0906Z" fill="#FFD9EE"/>
<path d="M993.32 47.1515C993.755 47.4112 994.063 47.842 994.177 48.3492C994.291 48.8564 994.201 49.3985 993.928 49.8562C993.655 50.3138 993.22 50.6496 992.719 50.7896C992.218 50.9296 991.693 50.8624 991.258 50.6028L976.509 41.7915C976.075 41.5319 975.766 41.101 975.652 40.5938C975.538 40.0866 975.628 39.5445 975.901 39.0869C976.175 38.6292 976.61 38.2934 977.11 38.1534C977.611 38.0134 978.136 38.0806 978.571 38.3403L983.269 41.1472L984.921 37.4512L980.633 34.889C980.198 34.6294 979.89 34.1986 979.776 33.6913C979.662 33.1841 979.751 32.6421 980.025 32.1844C980.298 31.7267 980.733 31.3909 981.234 31.2509C981.734 31.1109 982.26 31.1781 982.695 31.4378L986.574 33.7551L988.95 28.4408C988.993 28.3692 989.041 28.3006 989.093 28.2356L985.787 26.2609C985.353 26.0013 985.044 25.5704 984.93 25.0632C984.816 24.556 984.906 24.0139 985.179 23.5563C985.453 23.0986 985.888 22.7628 986.388 22.6228C986.889 22.4828 987.414 22.55 987.849 22.8097L1002.6 31.6209C1003.03 31.8806 1003.34 32.3114 1003.46 32.8186C1003.57 33.3258 1003.48 33.8679 1003.21 34.3256C1002.93 34.7832 1002.5 35.119 1002 35.259C1001.5 35.399 1000.97 35.3318 1000.54 35.0722L998.898 34.0931L994.774 40.9956C994.501 41.4533 994.066 41.7891 993.565 41.9291C993.064 42.0691 992.539 42.0019 992.104 41.7422L988.225 39.4249L986.573 43.1209L993.32 47.1515ZM992.527 37.312L995.62 32.1351L992.356 30.1849L989.877 35.7289L992.527 37.312Z" fill="#FFD9EE"/>
<path d="M1012.91 14.3637C1013.34 14.6233 1013.65 15.0542 1013.76 15.5614C1013.88 16.0686 1013.79 16.6107 1013.52 17.0683L1007.33 27.4221C1007.06 27.8797 1006.62 28.2155 1006.12 28.3555C1005.62 28.4955 1005.09 28.4283 1004.66 28.1687L991.55 20.3364C991.115 20.0768 990.807 19.646 990.693 19.1387C990.579 18.6315 990.668 18.0895 990.942 17.6318L997.127 7.27806C997.401 6.8204 997.835 6.48463 998.336 6.34461C998.837 6.2046 999.362 6.27181 999.797 6.53147C1000.23 6.79112 1000.54 7.22195 1000.65 7.72917C1000.77 8.23639 1000.68 8.77845 1000.4 9.23612L999.374 10.9617L1009.21 16.8359L1010.24 15.1103C1010.51 14.6526 1010.95 14.3168 1011.45 14.1768C1011.95 14.0368 1012.47 14.104 1012.91 14.3637ZM997.312 14.413L995.25 17.8642L1005.08 23.7384L1007.14 20.2872L997.312 14.413Z" fill="#FFD9EE"/>
<path d="M930.306 -18.5921C930.741 -18.3324 931.049 -17.9016 931.163 -17.3944C931.277 -16.8872 931.188 -16.3451 930.914 -15.8874L911.327 16.8994L926.773 26.1267C927.207 26.3864 927.516 26.8172 927.63 27.3244C927.744 27.8316 927.654 28.3737 927.381 28.8314C927.107 29.289 926.672 29.6248 926.172 29.7648C925.671 29.9048 925.146 29.8376 924.711 29.578L907.627 19.3716C907.192 19.112 906.884 18.6811 906.77 18.1739C906.656 17.6667 906.745 17.1246 907.019 16.667L927.637 -17.8455C927.91 -18.3032 928.345 -18.6389 928.846 -18.7789C929.346 -18.919 929.872 -18.8517 930.306 -18.5921Z" fill="#FFD9EE"/>
<path d="M942.677 -39.2996L969.763 -23.1182C974.333 -20.3987 979.505 -18.8316 984.873 -18.5402C984.901 -18.5378 984.921 -18.5118 984.954 -18.5153C985.221 -18.4899 985.478 -18.4081 985.709 -18.2751C985.932 -18.1333 986.122 -17.9441 986.266 -17.7196C986.285 -17.6945 986.317 -17.6892 986.331 -17.6573C989.135 -13.0709 992.968 -9.26195 997.531 -6.52956L1024.62 9.6518C1025.05 9.91146 1025.36 10.3423 1025.47 10.8495C1025.59 11.3567 1025.5 11.8988 1025.22 12.3565L992.236 67.5764C991.962 68.034 991.527 68.3698 991.027 68.5098C990.526 68.6498 990.001 68.5826 989.566 68.323L972.482 58.1166C972.047 57.857 971.739 57.4261 971.625 56.9189C971.511 56.4117 971.6 55.8696 971.874 55.412C972.147 54.9543 972.582 54.6185 973.083 54.4785C973.583 54.3385 974.109 54.4057 974.543 54.6654L989.989 63.8927L1020.92 12.124L995.469 -3.07831C991.278 -5.59549 987.633 -8.93507 984.731 -12.9165L963.637 22.3932C963.363 22.8509 962.929 23.1867 962.428 23.3267C961.927 23.4667 961.402 23.3995 960.967 23.1398C960.532 22.8802 960.224 22.4493 960.11 21.9421C959.996 21.4349 960.086 20.8928 960.359 20.4352L981.444 -14.859C976.566 -15.5333 971.901 -17.1653 967.701 -19.667L942.254 -34.8693L935.038 -22.7899C934.765 -22.3323 934.33 -21.9965 933.829 -21.8565C933.328 -21.7165 932.803 -21.7837 932.368 -22.0433C931.934 -22.303 931.625 -22.7338 931.511 -23.241C931.397 -23.7483 931.487 -24.2903 931.76 -24.748L940.008 -38.553C940.281 -39.0106 940.716 -39.3464 941.217 -39.4864C941.717 -39.6264 942.243 -39.5592 942.677 -39.2996Z" fill="#FFD9EE"/>
<path d="M958.905 26.5912C961.776 28.2845 964.22 30.62 966.066 33.433C967.911 36.2461 969.113 39.4683 969.586 42.8724C970.06 46.2765 969.793 49.7796 968.806 53.1348C967.818 56.4901 966.133 59.6157 963.87 62.2914C963.704 62.5027 963.5 62.6795 963.269 62.8115C963.039 62.9434 962.787 63.0277 962.528 63.0594C962.27 63.091 962.01 63.0695 961.765 62.9959C961.519 62.9223 961.293 62.7983 961.099 62.6311C960.905 62.464 960.748 62.2571 960.637 62.0227C960.525 61.7883 960.462 61.5313 960.451 61.2667C960.439 61.0022 960.48 60.7356 960.57 60.4828C960.661 60.2299 960.799 59.996 960.977 59.7947C962.755 57.6958 964.106 55.262 964.946 52.6462C965.786 50.0305 966.096 47.2894 965.857 44.5953C965.618 41.9012 964.834 39.3124 963.556 36.9915C962.278 34.6707 960.533 32.668 958.43 31.1095L956.972 33.5495L959.407 38.9845C959.58 39.3731 959.622 39.8152 959.524 40.2429C959.427 40.6706 959.197 41.06 958.869 41.3512L954.948 44.8322L956.23 56.3102C956.262 56.6025 956.231 56.9016 956.136 57.1856C956.042 57.4696 955.888 57.7313 955.685 57.9515C955.483 58.1716 955.236 58.3447 954.965 58.458C954.693 58.5713 954.403 58.6219 954.115 58.6061L947.707 58.2595C947.195 58.2332 946.724 57.9989 946.396 57.6082C946.069 57.2175 945.913 56.7024 945.962 56.1762C946.011 55.6499 946.261 55.1557 946.658 54.8022C947.054 54.4487 947.565 54.2649 948.076 54.2912L952.103 54.5076L950.972 44.3888C950.936 44.0617 950.98 43.7267 951.102 43.4144C951.223 43.102 951.417 42.8222 951.667 42.6005L955.257 39.4161L953.006 34.3811C952.878 34.0894 952.824 33.7665 952.847 33.441C952.871 33.1155 952.973 32.7973 953.143 32.5146L955.152 29.1514C952.283 27.8182 949.101 27.2583 945.896 27.5228L947.08 29.0357C947.384 29.4217 947.526 29.9188 947.478 30.4251L946.632 39.2857C946.598 39.6534 946.465 40.0089 946.248 40.3123C946.031 40.6156 945.738 40.8549 945.403 41.0033L937.931 44.2802L939.382 50.7362C939.441 50.9981 939.446 51.2721 939.398 51.5412C939.349 51.8103 939.247 52.0687 939.099 52.3005C938.95 52.5324 938.758 52.7326 938.534 52.8888C938.311 53.045 938.06 53.1538 937.798 53.2086L928.46 55.1603C929.189 57.103 930.221 58.8998 931.518 60.4828L937.481 55.199C937.761 54.9502 938.1 54.7839 938.459 54.719C938.819 54.6542 939.184 54.6933 939.514 54.8321C939.844 54.9708 940.125 55.2035 940.325 55.5037C940.525 55.804 940.636 56.1596 940.646 56.5302L940.912 66.507C945.738 67.7678 950.939 67.0386 955.423 64.4728C955.879 64.2104 956.41 64.14 956.899 64.277C957.389 64.4141 957.796 64.7474 958.031 65.2035C958.267 65.6597 958.311 66.2015 958.155 66.7096C957.999 67.2177 957.655 67.6505 957.199 67.9129C953.583 69.9971 949.54 71.0952 945.472 71.0969C941.405 71.0987 937.458 70.0042 934.025 67.923C930.593 65.8418 927.796 62.847 925.915 59.2387C924.033 55.6303 923.134 51.5351 923.306 47.3631C923.478 43.1912 924.717 39.0891 926.896 35.4678C929.076 31.8464 932.121 28.833 935.727 26.7293C939.332 24.6256 943.371 23.5055 947.439 23.4813C951.507 23.457 955.461 24.5295 958.905 26.5912ZM936.989 64.9407L936.878 60.8566L934.26 63.177C934.884 63.6797 935.541 64.1399 936.225 64.5549C936.471 64.7017 936.741 64.8089 936.989 64.9407ZM927.453 51.3529L935.149 49.7455L933.784 43.6762C933.681 43.2163 933.745 42.7261 933.965 42.2954C934.184 41.8648 934.544 41.5226 934.978 41.3315L942.9 37.8571L943.557 31.0027L941.528 28.4137C936.892 29.8822 932.88 33.0476 930.277 37.2904C927.673 41.5331 926.666 46.5478 927.453 51.3529Z" fill="#FFD9EE"/>
<path d="M173.813 267.04C174.248 267.3 174.556 267.731 174.67 268.238C174.784 268.745 174.695 269.287 174.421 269.745L142.463 323.239L175.239 342.82C177.689 344.292 179.8 346.273 181.442 348.643C183.084 351.013 184.223 353.723 184.792 356.607C187.6 355.74 190.526 355.459 193.392 355.782C196.257 356.104 199.002 357.024 201.459 358.484L234.235 378.065L266.193 324.57C266.467 324.113 266.902 323.777 267.402 323.637C267.903 323.497 268.428 323.564 268.863 323.824C269.298 324.083 269.606 324.514 269.72 325.021C269.834 325.529 269.744 326.071 269.471 326.528L236.482 381.748C236.208 382.206 235.774 382.542 235.273 382.682C234.772 382.822 234.247 382.755 233.812 382.495L199.398 361.935C197.105 360.574 194.512 359.79 191.821 359.645C189.13 359.5 186.415 359.997 183.887 361.099C183.606 361.222 183.305 361.277 183.005 361.261C182.706 361.245 182.418 361.158 182.164 361.006C181.909 360.854 181.696 360.641 181.54 360.386C181.384 360.13 181.29 359.838 181.265 359.532C181.037 356.785 180.188 354.157 178.785 351.857C177.382 349.556 175.462 347.644 173.177 346.271L138.763 325.711C138.328 325.452 138.02 325.021 137.906 324.514C137.792 324.006 137.881 323.464 138.155 323.007L171.144 267.787C171.417 267.329 171.852 266.993 172.353 266.853C172.853 266.713 173.379 266.78 173.813 267.04Z" fill="#FFD9EE"/>
<path d="M180.738 285.225C180.303 284.966 179.995 284.535 179.881 284.028C179.767 283.521 179.857 282.978 180.13 282.521C180.404 282.063 180.838 281.727 181.339 281.587C181.84 281.447 182.365 281.515 182.8 281.774L197.549 290.585C197.984 290.845 198.292 291.276 198.406 291.783C198.52 292.29 198.43 292.832 198.157 293.29C197.883 293.748 197.449 294.084 196.948 294.224C196.447 294.364 195.922 294.296 195.487 294.037L190.789 291.23L189.137 294.926L193.425 297.488C193.86 297.748 194.168 298.178 194.282 298.686C194.396 299.193 194.307 299.735 194.033 300.193C193.76 300.65 193.325 300.986 192.824 301.126C192.324 301.266 191.798 301.199 191.364 300.939L187.485 298.622L185.108 303.936C185.065 304.008 185.018 304.076 184.965 304.141L188.271 306.116C188.705 306.376 189.014 306.807 189.128 307.314C189.242 307.821 189.152 308.363 188.879 308.821C188.605 309.278 188.17 309.614 187.67 309.754C187.169 309.894 186.644 309.827 186.209 309.567L171.46 300.756C171.025 300.496 170.717 300.066 170.603 299.558C170.489 299.051 170.579 298.509 170.852 298.051C171.125 297.594 171.56 297.258 172.061 297.118C172.562 296.978 173.087 297.045 173.522 297.305L175.161 298.284L179.284 291.381C179.558 290.924 179.992 290.588 180.493 290.448C180.994 290.308 181.519 290.375 181.954 290.635L185.833 292.952L187.485 289.256L180.738 285.225ZM181.531 295.065L178.438 300.242L181.703 302.192L184.181 296.648L181.531 295.065Z" fill="#FFD9EE"/>
<path d="M231.381 371.677L204.295 355.495C199.725 352.776 194.553 351.209 189.185 350.917C189.157 350.915 189.137 350.889 189.104 350.892C188.837 350.867 188.58 350.785 188.349 350.652C188.126 350.51 187.936 350.321 187.792 350.097C187.773 350.071 187.741 350.066 187.727 350.034C184.923 345.448 181.09 341.639 176.527 338.907L149.441 322.725C149.007 322.465 148.699 322.035 148.585 321.527C148.471 321.02 148.56 320.478 148.834 320.02L181.822 264.801C182.096 264.343 182.531 264.007 183.031 263.867C183.532 263.727 184.058 263.794 184.492 264.054L201.577 274.26C202.011 274.52 202.319 274.951 202.433 275.458C202.547 275.965 202.458 276.507 202.184 276.965C201.911 277.423 201.476 277.758 200.975 277.898C200.475 278.038 199.949 277.971 199.515 277.712L184.069 268.484L153.142 320.253L178.589 335.455C182.781 337.972 186.426 341.312 189.327 345.293L210.421 309.984C210.695 309.526 211.13 309.19 211.63 309.05C212.131 308.91 212.656 308.977 213.091 309.237C213.526 309.497 213.834 309.928 213.948 310.435C214.062 310.942 213.972 311.484 213.699 311.942L192.614 347.236C197.492 347.91 202.157 349.542 206.357 352.044L231.804 367.246L239.02 355.167C239.294 354.709 239.728 354.373 240.229 354.233C240.73 354.093 241.255 354.161 241.69 354.42C242.124 354.68 242.433 355.111 242.547 355.618C242.661 356.125 242.571 356.667 242.298 357.125L234.05 370.93C233.777 371.388 233.342 371.723 232.842 371.863C232.341 372.003 231.815 371.936 231.381 371.677Z" fill="#FFD9EE"/>
<path d="M215.153 305.786C212.282 304.092 209.838 301.757 207.993 298.944C206.147 296.131 204.945 292.909 204.472 289.505C203.998 286.1 204.265 282.597 205.253 279.242C206.24 275.887 207.925 272.761 210.188 270.086C210.354 269.874 210.558 269.697 210.789 269.565C211.019 269.434 211.271 269.349 211.53 269.318C211.788 269.286 212.048 269.307 212.294 269.381C212.539 269.455 212.765 269.579 212.959 269.746C213.153 269.913 213.31 270.12 213.421 270.354C213.533 270.589 213.596 270.846 213.607 271.11C213.619 271.375 213.578 271.641 213.488 271.894C213.397 272.147 213.259 272.381 213.081 272.582C211.303 274.681 209.952 277.115 209.112 279.731C208.272 282.346 207.962 285.088 208.201 287.782C208.44 290.476 209.224 293.065 210.502 295.385C211.78 297.706 213.525 299.709 215.628 301.268L217.086 298.827L214.651 293.392C214.478 293.004 214.436 292.562 214.534 292.134C214.631 291.706 214.861 291.317 215.189 291.026L219.11 287.545L217.828 276.067C217.796 275.774 217.827 275.475 217.922 275.191C218.016 274.907 218.17 274.646 218.373 274.425C218.575 274.205 218.822 274.032 219.093 273.919C219.365 273.806 219.655 273.755 219.943 273.771L226.351 274.117C226.863 274.144 227.334 274.378 227.662 274.769C227.989 275.159 228.145 275.675 228.096 276.201C228.047 276.727 227.797 277.221 227.4 277.575C227.004 277.928 226.494 278.112 225.982 278.086L221.955 277.869L223.086 287.988C223.122 288.315 223.078 288.65 222.957 288.963C222.835 289.275 222.641 289.555 222.391 289.776L218.801 292.961L221.052 297.996C221.18 298.288 221.234 298.61 221.211 298.936C221.187 299.261 221.085 299.58 220.915 299.862L218.906 303.226C221.775 304.559 224.957 305.119 228.162 304.854L226.978 303.341C226.674 302.955 226.532 302.458 226.58 301.952L227.426 293.091C227.46 292.724 227.593 292.368 227.81 292.065C228.027 291.761 228.32 291.522 228.655 291.374L236.127 288.097L234.676 281.641C234.617 281.379 234.612 281.105 234.661 280.836C234.709 280.567 234.811 280.308 234.96 280.076C235.108 279.845 235.3 279.644 235.524 279.488C235.747 279.332 235.998 279.223 236.26 279.168L245.598 277.217C244.869 275.274 243.837 273.477 242.54 271.894L236.577 277.178C236.297 277.427 235.958 277.593 235.599 277.658C235.239 277.723 234.874 277.684 234.544 277.545C234.214 277.406 233.933 277.173 233.733 276.873C233.533 276.573 233.422 276.217 233.412 275.847L233.146 265.87C228.32 264.609 223.119 265.338 218.636 267.904C218.179 268.167 217.648 268.237 217.159 268.1C216.67 267.963 216.262 267.63 216.027 267.173C215.791 266.717 215.747 266.175 215.903 265.667C216.059 265.159 216.403 264.726 216.859 264.464C220.475 262.38 224.519 261.282 228.586 261.28C232.653 261.278 236.6 262.373 240.033 264.454C243.465 266.535 246.262 269.53 248.143 273.138C250.025 276.747 250.924 280.842 250.752 285.014C250.58 289.186 249.342 293.288 247.162 296.909C244.982 300.531 241.937 303.544 238.331 305.648C234.726 307.751 230.687 308.871 226.619 308.896C222.551 308.92 218.597 307.847 215.153 305.786ZM237.069 267.436L237.18 271.52L239.798 269.2C239.174 268.697 238.517 268.237 237.833 267.822C237.587 267.675 237.317 267.568 237.069 267.436ZM246.605 281.024L238.91 282.632L240.274 288.701C240.377 289.161 240.313 289.651 240.094 290.082C239.874 290.512 239.514 290.854 239.08 291.045L231.158 294.52L230.501 301.374L232.53 303.963C237.166 302.495 241.178 299.329 243.781 295.087C246.385 290.844 247.392 285.829 246.605 281.024Z" fill="#FFD9EE"/>
<path d="M819.423 107.759C822.294 109.452 824.738 111.788 826.584 114.601C828.429 117.414 829.631 120.636 830.104 124.04C830.578 127.444 830.311 130.948 829.324 134.303C828.336 137.658 826.651 140.784 824.388 143.459C824.222 143.671 824.018 143.848 823.787 143.979C823.557 144.111 823.305 144.196 823.046 144.227C822.788 144.259 822.528 144.237 822.283 144.164C822.037 144.09 821.811 143.966 821.617 143.799C821.423 143.632 821.266 143.425 821.155 143.191C821.043 142.956 820.98 142.699 820.969 142.435C820.957 142.17 820.998 141.904 821.088 141.651C821.179 141.398 821.317 141.164 821.495 140.963C823.273 138.864 824.625 136.43 825.464 133.814C826.304 131.198 826.614 128.457 826.375 125.763C826.136 123.069 825.353 120.48 824.074 118.159C822.796 115.839 821.051 113.836 818.948 112.277L817.49 114.717L819.925 120.152C820.098 120.541 820.14 120.983 820.043 121.411C819.945 121.839 819.715 122.228 819.387 122.519L815.466 126L816.748 137.478C816.781 137.77 816.749 138.07 816.655 138.354C816.56 138.638 816.406 138.899 816.204 139.119C816.001 139.34 815.755 139.513 815.483 139.626C815.211 139.739 814.921 139.79 814.633 139.774L808.225 139.427C807.713 139.401 807.242 139.167 806.915 138.776C806.587 138.385 806.431 137.87 806.48 137.344C806.529 136.818 806.779 136.324 807.176 135.97C807.572 135.617 808.083 135.433 808.594 135.459L812.621 135.676L811.49 125.557C811.454 125.23 811.498 124.895 811.62 124.582C811.741 124.27 811.935 123.99 812.185 123.769L815.775 120.584L813.524 115.549C813.396 115.257 813.342 114.934 813.366 114.609C813.389 114.283 813.491 113.965 813.661 113.683L815.67 110.319C812.801 108.986 809.619 108.426 806.414 108.691L807.599 110.204C807.902 110.59 808.044 111.087 807.996 111.593L807.15 120.454C807.116 120.821 806.983 121.177 806.766 121.48C806.549 121.784 806.257 122.023 805.921 122.171L798.449 125.448L799.9 131.904C799.959 132.166 799.964 132.44 799.916 132.709C799.867 132.978 799.765 133.237 799.617 133.469C799.468 133.7 799.276 133.901 799.052 134.057C798.829 134.213 798.578 134.322 798.316 134.377L788.978 136.328C789.707 138.271 790.739 140.068 792.036 141.651L797.999 136.367C798.279 136.118 798.618 135.952 798.978 135.887C799.337 135.822 799.703 135.861 800.032 136C800.362 136.139 800.643 136.371 800.843 136.672C801.043 136.972 801.154 137.328 801.164 137.698L801.43 147.675C806.256 148.936 811.457 148.207 815.941 145.641C816.397 145.378 816.928 145.308 817.417 145.445C817.907 145.582 818.314 145.915 818.549 146.372C818.785 146.828 818.829 147.369 818.673 147.878C818.517 148.386 818.173 148.818 817.717 149.081C814.101 151.165 810.058 152.263 805.991 152.265C801.924 152.267 797.976 151.172 794.544 149.091C791.111 147.01 788.314 144.015 786.433 140.407C784.551 136.798 783.652 132.703 783.824 128.531C783.997 124.359 785.235 120.257 787.415 116.636C789.594 113.014 792.64 110.001 796.245 107.897C799.85 105.794 803.889 104.673 807.957 104.649C812.025 104.625 815.979 105.697 819.423 107.759ZM797.507 146.109L797.396 142.025L794.778 144.345C795.402 144.848 796.059 145.308 796.744 145.723C796.989 145.87 797.259 145.977 797.507 146.109ZM787.971 132.521L795.667 130.913L794.303 124.844C794.199 124.384 794.263 123.894 794.483 123.463C794.702 123.033 795.062 122.691 795.496 122.499L803.418 119.025L804.075 112.171L802.046 109.582C797.41 111.05 793.398 114.216 790.795 118.458C788.192 122.701 787.184 127.716 787.971 132.521Z" fill="#FFD9EE"/>
<path d="M182.961 149.49C184.057 150.136 184.99 151.028 185.694 152.102C186.399 153.176 186.858 154.406 187.038 155.706C187.219 157.005 187.117 158.343 186.74 159.624C186.363 160.905 185.72 162.098 184.856 163.12C184.793 163.2 184.715 163.268 184.627 163.318C184.539 163.369 184.442 163.401 184.344 163.413C184.245 163.425 184.146 163.417 184.052 163.389C183.958 163.361 183.872 163.313 183.798 163.25C183.724 163.186 183.664 163.107 183.622 163.017C183.579 162.928 183.555 162.83 183.551 162.729C183.546 162.628 183.562 162.526 183.596 162.429C183.631 162.333 183.684 162.243 183.751 162.167C184.43 161.365 184.946 160.436 185.267 159.437C185.588 158.439 185.706 157.392 185.615 156.364C185.523 155.335 185.224 154.347 184.736 153.46C184.248 152.574 183.582 151.81 182.779 151.215L182.222 152.146L183.152 154.221C183.218 154.37 183.234 154.539 183.197 154.702C183.16 154.865 183.072 155.014 182.947 155.125L181.45 156.454L181.939 160.836C181.952 160.948 181.939 161.062 181.903 161.17C181.867 161.279 181.809 161.379 181.731 161.463C181.654 161.547 181.56 161.613 181.456 161.656C181.352 161.699 181.242 161.719 181.132 161.713L178.685 161.58C178.49 161.57 178.31 161.481 178.185 161.332C178.06 161.183 178 160.986 178.019 160.785C178.038 160.584 178.133 160.395 178.284 160.26C178.436 160.126 178.631 160.055 178.826 160.065L180.364 160.148L179.932 156.285C179.918 156.16 179.935 156.032 179.981 155.913C180.027 155.793 180.102 155.687 180.197 155.602L181.568 154.386L180.708 152.464C180.659 152.352 180.639 152.229 180.648 152.105C180.657 151.981 180.696 151.859 180.761 151.751L181.528 150.467C180.432 149.958 179.217 149.744 177.994 149.845L178.446 150.423C178.562 150.57 178.616 150.76 178.598 150.953L178.275 154.336C178.262 154.477 178.211 154.613 178.128 154.728C178.045 154.844 177.934 154.935 177.806 154.992L174.953 156.243L175.507 158.708C175.529 158.808 175.531 158.913 175.513 159.015C175.494 159.118 175.455 159.217 175.398 159.305C175.342 159.394 175.268 159.47 175.183 159.53C175.098 159.59 175.002 159.631 174.902 159.652L171.337 160.397C171.615 161.139 172.009 161.825 172.504 162.429L174.781 160.412C174.888 160.317 175.017 160.253 175.154 160.229C175.292 160.204 175.431 160.219 175.557 160.272C175.683 160.325 175.79 160.414 175.867 160.528C175.943 160.643 175.986 160.779 175.989 160.92L176.091 164.729C177.934 165.211 179.919 164.932 181.631 163.953C181.805 163.852 182.008 163.826 182.195 163.878C182.381 163.93 182.537 164.057 182.627 164.232C182.717 164.406 182.734 164.613 182.674 164.807C182.615 165.001 182.483 165.166 182.309 165.266C180.929 166.062 179.385 166.481 177.832 166.482C176.279 166.482 174.772 166.065 173.462 165.27C172.151 164.475 171.083 163.332 170.365 161.954C169.647 160.577 169.303 159.013 169.369 157.42C169.435 155.827 169.908 154.261 170.74 152.879C171.572 151.496 172.735 150.346 174.111 149.542C175.488 148.739 177.03 148.312 178.583 148.302C180.136 148.293 181.646 148.703 182.961 149.49ZM174.593 164.131L174.551 162.572L173.551 163.458C173.789 163.65 174.04 163.826 174.302 163.984C174.395 164.04 174.498 164.081 174.593 164.131ZM170.952 158.944L173.89 158.33L173.37 156.013C173.33 155.837 173.355 155.65 173.438 155.485C173.522 155.321 173.659 155.19 173.825 155.117L176.85 153.791L177.101 151.174L176.326 150.186C174.556 150.746 173.024 151.955 172.03 153.575C171.036 155.194 170.652 157.109 170.952 158.944Z" fill="#FFD9EE"/>
<path d="M982.961 249.49C984.057 250.136 984.99 251.028 985.694 252.102C986.399 253.176 986.858 254.406 987.038 255.706C987.219 257.005 987.117 258.343 986.74 259.624C986.363 260.905 985.72 262.098 984.856 263.12C984.793 263.2 984.715 263.268 984.627 263.318C984.539 263.369 984.442 263.401 984.344 263.413C984.245 263.425 984.146 263.417 984.052 263.389C983.958 263.361 983.872 263.313 983.798 263.25C983.724 263.186 983.664 263.107 983.622 263.017C983.579 262.928 983.555 262.83 983.551 262.729C983.546 262.628 983.562 262.526 983.596 262.429C983.631 262.333 983.684 262.243 983.751 262.167C984.43 261.365 984.946 260.436 985.267 259.437C985.588 258.439 985.706 257.392 985.615 256.364C985.523 255.335 985.224 254.347 984.736 253.46C984.248 252.574 983.582 251.81 982.779 251.215L982.222 252.146L983.152 254.221C983.218 254.37 983.234 254.539 983.197 254.702C983.16 254.865 983.072 255.014 982.947 255.125L981.45 256.454L981.939 260.836C981.952 260.948 981.939 261.062 981.903 261.17C981.867 261.279 981.809 261.379 981.731 261.463C981.654 261.547 981.56 261.613 981.456 261.656C981.352 261.699 981.242 261.719 981.132 261.713L978.685 261.58C978.49 261.57 978.31 261.481 978.185 261.332C978.06 261.183 978 260.986 978.019 260.785C978.038 260.584 978.133 260.395 978.284 260.26C978.436 260.126 978.631 260.055 978.826 260.065L980.364 260.148L979.932 256.285C979.918 256.16 979.935 256.032 979.981 255.913C980.027 255.793 980.102 255.687 980.197 255.602L981.568 254.386L980.708 252.464C980.659 252.352 980.639 252.229 980.648 252.105C980.657 251.981 980.696 251.859 980.761 251.751L981.528 250.467C980.432 249.958 979.217 249.744 977.994 249.845L978.446 250.423C978.562 250.57 978.616 250.76 978.598 250.953L978.275 254.336C978.262 254.477 978.211 254.613 978.128 254.728C978.045 254.844 977.934 254.935 977.806 254.992L974.953 256.243L975.507 258.708C975.529 258.808 975.531 258.913 975.513 259.015C975.494 259.118 975.455 259.217 975.398 259.305C975.342 259.394 975.268 259.47 975.183 259.53C975.098 259.59 975.002 259.631 974.902 259.652L971.337 260.397C971.615 261.139 972.009 261.825 972.504 262.429L974.781 260.412C974.888 260.317 975.017 260.253 975.154 260.229C975.292 260.204 975.431 260.219 975.557 260.272C975.683 260.325 975.79 260.414 975.867 260.528C975.943 260.643 975.986 260.779 975.989 260.92L976.091 264.729C977.934 265.211 979.919 264.932 981.631 263.953C981.805 263.852 982.008 263.826 982.195 263.878C982.381 263.93 982.537 264.057 982.627 264.232C982.717 264.406 982.734 264.613 982.674 264.807C982.615 265.001 982.483 265.166 982.309 265.266C980.929 266.062 979.385 266.481 977.832 266.482C976.279 266.482 974.772 266.065 973.462 265.27C972.151 264.475 971.083 263.332 970.365 261.954C969.647 260.577 969.303 259.013 969.369 257.42C969.435 255.827 969.908 254.261 970.74 252.879C971.572 251.496 972.735 250.346 974.111 249.542C975.488 248.739 977.03 248.312 978.583 248.302C980.136 248.293 981.646 248.703 982.961 249.49ZM974.593 264.131L974.551 262.572L973.551 263.458C973.789 263.65 974.04 263.826 974.302 263.984C974.395 264.04 974.498 264.081 974.593 264.131ZM970.952 258.944L973.89 258.33L973.37 256.013C973.33 255.837 973.355 255.65 973.438 255.485C973.522 255.321 973.659 255.19 973.825 255.117L976.85 253.791L977.101 251.174L976.326 250.186C974.556 250.746 973.024 251.955 972.03 253.575C971.036 255.194 970.652 257.109 970.952 258.944Z" fill="#FFD9EE"/>
<path d="M40.9606 25.4897C42.0565 26.1362 42.9897 27.0279 43.6943 28.1019C44.3989 29.1759 44.8577 30.4061 45.0385 31.7058C45.2192 33.0054 45.1175 34.3429 44.7404 35.6239C44.3634 36.9049 43.7202 38.0982 42.8562 39.1198C42.7927 39.2005 42.7147 39.268 42.6266 39.3184C42.5386 39.3687 42.4424 39.4009 42.3437 39.413C42.2451 39.4251 42.1459 39.4169 42.0522 39.3888C41.9585 39.3607 41.8721 39.3133 41.7981 39.2495C41.7241 39.1857 41.6641 39.1067 41.6216 39.0172C41.579 38.9277 41.5549 38.8296 41.5505 38.7286C41.5462 38.6276 41.5617 38.5258 41.5962 38.4293C41.6307 38.3328 41.6835 38.2434 41.7514 38.1666C42.4303 37.3653 42.9463 36.436 43.267 35.4374C43.5876 34.4387 43.706 33.3922 43.6147 32.3636C43.5233 31.335 43.2243 30.3466 42.7363 29.4605C42.2483 28.5744 41.5819 27.8098 40.779 27.2148L40.2224 28.1463L41.1519 30.2214C41.2182 30.3697 41.234 30.5386 41.1969 30.7018C41.1598 30.8651 41.0719 31.0138 40.9466 31.125L39.4497 32.454L39.939 36.8362C39.9515 36.9478 39.9394 37.062 39.9034 37.1705C39.8675 37.2789 39.8086 37.3788 39.7312 37.4629C39.6538 37.5469 39.5598 37.613 39.4561 37.6562C39.3523 37.6995 39.2415 37.7188 39.1318 37.7128L36.6851 37.5805C36.4897 37.5704 36.3097 37.481 36.1848 37.3318C36.0598 37.1826 36.0001 36.986 36.0188 36.7851C36.0375 36.5841 36.1331 36.3955 36.2845 36.2605C36.4359 36.1255 36.6307 36.0554 36.8261 36.0654L38.3635 36.148L37.9318 32.2847C37.9178 32.1598 37.9348 32.0319 37.9811 31.9127C38.0275 31.7934 38.1017 31.6866 38.1971 31.602L39.5678 30.3862L38.7083 28.4639C38.6594 28.3525 38.6386 28.2292 38.6477 28.1049C38.6568 27.9806 38.6956 27.8592 38.7605 27.7512L39.5276 26.4672C38.4323 25.9582 37.2174 25.7444 35.9938 25.8454L36.4459 26.423C36.5617 26.5704 36.616 26.7602 36.5976 26.9535L36.2746 30.3364C36.2616 30.4768 36.2108 30.6125 36.128 30.7283C36.0452 30.8441 35.9335 30.9355 35.8056 30.9922L32.9527 32.2433L33.5067 34.7081C33.5292 34.8081 33.5312 34.9127 33.5126 35.0154C33.494 35.1182 33.4552 35.2169 33.3985 35.3054C33.3418 35.3939 33.2684 35.4703 33.183 35.53C33.0976 35.5896 33.002 35.6312 32.902 35.6521L29.3368 36.3972C29.615 37.1389 30.0091 37.8249 30.5042 38.4293L32.7808 36.412C32.8878 36.317 33.0172 36.2535 33.1545 36.2287C33.2917 36.204 33.4313 36.2189 33.5572 36.2719C33.6831 36.3249 33.7904 36.4137 33.8668 36.5283C33.9432 36.6429 33.9856 36.7787 33.9892 36.9202L34.0908 40.7293C35.9335 41.2106 37.9192 40.9323 39.6308 39.9526C39.8051 39.8525 40.0079 39.8256 40.1947 39.8779C40.3815 39.9302 40.5369 40.0575 40.6268 40.2316C40.7168 40.4058 40.7338 40.6126 40.6742 40.8066C40.6146 41.0006 40.4832 41.1659 40.309 41.2661C38.9286 42.0618 37.3848 42.481 35.832 42.4817C34.2792 42.4824 32.7721 42.0645 31.4616 41.2699C30.1511 40.4753 29.0832 39.332 28.365 37.9543C27.6467 36.5767 27.3032 35.0131 27.369 33.4203C27.4348 31.8275 27.9075 30.2613 28.7398 28.8787C29.572 27.4961 30.7347 26.3456 32.1111 25.5424C33.4876 24.7392 35.0297 24.3116 36.5828 24.3024C38.1359 24.2931 39.6456 24.7026 40.9606 25.4897ZM32.593 40.1313L32.5508 38.572L31.5512 39.4579C31.7895 39.6499 32.0401 39.8256 32.3015 39.984C32.3954 40.0401 32.4983 40.081 32.593 40.1313ZM28.9522 34.9436L31.8904 34.3299L31.3696 32.0127C31.3302 31.837 31.3546 31.6499 31.4383 31.4855C31.5221 31.3211 31.6595 31.1904 31.8254 31.1175L34.8499 29.7909L35.1007 27.174L34.3261 26.1855C32.5562 26.7462 31.0243 27.9547 30.0304 29.5746C29.0364 31.1944 28.652 33.109 28.9522 34.9436Z" fill="#FFD9EE"/>
<path d="M34.0244 233.831C33.5411 233.68 33.0145 233.737 32.5604 233.99C32.1063 234.243 31.762 234.672 31.6031 235.18L26.8105 250.531C26.6517 251.039 26.6913 251.587 26.9206 252.054C27.15 252.521 27.5504 252.867 28.0337 253.018L31.6781 254.156C33.1279 254.609 34.7077 254.436 36.07 253.677C37.4322 252.918 38.4653 251.633 38.9419 250.107C39.4186 248.58 39.2998 246.936 38.6116 245.536C37.9235 244.137 36.7223 243.096 35.2725 242.644L33.4503 242.075L35.2475 236.318C35.4064 235.809 35.3668 235.261 35.1374 234.795C34.908 234.328 34.5076 233.982 34.0244 233.831ZM35.2975 248.969C35.1386 249.478 34.7943 249.906 34.3402 250.159C33.8861 250.412 33.3595 250.469 32.8762 250.319L31.054 249.75L32.2522 245.912L34.0744 246.481C34.5576 246.632 34.958 246.979 35.1874 247.445C35.4168 247.912 35.4564 248.46 35.2975 248.969Z" fill="#FFD9EE"/>
<path d="M52.6056 213.421L40.5242 226.495C40.3468 226.687 40.2064 226.913 40.1111 227.159C40.0157 227.405 39.9672 227.667 39.9683 227.93C39.9695 228.193 40.0203 228.451 40.1178 228.69C40.2153 228.93 40.3576 229.145 40.5366 229.325C40.7156 229.504 40.9278 229.644 41.161 229.737C41.3943 229.829 41.644 229.872 41.896 229.863C42.148 229.854 42.3974 229.793 42.6297 229.684C42.8621 229.576 43.073 229.421 43.2504 229.229L46.9449 225.229L53.8036 227.371L54.5663 232.762C54.6401 233.285 54.911 233.749 55.3192 234.054C55.7275 234.358 56.2398 234.477 56.7433 234.385C57.2469 234.292 57.7005 233.996 58.0043 233.561C58.3082 233.126 58.4374 232.588 58.3636 232.065L55.8673 214.439C55.7918 214.089 55.6299 213.768 55.3974 213.508C55.1649 213.248 54.8698 213.057 54.541 212.954C54.2122 212.852 53.861 212.841 53.5217 212.922C53.1825 213.004 52.8668 213.176 52.6056 213.421ZM53.1796 222.964L49.9652 221.961L52.6291 219.078L53.1796 222.964Z" fill="#FFD9EE"/>
<path d="M52.0903 250.346C52.2851 250.407 52.4592 250.521 52.5945 250.678C52.7298 250.835 52.8215 251.028 52.86 251.237C52.9752 251.742 53.2768 252.174 53.7003 252.441C54.1238 252.708 54.6355 252.788 55.1259 252.664C55.6163 252.54 56.0463 252.223 56.324 251.779C56.6016 251.335 56.7048 250.8 56.6114 250.289C56.3856 249.172 55.8104 248.175 54.9751 247.453C54.1398 246.73 53.091 246.322 51.9916 246.293C50.8922 246.264 49.8035 246.614 48.8946 247.29C47.9856 247.966 47.3072 248.93 46.9646 250.032L45.9983 253.127C45.6518 254.228 45.6602 255.407 46.0223 256.481C46.3844 257.555 47.0799 258.464 48.0008 259.066C48.9217 259.668 50.0165 259.93 51.1151 259.812C52.2136 259.693 53.2546 259.2 54.0762 258.41C54.4436 258.043 54.6629 257.544 54.6871 257.021C54.7113 256.498 54.5385 255.992 54.2057 255.611C53.8729 255.231 53.4065 255.005 52.9064 254.984C52.4064 254.962 51.9123 255.146 51.5301 255.496C51.3795 255.646 51.1944 255.753 50.994 255.804C50.7936 255.856 50.5851 255.852 50.3901 255.791C50.2433 255.745 50.1076 255.669 49.9905 255.568C49.8735 255.466 49.7775 255.341 49.7081 255.199C49.6386 255.057 49.5971 254.902 49.5859 254.741C49.5747 254.581 49.594 254.419 49.6427 254.265L50.609 251.17C50.7067 250.859 50.9175 250.597 51.1952 250.443C51.4729 250.288 51.7948 250.253 52.0903 250.346Z" fill="#FFD9EE"/>
<path d="M843.657 259.446C843.202 259.668 842.858 260.071 842.7 260.566C842.543 261.062 842.586 261.61 842.819 262.089L849.852 276.551C850.085 277.03 850.489 277.402 850.976 277.584C851.463 277.767 851.992 277.745 852.447 277.524L855.881 275.854C857.247 275.19 858.279 273.981 858.75 272.495C859.222 271.008 859.093 269.365 858.394 267.926C857.695 266.488 856.481 265.373 855.021 264.825C853.56 264.278 851.973 264.343 850.607 265.008L848.89 265.842L846.253 260.419C846.02 259.94 845.615 259.568 845.128 259.386C844.642 259.203 844.112 259.225 843.657 259.446ZM854.96 269.596C855.194 270.075 855.236 270.623 855.079 271.119C854.922 271.614 854.578 272.017 854.123 272.239L852.406 273.073L850.648 269.458L852.365 268.623C852.82 268.402 853.349 268.38 853.836 268.562C854.323 268.745 854.727 269.117 854.96 269.596Z" fill="#FFD9EE"/>
<path d="M843.196 231.849L843.362 249.65C843.364 249.912 843.417 250.172 843.516 250.417C843.615 250.661 843.759 250.885 843.94 251.076C844.121 251.266 844.335 251.42 844.571 251.527C844.806 251.635 845.057 251.694 845.31 251.702C845.564 251.71 845.814 251.667 846.047 251.574C846.28 251.481 846.492 251.341 846.669 251.162C846.846 250.983 846.986 250.768 847.081 250.529C847.176 250.291 847.223 250.033 847.22 249.772L847.169 244.327L853.631 241.185L857.881 244.588C858.294 244.918 858.809 245.071 859.315 245.012C859.821 244.954 860.276 244.69 860.579 244.277C860.882 243.865 861.01 243.338 860.933 242.813C860.856 242.288 860.581 241.808 860.169 241.477L846.269 230.355C845.974 230.152 845.637 230.029 845.289 229.999C844.941 229.969 844.596 230.032 844.286 230.183C843.976 230.334 843.713 230.566 843.522 230.858C843.331 231.151 843.219 231.492 843.196 231.849ZM850.156 238.405L847.128 239.877L847.091 235.952L850.156 238.405Z" fill="#FFD9EE"/>
<path d="M868.132 259.088C868.316 258.999 868.521 258.963 868.727 258.984C868.933 259.006 869.132 259.083 869.303 259.209C869.734 259.498 870.25 259.606 870.741 259.51C871.232 259.414 871.66 259.122 871.932 258.695C872.204 258.269 872.299 257.743 872.197 257.229C872.095 256.716 871.804 256.256 871.386 255.948C870.456 255.289 869.353 254.958 868.25 255.004C867.146 255.05 866.103 255.473 865.283 256.205C864.462 256.937 863.91 257.939 863.711 259.054C863.513 260.169 863.679 261.336 864.185 262.373L865.603 265.289C866.106 266.328 866.92 267.181 867.92 267.715C868.919 268.248 870.049 268.433 871.132 268.24C872.215 268.048 873.192 267.488 873.911 266.649C874.629 265.809 875.049 264.737 875.106 263.598C875.122 263.079 874.94 262.566 874.599 262.169C874.258 261.771 873.785 261.521 873.282 261.472C872.779 261.423 872.285 261.578 871.906 261.906C871.527 262.233 871.293 262.705 871.255 263.222C871.248 263.434 871.186 263.639 871.076 263.814C870.965 263.989 870.81 264.129 870.627 264.218C870.489 264.285 870.338 264.323 870.183 264.329C870.028 264.336 869.872 264.31 869.725 264.255C869.577 264.199 869.44 264.114 869.322 264.005C869.204 263.896 869.107 263.765 869.037 263.619L867.619 260.703C867.477 260.41 867.451 260.075 867.547 259.772C867.643 259.469 867.854 259.223 868.132 259.088Z" fill="#FFD9EE"/>
<path d="M578.66 7.79849C578.174 7.65769 577.766 7.31922 577.527 6.85756C577.288 6.3959 577.237 5.84886 577.385 5.33677L581.858 -10.1097C582.006 -10.6217 582.341 -11.0569 582.79 -11.3194C583.239 -11.582 583.764 -11.6504 584.25 -11.5095L587.918 -10.4477C589.377 -10.0253 590.599 -9.0099 591.316 -7.62491C592.033 -6.23993 592.186 -4.5988 591.741 -3.06256C591.297 -1.52632 590.29 -0.220803 588.944 0.566787C587.598 1.35438 586.022 1.55953 584.563 1.13711L582.73 0.606193L581.053 6.3986C580.904 6.91068 580.569 7.34586 580.12 7.60839C579.671 7.87092 579.146 7.9393 578.66 7.79849ZM588.074 -4.12439C588.222 -4.63647 588.171 -5.18351 587.932 -5.64518C587.693 -6.10684 587.286 -6.4453 586.799 -6.58611L584.966 -7.11702L583.848 -3.25541L585.681 -2.7245C586.168 -2.58369 586.693 -2.65207 587.142 -2.9146C587.59 -3.17713 587.926 -3.61231 588.074 -4.12439Z" fill="#FFD9EE"/>
<path d="M582.896 35.073L580.034 17.5029C579.992 17.2448 579.999 16.9792 580.055 16.7213C580.112 16.4633 580.216 16.2181 580.362 15.9996C580.508 15.7811 580.693 15.5935 580.906 15.4477C581.119 15.3019 581.357 15.2006 581.605 15.1496C581.854 15.0987 582.108 15.0991 582.353 15.1508C582.599 15.2025 582.831 15.3045 583.036 15.451C583.241 15.5975 583.416 15.7856 583.55 16.0045C583.683 16.2235 583.774 16.469 583.816 16.7271L584.69 22.1011L591.592 24.0995L595.203 20.0241C595.553 19.6287 596.035 19.3906 596.543 19.362C597.052 19.3334 597.545 19.5167 597.914 19.8716C598.283 20.2265 598.498 20.724 598.511 21.2545C598.524 21.785 598.335 22.3052 597.985 22.7006L586.178 36.0234C585.922 36.2735 585.61 36.4517 585.272 36.5405C584.935 36.6293 584.584 36.6256 584.253 36.5298C583.922 36.434 583.623 36.2494 583.385 35.994C583.147 35.7387 582.979 35.4213 582.896 35.073ZM588.64 27.4302L585.406 26.4936L586.037 30.3678L588.64 27.4302Z" fill="#FFD9EE"/>
<path d="M602.84 3.99145C603.036 4.04799 603.245 4.04828 603.444 3.9923C603.643 3.93631 603.826 3.82609 603.973 3.67303C604.348 3.31513 604.838 3.12097 605.339 3.1321C605.839 3.14324 606.31 3.35879 606.651 3.7326C606.991 4.10642 607.175 4.60879 607.161 5.13216C607.148 5.65554 606.939 6.15831 606.579 6.53284C605.775 7.33987 604.745 7.85417 603.65 7.99592C602.554 8.13767 601.455 7.89896 600.522 7.31682C599.588 6.73467 598.874 5.84165 598.489 4.77633C598.104 3.71101 598.07 2.53296 598.392 1.42497L599.294 -1.68941C599.612 -2.799 600.27 -3.77774 601.164 -4.47362C602.059 -5.1695 603.14 -5.54358 604.241 -5.53775C605.341 -5.53193 606.399 -5.14653 607.249 -4.44141C608.1 -3.7363 608.696 -2.75092 608.945 -1.63832C609.049 -1.12954 608.957 -0.592931 608.689 -0.1434C608.421 0.306131 607.997 0.63286 607.51 0.766838C607.022 0.900816 606.509 0.831389 606.08 0.573427C605.651 0.315465 605.34 -0.11053 605.214 -0.613357C605.172 -0.821493 605.076 -1.01235 604.937 -1.16616C604.799 -1.31997 604.622 -1.43114 604.426 -1.48817C604.279 -1.53093 604.124 -1.54258 603.97 -1.52244C603.816 -1.50231 603.667 -1.45079 603.531 -1.37084C603.395 -1.29089 603.274 -1.18408 603.177 -1.05654C603.079 -0.928994 603.005 -0.783222 602.961 -0.62758L602.059 2.4868C601.969 2.8 602.001 3.13436 602.147 3.41646C602.293 3.69857 602.542 3.90536 602.84 3.99145Z" fill="#FFD9EE"/>
<path d="M766.492 33.6748C766.823 33.7885 767.175 33.8064 767.512 33.7265C767.848 33.6466 768.156 33.4719 768.402 33.2212L773.307 28.231C773.485 28.0492 773.627 27.8316 773.725 27.5906C773.822 27.3495 773.873 27.0899 773.875 26.8264C773.876 26.5629 773.828 26.3007 773.733 26.0548C773.639 25.8089 773.499 25.5842 773.322 25.3933C773.146 25.2025 772.936 25.0494 772.704 24.9427C772.473 24.836 772.224 24.7778 771.973 24.7714C771.722 24.765 771.473 24.8106 771.24 24.9056C771.008 25.0006 770.796 25.143 770.618 25.3248L768.255 27.7297L766.025 15.6072C765.928 15.0829 765.638 14.6165 765.218 14.3105C764.797 14.0045 764.282 13.8841 763.784 13.9757L758.151 15.012C757.653 15.1036 757.214 15.3998 756.93 15.8353C756.646 16.2708 756.541 16.81 756.638 17.3343C756.734 17.8587 757.024 18.3251 757.445 18.6311C757.865 18.937 758.381 19.0575 758.879 18.9659L762.634 18.275L765.18 32.1135C765.246 32.4714 765.402 32.8057 765.633 33.0807C765.864 33.3556 766.161 33.561 766.492 33.6748Z" fill="#FFD9EE"/>
<path d="M763.42 11.9959C763.792 11.9275 764.133 11.7448 764.402 11.4707C764.671 11.1967 764.854 10.8437 764.93 10.4564C765.006 10.0691 764.97 9.66482 764.827 9.29471C764.684 8.9246 764.44 8.60527 764.127 8.37709L759.644 5.11408C759.224 4.81912 758.713 4.70711 758.222 4.80218C757.73 4.89726 757.298 5.19181 757.017 5.62239C756.736 6.05297 756.63 6.58514 756.721 7.10427C756.812 7.6234 757.093 8.08796 757.504 8.39789L761.986 11.6609C762.407 11.9669 762.922 12.0874 763.42 11.9959Z" fill="#FFD9EE"/>
<path d="M787.523 -4.70157C788.021 -4.79318 788.46 -5.08932 788.744 -5.52485C789.028 -5.96037 789.133 -6.4996 789.036 -7.02392C788.94 -7.54823 788.65 -8.01468 788.229 -8.32065C787.809 -8.62661 787.293 -8.74703 786.795 -8.65542L769.898 -5.5466C769.4 -5.45498 768.961 -5.15884 768.677 -4.72332C768.393 -4.28779 768.288 -3.74856 768.384 -3.22425C768.481 -2.69993 768.771 -2.23348 769.192 -1.92752C769.612 -1.62155 770.128 -1.50113 770.626 -1.59274L776.008 -2.58308L776.266 1.45713L771.353 2.36111C770.855 2.45272 770.416 2.74886 770.132 3.18439C769.848 3.61991 769.743 4.15915 769.839 4.68346C769.936 5.20777 770.226 5.67422 770.646 5.98019C771.067 6.28615 771.583 6.40657 772.081 6.31496L776.524 5.49734L776.897 11.307C776.912 11.389 776.932 11.4699 776.959 11.549L773.172 12.2457C772.674 12.3374 772.235 12.6335 771.951 13.069C771.667 13.5045 771.562 14.0438 771.658 14.5681C771.754 15.0924 772.045 15.5589 772.465 15.8648C772.885 16.1708 773.401 16.2912 773.899 16.1996L790.796 13.0908C791.294 12.9992 791.733 12.703 792.017 12.2675C792.301 11.832 792.406 11.2927 792.31 10.7684C792.213 10.2441 791.923 9.77766 791.503 9.47169C791.083 9.16573 790.567 9.04531 790.069 9.13692L788.191 9.48234L786.736 1.57464C786.64 1.05032 786.35 0.583876 785.929 0.27791C785.509 -0.0280563 784.993 -0.148477 784.495 -0.0568644L780.051 0.760756L779.793 -3.27945L787.523 -4.70157ZM783.345 4.24241L784.436 10.1732L780.697 10.8613L780.309 4.80096L783.345 4.24241Z" fill="#FFD9EE"/>
<path d="M794.433 32.8609C794.931 32.7693 795.37 32.4731 795.654 32.0376C795.938 31.6021 796.043 31.0628 795.947 30.5385L793.764 18.677C793.668 18.1527 793.378 17.6862 792.957 17.3802C792.537 17.0743 792.021 16.9539 791.523 17.0455L776.504 19.8089C776.006 19.9005 775.567 20.1966 775.283 20.6322C774.999 21.0677 774.893 21.6069 774.99 22.1312L777.172 33.9928C777.269 34.5171 777.559 34.9835 777.979 35.2895C778.4 35.5955 778.916 35.7159 779.413 35.6243C779.911 35.5327 780.351 35.2365 780.635 34.801C780.918 34.3655 781.024 33.8262 780.927 33.3019L780.563 31.325L791.828 29.2525L792.192 31.2294C792.288 31.7537 792.579 32.2201 792.999 32.5261C793.419 32.8321 793.935 32.9525 794.433 32.8609ZM779.836 27.3712L779.109 23.4173L790.373 21.3448L791.101 25.2986L779.836 27.3712Z" fill="#FFD9EE"/>
<path d="M376.976 73.8799C377.269 73.9809 377.582 73.9968 377.881 73.9258C378.179 73.8549 378.452 73.6999 378.671 73.4773L383.025 69.048C383.183 68.8866 383.309 68.6934 383.396 68.4795C383.482 68.2655 383.528 68.0351 383.529 67.8012C383.53 67.5673 383.487 67.3346 383.403 67.1163C383.319 66.8981 383.195 66.6986 383.038 66.5292C382.882 66.3598 382.695 66.2239 382.49 66.1291C382.284 66.0344 382.064 65.9828 381.841 65.9771C381.618 65.9715 381.397 66.012 381.191 66.0962C380.984 66.1805 380.796 66.307 380.638 66.4684L378.541 68.603L376.561 57.8428C376.476 57.3774 376.218 56.9634 375.845 56.6918C375.472 56.4202 375.014 56.3134 374.572 56.3947L369.572 57.3145C369.13 57.3958 368.741 57.6587 368.489 58.0452C368.237 58.4318 368.143 58.9105 368.229 59.3759C368.314 59.8412 368.572 60.2553 368.945 60.5269C369.318 60.7984 369.776 60.9053 370.218 60.824L373.551 60.2108L375.811 72.4941C375.869 72.8118 376.009 73.1085 376.214 73.3526C376.419 73.5966 376.682 73.7789 376.976 73.8799Z" fill="#FFD9EE"/>
<path d="M374.249 54.6381C374.579 54.5774 374.882 54.4151 375.12 54.1719C375.359 53.9287 375.522 53.6154 375.589 53.2716C375.656 52.9278 375.624 52.5689 375.498 52.2404C375.371 51.9119 375.154 51.6285 374.876 51.4259L370.898 48.5296C370.525 48.2678 370.071 48.1684 369.635 48.2528C369.199 48.3372 368.815 48.5986 368.566 48.9808C368.316 49.363 368.222 49.8354 368.303 50.2961C368.384 50.7569 368.633 51.1693 368.998 51.4444L372.976 54.3407C373.349 54.6123 373.807 54.7193 374.249 54.6381Z" fill="#FFD9EE"/>
<path d="M395.643 39.8165C396.085 39.7352 396.475 39.4723 396.727 39.0857C396.979 38.6992 397.072 38.2205 396.987 37.7551C396.901 37.2898 396.643 36.8757 396.27 36.6041C395.897 36.3326 395.439 36.2257 394.997 36.307L379.999 39.0664C379.557 39.1478 379.167 39.4106 378.915 39.7972C378.663 40.1838 378.57 40.6624 378.656 41.1278C378.741 41.5932 378.999 42.0072 379.372 42.2788C379.745 42.5504 380.203 42.6573 380.645 42.576L385.423 41.6969L385.652 45.2831L381.291 46.0855C380.849 46.1668 380.459 46.4297 380.207 46.8162C379.955 47.2028 379.861 47.6815 379.947 48.1468C380.033 48.6122 380.29 49.0263 380.663 49.2978C381.036 49.5694 381.494 49.6763 381.936 49.595L385.881 48.8693L386.211 54.026C386.224 54.0988 386.243 54.1706 386.266 54.2408L382.905 54.8593C382.463 54.9406 382.073 55.2034 381.821 55.59C381.569 55.9766 381.476 56.4552 381.561 56.9206C381.647 57.386 381.905 57.8001 382.278 58.0716C382.651 58.3432 383.109 58.4501 383.551 58.3688L398.549 55.6093C398.991 55.528 399.381 55.2652 399.633 54.8786C399.884 54.492 399.978 54.0134 399.892 53.548C399.807 53.0826 399.549 52.6686 399.176 52.397C398.803 52.1254 398.345 52.0185 397.903 52.0998L396.237 52.4064L394.945 45.3874C394.86 44.922 394.602 44.508 394.229 44.2364C393.856 43.9648 393.398 43.8579 392.956 43.9392L389.011 44.665L388.782 41.0788L395.643 39.8165ZM391.935 47.7554L392.904 53.0196L389.584 53.6304L389.24 48.2511L391.935 47.7554Z" fill="#FFD9EE"/>
<path d="M401.777 73.1575C402.219 73.0762 402.609 72.8133 402.861 72.4268C403.113 72.0402 403.206 71.5616 403.121 71.0962L401.183 60.5676C401.098 60.1022 400.84 59.6882 400.467 59.4166C400.094 59.145 399.636 59.0381 399.194 59.1195L385.863 61.5723C385.421 61.6536 385.031 61.9165 384.779 62.3031C384.527 62.6896 384.433 63.1683 384.519 63.6337L386.456 74.1622C386.542 74.6276 386.799 75.0416 387.172 75.3132C387.545 75.5848 388.003 75.6917 388.445 75.6104C388.887 75.5291 389.277 75.2662 389.529 74.8796C389.781 74.493 389.875 74.0144 389.789 73.549L389.466 71.7942L399.465 69.9546L399.788 71.7094C399.873 72.1748 400.131 72.5888 400.504 72.8604C400.877 73.132 401.335 73.2388 401.777 73.1575ZM388.82 68.2847L388.175 64.7752L398.173 62.9356L398.819 66.4451L388.82 68.2847Z" fill="#FFD9EE"/>
<path d="M506.976 301.88C507.269 301.981 507.582 301.997 507.881 301.926C508.179 301.855 508.452 301.7 508.671 301.477L513.025 297.048C513.183 296.887 513.309 296.693 513.396 296.479C513.482 296.266 513.528 296.035 513.529 295.801C513.53 295.567 513.487 295.335 513.403 295.116C513.319 294.898 513.195 294.699 513.038 294.529C512.882 294.36 512.695 294.224 512.49 294.129C512.284 294.034 512.064 293.983 511.841 293.977C511.618 293.971 511.397 294.012 511.191 294.096C510.984 294.181 510.796 294.307 510.638 294.468L508.541 296.603L506.561 285.843C506.476 285.377 506.218 284.963 505.845 284.692C505.472 284.42 505.014 284.313 504.572 284.395L499.572 285.314C499.13 285.396 498.741 285.659 498.489 286.045C498.237 286.432 498.143 286.91 498.229 287.376C498.314 287.841 498.572 288.255 498.945 288.527C499.318 288.798 499.776 288.905 500.218 288.824L503.551 288.211L505.811 300.494C505.869 300.812 506.009 301.109 506.214 301.353C506.419 301.597 506.682 301.779 506.976 301.88Z" fill="#FFD9EE"/>
<path d="M504.249 282.638C504.579 282.577 504.882 282.415 505.12 282.172C505.359 281.929 505.522 281.615 505.589 281.272C505.656 280.928 505.624 280.569 505.498 280.24C505.371 279.912 505.154 279.628 504.876 279.426L500.898 276.53C500.525 276.268 500.071 276.168 499.635 276.253C499.199 276.337 498.815 276.599 498.566 276.981C498.316 277.363 498.222 277.835 498.303 278.296C498.384 278.757 498.633 279.169 498.998 279.444L502.976 282.341C503.349 282.612 503.807 282.719 504.249 282.638Z" fill="#FFD9EE"/>
<path d="M525.643 267.817C526.085 267.735 526.475 267.472 526.727 267.086C526.979 266.699 527.072 266.221 526.987 265.755C526.901 265.29 526.643 264.876 526.27 264.604C525.897 264.333 525.439 264.226 524.997 264.307L509.999 267.066C509.557 267.148 509.167 267.411 508.915 267.797C508.663 268.184 508.57 268.662 508.656 269.128C508.741 269.593 508.999 270.007 509.372 270.279C509.745 270.55 510.203 270.657 510.645 270.576L515.423 269.697L515.652 273.283L511.291 274.085C510.849 274.167 510.459 274.43 510.207 274.816C509.955 275.203 509.861 275.681 509.947 276.147C510.033 276.612 510.29 277.026 510.663 277.298C511.036 277.569 511.494 277.676 511.936 277.595L515.881 276.869L516.211 282.026C516.224 282.099 516.243 282.171 516.266 282.241L512.905 282.859C512.463 282.941 512.073 283.203 511.821 283.59C511.569 283.977 511.476 284.455 511.561 284.921C511.647 285.386 511.905 285.8 512.278 286.072C512.651 286.343 513.109 286.45 513.551 286.369L528.549 283.609C528.991 283.528 529.381 283.265 529.633 282.879C529.884 282.492 529.978 282.013 529.892 281.548C529.807 281.083 529.549 280.669 529.176 280.397C528.803 280.125 528.345 280.019 527.903 280.1L526.237 280.406L524.945 273.387C524.86 272.922 524.602 272.508 524.229 272.236C523.856 271.965 523.398 271.858 522.956 271.939L519.011 272.665L518.782 269.079L525.643 267.817ZM521.935 275.755L522.904 281.02L519.584 281.63L519.24 276.251L521.935 275.755Z" fill="#FFD9EE"/>
<path d="M531.777 301.158C532.219 301.076 532.609 300.813 532.861 300.427C533.113 300.04 533.206 299.562 533.121 299.096L531.183 288.568C531.098 288.102 530.84 287.688 530.467 287.417C530.094 287.145 529.636 287.038 529.194 287.119L515.863 289.572C515.421 289.654 515.031 289.916 514.779 290.303C514.527 290.69 514.433 291.168 514.519 291.634L516.456 302.162C516.542 302.628 516.799 303.042 517.172 303.313C517.545 303.585 518.003 303.692 518.445 303.61C518.887 303.529 519.277 303.266 519.529 302.88C519.781 302.493 519.875 302.014 519.789 301.549L519.466 299.794L529.465 297.955L529.788 299.709C529.873 300.175 530.131 300.589 530.504 300.86C530.877 301.132 531.335 301.239 531.777 301.158ZM518.82 296.285L518.175 292.775L528.173 290.936L528.819 294.445L518.82 296.285Z" fill="#FFD9EE"/>
<path d="M990.976 174.88C991.269 174.981 991.582 174.997 991.881 174.926C992.179 174.855 992.452 174.7 992.671 174.477L997.025 170.048C997.183 169.887 997.309 169.693 997.396 169.479C997.482 169.266 997.528 169.035 997.529 168.801C997.53 168.567 997.487 168.335 997.403 168.116C997.319 167.898 997.195 167.699 997.038 167.529C996.882 167.36 996.695 167.224 996.49 167.129C996.284 167.034 996.064 166.983 995.841 166.977C995.618 166.971 995.397 167.012 995.191 167.096C994.984 167.181 994.796 167.307 994.638 167.468L992.541 169.603L990.561 158.843C990.476 158.377 990.218 157.963 989.845 157.692C989.472 157.42 989.014 157.313 988.572 157.395L983.572 158.314C983.13 158.396 982.741 158.659 982.489 159.045C982.237 159.432 982.143 159.91 982.229 160.376C982.314 160.841 982.572 161.255 982.945 161.527C983.318 161.798 983.776 161.905 984.218 161.824L987.551 161.211L989.811 173.494C989.869 173.812 990.009 174.109 990.214 174.353C990.419 174.597 990.682 174.779 990.976 174.88Z" fill="#FFD9EE"/>
<path d="M988.249 155.638C988.579 155.577 988.882 155.415 989.12 155.172C989.359 154.929 989.522 154.615 989.589 154.272C989.656 153.928 989.624 153.569 989.498 153.24C989.371 152.912 989.154 152.628 988.876 152.426L984.898 149.53C984.525 149.268 984.071 149.168 983.635 149.253C983.199 149.337 982.815 149.599 982.566 149.981C982.316 150.363 982.222 150.835 982.303 151.296C982.384 151.757 982.633 152.169 982.998 152.444L986.976 155.341C987.349 155.612 987.807 155.719 988.249 155.638Z" fill="#FFD9EE"/>
<path d="M1009.64 140.817C1010.09 140.735 1010.47 140.472 1010.73 140.086C1010.98 139.699 1011.07 139.221 1010.99 138.755C1010.9 138.29 1010.64 137.876 1010.27 137.604C1009.9 137.333 1009.44 137.226 1009 137.307L993.999 140.066C993.557 140.148 993.167 140.411 992.915 140.797C992.663 141.184 992.57 141.662 992.656 142.128C992.741 142.593 992.999 143.007 993.372 143.279C993.745 143.55 994.203 143.657 994.645 143.576L999.423 142.697L999.652 146.283L995.291 147.085C994.849 147.167 994.459 147.43 994.207 147.816C993.955 148.203 993.861 148.681 993.947 149.147C994.033 149.612 994.29 150.026 994.663 150.298C995.036 150.569 995.494 150.676 995.936 150.595L999.881 149.869L1000.21 155.026C1000.22 155.099 1000.24 155.171 1000.27 155.241L996.905 155.859C996.463 155.941 996.073 156.203 995.821 156.59C995.569 156.977 995.476 157.455 995.561 157.921C995.647 158.386 995.905 158.8 996.278 159.072C996.651 159.343 997.109 159.45 997.551 159.369L1012.55 156.609C1012.99 156.528 1013.38 156.265 1013.63 155.879C1013.88 155.492 1013.98 155.013 1013.89 154.548C1013.81 154.083 1013.55 153.669 1013.18 153.397C1012.8 153.125 1012.34 153.019 1011.9 153.1L1010.24 153.406L1008.95 146.387C1008.86 145.922 1008.6 145.508 1008.23 145.236C1007.86 144.965 1007.4 144.858 1006.96 144.939L1003.01 145.665L1002.78 142.079L1009.64 140.817ZM1005.94 148.755L1006.9 154.02L1003.58 154.63L1003.24 149.251L1005.94 148.755Z" fill="#FFD9EE"/>
<path d="M1015.78 174.158C1016.22 174.076 1016.61 173.813 1016.86 173.427C1017.11 173.04 1017.21 172.562 1017.12 172.096L1015.18 161.568C1015.1 161.102 1014.84 160.688 1014.47 160.417C1014.09 160.145 1013.64 160.038 1013.19 160.119L999.863 162.572C999.421 162.654 999.031 162.916 998.779 163.303C998.527 163.69 998.433 164.168 998.519 164.634L1000.46 175.162C1000.54 175.628 1000.8 176.042 1001.17 176.313C1001.55 176.585 1002 176.692 1002.45 176.61C1002.89 176.529 1003.28 176.266 1003.53 175.88C1003.78 175.493 1003.87 175.014 1003.79 174.549L1003.47 172.794L1013.46 170.955L1013.79 172.709C1013.87 173.175 1014.13 173.589 1014.5 173.86C1014.88 174.132 1015.34 174.239 1015.78 174.158ZM1002.82 169.285L1002.17 165.775L1012.17 163.936L1012.82 167.445L1002.82 169.285Z" fill="#FFD9EE"/>
</g>
<defs>
<clipPath id="clip0">
<rect width="1004" height="294" rx="20" fill="white"/>
</clipPath>
</defs>
</svg>
