<svg width="1004" height="294" viewBox="0 0 1004 294" fill="none" xmlns="http://www.w3.org/2000/svg">
<g clip-path="url(#clip0)">
<rect width="1004" height="294" rx="20" fill="white"/>
<rect width="1004" height="294" rx="20" fill="#2E279D"/>
<path d="M248.352 127.88V170H238.092V144.74L228.672 170H220.392L210.912 144.68V170H200.652V127.88H212.772L224.592 157.04L236.292 127.88H248.352ZM287.29 152.72C287.29 153.68 287.23 154.68 287.11 155.72H263.89C264.05 157.8 264.71 159.4 265.87 160.52C267.07 161.6 268.53 162.14 270.25 162.14C272.81 162.14 274.59 161.06 275.59 158.9H286.51C285.95 161.1 284.93 163.08 283.45 164.84C282.01 166.6 280.19 167.98 277.99 168.98C275.79 169.98 273.33 170.48 270.61 170.48C267.33 170.48 264.41 169.78 261.85 168.38C259.29 166.98 257.29 164.98 255.85 162.38C254.41 159.78 253.69 156.74 253.69 153.26C253.69 149.78 254.39 146.74 255.79 144.14C257.23 141.54 259.23 139.54 261.79 138.14C264.35 136.74 267.29 136.04 270.61 136.04C273.85 136.04 276.73 136.72 279.25 138.08C281.77 139.44 283.73 141.38 285.13 143.9C286.57 146.42 287.29 149.36 287.29 152.72ZM276.79 150.02C276.79 148.26 276.19 146.86 274.99 145.82C273.79 144.78 272.29 144.26 270.49 144.26C268.77 144.26 267.31 144.76 266.11 145.76C264.95 146.76 264.23 148.18 263.95 150.02H276.79ZM290.662 153.26C290.662 149.78 291.362 146.74 292.762 144.14C294.202 141.54 296.182 139.54 298.702 138.14C301.262 136.74 304.182 136.04 307.462 136.04C311.662 136.04 315.162 137.14 317.962 139.34C320.802 141.54 322.662 144.64 323.542 148.64H312.622C311.702 146.08 309.922 144.8 307.282 144.8C305.402 144.8 303.902 145.54 302.782 147.02C301.662 148.46 301.102 150.54 301.102 153.26C301.102 155.98 301.662 158.08 302.782 159.56C303.902 161 305.402 161.72 307.282 161.72C309.922 161.72 311.702 160.44 312.622 157.88H323.542C322.662 161.8 320.802 164.88 317.962 167.12C315.122 169.36 311.622 170.48 307.462 170.48C304.182 170.48 301.262 169.78 298.702 168.38C296.182 166.98 294.202 164.98 292.762 162.38C291.362 159.78 290.662 156.74 290.662 153.26ZM349.611 136.16C353.451 136.16 356.531 137.44 358.851 140C361.171 142.52 362.331 146 362.331 150.44V170H352.131V151.82C352.131 149.58 351.551 147.84 350.391 146.6C349.231 145.36 347.671 144.74 345.711 144.74C343.751 144.74 342.191 145.36 341.031 146.6C339.871 147.84 339.291 149.58 339.291 151.82V170H329.031V125.6H339.291V141.02C340.331 139.54 341.751 138.36 343.551 137.48C345.351 136.6 347.371 136.16 349.611 136.16ZM367.42 153.2C367.42 149.76 368.06 146.74 369.34 144.14C370.66 141.54 372.44 139.54 374.68 138.14C376.92 136.74 379.42 136.04 382.18 136.04C384.54 136.04 386.6 136.52 388.36 137.48C390.16 138.44 391.54 139.7 392.5 141.26V136.52H402.76V170H392.5V165.26C391.5 166.82 390.1 168.08 388.3 169.04C386.54 170 384.48 170.48 382.12 170.48C379.4 170.48 376.92 169.78 374.68 168.38C372.44 166.94 370.66 164.92 369.34 162.32C368.06 159.68 367.42 156.64 367.42 153.2ZM392.5 153.26C392.5 150.7 391.78 148.68 390.34 147.2C388.94 145.72 387.22 144.98 385.18 144.98C383.14 144.98 381.4 145.72 379.96 147.2C378.56 148.64 377.86 150.64 377.86 153.2C377.86 155.76 378.56 157.8 379.96 159.32C381.4 160.8 383.14 161.54 385.18 161.54C387.22 161.54 388.94 160.8 390.34 159.32C391.78 157.84 392.5 155.82 392.5 153.26ZM430.583 136.16C434.503 136.16 437.623 137.44 439.943 140C442.303 142.52 443.483 146 443.483 150.44V170H433.283V151.82C433.283 149.58 432.703 147.84 431.543 146.6C430.383 145.36 428.823 144.74 426.863 144.74C424.903 144.74 423.343 145.36 422.183 146.6C421.023 147.84 420.443 149.58 420.443 151.82V170H410.183V136.52H420.443V140.96C421.483 139.48 422.883 138.32 424.643 137.48C426.403 136.6 428.383 136.16 430.583 136.16ZM455.773 133.04C453.973 133.04 452.493 132.52 451.333 131.48C450.213 130.4 449.653 129.08 449.653 127.52C449.653 125.92 450.213 124.6 451.333 123.56C452.493 122.48 453.973 121.94 455.773 121.94C457.533 121.94 458.973 122.48 460.093 123.56C461.253 124.6 461.833 125.92 461.833 127.52C461.833 129.08 461.253 130.4 460.093 131.48C458.973 132.52 457.533 133.04 455.773 133.04ZM460.873 136.52V170H450.613V136.52H460.873ZM466.268 153.2C466.268 149.76 466.908 146.74 468.188 144.14C469.508 141.54 471.288 139.54 473.528 138.14C475.768 136.74 478.268 136.04 481.028 136.04C483.388 136.04 485.448 136.52 487.208 137.48C489.008 138.44 490.388 139.7 491.348 141.26V136.52H501.608V170H491.348V165.26C490.348 166.82 488.948 168.08 487.148 169.04C485.388 170 483.328 170.48 480.968 170.48C478.248 170.48 475.768 169.78 473.528 168.38C471.288 166.94 469.508 164.92 468.188 162.32C466.908 159.68 466.268 156.64 466.268 153.2ZM491.348 153.26C491.348 150.7 490.628 148.68 489.188 147.2C487.788 145.72 486.068 144.98 484.028 144.98C481.988 144.98 480.248 145.72 478.808 147.2C477.408 148.64 476.708 150.64 476.708 153.2C476.708 155.76 477.408 157.8 478.808 159.32C480.248 160.8 481.988 161.54 484.028 161.54C486.068 161.54 487.788 160.8 489.188 159.32C490.628 157.84 491.348 155.82 491.348 153.26ZM519.291 125.6V170H509.031V125.6H519.291ZM549.701 136.1V144.62H563.441V152.54H549.701V161.78H565.241V170H539.441V127.88H565.241V136.1H549.701ZM592.302 136.16C596.222 136.16 599.342 137.44 601.662 140C604.022 142.52 605.202 146 605.202 150.44V170H595.002V151.82C595.002 149.58 594.422 147.84 593.262 146.6C592.102 145.36 590.542 144.74 588.582 144.74C586.622 144.74 585.062 145.36 583.902 146.6C582.742 147.84 582.162 149.58 582.162 151.82V170H571.902V136.52H582.162V140.96C583.202 139.48 584.602 138.32 586.362 137.48C588.122 136.6 590.102 136.16 592.302 136.16ZM625.051 136.04C627.411 136.04 629.471 136.52 631.231 137.48C633.031 138.44 634.411 139.7 635.371 141.26V136.52H645.631V169.94C645.631 173.02 645.011 175.8 643.771 178.28C642.571 180.8 640.711 182.8 638.191 184.28C635.711 185.76 632.611 186.5 628.891 186.5C623.931 186.5 619.911 185.32 616.831 182.96C613.751 180.64 611.991 177.48 611.551 173.48H621.691C622.011 174.76 622.771 175.76 623.971 176.48C625.171 177.24 626.651 177.62 628.411 177.62C630.531 177.62 632.211 177 633.451 175.76C634.731 174.56 635.371 172.62 635.371 169.94V165.2C634.371 166.76 632.991 168.04 631.231 169.04C629.471 170 627.411 170.48 625.051 170.48C622.291 170.48 619.791 169.78 617.551 168.38C615.311 166.94 613.531 164.92 612.211 162.32C610.931 159.68 610.291 156.64 610.291 153.2C610.291 149.76 610.931 146.74 612.211 144.14C613.531 141.54 615.311 139.54 617.551 138.14C619.791 136.74 622.291 136.04 625.051 136.04ZM635.371 153.26C635.371 150.7 634.651 148.68 633.211 147.2C631.811 145.72 630.091 144.98 628.051 144.98C626.011 144.98 624.271 145.72 622.831 147.2C621.431 148.64 620.731 150.64 620.731 153.2C620.731 155.76 621.431 157.8 622.831 159.32C624.271 160.8 626.011 161.54 628.051 161.54C630.091 161.54 631.811 160.8 633.211 159.32C634.651 157.84 635.371 155.82 635.371 153.26ZM658.214 133.04C656.414 133.04 654.934 132.52 653.774 131.48C652.654 130.4 652.094 129.08 652.094 127.52C652.094 125.92 652.654 124.6 653.774 123.56C654.934 122.48 656.414 121.94 658.214 121.94C659.974 121.94 661.414 122.48 662.534 123.56C663.694 124.6 664.274 125.92 664.274 127.52C664.274 129.08 663.694 130.4 662.534 131.48C661.414 132.52 659.974 133.04 658.214 133.04ZM663.314 136.52V170H653.054V136.52H663.314ZM691.149 136.16C695.069 136.16 698.189 137.44 700.509 140C702.869 142.52 704.049 146 704.049 150.44V170H693.849V151.82C693.849 149.58 693.269 147.84 692.109 146.6C690.949 145.36 689.389 144.74 687.429 144.74C685.469 144.74 683.909 145.36 682.749 146.6C681.589 147.84 681.009 149.58 681.009 151.82V170H670.749V136.52H681.009V140.96C682.049 139.48 683.449 138.32 685.209 137.48C686.969 136.6 688.949 136.16 691.149 136.16ZM742.739 152.72C742.739 153.68 742.679 154.68 742.559 155.72H719.339C719.499 157.8 720.159 159.4 721.319 160.52C722.519 161.6 723.979 162.14 725.699 162.14C728.259 162.14 730.039 161.06 731.039 158.9H741.959C741.399 161.1 740.379 163.08 738.899 164.84C737.459 166.6 735.639 167.98 733.439 168.98C731.239 169.98 728.779 170.48 726.059 170.48C722.779 170.48 719.859 169.78 717.299 168.38C714.739 166.98 712.739 164.98 711.299 162.38C709.859 159.78 709.139 156.74 709.139 153.26C709.139 149.78 709.839 146.74 711.239 144.14C712.679 141.54 714.679 139.54 717.239 138.14C719.799 136.74 722.739 136.04 726.059 136.04C729.299 136.04 732.179 136.72 734.699 138.08C737.219 139.44 739.179 141.38 740.579 143.9C742.019 146.42 742.739 149.36 742.739 152.72ZM732.239 150.02C732.239 148.26 731.639 146.86 730.439 145.82C729.239 144.78 727.739 144.26 725.939 144.26C724.219 144.26 722.759 144.76 721.559 145.76C720.399 146.76 719.679 148.18 719.399 150.02H732.239ZM779.712 152.72C779.712 153.68 779.652 154.68 779.532 155.72H756.312C756.472 157.8 757.132 159.4 758.292 160.52C759.492 161.6 760.952 162.14 762.672 162.14C765.232 162.14 767.012 161.06 768.012 158.9H778.932C778.372 161.1 777.352 163.08 775.872 164.84C774.432 166.6 772.612 167.98 770.412 168.98C768.212 169.98 765.752 170.48 763.032 170.48C759.752 170.48 756.832 169.78 754.272 168.38C751.712 166.98 749.712 164.98 748.272 162.38C746.832 159.78 746.112 156.74 746.112 153.26C746.112 149.78 746.812 146.74 748.212 144.14C749.652 141.54 751.652 139.54 754.212 138.14C756.772 136.74 759.712 136.04 763.032 136.04C766.272 136.04 769.152 136.72 771.672 138.08C774.192 139.44 776.152 141.38 777.552 143.9C778.992 146.42 779.712 149.36 779.712 152.72ZM769.212 150.02C769.212 148.26 768.612 146.86 767.412 145.82C766.212 144.78 764.712 144.26 762.912 144.26C761.192 144.26 759.732 144.76 758.532 145.76C757.372 146.76 756.652 148.18 756.372 150.02H769.212ZM795.384 142.1C796.584 140.26 798.084 138.82 799.884 137.78C801.684 136.7 803.684 136.16 805.884 136.16V147.02H803.064C800.504 147.02 798.584 147.58 797.304 148.7C796.024 149.78 795.384 151.7 795.384 154.46V170H785.124V136.52H795.384V142.1Z" fill="#FFD9EE"/>
<path d="M991.727 256.163L973.023 235.766C971.282 233.867 968.489 233.408 966.232 234.65L962.399 236.76L961.468 235.067L962.523 234.487C962.836 234.314 962.95 233.921 962.778 233.608C962.606 233.295 962.212 233.181 961.899 233.353L960.277 234.246L946.984 241.56L945.362 242.453C945.049 242.625 944.934 243.018 945.107 243.331C945.279 243.644 945.672 243.759 945.986 243.586L947.041 243.006L947.972 244.698L944.139 246.807C941.881 248.049 940.774 250.654 941.447 253.141L948.665 279.85C949.116 281.521 950.578 282.73 952.302 282.858C952.607 282.88 952.854 282.896 953.036 282.904C960.867 283.252 968.637 281.439 975.506 277.659C982.581 273.766 988.385 267.972 992.289 260.904C992.289 260.904 992.3 260.885 992.3 260.885C993.142 259.353 992.912 257.455 991.727 256.163ZM947.468 270.462C947.941 270.566 948.412 270.543 948.845 270.383C948.959 270.342 949.068 270.292 949.173 270.234C949.647 269.973 950.028 269.551 950.287 268.995C950.756 267.984 950.757 266.62 950.291 265.349C949.826 264.077 948.945 263.037 947.933 262.568C947.254 262.253 946.564 262.207 945.939 262.437C945.739 262.51 945.552 262.61 945.38 262.733L944.022 257.711L948.688 255.144L956.007 274.503L949.524 278.07L947.468 270.462ZM945.771 264.183C945.93 263.921 946.135 263.742 946.383 263.652C946.758 263.515 947.137 263.625 947.389 263.741C948.095 264.069 948.725 264.836 949.075 265.794C949.426 266.751 949.44 267.743 949.112 268.45C948.995 268.701 948.778 269.03 948.399 269.169C947.874 269.362 947.342 269.085 947.039 268.872L945.771 264.183ZM943.167 254.546L973.289 237.971L974.605 239.406L943.675 256.425L943.167 254.546ZM949.833 254.513L969.696 243.584L982.132 260.128L957.153 273.872L949.833 254.513ZM983.277 259.497L970.841 242.954L975.505 240.388L979.021 244.222C978.825 244.301 978.642 244.405 978.474 244.534C977.945 244.94 977.613 245.548 977.516 246.29C977.371 247.395 977.778 248.696 978.603 249.769C979.428 250.844 980.581 251.573 981.686 251.717C982.294 251.797 982.855 251.701 983.328 251.441C983.433 251.383 983.533 251.318 983.629 251.244C983.996 250.963 984.268 250.578 984.433 250.123L989.758 255.931L983.277 259.497L983.277 259.497ZM983.321 248.911C983.338 249.281 983.286 249.877 982.841 250.217C982.523 250.461 982.129 250.47 981.854 250.434C981.082 250.333 980.251 249.79 979.63 248.98C979.008 248.173 978.698 247.23 978.799 246.458C978.835 246.183 978.945 245.804 979.263 245.56C979.47 245.4 979.73 245.323 980.036 245.328L983.321 248.911ZM948.175 242.382L960.334 235.691L961.265 237.383L949.106 244.074L948.175 242.382ZM944.762 247.941L966.856 235.784C968.589 234.831 970.732 235.183 972.069 236.641L972.389 236.99L942.819 253.26L942.696 252.803C942.18 250.894 943.03 248.894 944.762 247.941ZM991.166 260.261L991.156 260.278C987.37 267.132 981.743 272.75 974.882 276.525C968.222 280.19 960.687 281.949 953.093 281.611C952.91 281.603 952.667 281.587 952.398 281.567C951.368 281.491 950.475 280.849 950.061 279.925C950.002 279.793 949.872 279.356 949.872 279.356L990.658 256.913C990.658 256.913 990.916 257.203 990.979 257.291C991.605 258.156 991.688 259.312 991.166 260.261Z" fill="#FFD9EE"/>
<path d="M975.685 256.427C973.6 254.206 971.515 251.923 969.487 249.64C968.643 248.696 967.257 248.494 966.16 249.18C964.604 250.162 962.997 251.11 961.385 251.997C959.773 252.884 958.114 253.733 956.452 254.522C955.291 255.078 954.714 256.36 955.061 257.581C955.902 260.508 956.715 263.491 957.476 266.443C957.648 267.123 958.121 267.693 958.774 268.006C959.522 268.365 960.411 268.36 961.212 267.993C963.588 266.906 965.953 265.716 968.242 264.456C970.531 263.197 972.802 261.836 974.993 260.411C975.731 259.93 976.21 259.182 976.308 258.358C976.393 257.639 976.165 256.934 975.685 256.427ZM975.023 258.206C974.97 258.648 974.702 259.056 974.287 259.326C972.123 260.733 969.88 262.078 967.619 263.322C965.357 264.567 963.021 265.742 960.674 266.817C960.223 267.023 959.735 267.031 959.333 266.839C959.023 266.69 958.809 266.437 958.73 266.123C957.965 263.156 957.149 260.162 956.306 257.225C956.142 256.649 956.408 256.018 956.937 255.727C956.96 255.714 956.984 255.702 957.007 255.691C958.692 254.892 960.375 254.03 962.01 253.131C963.644 252.231 965.273 251.27 966.851 250.275C967.396 249.931 968.1 250.03 968.521 250.501C970.556 252.791 972.648 255.083 974.743 257.315C974.964 257.548 975.063 257.865 975.023 258.206Z" fill="#FFD9EE"/>
<path d="M962.852 254.659C960.807 255.784 960.007 258.266 961.066 260.191C962.126 262.117 964.651 262.769 966.695 261.644C968.739 260.519 969.54 258.038 968.48 256.112C967.42 254.186 964.896 253.535 962.852 254.659ZM966.071 260.51C964.652 261.291 962.915 260.868 962.2 259.567C961.484 258.267 962.057 256.574 963.475 255.793C964.894 255.013 966.631 255.435 967.346 256.736C968.062 258.036 967.49 259.729 966.071 260.51Z" fill="#FFD9EE"/>
<path d="M493.81 227.137L497.428 212.297C497.764 210.915 498.993 209.95 500.414 209.95H502.829V208.884H502.164C501.967 208.884 501.807 208.724 501.807 208.527C501.807 208.33 501.967 208.17 502.164 208.17H503.187H511.561H512.583C512.78 208.17 512.94 208.33 512.94 208.527C512.94 208.724 512.78 208.884 512.583 208.884H511.918V209.95H514.333C515.755 209.95 516.983 210.915 517.32 212.297L520.936 227.133C521.162 228.061 520.777 229.034 519.977 229.555C519.836 229.647 519.721 229.72 519.635 229.773C515.941 232.025 511.701 233.215 507.374 233.215C502.917 233.215 498.569 231.958 494.8 229.579C494.8 229.579 494.79 229.572 494.79 229.572C493.975 229.056 493.581 228.077 493.81 227.137ZM519.017 222.275C518.816 222.451 518.582 222.565 518.33 222.603C518.264 222.613 518.198 222.618 518.131 222.618C517.833 222.618 517.536 222.515 517.263 222.315C516.767 221.951 516.404 221.292 516.291 220.553C516.178 219.814 516.327 219.077 516.691 218.581C516.936 218.248 517.257 218.043 517.621 217.987C517.737 217.969 517.854 217.968 517.97 217.982L517.29 215.192H514.351L515.963 226.501H520.047L519.017 222.275ZM518.167 218.787C518.02 218.703 517.874 218.671 517.73 218.693C517.511 218.726 517.358 218.88 517.267 219.004C517.013 219.35 516.912 219.889 516.997 220.445C517.082 221.001 517.34 221.485 517.686 221.739C517.81 221.83 518.002 221.931 518.223 221.897C518.528 221.851 518.711 221.575 518.801 221.392L518.167 218.787ZM516.862 213.434H497.886L497.631 214.478H517.116L516.862 213.434ZM513.629 215.192H501.116L499.505 226.501H515.241L513.629 215.192ZM498.783 226.501L500.395 215.192H497.457L496.777 217.981C496.893 217.968 497.009 217.969 497.125 217.987C497.489 218.043 497.811 218.248 498.055 218.581C498.419 219.077 498.569 219.814 498.455 220.553C498.342 221.292 497.979 221.951 497.483 222.315C497.21 222.515 496.913 222.618 496.615 222.618C496.549 222.618 496.483 222.613 496.417 222.603C496.165 222.565 495.931 222.451 495.73 222.275L494.7 226.501H498.783V226.501ZM495.945 221.393C496.036 221.577 496.219 221.851 496.525 221.897C496.744 221.931 496.937 221.83 497.06 221.739C497.406 221.485 497.664 221.001 497.749 220.444C497.834 219.889 497.734 219.35 497.479 219.004C497.389 218.88 497.235 218.726 497.016 218.693C496.873 218.671 496.727 218.702 496.581 218.786L495.945 221.393ZM511.203 208.884H503.544V209.95H511.203V208.884ZM514.333 210.664H500.414C499.323 210.664 498.38 211.405 498.121 212.466L498.06 212.72H516.688L516.626 212.466C516.367 211.405 515.424 210.664 514.333 210.664ZM495.172 228.969L495.181 228.975C498.836 231.282 503.052 232.501 507.374 232.501C511.569 232.501 515.681 231.347 519.263 229.163C519.35 229.11 519.463 229.038 519.588 228.956C520.065 228.645 520.326 228.097 520.281 227.54C520.274 227.461 520.221 227.215 520.221 227.215H494.526C494.526 227.215 494.479 227.424 494.472 227.483C494.399 228.068 494.667 228.649 495.172 228.969Z" fill="#FFD9EE"/>
<path d="M501.638 222.998C502.055 221.369 502.456 219.711 502.829 218.067C502.986 217.386 503.602 216.92 504.315 216.959C505.329 217.02 506.358 217.051 507.374 217.051C508.389 217.051 509.418 217.02 510.431 216.959C511.141 216.919 511.76 217.386 511.918 218.068C512.29 219.708 512.69 221.366 513.108 222.996C513.206 223.371 513.129 223.772 512.896 224.098C512.63 224.47 512.199 224.705 511.714 224.74C510.276 224.846 508.815 224.9 507.373 224.9C505.931 224.9 504.471 224.846 503.033 224.74C502.548 224.704 502.117 224.47 501.85 224.097C501.618 223.772 501.54 223.371 501.638 222.998ZM502.431 223.682C502.574 223.882 502.812 224.008 503.085 224.028C504.506 224.133 505.948 224.186 507.373 224.186C508.798 224.186 510.24 224.133 511.661 224.028C511.934 224.008 512.172 223.882 512.315 223.682C512.425 223.528 512.462 223.348 512.416 223.175C511.997 221.537 511.595 219.872 511.221 218.228C511.147 217.905 510.851 217.671 510.517 217.671C510.503 217.671 510.488 217.672 510.474 217.673C509.446 217.734 508.403 217.765 507.374 217.765C506.344 217.765 505.3 217.734 504.272 217.673C503.918 217.651 503.604 217.886 503.525 218.227C503.151 219.875 502.749 221.54 502.329 223.177C502.285 223.348 502.321 223.528 502.431 223.682Z" fill="#FFD9EE"/>
<path d="M507.373 218.727C508.661 218.727 509.708 219.714 509.708 220.927C509.708 222.14 508.661 223.127 507.373 223.127C506.086 223.127 505.038 222.14 505.038 220.927C505.038 219.714 506.086 218.727 507.373 218.727ZM507.373 222.412C508.267 222.412 508.994 221.746 508.994 220.926C508.994 220.107 508.267 219.441 507.373 219.441C506.479 219.441 505.752 220.107 505.752 220.926C505.752 221.746 506.479 222.412 507.373 222.412Z" fill="#FFD9EE"/>
<path d="M126.407 19.4847L115.444 -25.4929C114.423 -29.68 110.701 -32.6043 106.391 -32.6043H99.0719V-35.8351H101.087C101.685 -35.8351 102.17 -36.3198 102.17 -36.9176C102.17 -37.5153 101.685 -38 101.087 -38H97.9894H72.609H69.5116C68.9138 -38 68.4292 -37.5153 68.4292 -36.9176C68.4292 -36.3198 68.9138 -35.8351 69.5116 -35.8351H71.5266V-32.6043H64.2074C59.8979 -32.6043 56.1751 -29.6798 55.1546 -25.4929L44.1943 19.473C43.5085 22.2863 44.676 25.2368 47.0993 26.8145C47.5282 27.0935 47.8773 27.3156 48.1371 27.4737C59.3342 34.3001 72.1844 37.9082 85.2991 37.9082C98.8075 37.9082 111.985 34.0969 123.408 26.8865C123.409 26.8859 123.438 26.8672 123.439 26.8667C125.909 25.3007 127.102 22.3342 126.407 19.4847ZM50.0113 4.74907C50.6197 5.28326 51.3284 5.62937 52.0921 5.74411C52.2926 5.77496 52.4934 5.79038 52.6942 5.79038C53.5991 5.79038 54.4981 5.4781 55.3251 4.87139C56.828 3.7681 57.9294 1.77126 58.2712 -0.468594C58.6157 -2.70818 58.163 -4.94262 57.0594 -6.4456C56.3182 -7.45498 55.3429 -8.07766 54.2413 -8.24598C53.8895 -8.30064 53.5352 -8.30335 53.1829 -8.26221L55.2439 -16.7175H64.1521L59.2676 17.5574H46.8893L50.0113 4.74907ZM52.5876 -5.82103C53.0319 -6.07702 53.4757 -6.17444 53.9122 -6.10652C54.5733 -6.00558 55.0396 -5.53851 55.3142 -5.16452C56.0849 -4.11482 56.3905 -2.48249 56.1312 -0.796844C55.8741 0.888794 55.0937 2.35524 54.0437 3.12594C53.6695 3.40034 53.0849 3.70694 52.4179 3.60384C51.4935 3.46502 50.9368 2.62937 50.6638 2.07272L52.5876 -5.82103ZM56.5423 -22.0455H114.056L114.827 -18.8826H55.7713L56.5423 -22.0455ZM66.3387 -16.7177H104.264L109.148 17.5571H61.4542L66.3387 -16.7177ZM111.335 17.5571L106.45 -16.7177H115.355L117.415 -8.26302C117.065 -8.30389 116.712 -8.30091 116.362 -8.24652C115.259 -8.07793 114.283 -7.45525 113.542 -6.44587C112.439 -4.94289 111.986 -2.70845 112.33 -0.470222C112.672 1.77126 113.774 3.7681 115.277 4.87111C116.104 5.47837 117.003 5.79065 117.906 5.79065C118.106 5.79065 118.306 5.77523 118.505 5.74465C119.27 5.62964 119.979 5.28407 120.588 4.75069L123.709 17.5569H111.335V17.5571ZM119.936 2.07651C119.662 2.63316 119.106 3.46556 118.18 3.60465C117.517 3.70613 116.932 3.40061 116.558 3.12594C115.508 2.35551 114.728 0.888794 114.47 -0.798199C114.211 -2.48249 114.516 -4.11482 115.287 -5.16452C115.562 -5.53878 116.028 -6.00558 116.691 -6.10679C117.124 -6.17444 117.567 -6.07784 118.01 -5.82319L119.936 2.07651ZM73.6915 -35.8351H96.907V-32.6043H73.6915V-35.8351ZM64.2074 -30.4394H106.391C109.7 -30.4394 112.557 -28.1944 113.341 -24.9801L113.528 -24.2104H57.07L57.2575 -24.9801C58.0412 -28.1944 60.8989 -30.4394 64.2074 -30.4394ZM122.28 25.0384L122.253 25.0555C111.176 32.0473 98.3981 35.743 85.2991 35.743C72.5822 35.743 60.1214 32.2443 49.2636 25.6249C49.0017 25.4652 48.6586 25.2463 48.2805 24.9998C46.8325 24.0572 46.0415 22.3967 46.18 20.7087C46.1998 20.4675 46.3613 19.7217 46.3613 19.7217H124.237C124.237 19.7217 124.38 20.3552 124.402 20.5344C124.622 22.308 123.81 24.0678 122.28 25.0384Z" fill="#FFD9EE"/>
<path d="M102.683 6.93401C101.419 1.99724 100.205 -3.02937 99.0732 -8.01025C98.5975 -10.0753 96.7294 -11.4884 94.5686 -11.3677C91.4953 -11.1834 88.3762 -11.0901 85.2985 -11.0901C82.2208 -11.0901 79.1031 -11.1837 76.0317 -11.3677C73.882 -11.4892 72.0034 -10.0758 71.5268 -8.00673C70.3986 -3.03858 69.1847 1.98831 67.9193 6.92887C67.6224 8.06489 67.8565 9.2813 68.5612 10.2669C69.3687 11.3961 70.6752 12.1062 72.1449 12.2145C76.5036 12.5362 80.9298 12.6994 85.3004 12.6994C89.6711 12.6994 94.0972 12.5362 98.4559 12.2145C99.9256 12.1059 101.232 11.3959 102.039 10.2663C102.744 9.28102 102.978 8.06462 102.683 6.93401ZM100.278 9.00716C99.8455 9.61225 99.1233 9.99435 98.2965 10.0555C93.9908 10.3735 89.6183 10.5348 85.3007 10.5348C80.9831 10.5348 76.6105 10.3735 72.3046 10.0555C71.4776 9.99435 70.755 9.61252 70.3223 9.00743C69.9879 8.53955 69.8783 7.99589 70.0155 7.4709C71.2868 2.50599 72.5056 -2.54011 73.6373 -7.52396C73.8627 -8.50114 74.7604 -9.21041 75.7719 -9.21041C75.8157 -9.21041 75.8596 -9.20906 75.9031 -9.20636C79.0171 -9.0199 82.1781 -8.92492 85.2991 -8.92492C88.42 -8.92492 91.5824 -9.0199 94.6979 -9.20636C95.7733 -9.27022 96.7254 -8.55905 96.9632 -7.52721C98.0979 -2.53064 99.3167 2.51519 100.587 7.47604C100.723 7.99562 100.613 8.53955 100.278 9.00716Z" fill="#FFD9EE"/>
<path d="M85.301 -6.00391C81.3982 -6.00391 78.2231 -3.01257 78.2231 0.663963C78.2231 4.34049 81.3982 7.33183 85.301 7.33183C89.2038 7.33183 92.3786 4.34049 92.3786 0.663963C92.3786 -3.01257 89.2038 -6.00391 85.301 -6.00391ZM85.301 5.16667C82.5919 5.16667 80.388 3.14655 80.388 0.663691C80.388 -1.81917 82.5922 -3.83929 85.301 -3.83929C88.0098 -3.83929 90.2137 -1.81917 90.2137 0.663691C90.2137 3.14655 88.0101 5.16667 85.301 5.16667Z" fill="#FFD9EE"/>
<g clip-path="url(#clip1)">
<path d="M956.004 26.91C956.004 26.9101 956.004 26.9101 956.004 26.9101L956.002 26.9095L953.462 27.7432C953.105 27.8604 952.721 27.6661 952.603 27.3092C952.547 27.1376 952.561 26.9508 952.643 26.7897L953.85 24.4041C954.019 24.0688 953.885 23.6595 953.55 23.4899L949.908 21.647C949.572 21.4773 949.163 21.6116 948.994 21.9469L947.787 24.3322C947.619 24.6685 947.211 24.805 946.875 24.6373C946.711 24.5558 946.588 24.4122 946.531 24.2386L945.698 21.6984C945.581 21.3413 945.197 21.1467 944.84 21.2635C944.84 21.2637 944.839 21.2637 944.839 21.2638L940.963 22.5353C940.606 22.6522 940.411 23.0364 940.528 23.3935C940.528 23.3936 940.528 23.3936 940.528 23.3937L941.361 25.9339C941.479 26.2908 941.284 26.6753 940.927 26.7925C940.756 26.8489 940.569 26.8347 940.408 26.7532L938.023 25.5459C937.688 25.3762 937.278 25.5105 937.109 25.8457L935.955 28.1267C935.083 28.4482 934.246 28.8613 933.461 29.3591C928.337 32.6627 926.218 39.0974 928.376 44.799C928.445 44.9797 928.524 45.1541 928.6 45.3297L928.417 45.4201C928.128 45.5637 927.979 45.8907 928.061 46.2028L928.63 48.4153L926.367 48.085C926.042 48.0375 925.729 48.229 925.624 48.54L924.698 51.2738C924.593 51.5845 924.725 51.926 925.011 52.0858L927.003 53.1985L925.206 54.6105C924.956 54.8105 924.879 55.1577 925.022 55.4445L926.227 57.8842C926.369 58.1728 926.695 58.3221 927.006 58.2421L929.219 57.6731L928.893 59.9308C928.846 60.2555 929.037 60.5676 929.348 60.673L932.082 61.5987C932.393 61.7041 932.735 61.5722 932.894 61.2853L934.005 59.2908L935.417 61.0874C935.615 61.3423 935.965 61.4231 936.255 61.2806L938.695 60.0753C938.983 59.9329 939.133 59.6077 939.053 59.296L938.484 57.0829L940.741 57.4092C941.066 57.4563 941.378 57.2651 941.483 56.9545L941.961 55.5362L942.82 57.2746C943.251 58.1409 944.112 58.7117 945.078 58.7725L946.752 62.1613C947.418 63.5087 949.05 64.0614 950.397 63.3957L952.837 62.1903C954.184 61.5246 954.737 59.8927 954.071 58.5452L952.397 55.1564C952.936 54.3523 953.005 53.3222 952.579 52.4531L951.386 50.039C950.901 49.0151 950.969 47.8147 951.567 46.8522C951.911 46.2738 952.21 45.6695 952.46 45.045L951.198 44.5382C950.974 45.0974 950.706 45.6382 950.398 46.1557C949.563 47.5142 949.475 49.2043 950.166 50.6417L951.359 53.0558C951.692 53.7296 951.416 54.5455 950.742 54.8784L945.862 57.2891C945.189 57.6219 944.373 57.3456 944.04 56.6719L942.822 54.2071C942.115 52.8113 940.744 51.8735 939.187 51.7205C932.852 51.0712 928.242 45.4095 928.892 39.0744C929.295 35.1439 931.682 31.6932 935.218 29.9304C935.22 29.9566 935.223 29.9827 935.227 30.0086C935.284 30.1799 935.406 30.3218 935.567 30.403L937.952 31.6098C938.2 31.7311 938.348 31.9933 938.323 32.2688C938.303 32.5431 938.119 32.7783 937.858 32.8635L935.317 33.6966C934.96 33.8135 934.766 34.1977 934.883 34.5548C934.883 34.555 934.883 34.5553 934.883 34.5555L936.155 38.4338C936.272 38.7908 936.656 38.9855 937.013 38.8686C937.013 38.8685 937.013 38.8685 937.014 38.8684L939.554 38.0353C939.911 37.918 940.295 38.1123 940.412 38.4693C940.469 38.6408 940.455 38.8277 940.373 38.9888L939.166 41.3735C938.997 41.7088 939.131 42.118 939.466 42.2877L943.109 44.1305C943.444 44.3002 943.853 44.1659 944.023 43.8307L945.23 41.4456C945.4 41.1106 945.81 40.9769 946.145 41.147C946.305 41.2284 946.427 41.37 946.483 41.5407L947.317 44.0806C947.433 44.4377 947.818 44.6325 948.175 44.5156C948.175 44.5156 948.175 44.5156 948.175 44.5156L952.054 43.2434C952.084 43.233 952.114 43.2206 952.142 43.2064C952.446 43.0568 952.594 42.7064 952.488 42.3845L951.655 39.8446C951.537 39.4876 951.732 39.1032 952.089 38.9859C952.26 38.9295 952.447 38.9438 952.608 39.0252L954.993 40.2317C955.329 40.4014 955.738 40.2671 955.908 39.9318L957.751 36.2896C957.92 35.9543 957.786 35.5451 957.451 35.3754L955.066 34.1687C954.818 34.0467 954.67 33.7849 954.695 33.5097C954.71 33.2339 954.896 32.9968 955.16 32.9156L957.7 32.0819C958.057 31.9651 958.252 31.5808 958.135 31.2237C958.135 31.2236 958.135 31.2236 958.135 31.2236L956.862 27.345C956.745 26.9879 956.361 26.7931 956.004 26.91ZM946.465 58.509L951.345 56.0982L951.947 57.3181L947.068 59.7288L946.465 58.509ZM947.671 60.9487L952.55 58.538L952.851 59.1479C953.184 59.8217 952.908 60.6376 952.234 60.9705L949.794 62.1758C949.121 62.5087 948.305 62.2324 947.972 61.5586L947.671 60.9487ZM937.618 52.8293C938.086 52.9371 938.559 53.0188 939.036 53.0737C939.792 53.1532 940.498 53.4898 941.036 54.0273L940.373 55.9796L938.674 55.732C937.931 55.6238 937.24 56.1389 937.132 56.8826C937.106 57.0609 937.116 57.2426 937.161 57.417L937.593 59.0979L936.144 59.8142L935.073 58.4516C934.608 57.8608 933.753 57.7585 933.162 58.2229C933.021 58.3343 932.903 58.4727 932.815 58.63L931.978 60.1272L930.318 59.5674L930.566 57.8699C930.674 57.1264 930.16 56.4356 929.416 56.3268C929.238 56.3007 929.056 56.3104 928.881 56.3553L927.202 56.7863L926.486 55.3371L927.849 54.2656C928.439 53.8003 928.54 52.9447 928.074 52.3547C927.964 52.2147 927.827 52.0978 927.672 52.0106L926.171 51.1722L926.734 49.5143L928.434 49.7613C929.178 49.869 929.868 49.3534 929.976 48.6098C930.001 48.4317 929.992 48.2502 929.947 48.0759L929.803 47.5157C930.248 48.1702 930.752 48.7825 931.308 49.3451C929.42 50.5758 928.886 53.1048 930.117 54.9935C931.348 56.8822 933.877 57.4155 935.765 56.1847C936.902 55.4438 937.597 54.1862 937.618 52.8293ZM936.246 52.4379C936.416 53.9289 935.346 55.2754 933.855 55.4455C932.364 55.6155 931.017 54.5446 930.847 53.0536C930.717 51.913 931.318 50.8136 932.348 50.3072C932.356 50.3033 932.363 50.2997 932.371 50.2958C933.53 51.2281 934.841 51.9528 936.246 52.4379ZM956.626 31.0009L954.732 31.6223C953.661 31.9737 953.078 33.1269 953.429 34.1978C953.598 34.7121 953.964 35.1384 954.447 35.3827L956.225 36.2823L954.996 38.7105L953.218 37.8117C952.212 37.3027 950.984 37.7054 950.476 38.7111C950.231 39.194 950.189 39.7542 950.357 40.2686L950.985 42.1619L948.4 43.0097L947.779 41.1161C947.428 40.045 946.275 39.4612 945.204 39.8122C944.689 39.9809 944.262 40.3471 944.018 40.8304L943.118 42.6081L940.69 41.3795L941.589 39.6015C942.098 38.5958 941.695 37.3679 940.689 36.8589C940.207 36.6145 939.646 36.5719 939.132 36.7405L937.238 37.3619L936.391 34.7766L938.284 34.1552C939.355 33.8042 939.939 32.6513 939.588 31.5802C939.419 31.0655 939.053 30.639 938.57 30.3945L936.788 29.4955L938.016 27.0674L939.795 27.9667C940.801 28.4757 942.028 28.0731 942.537 27.0674C942.782 26.5845 942.824 26.0242 942.656 25.5098L942.034 23.6163L944.619 22.7679L945.241 24.6615C945.592 25.7325 946.745 26.3158 947.816 25.9644C948.331 25.7957 948.757 25.4296 949.001 24.9465L949.901 23.1688L952.329 24.3974L951.43 26.1757C950.921 27.1815 951.323 28.4094 952.329 28.9183C952.812 29.1627 953.372 29.2053 953.886 29.0367L955.78 28.4154L956.626 31.0009Z" fill="#FFD9EE"/>
<path d="M944.096 28.0092C941.401 29.3406 940.296 32.6046 941.627 35.2994C942.959 37.9943 946.223 39.0996 948.917 37.7682C951.612 36.4368 952.718 33.1728 951.386 30.478C950.052 27.7859 946.791 26.6814 944.096 28.0092ZM948.315 36.5483C946.294 37.5469 943.846 36.7179 942.847 34.6967C941.849 32.6756 942.678 30.2276 944.699 29.2291C946.72 28.2305 949.168 29.0595 950.166 31.0807C951.162 33.102 950.334 35.5479 948.315 36.5483Z" fill="#FFD9EE"/>
<path d="M947.406 52.7333L946.186 53.3359L947.09 55.1657L948.31 54.5631L947.406 52.7333Z" fill="#FFD9EE"/>
<path d="M941.168 48.3632C936.676 48.7525 932.719 45.4267 932.33 40.9348C932.179 39.1942 932.591 37.4512 933.504 35.9619L932.342 35.2521C929.594 39.7372 931.002 45.6011 935.487 48.3493C937.224 49.4137 939.257 49.8931 941.286 49.7171C943.077 49.55 944.786 50.5043 945.583 52.1168L946.803 51.5141C945.759 49.3973 943.518 48.1439 941.168 48.3632Z" fill="#FFD9EE"/>
<path d="M960.545 40.9297L956.275 43.0391L956.878 44.2589L961.147 42.1496L960.545 40.9297Z" fill="#FFD9EE"/>
<path d="M957.632 46.3391L957.314 47.6621L962.48 48.9031L962.798 47.5801L957.632 46.3391Z" fill="#FFD9EE"/>
<path d="M956.246 49.1258L955.026 49.7285L957.136 53.9981L958.356 53.3954L956.246 49.1258Z" fill="#FFD9EE"/>
<path d="M925.109 41.7643L920.832 45.3945L921.712 46.4313L925.989 42.8011L925.109 41.7643Z" fill="#FFD9EE"/>
<path d="M918.986 37.3238L918.768 38.666L924.543 39.6062L924.762 38.264L918.986 37.3238Z" fill="#FFD9EE"/>
<path d="M923.047 31.1921L922.014 32.0781L925.672 36.3409L926.705 35.4549L923.047 31.1921Z" fill="#FFD9EE"/>
</g>
<g clip-path="url(#clip2)">
<path d="M61.4154 281.827C61.4152 281.827 61.4152 281.827 61.4151 281.827L61.4136 281.824L57.2341 279.759C56.6466 279.468 56.4056 278.757 56.6957 278.17C56.8351 277.887 57.0811 277.672 57.3793 277.571L61.796 276.077C62.4168 275.867 62.7496 275.193 62.5397 274.573L60.2584 267.83C60.0484 267.209 59.375 266.876 58.7543 267.086L54.3387 268.581C53.7191 268.794 53.0439 268.465 52.8304 267.845C52.7267 267.545 52.7483 267.215 52.8902 266.93L54.9568 262.751C55.2475 262.163 55.0071 261.452 54.42 261.161C54.4196 261.161 54.4192 261.161 54.4188 261.161L48.0415 258.008C47.4544 257.717 46.7426 257.957 46.4517 258.544C46.4516 258.544 46.4516 258.544 46.4516 258.544L44.385 262.723C44.0949 263.311 43.3834 263.552 42.7959 263.262C42.5136 263.122 42.2984 262.876 42.1974 262.578L40.7043 258.162C40.4943 257.541 39.821 257.208 39.2002 257.418L34.9783 258.848C33.4993 258.182 31.9539 257.674 30.368 257.334C19.9554 255.186 9.45726 260.605 5.17766 270.337C5.04248 270.646 4.9272 270.959 4.80741 271.271L4.46924 271.16C3.93406 270.985 3.34973 271.211 3.07072 271.7L1.07553 275.148L-1.338 271.972C-1.68432 271.516 -2.30716 271.372 -2.81814 271.63L-7.3102 273.902C-7.82056 274.16 -8.07382 274.746 -7.91251 275.295L-6.7935 279.113L-10.7544 278.675C-11.31 278.618 -11.8297 278.957 -12.0028 279.487L-13.4833 283.996C-13.6587 284.529 -13.4364 285.113 -12.9507 285.394L-9.5013 287.389L-12.6657 289.801C-13.121 290.147 -13.2643 290.769 -13.0065 291.28L-10.7353 295.772C-10.4769 296.283 -9.89027 296.536 -9.34102 296.374L-5.52141 295.25L-5.95915 299.211C-6.02427 299.77 -5.68738 300.298 -5.15284 300.474L-0.643983 301.955C-0.110901 302.13 0.47222 301.908 0.753451 301.422L2.749 297.973L5.16023 301.137C5.50665 301.593 6.1286 301.736 6.63924 301.478L8.96648 300.297L7.91159 303.509C7.39009 305.115 7.76341 306.876 8.89126 308.132L6.83477 314.394C6.01708 316.885 7.37291 319.566 9.86307 320.384L14.3719 321.864C16.8621 322.682 19.5437 321.326 20.3614 318.836L22.4178 312.573C24.0705 312.231 25.4154 311.033 25.947 309.431L27.412 304.97C28.059 303.103 29.6102 301.692 31.5302 301.225C32.6649 300.925 33.7748 300.538 34.8499 300.067L33.8977 297.894C32.9357 298.316 31.9422 298.662 30.9264 298.93C28.2269 299.6 26.0534 301.596 25.1576 304.23L23.6926 308.691C23.2837 309.936 21.943 310.614 20.6979 310.205L11.6802 307.244C10.435 306.835 9.75715 305.495 10.166 304.25L11.6618 299.694C12.487 297.093 11.9263 294.251 10.1753 292.158C3.08451 283.611 4.26526 270.934 12.8127 263.843C18.116 259.443 25.3027 258.066 31.8571 260.192C31.8272 260.227 31.7989 260.263 31.7728 260.3C31.6338 260.582 31.6126 260.908 31.7138 261.206L33.2073 265.622C33.3684 266.076 33.2318 266.583 32.8641 266.895C32.5045 267.212 31.9884 267.28 31.5589 267.067L27.3798 265C26.7925 264.71 26.0809 264.95 25.7901 265.537C25.7899 265.538 25.7897 265.538 25.7895 265.538L22.6343 271.919C22.3436 272.506 22.5839 273.218 23.1711 273.508C23.1715 273.509 23.1719 273.509 23.1723 273.509L27.3513 275.576C27.9388 275.866 28.1799 276.577 27.8897 277.165C27.7503 277.447 27.5044 277.662 27.2062 277.763L22.7909 279.257C22.1702 279.467 21.8373 280.14 22.0473 280.761L24.3286 287.504C24.5386 288.125 25.2119 288.457 25.8327 288.248L30.2491 286.754C30.87 286.545 31.543 286.879 31.7521 287.5C31.8522 287.797 31.8306 288.122 31.6919 288.403L29.6265 292.583C29.3356 293.17 29.5758 293.882 30.1631 294.172C30.1632 294.173 30.1632 294.173 30.1633 294.173L36.5447 297.328C36.5952 297.352 36.6472 297.373 36.7004 297.391C37.2613 297.576 37.8728 297.32 38.135 296.79L40.2004 292.611C40.4906 292.023 41.2021 291.782 41.7896 292.072C42.0719 292.212 42.2871 292.458 42.3881 292.756L43.8827 297.172C44.0927 297.792 44.766 298.125 45.3868 297.915L52.1299 295.634C52.7506 295.424 53.0835 294.751 52.8735 294.13L51.38 289.715C51.2204 289.26 51.3567 288.754 51.7232 288.441C52.0796 288.117 52.6003 288.049 53.0281 288.27L57.2076 290.336C57.7947 290.626 58.5066 290.386 58.7974 289.799C58.7974 289.799 58.7974 289.799 58.7975 289.799L61.952 283.417C62.2428 282.83 62.0026 282.118 61.4154 281.827ZM10.9399 309.499L19.9576 312.46L19.2173 314.714L10.1996 311.753L10.9399 309.499ZM9.45934 314.008L18.4771 316.969L18.1069 318.096C17.6981 319.341 16.3574 320.019 15.1122 319.61L10.6033 318.129C9.3582 317.721 8.68033 316.38 9.0892 315.135L9.45934 314.008ZM6.86863 291.622C7.31882 292.327 7.80801 293.007 8.33421 293.658C9.17827 294.681 9.64563 295.962 9.65837 297.288L6.44802 298.908L4.63684 296.525C3.84362 295.482 2.35496 295.279 1.31169 296.072C1.06159 296.263 0.85171 296.501 0.694364 296.772L-0.820533 299.393L-3.49992 298.513L-3.16783 295.509C-3.02419 294.207 -3.96366 293.034 -5.26624 292.891C-5.5785 292.856 -5.89457 292.884 -6.19605 292.973L-9.06697 293.813L-10.4478 291.09L-8.06638 289.279C-7.02269 288.487 -6.81926 286.998 -7.61182 285.954C-7.80208 285.704 -8.04023 285.493 -8.31253 285.336L-10.9284 283.821L-10.0489 281.143L-7.04443 281.474C-5.74167 281.616 -4.57066 280.674 -4.42895 279.372C-4.39535 279.062 -4.42273 278.75 -4.5097 278.451L-5.35324 275.575L-2.62654 274.2L-0.813105 276.583C-0.0192327 277.626 1.4697 277.828 2.51226 277.034C2.76199 276.844 2.9715 276.606 3.12861 276.334L3.63383 275.461C3.38797 276.819 3.267 278.197 3.27257 279.577C-0.58158 278.801 -4.33488 281.297 -5.11063 285.151C-5.88637 289.005 -3.39067 292.759 0.463478 293.534C2.78365 294.001 5.18417 293.285 6.86863 291.622ZM5.63959 289.459C4.02957 291.522 1.05191 291.89 -1.01141 290.28C-3.07469 288.67 -3.44215 285.692 -1.83227 283.629C-0.600613 282.05 1.49027 281.416 3.39115 282.045C3.40581 282.05 3.41933 282.054 3.43399 282.059C3.73666 284.634 4.48286 287.138 5.63959 289.459ZM57.1912 287.678L54.0755 286.138C52.3133 285.267 50.1786 285.989 49.3074 287.751C48.8891 288.597 48.824 289.575 49.1267 290.469L50.2399 293.761L45.7445 295.282L44.6297 291.991C44 290.129 41.9799 289.13 40.1179 289.76C39.2237 290.062 38.4863 290.707 38.0677 291.553L36.5363 294.677L32.2831 292.573L33.8232 289.458C34.695 287.696 33.9734 285.561 32.2116 284.689C31.3649 284.27 30.3867 284.205 29.492 284.508L26.2006 285.621L24.6797 281.126L27.9704 280.011C29.8326 279.381 30.8316 277.361 30.2018 275.499C29.8994 274.605 29.2542 273.867 28.4081 273.449L25.2924 271.909L27.3958 267.656L30.5115 269.196C32.2733 270.067 34.4084 269.346 35.2801 267.584C35.699 266.737 35.7642 265.759 35.4614 264.864L34.3421 261.569L38.8376 260.048L39.952 263.339C40.5817 265.202 42.6018 266.201 44.4639 265.571C45.358 265.269 46.0954 264.623 46.514 263.777L48.0541 260.662L52.3076 262.764L50.7676 265.879C49.8964 267.642 50.6187 269.776 52.3809 270.648C53.2271 271.066 54.2049 271.131 55.0991 270.828L58.3905 269.715L59.9114 274.21L56.6196 275.325C54.7574 275.955 53.7583 277.975 54.3882 279.837C54.6905 280.731 55.3358 281.468 56.1819 281.887L59.2976 283.427L57.1912 287.678Z" fill="#FFD9EE"/>
<path d="M45.2536 268.647C40.2732 267.011 34.9101 269.723 33.2747 274.703C31.6394 279.684 34.351 285.047 39.3313 286.682C44.3116 288.317 49.6748 285.606 51.3102 280.625C52.9392 275.646 50.2298 270.287 45.2536 268.647ZM40.0716 284.428C36.3363 283.201 34.3026 279.179 35.5292 275.444C36.7557 271.708 40.778 269.675 44.5133 270.901C48.2486 272.128 50.2823 276.15 49.0557 279.885C47.8254 283.617 43.8065 285.649 40.0716 284.428Z" fill="#FFD9EE"/>
<path d="M16.7444 290.401C10.6785 285.398 9.81713 276.425 14.8205 270.359C16.7592 268.008 19.4008 266.342 22.3568 265.604L21.7781 263.301C12.8784 265.526 7.46675 274.543 9.69097 283.443C10.5524 286.89 12.4962 289.97 15.2372 292.23C17.6701 294.21 18.6307 297.485 17.6528 300.466L19.9072 301.206C21.1947 297.297 19.9366 292.999 16.7444 290.401Z" fill="#FFD9EE"/>
<path d="M4.81682 262.57L-4.94043 261.863L-5.11179 264.229L4.64546 264.936L4.81682 262.57Z" fill="#FFD9EE"/>
<path d="M2.62408 249.561L0.712402 250.965L6.75178 259.191L8.66346 257.788L2.62408 249.561Z" fill="#FFD9EE"/>
<path d="M15.1692 246.893L12.8018 246.734L12.1463 256.508L14.5138 256.667L15.1692 246.893Z" fill="#FFD9EE"/>
</g>
<g clip-path="url(#clip3)">
<path d="M904.904 153H906.096C907.061 153 907.845 152.215 907.845 151.251V150.848C908.255 150.717 908.654 150.551 909.036 150.353L909.322 150.639C910.015 151.332 911.124 151.312 911.796 150.639L912.639 149.796C913.313 149.123 913.332 148.014 912.639 147.322L912.353 147.036C912.551 146.654 912.717 146.255 912.848 145.845H913.251C914.215 145.845 915 145.061 915 144.096V142.904C915 141.939 914.215 141.155 913.251 141.155H912.848C912.716 140.745 912.551 140.346 912.353 139.964L912.639 139.678C913.332 138.986 913.313 137.877 912.639 137.204L911.796 136.361C911.122 135.686 910.013 135.669 909.322 136.361L909.036 136.647C908.654 136.449 908.255 136.283 907.845 136.152V135.749C907.845 134.785 907.061 134 906.096 134H904.904C903.939 134 903.155 134.785 903.155 135.749V136.152C902.745 136.283 902.346 136.449 901.964 136.647L901.678 136.361C900.985 135.668 899.876 135.688 899.204 136.361L898.361 137.204C897.688 137.877 897.668 138.986 898.361 139.678L898.647 139.964C898.449 140.346 898.284 140.745 898.152 141.155H897.749C896.785 141.155 896 141.939 896 142.904V144.096C896 145.061 896.785 145.845 897.749 145.845H898.152C898.284 146.255 898.449 146.654 898.647 147.036L898.361 147.322C897.668 148.014 897.687 149.123 898.361 149.796L899.204 150.639C899.878 151.314 900.987 151.331 901.678 150.639L901.964 150.353C902.346 150.551 902.745 150.717 903.155 150.848V151.251C903.155 152.215 903.939 153 904.904 153ZM908.85 149.184C908.319 149.498 907.746 149.736 907.15 149.89C906.904 149.953 906.732 150.175 906.732 150.429V151.251C906.732 151.601 906.447 151.887 906.096 151.887H904.904C904.553 151.887 904.268 151.601 904.268 151.251V150.429C904.268 150.175 904.096 149.953 903.85 149.89C903.254 149.736 902.681 149.498 902.15 149.184C901.931 149.055 901.652 149.09 901.473 149.27L900.89 149.852C900.639 150.103 900.236 150.097 899.992 149.852L899.148 149.009C898.904 148.765 898.896 148.362 899.148 148.11L899.73 147.527C899.91 147.348 899.945 147.069 899.816 146.85C899.501 146.319 899.264 145.746 899.11 145.15C899.046 144.904 898.825 144.732 898.571 144.732H897.749C897.399 144.732 897.113 144.447 897.113 144.096V142.904C897.113 142.553 897.399 142.268 897.749 142.268H898.571C898.825 142.268 899.046 142.096 899.11 141.85C899.264 141.254 899.501 140.681 899.816 140.15C899.945 139.931 899.91 139.652 899.73 139.473L899.148 138.891C898.896 138.639 898.903 138.236 899.148 137.992L899.991 137.148C900.236 136.904 900.639 136.896 900.89 137.148L901.473 137.73C901.652 137.91 901.931 137.945 902.15 137.816C902.681 137.502 903.253 137.264 903.85 137.11C904.096 137.047 904.268 136.825 904.268 136.571V135.749C904.268 135.399 904.553 135.113 904.904 135.113H906.096C906.447 135.113 906.732 135.399 906.732 135.749V136.571C906.732 136.825 906.904 137.047 907.15 137.11C907.746 137.264 908.319 137.502 908.85 137.816C909.069 137.945 909.348 137.91 909.527 137.73L910.109 137.148C910.36 136.897 910.764 136.903 911.008 137.148L911.852 137.991C912.096 138.235 912.104 138.638 911.852 138.89L911.27 139.473C911.09 139.652 911.055 139.931 911.184 140.15C911.498 140.681 911.736 141.254 911.89 141.85C911.953 142.096 912.175 142.268 912.429 142.268H913.251C913.601 142.268 913.887 142.553 913.887 142.904V144.096C913.887 144.447 913.601 144.732 913.251 144.732H912.429C912.175 144.732 911.954 144.904 911.89 145.15C911.736 145.746 911.498 146.319 911.184 146.85C911.055 147.069 911.09 147.348 911.27 147.527L911.852 148.109C912.104 148.361 912.097 148.764 911.852 149.008L911.009 149.852C910.764 150.097 910.361 150.104 910.11 149.852L909.527 149.27C909.395 149.137 909.12 149.025 908.85 149.184Z" fill="#FFD9EE"/>
<path d="M905.5 147.635C907.779 147.635 909.634 145.781 909.634 143.501C909.634 141.222 907.779 139.367 905.5 139.367C903.22 139.367 901.366 141.222 901.366 143.501C901.366 145.781 903.22 147.635 905.5 147.635ZM905.5 140.48C907.165 140.48 908.521 141.836 908.521 143.501C908.521 145.167 907.165 146.522 905.5 146.522C903.834 146.522 902.479 145.167 902.479 143.501C902.479 141.836 903.834 140.48 905.5 140.48Z" fill="#FFD9EE"/>
</g>
<g clip-path="url(#clip4)">
<path d="M707.996 73H710.004C711.628 73 712.95 71.6785 712.95 70.0542V69.3748C713.641 69.1541 714.312 68.8756 714.956 68.5421L715.438 69.0236C716.604 70.1912 718.472 70.1569 719.604 69.0231L721.024 67.6038C722.158 66.4707 722.191 64.6033 721.023 63.4372L720.542 62.9561C720.876 62.3115 721.154 61.6407 721.375 60.95H722.054C723.678 60.95 725 59.6285 725 58.0042V55.9958C725 54.3715 723.678 53.05 722.054 53.05H721.375C721.154 52.3594 720.876 51.6885 720.542 51.0439L721.024 50.5625C722.19 49.3971 722.158 47.5295 721.023 46.3959L719.604 44.9764C718.469 43.8399 716.601 43.8116 715.437 44.9768L714.956 45.4579C714.311 45.1244 713.641 44.8459 712.95 44.6252V43.9458C712.95 42.3215 711.628 41 710.004 41H707.996C706.372 41 705.05 42.3215 705.05 43.9458V44.6253C704.359 44.8459 703.688 45.1244 703.044 45.4579L702.562 44.9764C701.396 43.8088 699.528 43.8431 698.396 44.9769L696.976 46.3962C695.842 47.5293 695.809 49.3968 696.977 50.5628L697.458 51.0439C697.124 51.6885 696.846 52.3593 696.625 53.05H695.946C694.322 53.05 693 54.3715 693 55.9958V58.0042C693 59.6285 694.322 60.95 695.946 60.95H696.625C696.846 61.6406 697.124 62.3115 697.458 62.9561L696.976 63.4376C695.81 64.6029 695.842 66.4706 696.977 67.6041L698.396 69.0236C699.531 70.1601 701.399 70.1885 702.563 69.0233L703.044 68.5422C703.688 68.8757 704.359 69.1542 705.05 69.3749V70.0543C705.05 71.6785 706.372 73 707.996 73ZM714.643 66.5731C713.747 67.1027 712.783 67.5028 711.778 67.7622C711.364 67.869 711.075 68.2424 711.075 68.6699V70.0542C711.075 70.6446 710.595 71.125 710.004 71.125H707.996C707.405 71.125 706.925 70.6446 706.925 70.0542V68.6699C706.925 68.2424 706.636 67.869 706.222 67.7622C705.216 67.5028 704.253 67.1027 703.357 66.5731C702.989 66.3553 702.52 66.4145 702.217 66.7172L701.237 67.6978C700.814 68.121 700.135 68.1112 699.723 67.6982L698.302 66.2778C697.891 65.8669 697.877 65.1879 698.302 64.7638L699.283 63.7828C699.585 63.4802 699.645 63.0111 699.427 62.6427C698.897 61.7473 698.497 60.7836 698.238 59.7782C698.131 59.3643 697.757 59.0751 697.33 59.0751H695.946C695.355 59.0751 694.875 58.5947 694.875 58.0042V55.9959C694.875 55.4054 695.355 54.9251 695.946 54.9251H697.33C697.758 54.9251 698.131 54.6358 698.238 54.2219C698.497 53.2166 698.897 52.2528 699.427 51.3574C699.645 50.9891 699.585 50.5199 699.283 50.2173L698.302 49.2367C697.878 48.8134 697.889 48.1346 698.302 47.7227L699.722 46.3024C700.134 45.8901 700.813 45.8781 701.236 46.302L702.217 47.2829C702.52 47.5856 702.989 47.6449 703.357 47.427C704.253 46.8974 705.216 46.4974 706.222 46.2379C706.636 46.1311 706.925 45.7578 706.925 45.3302V43.9458C706.925 43.3554 707.405 42.875 707.996 42.875H710.004C710.595 42.875 711.075 43.3554 711.075 43.9458V45.3301C711.075 45.7576 711.364 46.131 711.778 46.2378C712.783 46.4973 713.747 46.8973 714.643 47.4269C715.011 47.6447 715.48 47.5854 715.783 47.2828L716.763 46.3022C717.186 45.879 717.865 45.8888 718.277 46.3018L719.698 47.7222C720.109 48.1331 720.123 48.812 719.698 49.2362L718.717 50.2172C718.415 50.5198 718.355 50.9889 718.573 51.3573C719.103 52.2527 719.503 53.2164 719.762 54.2218C719.869 54.6357 720.242 54.9249 720.67 54.9249H722.054C722.645 54.925 723.125 55.4054 723.125 55.9958V58.0042C723.125 58.5946 722.645 59.075 722.054 59.075H720.67C720.242 59.075 719.869 59.3643 719.762 59.7782C719.503 60.7835 719.103 61.7473 718.573 62.6426C718.355 63.011 718.415 63.4801 718.717 63.7827L719.698 64.7633C720.122 65.1867 720.111 65.8654 719.698 66.2774L718.278 67.6977C717.866 68.1099 717.187 68.122 716.764 67.6981L715.783 66.7171C715.56 66.4942 715.096 66.305 714.643 66.5731Z" fill="#FFD9EE"/>
<path d="M709 63.9641C712.839 63.9641 715.962 60.8407 715.962 57.0016C715.962 53.1624 712.839 50.0391 709 50.0391C705.161 50.0391 702.037 53.1624 702.037 57.0016C702.037 60.8407 705.161 63.9641 709 63.9641ZM709 51.9141C711.805 51.9141 714.087 54.1963 714.087 57.0016C714.087 59.8068 711.805 62.0891 709 62.0891C706.195 62.0891 703.912 59.8068 703.912 57.0016C703.912 54.1963 706.195 51.9141 709 51.9141Z" fill="#FFD9EE"/>
</g>
<g clip-path="url(#clip5)">
<path d="M84.4017 153H86.5983C88.3749 153 89.8204 151.555 89.8204 149.778V149.035C90.5757 148.794 91.3095 148.489 92.0145 148.124L92.5412 148.651C93.8167 149.928 95.8599 149.89 97.0983 148.65L98.6508 147.098C99.8915 145.859 99.9272 143.816 98.6504 142.541L98.1242 142.014C98.489 141.309 98.7936 140.576 99.035 139.82H99.778C101.555 139.82 103 138.375 103 136.598V134.402C103 132.625 101.555 131.18 99.7779 131.18H99.0349C98.7935 130.424 98.489 129.691 98.1241 128.986L98.6508 128.459C99.9268 127.184 99.8916 125.142 98.6504 123.902L97.0977 122.349C95.8564 121.106 93.8137 121.075 92.5406 122.35L92.0144 122.876C91.3095 122.511 90.5756 122.206 89.8203 121.965V121.222C89.8203 119.445 88.3749 118 86.5983 118H84.4017C82.6251 118 81.1797 119.445 81.1797 121.222V121.965C80.4244 122.206 79.6905 122.511 78.9856 122.876L78.4589 122.349C77.1834 121.072 75.1402 121.11 73.9017 122.35L72.3492 123.902C71.1086 125.141 71.0729 127.184 72.3496 128.459L72.8759 128.986C72.511 129.691 72.2065 130.424 71.9651 131.18H71.2221C69.4455 131.18 68 132.625 68 134.402V136.598C68 138.375 69.4455 139.82 71.2221 139.82H71.9651C72.2065 140.576 72.511 141.309 72.8759 142.014L72.3492 142.541C71.0732 143.816 71.1084 145.858 72.3496 147.098L73.9023 148.651C75.1436 149.894 77.1863 149.925 78.4594 148.65L78.9856 148.124C79.6905 148.489 80.4244 148.794 81.1797 149.035V149.778C81.1797 151.555 82.6251 153 84.4017 153ZM91.6717 145.971C90.6923 146.55 89.6382 146.987 88.5387 147.271C88.0859 147.388 87.7695 147.796 87.7695 148.264V149.778C87.7695 150.424 87.2441 150.949 86.5983 150.949H84.4017C83.7559 150.949 83.2304 150.424 83.2304 149.778V148.264C83.2304 147.796 82.914 147.388 82.4612 147.271C81.3617 146.987 80.3076 146.55 79.3282 145.971C78.9253 145.732 78.4122 145.797 78.0812 146.128L77.0087 147.201C76.5464 147.664 75.8038 147.653 75.3528 147.201L73.7992 145.648C73.3493 145.198 73.3342 144.456 73.7988 143.992L74.8717 142.919C75.2027 142.588 75.2675 142.075 75.0293 141.672C74.45 140.692 74.0125 139.638 73.7288 138.539C73.6119 138.086 73.2035 137.77 72.7359 137.77H71.222C70.5762 137.77 70.0507 137.244 70.0507 136.598V134.402C70.0507 133.756 70.5762 133.231 71.222 133.231H72.7359C73.2036 133.231 73.6119 132.914 73.7288 132.461C74.0125 131.362 74.4501 130.308 75.0293 129.328C75.2675 128.926 75.2027 128.412 74.8717 128.081L73.7992 127.009C73.3356 126.546 73.3477 125.803 73.7988 125.353L75.3523 123.799C75.8025 123.349 76.5452 123.335 77.0083 123.799L78.0811 124.872C78.4121 125.203 78.9253 125.268 79.3282 125.03C80.3076 124.45 81.3617 124.013 82.4612 123.729C82.914 123.612 83.2303 123.204 83.2303 122.736V121.222C83.2303 120.576 83.7558 120.051 84.4016 120.051H86.5982C87.244 120.051 87.7695 120.576 87.7695 121.222V122.736C87.7695 123.204 88.0858 123.612 88.5386 123.729C89.6381 124.013 90.6922 124.45 91.6716 125.029C92.0747 125.268 92.5877 125.203 92.9187 124.872L93.9911 123.799C94.4535 123.336 95.1961 123.347 95.6471 123.799L97.2007 125.352C97.6506 125.802 97.6656 126.544 97.2011 127.008L96.1282 128.081C95.7972 128.412 95.7324 128.925 95.9706 129.328C96.5498 130.308 96.9873 131.362 97.2711 132.461C97.388 132.914 97.7963 133.23 98.2639 133.23H99.7779C100.424 133.23 100.949 133.756 100.949 134.402V136.598C100.949 137.244 100.424 137.77 99.7779 137.77H98.264C97.7963 137.77 97.388 138.086 97.2711 138.539C96.9874 139.638 96.5498 140.692 95.9707 141.672C95.7324 142.075 95.7972 142.588 96.1282 142.919L97.2007 143.991C97.6643 144.454 97.6522 145.197 97.2011 145.647L95.6477 147.201C95.1974 147.651 94.4547 147.665 93.9917 147.201L92.9188 146.128C92.6749 145.884 92.1675 145.677 91.6717 145.971Z" fill="#FFD9EE"/>
<path d="M85.5 143.117C89.6991 143.117 93.1152 139.701 93.1152 135.502C93.1152 131.303 89.6991 127.887 85.5 127.887C81.3009 127.887 77.8848 131.303 77.8848 135.502C77.8848 139.701 81.3009 143.117 85.5 143.117ZM85.5 129.937C88.5683 129.937 91.0645 132.434 91.0645 135.502C91.0645 138.57 88.5682 141.066 85.5 141.066C82.4318 141.066 79.9355 138.57 79.9355 135.502C79.9355 132.434 82.4317 129.937 85.5 129.937Z" fill="#FFD9EE"/>
</g>
<g clip-path="url(#clip6)">
<path d="M662.402 309H664.598C666.375 309 667.82 307.555 667.82 305.778V305.035C668.576 304.794 669.31 304.489 670.015 304.124L670.541 304.651C671.817 305.928 673.86 305.89 675.098 304.65L676.651 303.098C677.891 301.859 677.927 299.816 676.65 298.541L676.124 298.014C676.489 297.309 676.794 296.576 677.035 295.82H677.778C679.555 295.82 681 294.375 681 292.598V290.402C681 288.625 679.555 287.18 677.778 287.18H677.035C676.794 286.424 676.489 285.691 676.124 284.986L676.651 284.459C677.927 283.184 677.892 281.142 676.65 279.902L675.098 278.349C673.856 277.106 671.814 277.075 670.541 278.35L670.014 278.876C669.309 278.511 668.576 278.206 667.82 277.965V277.222C667.82 275.445 666.375 274 664.598 274H662.402C660.625 274 659.18 275.445 659.18 277.222V277.965C658.424 278.206 657.691 278.511 656.986 278.876L656.459 278.349C655.183 277.072 653.14 277.11 651.902 278.35L650.349 279.902C649.109 281.141 649.073 283.184 650.35 284.459L650.876 284.986C650.511 285.691 650.206 286.424 649.965 287.18H649.222C647.445 287.18 646 288.625 646 290.402V292.598C646 294.375 647.445 295.82 649.222 295.82H649.965C650.206 296.576 650.511 297.309 650.876 298.014L650.349 298.541C649.073 299.816 649.108 301.858 650.35 303.098L651.902 304.651C653.144 305.894 655.186 305.925 656.459 304.65L656.986 304.124C657.691 304.489 658.424 304.794 659.18 305.035V305.778C659.18 307.555 660.625 309 662.402 309ZM669.672 301.971C668.692 302.55 667.638 302.987 666.539 303.271C666.086 303.388 665.77 303.796 665.77 304.264V305.778C665.77 306.424 665.244 306.949 664.598 306.949H662.402C661.756 306.949 661.23 306.424 661.23 305.778V304.264C661.23 303.796 660.914 303.388 660.461 303.271C659.362 302.987 658.308 302.55 657.328 301.971C656.925 301.732 656.412 301.797 656.081 302.128L655.009 303.201C654.546 303.664 653.804 303.653 653.353 303.201L651.799 301.648C651.349 301.198 651.334 300.456 651.799 299.992L652.872 298.919C653.203 298.588 653.267 298.075 653.029 297.672C652.45 296.692 652.013 295.638 651.729 294.539C651.612 294.086 651.204 293.77 650.736 293.77H649.222C648.576 293.77 648.051 293.244 648.051 292.598V290.402C648.051 289.756 648.576 289.231 649.222 289.231H650.736C651.204 289.231 651.612 288.914 651.729 288.461C652.013 287.362 652.45 286.308 653.029 285.328C653.267 284.926 653.203 284.412 652.872 284.081L651.799 283.009C651.336 282.546 651.348 281.803 651.799 281.353L653.352 279.799C653.803 279.349 654.545 279.335 655.008 279.799L656.081 280.872C656.412 281.203 656.925 281.268 657.328 281.03C658.308 280.45 659.362 280.013 660.461 279.729C660.914 279.612 661.23 279.204 661.23 278.736V277.222C661.23 276.576 661.756 276.051 662.402 276.051H664.598C665.244 276.051 665.769 276.576 665.769 277.222V278.736C665.769 279.204 666.086 279.612 666.539 279.729C667.638 280.013 668.692 280.45 669.672 281.029C670.075 281.268 670.588 281.203 670.919 280.872L671.991 279.799C672.454 279.336 673.196 279.347 673.647 279.799L675.201 281.352C675.651 281.802 675.666 282.544 675.201 283.008L674.128 284.081C673.797 284.412 673.732 284.925 673.971 285.328C674.55 286.308 674.987 287.362 675.271 288.461C675.388 288.914 675.796 289.23 676.264 289.23H677.778C678.424 289.23 678.949 289.756 678.949 290.402V292.598C678.949 293.244 678.424 293.77 677.778 293.77H676.264C675.796 293.77 675.388 294.086 675.271 294.539C674.987 295.638 674.55 296.692 673.971 297.672C673.732 298.075 673.797 298.588 674.128 298.919L675.201 299.991C675.664 300.454 675.652 301.197 675.201 301.647L673.648 303.201C673.197 303.651 672.455 303.665 671.992 303.201L670.919 302.128C670.675 301.884 670.168 301.677 669.672 301.971Z" fill="#FFD9EE"/>
<path d="M663.5 299.117C667.699 299.117 671.115 295.701 671.115 291.502C671.115 287.303 667.699 283.887 663.5 283.887C659.301 283.887 655.885 287.303 655.885 291.502C655.885 295.701 659.301 299.117 663.5 299.117ZM663.5 285.937C666.568 285.937 669.064 288.434 669.064 291.502C669.064 294.57 666.568 297.066 663.5 297.066C660.432 297.066 657.936 294.57 657.936 291.502C657.936 288.434 660.432 285.937 663.5 285.937Z" fill="#FFD9EE"/>
</g>
<g clip-path="url(#clip7)">
<path d="M430.718 -5.42463C430.718 -5.42461 430.718 -5.42461 430.717 -5.4246L430.716 -5.42593L427.583 -5.39799C427.143 -5.39396 426.783 -5.7476 426.779 -6.18785C426.777 -6.39942 426.859 -6.60301 427.007 -6.75392L429.203 -8.98858C429.512 -9.30263 429.507 -9.80733 429.193 -10.116L425.782 -13.4685C425.468 -13.7772 424.963 -13.7727 424.654 -13.4587L422.459 -11.2241C422.152 -10.9083 421.648 -10.9011 421.332 -11.2079C421.179 -11.3569 421.091 -11.5613 421.09 -11.7751L421.063 -14.9077C421.059 -15.348 420.7 -15.7019 420.259 -15.6983C420.259 -15.6983 420.259 -15.6984 420.259 -15.6983L415.478 -15.6565C415.038 -15.653 414.684 -15.2932 414.688 -14.8529C414.688 -14.8528 414.688 -14.8528 414.688 -14.8527L414.715 -11.7202C414.719 -11.2799 414.365 -10.9197 413.925 -10.9157C413.713 -10.9137 413.51 -10.996 413.359 -11.1443L411.125 -13.3403C410.811 -13.649 410.306 -13.6445 409.998 -13.3305L407.899 -11.1936C406.81 -11.1449 405.729 -10.9808 404.675 -10.7043C397.78 -8.83709 393.126 -2.40553 393.509 4.72817C393.522 4.95446 393.547 5.17714 393.57 5.40029L393.334 5.43618C392.96 5.49364 392.678 5.80597 392.658 6.18373L392.507 8.85635L390.097 7.68287C389.751 7.51434 389.334 7.61704 389.106 7.92684L387.1 10.6503C386.872 10.9599 386.898 11.388 387.161 11.6683L388.989 13.6187L386.481 14.5566C386.131 14.691 385.922 15.0515 385.979 15.4223L386.457 18.575C386.514 18.9478 386.824 19.2302 387.2 19.2516L389.874 19.403L388.707 21.8081C388.539 22.1538 388.641 22.5702 388.951 22.7983L391.674 24.804C391.984 25.0321 392.412 25.0064 392.693 24.7429L394.643 22.9108L395.58 25.4189C395.711 25.774 396.073 25.9885 396.447 25.9324L399.6 25.4539C399.973 25.3975 400.255 25.0875 400.276 24.711L400.428 22.0375L402.833 23.2045C403.179 23.3726 403.595 23.2701 403.823 22.9607L404.861 21.5469L405.202 23.7932C405.375 24.914 406.133 25.8572 407.19 26.2684L407.855 30.6476C408.119 32.3888 409.745 33.586 411.486 33.3218L414.639 32.8432C416.38 32.5789 417.577 30.9531 417.313 29.2119L416.648 24.8328C417.536 24.1264 417.979 23.0009 417.813 21.8791L417.339 18.7594C417.161 17.4436 417.664 16.1275 418.674 15.2654C419.263 14.7418 419.812 14.1732 420.314 13.565L419.084 12.5502C418.635 13.0949 418.144 13.6037 417.616 14.0721C416.2 15.2919 415.502 17.148 415.763 18.9987L416.236 22.1183C416.368 22.989 415.77 23.8018 414.899 23.934L408.594 24.891C407.723 25.0232 406.91 24.4246 406.778 23.554L406.295 20.3689C406.001 18.559 404.804 17.0244 403.119 16.2999C396.276 13.3228 393.143 5.36225 396.12 -1.48058C397.967 -5.72623 401.859 -8.73051 406.434 -9.4417C406.427 -9.41184 406.421 -9.3816 406.417 -9.35112C406.419 -9.13978 406.505 -8.93786 406.656 -8.78993L408.89 -6.59466C409.124 -6.37089 409.196 -6.02557 409.07 -5.72696C408.95 -5.42762 408.661 -5.23036 408.339 -5.22821L405.207 -5.20105C404.766 -5.19742 404.412 -4.83759 404.416 -4.39736C404.416 -4.39707 404.416 -4.39676 404.416 -4.39646L404.457 0.38611C404.461 0.826326 404.821 1.18032 405.261 1.17679C405.261 1.17675 405.262 1.1768 405.262 1.17676L408.394 1.1496C408.835 1.14557 409.195 1.49921 409.199 1.93947C409.201 2.15103 409.119 2.35463 408.97 2.50554L406.775 4.73929C406.466 5.05334 406.471 5.55804 406.785 5.86667L410.197 9.21924C410.511 9.52788 411.015 9.52344 411.324 9.20939L413.52 6.97551C413.829 6.66192 414.334 6.65817 414.647 6.96727C414.798 7.11513 414.883 7.31644 414.885 7.52709L414.913 10.6595C414.917 11.0997 415.276 11.4538 415.717 11.4503C415.717 11.4503 415.717 11.4503 415.717 11.4503L420.5 11.4088C420.538 11.4079 420.575 11.4047 420.612 11.399C421.005 11.34 421.294 11.0012 421.291 10.6042L421.263 7.4718C421.259 7.03154 421.612 6.67136 422.053 6.66732C422.264 6.66535 422.468 6.74764 422.619 6.89588L424.853 9.09102C425.167 9.39966 425.672 9.39522 425.981 9.08117L429.333 5.66947C429.642 5.35542 429.637 4.85072 429.323 4.54209L427.09 2.34682C426.856 2.12252 426.785 1.7778 426.91 1.47912C427.025 1.17666 427.317 0.977983 427.64 0.981158L430.773 0.953215C431.213 0.949692 431.567 0.589838 431.564 0.149608C431.564 0.14951 431.564 0.14951 431.564 0.149412L431.521 -4.63383C431.518 -5.07416 431.158 -5.42817 430.718 -5.42463ZM408.833 26.4674L415.138 25.5103L415.378 27.0867L409.072 28.0438L408.833 26.4674ZM409.312 29.6201L415.617 28.663L415.737 29.4512C415.869 30.3219 415.27 31.1347 414.4 31.2668L411.247 31.7454C410.376 31.8775 409.563 31.2789 409.431 30.4083L409.312 29.6201ZM400.974 16.9804C401.457 17.267 401.957 17.5264 402.47 17.7572C403.286 18.1148 403.954 18.7417 404.364 19.5331L402.929 21.4772L401.121 20.597C400.329 20.2118 399.375 20.5415 398.99 21.3334C398.898 21.5233 398.844 21.7296 398.832 21.9403L398.718 23.9711L396.844 24.2555L396.133 22.3532C395.824 21.5285 394.905 21.1101 394.081 21.4187C393.883 21.4927 393.702 21.6052 393.548 21.7497L392.081 23.1239L390.427 21.9089L391.307 20.1015C391.693 19.3099 391.364 18.3555 390.572 17.9698C390.382 17.8772 390.175 17.8233 389.964 17.8113L387.937 17.6957L387.652 15.823L389.554 15.111C390.379 14.8011 390.796 13.8818 390.486 13.0575C390.412 12.8619 390.301 12.6827 390.158 12.5301L388.781 11.0604L389.999 9.40953L391.809 10.2895C392.601 10.6741 393.555 10.3439 393.94 9.55181C394.032 9.36214 394.086 9.15605 394.098 8.9455L394.136 8.2688C394.4 9.15781 394.745 10.0206 395.167 10.8466C392.62 11.5495 391.126 14.1836 391.829 16.7301C392.531 19.2766 395.166 20.7712 397.712 20.0683C399.245 19.6452 400.467 18.4879 400.974 16.9804ZM399.581 16.0556C399.241 17.7809 397.566 18.9037 395.841 18.5636C394.116 18.2233 392.993 16.5489 393.333 14.8236C393.594 13.5038 394.655 12.4898 395.986 12.2907C395.996 12.2891 396.005 12.2877 396.016 12.2861C396.978 13.739 398.184 15.0142 399.581 16.0556ZM429.957 -0.635699L427.622 -0.615062C426.301 -0.60346 425.24 0.476753 425.252 1.79749C425.257 2.43174 425.515 3.03786 425.967 3.48241L427.632 5.11892L425.397 7.39338L423.731 5.75778C422.789 4.83187 421.275 4.84491 420.349 5.78694C419.905 6.23924 419.658 6.84969 419.663 7.48397L419.692 9.8213L416.503 9.84883L416.483 7.51358C416.472 6.19276 415.392 5.13103 414.071 5.14222C413.436 5.14754 412.83 5.40488 412.385 5.85763L410.749 7.52277L408.474 5.28772L410.11 3.62191C411.036 2.67987 411.023 1.16563 410.081 0.239812C409.628 -0.204767 409.018 -0.451475 408.384 -0.446115L406.048 -0.425479L406.021 -3.6136L408.356 -3.63423C409.677 -3.64533 410.739 -4.72511 410.727 -6.04591C410.722 -6.68059 410.465 -7.28701 410.012 -7.73182L408.342 -9.36919L410.577 -11.6437L412.243 -10.0073C413.185 -9.08135 414.699 -9.09439 415.625 -10.0364C416.07 -10.4887 416.316 -11.0992 416.311 -11.7335L416.29 -14.0687L419.478 -14.097L419.499 -11.7618C419.511 -10.4409 420.591 -9.37965 421.912 -9.39125C422.546 -9.39681 423.152 -9.65411 423.596 -10.1066L425.233 -11.7718L427.507 -9.5367L425.871 -7.87078C424.945 -6.92873 424.958 -5.41449 425.9 -4.48868C426.352 -4.0441 426.963 -3.79739 427.597 -3.80275L429.932 -3.82339L429.957 -0.635699Z" fill="#FFD9EE"/>
<path d="M417.031 -8.42974C413.548 -7.90116 411.154 -4.64959 411.682 -1.16721C412.211 2.31516 415.462 4.70972 418.945 4.18114C422.427 3.65256 424.822 0.400992 424.293 -3.08138C423.761 -6.56159 420.512 -8.95424 417.031 -8.42974ZM418.705 2.60478C416.094 3.00122 413.655 1.20535 413.259 -1.40649C412.862 -4.01832 414.658 -6.45694 417.27 -6.85338C419.882 -7.24982 422.32 -5.45394 422.717 -2.84211C423.11 -0.231098 421.316 2.20548 418.705 2.60478Z" fill="#FFD9EE"/>
<path d="M411.936 20.3545L410.36 20.5938L410.719 22.9583L412.295 22.719L411.936 20.3545Z" fill="#FFD9EE"/>
<path d="M406.526 13.255C401.372 12.0928 398.135 6.97248 399.298 1.81844C399.748 -0.178689 400.827 -1.97865 402.377 -3.31688L401.332 -4.52259C396.668 -0.491545 396.156 6.55655 400.187 11.2198C401.748 13.0258 403.847 14.2836 406.176 14.8086C408.235 15.2589 409.804 16.9318 410.121 19.0157L411.697 18.7764C411.284 16.0418 409.227 13.8455 406.526 13.255Z" fill="#FFD9EE"/>
<path d="M430.803 11.8461L425.286 12.6836L425.525 14.2599L431.043 13.4225L430.803 11.8461Z" fill="#FFD9EE"/>
<path d="M425.628 16.8486L424.803 18.2129L430.13 21.4353L430.955 20.071L425.628 16.8486Z" fill="#FFD9EE"/>
<path d="M423.091 19.4678L421.514 19.707L422.352 25.2243L423.928 24.985L423.091 19.4678Z" fill="#FFD9EE"/>
<path d="M390.939 0.181734L384.873 2.71484L385.487 4.18531L391.553 1.6522L390.939 0.181734Z" fill="#FFD9EE"/>
</g>
<g clip-path="url(#clip8)">
<path d="M243.155 46H243.845C244.404 46 244.858 45.5457 244.858 44.9874V44.7538C245.095 44.678 245.326 44.5822 245.547 44.4676L245.713 44.6331C246.114 45.0345 246.756 45.0227 247.145 44.6329L247.633 44.145C248.023 43.7555 248.034 43.1136 247.633 42.7128L247.468 42.5474C247.582 42.3258 247.678 42.0952 247.754 41.8578H247.987C248.546 41.8578 249 41.4035 249 40.8452V40.1548C249 39.5965 248.546 39.1422 247.987 39.1422H247.754C247.678 38.9048 247.582 38.6742 247.468 38.4526L247.633 38.2871C248.034 37.8865 248.023 37.2445 247.633 36.8549L247.145 36.3669C246.755 35.9762 246.113 35.9665 245.713 36.367L245.547 36.5324C245.326 36.4178 245.095 36.322 244.858 36.2462V36.0126C244.858 35.4543 244.404 35 243.845 35H243.155C242.596 35 242.142 35.4543 242.142 36.0126V36.2462C241.905 36.322 241.674 36.4178 241.453 36.5324L241.287 36.3669C240.886 35.9655 240.244 35.9773 239.855 36.3671L239.367 36.855C238.977 37.2445 238.966 37.8864 239.367 38.2872L239.532 38.4526C239.418 38.6742 239.322 38.9048 239.246 39.1422H239.013C238.454 39.1422 238 39.5965 238 40.1548V40.8452C238 41.4035 238.454 41.8578 239.013 41.8578H239.246C239.322 42.0952 239.418 42.3258 239.532 42.5474L239.367 42.7129C238.966 43.1135 238.977 43.7555 239.367 44.1452L239.855 44.6331C240.245 45.0238 240.887 45.0335 241.287 44.633L241.453 44.4676C241.674 44.5823 241.905 44.678 242.142 44.7539V44.9874C242.142 45.5457 242.596 46 243.155 46ZM245.44 43.7908C245.132 43.9728 244.801 44.1103 244.455 44.1995C244.313 44.2362 244.213 44.3646 244.213 44.5115V44.9874C244.213 45.1903 244.048 45.3555 243.845 45.3555H243.155C242.952 45.3555 242.787 45.1903 242.787 44.9874V44.5115C242.787 44.3646 242.687 44.2362 242.545 44.1995C242.199 44.1103 241.868 43.9728 241.56 43.7908C241.434 43.7159 241.272 43.7362 241.168 43.8403L240.831 44.1774C240.686 44.3228 240.453 44.3195 240.311 44.1775L239.823 43.6892C239.681 43.548 239.676 43.3146 239.822 43.1688L240.16 42.8316C240.264 42.7276 240.284 42.5663 240.209 42.4397C240.027 42.1319 239.89 41.8006 239.8 41.455C239.764 41.3127 239.635 41.2133 239.488 41.2133H239.013C238.81 41.2133 238.645 41.0482 238.645 40.8452V40.1548C238.645 39.9519 238.81 39.7867 239.013 39.7867H239.488C239.635 39.7867 239.764 39.6873 239.8 39.545C239.89 39.1994 240.027 38.8682 240.209 38.5604C240.284 38.4337 240.264 38.2725 240.16 38.1685L239.823 37.8314C239.677 37.6858 239.681 37.4525 239.822 37.3109L240.311 36.8227C240.452 36.681 240.686 36.6768 240.831 36.8226L241.168 37.1598C241.272 37.2638 241.434 37.2842 241.56 37.2093C241.868 37.0272 242.199 36.8897 242.545 36.8005C242.687 36.7638 242.787 36.6355 242.787 36.4885V36.0126C242.787 35.8097 242.952 35.6445 243.155 35.6445H243.845C244.048 35.6445 244.213 35.8097 244.213 36.0126V36.4885C244.213 36.6354 244.313 36.7638 244.455 36.8005C244.801 36.8897 245.132 37.0272 245.44 37.2092C245.566 37.2841 245.728 37.2637 245.832 37.1597L246.169 36.8226C246.314 36.6772 246.547 36.6805 246.689 36.8225L247.177 37.3108C247.319 37.452 247.323 37.6854 247.177 37.8312L246.84 38.1684C246.736 38.2724 246.716 38.4337 246.791 38.5603C246.973 38.8681 247.11 39.1994 247.199 39.545C247.236 39.6873 247.365 39.7867 247.512 39.7867H247.987C248.19 39.7867 248.355 39.9518 248.355 40.1548V40.8452C248.355 41.0482 248.19 41.2133 247.987 41.2133H247.512C247.365 41.2133 247.236 41.3127 247.2 41.455C247.11 41.8006 246.973 42.1319 246.791 42.4397C246.716 42.5663 246.736 42.7275 246.84 42.8316L247.177 43.1686C247.323 43.3142 247.319 43.5475 247.178 43.6891L246.689 44.1773C246.548 44.319 246.314 44.3232 246.169 44.1775L245.832 43.8403C245.755 43.7636 245.595 43.6986 245.44 43.7908Z" fill="#FFD9EE"/>
<path d="M243.5 42.8941C244.82 42.8941 245.894 41.8205 245.894 40.5008C245.894 39.1811 244.82 38.1074 243.5 38.1074C242.18 38.1074 241.107 39.1811 241.107 40.5008C241.107 41.8205 242.18 42.8941 243.5 42.8941ZM243.5 38.752C244.465 38.752 245.249 39.5365 245.249 40.5008C245.249 41.4651 244.464 42.2496 243.5 42.2496C242.536 42.2496 241.751 41.4651 241.751 40.5008C241.751 39.5365 242.536 38.752 243.5 38.752Z" fill="#FFD9EE"/>
</g>
</g>
<defs>
<clipPath id="clip0">
<rect width="1004" height="294" rx="20" fill="white"/>
</clipPath>
<clipPath id="clip1">
<rect x="915" y="35.1602" width="41" height="41" transform="rotate(-26.2917 915 35.1602)" fill="white"/>
</clipPath>
<clipPath id="clip2">
<rect x="0.307129" y="242" width="71.5017" height="71.5017" transform="rotate(18.1784 0.307129 242)" fill="white"/>
</clipPath>
<clipPath id="clip3">
<rect width="19" height="19" transform="matrix(-1 0 0 1 915 134)" fill="white"/>
</clipPath>
<clipPath id="clip4">
<rect width="32" height="32" transform="matrix(-1 0 0 1 725 41)" fill="white"/>
</clipPath>
<clipPath id="clip5">
<rect width="35" height="35" transform="matrix(-1 0 0 1 103 118)" fill="white"/>
</clipPath>
<clipPath id="clip6">
<rect width="35" height="35" transform="matrix(-1 0 0 1 681 274)" fill="white"/>
</clipPath>
<clipPath id="clip7">
<rect x="382" y="-10.7891" width="48.0447" height="48.0447" transform="rotate(-8.63089 382 -10.7891)" fill="white"/>
</clipPath>
<clipPath id="clip8">
<rect width="11" height="11" transform="matrix(-1 0 0 1 249 35)" fill="white"/>
</clipPath>
</defs>
</svg>
