<svg width="1004" height="294" viewBox="0 0 1004 294" fill="none" xmlns="http://www.w3.org/2000/svg">
<g clip-path="url(#clip0)">
<rect width="1004" height="294" rx="20" fill="white"/>
<rect width="1004" height="294" rx="20" fill="#2E279D"/>
<path d="M473.117 127.88V170H462.857V144.74L453.437 170H445.157L435.677 144.68V170H425.417V127.88H437.537L449.357 157.04L461.057 127.88H473.117ZM478.455 153.2C478.455 149.76 479.095 146.74 480.375 144.14C481.695 141.54 483.475 139.54 485.715 138.14C487.955 136.74 490.455 136.04 493.215 136.04C495.575 136.04 497.635 136.52 499.395 137.48C501.195 138.44 502.575 139.7 503.535 141.26V136.52H513.795V170H503.535V165.26C502.535 166.82 501.135 168.08 499.335 169.04C497.575 170 495.515 170.48 493.155 170.48C490.435 170.48 487.955 169.78 485.715 168.38C483.475 166.94 481.695 164.92 480.375 162.32C479.095 159.68 478.455 156.64 478.455 153.2ZM503.535 153.26C503.535 150.7 502.815 148.68 501.375 147.2C499.975 145.72 498.255 144.98 496.215 144.98C494.175 144.98 492.435 145.72 490.995 147.2C489.595 148.64 488.895 150.64 488.895 153.2C488.895 155.76 489.595 157.8 490.995 159.32C492.435 160.8 494.175 161.54 496.215 161.54C498.255 161.54 499.975 160.8 501.375 159.32C502.815 157.84 503.535 155.82 503.535 153.26ZM539.878 161.3V170H534.658C530.938 170 528.038 169.1 525.958 167.3C523.878 165.46 522.838 162.48 522.838 158.36V145.04H518.758V136.52H522.838V128.36H533.098V136.52H539.818V145.04H533.098V158.48C533.098 159.48 533.338 160.2 533.818 160.64C534.298 161.08 535.098 161.3 536.218 161.3H539.878ZM566.173 136.16C570.013 136.16 573.093 137.44 575.413 140C577.733 142.52 578.893 146 578.893 150.44V170H568.693V151.82C568.693 149.58 568.113 147.84 566.953 146.6C565.793 145.36 564.233 144.74 562.273 144.74C560.313 144.74 558.753 145.36 557.593 146.6C556.433 147.84 555.853 149.58 555.853 151.82V170H545.593V125.6H555.853V141.02C556.893 139.54 558.313 138.36 560.113 137.48C561.913 136.6 563.933 136.16 566.173 136.16Z" fill="#FFD9EE"/>
<path d="M6.11489 282.012L1.38949 286.036L-2.63496 281.311C-3.08006 280.788 -3.86324 280.726 -4.38493 281.17C-4.90661 281.615 -4.97022 282.398 -4.52512 282.92L-0.500673 287.646L-5.22607 291.67C-5.74776 292.115 -5.81137 292.898 -5.36627 293.42C-4.92116 293.943 -4.13798 294.005 -3.6163 293.56L1.1091 289.536L5.13355 294.261C5.57865 294.784 6.36183 294.846 6.88352 294.402C7.4052 293.957 7.46881 293.174 7.02371 292.652L2.99926 287.926L7.72467 283.902C8.24635 283.457 8.30996 282.674 7.86486 282.152C7.41975 281.629 6.63657 281.567 6.11489 282.012Z" fill="#FFD9EE"/>
<path d="M32.5775 259.476L21.2366 269.135C20.7149 269.579 20.6513 270.362 21.0964 270.885C21.5415 271.407 22.3247 271.469 22.8464 271.025L34.1873 261.366C34.709 260.922 34.7726 260.139 34.3275 259.616C33.8824 259.093 33.0992 259.032 32.5775 259.476Z" fill="#FFD9EE"/>
<path d="M3.3524 261.537L1.46224 263.147L-25 285.684L-2.46311 312.146L-0.853331 314.036L21.6836 340.498L48.1458 317.961L50.036 316.352L76.4982 293.815L53.9613 267.352L52.3515 265.462L29.8146 239L3.3524 261.537ZM-21.5001 285.964L3.07202 265.037L23.9991 289.609L-0.572948 310.536L-21.5001 285.964ZM21.9639 336.998L1.03683 312.426L25.6089 291.499L46.536 316.071L21.9639 336.998ZM72.9983 293.534L48.4262 314.461L27.4991 289.889L52.0712 268.962L72.9983 293.534ZM25.8893 287.999L4.96218 263.427L29.5343 242.5L50.4614 267.072L25.8893 287.999Z" fill="#FFD9EE"/>
<path d="M47.7975 300.322L59.1385 290.663C59.6602 290.219 59.7238 289.436 59.2787 288.913C58.8336 288.39 58.0504 288.328 57.5287 288.773L46.1878 298.431C45.6661 298.876 45.6025 299.659 46.0476 300.181C46.4927 300.704 47.2758 300.766 47.7975 300.322Z" fill="#FFD9EE"/>
<path d="M42.9684 294.652L54.3094 284.993C54.8311 284.549 54.8947 283.766 54.4496 283.243C54.0045 282.72 53.2213 282.659 52.6996 283.103L41.3587 292.762C40.837 293.206 40.7734 293.989 41.2185 294.511C41.6636 295.034 42.4467 295.096 42.9684 294.652Z" fill="#FFD9EE"/>
<path d="M954.325 267.851L948.137 268.327L947.661 262.138C947.608 261.454 947.011 260.943 946.328 260.996C945.644 261.048 945.132 261.644 945.185 262.329L945.661 268.517L939.472 268.993C938.789 269.046 938.277 269.642 938.33 270.326C938.383 271.011 938.98 271.521 939.663 271.469L945.851 270.993L946.327 277.181C946.38 277.866 946.977 278.376 947.66 278.324C948.344 278.271 948.856 277.675 948.803 276.991L948.327 270.802L954.516 270.326C955.199 270.274 955.711 269.678 955.658 268.993C955.605 268.309 955.008 267.798 954.325 267.851Z" fill="#FFD9EE"/>
<path d="M988.981 265.184L974.128 266.327C973.445 266.379 972.933 266.975 972.986 267.66C973.038 268.344 973.636 268.855 974.319 268.802L989.171 267.66C989.855 267.607 990.367 267.011 990.314 266.327C990.261 265.642 989.664 265.132 988.981 265.184Z" fill="#FFD9EE"/>
<path d="M964.132 249.666L961.656 249.856L927 252.521L929.666 287.178L929.856 289.653L932.521 324.309L967.178 321.644L969.653 321.454L1004.31 318.788L1001.64 284.132L1001.45 281.656L998.788 247L964.132 249.666ZM929.666 254.807L961.847 252.331L964.322 284.512L932.141 286.987L929.666 254.807ZM934.807 321.644L932.331 289.463L964.512 286.988L966.987 319.168L934.807 321.644ZM1001.64 316.503L969.463 318.978L966.988 286.797L999.168 284.322L1001.64 316.503ZM966.797 284.322L964.322 252.141L996.503 249.666L998.978 281.847L966.797 284.322Z" fill="#FFD9EE"/>
<path d="M820.986 -9.36131L814.832 -10.1728L815.644 -16.3264C815.734 -17.007 815.255 -17.6298 814.576 -17.7194C813.896 -17.809 813.272 -17.3316 813.183 -16.651L812.371 -10.4974L806.217 -11.3088C805.538 -11.3984 804.914 -10.921 804.824 -10.2404C804.735 -9.5598 805.213 -8.93696 805.893 -8.84738L812.046 -8.03591L811.235 -1.88229C811.145 -1.2017 811.624 -0.578855 812.303 -0.489269C812.983 -0.399683 813.607 -0.877109 813.696 -1.5577L814.508 -7.71132L820.662 -6.89986C821.341 -6.81027 821.965 -7.2877 822.055 -7.96829C822.144 -8.64888 821.665 -9.27172 820.986 -9.36131Z" fill="#FFD9EE"/>
<path d="M834.335 -25.1312L831.873 -25.4558L797.413 -30L792.869 4.46029L792.544 6.92174L788 41.382L822.46 45.9262L824.922 46.2508L859.382 50.795L863.926 16.3347L864.251 13.8733L868.795 -20.587L834.335 -25.1312ZM799.55 -27.214L831.549 -22.9943L827.329 9.0045L795.33 4.78488L799.55 -27.214ZM790.786 39.2452L795.006 7.24633L827.005 11.466L822.785 43.4648L790.786 39.2452ZM857.245 48.009L825.246 43.7894L829.466 11.7905L861.465 16.0102L857.245 48.009ZM829.791 9.32909L834.01 -22.6698L866.009 -18.4501L861.789 13.5487L829.791 9.32909Z" fill="#FFD9EE"/>
<path d="M835.322 33.8483L850.091 35.7959C850.77 35.8855 851.394 35.408 851.484 34.7274C851.574 34.0468 851.095 33.424 850.415 33.3344L835.647 31.3869C834.967 31.2973 834.343 31.7747 834.254 32.4553C834.164 33.1359 834.643 33.7588 835.322 33.8483Z" fill="#FFD9EE"/>
<path d="M836.296 26.4655L851.064 28.4131C851.744 28.5026 852.368 28.0252 852.458 27.3446C852.547 26.664 852.068 26.0412 851.389 25.9516L836.62 24.0041C835.941 23.9145 835.317 24.3919 835.227 25.0725C835.138 25.7531 835.616 26.376 836.296 26.4655Z" fill="#FFD9EE"/>
<path d="M816.845 19.259C816.427 18.7143 815.65 18.6117 815.105 19.0295L809.125 23.6163L804.538 17.636C804.12 17.0914 803.342 16.9888 802.798 17.4065C802.253 17.8243 802.15 18.6021 802.568 19.1468L807.155 25.127L801.175 29.7138C800.63 30.1316 800.528 30.9094 800.945 31.454C801.154 31.7257 801.453 31.8878 801.768 31.9294C802.083 31.9709 802.414 31.8919 802.686 31.6835L808.666 27.0968L813.253 33.077C813.461 33.3486 813.76 33.5108 814.075 33.5523C814.39 33.5939 814.721 33.5148 814.993 33.3065C815.537 32.8887 815.64 32.1109 815.222 31.5662L810.635 25.586L816.616 20.9992C817.16 20.5815 817.263 19.8036 816.845 19.259Z" fill="#FFD9EE"/>
<path d="M209.773 80.8599L204.054 83.2717L201.642 77.5526C201.376 76.92 200.648 76.6248 200.016 76.8911C199.385 77.1573 199.088 77.8847 199.355 78.5173L201.766 84.2364L196.047 86.6482C195.416 86.9145 195.119 87.6419 195.386 88.2744C195.653 88.9069 196.381 89.2021 197.012 88.9359L202.731 86.5241L205.143 92.2433C205.41 92.8758 206.138 93.171 206.769 92.9047C207.401 92.6385 207.697 91.9111 207.431 91.2785L205.019 85.5594L210.738 83.1476C211.369 82.8813 211.666 82.1539 211.399 81.5214C211.133 80.8889 210.405 80.5937 209.773 80.8599Z" fill="#FFD9EE"/>
<path d="M241.801 67.3544L228.075 73.1426C227.444 73.4089 227.147 74.1363 227.414 74.7688C227.68 75.4014 228.408 75.6966 229.04 75.4303L242.766 69.642C243.397 69.3758 243.694 68.6484 243.427 68.0158C243.16 67.3833 242.432 67.0881 241.801 67.3544Z" fill="#FFD9EE"/>
<path d="M213.315 60.5058L211.027 61.4706L179 74.9766L192.506 107.004L193.471 109.292L206.977 141.319L239.004 127.813L241.292 126.848L273.319 113.342L259.813 81.3148L258.848 79.0272L245.342 46.9998L213.315 60.5058ZM182.252 76.2995L211.992 63.7582L224.533 93.4979L194.794 106.039L182.252 76.2995ZM208.3 138.066L195.758 108.327L225.498 95.7855L238.039 125.525L208.3 138.066ZM270.067 112.019L240.327 124.56L227.786 94.8208L257.525 82.2795L270.067 112.019ZM226.821 92.5332L214.28 62.7935L244.019 50.2522L256.561 79.9919L226.821 92.5332Z" fill="#FFD9EE"/>
<path d="M243.992 110.889L257.718 105.101C258.35 104.835 258.647 104.107 258.38 103.475C258.113 102.842 257.385 102.547 256.754 102.813L243.028 108.602C242.396 108.868 242.099 109.595 242.366 110.228C242.633 110.86 243.361 111.156 243.992 110.889Z" fill="#FFD9EE"/>
<path d="M241.099 104.026L254.825 98.2377C255.456 97.9715 255.753 97.2441 255.486 96.6115C255.22 95.979 254.491 95.6838 253.86 95.9501L240.134 101.738C239.503 102.005 239.206 102.732 239.473 103.365C239.739 103.997 240.467 104.292 241.099 104.026Z" fill="#FFD9EE"/>
<path d="M220.674 107.645C220.038 107.387 219.315 107.692 219.056 108.327L216.217 115.309L209.235 112.469C208.6 112.21 207.877 112.515 207.618 113.151C207.359 113.787 207.664 114.51 208.3 114.768L215.281 117.608L212.442 124.589C212.183 125.225 212.488 125.948 213.124 126.207C213.441 126.336 213.781 126.324 214.074 126.201C214.366 126.077 214.612 125.842 214.741 125.525L217.581 118.543L224.562 121.383C224.879 121.512 225.219 121.501 225.512 121.377C225.805 121.254 226.05 121.018 226.179 120.701C226.438 120.065 226.133 119.342 225.497 119.084L218.516 116.244L221.356 109.263C221.614 108.627 221.31 107.904 220.674 107.645Z" fill="#FFD9EE"/>
<path d="M601.138 17H586.241C585.556 17 585 17.5549 585 18.2414C585 18.9279 585.556 19.4828 586.241 19.4828H601.138C601.823 19.4828 602.379 18.9279 602.379 18.2414C602.379 17.5549 601.823 17 601.138 17Z" fill="#FFD9EE"/>
<path d="M928.771 128.316L923.093 130.821L920.587 125.143C920.31 124.514 919.577 124.231 918.95 124.508C918.323 124.784 918.038 125.517 918.316 126.145L920.821 131.823L915.142 134.329C914.515 134.606 914.231 135.338 914.508 135.966C914.785 136.594 915.518 136.877 916.145 136.6L921.823 134.095L924.329 139.774C924.606 140.402 925.339 140.685 925.966 140.408C926.593 140.132 926.877 139.4 926.6 138.771L924.095 133.093L929.774 130.587C930.4 130.311 930.685 129.578 930.408 128.95C930.131 128.322 929.398 128.039 928.771 128.316Z" fill="#FFD9EE"/>
<path d="M724.801 241.813L739.177 237.907C739.838 237.728 740.229 237.046 740.049 236.384C739.869 235.721 739.187 235.332 738.526 235.511L724.15 239.417C723.489 239.596 723.098 240.278 723.278 240.94C723.458 241.603 724.14 241.992 724.801 241.813Z" fill="#FFD9EE"/>
<path d="M722.849 234.627L737.224 230.722C737.886 230.542 738.277 229.861 738.097 229.198C737.917 228.536 737.235 228.146 736.573 228.326L722.198 232.231C721.537 232.411 721.145 233.092 721.325 233.755C721.505 234.417 722.188 234.807 722.849 234.627Z" fill="#FFD9EE"/>
<path d="M92.1379 42.4483H85.931V36.2414C85.931 35.5549 85.3749 35 84.6897 35C84.0044 35 83.4483 35.5549 83.4483 36.2414V42.4483H77.2414C76.5561 42.4483 76 43.0032 76 43.6897C76 44.3761 76.5561 44.931 77.2414 44.931H83.4483V51.1379C83.4483 51.8244 84.0044 52.3793 84.6897 52.3793C85.3749 52.3793 85.931 51.8244 85.931 51.1379V44.931H92.1379C92.8232 44.931 93.3793 44.3761 93.3793 43.6897C93.3793 43.0032 92.8232 42.4483 92.1379 42.4483Z" fill="#FFD9EE"/>
<path d="M228.896 239.255C229.123 237.55 229.629 236.25 230.414 235.356C231.209 234.463 232.34 234.114 233.807 234.31C235.274 234.505 236.269 235.137 236.793 236.206C237.326 237.276 237.479 238.663 237.252 240.368C237.022 242.093 236.51 243.401 235.715 244.294C234.93 245.188 233.804 245.538 232.337 245.342C230.87 245.147 229.87 244.514 229.337 243.444C228.813 242.376 228.666 240.979 228.896 239.255ZM234.754 240.035C234.888 239.034 234.881 238.251 234.734 237.687C234.589 237.113 234.174 236.78 233.49 236.689C232.806 236.598 232.319 236.81 232.028 237.326C231.739 237.833 231.527 238.586 231.394 239.587C231.304 240.261 231.269 240.827 231.289 241.283C231.31 241.73 231.421 242.108 231.622 242.417C231.834 242.718 232.178 242.9 232.654 242.963C233.13 243.027 233.505 242.94 233.778 242.705C234.063 242.46 234.274 242.125 234.411 241.699C234.55 241.264 234.664 240.709 234.754 240.035ZM238.716 237.597L239.031 235.233L243.15 235.782L241.704 246.636L239.057 246.283L240.188 237.793L238.716 237.597ZM243.625 244.818C243.998 244.596 244.168 244.492 244.136 244.508C245.214 243.835 246.065 243.277 246.689 242.836C247.322 242.396 247.87 241.919 248.332 241.405C248.794 240.892 249.061 240.367 249.132 239.832C249.186 239.426 249.134 239.096 248.976 238.843C248.818 238.59 248.551 238.438 248.174 238.388C247.797 238.338 247.481 238.442 247.225 238.7C246.979 238.95 246.823 239.333 246.754 239.848L244.301 239.521C244.433 238.681 244.705 238.001 245.117 237.481C245.539 236.962 246.046 236.606 246.637 236.413C247.237 236.22 247.88 236.17 248.563 236.261C249.743 236.418 250.59 236.838 251.104 237.522C251.628 238.207 251.826 239.036 251.696 240.007C251.555 241.068 251.062 242.006 250.217 242.821C249.373 243.627 248.333 244.386 247.098 245.1L251.113 245.634L250.838 247.701L243.373 246.707L243.625 244.818ZM253.064 240.22C253.245 239.164 253.701 238.393 254.432 237.905C255.163 237.417 256.088 237.248 257.208 237.397C257.952 237.496 258.569 237.71 259.06 238.037C259.561 238.366 259.916 238.772 260.124 239.254C260.342 239.737 260.414 240.256 260.34 240.811C260.253 241.465 260.018 241.978 259.635 242.351C259.254 242.714 258.836 242.941 258.38 243.031L258.372 243.091C258.912 243.354 259.316 243.726 259.585 244.206C259.854 244.686 259.943 245.267 259.852 245.951C259.77 246.566 259.554 247.092 259.203 247.529C258.863 247.958 258.403 248.27 257.822 248.465C257.251 248.662 256.594 248.71 255.851 248.611C254.661 248.453 253.748 248.034 253.113 247.354C252.487 246.675 252.233 245.743 252.35 244.558L254.818 244.887C254.77 245.325 254.848 245.688 255.051 245.978C255.256 246.257 255.587 246.427 256.043 246.488C256.429 246.539 256.741 246.47 256.978 246.28C257.227 246.081 257.375 245.798 257.424 245.431C257.488 244.955 257.38 244.593 257.1 244.344C256.832 244.086 256.366 243.913 255.701 243.825L255.226 243.761L255.501 241.694L255.977 241.758C256.482 241.825 256.9 241.795 257.23 241.668C257.571 241.531 257.771 241.24 257.83 240.794C257.878 240.437 257.816 240.147 257.644 239.922C257.472 239.697 257.213 239.562 256.866 239.516C256.489 239.465 256.191 239.542 255.973 239.745C255.764 239.949 255.622 240.218 255.547 240.551L253.064 240.22Z" fill="#FFD9EE"/>
<path d="M389.185 66.5198L384.546 65.9017L384.272 67.9536C384.5 67.7619 384.801 67.6205 385.176 67.5292C385.552 67.438 385.947 67.4201 386.364 67.4756C387.107 67.5746 387.699 67.825 388.14 68.2268C388.591 68.6298 388.894 69.1142 389.051 69.6798C389.208 70.2455 389.245 70.8405 389.161 71.465C389.007 72.6248 388.557 73.503 387.812 74.0998C387.068 74.6867 386.101 74.9009 384.911 74.7424C384.118 74.6368 383.447 74.4112 382.898 74.0656C382.35 73.7102 381.95 73.2684 381.698 72.7405C381.445 72.2125 381.346 71.6293 381.401 70.991L383.884 71.3218C383.903 71.637 384.012 71.9139 384.212 72.1524C384.414 72.381 384.713 72.5218 385.109 72.5746C385.575 72.6367 385.942 72.5342 386.21 72.2672C386.477 72.0002 386.644 71.6189 386.71 71.1233C386.775 70.6376 386.705 70.25 386.502 69.9606C386.298 69.6712 385.968 69.4961 385.512 69.4353C385.175 69.3904 384.887 69.4377 384.646 69.5772C384.407 69.7067 384.235 69.9007 384.13 70.1591L381.676 69.8322L382.538 63.3644L389.482 64.2895L389.185 66.5198ZM396.485 68.2188C396.455 67.8414 396.352 67.5504 396.178 67.3455C396.005 67.1308 395.735 66.999 395.368 66.9501C394.803 66.8748 394.363 67.0685 394.05 67.5311C393.737 67.9838 393.505 68.7398 393.354 69.7991C393.618 69.4812 393.967 69.2502 394.4 69.1061C394.842 68.9633 395.312 68.925 395.807 68.991C396.779 69.1204 397.516 69.5314 398.019 70.2239C398.532 70.9177 398.715 71.8147 398.568 72.915C398.472 73.6386 398.238 74.2532 397.868 74.7587C397.508 75.2656 397.025 75.6351 396.419 75.8671C395.823 76.1004 395.144 76.1662 394.38 76.0645C392.854 75.8612 391.857 75.2441 391.389 74.2132C390.922 73.1725 390.808 71.755 391.047 69.9609C391.298 68.0775 391.797 66.7215 392.543 65.8928C393.3 65.0554 394.372 64.7292 395.76 64.9141C396.504 65.0131 397.108 65.245 397.574 65.6097C398.051 65.9659 398.387 66.399 398.581 66.9091C398.786 67.4206 398.875 67.9621 398.849 68.5337L396.485 68.2188ZM394.93 70.917C394.504 70.8603 394.13 70.9416 393.808 71.161C393.497 71.3718 393.311 71.7102 393.249 72.1761C393.186 72.6519 393.265 73.0408 393.487 73.3427C393.719 73.646 394.078 73.83 394.564 73.8947C395 73.9528 395.359 73.8695 395.641 73.6448C395.934 73.4115 396.112 73.0669 396.172 72.6109C396.234 72.145 396.159 71.7618 395.947 71.4611C395.735 71.1605 395.396 70.9791 394.93 70.917ZM402.09 71.0991C401.224 70.4794 400.862 69.6392 401.003 68.5786C401.074 68.0433 401.278 67.5761 401.613 67.1769C401.95 66.7678 402.418 66.4721 403.018 66.2896C403.618 66.0972 404.33 66.0559 405.153 66.1655C405.976 66.2751 406.647 66.5007 407.166 66.8423C407.697 67.1753 408.071 67.5833 408.289 68.0663C408.509 68.5395 408.583 69.0437 408.512 69.5789C408.44 70.1142 408.249 70.5629 407.939 70.9251C407.638 71.2886 407.26 71.5559 406.803 71.7271C407.304 72.0561 407.668 72.4678 407.894 72.9621C408.122 73.4464 408.196 73.9909 408.116 74.5956C408.022 75.2994 407.762 75.8852 407.337 76.3531C406.912 76.8111 406.375 77.133 405.725 77.3187C405.085 77.5058 404.393 77.5498 403.649 77.4508C402.906 77.3517 402.245 77.1274 401.666 76.7779C401.097 76.4297 400.668 75.9791 400.378 75.426C400.09 74.863 399.993 74.2296 400.087 73.5259C400.168 72.9113 400.383 72.4001 400.73 71.9924C401.078 71.5747 401.531 71.277 402.09 71.0991ZM405.992 69.6367C406.046 69.2303 405.969 68.9022 405.76 68.6524C405.562 68.3941 405.27 68.2391 404.884 68.1876C404.497 68.1361 404.17 68.2085 403.901 68.4048C403.643 68.6024 403.487 68.9044 403.432 69.3108C403.381 69.6974 403.459 70.0205 403.667 70.2802C403.875 70.53 404.168 70.68 404.545 70.7302C404.921 70.7803 405.244 70.7073 405.512 70.511C405.78 70.3147 405.94 70.0233 405.992 69.6367ZM404.307 72.5144C403.841 72.4523 403.447 72.531 403.126 72.7504C402.805 72.9599 402.615 73.2877 402.556 73.7338C402.5 74.1501 402.593 74.5106 402.835 74.8152C403.087 75.1211 403.451 75.3058 403.927 75.3692C404.403 75.4326 404.792 75.3483 405.095 75.1163C405.409 74.8856 405.593 74.5621 405.648 74.1458C405.706 73.7097 405.609 73.3436 405.356 73.0476C405.113 72.7529 404.763 72.5751 404.307 72.5144ZM412.33 75.1571C412.374 75.9599 412.778 76.4122 413.541 76.5139C414.067 76.5839 414.469 76.4005 414.75 75.9637C415.03 75.5268 415.24 74.7831 415.38 73.7323C415.121 74.0106 414.792 74.2089 414.393 74.3272C413.993 74.4455 413.561 74.4736 413.095 74.4116C412.461 74.3271 411.913 74.1229 411.452 73.7992C410.992 73.4655 410.652 73.0218 410.433 72.468C410.226 71.9057 410.172 71.2528 410.271 70.5094C410.368 69.7759 410.602 69.1563 410.972 68.6508C411.352 68.1465 411.839 67.7827 412.434 67.5593C413.039 67.3372 413.723 67.277 414.486 67.3787C415.953 67.5741 416.918 68.1668 417.382 69.1566C417.845 70.1465 417.958 71.5286 417.722 73.3029C417.55 74.5915 417.289 75.6413 416.939 76.4521C416.6 77.2544 416.124 77.8366 415.511 78.1988C414.908 78.5623 414.13 78.6807 413.179 78.5539C412.425 78.4535 411.801 78.219 411.305 77.8503C410.819 77.483 410.465 77.0373 410.243 76.5133C410.03 75.9906 409.942 75.4342 409.981 74.8441L412.33 75.1571ZM413.942 72.4816C414.359 72.537 414.707 72.4574 414.988 72.2426C415.27 72.0179 415.44 71.6874 415.498 71.2513C415.562 70.7755 415.482 70.3916 415.258 70.0995C415.035 69.8075 414.705 69.6324 414.269 69.5743C413.833 69.5162 413.468 69.6037 413.175 69.837C412.893 70.0618 412.721 70.4021 412.661 70.8581C412.604 71.2843 412.681 71.6477 412.894 71.9484C413.117 72.2404 413.467 72.4182 413.942 72.4816Z" fill="#FFD9EE"/>
<path d="M703.005 150.502L701.106 148.409L700.076 150.892L697.325 151.259L699.496 146.657L696.144 142.973L698.999 142.592L700.895 144.669L701.928 142.201L704.678 141.834L702.455 146.383L705.86 150.121L703.005 150.502ZM714.207 140.563L710.636 153.494L707.9 153.859L709.24 149.382L704.796 141.818L707.635 141.44L710.246 146.373L711.457 140.93L714.207 140.563ZM718.333 146.323L721.931 145.843L722.211 147.939L715.773 148.798L715.503 146.776L718.395 142.138L714.975 142.594L714.695 140.498L721.029 139.652L721.299 141.675L718.333 146.323Z" fill="#FFD9EE"/>
</g>
<defs>
<clipPath id="clip0">
<rect width="1004" height="294" rx="20" fill="white"/>
</clipPath>
</defs>
</svg>
