<svg width="1004" height="294" viewBox="0 0 1004 294" fill="none" xmlns="http://www.w3.org/2000/svg">
<g clip-path="url(#clip0)">
<rect width="1004" height="294" rx="20" fill="white"/>
<rect width="1004" height="294" rx="20" fill="#2E279D"/>
<path d="M236.633 127.88V170H226.373V144.74L216.953 170H208.673L199.193 144.68V170H188.933V127.88H201.053L212.873 157.04L224.573 127.88H236.633ZM241.971 153.2C241.971 149.76 242.611 146.74 243.891 144.14C245.211 141.54 246.991 139.54 249.231 138.14C251.471 136.74 253.971 136.04 256.731 136.04C259.091 136.04 261.151 136.52 262.911 137.48C264.711 138.44 266.091 139.7 267.051 141.26V136.52H277.311V170H267.051V165.26C266.051 166.82 264.651 168.08 262.851 169.04C261.091 170 259.031 170.48 256.671 170.48C253.951 170.48 251.471 169.78 249.231 168.38C246.991 166.94 245.211 164.92 243.891 162.32C242.611 159.68 241.971 156.64 241.971 153.2ZM267.051 153.26C267.051 150.7 266.331 148.68 264.891 147.2C263.491 145.72 261.771 144.98 259.731 144.98C257.691 144.98 255.951 145.72 254.511 147.2C253.111 148.64 252.411 150.64 252.411 153.2C252.411 155.76 253.111 157.8 254.511 159.32C255.951 160.8 257.691 161.54 259.731 161.54C261.771 161.54 263.491 160.8 264.891 159.32C266.331 157.84 267.051 155.82 267.051 153.26ZM305.134 136.16C309.054 136.16 312.174 137.44 314.494 140C316.854 142.52 318.034 146 318.034 150.44V170H307.834V151.82C307.834 149.58 307.254 147.84 306.094 146.6C304.934 145.36 303.374 144.74 301.414 144.74C299.454 144.74 297.894 145.36 296.734 146.6C295.574 147.84 294.994 149.58 294.994 151.82V170H284.734V136.52H294.994V140.96C296.034 139.48 297.434 138.32 299.194 137.48C300.954 136.6 302.934 136.16 305.134 136.16ZM337.883 136.04C340.243 136.04 342.303 136.52 344.063 137.48C345.863 138.44 347.243 139.7 348.203 141.26V136.52H358.463V169.94C358.463 173.02 357.843 175.8 356.603 178.28C355.403 180.8 353.543 182.8 351.023 184.28C348.543 185.76 345.443 186.5 341.723 186.5C336.763 186.5 332.743 185.32 329.663 182.96C326.583 180.64 324.823 177.48 324.383 173.48H334.523C334.843 174.76 335.603 175.76 336.803 176.48C338.003 177.24 339.483 177.62 341.243 177.62C343.363 177.62 345.043 177 346.283 175.76C347.563 174.56 348.203 172.62 348.203 169.94V165.2C347.203 166.76 345.823 168.04 344.063 169.04C342.303 170 340.243 170.48 337.883 170.48C335.123 170.48 332.623 169.78 330.383 168.38C328.143 166.94 326.363 164.92 325.043 162.32C323.763 159.68 323.123 156.64 323.123 153.2C323.123 149.76 323.763 146.74 325.043 144.14C326.363 141.54 328.143 139.54 330.383 138.14C332.623 136.74 335.123 136.04 337.883 136.04ZM348.203 153.26C348.203 150.7 347.483 148.68 346.043 147.2C344.643 145.72 342.923 144.98 340.883 144.98C338.843 144.98 337.103 145.72 335.663 147.2C334.263 148.64 333.563 150.64 333.563 153.2C333.563 155.76 334.263 157.8 335.663 159.32C337.103 160.8 338.843 161.54 340.883 161.54C342.923 161.54 344.643 160.8 346.043 159.32C347.483 157.84 348.203 155.82 348.203 153.26ZM397.446 152.72C397.446 153.68 397.386 154.68 397.266 155.72H374.046C374.206 157.8 374.866 159.4 376.026 160.52C377.226 161.6 378.686 162.14 380.406 162.14C382.966 162.14 384.746 161.06 385.746 158.9H396.666C396.106 161.1 395.086 163.08 393.606 164.84C392.166 166.6 390.346 167.98 388.146 168.98C385.946 169.98 383.486 170.48 380.766 170.48C377.486 170.48 374.566 169.78 372.006 168.38C369.446 166.98 367.446 164.98 366.006 162.38C364.566 159.78 363.846 156.74 363.846 153.26C363.846 149.78 364.546 146.74 365.946 144.14C367.386 141.54 369.386 139.54 371.946 138.14C374.506 136.74 377.446 136.04 380.766 136.04C384.006 136.04 386.886 136.72 389.406 138.08C391.926 139.44 393.886 141.38 395.286 143.9C396.726 146.42 397.446 149.36 397.446 152.72ZM386.946 150.02C386.946 148.26 386.346 146.86 385.146 145.82C383.946 144.78 382.446 144.26 380.646 144.26C378.926 144.26 377.466 144.76 376.266 145.76C375.106 146.76 374.386 148.18 374.106 150.02H386.946ZM445.579 136.16C449.739 136.16 453.039 137.42 455.479 139.94C457.959 142.46 459.199 145.96 459.199 150.44V170H448.999V151.82C448.999 149.66 448.419 148 447.259 146.84C446.139 145.64 444.579 145.04 442.579 145.04C440.579 145.04 438.999 145.64 437.839 146.84C436.719 148 436.159 149.66 436.159 151.82V170H425.959V151.82C425.959 149.66 425.379 148 424.219 146.84C423.099 145.64 421.539 145.04 419.539 145.04C417.539 145.04 415.959 145.64 414.799 146.84C413.679 148 413.119 149.66 413.119 151.82V170H402.859V136.52H413.119V140.72C414.159 139.32 415.519 138.22 417.199 137.42C418.879 136.58 420.779 136.16 422.899 136.16C425.419 136.16 427.659 136.7 429.619 137.78C431.619 138.86 433.179 140.4 434.299 142.4C435.459 140.56 437.039 139.06 439.039 137.9C441.039 136.74 443.219 136.16 445.579 136.16ZM497.934 152.72C497.934 153.68 497.874 154.68 497.754 155.72H474.534C474.694 157.8 475.354 159.4 476.514 160.52C477.714 161.6 479.174 162.14 480.894 162.14C483.454 162.14 485.234 161.06 486.234 158.9H497.154C496.594 161.1 495.574 163.08 494.094 164.84C492.654 166.6 490.834 167.98 488.634 168.98C486.434 169.98 483.974 170.48 481.254 170.48C477.974 170.48 475.054 169.78 472.494 168.38C469.934 166.98 467.934 164.98 466.494 162.38C465.054 159.78 464.334 156.74 464.334 153.26C464.334 149.78 465.034 146.74 466.434 144.14C467.874 141.54 469.874 139.54 472.434 138.14C474.994 136.74 477.934 136.04 481.254 136.04C484.494 136.04 487.374 136.72 489.894 138.08C492.414 139.44 494.374 141.38 495.774 143.9C497.214 146.42 497.934 149.36 497.934 152.72ZM487.434 150.02C487.434 148.26 486.834 146.86 485.634 145.82C484.434 144.78 482.934 144.26 481.134 144.26C479.414 144.26 477.954 144.76 476.754 145.76C475.594 146.76 474.874 148.18 474.594 150.02H487.434ZM523.747 136.16C527.667 136.16 530.787 137.44 533.107 140C535.467 142.52 536.647 146 536.647 150.44V170H526.447V151.82C526.447 149.58 525.867 147.84 524.707 146.6C523.547 145.36 521.987 144.74 520.027 144.74C518.067 144.74 516.507 145.36 515.347 146.6C514.187 147.84 513.607 149.58 513.607 151.82V170H503.347V136.52H513.607V140.96C514.647 139.48 516.047 138.32 517.807 137.48C519.567 136.6 521.547 136.16 523.747 136.16ZM562.437 161.3V170H557.217C553.497 170 550.597 169.1 548.517 167.3C546.437 165.46 545.397 162.48 545.397 158.36V145.04H541.317V136.52H545.397V128.36H555.657V136.52H562.377V145.04H555.657V158.48C555.657 159.48 555.897 160.2 556.377 160.64C556.857 161.08 557.657 161.3 558.777 161.3H562.437ZM596.106 170.42C593.026 170.42 590.266 169.92 587.826 168.92C585.386 167.92 583.426 166.44 581.946 164.48C580.506 162.52 579.746 160.16 579.666 157.4H590.586C590.746 158.96 591.286 160.16 592.206 161C593.126 161.8 594.326 162.2 595.806 162.2C597.326 162.2 598.526 161.86 599.406 161.18C600.286 160.46 600.726 159.48 600.726 158.24C600.726 157.2 600.366 156.34 599.646 155.66C598.966 154.98 598.106 154.42 597.066 153.98C596.066 153.54 594.626 153.04 592.746 152.48C590.026 151.64 587.806 150.8 586.086 149.96C584.366 149.12 582.886 147.88 581.646 146.24C580.406 144.6 579.786 142.46 579.786 139.82C579.786 135.9 581.206 132.84 584.046 130.64C586.886 128.4 590.586 127.28 595.146 127.28C599.786 127.28 603.526 128.4 606.366 130.64C609.206 132.84 610.726 135.92 610.926 139.88H599.826C599.746 138.52 599.246 137.46 598.326 136.7C597.406 135.9 596.226 135.5 594.786 135.5C593.546 135.5 592.546 135.84 591.786 136.52C591.026 137.16 590.646 138.1 590.646 139.34C590.646 140.7 591.286 141.76 592.566 142.52C593.846 143.28 595.846 144.1 598.566 144.98C601.286 145.9 603.486 146.78 605.166 147.62C606.886 148.46 608.366 149.68 609.606 151.28C610.846 152.88 611.466 154.94 611.466 157.46C611.466 159.86 610.846 162.04 609.606 164C608.406 165.96 606.646 167.52 604.326 168.68C602.006 169.84 599.266 170.42 596.106 170.42ZM615.741 153.26C615.741 149.78 616.441 146.74 617.841 144.14C619.281 141.54 621.261 139.54 623.781 138.14C626.341 136.74 629.261 136.04 632.541 136.04C636.741 136.04 640.241 137.14 643.041 139.34C645.881 141.54 647.741 144.64 648.621 148.64H637.701C636.781 146.08 635.001 144.8 632.361 144.8C630.481 144.8 628.981 145.54 627.861 147.02C626.741 148.46 626.181 150.54 626.181 153.26C626.181 155.98 626.741 158.08 627.861 159.56C628.981 161 630.481 161.72 632.361 161.72C635.001 161.72 636.781 160.44 637.701 157.88H648.621C647.741 161.8 645.881 164.88 643.041 167.12C640.201 169.36 636.701 170.48 632.541 170.48C629.261 170.48 626.341 169.78 623.781 168.38C621.261 166.98 619.281 164.98 617.841 162.38C616.441 159.78 615.741 156.74 615.741 153.26ZM659.269 133.04C657.469 133.04 655.989 132.52 654.829 131.48C653.709 130.4 653.149 129.08 653.149 127.52C653.149 125.92 653.709 124.6 654.829 123.56C655.989 122.48 657.469 121.94 659.269 121.94C661.029 121.94 662.469 122.48 663.589 123.56C664.749 124.6 665.329 125.92 665.329 127.52C665.329 129.08 664.749 130.4 663.589 131.48C662.469 132.52 661.029 133.04 659.269 133.04ZM664.369 136.52V170H654.109V136.52H664.369ZM703.364 152.72C703.364 153.68 703.304 154.68 703.184 155.72H679.964C680.124 157.8 680.784 159.4 681.944 160.52C683.144 161.6 684.604 162.14 686.324 162.14C688.884 162.14 690.664 161.06 691.664 158.9H702.584C702.024 161.1 701.004 163.08 699.524 164.84C698.084 166.6 696.264 167.98 694.064 168.98C691.864 169.98 689.404 170.48 686.684 170.48C683.404 170.48 680.484 169.78 677.924 168.38C675.364 166.98 673.364 164.98 671.924 162.38C670.484 159.78 669.764 156.74 669.764 153.26C669.764 149.78 670.464 146.74 671.864 144.14C673.304 141.54 675.304 139.54 677.864 138.14C680.424 136.74 683.364 136.04 686.684 136.04C689.924 136.04 692.804 136.72 695.324 138.08C697.844 139.44 699.804 141.38 701.204 143.9C702.644 146.42 703.364 149.36 703.364 152.72ZM692.864 150.02C692.864 148.26 692.264 146.86 691.064 145.82C689.864 144.78 688.364 144.26 686.564 144.26C684.844 144.26 683.384 144.76 682.184 145.76C681.024 146.76 680.304 148.18 680.024 150.02H692.864ZM729.177 136.16C733.097 136.16 736.217 137.44 738.537 140C740.897 142.52 742.077 146 742.077 150.44V170H731.877V151.82C731.877 149.58 731.297 147.84 730.137 146.6C728.977 145.36 727.417 144.74 725.457 144.74C723.497 144.74 721.937 145.36 720.777 146.6C719.617 147.84 719.037 149.58 719.037 151.82V170H708.777V136.52H719.037V140.96C720.077 139.48 721.477 138.32 723.237 137.48C724.997 136.6 726.977 136.16 729.177 136.16ZM747.166 153.26C747.166 149.78 747.866 146.74 749.266 144.14C750.706 141.54 752.686 139.54 755.206 138.14C757.766 136.74 760.686 136.04 763.966 136.04C768.166 136.04 771.666 137.14 774.466 139.34C777.306 141.54 779.166 144.64 780.046 148.64H769.126C768.206 146.08 766.426 144.8 763.786 144.8C761.906 144.8 760.406 145.54 759.286 147.02C758.166 148.46 757.606 150.54 757.606 153.26C757.606 155.98 758.166 158.08 759.286 159.56C760.406 161 761.906 161.72 763.786 161.72C766.426 161.72 768.206 160.44 769.126 157.88H780.046C779.166 161.8 777.306 164.88 774.466 167.12C771.626 169.36 768.126 170.48 763.966 170.48C760.686 170.48 757.766 169.78 755.206 168.38C752.686 166.98 750.706 164.98 749.266 162.38C747.866 159.78 747.166 156.74 747.166 153.26ZM817.094 152.72C817.094 153.68 817.034 154.68 816.914 155.72H793.694C793.854 157.8 794.514 159.4 795.674 160.52C796.874 161.6 798.334 162.14 800.054 162.14C802.614 162.14 804.394 161.06 805.394 158.9H816.314C815.754 161.1 814.734 163.08 813.254 164.84C811.814 166.6 809.994 167.98 807.794 168.98C805.594 169.98 803.134 170.48 800.414 170.48C797.134 170.48 794.214 169.78 791.654 168.38C789.094 166.98 787.094 164.98 785.654 162.38C784.214 159.78 783.494 156.74 783.494 153.26C783.494 149.78 784.194 146.74 785.594 144.14C787.034 141.54 789.034 139.54 791.594 138.14C794.154 136.74 797.094 136.04 800.414 136.04C803.654 136.04 806.534 136.72 809.054 138.08C811.574 139.44 813.534 141.38 814.934 143.9C816.374 146.42 817.094 149.36 817.094 152.72ZM806.594 150.02C806.594 148.26 805.994 146.86 804.794 145.82C803.594 144.78 802.094 144.26 800.294 144.26C798.574 144.26 797.114 144.76 795.914 145.76C794.754 146.76 794.034 148.18 793.754 150.02H806.594Z" fill="#FFD9EE"/>
<path fill-rule="evenodd" clip-rule="evenodd" d="M70.9711 270.746L16.202 225.972C14.1976 224.333 11.2338 224.631 9.59514 226.635L-22.1036 265.41C-23.7423 267.414 -23.4447 270.378 -21.4403 272.016L-1.66606 288.182L-10.4071 294.697C-10.7935 294.985 -11.0257 295.435 -11.0366 295.916C-11.0474 296.398 -10.8356 296.858 -10.4625 297.163L6.50139 311.032C6.87447 311.337 7.36739 311.453 7.83742 311.346C8.30758 311.24 8.70229 310.923 8.90776 310.487L13.5546 300.625L33.3288 316.791C35.3332 318.43 38.2971 318.132 39.9357 316.128L71.6345 277.353C73.2731 275.349 72.9755 272.385 70.9711 270.746ZM9.04668 232.251L66.2391 279.007L66.2392 279.007L40.4843 310.511L40.4841 310.511L-16.7082 263.755L-16.7083 263.755L9.04668 232.251ZM14.2208 228.395L68.9899 273.17C69.6581 273.716 69.7573 274.704 69.2111 275.372L68.2204 276.584L68.2203 276.584L11.028 229.828L11.0279 229.828L12.0185 228.616C12.5647 227.948 13.5527 227.849 14.2208 228.395ZM6.93071 307.339L-6.92933 296.008L0.831863 290.224L11.0567 298.583L6.93071 307.339ZM35.31 314.368L-19.4591 269.593C-20.1272 269.047 -20.2264 268.059 -19.6802 267.391L-18.6894 266.179L-18.6893 266.179L38.503 312.935L38.5031 312.935L37.5123 314.147C36.9661 314.815 35.9781 314.914 35.31 314.368Z" fill="#FFD9EE"/>
<path fill-rule="evenodd" clip-rule="evenodd" d="M-0.583994 258.144L13.6871 256.637L14.3946 264.065C14.4783 264.923 15.2416 265.551 16.0995 265.467L31.7603 263.814L30.9583 264.795C30.4112 265.464 30.5102 266.45 31.1795 266.997C31.8487 267.544 32.8347 267.445 33.3818 266.776L36.5886 262.853C37.1357 262.184 37.0367 261.198 36.3675 260.651L32.4448 257.444C31.7756 256.897 30.7896 256.996 30.2425 257.665C29.6954 258.334 29.7944 259.32 30.4636 259.868L31.4869 260.704L17.3519 262.196L16.6435 254.76C16.555 253.902 15.7883 253.279 14.9309 253.368L-0.904378 255.039C-1.76171 255.128 -2.38511 255.894 -2.29658 256.752C-2.20808 257.609 -1.44123 258.232 -0.583994 258.144Z" fill="#FFD9EE"/>
<path fill-rule="evenodd" clip-rule="evenodd" d="M36.7037 275.076L50.2744 286.17C50.9435 286.717 51.9296 286.619 52.4767 285.949C53.0238 285.28 52.9247 284.294 52.2556 283.747L38.6849 272.653C38.0156 272.106 37.0297 272.205 36.4826 272.874C35.9355 273.543 36.0344 274.529 36.7037 275.076Z" fill="#FFD9EE"/>
<path fill-rule="evenodd" clip-rule="evenodd" d="M28.7789 284.771L35.5643 290.319C36.2335 290.866 37.2195 290.767 37.7666 290.098C38.3137 289.428 38.2147 288.442 37.5455 287.895L30.76 282.348C30.0908 281.801 29.1049 281.9 28.5577 282.569C28.0107 283.238 28.1096 284.224 28.7789 284.771Z" fill="#FFD9EE"/>
<path fill-rule="evenodd" clip-rule="evenodd" d="M32.7418 279.924L46.3125 291.018C46.9816 291.565 47.9677 291.466 48.5148 290.797C49.0619 290.128 48.9628 289.142 48.2937 288.595L34.7229 277.5C34.0537 276.953 33.0676 277.052 32.5206 277.721C31.9736 278.391 32.0725 279.377 32.7418 279.924Z" fill="#FFD9EE"/>
<path fill-rule="evenodd" clip-rule="evenodd" d="M18.9215 280.754L-4.1009 261.933C-5.10468 261.113 -6.58374 261.261 -7.40434 262.265C-8.22495 263.269 -8.07645 264.748 -7.07267 265.568L15.9497 284.389C16.9535 285.21 18.4326 285.062 19.2532 284.058C20.0739 283.054 19.9253 281.575 18.9215 280.754Z" fill="#FFD9EE"/>
<path fill-rule="evenodd" clip-rule="evenodd" d="M289.369 -27.2135L219.629 -15.3499C217.076 -14.9157 215.353 -12.486 215.787 -9.93375L224.186 39.4396C224.621 41.9919 227.05 43.7151 229.603 43.2809L254.782 38.9976L253.949 49.8673C253.912 50.3478 254.099 50.8185 254.455 51.1434C254.811 51.4681 255.297 51.6107 255.772 51.5299L277.373 47.8553C277.848 47.7745 278.259 47.4792 278.488 47.055C278.717 46.6308 278.737 46.1249 278.543 45.6835L274.163 35.7006L299.343 31.4173C301.895 30.9831 303.618 28.5534 303.184 26.0011L294.785 -23.3722C294.351 -25.9245 291.921 -27.6477 289.369 -27.2135ZM219.661 -5.82978L292.486 -18.2183L292.487 -18.2184L299.311 21.897L299.311 21.897L226.485 34.2856L226.485 34.2856L219.661 -5.82978ZM220.154 -12.2641L289.894 -24.1277C290.745 -24.2724 291.554 -23.698 291.699 -22.8473L291.962 -21.3042L291.962 -21.3042L219.136 -8.91564L219.136 -8.91562L218.873 -10.4587C218.729 -11.3095 219.303 -12.1193 220.154 -12.2641ZM274.872 45.1055L257.223 48.1077L257.963 38.4565L270.982 36.2417L274.872 45.1055ZM298.818 28.3314L229.078 40.1951C228.227 40.3398 227.417 39.7654 227.272 38.9146L227.01 37.3714L227.01 37.3714L299.836 24.9829L299.836 24.9828L300.098 26.5261C300.243 27.3768 299.669 28.1867 298.818 28.3314Z" fill="#FFD9EE"/>
<path fill-rule="evenodd" clip-rule="evenodd" d="M232.85 18.4436L241.092 6.69613L247.156 11.0437C247.858 11.5443 248.832 11.3812 249.333 10.6796L258.378 -2.21189L258.59 -0.962734C258.735 -0.110578 259.543 0.462681 260.395 0.317719C261.248 0.172757 261.821 -0.635517 261.676 -1.48767L260.826 -6.48258C260.681 -7.33473 259.873 -7.90799 259.021 -7.76303L254.026 -6.91334C253.174 -6.76837 252.6 -5.9601 252.745 -5.10794C252.89 -4.25579 253.699 -3.68253 254.551 -3.82749L255.854 -4.04915L247.69 7.58636L241.619 3.23378C240.915 2.73715 239.941 2.9055 239.444 3.60993L230.299 16.6451C229.803 17.3495 229.971 18.3233 230.675 18.8199C231.38 19.3164 232.353 19.1479 232.85 18.4436Z" fill="#FFD9EE"/>
<path fill-rule="evenodd" clip-rule="evenodd" d="M270.116 1.46205L287.396 -1.47753C288.248 -1.62247 288.821 -2.43077 288.676 -3.28293C288.531 -4.13508 287.723 -4.70832 286.871 -4.56338L269.591 -1.6238C268.739 -1.47884 268.165 -0.670562 268.31 0.181594C268.455 1.03375 269.264 1.60701 270.116 1.46205Z" fill="#FFD9EE"/>
<path fill-rule="evenodd" clip-rule="evenodd" d="M272.216 13.8058L280.856 12.336C281.708 12.191 282.281 11.3828 282.136 10.5306C281.992 9.67845 281.183 9.10519 280.331 9.25015L271.691 10.72C270.839 10.8649 270.265 11.6732 270.41 12.5253C270.555 13.3773 271.364 13.9508 272.216 13.8058Z" fill="#FFD9EE"/>
<path fill-rule="evenodd" clip-rule="evenodd" d="M271.166 7.63392L288.446 4.69434C289.298 4.5494 289.872 3.7411 289.727 2.88895C289.582 2.03679 288.773 1.46356 287.921 1.6085L270.641 4.54808C269.789 4.69304 269.216 5.50147 269.361 6.35347C269.506 7.20547 270.314 7.77888 271.166 7.63392Z" fill="#FFD9EE"/>
<path fill-rule="evenodd" clip-rule="evenodd" d="M262.71 18.5979L233.395 23.5848C232.117 23.8022 231.257 25.0147 231.474 26.2929C231.692 27.5711 232.904 28.431 234.182 28.2136L263.498 23.2267C264.776 23.0092 265.636 21.7967 265.419 20.5186C265.201 19.2403 263.989 18.3805 262.71 18.5979Z" fill="#FFD9EE"/>
<path fill-rule="evenodd" clip-rule="evenodd" d="M45.4925 104.986L48.6418 90.9855L55.9044 92.6972C56.7438 92.893 57.5829 92.3712 57.7788 91.5318L61.2348 76.1678L61.9069 77.2421C62.3653 77.9749 63.331 78.1973 64.0638 77.7388C64.7966 77.2804 65.019 76.3147 64.5605 75.5819L61.8734 71.2866C61.4149 70.5538 60.4493 70.3313 59.7165 70.7898L55.4211 73.477C54.6883 73.9354 54.4659 74.9011 54.9243 75.6339C55.3828 76.3667 56.3484 76.5891 57.0812 76.1306L58.2017 75.4297L55.0825 89.2967L47.8115 87.583C46.971 87.392 46.1347 87.9183 45.9436 88.7588L42.4491 104.294C42.2581 105.134 42.7844 105.971 43.6249 106.162C44.4651 106.353 45.3014 105.826 45.4925 104.986Z" fill="#FFD9EE"/>
<path fill-rule="evenodd" clip-rule="evenodd" d="M445.679 242.168L459.302 237.659L461.574 244.767C461.838 245.587 462.718 246.038 463.538 245.774L478.489 240.826L477.914 241.955C477.522 242.726 477.828 243.668 478.598 244.06C479.369 244.452 480.311 244.146 480.703 243.375L483.002 238.86C483.394 238.09 483.088 237.148 482.317 236.755L477.802 234.457C477.032 234.064 476.09 234.371 475.697 235.141C475.305 235.912 475.612 236.854 476.382 237.246L477.56 237.846L464.066 242.311L461.792 235.196C461.523 234.377 460.641 233.931 459.822 234.2L444.705 239.203C443.886 239.471 443.44 240.353 443.709 241.172C443.978 241.991 444.86 242.437 445.679 242.168Z" fill="#FFD9EE"/>
<path fill-rule="evenodd" clip-rule="evenodd" d="M924.586 4.32221L938.209 -0.186286L940.481 6.92104C940.745 7.74141 941.625 8.19213 942.445 7.92785L957.396 2.98033L956.821 4.10951C956.429 4.87982 956.735 5.82214 957.505 6.21432C958.276 6.6065 959.218 6.29999 959.61 5.52968L961.909 1.01451C962.301 0.244202 961.995 -0.698126 961.224 -1.09031L956.709 -3.38907C955.939 -3.78125 954.997 -3.47474 954.604 -2.70443C954.212 -1.93412 954.519 -0.991788 955.289 -0.599606L956.467 6.19068e-05L942.973 4.46562L940.699 -2.64992C940.43 -3.46878 939.548 -3.91476 938.729 -3.64585L923.612 1.35687C922.793 1.62579 922.347 2.50763 922.616 3.3265C922.885 4.14515 923.767 4.59099 924.586 4.32221Z" fill="#FFD9EE"/>
<path fill-rule="evenodd" clip-rule="evenodd" d="M572.649 -3.31423L579.483 9.30451L572.886 12.7906C572.125 13.195 571.836 14.14 572.24 14.9011L579.739 28.7488L578.526 28.3814C577.699 28.1308 576.825 28.5982 576.575 29.4255C576.324 30.2527 576.792 31.1265 577.619 31.3771L582.468 32.8461C583.295 33.0968 584.169 32.6293 584.42 31.8021L585.889 26.9531C586.139 26.1258 585.672 25.252 584.845 25.0014C584.017 24.7508 583.144 25.2182 582.893 26.0455L582.51 27.3104L575.741 14.812L582.346 11.3218C583.105 10.9131 583.389 9.9666 582.98 9.20778L575.397 -4.79408C574.988 -5.5529 574.042 -5.83688 573.283 -5.42817C572.524 -5.01957 572.241 -4.073 572.649 -3.31423Z" fill="#FFD9EE"/>
<path fill-rule="evenodd" clip-rule="evenodd" d="M878.227 318.435L865.641 295.194L877.791 288.774C879.193 288.029 879.725 286.289 878.98 284.887L865.169 259.383L867.402 260.06C868.926 260.521 870.535 259.66 870.997 258.137C871.458 256.613 870.597 255.004 869.074 254.542L860.143 251.837C858.619 251.375 857.01 252.236 856.549 253.76L853.843 262.69C853.381 264.214 854.242 265.823 855.766 266.285C857.289 266.746 858.899 265.885 859.36 264.362L860.066 262.032L872.532 285.051L860.368 291.479C858.97 292.232 858.447 293.975 859.2 295.373L873.166 321.161C873.918 322.558 875.662 323.081 877.059 322.328C878.456 321.576 878.979 319.833 878.227 318.435Z" fill="#FFD9EE"/>
<path fill-rule="evenodd" clip-rule="evenodd" d="M1043.69 60.309L958.566 74.7889C955.45 75.3189 953.347 78.2844 953.877 81.3995L964.128 141.661C964.658 144.776 967.624 146.88 970.739 146.35L1001.47 141.122L1000.45 154.389C1000.41 154.975 1000.64 155.55 1001.07 155.946C1001.51 156.342 1002.1 156.516 1002.68 156.418L1029.04 151.933C1029.62 151.834 1030.13 151.474 1030.41 150.956C1030.68 150.438 1030.71 149.821 1030.47 149.282L1025.13 137.098L1055.86 131.87C1058.97 131.34 1061.08 128.374 1060.55 125.259L1050.3 64.9975C1049.77 61.8823 1046.8 59.7791 1043.69 60.309ZM958.605 86.4085L1047.49 71.2879L1047.49 71.2879L1055.82 120.25L1055.82 120.25L966.934 135.371L966.934 135.371L958.605 86.4085ZM959.206 78.5553L1044.33 64.0754C1045.36 63.8987 1046.35 64.5998 1046.53 65.6382L1046.85 67.5216L1046.85 67.5216L957.964 82.6422L957.964 82.6422L957.643 80.7588C957.467 79.7204 958.168 78.7319 959.206 78.5553ZM1025.99 148.577L1004.45 152.241L1005.35 140.461L1021.24 137.758L1025.99 148.577ZM1055.22 128.103L970.098 142.583C969.06 142.76 968.071 142.059 967.895 141.02L967.574 139.137L967.574 139.137L1056.46 124.016L1056.46 124.016L1056.78 125.9C1056.96 126.938 1056.26 127.927 1055.22 128.103Z" fill="#FFD9EE"/>
<path fill-rule="evenodd" clip-rule="evenodd" d="M974.702 116.035L984.762 101.697L992.163 107.003C993.02 107.614 994.209 107.415 994.82 106.559L1005.86 90.8243L1006.12 92.3489C1006.3 93.389 1007.28 94.0887 1008.32 93.9118C1009.36 93.7348 1010.06 92.7483 1009.89 91.7082L1008.85 85.6118C1008.67 84.5717 1007.68 83.872 1006.64 84.0489L1000.55 85.086C999.508 85.263 998.808 86.2495 998.985 87.2896C999.162 88.3296 1000.15 89.0293 1001.19 88.8524L1002.78 88.5819L992.816 102.783L985.405 97.4709C984.546 96.8648 983.357 97.0702 982.751 97.93L971.589 113.84C970.983 114.7 971.188 115.888 972.048 116.494C972.908 117.1 974.096 116.895 974.702 116.035Z" fill="#FFD9EE"/>
<path fill-rule="evenodd" clip-rule="evenodd" d="M1011.15 116.222L975.368 122.309C973.808 122.574 972.758 124.054 973.024 125.614C973.289 127.174 974.769 128.223 976.329 127.958L1012.11 121.871C1013.67 121.606 1014.72 120.126 1014.45 118.566C1014.19 117.006 1012.71 115.956 1011.15 116.222Z" fill="#FFD9EE"/>
</g>
<defs>
<clipPath id="clip0">
<rect width="1004" height="294" rx="20" fill="white"/>
</clipPath>
</defs>
</svg>
