<svg width="1004" height="294" viewBox="0 0 1004 294" fill="none" xmlns="http://www.w3.org/2000/svg">
<g clip-path="url(#clip0)">
<rect width="1004" height="294" rx="20" fill="white"/>
<rect width="1004" height="294" rx="20" fill="#2E279D"/>
<path d="M366.726 141.44C366.726 143.88 366.166 146.12 365.046 148.16C363.926 150.16 362.206 151.78 359.886 153.02C357.566 154.26 354.686 154.88 351.246 154.88H344.886V170H334.626V127.88H351.246C354.606 127.88 357.446 128.46 359.766 129.62C362.086 130.78 363.826 132.38 364.986 134.42C366.146 136.46 366.726 138.8 366.726 141.44ZM350.466 146.72C352.426 146.72 353.886 146.26 354.846 145.34C355.806 144.42 356.286 143.12 356.286 141.44C356.286 139.76 355.806 138.46 354.846 137.54C353.886 136.62 352.426 136.16 350.466 136.16H344.886V146.72H350.466ZM392.648 136.16C396.488 136.16 399.568 137.44 401.888 140C404.208 142.52 405.368 146 405.368 150.44V170H395.168V151.82C395.168 149.58 394.588 147.84 393.428 146.6C392.268 145.36 390.708 144.74 388.748 144.74C386.788 144.74 385.228 145.36 384.068 146.6C382.908 147.84 382.328 149.58 382.328 151.82V170H372.068V125.6H382.328V141.02C383.368 139.54 384.788 138.36 386.588 137.48C388.388 136.6 390.408 136.16 392.648 136.16ZM417.657 133.04C415.857 133.04 414.377 132.52 413.217 131.48C412.097 130.4 411.537 129.08 411.537 127.52C411.537 125.92 412.097 124.6 413.217 123.56C414.377 122.48 415.857 121.94 417.657 121.94C419.417 121.94 420.857 122.48 421.977 123.56C423.137 124.6 423.717 125.92 423.717 127.52C423.717 129.08 423.137 130.4 421.977 131.48C420.857 132.52 419.417 133.04 417.657 133.04ZM422.757 136.52V170H412.497V136.52H422.757ZM440.453 125.6V170H430.193V125.6H440.453ZM463.128 170.48C459.848 170.48 456.888 169.78 454.248 168.38C451.648 166.98 449.588 164.98 448.068 162.38C446.588 159.78 445.848 156.74 445.848 153.26C445.848 149.82 446.608 146.8 448.128 144.2C449.648 141.56 451.728 139.54 454.368 138.14C457.008 136.74 459.968 136.04 463.248 136.04C466.528 136.04 469.488 136.74 472.128 138.14C474.768 139.54 476.848 141.56 478.368 144.2C479.888 146.8 480.648 149.82 480.648 153.26C480.648 156.7 479.868 159.74 478.308 162.38C476.788 164.98 474.688 166.98 472.008 168.38C469.368 169.78 466.408 170.48 463.128 170.48ZM463.128 161.6C465.088 161.6 466.748 160.88 468.108 159.44C469.508 158 470.208 155.94 470.208 153.26C470.208 150.58 469.528 148.52 468.168 147.08C466.848 145.64 465.208 144.92 463.248 144.92C461.248 144.92 459.588 145.64 458.268 147.08C456.948 148.48 456.288 150.54 456.288 153.26C456.288 155.94 456.928 158 458.208 159.44C459.528 160.88 461.168 161.6 463.128 161.6ZM499.711 170.48C496.791 170.48 494.191 169.98 491.911 168.98C489.631 167.98 487.831 166.62 486.511 164.9C485.191 163.14 484.451 161.18 484.291 159.02H494.431C494.551 160.18 495.091 161.12 496.051 161.84C497.011 162.56 498.191 162.92 499.591 162.92C500.871 162.92 501.851 162.68 502.531 162.2C503.251 161.68 503.611 161.02 503.611 160.22C503.611 159.26 503.111 158.56 502.111 158.12C501.111 157.64 499.491 157.12 497.251 156.56C494.851 156 492.851 155.42 491.251 154.82C489.651 154.18 488.271 153.2 487.111 151.88C485.951 150.52 485.371 148.7 485.371 146.42C485.371 144.5 485.891 142.76 486.931 141.2C488.011 139.6 489.571 138.34 491.611 137.42C493.691 136.5 496.151 136.04 498.991 136.04C503.191 136.04 506.491 137.08 508.891 139.16C511.331 141.24 512.731 144 513.091 147.44H503.611C503.451 146.28 502.931 145.36 502.051 144.68C501.211 144 500.091 143.66 498.691 143.66C497.491 143.66 496.571 143.9 495.931 144.38C495.291 144.82 494.971 145.44 494.971 146.24C494.971 147.2 495.471 147.92 496.471 148.4C497.511 148.88 499.111 149.36 501.271 149.84C503.751 150.48 505.771 151.12 507.331 151.76C508.891 152.36 510.251 153.36 511.411 154.76C512.611 156.12 513.231 157.96 513.271 160.28C513.271 162.24 512.711 164 511.591 165.56C510.511 167.08 508.931 168.28 506.851 169.16C504.811 170.04 502.431 170.48 499.711 170.48ZM534.788 170.48C531.508 170.48 528.548 169.78 525.908 168.38C523.308 166.98 521.248 164.98 519.728 162.38C518.248 159.78 517.508 156.74 517.508 153.26C517.508 149.82 518.268 146.8 519.788 144.2C521.308 141.56 523.388 139.54 526.028 138.14C528.668 136.74 531.628 136.04 534.908 136.04C538.188 136.04 541.148 136.74 543.788 138.14C546.428 139.54 548.508 141.56 550.028 144.2C551.548 146.8 552.308 149.82 552.308 153.26C552.308 156.7 551.528 159.74 549.968 162.38C548.448 164.98 546.348 166.98 543.668 168.38C541.028 169.78 538.068 170.48 534.788 170.48ZM534.788 161.6C536.748 161.6 538.408 160.88 539.768 159.44C541.168 158 541.868 155.94 541.868 153.26C541.868 150.58 541.188 148.52 539.828 147.08C538.508 145.64 536.868 144.92 534.908 144.92C532.908 144.92 531.248 145.64 529.928 147.08C528.608 148.48 527.948 150.54 527.948 153.26C527.948 155.94 528.588 158 529.868 159.44C531.188 160.88 532.828 161.6 534.788 161.6ZM568.011 141.26C569.011 139.7 570.391 138.44 572.151 137.48C573.911 136.52 575.971 136.04 578.331 136.04C581.091 136.04 583.591 136.74 585.831 138.14C588.071 139.54 589.831 141.54 591.111 144.14C592.431 146.74 593.091 149.76 593.091 153.2C593.091 156.64 592.431 159.68 591.111 162.32C589.831 164.92 588.071 166.94 585.831 168.38C583.591 169.78 581.091 170.48 578.331 170.48C576.011 170.48 573.951 170 572.151 169.04C570.391 168.08 569.011 166.84 568.011 165.32V185.96H557.751V136.52H568.011V141.26ZM582.651 153.2C582.651 150.64 581.931 148.64 580.491 147.2C579.091 145.72 577.351 144.98 575.271 144.98C573.231 144.98 571.491 145.72 570.051 147.2C568.651 148.68 567.951 150.7 567.951 153.26C567.951 155.82 568.651 157.84 570.051 159.32C571.491 160.8 573.231 161.54 575.271 161.54C577.311 161.54 579.051 160.8 580.491 159.32C581.931 157.8 582.651 155.76 582.651 153.2ZM619.054 136.16C622.894 136.16 625.974 137.44 628.294 140C630.614 142.52 631.774 146 631.774 150.44V170H621.574V151.82C621.574 149.58 620.994 147.84 619.834 146.6C618.674 145.36 617.114 144.74 615.154 144.74C613.194 144.74 611.634 145.36 610.474 146.6C609.314 147.84 608.734 149.58 608.734 151.82V170H598.474V125.6H608.734V141.02C609.774 139.54 611.194 138.36 612.994 137.48C614.794 136.6 616.814 136.16 619.054 136.16ZM673.104 136.52L652.104 185.9H641.064L648.744 168.86L635.124 136.52H646.584L654.324 157.46L662.004 136.52H673.104Z" fill="#FFD9EE"/>
<path d="M1006.41 277.725C1002.67 275.218 998.536 273.683 994.132 273.162C991.916 272.9 990.041 272.947 988.732 273.072C989.011 268.888 988.213 264.579 986.196 260.57L985.054 258.299L985.25 258.2C988.801 256.414 990.237 252.072 988.451 248.521C986.665 244.971 982.323 243.535 978.772 245.321L978.576 245.42L978.568 245.406C978.544 245.357 978.52 245.308 978.495 245.26C972.442 233.341 957.833 228.534 945.881 234.546C933.901 240.573 929.056 255.222 935.083 267.203L935.121 267.278L934.924 267.377C931.373 269.163 929.938 273.505 931.724 277.056C933.51 280.607 937.852 282.042 941.403 280.256L941.599 280.157L942.741 282.428C944.758 286.438 947.742 289.647 951.268 291.918C950.037 293.289 948.09 295.813 946.583 299.429C944.44 304.57 942.822 312.987 947.28 323.894C947.826 325.229 948.449 326.574 949.132 327.892C949.45 328.505 950.202 328.748 950.819 328.438L1018.32 294.483C1018.94 294.173 1019.19 293.425 1018.89 292.804C1015.66 286.174 1011.46 281.101 1006.41 277.725ZM979.709 247.673L979.906 247.574C982.214 246.413 985.036 247.347 986.198 249.655C987.359 251.963 986.425 254.786 984.117 255.947L983.921 256.046L979.709 247.673ZM947.015 236.8C957.235 231.659 970.099 235.533 975.751 245.482C975.743 245.489 975.735 245.496 975.726 245.503C975.327 245.829 974.972 246.218 974.692 246.65C973.084 249.129 974.151 252.038 975.327 254.439C976.58 256.996 977.911 259.719 978.399 262.575C978.709 264.384 978.543 266.333 976.724 267.249C975.602 267.815 974.314 267.973 973.073 267.854C973.024 267.849 972.972 267.844 972.919 267.84C971.322 267.712 968.212 267.838 964.128 269.801C961.381 271.121 958.75 272.954 956.939 275.444C955.99 276.75 955.259 278.046 953.751 278.805C951.955 279.708 950.245 278.667 948.999 277.364C946.808 275.072 945.208 272.004 943.85 269.167C943.841 269.148 943.827 269.119 943.808 269.082C942.962 267.401 941.557 265.793 939.737 265.16C938.823 264.842 937.823 264.802 936.886 265.04C936.875 265.043 936.865 265.045 936.854 265.047C932.214 254.511 936.615 242.031 947.015 236.8ZM940.466 277.904L940.269 278.003C937.961 279.164 935.138 278.23 933.977 275.922C932.816 273.614 933.75 270.791 936.058 269.63L936.254 269.531L940.466 277.904ZM944.995 281.295L938.013 267.414L938.013 267.414C938.035 267.413 938.058 267.411 938.081 267.411C939.645 267.381 940.956 268.944 941.573 270.252C941.579 270.264 941.584 270.275 941.59 270.287C943.153 273.393 945.038 276.869 947.176 279.106C949.673 281.719 952.266 282.375 954.884 281.058C956.435 280.278 957.673 279.003 958.574 277.534C960.021 275.176 962.419 273.479 964.85 272.256C967.985 270.679 970.421 270.332 971.935 270.326C974.008 270.317 975.942 270.466 977.858 269.502C980.702 268.072 981.389 265.095 980.886 262.15C980.365 259.1 978.697 255.514 977.135 252.408C977.13 252.398 977.124 252.386 977.118 252.376C976.438 251.104 975.951 249.122 976.918 247.875C976.932 247.857 976.947 247.84 976.961 247.823L983.943 261.703C987.738 269.247 986.723 277.972 982.06 284.368C982.051 284.381 982.041 284.395 982.031 284.408C975.319 293.508 962.337 295.927 952.803 289.908C949.477 287.808 946.762 284.809 944.995 281.295ZM950.813 325.617C950.553 325.082 950.304 324.545 950.068 324.008C950.131 323.976 950.192 323.943 950.254 323.911C960.331 318.714 969.835 312.215 977.791 304.098C980.257 301.582 982.577 298.906 984.697 296.091C985.109 295.543 984.996 294.737 984.448 294.325C983.891 293.906 983.101 294.017 982.682 294.574C979.169 299.24 975.075 303.516 970.656 307.33C966.623 310.811 962.292 313.947 957.766 316.756C954.975 318.489 952.112 320.112 949.193 321.621C949.167 321.634 949.141 321.647 949.116 321.66C946.298 314.073 946.212 306.964 948.865 300.512C950.404 296.768 952.496 294.28 953.511 293.212C953.558 293.162 955.939 294.276 956.194 294.368C962.306 296.577 969.266 296.218 975.135 293.357C975.223 293.314 975.31 293.27 975.398 293.226C981.332 290.241 985.867 284.825 987.771 278.465C988.048 277.539 988.27 276.596 988.435 275.644C989.265 275.542 990.668 275.434 992.439 275.542C992.397 275.539 991.683 278.054 991.616 278.248C990.111 282.622 987.961 286.766 985.441 290.638C985.061 291.222 985.226 292.003 985.81 292.383C986.386 292.758 987.181 292.59 987.555 292.014C987.963 291.387 988.361 290.752 988.748 290.112C992.818 283.388 994.419 278.105 994.973 275.827C1001.4 276.88 1009.83 280.786 1016.06 292.797L950.813 325.617Z" fill="#FFD9EE"/>
<path d="M954.558 260.453C952.8 259.652 950.804 259.69 949.08 260.557C947.356 261.424 946.135 263.004 945.73 264.892C945.584 265.574 946.017 266.244 946.698 266.39C947.379 266.536 948.05 266.103 948.196 265.422C948.44 264.284 949.175 263.333 950.213 262.811C951.251 262.289 952.453 262.266 953.512 262.748C954.14 263.034 954.898 262.749 955.183 262.123C955.472 261.489 955.192 260.741 954.558 260.453Z" fill="#FFD9EE"/>
<path d="M953.386 269.118C954.56 268.527 955.033 267.097 954.443 265.923C953.852 264.749 952.422 264.276 951.248 264.866C950.074 265.457 949.601 266.887 950.192 268.061C950.782 269.235 952.212 269.708 953.386 269.118Z" fill="#FFD9EE"/>
<path d="M970.336 252.516C968.578 251.716 966.582 251.754 964.858 252.621C963.134 253.489 961.913 255.069 961.508 256.958C961.362 257.639 961.796 258.309 962.477 258.455C963.15 258.6 963.83 258.161 963.974 257.486C964.218 256.349 964.953 255.397 965.991 254.875C967.029 254.353 968.231 254.33 969.29 254.812C969.924 255.101 970.672 254.821 970.961 254.187C971.249 253.553 970.969 252.805 970.336 252.516Z" fill="#FFD9EE"/>
<path d="M969.163 261.182C970.337 260.592 970.81 259.161 970.219 257.987C969.629 256.813 968.199 256.34 967.025 256.931C965.851 257.521 965.378 258.952 965.968 260.126C966.559 261.3 967.989 261.773 969.163 261.182Z" fill="#FFD9EE"/>
<path d="M976.46 273.517C974.767 272.268 972.547 272.079 970.666 273.025C969.894 273.414 969.213 273.989 968.697 274.688C968.6 274.819 967.988 275.435 966.759 276.053C965.531 276.671 964.671 276.796 964.508 276.795C963.638 276.793 962.771 276.996 961.998 277.385C960.118 278.331 958.946 280.225 958.939 282.329C958.929 285.39 961.411 287.888 964.472 287.898C966.681 287.905 969.265 287.221 971.748 285.972C974.23 284.723 976.32 283.057 977.631 281.28C979.448 278.817 978.923 275.335 976.46 273.517ZM975.601 279.782C974.521 281.247 972.75 282.645 970.615 283.718C968.479 284.793 966.3 285.381 964.48 285.376C962.81 285.37 961.456 284.007 961.461 282.337C961.465 281.189 962.105 280.155 963.132 279.638C963.558 279.424 964.018 279.316 964.5 279.318C965.164 279.32 966.405 279.055 967.893 278.307C969.38 277.558 970.332 276.72 970.727 276.185C971.013 275.798 971.374 275.493 971.8 275.279C972.827 274.762 974.039 274.865 974.963 275.547C976.306 276.538 976.593 278.438 975.601 279.782Z" fill="#FFD9EE"/>
<path d="M973.349 277.777C972.873 277.269 972.074 277.244 971.567 277.721C970.78 278.46 969.757 279.155 968.61 279.732C967.468 280.307 966.304 280.712 965.245 280.905C964.559 281.029 964.104 281.685 964.229 282.371C964.353 283.056 965.009 283.511 965.695 283.386C966.989 283.152 968.389 282.667 969.744 281.986C971.105 281.301 972.332 280.462 973.293 279.56C973.801 279.083 973.826 278.285 973.349 277.777Z" fill="#FFD9EE"/>
<path d="M963.921 245.27C963.407 244.8 962.61 244.835 962.139 245.349C959.934 247.759 955.768 249.995 954.079 250.845C952.39 251.694 948.112 253.706 944.862 254.04C944.169 254.111 943.665 254.73 943.736 255.423C943.807 256.116 944.427 256.62 945.12 256.549C948.786 256.172 953.399 254.01 955.213 253.098C957.026 252.186 961.512 249.771 964 247.052C964.471 246.538 964.435 245.74 963.921 245.27Z" fill="#FFD9EE"/>
<path d="M959.758 242.021C959.244 241.551 958.447 241.586 957.976 242.1C956.96 243.211 954.516 244.827 951.752 246.218C948.987 247.609 946.233 248.607 944.735 248.761C944.042 248.832 943.538 249.451 943.609 250.144C943.68 250.837 944.3 251.341 944.993 251.27C946.825 251.082 949.776 250.035 952.885 248.471C955.995 246.907 958.593 245.162 959.837 243.803C960.307 243.289 960.272 242.491 959.758 242.021Z" fill="#FFD9EE"/>
<path d="M124.417 99.0005C122.611 94.8708 119.958 91.3516 116.529 88.5402C114.803 87.1251 113.198 86.1551 112.028 85.555C114.517 82.18 116.166 78.1207 116.628 73.656L116.889 71.1278L117.107 71.1503C121.061 71.5587 124.61 68.6744 125.018 64.7207C125.427 60.767 122.542 57.2182 118.589 56.8098L118.37 56.7872L118.372 56.7715C118.377 56.7173 118.383 56.663 118.388 56.6087C119.71 43.3072 109.993 31.3865 96.685 30.0119C83.345 28.6339 71.3712 38.3657 69.9932 51.7056L69.9846 51.7892L69.766 51.7667C65.8123 51.3583 62.2634 54.2426 61.855 58.1963C61.4466 62.15 64.3309 65.6988 68.2846 66.1072L68.5033 66.1298L68.2421 68.658C67.7809 73.1232 68.5659 77.4345 70.3128 81.2474C68.537 81.7388 65.5369 82.8163 62.3194 85.0502C57.7441 88.2268 51.8454 94.446 49.7251 106.037C49.4656 107.455 49.2661 108.924 49.1316 110.402C49.0692 111.09 49.5713 111.7 50.2581 111.771L125.419 119.535C126.106 119.606 126.722 119.111 126.802 118.425C127.65 111.098 126.848 104.563 124.417 99.0005ZM118.111 59.2963L118.33 59.3188C120.9 59.5843 122.775 61.8913 122.509 64.4616C122.244 67.0318 119.937 68.9068 117.367 68.6413L117.148 68.6187L118.111 59.2963ZM96.4258 32.5209C107.806 33.6964 116.555 43.8911 115.957 55.3178C115.946 55.319 115.936 55.3211 115.925 55.3225C115.413 55.3814 114.904 55.5182 114.435 55.7313C111.746 56.9531 111.076 59.9787 110.774 62.635C110.452 65.4643 110.106 68.4756 108.979 71.1448C108.265 72.8349 107.075 74.3881 105.049 74.1798C103.799 74.0513 102.629 73.4909 101.648 72.7223C101.608 72.6914 101.567 72.6598 101.525 72.6276C100.248 71.6593 97.5604 70.0898 93.0628 69.5427C90.0371 69.1747 86.8326 69.302 83.9663 70.4241C82.4628 71.0126 81.1482 71.7109 79.469 71.5375C77.4701 71.331 76.59 69.5327 76.2426 67.7633C75.6319 64.6519 75.9365 61.2053 76.321 58.0837C76.3235 58.063 76.3272 58.0313 76.3315 57.9896C76.5249 56.1174 76.2071 54.0061 75.0148 52.4921C74.4163 51.7321 73.5948 51.1595 72.6774 50.8551C72.6671 50.8517 72.6574 50.8475 72.6469 50.844C74.4147 39.468 84.846 31.3247 96.4258 32.5209ZM68.7626 63.6208L68.544 63.5982C65.9737 63.3327 64.0987 61.0257 64.3642 58.4555C64.6297 55.8852 66.9367 54.0102 69.507 54.2757L69.7256 54.2983L68.7626 63.6208ZM70.7511 68.9174L72.3476 53.462L72.3477 53.462C72.3674 53.4733 72.3877 53.4839 72.407 53.4957C73.7405 54.3139 74.0025 56.3368 73.8184 57.7708C73.8167 57.7838 73.8152 57.7968 73.8138 57.8098C73.4566 61.2681 73.1719 65.2126 73.7677 68.2491C74.4638 71.7949 76.2947 73.7455 79.2096 74.0465C80.9367 74.2249 82.6666 73.8175 84.2175 73.0656C86.7071 71.8588 89.6414 71.7208 92.3479 72.0004C95.8393 72.361 98.0783 73.3815 99.3572 74.1916C101.108 75.3006 102.657 76.4687 104.791 76.689C107.957 77.0161 110.14 74.8787 111.303 72.1263C112.507 69.2759 113.034 65.3563 113.391 61.898C113.392 61.8876 113.394 61.8732 113.395 61.8625C113.506 60.4244 114.164 58.4927 115.651 57.9624C115.672 57.955 115.694 57.9487 115.715 57.9418L114.119 73.397C113.251 81.7972 107.695 88.6008 100.321 91.4769C100.306 91.4828 100.291 91.4886 100.275 91.4945C89.7181 95.5448 77.4776 90.5885 72.6887 80.3808C71.0178 76.8192 70.347 72.8299 70.7511 68.9174ZM51.7727 109.391C51.842 108.801 51.922 108.214 52.0125 107.635C52.0825 107.641 52.1517 107.647 52.2217 107.653C63.511 108.704 75.0188 108.35 86.0946 105.798C89.5281 105.007 92.924 104.003 96.2263 102.773C96.8689 102.534 97.2074 101.794 96.9682 101.151C96.7252 100.498 95.9991 100.166 95.3461 100.409C89.8727 102.447 84.1204 103.845 78.3429 104.677C73.0694 105.436 67.7311 105.745 62.4049 105.673C59.1197 105.629 55.833 105.454 52.5614 105.152C52.5327 105.149 52.504 105.146 52.4753 105.144C54.1896 97.2337 57.9472 91.1984 63.6574 87.1924C66.9718 84.8672 70.0751 83.8983 71.5049 83.5454C71.572 83.5288 72.9773 85.7501 73.1423 85.9648C77.1011 91.1187 83.1578 94.5666 89.644 95.3176C89.7414 95.3288 89.8387 95.3396 89.9362 95.3496C96.5435 96.0321 103.282 93.9123 108.313 89.5798C109.045 88.9491 109.739 88.2748 110.392 87.5617C111.146 87.9231 112.387 88.5878 113.821 89.6328C113.786 89.6076 111.829 91.3421 111.669 91.4691C108.045 94.3429 104 96.6758 99.7911 98.5803C99.1566 98.8674 98.8748 99.6148 99.1621 100.249C99.4451 100.875 100.205 101.162 100.831 100.878C101.513 100.57 102.189 100.25 102.86 99.9191C109.912 96.4476 114.107 92.8592 115.802 91.2382C120.645 95.5861 125.642 103.418 124.424 116.896L51.7727 109.391Z" fill="#FFD9EE"/>
<path d="M90.0374 56.5113C88.988 54.8897 87.2853 53.8459 85.3657 53.6476C83.4465 53.4494 81.5667 54.1228 80.2081 55.4951C79.7178 55.9903 79.7217 56.7888 80.2168 57.2788C80.7119 57.7688 81.5104 57.7649 82.0004 57.2698C82.8188 56.443 83.9509 56.0374 85.1064 56.1568C86.262 56.2761 87.2875 56.9048 87.9196 57.8816C88.2941 58.4602 89.0865 58.6288 89.6636 58.2553C90.2484 57.8769 90.4158 57.0961 90.0374 56.5113Z" fill="#FFD9EE"/>
<path d="M84.3823 63.1793C85.6894 63.3144 86.8586 62.3641 86.9936 61.057C87.1286 59.7498 86.1784 58.5807 84.8712 58.4457C83.5641 58.3106 82.3949 59.2608 82.2599 60.568C82.1249 61.8752 83.0751 63.0443 84.3823 63.1793Z" fill="#FFD9EE"/>
<path d="M107.605 58.325C106.556 56.704 104.854 55.6603 102.934 55.4621C101.015 55.264 99.1346 55.9377 97.7757 57.3105C97.2857 57.8056 97.29 58.6041 97.7851 59.0941C98.2745 59.5783 99.0834 59.5748 99.5687 59.0848C100.387 58.2578 101.519 57.8519 102.675 57.9713C103.831 58.0906 104.856 58.7192 105.488 59.6957C105.866 60.2805 106.647 60.4477 107.232 60.0691C107.817 59.6907 107.984 58.9098 107.605 58.325Z" fill="#FFD9EE"/>
<path d="M101.949 64.9938C103.256 65.1288 104.425 64.1786 104.56 62.8714C104.695 61.5643 103.745 60.3951 102.438 60.2601C101.13 60.1251 99.9613 61.0753 99.8263 62.3825C99.6913 63.6896 100.642 64.8588 101.949 64.9938Z" fill="#FFD9EE"/>
<path d="M101.451 79.3168C100.698 77.3521 98.9289 75.9972 96.8345 75.7808C95.9747 75.692 95.0915 75.8096 94.2802 76.1207C94.1277 76.179 93.2794 76.3681 91.9116 76.2268C90.5435 76.0855 89.752 75.7272 89.6151 75.6388C88.8842 75.1682 88.0433 74.8724 87.1832 74.7836C85.0895 74.5673 83.0813 75.5316 81.9421 77.3002C80.2848 79.8737 81.0301 83.3157 83.6035 84.9732C85.4606 86.1692 88.0059 86.985 90.7707 87.2706C93.5346 87.5561 96.1924 87.2779 98.2545 86.4874C101.113 85.3916 102.546 82.1749 101.451 79.3168ZM97.3516 84.1322C95.6525 84.7837 93.4074 85.0072 91.03 84.7616C88.652 84.516 86.4994 83.8381 84.9692 82.8526C83.565 81.9482 83.1585 80.07 84.0628 78.6659C84.6843 77.7008 85.7807 77.1745 86.924 77.2926C87.3984 77.3416 87.8443 77.4987 88.2495 77.7597C88.8082 78.1193 89.9955 78.5647 91.6524 78.7358C93.3089 78.9069 94.5622 78.7138 95.1831 78.4759C95.6328 78.3034 96.1013 78.2409 96.5755 78.2899C97.7189 78.408 98.6846 79.1474 99.0955 80.2197C99.6933 81.7791 98.911 83.5342 97.3516 84.1322Z" fill="#FFD9EE"/>
<path d="M96.5342 81.2307C96.4062 80.546 95.7472 80.0947 95.0626 80.2229C94.0016 80.4215 92.7656 80.4566 91.4883 80.3247C90.2161 80.1933 89.0172 79.9077 88.0211 79.4989C87.3768 79.2346 86.64 79.5424 86.3755 80.1867C86.1112 80.8311 86.419 81.5678 87.0635 81.8324C88.2798 82.3316 89.7202 82.6778 91.2291 82.8337C92.7442 82.9902 94.2303 82.9447 95.5265 82.7023C96.2112 82.5742 96.6623 81.9154 96.5342 81.2307Z" fill="#FFD9EE"/>
<path d="M106.105 48.7658C105.926 48.0929 105.235 47.6929 104.562 47.8724C101.405 48.7145 96.6909 48.3536 94.8105 48.1594C92.9301 47.9652 88.2414 47.3547 85.3239 45.885C84.7021 45.5718 83.9435 45.8219 83.6303 46.4441C83.3168 47.0661 83.5671 47.8245 84.1892 48.1378C87.4806 49.7957 92.5323 50.4598 94.5514 50.6684C96.5704 50.877 101.651 51.2594 105.212 50.3095C105.885 50.13 106.285 49.4388 106.105 48.7658Z" fill="#FFD9EE"/>
<path d="M104.349 43.7839C104.169 43.1109 103.478 42.7109 102.805 42.8904C101.35 43.2787 98.4211 43.3239 95.3427 43.0059C92.2643 42.6879 89.4061 42.0448 88.0615 41.3675C87.4391 41.0542 86.6811 41.3043 86.3678 41.9265C86.0544 42.5487 86.3047 43.3071 86.9267 43.6204C88.5722 44.4491 91.6214 45.1575 95.0835 45.5151C98.5456 45.8727 101.675 45.8026 103.455 45.3277C104.128 45.148 104.528 44.4568 104.349 43.7839Z" fill="#FFD9EE"/>
<path d="M214.598 194.399C214.631 194.399 214.665 194.395 214.699 194.389C214.985 194.333 215.172 194.056 215.116 193.77C215.057 193.472 215.058 193.31 215.059 192.987L215.06 192.84C215.06 190.662 216.259 188.683 218.189 187.676C218.406 187.563 218.558 187.35 218.595 187.108C218.756 186.064 219.286 185.106 220.088 184.41C220.897 183.708 221.933 183.321 223.005 183.321C223.809 183.321 224.596 183.538 225.283 183.947C225.479 184.063 225.714 184.088 225.928 184.014C226.143 183.941 226.313 183.776 226.396 183.564C227.07 181.833 228.703 180.715 230.556 180.715C231.704 180.715 232.795 181.152 233.628 181.946C233.914 182.217 234.355 182.229 234.655 181.974C235.733 181.054 237.107 180.547 238.525 180.547C239.046 180.547 239.871 180.662 240.403 180.809C240.684 180.886 240.974 180.722 241.052 180.441C241.129 180.161 240.965 179.87 240.684 179.792C240.054 179.618 239.146 179.492 238.525 179.492C236.942 179.492 235.404 180.029 234.166 181.01C233.163 180.138 231.89 179.66 230.556 179.66C229.422 179.66 228.333 180.002 227.407 180.649C226.591 181.218 225.95 181.986 225.539 182.883C224.759 182.479 223.89 182.267 223.005 182.267C221.679 182.267 220.398 182.745 219.396 183.613C218.442 184.441 217.799 185.571 217.576 186.808C215.369 188.017 214.005 190.315 214.005 192.841L214.004 192.983C214.003 193.325 214.002 193.572 214.081 193.972C214.13 194.224 214.35 194.399 214.598 194.399Z" fill="#FFD9EE"/>
<path d="M250 190.907C250 189.493 249.513 188.11 248.627 187.012C247.793 185.978 246.639 185.233 245.362 184.902C244.985 183.313 244.064 181.9 242.753 180.91C242.521 180.734 242.19 180.78 242.015 181.012C241.839 181.244 241.885 181.575 242.117 181.751C243.272 182.624 244.072 183.882 244.369 185.293C244.431 185.588 244.66 185.821 244.954 185.888C246.069 186.142 247.083 186.777 247.806 187.674C248.552 188.598 248.945 189.716 248.945 190.907C248.945 192.641 248.081 194.249 246.634 195.206C246.381 195.373 246.248 195.672 246.296 195.968C246.328 196.171 246.345 196.378 246.345 196.582C246.345 198.702 244.624 200.426 242.51 200.426C242.172 200.426 241.835 200.382 241.51 200.294C241.151 200.196 240.775 200.37 240.617 200.706C239.709 202.63 237.752 203.873 235.631 203.873C234.052 203.873 232.546 203.192 231.499 202.005C231.222 201.69 230.753 201.654 230.432 201.922C229.444 202.747 228.192 203.201 226.906 203.201C224.465 203.201 222.287 201.561 221.61 199.214C221.516 198.888 221.211 198.661 220.866 198.661C220.866 198.661 220.866 198.661 220.866 198.661C218.735 198.661 216.778 197.494 215.76 195.615C215.621 195.359 215.301 195.264 215.045 195.403C214.789 195.541 214.694 195.861 214.833 196.117C216.002 198.275 218.22 199.639 220.659 199.712C221.532 202.398 224.07 204.255 226.906 204.255C228.347 204.255 229.752 203.777 230.893 202.903C232.129 204.193 233.84 204.928 235.631 204.928C238.079 204.928 240.344 203.538 241.465 201.368C241.808 201.443 242.158 201.481 242.51 201.481C245.206 201.481 247.399 199.283 247.399 196.582C247.399 196.383 247.387 196.183 247.363 195.985C249.018 194.822 250 192.937 250 190.907Z" fill="#FFD9EE"/>
<path d="M221.244 204.373C219.575 204.373 218.218 205.733 218.218 207.405C218.218 209.077 219.575 210.437 221.244 210.437C222.913 210.437 224.271 209.077 224.271 207.405C224.271 205.733 222.913 204.373 221.244 204.373ZM221.244 209.382C220.157 209.382 219.272 208.495 219.272 207.405C219.272 206.315 220.157 205.428 221.244 205.428C222.331 205.428 223.216 206.315 223.216 207.405C223.216 208.495 222.331 209.382 221.244 209.382Z" fill="#FFD9EE"/>
<path d="M216.167 210.166C214.972 210.166 214 211.14 214 212.337C214 213.534 214.972 214.508 216.167 214.508C217.363 214.508 218.335 213.534 218.335 212.337C218.335 211.14 217.363 210.166 216.167 210.166ZM216.167 213.453C215.554 213.453 215.055 212.952 215.055 212.337C215.055 211.721 215.554 211.221 216.167 211.221C216.781 211.221 217.28 211.721 217.28 212.337C217.28 212.952 216.781 213.453 216.167 213.453Z" fill="#FFD9EE"/>
<path d="M455.963 14.1913C456.017 14.1913 456.072 14.1965 456.127 14.2073C456.587 14.2972 456.888 14.7435 456.798 15.204C456.704 15.6839 456.705 15.9452 456.707 16.4659L456.707 16.7015C456.707 20.2108 458.639 23.3992 461.749 25.0223C462.099 25.2047 462.343 25.5467 462.403 25.9371C462.662 27.6198 463.516 29.1633 464.808 30.2838C466.112 31.415 467.781 32.0381 469.509 32.0381C470.803 32.0381 472.072 31.6895 473.178 31.03C473.493 30.8422 473.872 30.8026 474.218 30.9215C474.564 31.0403 474.838 31.3048 474.972 31.6469C476.057 34.4352 478.688 36.237 481.673 36.237C483.523 36.237 485.281 35.5329 486.624 34.2544C487.083 33.8166 487.794 33.7972 488.277 34.2093C490.014 35.6915 492.229 36.5078 494.513 36.5078C495.352 36.5078 496.681 36.3223 497.538 36.0854C497.99 35.9608 498.459 36.2256 498.584 36.678C498.709 37.1303 498.443 37.5983 497.991 37.7232C496.976 38.0036 495.514 38.207 494.513 38.207C491.962 38.207 489.484 37.3416 487.491 35.762C485.874 37.167 483.824 37.9361 481.673 37.9361C479.847 37.9361 478.093 37.3855 476.6 36.3438C475.285 35.4269 474.253 34.1896 473.591 32.7438C472.335 33.3951 470.934 33.7372 469.509 33.7372C467.372 33.7372 465.307 32.9665 463.694 31.5673C462.157 30.2335 461.121 28.4132 460.761 26.4207C457.207 24.4726 455.008 20.7695 455.008 16.7014L455.007 16.4719C455.005 15.9206 455.004 15.5223 455.13 14.878C455.209 14.4726 455.565 14.1913 455.963 14.1913Z" fill="#FFD9EE"/>
<path d="M513 19.8169C513 22.0946 512.215 24.3229 510.789 26.0913C509.444 27.7581 507.585 28.9577 505.527 29.4911C504.92 32.0515 503.436 34.3272 501.325 35.9237C500.95 36.2067 500.418 36.1328 500.134 35.7585C499.851 35.3842 499.925 34.8513 500.3 34.5684C502.161 33.1611 503.449 31.134 503.927 28.8608C504.027 28.3864 504.397 28.0103 504.87 27.9026C506.667 27.4928 508.3 26.4708 509.466 25.0246C510.666 23.536 511.301 21.7353 511.301 19.8169C511.301 17.0222 509.909 14.4331 507.577 12.8907C507.169 12.6211 506.955 12.139 507.032 11.6624C507.084 11.3354 507.111 11.0029 507.111 10.6739C507.111 7.25874 504.339 4.48018 500.932 4.48018C500.388 4.48018 499.846 4.552 499.322 4.69372C498.743 4.85027 498.138 4.57092 497.882 4.02977C496.42 0.929832 493.267 -1.07321 489.849 -1.07321C487.305 -1.07321 484.879 0.0240364 483.192 1.93724C482.746 2.44373 481.99 2.50217 481.473 2.06978C479.883 0.741783 477.865 0.0103302 475.793 0.0103302C471.861 0.0103302 468.352 2.65148 467.26 6.43315C467.108 6.95809 466.617 7.32456 466.062 7.32456C466.062 7.32456 466.061 7.32456 466.061 7.32456C462.628 7.32456 459.476 9.20492 457.835 12.2317C457.612 12.6442 457.096 12.7975 456.683 12.5738C456.271 12.3502 456.118 11.8345 456.341 11.4219C458.226 7.94534 461.8 5.74916 465.729 5.63044C467.135 1.30366 471.224 -1.68889 475.793 -1.68889C478.115 -1.68889 480.378 -0.918465 482.216 0.488941C484.208 -1.5892 486.965 -2.77243 489.849 -2.77243C493.794 -2.77243 497.442 -0.533875 499.25 2.96255C499.801 2.84202 500.366 2.78096 500.932 2.78096C505.276 2.78096 508.81 6.32168 508.81 10.6739C508.81 10.9936 508.79 11.3157 508.751 11.6353C511.417 13.5093 513 16.5463 513 19.8169Z" fill="#FFD9EE"/>
<path d="M802.043 -17.4106C798.511 -20.2103 794.516 -22.0727 790.169 -22.9461C787.981 -23.3856 786.108 -23.4889 784.794 -23.4699C785.408 -27.6182 784.959 -31.9768 783.271 -36.1357L782.315 -38.4908L782.519 -38.5735C786.202 -40.0683 787.982 -44.2807 786.487 -47.9636C784.992 -51.6466 780.78 -53.4268 777.097 -51.932L776.893 -51.8493L776.887 -51.8639C776.867 -51.9144 776.846 -51.9651 776.826 -52.0155C771.751 -64.3818 757.576 -70.3481 745.179 -65.3167C732.753 -60.2732 726.746 -46.0604 731.79 -33.634L731.821 -33.5561L731.618 -33.4735C727.935 -31.9787 726.155 -27.7663 727.649 -24.0833C729.144 -20.4004 733.356 -18.6202 737.039 -20.115L737.243 -20.1976L738.199 -17.8425C739.887 -13.6831 742.604 -10.2444 745.935 -7.69724C744.598 -6.42994 742.454 -4.07055 740.661 -0.587992C738.112 4.36415 735.822 12.6242 739.389 23.8545C739.826 25.2289 740.339 26.6195 740.914 27.9879C741.181 28.6245 741.911 28.9275 742.551 28.6679L812.565 0.251484C813.205 -0.00817596 813.517 -0.734083 813.265 -1.37692C810.576 -8.24526 806.8 -13.6397 802.043 -17.4106ZM777.842 -49.5121L778.046 -49.5948C780.44 -50.5665 783.178 -49.4093 784.15 -47.015C785.122 -44.6208 783.964 -41.8824 781.57 -40.9107L781.367 -40.828L777.842 -49.5121ZM746.128 -62.9795C756.729 -67.282 769.239 -62.3855 774.073 -52.0146C774.064 -52.0084 774.056 -52.0016 774.047 -51.9952C773.623 -51.7031 773.238 -51.3435 772.923 -50.9352C771.121 -48.594 771.95 -45.6083 772.93 -43.1207C773.973 -40.4712 775.081 -37.6499 775.338 -34.7637C775.501 -32.9362 775.18 -31.0066 773.293 -30.2397C772.128 -29.7663 770.832 -29.7121 769.605 -29.9304C769.556 -29.9392 769.505 -29.9479 769.452 -29.9563C767.87 -30.2123 764.76 -30.3369 760.532 -28.7093C757.687 -27.6143 754.917 -25.9981 752.913 -23.6621C751.861 -22.4369 751.028 -21.2033 749.464 -20.5684C747.602 -19.8127 745.981 -20.9877 744.844 -22.3871C742.844 -24.848 741.496 -28.0345 740.371 -30.9714C740.363 -30.9909 740.351 -31.0207 740.336 -31.0595C739.628 -32.8035 738.356 -34.5187 736.593 -35.2961C735.708 -35.6863 734.714 -35.8064 733.761 -35.6447C733.75 -35.6429 733.74 -35.642 733.729 -35.6402C729.951 -46.5153 735.341 -58.6015 746.128 -62.9795ZM736.295 -22.5349L736.091 -22.4522C733.697 -21.4805 730.958 -22.6378 729.987 -25.032C729.015 -27.4262 730.172 -30.1646 732.566 -31.1363L732.77 -31.219L736.295 -22.5349ZM740.536 -18.7909L734.693 -33.1879L734.693 -33.188C734.716 -33.1872 734.739 -33.1874 734.761 -33.1861C736.323 -33.0894 737.503 -31.426 738.014 -30.0733C738.018 -30.061 738.023 -30.0488 738.028 -30.0367C739.336 -26.8152 740.935 -23.1984 742.886 -20.7967C745.165 -17.9923 747.697 -17.1289 750.412 -18.2312C752.021 -18.8841 753.358 -20.0557 754.374 -21.4474C756.006 -23.6814 758.533 -25.1803 761.054 -26.2036C764.306 -27.5236 766.762 -27.6732 768.272 -27.558C770.338 -27.4003 772.254 -27.0959 774.242 -27.9025C777.192 -29.0997 778.116 -32.0114 777.851 -34.9876C777.577 -38.0697 776.203 -41.7784 774.895 -44.9998C774.891 -45.0095 774.886 -45.0228 774.882 -45.0327C774.305 -46.3551 773.98 -48.3697 775.044 -49.5356C775.059 -49.5521 775.075 -49.5677 775.091 -49.5838L780.934 -35.187C784.11 -27.362 782.397 -18.7471 777.235 -12.7467C777.224 -12.7344 777.213 -12.722 777.203 -12.7097C769.781 -4.1786 756.646 -2.81095 747.627 -9.57749C744.48 -11.9384 742.015 -15.1463 740.536 -18.7909ZM742.771 25.8559C742.555 25.3018 742.351 24.7464 742.159 24.192C742.223 24.1649 742.287 24.1372 742.352 24.1102C752.814 19.7402 762.81 14.0269 771.393 6.57588C774.054 4.26608 776.581 1.78556 778.92 -0.850078C779.375 -1.36292 779.327 -2.17519 778.814 -2.63051C778.293 -3.09294 777.496 -3.04533 777.033 -2.52438C773.157 1.84391 768.733 5.77754 764.021 9.22339C759.721 12.3687 755.152 15.1467 750.415 17.583C747.493 19.0857 744.509 20.4731 741.478 21.7421C741.452 21.7532 741.425 21.7639 741.398 21.7751C739.2 13.9858 739.686 6.89293 742.848 0.675699C744.684 -2.93289 746.97 -5.24488 748.067 -6.22746C748.118 -6.27359 750.401 -4.97157 750.648 -4.85943C756.562 -2.16614 763.529 -1.96376 769.609 -4.34451C769.7 -4.38029 769.791 -4.41648 769.882 -4.45335C776.037 -6.95136 780.992 -11.9856 783.401 -18.1722C783.752 -19.0727 784.049 -19.9941 784.29 -20.93C785.126 -20.9649 786.533 -20.96 788.29 -20.7102C788.248 -20.7163 787.334 -18.2664 787.252 -18.0791C785.4 -13.8405 782.923 -9.88233 780.1 -6.22527C779.675 -5.67397 779.777 -4.8818 780.328 -4.45629C780.871 -4.03675 781.677 -4.14024 782.097 -4.68408C782.554 -5.27644 783.001 -5.87659 783.439 -6.48344C788.037 -12.8583 790.057 -17.9957 790.793 -20.2222C797.11 -18.6558 805.199 -14.0847 810.448 -1.61171L742.771 25.8559Z" fill="#FFD9EE"/>
<path d="M968.963 2.80871C969.017 2.80871 969.072 2.8035 969.127 2.79273C969.587 2.70279 969.888 2.25646 969.798 1.79597C969.704 1.31611 969.705 1.05477 969.707 0.534132L969.707 0.298508C969.707 -3.21083 971.639 -6.39925 974.749 -8.02234C975.099 -8.20472 975.343 -8.54672 975.403 -8.93709C975.662 -10.6198 976.516 -12.1633 977.808 -13.2838C979.112 -14.415 980.781 -15.0381 982.509 -15.0381C983.803 -15.0381 985.072 -14.6895 986.178 -14.03C986.493 -13.8422 986.872 -13.8026 987.218 -13.9215C987.564 -14.0403 987.838 -14.3048 987.972 -14.6469C989.057 -17.4352 991.688 -19.237 994.673 -19.237C996.523 -19.237 998.281 -18.5329 999.624 -17.2544C1000.08 -16.8166 1000.79 -16.7972 1001.28 -17.2093C1003.01 -18.6915 1005.23 -19.5078 1007.51 -19.5078C1008.35 -19.5078 1009.68 -19.3223 1010.54 -19.0854C1010.99 -18.9608 1011.46 -19.2256 1011.58 -19.678C1011.71 -20.1303 1011.44 -20.5983 1010.99 -20.7232C1009.98 -21.0036 1008.51 -21.207 1007.51 -21.207C1004.96 -21.207 1002.48 -20.3416 1000.49 -18.762C998.874 -20.167 996.824 -20.9361 994.673 -20.9361C992.847 -20.9361 991.093 -20.3855 989.6 -19.3438C988.285 -18.4269 987.253 -17.1896 986.591 -15.7438C985.335 -16.3951 983.934 -16.7372 982.509 -16.7372C980.372 -16.7372 978.307 -15.9665 976.694 -14.5673C975.157 -13.2335 974.121 -11.4132 973.761 -9.42068C970.207 -7.47259 968.008 -3.76954 968.008 0.298622L968.007 0.52813C968.005 1.07936 968.004 1.47765 968.13 2.122C968.209 2.52743 968.565 2.80871 968.963 2.80871Z" fill="#FFD9EE"/>
<path d="M1026 -2.81688C1026 -5.09462 1025.21 -7.32286 1023.79 -9.0913C1022.44 -10.7581 1020.58 -11.9577 1018.53 -12.4911C1017.92 -15.0515 1016.44 -17.3272 1014.32 -18.9237C1013.95 -19.2067 1013.42 -19.1328 1013.13 -18.7585C1012.85 -18.3842 1012.93 -17.8513 1013.3 -17.5684C1015.16 -16.1611 1016.45 -14.134 1016.93 -11.8608C1017.03 -11.3864 1017.4 -11.0103 1017.87 -10.9026C1019.67 -10.4928 1021.3 -9.47079 1022.47 -8.02464C1023.67 -6.53601 1024.3 -4.73529 1024.3 -2.81688C1024.3 -0.0222282 1022.91 2.56693 1020.58 4.10925C1020.17 4.37886 1019.96 4.86099 1020.03 5.33756C1020.08 5.6646 1020.11 5.99709 1020.11 6.32605C1020.11 9.74126 1017.34 12.5198 1013.93 12.5198C1013.39 12.5198 1012.85 12.448 1012.32 12.3063C1011.74 12.1497 1011.14 12.4291 1010.88 12.9702C1009.42 16.0702 1006.27 18.0732 1002.85 18.0732C1000.31 18.0732 997.879 16.976 996.192 15.0628C995.746 14.5563 994.99 14.4978 994.473 14.9302C992.883 16.2582 990.865 16.9897 988.793 16.9897C984.861 16.9897 981.352 14.3485 980.26 10.5669C980.108 10.0419 979.617 9.67544 979.062 9.67544C979.062 9.67544 979.061 9.67544 979.061 9.67544C975.628 9.67544 972.476 7.79508 970.835 4.76832C970.612 4.35575 970.096 4.20248 969.683 4.42621C969.271 4.64983 969.118 5.16549 969.341 5.57806C971.226 9.05466 974.8 11.2508 978.729 11.3696C980.135 15.6963 984.224 18.6889 988.793 18.6889C991.115 18.6889 993.378 17.9185 995.216 16.5111C997.208 18.5892 999.965 19.7724 1002.85 19.7724C1006.79 19.7724 1010.44 17.5339 1012.25 14.0374C1012.8 14.158 1013.37 14.219 1013.93 14.219C1018.28 14.219 1021.81 10.6783 1021.81 6.32605C1021.81 6.00637 1021.79 5.68431 1021.75 5.36475C1024.42 3.49074 1026 0.453667 1026 -2.81688Z" fill="#FFD9EE"/>
<path d="M979.671 18.8809C976.982 18.8809 974.795 21.0722 974.795 23.7657C974.795 26.459 976.982 28.6504 979.671 28.6504C982.359 28.6504 984.547 26.459 984.547 23.7657C984.547 21.0722 982.359 18.8809 979.671 18.8809ZM979.671 26.9511C977.919 26.9511 976.494 25.5221 976.494 23.7657C976.494 22.0091 977.919 20.5801 979.671 20.5801C981.422 20.5801 982.848 22.0091 982.848 23.7657C982.848 25.5221 981.422 26.9511 979.671 26.9511Z" fill="#FFD9EE"/>
<path d="M971.492 28.2109C969.566 28.2109 968 29.78 968 31.7086C968 33.6372 969.566 35.2063 971.492 35.2063C973.418 35.2063 974.984 33.6372 974.984 31.7086C974.984 29.78 973.417 28.2109 971.492 28.2109ZM971.492 33.5071C970.503 33.5071 969.699 32.7003 969.699 31.7086C969.699 30.7169 970.503 29.9102 971.492 29.9102C972.481 29.9102 973.285 30.7169 973.285 31.7086C973.285 32.7003 972.481 33.5071 971.492 33.5071Z" fill="#FFD9EE"/>
<path d="M613.963 291.809C614.017 291.809 614.072 291.803 614.127 291.793C614.587 291.703 614.888 291.256 614.798 290.796C614.704 290.316 614.705 290.055 614.707 289.534L614.707 289.299C614.707 285.789 616.639 282.601 619.749 280.978C620.099 280.795 620.343 280.453 620.403 280.063C620.662 278.38 621.516 276.837 622.808 275.716C624.112 274.585 625.781 273.962 627.509 273.962C628.803 273.962 630.072 274.31 631.178 274.97C631.493 275.158 631.872 275.197 632.218 275.079C632.564 274.96 632.838 274.695 632.972 274.353C634.057 271.565 636.688 269.763 639.673 269.763C641.523 269.763 643.281 270.467 644.624 271.746C645.083 272.183 645.794 272.203 646.277 271.791C648.014 270.308 650.229 269.492 652.513 269.492C653.352 269.492 654.681 269.678 655.538 269.915C655.99 270.039 656.459 269.774 656.584 269.322C656.709 268.87 656.443 268.402 655.991 268.277C654.976 267.996 653.514 267.793 652.513 267.793C649.962 267.793 647.484 268.658 645.491 270.238C643.874 268.833 641.824 268.064 639.673 268.064C637.847 268.064 636.093 268.614 634.6 269.656C633.285 270.573 632.253 271.81 631.591 273.256C630.335 272.605 628.934 272.263 627.509 272.263C625.372 272.263 623.307 273.033 621.694 274.433C620.157 275.766 619.121 277.587 618.761 279.579C615.207 281.527 613.008 285.23 613.008 289.299L613.007 289.528C613.005 290.079 613.004 290.478 613.13 291.122C613.209 291.527 613.565 291.809 613.963 291.809Z" fill="#FFD9EE"/>
<path d="M671 286.183C671 283.905 670.215 281.677 668.789 279.909C667.444 278.242 665.585 277.042 663.527 276.509C662.92 273.949 661.436 271.673 659.325 270.076C658.95 269.793 658.418 269.867 658.134 270.242C657.851 270.616 657.925 271.149 658.3 271.432C660.161 272.839 661.449 274.866 661.927 277.139C662.027 277.614 662.397 277.99 662.87 278.097C664.667 278.507 666.3 279.529 667.466 280.975C668.666 282.464 669.301 284.265 669.301 286.183C669.301 288.978 667.909 291.567 665.577 293.109C665.169 293.379 664.955 293.861 665.032 294.338C665.084 294.665 665.111 294.997 665.111 295.326C665.111 298.741 662.339 301.52 658.932 301.52C658.388 301.52 657.846 301.448 657.322 301.306C656.743 301.15 656.138 301.429 655.882 301.97C654.42 305.07 651.267 307.073 647.849 307.073C645.305 307.073 642.879 305.976 641.192 304.063C640.746 303.556 639.99 303.498 639.473 303.93C637.883 305.258 635.865 305.99 633.793 305.99C629.861 305.99 626.352 303.349 625.26 299.567C625.108 299.042 624.617 298.675 624.062 298.675C624.062 298.675 624.061 298.675 624.061 298.675C620.628 298.675 617.476 296.795 615.835 293.768C615.612 293.356 615.096 293.202 614.683 293.426C614.271 293.65 614.118 294.165 614.341 294.578C616.226 298.055 619.8 300.251 623.729 300.37C625.135 304.696 629.224 307.689 633.793 307.689C636.115 307.689 638.378 306.918 640.216 305.511C642.208 307.589 644.965 308.772 647.849 308.772C651.794 308.772 655.442 306.534 657.25 303.037C657.801 303.158 658.366 303.219 658.932 303.219C663.276 303.219 666.81 299.678 666.81 295.326C666.81 295.006 666.79 294.684 666.751 294.365C669.417 292.491 671 289.454 671 286.183Z" fill="#FFD9EE"/>
<path d="M65.6128 280.219C65.6128 281.318 66.5045 282.21 67.6036 282.21H78.4419C79.541 282.21 80.4327 281.318 80.4327 280.219C80.4327 279.119 79.541 278.229 78.4419 278.229H67.6036C66.5045 278.229 65.6128 279.119 65.6128 280.219Z" fill="#FFD9EE"/>
<path d="M63.5471 269.22C63.9774 269.22 64.3948 269.082 64.7395 268.823L75.5765 260.704C76.1636 260.284 76.4773 259.579 76.3956 258.862C76.3153 258.144 75.8525 257.527 75.1863 257.248C74.5214 256.969 73.7567 257.073 73.189 257.518L62.3521 265.638C61.6664 266.151 61.3865 267.047 61.6574 267.86C61.9282 268.672 62.6891 269.22 63.5458 269.22H63.5471Z" fill="#FFD9EE"/>
<path d="M62.3518 294.805L73.1887 302.924C74.0688 303.554 75.291 303.365 75.9391 302.499C76.5884 301.633 76.4264 300.407 75.5762 299.738L64.7379 291.619C63.8579 290.991 62.6356 291.179 61.9863 292.046C61.3382 292.911 61.4989 294.136 62.3505 294.805H62.3518Z" fill="#FFD9EE"/>
<path d="M32.6526 293.74C33.6377 293.029 34.9519 292.972 35.9953 293.595C37.0387 294.218 37.6129 295.4 37.4574 296.605C37.3135 297.695 38.0808 298.696 39.1708 298.84C40.2622 298.983 41.2615 298.215 41.4054 297.125C41.7903 294.18 40.2829 291.313 37.6388 289.961C37.3472 289.001 37.5468 287.958 38.1741 287.173C38.6239 286.62 38.7431 285.867 38.4852 285.201C38.2273 284.535 37.6323 284.058 36.9272 283.95C36.2209 283.844 35.5119 284.122 35.0673 284.682C34.0317 285.972 33.4873 287.588 33.5314 289.242C32.3739 289.391 31.2709 289.827 30.3235 290.508C29.4317 291.151 29.2295 292.396 29.8724 293.289C30.5153 294.18 31.7596 294.383 32.6526 293.74Z" fill="#FFD9EE"/>
<path d="M33.6804 274.734C34.0238 274.857 34.3764 274.948 34.7367 275.006C34.7535 275.251 34.786 275.495 34.8326 275.736C34.9506 276.327 35.1592 276.897 35.4509 277.425C35.9823 278.388 37.1929 278.738 38.1559 278.206C39.1189 277.675 39.4676 276.463 38.9361 275.501C38.5655 274.826 38.6303 273.995 39.1021 273.387C39.5725 272.778 40.3606 272.506 41.1072 272.696C42.1674 272.957 43.2393 272.315 43.5115 271.258C43.7824 270.2 43.1512 269.12 42.0961 268.839C39.7514 268.239 37.2784 269.129 35.8566 271.088C35.2811 271.145 34.7121 270.938 34.309 270.524C33.5404 269.737 32.2792 269.723 31.4925 270.493C30.707 271.262 30.6928 272.521 31.4614 273.308C32.0835 273.946 32.8418 274.433 33.6804 274.734Z" fill="#FFD9EE"/>
<path d="M29.9888 317.001C32.1766 316.999 34.301 316.266 36.0261 314.92C39.0655 316.444 42.6779 316.283 45.5708 314.497C48.4638 312.71 50.2239 309.551 50.2226 306.15V303.763C54.0591 302.134 56.8225 298.686 57.5755 294.586C58.3286 290.485 56.9715 286.282 53.9632 283.395C54.2899 283.036 54.5893 282.654 54.8589 282.251C57.7453 277.906 56.5646 272.045 52.2199 269.159C51.9815 268.999 51.7339 268.855 51.4824 268.719C52.3871 264.665 51.2038 260.427 48.3303 257.428C45.4555 254.427 41.2716 253.065 37.1823 253.796C37.1849 253.7 37.1914 253.604 37.1914 253.508C37.1615 248.83 33.3626 245.055 28.6849 245.055C24.0084 245.055 20.2082 248.83 20.1797 253.508V307.192C20.1862 312.608 24.5736 316.995 29.9888 317.001ZM24.1614 253.507C24.1614 251.639 25.3098 249.963 27.0505 249.288C28.7924 248.613 30.7703 249.078 32.0289 250.458C33.2874 251.837 33.5687 253.849 32.7366 255.522C32.4864 255.68 32.2389 255.848 32.0004 256.025C31.1164 256.678 30.9285 257.924 31.5817 258.809C32.235 259.693 33.4818 259.881 34.3658 259.228C37.5802 256.861 42.0142 257.071 44.9901 259.732C47.9661 262.392 48.6698 266.774 46.6764 270.233C46.1515 271.139 46.4198 272.298 47.2895 272.881C48.1592 273.466 49.3322 273.277 49.9738 272.448C49.988 272.457 50.0023 272.465 50.0152 272.474C51.4293 273.407 52.3275 274.945 52.4468 276.635C52.566 278.324 51.8933 279.972 50.6257 281.096C48.9796 280.322 47.1832 279.922 45.3647 279.923C44.2643 279.923 43.3739 280.814 43.3739 281.914C43.3739 283.013 44.2643 283.905 45.3647 283.905C50.001 283.933 53.7442 287.701 53.7442 292.337C53.7442 296.975 50.001 300.741 45.3647 300.771C44.2643 300.771 43.3739 301.663 43.3739 302.762C43.3739 303.861 44.2643 304.753 45.3647 304.753C45.6589 304.753 45.9506 304.739 46.2396 304.719V306.15C46.2565 308.243 45.1483 310.184 43.3389 311.234C41.5295 312.285 39.2963 312.285 37.4869 311.234C35.6762 310.184 34.5693 308.243 34.5848 306.15C34.5848 305.051 33.6944 304.159 32.594 304.159C31.4949 304.159 30.6031 305.051 30.6031 306.15C30.6018 308.39 31.3704 310.561 32.7793 312.302C30.9751 313.293 28.7821 313.257 27.0116 312.207C25.2411 311.157 24.1575 309.251 24.1614 307.191V253.507Z" fill="#FFD9EE"/>
<path d="M-20.7932 292.336C-20.788 297.313 -17.8147 301.808 -13.2368 303.761V306.149C-13.2394 309.548 -11.4792 312.708 -8.58629 314.494C-5.69333 316.282 -2.07973 316.443 0.959688 314.918C3.91356 317.228 7.92637 317.652 11.2976 316.008C14.6688 314.364 16.8074 310.942 16.8048 307.191V253.505C16.8048 248.808 12.9968 245 8.29966 245C3.60119 245 -0.206825 248.808 -0.206825 253.505C-0.206825 253.601 -0.200344 253.697 -0.197752 253.793C-4.28833 253.053 -8.47871 254.414 -11.3548 257.416C-14.2322 260.417 -15.4117 264.662 -14.4979 268.718C-14.7494 268.854 -14.9956 268.998 -15.2354 269.156C-19.5787 272.042 -20.7608 277.905 -17.8743 282.249C-17.6047 282.652 -17.3053 283.035 -16.9787 283.394C-19.4167 285.729 -20.7945 288.959 -20.7932 292.336ZM-14.555 280.045C-16.2244 277.533 -15.5413 274.142 -13.0281 272.473C-13.0152 272.464 -13.0009 272.456 -12.9866 272.447C-12.3464 273.276 -11.1721 273.467 -10.3011 272.882C-9.43136 272.298 -9.16306 271.138 -9.68929 270.232C-11.684 266.772 -10.9802 262.389 -8.00433 259.728C-5.02712 257.067 -0.593073 256.858 2.62132 259.226C3.50528 259.88 4.75216 259.692 5.40541 258.808C6.05865 257.922 5.87071 256.677 4.98676 256.024C4.74697 255.846 4.50071 255.679 4.25056 255.521C3.41844 253.847 3.6997 251.836 4.95824 250.457C6.21678 249.076 8.19467 248.611 9.93666 249.286C11.6774 249.962 12.8257 251.637 12.8257 253.505V307.191C12.8296 309.249 11.7461 311.157 9.97555 312.207C8.20504 313.255 6.0107 313.292 4.20778 312.3C5.61667 310.561 6.38528 308.388 6.38268 306.15C6.38268 305.051 5.49224 304.159 4.39183 304.159C3.29272 304.159 2.40098 305.051 2.40098 306.15C2.41783 308.242 1.30964 310.182 -0.49975 311.233C-2.30914 312.285 -4.54237 312.285 -6.35176 311.233C-8.16245 310.182 -9.26935 308.242 -9.25379 306.15V304.719C-8.96346 304.738 -8.67183 304.751 -8.37761 304.751C-7.2772 304.751 -6.38676 303.861 -6.38676 302.761C-6.38676 301.661 -7.2772 300.77 -8.37761 300.77C-13.0139 300.741 -16.7584 296.973 -16.7584 292.337C-16.7584 287.7 -13.0139 283.933 -8.37761 283.903C-7.2772 283.903 -6.38676 283.012 -6.38676 281.912C-6.38676 280.813 -7.2772 279.922 -8.37761 279.922C-10.1961 279.92 -11.9925 280.321 -13.6386 281.096C-13.9885 280.786 -14.2957 280.434 -14.555 280.045Z" fill="#FFD9EE"/>
<path d="M6.6634 290.508C5.71593 289.826 4.61293 289.39 3.45549 289.241C3.49956 287.587 2.95518 285.971 1.91958 284.682C1.4776 284.116 0.766027 283.833 0.0557504 283.938C-0.65323 284.044 -1.25074 284.523 -1.50867 285.193C-1.76531 285.864 -1.64217 286.619 -1.18594 287.173C-0.55991 287.957 -0.360306 289 -0.651934 289.961C-3.29603 291.311 -4.80343 294.18 -4.41848 297.124C-4.27461 298.214 -3.274 298.982 -2.18395 298.838C-1.09391 298.695 -0.326606 297.695 -0.469181 296.605C-0.530098 296.151 -0.48603 295.688 -0.340864 295.254C-0.0349784 294.334 0.690852 293.613 1.61369 293.314C2.53654 293.014 3.54751 293.171 4.33426 293.738C5.22729 294.382 6.47157 294.18 7.11445 293.288C7.75733 292.396 7.55513 291.15 6.6634 290.508Z" fill="#FFD9EE"/>
<path d="M-2.49701 268.642C-2.21575 268.569 -1.92153 268.561 -1.63767 268.621C-1.03498 268.743 -0.525598 269.143 -0.267669 269.702C-0.00844336 270.26 -0.0317736 270.908 -0.327291 271.446C-0.858702 272.409 -0.508749 273.621 0.454273 274.151C1.4173 274.683 2.62917 274.332 3.15929 273.369C3.57275 272.626 3.81643 271.799 3.87346 270.95C5.11774 270.75 6.26611 270.154 7.14747 269.252C7.907 268.465 7.88756 267.212 7.106 266.447C6.32314 265.682 5.06978 265.693 4.29988 266.469C3.89679 266.884 3.32519 267.091 2.74971 267.034C1.32916 265.075 -1.14515 264.183 -3.48854 264.786C-4.55396 265.059 -5.19554 266.144 -4.92206 267.209C-4.64858 268.275 -3.56242 268.915 -2.4983 268.642H-2.49701Z" fill="#FFD9EE"/>
<path d="M856.302 163.66C855.942 164.399 856.25 165.291 856.989 165.651L864.282 169.201C865.021 169.561 865.913 169.253 866.273 168.513C866.634 167.773 866.325 166.881 865.586 166.522L858.293 162.972C857.554 162.612 856.662 162.919 856.302 163.66Z" fill="#FFD9EE"/>
<path d="M858.514 155.583C858.803 155.724 859.129 155.768 859.446 155.706L869.397 153.792C869.929 153.702 870.371 153.33 870.551 152.821C870.732 152.312 870.623 151.745 870.266 151.339C869.91 150.934 869.361 150.753 868.834 150.867L858.883 152.781C858.253 152.902 857.772 153.413 857.688 154.049C857.604 154.684 857.936 155.302 858.513 155.583L858.514 155.583Z" fill="#FFD9EE"/>
<path d="M849.331 172.407L853.964 181.419C854.35 182.131 855.234 182.404 855.954 182.033C856.674 181.663 856.967 180.785 856.614 180.057L851.98 171.045C851.594 170.334 850.71 170.06 849.989 170.43C849.269 170.801 848.976 171.678 849.33 172.406L849.331 172.407Z" fill="#FFD9EE"/>
<path d="M783.908 130.083L791.2 133.632C791.94 133.992 792.832 133.684 793.192 132.944C793.552 132.204 793.244 131.313 792.504 130.953L785.212 127.404C784.472 127.044 783.581 127.351 783.221 128.092C782.861 128.831 783.168 129.723 783.908 130.083Z" fill="#FFD9EE"/>
<path d="M790.048 140.901L780.098 142.815C779.306 142.986 778.796 143.757 778.949 144.553C779.103 145.349 779.863 145.875 780.661 145.74L790.611 143.826C791.144 143.736 791.586 143.364 791.767 142.855C791.947 142.346 791.838 141.779 791.481 141.373C791.125 140.968 790.577 140.787 790.048 140.901Z" fill="#FFD9EE"/>
<path d="M792.879 116.552L797.512 125.563C797.899 126.275 798.783 126.548 799.503 126.178C800.223 125.808 800.516 124.93 800.162 124.202L795.529 115.19C795.293 114.704 794.812 114.384 794.273 114.354C793.734 114.323 793.22 114.587 792.931 115.043C792.641 115.5 792.622 116.076 792.88 116.551L792.879 116.552Z" fill="#FFD9EE"/>
<path d="M829.697 161.964C830.592 161.808 831.495 162.2 831.993 162.961C832.491 163.722 832.49 164.705 831.991 165.465C831.537 166.152 831.726 167.076 832.412 167.53C833.1 167.983 834.023 167.794 834.477 167.108C835.701 165.253 835.625 162.83 834.289 161.054C834.407 160.313 834.883 159.676 835.562 159.354C836.046 159.129 836.373 158.661 836.417 158.128C836.462 157.596 836.218 157.08 835.779 156.776C835.338 156.474 834.77 156.429 834.287 156.66C833.168 157.189 832.273 158.098 831.761 159.225C830.933 158.946 830.048 158.878 829.187 159.027C828.377 159.167 827.833 159.938 827.974 160.75C828.114 161.56 828.885 162.104 829.697 161.964Z" fill="#FFD9EE"/>
<path d="M836.612 149.513C836.803 149.708 837.01 149.885 837.234 150.042C837.165 150.212 837.107 150.387 837.059 150.564C836.945 151.001 836.899 151.453 836.922 151.903C836.964 152.725 837.664 153.357 838.486 153.315C839.308 153.273 839.94 152.571 839.897 151.75C839.869 151.175 840.185 150.637 840.701 150.382C841.217 150.126 841.837 150.201 842.277 150.574C842.905 151.097 843.836 151.016 844.365 150.393C844.894 149.77 844.823 148.837 844.205 148.303C842.824 147.131 840.868 146.92 839.27 147.772C838.864 147.622 838.55 147.296 838.414 146.886C838.154 146.105 837.31 145.683 836.529 145.943C835.749 146.203 835.326 147.046 835.586 147.827C835.796 148.46 836.146 149.036 836.612 149.513Z" fill="#FFD9EE"/>
<path d="M820.287 176.743C821.76 177.458 823.429 177.661 825.03 177.32C826.576 179.341 829.06 180.415 831.591 180.161C834.123 179.906 836.342 178.357 837.455 176.068L838.236 174.462C841.351 174.622 844.34 173.207 846.189 170.695C848.039 168.182 848.502 164.91 847.423 161.982C847.76 161.848 848.087 161.688 848.401 161.505C851.765 159.527 852.89 155.197 850.912 151.832C850.804 151.647 850.685 151.469 850.56 151.295C852.496 148.863 853.088 145.624 852.137 142.665C851.185 139.705 848.816 137.418 845.825 136.571C845.858 136.507 845.894 136.444 845.925 136.38C847.437 133.223 846.118 129.438 842.97 127.906C839.824 126.375 836.03 127.671 834.479 130.809L816.899 166.931C815.13 170.577 816.645 174.965 820.287 176.743ZM837.159 132.112C837.77 130.855 839.092 130.104 840.484 130.219C841.877 130.336 843.056 131.296 843.451 132.637C843.846 133.977 843.376 135.423 842.268 136.276C842.048 136.301 841.827 136.332 841.608 136.374C840.8 136.524 840.265 137.3 840.415 138.11C840.565 138.918 841.342 139.453 842.151 139.303C845.089 138.763 848.004 140.357 849.135 143.122C850.266 145.886 849.305 149.065 846.83 150.74C846.181 151.177 845.982 152.045 846.376 152.722C846.77 153.4 847.621 153.657 848.324 153.31C848.33 153.321 848.337 153.331 848.343 153.341C848.989 154.432 849.09 155.76 848.617 156.937C848.144 158.112 847.151 159.001 845.93 159.342C845.076 158.282 843.999 157.425 842.775 156.83C842.034 156.47 841.143 156.777 840.783 157.518C840.423 158.257 840.73 159.149 841.471 159.509C844.581 161.047 845.866 164.808 844.347 167.927C842.829 171.048 839.077 172.356 835.947 170.858C835.207 170.498 834.316 170.806 833.956 171.545C833.596 172.285 833.903 173.177 834.643 173.537C834.841 173.633 835.042 173.719 835.243 173.801L834.775 174.764C834.1 176.178 832.719 177.12 831.158 177.234C829.596 177.349 828.094 176.618 827.22 175.318C826.346 174.018 826.237 172.35 826.933 170.947C827.292 170.207 826.985 169.316 826.245 168.955C825.505 168.596 824.613 168.904 824.253 169.643C823.519 171.15 823.325 172.862 823.703 174.495C822.165 174.571 820.701 173.828 819.853 172.542C819.006 171.256 818.901 169.618 819.578 168.234L837.159 132.112Z" fill="#FFD9EE"/>
<path d="M794.195 143.516C792.568 146.867 793.097 150.865 795.538 153.678L794.756 155.285C793.641 157.572 793.79 160.274 795.152 162.423C796.513 164.573 798.892 165.865 801.436 165.835C802.667 168.356 805.229 169.955 808.035 169.953C810.842 169.951 813.402 168.349 814.628 165.824L832.209 129.701C833.747 126.541 832.432 122.731 829.272 121.193C826.11 119.655 822.301 120.97 820.763 124.13C820.731 124.195 820.704 124.262 820.675 124.327C818.165 122.489 814.899 122.033 811.981 123.111C809.062 124.188 806.878 126.658 806.165 129.686C805.951 129.696 805.739 129.712 805.525 129.74C801.658 130.259 798.943 133.817 799.462 137.685C799.511 138.045 799.588 138.4 799.69 138.749C797.285 139.522 795.3 141.244 794.195 143.516ZM802.417 137.289C802.117 135.052 803.687 132.994 805.924 132.694C805.936 132.692 805.948 132.692 805.961 132.69C806.12 133.458 806.848 133.971 807.625 133.863C808.402 133.754 808.962 133.062 808.905 132.28C808.696 129.299 810.605 126.58 813.478 125.764C816.353 124.948 819.405 126.26 820.792 128.906C821.173 129.635 822.073 129.917 822.803 129.536C823.532 129.154 823.813 128.255 823.433 127.526C823.329 127.328 823.218 127.134 823.102 126.946C823.09 125.548 823.938 124.286 825.236 123.771C826.535 123.254 828.018 123.589 828.969 124.613C829.92 125.638 830.143 127.142 829.532 128.398L811.951 164.521C811.28 165.907 809.926 166.836 808.391 166.963C806.856 167.088 805.368 166.394 804.479 165.137C805.997 164.428 807.225 163.218 807.957 161.711C808.317 160.971 808.009 160.079 807.269 159.719C806.529 159.359 805.637 159.667 805.277 160.407C804.604 161.82 803.223 162.762 801.661 162.877C800.099 162.992 798.597 162.261 797.723 160.961C796.849 159.661 796.74 157.993 797.435 156.59L797.904 155.627C798.093 155.735 798.285 155.84 798.483 155.936C799.223 156.296 800.114 155.989 800.475 155.248C800.834 154.509 800.527 153.617 799.787 153.257C796.677 151.719 795.391 147.958 796.909 144.838C798.428 141.718 802.181 140.41 805.31 141.908C806.051 142.269 806.942 141.96 807.302 141.221C807.662 140.481 807.355 139.589 806.614 139.229C805.391 138.633 804.051 138.314 802.69 138.296C802.556 137.973 802.465 137.635 802.417 137.289Z" fill="#FFD9EE"/>
<path d="M813.268 151.279C812.854 150.51 812.254 149.856 811.524 149.377C812.095 148.278 812.258 147.012 811.984 145.805C811.872 145.28 811.486 144.856 810.973 144.695C810.462 144.534 809.903 144.661 809.51 145.027C809.117 145.394 808.953 145.943 809.079 146.465C809.243 147.197 809.036 147.965 808.525 148.515C806.303 148.558 804.35 149.995 803.645 152.102C803.384 152.883 803.806 153.727 804.587 153.987C805.367 154.248 806.211 153.826 806.472 153.046C806.58 152.721 806.761 152.424 807.001 152.179C807.508 151.66 808.232 151.413 808.951 151.514C809.67 151.614 810.299 152.051 810.643 152.69C811.033 153.416 811.936 153.687 812.661 153.297C813.386 152.908 813.657 152.004 813.268 151.279Z" fill="#FFD9EE"/>
<path d="M814.265 133.566C814.478 133.609 814.679 133.7 814.85 133.833C815.216 134.112 815.427 134.549 815.418 135.009C815.409 135.47 815.181 135.898 814.806 136.163C814.134 136.637 813.972 137.567 814.446 138.239C814.92 138.912 815.851 139.073 816.523 138.599C817.044 138.234 817.479 137.758 817.796 137.205C818.698 137.478 819.666 137.453 820.554 137.135C821.323 136.854 821.721 136.004 821.445 135.234C821.169 134.463 820.322 134.06 819.55 134.33C819.143 134.477 818.69 134.429 818.322 134.202C818.008 132.419 816.635 131.008 814.861 130.646C814.054 130.482 813.267 131.001 813.102 131.808C812.937 132.614 813.459 133.401 814.264 133.565L814.265 133.566Z" fill="#FFD9EE"/>
<path d="M226.484 38.8963L228.69 32.1751C228.914 31.4934 228.543 30.7587 227.861 30.5349C227.178 30.3109 226.445 30.6826 226.221 31.3643L224.014 38.0856C223.79 38.768 224.161 39.5016 224.844 39.7257C225.525 39.9495 226.26 39.5788 226.484 38.8963Z" fill="#FFD9EE"/>
<path d="M235.108 32.3134L237.937 40.687C238.178 41.3513 238.905 41.7012 239.575 41.475C240.244 41.2485 240.61 40.5296 240.399 39.8557L237.57 31.4813C237.429 31.0317 237.056 30.6928 236.594 30.5972C236.133 30.5011 235.656 30.6624 235.347 31.0186C235.039 31.3743 234.947 31.8697 235.108 32.3134Z" fill="#FFD9EE"/>
<path d="M213.729 32.7408L220.97 27.6725C221.541 27.2541 221.672 26.4583 221.267 25.8793C220.862 25.3002 220.069 25.151 219.481 25.5433L212.239 30.6113C211.847 30.8727 211.627 31.3258 211.665 31.795C211.702 32.2649 211.991 32.6778 212.419 32.8736C212.848 33.0704 213.348 33.0192 213.729 32.7397L213.729 32.7408Z" fill="#FFD9EE"/>
<path d="M262.518 1.9468C262.962 0.589329 262.94 -0.877341 262.457 -2.22151C264.021 -3.79624 264.657 -6.06938 264.138 -8.22731C263.618 -10.3855 262.018 -12.1203 259.908 -12.812L258.427 -13.2982C258.198 -16.0094 256.622 -18.4253 254.233 -19.7271C251.843 -21.0292 248.96 -21.0434 246.557 -19.7653C246.401 -20.041 246.225 -20.3046 246.029 -20.5539C243.923 -23.2287 240.047 -23.6898 237.372 -21.583C237.225 -21.4675 237.085 -21.3433 236.949 -21.215C234.619 -22.6017 231.75 -22.7307 229.304 -21.5592C226.858 -20.3872 225.161 -18.0697 224.782 -15.3846C224.723 -15.4057 224.665 -15.4293 224.605 -15.4488C221.698 -16.3828 218.583 -14.7954 217.63 -11.8942C216.678 -8.9938 218.246 -5.86804 221.141 -4.89788L254.437 6.03324C257.797 7.13186 261.412 5.30409 262.518 1.9468ZM221.951 -7.36766C220.793 -7.74796 219.987 -8.80144 219.923 -10.0186C219.859 -11.2365 220.55 -12.3684 221.663 -12.8679C222.774 -13.3677 224.079 -13.1325 224.947 -12.2757C224.995 -12.0884 225.048 -11.9008 225.109 -11.7167C225.335 -11.0355 226.069 -10.6653 226.751 -10.8902C227.432 -11.1153 227.803 -11.8504 227.577 -12.5317C226.764 -15.0072 227.797 -17.7145 230.053 -19.0184C232.309 -20.3225 235.17 -19.8668 236.91 -17.926C237.365 -17.416 238.138 -17.3464 238.677 -17.7671C239.217 -18.1874 239.338 -18.9535 238.955 -19.52C238.964 -19.527 238.971 -19.5343 238.98 -19.5405C239.846 -20.2275 240.983 -20.4716 242.055 -20.2014C243.127 -19.9315 244.012 -19.1785 244.451 -18.1635C243.636 -17.3002 243.022 -16.2675 242.653 -15.1394C242.428 -14.4569 242.799 -13.7234 243.482 -13.4993C244.164 -13.2755 244.898 -13.6462 245.122 -14.3287C246.084 -17.1984 249.183 -18.7528 252.058 -17.8087C254.935 -16.8644 256.508 -13.7759 255.583 -10.8944C255.359 -10.2119 255.731 -9.47803 256.412 -9.25423C257.094 -9.03043 257.828 -9.40112 258.052 -10.0836C258.112 -10.2661 258.163 -10.4499 258.21 -10.6331L259.097 -10.3417C260.399 -9.92595 261.377 -8.84355 261.659 -7.50757C261.943 -6.17132 261.488 -4.78624 260.468 -3.87806C259.448 -2.96881 258.019 -2.67738 256.724 -3.11325C256.042 -3.33705 255.308 -2.96636 255.084 -2.28387C254.86 -1.60218 255.232 -0.867537 255.913 -0.643737C257.302 -0.186888 258.805 -0.221528 260.172 -0.740905C260.419 0.579988 259.95 1.93276 258.938 2.81709C257.927 3.70141 256.524 3.98524 255.247 3.56346L221.951 -7.36766Z" fill="#FFD9EE"/>
<path d="M236.88 28.4197C239.968 29.4299 243.361 28.5011 245.505 26.0595L246.986 26.5457C249.094 27.2395 251.412 26.7913 253.109 25.3607C254.806 23.9304 255.642 21.7219 255.315 19.5264C257.349 18.1647 258.429 15.7622 258.097 13.3366C257.763 10.9108 256.076 8.88771 253.749 8.12554L220.452 -2.80585C217.539 -3.76228 214.402 -2.17587 213.446 0.737392C212.489 3.65145 214.075 6.78863 216.989 7.74506C217.048 7.76459 217.109 7.7801 217.169 7.79802C215.877 10.1844 215.868 13.0604 217.144 15.4555C218.42 17.8513 220.812 19.4471 223.514 19.7062C223.547 19.8899 223.586 20.0719 223.635 20.2528C224.541 23.5344 227.936 25.4612 231.219 24.5556C231.524 24.4705 231.822 24.3626 232.111 24.2331C233.063 26.2208 234.786 27.733 236.88 28.4197ZM230.527 22.0479C228.629 22.5719 226.666 21.4578 226.142 19.5592C226.139 19.5493 226.137 19.5389 226.134 19.5282C226.779 19.3 227.136 18.6104 226.951 17.9512C226.766 17.2928 226.101 16.8902 225.432 17.0321C222.88 17.5648 220.305 16.2358 219.26 13.8483C218.216 11.4599 218.99 8.66737 221.113 7.15592C221.698 6.74069 221.835 5.92909 221.42 5.34395C221.004 4.75854 220.193 4.62148 219.608 5.03671C219.449 5.14927 219.295 5.26796 219.146 5.39091C217.939 5.56629 216.749 4.98225 216.15 3.92087C215.55 2.85924 215.664 1.53777 216.437 0.594862C217.211 -0.347248 218.484 -0.718241 219.642 -0.337939L252.939 10.5934C254.216 11.0101 255.179 12.0707 255.47 13.3825C255.759 14.6941 255.335 16.0625 254.353 16.9788C253.561 15.7508 252.37 14.8318 250.981 14.3776C250.3 14.1538 249.565 14.5245 249.341 15.207C249.118 15.8887 249.489 16.6233 250.171 16.8471C251.472 17.2626 252.449 18.345 252.733 19.6813C253.016 21.0175 252.562 22.4026 251.541 23.3108C250.521 24.2198 249.092 24.5112 247.798 24.0756L246.91 23.7842C246.981 23.6081 247.049 23.4299 247.109 23.2474C247.333 22.5649 246.962 21.8313 246.279 21.6073C245.598 21.3835 244.863 21.7542 244.639 22.4367C243.677 25.3063 240.578 26.8615 237.703 25.9175C234.826 24.9732 233.253 21.8839 234.178 19.0023C234.402 18.3198 234.03 17.586 233.349 17.3622C232.667 17.1384 231.933 17.5091 231.709 18.1916C231.338 19.3192 231.22 20.5149 231.366 21.6936C231.102 21.8476 230.821 21.9663 230.527 22.0479Z" fill="#FFD9EE"/>
<path d="M241.337 11.018C240.721 11.4668 240.227 12.0623 239.898 12.7498C238.882 12.3857 237.768 12.3942 236.758 12.7739C236.317 12.933 235.996 13.3165 235.917 13.7784C235.838 14.2398 236.014 14.708 236.377 15.0044C236.741 15.3 237.234 15.3775 237.67 15.2072C238.284 14.9786 238.972 15.0673 239.508 15.4437C239.808 17.3586 241.28 18.8776 243.184 19.2385C243.89 19.3712 244.569 18.9068 244.702 18.2015C244.836 17.4964 244.371 16.8167 243.666 16.6832C243.372 16.6286 243.094 16.5071 242.855 16.3286C242.346 15.9515 242.047 15.3546 242.049 14.7213C242.051 14.088 242.355 13.4929 242.866 13.1203C243.447 12.6976 243.575 11.8847 243.153 11.3044C242.731 10.7241 241.917 10.5959 241.337 11.018Z" fill="#FFD9EE"/>
<path d="M225.91 12.2486C225.922 12.0594 225.977 11.8753 226.072 11.7114C226.27 11.3624 226.622 11.128 227.021 11.0818C227.421 11.0348 227.818 11.1812 228.091 11.474C228.58 11.9997 229.403 12.0294 229.928 11.5401C230.454 11.051 230.483 10.2279 229.993 9.70298C229.617 9.29532 229.154 8.97581 228.639 8.76758C228.768 7.95521 228.632 7.12157 228.252 6.39125C227.919 5.75998 227.138 5.51683 226.504 5.84586C225.871 6.17569 225.622 6.95515 225.947 7.59074C226.122 7.9252 226.134 8.32194 225.982 8.66725C224.477 9.14926 223.42 10.5023 223.317 12.0784C223.269 12.7949 223.811 13.4137 224.528 13.461C225.244 13.5084 225.863 12.9651 225.91 12.2494L225.91 12.2486Z" fill="#FFD9EE"/>
<path d="M366.731 296.125C367.053 296.125 367.365 296.022 367.623 295.828L375.733 289.752C376.172 289.438 376.407 288.91 376.346 288.374C376.285 287.837 375.939 287.375 375.441 287.166C374.943 286.958 374.371 287.035 373.946 287.368L365.837 293.445C365.323 293.829 365.114 294.499 365.317 295.107C365.519 295.715 366.089 296.125 366.73 296.125H366.731Z" fill="#FFD9EE"/>
<path d="M290.634 289.753L298.743 295.828C299.403 296.299 300.316 296.157 300.802 295.509C301.288 294.862 301.167 293.944 300.53 293.445L292.42 287.369C291.996 287.035 291.423 286.958 290.926 287.166C290.427 287.375 290.081 287.837 290.021 288.374C289.96 288.911 290.194 289.438 290.635 289.752L290.634 289.753Z" fill="#FFD9EE"/>
<path d="M341.618 331.88C343.256 331.878 344.845 331.33 346.136 330.322C348.411 331.463 351.114 331.343 353.279 330.006C355.444 328.669 356.761 326.305 356.76 323.76V321.973C359.631 320.754 361.698 318.174 362.262 315.106C362.826 312.037 361.81 308.892 359.559 306.732C359.803 306.463 360.027 306.177 360.229 305.876C362.389 302.624 361.505 298.238 358.254 296.078C358.076 295.959 357.891 295.852 357.702 295.75C358.379 292.716 357.494 289.544 355.344 287.3C353.192 285.054 350.061 284.035 347.001 284.582C347.003 284.51 347.008 284.439 347.008 284.367C346.986 280.866 344.143 278.041 340.643 278.041C337.143 278.041 334.299 280.866 334.278 284.367V324.54C334.283 328.592 337.566 331.875 341.618 331.88ZM337.258 284.366C337.258 282.968 338.117 281.714 339.42 281.209C340.723 280.703 342.203 281.052 343.145 282.085C344.087 283.117 344.297 284.622 343.675 285.874C343.487 285.992 343.302 286.117 343.124 286.25C342.462 286.739 342.322 287.671 342.81 288.334C343.299 288.995 344.232 289.136 344.894 288.647C347.299 286.876 350.617 287.033 352.844 289.024C355.071 291.015 355.598 294.294 354.106 296.883C353.713 297.561 353.914 298.428 354.565 298.864C355.216 299.302 356.093 299.16 356.573 298.54C356.584 298.547 356.595 298.553 356.604 298.56C357.663 299.258 358.335 300.408 358.424 301.673C358.513 302.937 358.01 304.17 357.061 305.011C355.83 304.432 354.485 304.133 353.124 304.134C352.301 304.134 351.635 304.8 351.635 305.623C351.635 306.446 352.301 307.113 353.124 307.113C356.594 307.135 359.395 309.954 359.395 313.423C359.395 316.894 356.594 319.712 353.124 319.735C352.301 319.735 351.635 320.402 351.635 321.224C351.635 322.047 352.301 322.714 353.124 322.714C353.345 322.714 353.563 322.704 353.779 322.689V323.76C353.792 325.326 352.962 326.778 351.608 327.564C350.254 328.35 348.583 328.35 347.229 327.564C345.874 326.778 345.046 325.326 345.058 323.76C345.058 322.937 344.391 322.27 343.568 322.27C342.745 322.27 342.078 322.937 342.078 323.76C342.077 325.436 342.652 327.06 343.707 328.363C342.356 329.105 340.715 329.078 339.39 328.292C338.066 327.507 337.255 326.08 337.258 324.539V284.366Z" fill="#FFD9EE"/>
<path d="M303.618 313.422C303.622 317.147 305.847 320.51 309.272 321.972V323.759C309.27 326.303 310.587 328.667 312.752 330.004C314.917 331.341 317.621 331.462 319.896 330.321C322.106 332.049 325.109 332.367 327.632 331.137C330.154 329.906 331.755 327.345 331.753 324.538V284.365C331.753 280.85 328.903 278 325.388 278C321.872 278 319.023 280.85 319.023 284.365C319.023 284.436 319.028 284.508 319.03 284.58C315.969 284.026 312.833 285.044 310.681 287.291C308.527 289.537 307.645 292.714 308.329 295.748C308.14 295.85 307.956 295.958 307.777 296.076C304.526 298.236 303.642 302.623 305.802 305.874C306.004 306.176 306.228 306.462 306.472 306.731C304.648 308.479 303.617 310.896 303.618 313.422ZM308.286 304.224C307.037 302.345 307.548 299.808 309.428 298.558C309.438 298.551 309.449 298.546 309.459 298.539C309.939 299.16 310.817 299.302 311.469 298.865C312.12 298.427 312.321 297.559 311.927 296.881C310.434 294.293 310.961 291.012 313.188 289.021C315.416 287.03 318.734 286.874 321.139 288.646C321.801 289.135 322.734 288.994 323.223 288.332C323.711 287.67 323.571 286.738 322.909 286.249C322.73 286.116 322.546 285.991 322.358 285.873C321.736 284.621 321.946 283.115 322.888 282.083C323.83 281.05 325.31 280.702 326.613 281.208C327.916 281.713 328.775 282.967 328.775 284.365V324.538C328.778 326.079 327.967 327.506 326.642 328.292C325.318 329.077 323.675 329.104 322.326 328.362C323.381 327.06 323.956 325.435 323.954 323.76C323.954 322.937 323.288 322.27 322.464 322.27C321.642 322.27 320.974 322.937 320.974 323.76C320.987 325.325 320.158 326.777 318.804 327.564C317.45 328.35 315.778 328.35 314.424 327.564C313.069 326.777 312.241 325.325 312.253 323.76V322.689C312.47 322.703 312.688 322.713 312.908 322.713C313.732 322.713 314.398 322.047 314.398 321.223C314.398 320.401 313.732 319.733 312.908 319.733C309.439 319.712 306.637 316.893 306.637 313.423C306.637 309.953 309.439 307.134 312.908 307.112C313.732 307.112 314.398 306.445 314.398 305.622C314.398 304.8 313.732 304.132 312.908 304.132C311.548 304.131 310.203 304.431 308.972 305.011C308.71 304.779 308.48 304.515 308.286 304.224Z" fill="#FFD9EE"/>
<path d="M317.309 295.691C317.519 295.636 317.739 295.631 317.952 295.675C318.403 295.766 318.784 296.066 318.977 296.484C319.171 296.902 319.153 297.387 318.932 297.79C318.535 298.51 318.797 299.417 319.517 299.814C320.238 300.211 321.145 299.949 321.541 299.228C321.851 298.672 322.033 298.053 322.076 297.418C323.007 297.269 323.866 296.823 324.526 296.147C325.094 295.559 325.08 294.621 324.495 294.049C323.909 293.476 322.971 293.484 322.395 294.065C322.093 294.375 321.666 294.531 321.235 294.488C320.172 293.021 318.32 292.354 316.567 292.805C315.769 293.01 315.289 293.822 315.494 294.619C315.699 295.416 316.511 295.895 317.308 295.691H317.309Z" fill="#FFD9EE"/>
</g>
<defs>
<clipPath id="clip0">
<rect width="1004" height="294" rx="20" fill="white"/>
</clipPath>
</defs>
</svg>
