<svg width="1004" height="294" viewBox="0 0 1004 294" fill="none" xmlns="http://www.w3.org/2000/svg">
<g clip-path="url(#clip0)">
<rect width="1004" height="294" rx="20" fill="white"/>
<rect width="1004" height="294" rx="20" fill="#2E279D"/>
<path d="M358.67 141.44C358.67 143.88 358.11 146.12 356.99 148.16C355.87 150.16 354.15 151.78 351.83 153.02C349.51 154.26 346.63 154.88 343.19 154.88H336.83V170H326.57V127.88H343.19C346.55 127.88 349.39 128.46 351.71 129.62C354.03 130.78 355.77 132.38 356.93 134.42C358.09 136.46 358.67 138.8 358.67 141.44ZM342.41 146.72C344.37 146.72 345.83 146.26 346.79 145.34C347.75 144.42 348.23 143.12 348.23 141.44C348.23 139.76 347.75 138.46 346.79 137.54C345.83 136.62 344.37 136.16 342.41 136.16H336.83V146.72H342.41ZM377.631 170.48C374.711 170.48 372.111 169.98 369.831 168.98C367.551 167.98 365.751 166.62 364.431 164.9C363.111 163.14 362.371 161.18 362.211 159.02H372.351C372.471 160.18 373.011 161.12 373.971 161.84C374.931 162.56 376.111 162.92 377.511 162.92C378.791 162.92 379.771 162.68 380.451 162.2C381.171 161.68 381.531 161.02 381.531 160.22C381.531 159.26 381.031 158.56 380.031 158.12C379.031 157.64 377.411 157.12 375.171 156.56C372.771 156 370.771 155.42 369.171 154.82C367.571 154.18 366.191 153.2 365.031 151.88C363.871 150.52 363.291 148.7 363.291 146.42C363.291 144.5 363.811 142.76 364.851 141.2C365.931 139.6 367.491 138.34 369.531 137.42C371.611 136.5 374.071 136.04 376.911 136.04C381.111 136.04 384.411 137.08 386.811 139.16C389.251 141.24 390.651 144 391.011 147.44H381.531C381.371 146.28 380.851 145.36 379.971 144.68C379.131 144 378.011 143.66 376.611 143.66C375.411 143.66 374.491 143.9 373.851 144.38C373.211 144.82 372.891 145.44 372.891 146.24C372.891 147.2 373.391 147.92 374.391 148.4C375.431 148.88 377.031 149.36 379.191 149.84C381.671 150.48 383.691 151.12 385.251 151.76C386.811 152.36 388.171 153.36 389.331 154.76C390.531 156.12 391.151 157.96 391.191 160.28C391.191 162.24 390.631 164 389.511 165.56C388.431 167.08 386.851 168.28 384.771 169.16C382.731 170.04 380.351 170.48 377.631 170.48ZM431.668 136.52L410.668 185.9H399.628L407.308 168.86L393.688 136.52H405.148L412.888 157.46L420.568 136.52H431.668ZM433.338 153.26C433.338 149.78 434.038 146.74 435.438 144.14C436.878 141.54 438.858 139.54 441.378 138.14C443.938 136.74 446.858 136.04 450.138 136.04C454.338 136.04 457.838 137.14 460.638 139.34C463.478 141.54 465.338 144.64 466.218 148.64H455.298C454.378 146.08 452.598 144.8 449.958 144.8C448.078 144.8 446.578 145.54 445.458 147.02C444.338 148.46 443.778 150.54 443.778 153.26C443.778 155.98 444.338 158.08 445.458 159.56C446.578 161 448.078 161.72 449.958 161.72C452.598 161.72 454.378 160.44 455.298 157.88H466.218C465.338 161.8 463.478 164.88 460.638 167.12C457.798 169.36 454.298 170.48 450.138 170.48C446.858 170.48 443.938 169.78 441.378 168.38C438.858 166.98 436.878 164.98 435.438 162.38C434.038 159.78 433.338 156.74 433.338 153.26ZM492.286 136.16C496.126 136.16 499.206 137.44 501.526 140C503.846 142.52 505.006 146 505.006 150.44V170H494.806V151.82C494.806 149.58 494.226 147.84 493.066 146.6C491.906 145.36 490.346 144.74 488.386 144.74C486.426 144.74 484.866 145.36 483.706 146.6C482.546 147.84 481.966 149.58 481.966 151.82V170H471.706V125.6H481.966V141.02C483.006 139.54 484.426 138.36 486.226 137.48C488.026 136.6 490.046 136.16 492.286 136.16ZM527.376 170.48C524.096 170.48 521.136 169.78 518.496 168.38C515.896 166.98 513.836 164.98 512.316 162.38C510.836 159.78 510.096 156.74 510.096 153.26C510.096 149.82 510.856 146.8 512.376 144.2C513.896 141.56 515.976 139.54 518.616 138.14C521.256 136.74 524.216 136.04 527.496 136.04C530.776 136.04 533.736 136.74 536.376 138.14C539.016 139.54 541.096 141.56 542.616 144.2C544.136 146.8 544.896 149.82 544.896 153.26C544.896 156.7 544.116 159.74 542.556 162.38C541.036 164.98 538.936 166.98 536.256 168.38C533.616 169.78 530.656 170.48 527.376 170.48ZM527.376 161.6C529.336 161.6 530.996 160.88 532.356 159.44C533.756 158 534.456 155.94 534.456 153.26C534.456 150.58 533.776 148.52 532.416 147.08C531.096 145.64 529.456 144.92 527.496 144.92C525.496 144.92 523.836 145.64 522.516 147.08C521.196 148.48 520.536 150.54 520.536 153.26C520.536 155.94 521.176 158 522.456 159.44C523.776 160.88 525.416 161.6 527.376 161.6ZM560.599 125.6V170H550.339V125.6H560.599ZM583.274 170.48C579.994 170.48 577.034 169.78 574.394 168.38C571.794 166.98 569.734 164.98 568.214 162.38C566.734 159.78 565.994 156.74 565.994 153.26C565.994 149.82 566.754 146.8 568.274 144.2C569.794 141.56 571.874 139.54 574.514 138.14C577.154 136.74 580.114 136.04 583.394 136.04C586.674 136.04 589.634 136.74 592.274 138.14C594.914 139.54 596.994 141.56 598.514 144.2C600.034 146.8 600.794 149.82 600.794 153.26C600.794 156.7 600.014 159.74 598.454 162.38C596.934 164.98 594.834 166.98 592.154 168.38C589.514 169.78 586.554 170.48 583.274 170.48ZM583.274 161.6C585.234 161.6 586.894 160.88 588.254 159.44C589.654 158 590.354 155.94 590.354 153.26C590.354 150.58 589.674 148.52 588.314 147.08C586.994 145.64 585.354 144.92 583.394 144.92C581.394 144.92 579.734 145.64 578.414 147.08C577.094 148.48 576.434 150.54 576.434 153.26C576.434 155.94 577.074 158 578.354 159.44C579.674 160.88 581.314 161.6 583.274 161.6ZM618.958 136.04C621.318 136.04 623.378 136.52 625.138 137.48C626.938 138.44 628.318 139.7 629.278 141.26V136.52H639.538V169.94C639.538 173.02 638.918 175.8 637.678 178.28C636.478 180.8 634.618 182.8 632.098 184.28C629.618 185.76 626.518 186.5 622.798 186.5C617.838 186.5 613.818 185.32 610.738 182.96C607.658 180.64 605.898 177.48 605.458 173.48H615.598C615.918 174.76 616.678 175.76 617.878 176.48C619.078 177.24 620.558 177.62 622.318 177.62C624.438 177.62 626.118 177 627.358 175.76C628.638 174.56 629.278 172.62 629.278 169.94V165.2C628.278 166.76 626.898 168.04 625.138 169.04C623.378 170 621.318 170.48 618.958 170.48C616.198 170.48 613.698 169.78 611.458 168.38C609.218 166.94 607.438 164.92 606.118 162.32C604.838 159.68 604.198 156.64 604.198 153.2C604.198 149.76 604.838 146.74 606.118 144.14C607.438 141.54 609.218 139.54 611.458 138.14C613.698 136.74 616.198 136.04 618.958 136.04ZM629.278 153.26C629.278 150.7 628.558 148.68 627.118 147.2C625.718 145.72 623.998 144.98 621.958 144.98C619.918 144.98 618.178 145.72 616.738 147.2C615.338 148.64 614.638 150.64 614.638 153.2C614.638 155.76 615.338 157.8 616.738 159.32C618.178 160.8 619.918 161.54 621.958 161.54C623.998 161.54 625.718 160.8 627.118 159.32C628.558 157.84 629.278 155.82 629.278 153.26ZM681.16 136.52L660.16 185.9H649.12L656.8 168.86L643.18 136.52H654.64L662.38 157.46L670.06 136.52H681.16Z" fill="#FFD9EE"/>
<path d="M30.6273 257.008C28.8667 254.113 26.6999 251.485 24.1929 249.205C21.0028 246.419 16.9955 244.741 12.7717 244.424C4.33428 243.597 -2.09094 245.118 -8.04338 249.346C-11.1451 251.636 -14.0757 254.149 -16.812 256.865C-20.7349 260.634 -22.9961 264.296 -23.7253 268.062C-24.2933 271.061 -24.2431 274.146 -23.5778 277.126C-23.27 278.429 -22.8786 279.712 -22.4062 280.965L-22.2663 281.361C-21.9819 282.271 -21.7848 283.207 -21.6776 284.155C-21.5898 284.746 -21.5029 285.338 -21.3793 285.927C-21.2752 286.601 -21.0001 287.237 -20.5804 287.774C-19.8104 288.536 -18.7922 288.995 -17.7116 289.069C-16.9363 289.206 -16.4152 289.315 -16.2294 289.601C-16.1737 289.774 -16.1414 289.955 -16.1335 290.137C-15.7248 293.415 -15.673 296.728 -15.9789 300.017C-16.1382 301.348 -16.2387 302.845 -15.4266 303.784C-14.7081 304.432 -13.7632 304.77 -12.7969 304.726C-12.3223 304.743 -11.8471 304.721 -11.3759 304.662C-10.8064 304.608 -9.85176 304.516 -9.63766 304.751C-9.35927 305.045 -9.17595 305.417 -9.11154 305.817C-9.06206 306.223 -9.04125 306.588 -9.0267 306.908C-8.98069 307.788 -8.90332 309.264 -7.48696 309.452C-7.15093 309.505 -6.5972 309.56 -6.09571 309.604C-6.06594 310.2 -5.85781 310.774 -5.49824 311.251C-5.19558 311.607 -4.75975 311.823 -4.29316 311.848C-3.96884 311.864 -3.64098 311.853 -3.32083 311.834C-2.52177 311.795 -2.19373 311.806 -1.91543 312.061C-1.60302 312.433 -1.37683 312.869 -1.25309 313.339C-1.14397 313.638 -1.03349 313.935 -0.902074 314.218C-0.425724 315.19 0.273178 316.035 1.13779 316.685C2.85997 318.252 5.50793 318.196 7.16136 316.556C9.57183 314.057 11.8456 311.429 13.9726 308.685C17.0576 308.582 21.0248 311.686 22.3504 312.954C22.7437 313.33 23.3432 313.389 23.8025 313.097L48.7901 297.094C49.1052 296.892 49.3061 296.553 49.3316 296.18C49.3572 295.806 49.2044 295.443 48.9197 295.2C48.2392 294.677 47.4883 294.252 46.6891 293.939C46.238 293.751 45.7998 293.533 45.3773 293.287C44.3422 292.654 43.3583 291.94 42.4347 291.152C40.6393 289.588 38.9895 287.865 37.5056 286.002C35.2539 283.245 33.7803 279.936 33.2375 276.418C33.0065 274.426 33.002 272.413 33.2243 270.42C33.3065 269.228 33.3985 267.993 33.3959 266.751C33.4148 263.307 32.4547 259.928 30.6273 257.008ZM30.8726 270.259C30.6361 272.431 30.6481 274.623 30.9084 276.792C31.5167 280.727 33.1659 284.427 35.6851 287.51C37.2552 289.484 39.0022 291.31 40.9042 292.966C41.919 293.831 42.9993 294.615 44.1355 295.312C44.6463 295.614 45.177 295.881 45.7239 296.11L45.8649 296.173L23.2925 310.632C21.1219 308.688 18.5306 307.274 15.7219 306.499C15.9197 306.248 16.1113 306.01 16.2809 305.79C16.8686 305.045 17.3125 304.48 17.5406 304.209C20.9614 300.145 21.8629 296.841 20.2199 294.388C19.8423 293.866 19.126 293.725 18.5784 294.064C18.3179 294.238 18.1375 294.509 18.0768 294.817C18.0162 295.125 18.0804 295.444 18.2552 295.705C18.933 296.717 19.0458 298.75 15.7299 302.688C15.4904 302.972 15.0318 303.553 14.4228 304.328C13.8705 305.03 13.1921 305.891 12.4453 306.825C10.2829 309.629 7.97063 312.314 5.51856 314.869C4.69879 315.644 3.41295 315.632 2.60826 314.841C2.03653 314.418 1.57089 313.868 1.24809 313.235C1.14361 313.011 1.05907 312.775 0.9729 312.538C0.73695 311.716 0.303385 310.964 -0.28998 310.348C-1.15914 309.614 -2.30507 309.296 -3.42779 309.478L-3.71929 309.491C-3.75113 309.205 -3.75481 308.917 -3.73029 308.631C-3.69926 308.313 -3.79784 307.996 -4.00365 307.753C-4.20946 307.509 -4.50503 307.359 -4.82322 307.336C-5.17557 307.311 -6.01771 307.247 -6.63545 307.18C-6.64362 307.054 -6.6547 306.912 -6.65835 306.789C-6.67681 306.421 -6.70099 305.998 -6.75709 305.533C-6.88204 304.633 -7.28442 303.794 -7.90829 303.133C-8.91958 302.057 -10.463 302.201 -11.5985 302.313C-11.9753 302.36 -12.3554 302.376 -12.7348 302.36C-13.0331 302.347 -13.33 302.314 -13.6234 302.258C-13.7186 302.109 -13.7914 301.642 -13.6206 300.217C-13.3012 296.786 -13.3545 293.33 -13.7795 289.909C-13.8012 289.345 -13.9624 288.795 -14.2488 288.309C-14.9895 287.37 -16.102 286.799 -17.2969 286.746C-17.9307 286.631 -18.5378 286.527 -18.7762 286.247C-18.9258 286.003 -19.0228 285.731 -19.061 285.447C-19.173 284.91 -19.2529 284.364 -19.3329 283.818C-19.4604 282.721 -19.694 281.638 -20.0303 280.585L-20.1711 280.186C-20.6098 279.026 -20.9736 277.84 -21.2603 276.634C-21.8612 273.965 -21.9103 271.2 -21.4044 268.511C-20.7678 265.247 -18.7325 261.989 -15.1742 258.571C-12.5218 255.935 -9.68065 253.496 -6.67328 251.273C-1.22119 247.382 4.71063 246.008 12.5402 246.781C16.2683 247.037 19.8092 248.51 22.6184 250.974C24.9547 253.1 26.9739 255.55 28.6144 258.249C30.2141 260.801 31.0549 263.755 31.0386 266.766C31.0379 267.919 30.9524 269.11 30.8696 270.261L30.8726 270.259Z" fill="#FFD9EE"/>
<path d="M-2.05536 265.105C-2.60614 265.456 -2.76841 266.187 -2.41781 266.737L-1.14815 268.732C-0.79755 269.283 -0.959821 270.013 -1.5106 270.364L-2.50786 270.999C-3.05864 271.349 -3.22091 272.08 -2.87031 272.631C-2.5197 273.182 -1.78899 273.344 -1.23821 272.993L-0.240945 272.358C1.41138 271.307 1.89819 269.115 0.846381 267.462L-0.42327 265.468C-0.773875 264.917 -1.50459 264.755 -2.05536 265.105Z" fill="#FFD9EE"/>
<path d="M1.93395 262.567L1.29912 261.569C0.247308 259.917 -1.94483 259.43 -3.59716 260.482L-5.59169 261.752C-7.24402 262.804 -7.73083 264.996 -6.67902 266.648L-6.04419 267.645C-5.69359 268.196 -4.96288 268.358 -4.4121 268.008C-3.86133 267.657 -3.69905 266.926 -4.04966 266.376L-4.68448 265.378C-5.03509 264.828 -4.87282 264.097 -4.32204 263.746L-2.32751 262.477C-1.77673 262.126 -1.04602 262.288 -0.695414 262.839L-0.0605887 263.836C0.290016 264.387 1.02073 264.549 1.5715 264.199C2.12228 263.848 2.28455 263.117 1.93395 262.567Z" fill="#FFD9EE"/>
<path d="M9.36913 267.644L8.37187 268.279C7.82109 268.629 7.09038 268.467 6.73977 267.916L6.10495 266.919C5.75434 266.368 5.02363 266.206 4.47285 266.557C3.92208 266.907 3.75981 267.638 4.11041 268.189L4.74524 269.186C5.79705 270.838 7.98919 271.325 9.64152 270.273L10.6388 269.638C11.1896 269.288 11.3518 268.557 11.0012 268.006C10.6506 267.456 9.91991 267.293 9.36913 267.644Z" fill="#FFD9EE"/>
<path d="M12.451 261.476C12.1004 260.925 11.3697 260.763 10.8189 261.114L9.82163 261.749C9.27086 262.099 8.54014 261.937 8.18954 261.386C7.83893 260.835 8.00121 260.105 8.55198 259.754L9.54925 259.119C10.1 258.769 10.2623 258.038 9.91169 257.487C9.56109 256.936 8.83037 256.774 8.2796 257.125L7.28233 257.76C5.63 258.811 5.14319 261.004 6.195 262.656C7.24682 264.308 9.43896 264.795 11.0913 263.743L12.0886 263.108C12.6393 262.758 12.8016 262.027 12.451 261.476Z" fill="#FFD9EE"/>
<path d="M15.4432 259.572C14.8924 259.923 14.7301 260.653 15.0807 261.204L16.3504 263.199C16.701 263.749 16.5387 264.48 15.9879 264.831L14.9907 265.466C14.4399 265.816 14.2776 266.547 14.6282 267.098C14.9788 267.648 15.7095 267.811 16.2603 267.46L17.2576 266.825C18.9099 265.773 19.3967 263.581 18.3449 261.929L17.0753 259.934C16.7247 259.384 15.9939 259.221 15.4432 259.572Z" fill="#FFD9EE"/>
<path d="M25.2859 257.511C25.2757 257.496 25.2595 257.488 25.2483 257.472C24.0245 255.747 22.6162 254.161 21.0482 252.741C18.6114 250.615 15.5433 249.347 12.316 249.135C5.55303 248.468 0.458308 249.492 -4.20591 252.462C-4.57291 252.695 -4.93754 252.941 -5.30607 253.201C-5.63472 253.436 -5.95002 253.691 -6.27232 253.935C-6.29525 253.95 -6.32246 253.949 -6.34539 253.964C-6.39405 254.003 -6.43918 254.046 -6.48029 254.093C-8.94735 256.02 -11.3036 258.084 -13.5376 260.277C-14.5284 261.221 -15.4477 262.238 -16.2878 263.318C-16.305 263.342 -16.3248 263.361 -16.3404 263.385C-17.6696 265.009 -18.6074 266.916 -19.0811 268.96C-19.4679 271.051 -19.4715 273.196 -19.0916 275.288C-19.0864 275.364 -19.0738 275.439 -19.054 275.512C-19.0167 275.718 -18.9951 275.922 -18.9509 276.128C-18.7283 277.153 -17.8933 279.528 -17.7885 279.827C-17.3025 281.086 -15.4244 285.265 -11.6342 286.224C-9.2294 286.832 -6.67537 285.996 -4.05155 283.751L-2.83112 282.705C2.9814 277.712 5.89868 275.206 10.3825 276.149C11.2448 276.331 12.127 276.515 13.0217 276.67C13.6501 279.042 15.5165 283.77 20.4395 284.14C25.7377 284.551 26.2017 285.28 27.3247 287.044C27.5434 287.392 27.927 287.601 28.3378 287.597C28.7486 287.592 29.1277 287.375 29.3391 287.023C29.5141 286.721 30.9888 283.994 28.1397 279.518C26.5812 277.07 27.0591 273.792 27.7464 270.894L27.7592 270.848C28.3094 269.555 28.6165 268.172 28.6653 266.767C28.6628 265.166 28.379 263.578 27.8268 262.075C27.8039 261.909 27.7455 261.75 27.6557 261.608C27.3645 260.875 27.0122 260.166 26.6024 259.492C26.1864 258.816 25.7493 258.162 25.2963 257.53C25.2933 257.524 25.2898 257.517 25.2859 257.511ZM26.1451 280.788C26.69 281.607 27.0977 282.509 27.352 283.459C26.1441 282.589 24.2963 282.069 20.6138 281.785C17.6876 281.563 16.2567 279.006 15.5812 277.001C18.4043 277.311 21.2499 276.665 23.662 275.166C24.0487 274.915 24.4224 274.646 24.7816 274.357C24.5205 276.592 24.9995 278.851 26.1451 280.788ZM26.3062 266.775C26.2741 268.266 25.8093 269.715 24.9682 270.945C23.513 272.7 21.5209 273.927 19.2993 274.436L18.4372 273.082C18.0866 272.531 18.2488 271.801 18.7996 271.45L21.7914 269.546C22.3422 269.195 22.5045 268.464 22.1539 267.913C21.8033 267.363 21.0725 267.2 20.5218 267.551L17.53 269.456C15.8776 270.507 15.3908 272.699 16.4426 274.352L16.6401 274.662C14.6949 274.563 12.7627 274.287 10.8675 273.838C8.96258 273.402 6.97176 273.529 5.13801 274.205L4.65554 273.447C4.30494 272.896 3.57422 272.734 3.02345 273.084C2.47267 273.435 2.3104 274.166 2.661 274.716L2.98857 275.231C0.371574 276.904 -2.09212 278.806 -4.37365 280.914L-5.59074 281.956C-6.13598 282.428 -6.72473 282.847 -7.34908 283.207L-7.67411 282.697C-8.02472 282.146 -8.75543 281.984 -9.30621 282.334C-9.85698 282.685 -10.0193 283.416 -9.66865 283.966L-9.63818 284.014C-10.1119 284.074 -10.5925 284.048 -11.0569 283.936C-12.0494 283.639 -12.9332 283.058 -13.5996 282.265L-12.5704 281.609C-10.9181 280.558 -10.4313 278.366 -11.4831 276.713C-11.8337 276.162 -12.5644 276 -13.1152 276.351C-13.6659 276.701 -13.8282 277.432 -13.4776 277.983C-13.127 278.534 -13.2893 279.264 -13.84 279.615L-14.958 280.327C-15.1907 279.901 -15.3962 279.461 -15.5733 279.01C-15.8032 278.36 -16.4078 276.598 -16.6077 275.771L-13.3875 273.721C-12.8368 273.371 -12.6745 272.64 -13.0251 272.089C-13.3757 271.539 -14.1064 271.376 -14.6572 271.727L-16.9689 273.198C-17.0641 271.932 -16.995 270.659 -16.7632 269.411C-16.5071 268.255 -16.0442 267.154 -15.3969 266.162L-14.5671 267.465C-13.5153 269.118 -11.3232 269.605 -9.67086 268.553C-9.12008 268.202 -8.95781 267.471 -9.30841 266.921C-9.65902 266.37 -10.3897 266.208 -10.9405 266.558C-11.4913 266.909 -12.222 266.747 -12.5726 266.196L-13.8994 264.111C-13.2692 263.365 -12.5995 262.654 -11.8932 261.98C-11.1527 261.267 -10.3878 260.549 -9.61389 259.836L-9.49074 260.03C-9.14013 260.581 -8.40942 260.743 -7.85865 260.392C-7.30787 260.042 -7.1456 259.311 -7.4962 258.76L-7.83076 258.235C-7.23006 257.712 -6.62328 257.197 -6.00445 256.701L-5.50167 257.491C-5.15106 258.041 -4.42035 258.204 -3.86957 257.853C-3.3188 257.502 -3.15653 256.772 -3.50713 256.221L-4.11529 255.265C-4.05247 255.225 -3.99626 255.173 -3.93697 255.13C-3.33716 254.711 -2.7378 254.33 -2.13155 253.979L0.39188 257.943C0.742485 258.494 1.4732 258.656 2.02397 258.305L4.01851 257.036C4.56928 256.685 4.73156 255.954 4.38095 255.404C4.03035 254.853 3.29963 254.691 2.74886 255.041L1.75159 255.676L0.00137624 252.927C1.9345 252.112 3.98424 251.607 6.07481 251.432C6.08941 251.455 6.0885 251.482 6.1031 251.505L8.00758 254.497C8.35818 255.047 9.0889 255.21 9.63967 254.859C10.1904 254.508 10.3527 253.778 10.0021 253.227L8.7896 251.322C9.71361 251.329 10.6704 251.371 11.6805 251.461L13.2663 253.952C13.6169 254.503 13.4546 255.233 12.9039 255.584C12.3531 255.934 12.1908 256.665 12.5414 257.216C12.892 257.767 13.6227 257.929 14.1735 257.578C15.8258 256.527 16.3127 254.334 15.2608 252.682L14.826 251.999C16.5475 252.466 18.1383 253.324 19.4748 254.505C20.5996 255.525 21.6319 256.643 22.5598 257.845L20.7019 259.028C20.1511 259.379 19.9888 260.109 20.3394 260.66C20.69 261.211 21.4208 261.373 21.9715 261.023L23.9451 259.766C24.1597 260.088 24.382 260.402 24.5865 260.734C24.8024 261.084 24.9772 261.443 25.152 261.801L23.2412 263.017C22.6904 263.368 22.5281 264.099 22.8787 264.649C23.2293 265.2 23.9601 265.362 24.5108 265.012L25.9708 264.082C26.1879 264.964 26.3005 265.868 26.3062 266.775Z" fill="#FFD9EE"/>
<path d="M216.261 134.237C216.899 131.4 217.111 128.484 216.89 125.578C216.54 121.95 214.985 118.513 212.457 115.781C207.525 110.205 202.453 107.281 196.028 106.304C192.627 105.848 189.2 105.632 185.774 105.658C180.939 105.617 177.24 106.509 174.465 108.385C172.262 109.887 170.407 111.812 169.011 114.043C168.412 115.029 167.879 116.052 167.416 117.105L167.264 117.433C166.89 118.163 166.444 118.856 165.933 119.503C165.628 119.919 165.321 120.335 165.041 120.771C164.695 121.247 164.483 121.803 164.425 122.385C164.455 123.316 164.83 124.209 165.481 124.904C165.897 125.453 166.166 125.834 166.111 126.121C166.041 126.261 165.951 126.391 165.845 126.508C164.101 128.767 162.107 130.834 159.896 132.671C158.979 133.393 157.997 134.253 157.946 135.317C158.013 136.147 158.415 136.922 159.065 137.475C159.36 137.77 159.679 138.043 160.02 138.289C160.42 138.598 161.091 139.115 161.085 139.388C161.084 139.736 160.975 140.074 160.772 140.359C160.555 140.638 160.345 140.875 160.159 141.08C159.649 141.648 158.796 142.601 159.593 143.568C159.778 143.802 160.101 144.169 160.397 144.497C160.051 144.881 159.834 145.359 159.774 145.868C159.751 146.268 159.9 146.662 160.186 146.958C160.385 147.163 160.603 147.353 160.821 147.533C161.36 147.989 161.564 148.193 161.588 148.517C161.561 148.933 161.44 149.337 161.232 149.7C161.119 149.949 161.009 150.198 160.92 150.451C160.632 151.334 160.565 152.273 160.725 153.192C160.875 155.189 162.617 156.744 164.686 156.73C167.769 156.642 170.843 156.393 173.894 155.984C175.945 157.774 176.602 162.063 176.68 163.639C176.703 164.106 177.053 164.503 177.528 164.599L203.429 169.773C203.755 169.839 204.093 169.751 204.338 169.537C204.583 169.323 204.707 169.008 204.672 168.687C204.554 167.957 204.329 167.245 204.006 166.573C203.831 166.186 203.681 165.789 203.56 165.385C203.28 164.374 203.083 163.344 202.97 162.306C202.77 160.267 202.762 158.217 202.946 156.181C203.182 153.135 204.258 150.217 206.062 147.729C207.133 146.367 208.361 145.128 209.725 144.036C210.507 143.354 211.323 142.65 212.081 141.885C214.202 139.78 215.651 137.128 216.261 134.237ZM208.308 142.525C206.826 143.718 205.492 145.071 204.332 146.56C202.315 149.343 201.113 152.607 200.849 156.014C200.653 158.17 200.661 160.341 200.873 162.501C200.998 163.642 201.214 164.772 201.52 165.883C201.664 166.375 201.843 166.858 202.055 167.327L202.107 167.451L178.709 162.778C178.5 160.28 177.695 157.855 176.359 155.692C176.64 155.657 176.91 155.625 177.154 155.592C177.989 155.487 178.62 155.407 178.933 155.377C183.626 154.935 186.229 153.446 186.672 150.952C186.748 150.405 186.373 149.888 185.812 149.767C185.538 149.718 185.255 149.776 185.028 149.929C184.801 150.082 184.646 150.316 184.6 150.581C184.417 151.61 183.245 152.927 178.698 153.355C178.369 153.386 177.718 153.467 176.851 153.578C176.065 153.678 175.101 153.799 174.048 153.924C170.938 154.348 167.804 154.61 164.66 154.707C163.657 154.691 162.836 153.911 162.801 152.942C162.691 152.339 162.728 151.721 162.908 151.138C162.977 150.938 163.067 150.742 163.157 150.545C163.508 149.898 163.689 149.175 163.684 148.44C163.573 147.468 163.029 146.584 162.194 146.021L161.998 145.854C162.152 145.66 162.327 145.481 162.518 145.319C162.732 145.143 162.862 144.889 162.879 144.616C162.895 144.342 162.797 144.073 162.606 143.868C162.394 143.641 161.89 143.096 161.533 142.683C161.605 142.601 161.685 142.507 161.758 142.429C161.971 142.192 162.215 141.918 162.463 141.599C162.933 140.97 163.188 140.213 163.19 139.432C163.197 138.164 162.114 137.326 161.314 136.712C161.042 136.515 160.788 136.296 160.553 136.059C160.368 135.872 160.198 135.673 160.042 135.463C160.073 135.314 160.311 134.983 161.293 134.21C163.6 132.294 165.681 130.138 167.501 127.782C167.832 127.422 168.065 126.987 168.178 126.517C168.276 125.495 167.908 124.476 167.17 123.726C166.832 123.274 166.505 122.846 166.522 122.531C166.575 122.291 166.679 122.065 166.828 121.868C167.085 121.471 167.368 121.088 167.65 120.704C168.24 119.953 168.752 119.147 169.18 118.299L169.334 117.969C169.761 116.993 170.252 116.046 170.806 115.133C172.053 113.131 173.713 111.404 175.685 110.055C178.094 108.432 181.4 107.653 185.785 107.69C189.109 107.663 192.433 107.871 195.731 108.311C201.627 109.195 206.291 111.913 210.864 117.09C213.111 119.486 214.491 122.518 214.793 125.719C214.997 128.428 214.799 131.146 214.204 133.79C213.673 136.318 212.407 138.638 210.553 140.479C209.847 141.186 209.063 141.867 208.305 142.525L208.308 142.525Z" fill="#FFD9EE"/>
<path d="M182.417 121.103L183.448 121.312C184.018 121.427 184.57 121.076 184.681 120.527C184.792 119.978 184.421 119.439 183.851 119.324L182.82 119.115C181.111 118.769 179.455 119.823 179.122 121.47L178.92 122.464C178.587 124.111 179.702 125.727 181.41 126.073L182.442 126.282C183.011 126.397 183.563 126.046 183.674 125.497C183.786 124.948 183.414 124.409 182.844 124.294L181.813 124.085C181.243 123.969 180.872 123.431 180.983 122.882L181.184 121.888C181.295 121.339 181.847 120.988 182.417 121.103Z" fill="#FFD9EE"/>
<path d="M190.24 119.584C189.671 119.468 189.119 119.82 189.007 120.369L188.605 122.357C188.494 122.906 187.942 123.257 187.372 123.142L186.341 122.933C185.771 122.817 185.219 123.169 185.108 123.718C184.997 124.267 185.369 124.805 185.938 124.921L186.969 125.13C188.678 125.476 190.334 124.421 190.667 122.774L191.07 120.786C191.181 120.238 190.81 119.699 190.24 119.584Z" fill="#FFD9EE"/>
<path d="M194.366 120.42L194.567 119.426C194.901 117.78 193.786 116.164 192.077 115.818L190.014 115.4C188.306 115.054 186.65 116.108 186.316 117.755L186.115 118.749C186.004 119.298 186.376 119.837 186.945 119.952C187.515 120.068 188.067 119.716 188.178 119.167L188.379 118.173C188.49 117.624 189.042 117.273 189.612 117.388L191.674 117.806C192.244 117.921 192.616 118.46 192.504 119.009L192.303 120.003C192.192 120.552 192.564 121.09 193.133 121.206C193.703 121.321 194.255 120.969 194.366 120.42Z" fill="#FFD9EE"/>
<path d="M196.05 128.005L195.019 127.796C194.449 127.681 194.078 127.142 194.189 126.593L194.39 125.599C194.501 125.05 194.13 124.512 193.56 124.396C192.991 124.281 192.439 124.633 192.327 125.181L192.126 126.175C191.793 127.822 192.907 129.438 194.616 129.784L195.648 129.993C196.217 130.108 196.769 129.757 196.88 129.208C196.991 128.659 196.62 128.12 196.05 128.005Z" fill="#FFD9EE"/>
<path d="M201.811 126.065C201.922 125.516 201.551 124.978 200.981 124.862L199.95 124.653C199.38 124.538 199.009 123.999 199.12 123.45C199.231 122.902 199.783 122.55 200.353 122.665L201.384 122.874C201.953 122.99 202.505 122.638 202.616 122.089C202.728 121.54 202.356 121.002 201.786 120.886L200.755 120.677C199.046 120.331 197.391 121.386 197.057 123.033C196.724 124.68 197.838 126.295 199.547 126.641L200.579 126.85C201.148 126.966 201.7 126.614 201.811 126.065Z" fill="#FFD9EE"/>
<path d="M204.905 126.693C204.336 126.578 203.784 126.929 203.672 127.478L203.27 129.466C203.159 130.015 202.607 130.366 202.037 130.251L201.006 130.042C200.436 129.927 199.884 130.278 199.773 130.827C199.662 131.376 200.034 131.915 200.603 132.03L201.635 132.239C203.343 132.585 204.999 131.531 205.333 129.884L205.735 127.896C205.846 127.347 205.475 126.808 204.905 126.693Z" fill="#FFD9EE"/>
<path d="M212.511 131.339C212.514 131.323 212.508 131.308 212.511 131.292C212.778 129.497 212.841 127.677 212.7 125.863C212.431 123.093 211.229 120.472 209.279 118.403C205.329 113.931 201.418 111.501 196.595 110.524C196.215 110.447 195.829 110.38 195.433 110.318C195.078 110.265 194.718 110.232 194.361 110.189C194.337 110.184 194.32 110.167 194.296 110.162C194.241 110.157 194.185 110.157 194.13 110.161C191.361 109.863 188.578 109.716 185.796 109.722C184.58 109.707 183.365 109.779 182.162 109.939C182.137 109.943 182.112 109.943 182.087 109.948C180.237 110.147 178.465 110.756 176.908 111.727C175.379 112.78 174.064 114.095 173.028 115.609C172.985 115.659 172.947 115.713 172.915 115.769C172.813 115.918 172.702 116.056 172.605 116.209C172.12 116.973 171.205 118.934 171.089 119.181C170.632 120.246 169.284 123.941 171.14 126.807C172.318 128.624 174.475 129.645 177.54 129.842L178.967 129.932C185.77 130.355 189.184 130.567 191.497 133.84C191.941 134.469 192.397 135.112 192.879 135.744C191.832 137.579 190.141 141.605 193.087 144.789C196.25 148.223 196.103 148.95 195.747 150.708C195.675 151.053 195.794 151.412 196.061 151.656C196.329 151.9 196.706 151.994 197.058 151.905C197.356 151.824 199.975 151.035 200.879 146.574C201.373 144.133 203.688 142.407 205.905 141.039L205.941 141.018C207.087 140.554 208.132 139.889 209.023 139.055C210.001 138.07 210.791 136.924 211.355 135.669C211.442 135.553 211.501 135.42 211.53 135.279C211.792 134.653 211.998 134.007 212.147 133.346C212.293 132.681 212.411 132.017 212.506 131.356C212.508 131.351 212.51 131.345 212.511 131.339ZM198.816 146.156C198.666 146.986 198.377 147.785 197.959 148.522C197.713 147.262 196.841 145.832 194.641 143.447C192.891 141.553 193.534 139.123 194.326 137.485C195.955 139.371 198.185 140.683 200.657 141.21C201.06 141.289 201.466 141.347 201.874 141.386C200.337 142.602 199.263 144.278 198.816 146.156ZM207.498 137.643C206.565 138.54 205.378 139.151 204.083 139.402C202.071 139.606 200.036 139.163 198.292 138.142L198.565 136.792C198.677 136.243 199.228 135.892 199.798 136.007L202.892 136.634C203.462 136.749 204.014 136.398 204.125 135.849C204.236 135.3 203.864 134.761 203.295 134.646L200.201 134.019C198.492 133.673 196.836 134.728 196.503 136.375L196.44 136.684C195.247 135.455 194.171 134.125 193.224 132.711C192.264 131.298 190.902 130.181 189.307 129.495L189.46 128.74C189.571 128.191 189.2 127.652 188.63 127.537C188.06 127.421 187.508 127.773 187.397 128.322L187.293 128.835C184.582 128.291 181.831 127.98 179.07 127.905L177.647 127.814C177.007 127.777 176.371 127.68 175.748 127.527L175.851 127.018C175.962 126.469 175.591 125.931 175.021 125.815C174.452 125.7 173.9 126.051 173.789 126.6L173.779 126.648C173.437 126.4 173.143 126.095 172.912 125.748C172.455 124.969 172.241 124.081 172.297 123.194L173.361 123.409C175.07 123.756 176.726 122.701 177.059 121.054C177.17 120.505 176.799 119.967 176.229 119.851C175.66 119.736 175.108 120.087 174.997 120.636C174.885 121.185 174.333 121.537 173.764 121.421L172.608 121.187C172.718 120.786 172.855 120.393 173.017 120.009C173.267 119.472 173.956 118.026 174.333 117.398L177.663 118.072C178.233 118.188 178.785 117.836 178.896 117.287C179.007 116.738 178.635 116.2 178.066 116.084L175.675 115.6C176.389 114.765 177.212 114.024 178.126 113.397C178.999 112.84 179.971 112.442 180.996 112.221L180.732 113.52C180.399 115.167 181.514 116.783 183.222 117.129C183.792 117.244 184.344 116.893 184.455 116.344C184.566 115.795 184.195 115.256 183.625 115.141C183.056 115.025 182.684 114.487 182.795 113.938L183.216 111.86C184.079 111.781 184.946 111.746 185.814 111.755C186.727 111.762 187.66 111.781 188.595 111.808L188.556 112C188.445 112.549 188.816 113.088 189.386 113.203C189.955 113.319 190.507 112.967 190.618 112.418L190.725 111.894C191.432 111.934 192.138 111.982 192.841 112.049L192.681 112.836C192.57 113.385 192.942 113.923 193.511 114.039C194.081 114.154 194.633 113.803 194.744 113.254L194.937 112.301C195.002 112.315 195.07 112.316 195.135 112.325C195.777 112.428 196.397 112.554 197.003 112.702L196.202 116.653C196.091 117.202 196.463 117.741 197.033 117.856L199.095 118.274C199.665 118.389 200.217 118.038 200.328 117.489C200.439 116.94 200.067 116.401 199.498 116.286L198.466 116.077L199.022 113.337C200.766 113.997 202.396 114.918 203.851 116.066C203.846 116.089 203.829 116.105 203.824 116.128L203.221 119.11C203.109 119.659 203.481 120.197 204.051 120.312C204.62 120.428 205.172 120.076 205.283 119.527L205.668 117.629C206.259 118.188 206.85 118.788 207.446 119.45L206.943 121.933C206.832 122.482 206.28 122.834 205.711 122.718C205.141 122.603 204.589 122.954 204.478 123.503C204.367 124.052 204.738 124.591 205.308 124.706C207.017 125.052 208.672 123.998 209.006 122.351L209.144 121.67C209.967 122.991 210.468 124.473 210.606 126.002C210.706 127.304 210.687 128.611 210.549 129.907L208.628 129.518C208.058 129.402 207.507 129.754 207.395 130.303C207.284 130.852 207.656 131.39 208.225 131.506L210.266 131.919C210.208 132.245 210.159 132.572 210.087 132.899C210.012 133.244 209.905 133.569 209.799 133.894L207.823 133.494C207.253 133.378 206.701 133.73 206.59 134.279C206.479 134.828 206.85 135.366 207.42 135.481L208.93 135.787C208.53 136.459 208.05 137.082 207.498 137.643Z" fill="#FFD9EE"/>
<path d="M985.827 -11.5293C983.952 -15.6045 981.482 -19.3787 978.49 -22.7364C974.663 -26.8572 969.536 -29.6152 963.877 -30.5972C952.608 -32.8157 943.65 -31.6508 934.857 -26.8326C930.26 -24.2062 925.855 -21.2612 921.678 -18.0208C915.711 -13.5427 912.01 -8.98468 910.364 -4.0854C909.07 -0.180857 908.597 3.91773 908.975 7.95948C909.163 9.72988 909.468 11.4833 909.887 13.2089L910.007 13.7527C910.233 14.9984 910.335 16.2657 910.314 17.5374C910.329 18.3338 910.343 19.131 910.407 19.9279C910.43 20.8358 910.691 21.716 911.164 22.4847C912.073 23.5975 913.369 24.3424 914.818 24.5835C915.843 24.8683 916.529 25.0831 916.73 25.4863C916.775 25.724 916.787 25.9674 916.766 26.2101C916.744 30.6137 916.234 35.0159 915.244 39.3395C914.795 41.0833 914.397 43.0568 915.331 44.4105C916.19 45.3651 917.408 45.9393 918.723 46.0083C919.362 46.0942 920.009 46.129 920.657 46.1125C921.437 46.1162 922.744 46.121 922.993 46.4613C923.318 46.8892 923.501 47.4066 923.518 47.9461C923.513 48.491 923.478 48.9781 923.441 49.4047C923.349 50.5786 923.195 52.5463 925.078 52.9848C925.524 53.0989 926.263 53.2458 926.934 53.3704C926.87 54.1659 927.051 54.9549 927.453 55.6355C927.801 56.148 928.352 56.492 928.979 56.5869C929.415 56.6517 929.86 56.6805 930.297 56.698C931.385 56.7522 931.826 56.8106 932.158 57.1852C932.516 57.7202 932.745 58.3294 932.83 58.969C932.926 59.3803 933.023 59.7888 933.151 60.1824C933.625 61.5344 934.423 62.7486 935.478 63.7263C937.533 66.0341 941.125 66.3106 943.649 64.3551C947.348 61.3595 950.884 58.1755 954.243 54.8169C958.434 55.0904 963.257 59.7354 964.828 61.5937C965.294 62.1454 966.094 62.3037 966.767 61.977L1003.37 44.0653C1003.83 43.8392 1004.17 43.4158 1004.27 42.9238C1004.37 42.4318 1004.22 41.9293 1003.88 41.5692C1003.05 40.7846 1002.11 40.1217 1001.08 39.6C1000.51 39.2903 999.952 38.9432 999.424 38.561C998.134 37.5829 996.928 36.5052 995.817 35.3378C993.662 33.0244 991.732 30.5183 990.051 27.8505C987.488 23.8935 986.075 19.3077 985.957 14.568C985.994 11.8941 986.34 9.22399 986.99 6.60892C987.31 5.03885 987.651 3.41163 987.865 1.76438C988.494 -2.80273 987.787 -7.41296 985.827 -11.5293ZM983.837 6.0831C983.137 8.93315 982.769 11.8426 982.741 14.755C982.874 20.0558 984.457 25.1843 987.325 29.6091C989.103 32.4361 991.146 35.091 993.429 37.5408C994.65 38.8224 995.974 40.0067 997.389 41.0827C998.027 41.5508 998.698 41.975 999.398 42.3525L999.578 42.4548L966.509 58.6383C963.913 55.7714 960.656 53.5505 956.992 52.1497C957.303 51.8434 957.604 51.5527 957.872 51.2833C958.798 50.3723 959.497 49.6827 959.853 49.3531C965.193 44.4161 966.991 40.1527 965.199 36.6796C964.779 35.9374 963.835 35.6545 963.035 36.0314C962.652 36.2285 962.36 36.5641 962.224 36.9643C962.088 37.3645 962.119 37.7965 962.31 38.1653C963.05 39.5979 962.846 42.3101 957.671 47.0943C957.297 47.4395 956.575 48.1489 955.615 49.0974C954.745 49.9552 953.676 51.0069 952.502 52.1464C949.086 55.5795 945.487 58.8351 941.723 61.8989C940.478 62.818 938.741 62.6307 937.791 61.475C937.091 60.8382 936.558 60.0469 936.232 59.1634C936.13 58.8529 936.057 58.5282 935.982 58.2029C935.807 57.0805 935.352 56.025 934.657 55.1285C933.61 54.04 932.116 53.4664 930.565 53.5577L930.168 53.5365C930.175 53.1532 930.221 52.7703 930.304 52.3935C930.402 51.9764 930.324 51.5434 930.088 51.1927C929.853 50.842 929.479 50.6035 929.053 50.5313C928.58 50.4511 927.452 50.2547 926.628 50.0826C926.639 49.9156 926.649 49.7245 926.666 49.5616C926.705 49.0709 926.747 48.5062 926.752 47.8824C926.741 46.6712 926.344 45.5045 925.616 44.5445C924.436 42.983 922.323 42.9697 920.767 42.9671C920.249 42.9795 919.732 42.9497 919.222 42.8778C918.821 42.822 918.425 42.7376 918.038 42.6253C917.935 42.4141 917.918 41.7855 918.399 39.9181C919.432 35.4077 919.966 30.8152 919.99 26.2211C920.06 25.47 919.938 24.7191 919.636 24.0359C918.798 22.6915 917.393 21.7868 915.786 21.5571C914.949 21.3203 914.146 21.1017 913.873 20.6987C913.713 20.3554 913.629 19.9811 913.627 19.6C913.57 18.8727 913.557 18.1376 913.545 17.4025C913.565 15.9292 913.439 14.4616 913.168 13.0203L913.048 12.4717C912.657 10.8754 912.373 9.25323 912.196 7.61528C911.851 3.99369 912.269 0.319854 913.425 -3.18077C914.858 -7.42665 918.182 -11.478 923.594 -15.5406C927.644 -18.6855 931.915 -21.5439 936.373 -24.093C944.43 -28.531 952.695 -29.5659 963.151 -27.5005C968.15 -26.6663 972.682 -24.2414 976.05 -20.5989C978.838 -17.4683 981.14 -13.9497 982.886 -10.1506C984.603 -6.55285 985.223 -2.52201 984.673 1.47129C984.471 3.00008 984.146 4.56875 983.833 6.08523L983.837 6.0831Z" fill="#FFD9EE"/>
<path d="M932.026 4.06253L933.486 3.35278C934.293 2.9608 934.64 2.01292 934.262 1.23563C933.885 0.458347 932.925 0.145995 932.118 0.537976L930.658 1.24772C928.238 2.42366 927.196 5.2673 928.329 7.59916L929.013 9.00657C930.146 11.3384 933.027 12.2755 935.446 11.0995L936.906 10.3898C937.713 9.99782 938.06 9.04994 937.683 8.27265C937.305 7.49536 936.345 7.18301 935.538 7.57499L934.078 8.28474C933.271 8.67672 932.311 8.36436 931.934 7.58708L931.25 6.17967C930.872 5.40239 931.219 4.45451 932.026 4.06253Z" fill="#FFD9EE"/>
<path d="M940.196 -5.12804C939.39 -4.73606 939.042 -3.78818 939.42 -3.01089L940.788 -0.196085C941.166 0.581203 940.818 1.52908 940.012 1.92106L938.551 2.63081C937.745 3.02279 937.397 3.97067 937.775 4.74796C938.153 5.52524 939.113 5.83759 939.919 5.44561L941.38 4.73587C943.799 3.55993 944.842 0.716289 943.709 -1.61557L942.341 -4.43038C941.963 -5.20767 941.003 -5.52002 940.196 -5.12804Z" fill="#FFD9EE"/>
<path d="M955.207 -0.24372L953.747 0.466024C952.94 0.858005 951.98 0.545652 951.603 -0.231635L950.919 -1.63904C950.541 -2.41633 949.581 -2.72868 948.774 -2.3367C947.968 -1.94472 947.62 -0.996837 947.998 -0.21955L948.682 1.18785C949.815 3.51972 952.696 4.45677 955.115 3.28083L956.575 2.57109C957.382 2.17911 957.729 1.23123 957.352 0.453939C956.974 -0.323349 956.014 -0.635701 955.207 -0.24372Z" fill="#FFD9EE"/>
<path d="M964.837 -10.1437C964.031 -9.75168 963.683 -8.8038 964.061 -8.02652L965.429 -5.21171C965.807 -4.43442 965.459 -3.48654 964.653 -3.09456L963.193 -2.38482C962.386 -1.99284 962.038 -1.04496 962.416 -0.26767C962.794 0.509617 963.754 0.82197 964.561 0.429989L966.021 -0.279755C968.44 -1.4557 969.483 -4.29934 968.35 -6.6312L966.982 -9.44601C966.604 -10.2233 965.644 -10.5356 964.837 -10.1437Z" fill="#FFD9EE"/>
<path d="M978.513 -11.5721C978.502 -11.5946 978.482 -11.6072 978.469 -11.629C977.116 -14.0803 975.489 -16.3721 973.616 -18.4639C970.693 -21.6089 966.764 -23.6975 962.436 -24.4084C953.404 -26.1917 946.332 -25.509 939.503 -22.1895C938.965 -21.9283 938.429 -21.6502 937.885 -21.3545C937.399 -21.0871 936.928 -20.7902 936.449 -20.5088C936.415 -20.4924 936.379 -20.4973 936.345 -20.4809C936.272 -20.4355 936.204 -20.3841 936.14 -20.3273C932.465 -18.0989 928.916 -15.6728 925.51 -13.0606C924.004 -11.9395 922.582 -10.7129 921.256 -9.39101C921.229 -9.36202 921.199 -9.33866 921.173 -9.30897C919.091 -7.33192 917.488 -4.9259 916.489 -2.27721C915.599 0.446026 915.219 3.29032 915.366 6.11708C915.36 6.21827 915.364 6.31953 915.378 6.41942C915.392 6.69778 915.386 6.97058 915.409 7.24962C915.531 8.63988 916.244 11.9016 916.334 12.3123C916.771 14.0468 918.579 19.8403 923.538 21.6161C926.685 22.7417 930.286 21.9727 934.229 19.343L936.063 18.1175C944.801 12.2648 949.187 9.32775 955.087 11.1751C956.222 11.5301 957.383 11.8913 958.566 12.2158C959 15.4461 960.697 21.9673 967.292 23.1117C974.387 24.3608 974.887 25.3897 976.097 27.8794C976.332 28.3698 976.814 28.6984 977.37 28.7473C977.927 28.7961 978.478 28.5583 978.826 28.119C979.115 27.7417 981.588 24.3198 978.518 18.0034C976.839 14.5482 978.059 10.2628 979.497 6.50893L979.522 6.44964C980.493 4.80751 981.151 3.01325 981.463 1.15677C981.74 -0.967656 981.634 -3.11235 981.151 -5.17948C981.149 -5.40293 981.098 -5.62198 981.001 -5.82179C980.736 -6.83412 980.383 -7.82038 979.947 -8.77017C979.503 -9.72163 979.026 -10.6469 978.524 -11.546C978.521 -11.555 978.518 -11.5637 978.513 -11.5721ZM975.597 19.4228C976.191 20.5814 976.584 21.8323 976.762 23.1264C975.28 21.8126 972.872 20.8762 967.94 20.011C964.021 19.327 962.533 15.7458 961.97 12.9952C965.735 13.782 969.698 13.3026 973.223 11.6338C973.79 11.3532 974.343 11.0451 974.879 10.7105C974.135 13.6409 974.387 16.7014 975.597 19.4228ZM978.27 0.853817C977.966 2.82688 977.083 4.68738 975.73 6.20861C973.454 8.34277 970.544 9.70565 967.449 10.087L966.52 8.17571C966.143 7.39842 966.49 6.45054 967.297 6.05856L971.677 3.92933C972.484 3.53735 972.832 2.58947 972.454 1.81218C972.076 1.03489 971.116 0.722537 970.309 1.11452L965.929 3.24375C963.509 4.41969 962.466 7.26333 963.6 9.5952L963.812 10.0329C961.198 9.64327 958.633 9.02078 956.148 8.17313C953.647 7.34087 950.932 7.2454 948.333 7.89836L947.813 6.82873C947.435 6.05144 946.475 5.73909 945.669 6.13107C944.862 6.52305 944.515 7.47093 944.893 8.24822L945.246 8.97444C941.412 10.8468 937.746 13.0425 934.29 15.536L932.461 16.7572C931.641 17.3106 930.771 17.7881 929.864 18.1834L929.513 17.4628C929.136 16.6855 928.175 16.3732 927.369 16.7652C926.562 17.1571 926.215 18.105 926.593 18.8823L926.626 18.9499C925.974 18.9661 925.329 18.8673 924.72 18.6581C923.43 18.1317 922.336 17.2433 921.573 16.1023L923.08 15.3698C925.5 14.1939 926.542 11.3503 925.409 9.01839C925.031 8.24111 924.071 7.92875 923.265 8.32073C922.458 8.71272 922.111 9.66059 922.488 10.4379C922.866 11.2152 922.519 12.163 921.712 12.555L920.075 13.3507C919.835 12.7553 919.634 12.1446 919.474 11.5222C919.276 10.6298 918.767 8.21176 918.642 7.08795L923.357 4.79618C924.163 4.4042 924.511 3.45632 924.133 2.67903C923.755 1.90175 922.795 1.58939 921.989 1.98138L918.604 3.62656C918.697 1.93438 919.013 0.25473 919.546 -1.37045C920.095 -2.8708 920.914 -4.26971 921.963 -5.4998L922.857 -3.66032C923.991 -1.32846 926.871 -0.391403 929.29 -1.56735C930.097 -1.95933 930.444 -2.90721 930.067 -3.68449C929.689 -4.46178 928.729 -4.77413 927.922 -4.38215C927.116 -3.99017 926.156 -4.30252 925.778 -5.07981L924.348 -8.02128C925.332 -8.92724 926.362 -9.78243 927.436 -10.5832C928.562 -11.43 929.723 -12.2811 930.895 -13.1238L931.027 -12.8507C931.405 -12.0735 932.365 -11.7611 933.172 -12.1531C933.978 -12.5451 934.326 -13.4929 933.948 -14.2702L933.587 -15.0119C934.492 -15.6254 935.403 -16.2282 936.327 -16.8044L936.869 -15.6897C937.246 -14.9124 938.206 -14.6001 939.013 -14.9921C939.819 -15.384 940.167 -16.3319 939.789 -17.1092L939.134 -18.4575C939.226 -18.5022 939.311 -18.5645 939.399 -18.6142C940.284 -19.0894 941.161 -19.5159 942.043 -19.9009L944.762 -14.3065C945.14 -13.5292 946.1 -13.2168 946.906 -13.6088L949.827 -15.0283C950.633 -15.4203 950.981 -16.3682 950.603 -17.1455C950.225 -17.9228 949.265 -18.2351 948.459 -17.8431L946.998 -17.1334L945.113 -21.0136C947.87 -21.8381 950.732 -22.2352 953.59 -22.1902C953.606 -22.1578 953.6 -22.1219 953.616 -22.0895L955.668 -17.8673C956.046 -17.09 957.006 -16.7777 957.812 -17.1696C958.619 -17.5616 958.966 -18.5095 958.589 -19.2868L957.282 -21.9749C958.531 -21.8424 959.818 -21.6606 961.169 -21.4072L962.877 -17.8915C963.255 -17.1142 962.907 -16.1663 962.101 -15.7743C961.294 -15.3823 960.947 -14.4345 961.325 -13.6572C961.702 -12.8799 962.663 -12.5675 963.469 -12.9595C965.889 -14.1355 966.931 -16.9791 965.798 -19.311L965.329 -20.275C967.576 -19.4266 969.578 -18.0776 971.179 -16.3327C972.522 -14.8295 973.722 -13.2093 974.767 -11.4911L972.046 -10.1689C971.24 -9.7769 970.892 -8.82902 971.27 -8.05173C971.648 -7.27444 972.608 -6.96209 973.414 -7.35407L976.304 -8.75866C976.538 -8.3034 976.784 -7.85736 977.002 -7.38936C977.233 -6.89604 977.407 -6.39759 977.58 -5.89914L974.783 -4.53927C973.976 -4.14729 973.628 -3.1994 974.006 -2.42212C974.384 -1.64483 975.344 -1.33248 976.151 -1.72446L978.288 -2.76353C978.428 -1.56535 978.422 -0.351202 978.27 0.853817Z" fill="#FFD9EE"/>
<path d="M612.864 286.11C611.486 281.841 609.48 277.801 606.907 274.112C603.594 269.567 598.83 266.221 593.328 264.576C582.402 261.038 573.368 261.133 564.066 264.876C559.19 266.939 554.468 269.342 549.936 272.064C543.48 275.804 539.266 279.892 537.051 284.561C535.303 288.285 534.349 292.299 534.245 296.357C534.222 298.137 534.317 299.914 534.529 301.677L534.584 302.232C534.66 303.495 534.612 304.766 534.44 306.026C534.361 306.819 534.28 307.612 534.249 308.411C534.164 309.315 534.319 310.22 534.698 311.039C535.468 312.252 536.667 313.145 538.078 313.556C539.062 313.96 539.717 314.255 539.869 314.679C539.886 314.92 539.869 315.163 539.819 315.402C539.276 319.772 538.248 324.083 536.752 328.259C536.1 329.937 535.471 331.849 536.238 333.304C536.977 334.354 538.12 335.068 539.417 335.293C540.042 335.454 540.679 335.565 541.325 335.625C542.099 335.721 543.396 335.881 543.603 336.248C543.875 336.712 543.995 337.247 543.948 337.785C543.879 338.325 543.786 338.805 543.699 339.224C543.469 340.379 543.083 342.314 544.901 342.973C545.33 343.139 546.046 343.372 546.698 343.576C546.54 344.358 546.626 345.163 546.945 345.886C547.229 346.436 547.736 346.843 548.347 347.012C548.773 347.128 549.212 347.209 549.643 347.278C550.716 347.461 551.148 347.571 551.433 347.982C551.725 348.556 551.881 349.188 551.889 349.833C551.935 350.253 551.984 350.67 552.064 351.076C552.375 352.475 553.023 353.775 553.955 354.871C555.722 357.406 559.256 358.106 561.994 356.463C566.022 353.927 569.91 351.184 573.643 348.247C577.772 349.015 582.011 354.199 583.351 356.23C583.748 356.833 584.524 357.085 585.231 356.84L623.701 343.391C624.186 343.222 624.565 342.84 624.723 342.364C624.88 341.887 624.798 341.371 624.5 340.973C623.77 340.096 622.914 339.326 621.957 338.686C621.42 338.31 620.911 337.9 620.431 337.458C619.267 336.334 618.197 335.121 617.232 333.83C615.366 331.278 613.747 328.561 612.394 325.713C610.318 321.48 609.457 316.759 609.902 312.039C610.255 309.388 610.915 306.778 611.87 304.258C612.374 302.737 612.906 301.161 613.313 299.551C614.479 295.091 614.323 290.429 612.864 286.11ZM608.802 303.362C607.769 306.109 607.059 308.955 606.686 311.843C606.191 317.123 607.155 322.402 609.478 327.136C610.909 330.154 612.623 333.032 614.6 335.735C615.661 337.152 616.835 338.485 618.112 339.721C618.69 340.261 619.307 340.762 619.957 341.22L620.123 341.343L585.37 353.495C583.132 350.34 580.161 347.749 576.689 345.924C577.034 345.657 577.368 345.404 577.666 345.168C578.693 344.373 579.469 343.772 579.861 343.486C585.748 339.217 588.039 335.196 586.67 331.535C586.342 330.749 585.438 330.356 584.599 330.635C584.195 330.786 583.866 331.084 583.683 331.466C583.501 331.847 583.48 332.28 583.626 332.668C584.191 334.178 583.667 336.848 577.961 340.985C577.549 341.283 576.748 341.902 575.683 342.73C574.717 343.479 573.532 344.397 572.231 345.389C568.432 348.393 564.473 351.2 560.372 353.796C559.027 354.561 557.324 354.169 556.518 352.909C555.899 352.194 555.463 351.345 555.244 350.429C555.179 350.109 555.145 349.778 555.109 349.446C555.069 348.311 554.742 347.209 554.158 346.236C553.248 345.031 551.831 344.285 550.281 344.192L549.89 344.124C549.942 343.744 550.033 343.369 550.16 343.005C550.306 342.602 550.28 342.163 550.088 341.787C549.895 341.411 549.553 341.13 549.138 341.007C548.678 340.872 547.581 340.543 546.784 340.275C546.814 340.11 546.847 339.922 546.883 339.762C546.98 339.279 547.088 338.723 547.168 338.105C547.3 336.901 547.044 335.695 546.434 334.656C545.448 332.965 543.351 332.702 541.807 332.515C541.291 332.466 540.781 332.375 540.283 332.243C539.891 332.14 539.508 332.01 539.137 331.852C539.06 331.63 539.118 331.004 539.817 329.207C541.377 324.851 542.451 320.354 543.019 315.795C543.177 315.057 543.145 314.297 542.926 313.583C542.254 312.149 540.966 311.084 539.397 310.666C538.594 310.331 537.823 310.019 537.599 309.587C537.481 309.227 537.442 308.845 537.485 308.467C537.515 307.738 537.589 307.006 537.664 306.275C537.858 304.814 537.907 303.342 537.809 301.879L537.754 301.32C537.556 299.688 537.466 298.044 537.484 296.397C537.571 292.76 538.421 289.161 539.983 285.822C541.909 281.776 545.69 278.147 551.545 274.754C555.939 272.111 560.519 269.779 565.247 267.776C573.773 264.324 582.102 264.275 592.24 267.565C597.105 268.985 601.318 271.93 604.231 275.946C606.628 279.385 608.497 283.151 609.781 287.13C611.06 290.906 611.198 294.982 610.179 298.882C609.796 300.376 609.288 301.895 608.797 303.364L608.802 303.362Z" fill="#FFD9EE"/>
<path d="M557.595 295.219L559.129 294.687C559.976 294.394 560.434 293.494 560.151 292.677C559.868 291.861 558.951 291.437 558.104 291.73L556.57 292.262C554.028 293.143 552.656 295.843 553.505 298.293L554.018 299.772C554.867 302.221 557.616 303.493 560.157 302.612L561.692 302.08C562.539 301.786 562.996 300.886 562.713 300.07C562.43 299.253 561.514 298.829 560.667 299.123L559.133 299.655C558.285 299.948 557.369 299.525 557.086 298.708L556.573 297.23C556.29 296.413 556.748 295.513 557.595 295.219Z" fill="#FFD9EE"/>
<path d="M566.797 287.06C565.949 287.354 565.492 288.254 565.775 289.071L566.8 292.028C567.083 292.844 566.626 293.744 565.778 294.038L564.244 294.57C563.397 294.864 562.94 295.764 563.223 296.58C563.506 297.397 564.422 297.821 565.269 297.527L566.803 296.995C569.345 296.114 570.717 293.414 569.868 290.964L568.843 288.007C568.56 287.191 567.644 286.767 566.797 287.06Z" fill="#FFD9EE"/>
<path d="M572.934 284.935L572.422 283.457C571.572 281.007 568.824 279.736 566.282 280.617L563.214 281.68C560.672 282.561 559.3 285.261 560.149 287.711L560.661 289.19C560.944 290.006 561.861 290.43 562.708 290.136C563.555 289.843 564.013 288.943 563.729 288.126L563.217 286.647C562.934 285.831 563.391 284.931 564.239 284.637L567.307 283.574C568.154 283.28 569.07 283.704 569.353 284.52L569.866 285.999C570.149 286.816 571.065 287.239 571.912 286.946C572.76 286.652 573.217 285.752 572.934 284.935Z" fill="#FFD9EE"/>
<path d="M581.124 293.689L579.589 294.221C578.742 294.515 577.826 294.091 577.543 293.274L577.03 291.796C576.747 290.979 575.831 290.555 574.984 290.849C574.137 291.143 573.679 292.043 573.962 292.859L574.475 294.338C575.324 296.788 578.073 298.059 580.614 297.178L582.149 296.646C582.996 296.353 583.453 295.453 583.17 294.636C582.887 293.82 581.971 293.396 581.124 293.689Z" fill="#FFD9EE"/>
<path d="M587.256 286.593C586.973 285.777 586.057 285.353 585.209 285.646L583.675 286.178C582.828 286.472 581.912 286.048 581.629 285.231C581.346 284.415 581.803 283.515 582.65 283.221L584.184 282.689C585.032 282.396 585.489 281.496 585.206 280.679C584.923 279.863 584.007 279.439 583.159 279.732L581.625 280.264C579.083 281.145 577.711 283.845 578.56 286.295C579.41 288.745 582.158 290.016 584.7 289.135L586.234 288.604C587.082 288.31 587.539 287.41 587.256 286.593Z" fill="#FFD9EE"/>
<path d="M591.859 284.998C591.011 285.292 590.554 286.192 590.837 287.008L591.862 289.965C592.145 290.782 591.688 291.682 590.84 291.976L589.306 292.507C588.459 292.801 588.002 293.701 588.285 294.518C588.568 295.334 589.484 295.758 590.331 295.464L591.865 294.933C594.407 294.052 595.779 291.352 594.93 288.902L593.905 285.945C593.622 285.128 592.706 284.704 591.859 284.998Z" fill="#FFD9EE"/>
<path d="M605.607 285.201C605.599 285.177 605.58 285.162 605.57 285.139C604.517 282.545 603.173 280.076 601.561 277.778C599.031 274.308 595.377 271.769 591.164 270.55C582.407 267.71 575.304 267.55 568.129 270.037C567.564 270.233 566.999 270.445 566.424 270.674C565.91 270.882 565.407 271.121 564.898 271.344C564.863 271.356 564.827 271.347 564.791 271.359C564.714 271.396 564.64 271.439 564.57 271.488C560.657 273.265 556.845 275.254 553.153 277.444C551.525 278.379 549.968 279.428 548.495 280.584C548.464 280.609 548.432 280.629 548.403 280.655C546.101 282.372 544.224 284.571 542.919 287.083C541.713 289.681 540.998 292.46 540.809 295.285C540.791 295.384 540.783 295.486 540.785 295.586C540.766 295.864 540.728 296.135 540.718 296.414C540.674 297.809 540.996 301.133 541.036 301.551C541.264 303.325 542.374 309.292 547.088 311.643C550.079 313.133 553.746 312.796 557.972 310.652L559.939 309.653C569.309 304.876 574.011 302.479 579.651 305.013C580.736 305.5 581.846 305.996 582.982 306.458C583.031 309.717 583.943 316.393 590.356 318.311C597.253 320.392 597.628 321.473 598.534 324.088C598.709 324.603 599.149 324.987 599.696 325.101C600.243 325.215 600.818 325.045 601.215 324.65C601.547 324.309 604.408 321.204 602.108 314.569C600.85 310.939 602.57 306.828 604.442 303.271L604.474 303.215C605.633 301.7 606.498 299.996 607.028 298.19C607.555 296.113 607.704 293.971 607.469 291.861C607.493 291.639 607.469 291.415 607.396 291.205C607.253 290.169 607.02 289.148 606.699 288.153C606.371 287.156 606.007 286.18 605.615 285.228C605.613 285.219 605.61 285.21 605.607 285.201ZM599.04 315.632C599.492 316.853 599.735 318.142 599.758 319.448C598.442 317.968 596.162 316.752 591.367 315.309C587.556 314.166 586.503 310.433 586.27 307.635C589.915 308.863 593.907 308.856 597.605 307.617C598.202 307.405 598.787 307.165 599.359 306.896C598.273 309.718 598.16 312.786 599.04 315.632ZM603.894 297.511C603.358 299.434 602.261 301.176 600.737 302.527C598.224 304.376 595.173 305.385 592.055 305.397L591.359 303.389C591.076 302.572 591.534 301.672 592.381 301.379L596.983 299.783C597.83 299.49 598.288 298.59 598.005 297.773C597.722 296.957 596.805 296.533 595.958 296.826L591.356 298.422C588.814 299.303 587.442 302.003 588.291 304.452L588.45 304.912C585.901 304.216 583.427 303.294 581.06 302.158C578.676 301.035 575.991 300.618 573.333 300.959L572.943 299.835C572.66 299.019 571.744 298.595 570.897 298.888C570.05 299.182 569.592 300.082 569.875 300.899L570.14 301.662C566.111 303.067 562.211 304.813 558.484 306.879L556.524 307.875C555.644 308.327 554.723 308.699 553.775 308.984L553.513 308.227C553.23 307.41 552.313 306.986 551.466 307.28C550.619 307.573 550.161 308.473 550.444 309.29L550.469 309.361C549.82 309.3 549.191 309.125 548.612 308.846C547.392 308.17 546.412 307.158 545.79 305.935L547.373 305.386C549.915 304.505 551.287 301.805 550.438 299.355C550.155 298.539 549.238 298.115 548.391 298.409C547.544 298.702 547.086 299.602 547.37 300.419C547.653 301.235 547.195 302.135 546.348 302.429L544.628 303.025C544.46 302.406 544.333 301.775 544.247 301.138C544.157 300.229 543.938 297.768 543.947 296.637L548.9 294.92C549.748 294.626 550.205 293.726 549.922 292.91C549.639 292.093 548.723 291.669 547.875 291.963L544.319 293.195C544.612 291.526 545.125 289.896 545.846 288.345C546.569 286.92 547.548 285.628 548.736 284.531L549.406 286.464C550.255 288.913 553.004 290.185 555.546 289.304C556.393 289.01 556.85 288.11 556.567 287.294C556.284 286.477 555.368 286.053 554.521 286.347C553.674 286.641 552.757 286.217 552.474 285.4L551.403 282.31C552.487 281.527 553.611 280.8 554.772 280.132C555.991 279.425 557.244 278.717 558.508 278.019L558.607 278.306C558.89 279.122 559.807 279.546 560.654 279.253C561.501 278.959 561.958 278.059 561.675 277.242L561.405 276.463C562.376 275.961 563.352 275.47 564.338 275.008L564.744 276.179C565.027 276.995 565.943 277.419 566.79 277.126C567.637 276.832 568.095 275.932 567.812 275.115L567.321 273.699C567.417 273.665 567.509 273.614 567.603 273.575C568.537 273.208 569.459 272.888 570.38 272.61L572.417 278.487C572.7 279.304 573.617 279.728 574.464 279.434L577.532 278.371C578.379 278.077 578.837 277.177 578.554 276.36C578.271 275.544 577.354 275.12 576.507 275.414L574.973 275.945L573.56 271.869C576.396 271.377 579.284 271.322 582.118 271.705C582.13 271.739 582.119 271.774 582.131 271.808L583.669 276.244C583.952 277.06 584.868 277.484 585.715 277.19C586.562 276.897 587.02 275.997 586.737 275.18L585.758 272.356C586.982 272.636 588.239 272.969 589.55 273.38L590.83 277.074C591.113 277.89 590.656 278.79 589.808 279.084C588.961 279.378 588.504 280.278 588.787 281.094C589.07 281.911 589.986 282.335 590.833 282.041C593.375 281.16 594.747 278.46 593.898 276.01L593.547 274.997C595.678 276.106 597.506 277.683 598.889 279.605C600.044 281.257 601.044 283.008 601.878 284.838L599.02 285.828C598.172 286.122 597.715 287.022 597.998 287.838C598.281 288.655 599.197 289.079 600.045 288.785L603.081 287.733C603.259 288.213 603.45 288.685 603.611 289.175C603.782 289.692 603.896 290.208 604.009 290.723L601.07 291.742C600.222 292.036 599.765 292.936 600.048 293.753C600.331 294.569 601.247 294.993 602.095 294.699L604.341 293.921C604.337 295.127 604.187 296.332 603.894 297.511Z" fill="#FFD9EE"/>
<path d="M34.1282 34.0255L34.8063 34.1629C35.1807 34.2387 35.5435 34.0076 35.6166 33.6467C35.6897 33.2858 35.4454 32.9318 35.071 32.8559L34.3929 32.7186C33.2696 32.4911 32.1811 33.1843 31.9618 34.267L31.8295 34.9205C31.6102 36.0032 32.3431 37.0653 33.4665 37.2928L34.1445 37.4302C34.519 37.506 34.8818 37.2749 34.9549 36.914C35.028 36.5531 34.7837 36.1991 34.4092 36.1232L33.7312 35.9859C33.3567 35.9101 33.1124 35.556 33.1855 35.1951L33.3179 34.5417C33.391 34.1808 33.7538 33.9497 34.1282 34.0255Z" fill="#FFD9EE"/>
<path d="M39.2716 33.0259C38.8972 32.95 38.5344 33.1811 38.4613 33.542L38.1966 34.8489C38.1235 35.2098 37.7607 35.4409 37.3862 35.3651L36.7082 35.2277C36.3337 35.1519 35.9709 35.383 35.8978 35.7439C35.8247 36.1048 36.069 36.4588 36.4435 36.5346L37.1215 36.672C38.2449 36.8995 39.3333 36.2063 39.5526 35.1236L39.8173 33.8167C39.8904 33.4558 39.6461 33.1017 39.2716 33.0259Z" fill="#FFD9EE"/>
<path d="M41.9836 33.5757L42.116 32.9223C42.3352 31.8396 41.6023 30.7774 40.479 30.5499L39.1229 30.2753C37.9995 30.0477 36.9111 30.741 36.6918 31.8237L36.5595 32.4771C36.4864 32.838 36.7307 33.1921 37.1051 33.2679C37.4796 33.3437 37.8424 33.1127 37.9155 32.7518L38.0478 32.0983C38.1209 31.7374 38.4838 31.5063 38.8582 31.5822L40.2143 31.8568C40.5887 31.9327 40.833 32.2867 40.7599 32.6476L40.6276 33.3011C40.5545 33.662 40.7988 34.016 41.1732 34.0919C41.5477 34.1677 41.9105 33.9366 41.9836 33.5757Z" fill="#FFD9EE"/>
<path d="M43.0914 38.5624L42.4134 38.4251C42.0389 38.3492 41.7946 37.9952 41.8677 37.6343L42.0001 36.9808C42.0731 36.62 41.8288 36.2659 41.4544 36.1901C41.0799 36.1142 40.7171 36.3453 40.644 36.7062L40.5117 37.3597C40.2924 38.4423 41.0253 39.5045 42.1487 39.732L42.8267 39.8693C43.2011 39.9452 43.564 39.7141 43.6371 39.3532C43.7101 38.9923 43.4658 38.6383 43.0914 38.5624Z" fill="#FFD9EE"/>
<path d="M46.8787 37.2879C46.9518 36.927 46.7075 36.573 46.3331 36.4971L45.655 36.3598C45.2806 36.284 45.0363 35.9299 45.1094 35.569C45.1825 35.2081 45.5453 34.977 45.9197 35.0529L46.5978 35.1902C46.9722 35.2661 47.335 35.035 47.4081 34.6741C47.4812 34.3132 47.2369 33.9591 46.8625 33.8833L46.1844 33.746C45.0611 33.5184 43.9726 34.2117 43.7533 35.2944C43.534 36.3771 44.267 37.4392 45.3903 37.6667L46.0684 37.804C46.4428 37.8799 46.8056 37.6488 46.8787 37.2879Z" fill="#FFD9EE"/>
<path d="M48.9128 37.6997C48.5383 37.6239 48.1755 37.8549 48.1024 38.2158L47.8377 39.5227C47.7646 39.8836 47.4018 40.1147 47.0273 40.0389L46.3493 39.9016C45.9748 39.8257 45.612 40.0568 45.5389 40.4177C45.4658 40.7786 45.7101 41.1326 46.0846 41.2085L46.7626 41.3458C47.886 41.5733 48.9744 40.8801 49.1937 39.7974L49.4584 38.4905C49.5315 38.1296 49.2872 37.7755 48.9128 37.6997Z" fill="#FFD9EE"/>
<path d="M53.9127 40.7532C53.9148 40.7427 53.9111 40.7331 53.9126 40.7225C54.0883 39.5425 54.13 38.3457 54.0369 37.1532C53.8602 35.3321 53.0702 33.609 51.7884 32.2488C49.1913 29.3092 46.6203 27.7116 43.4492 27.0693C43.1996 27.0188 42.9461 26.9743 42.6854 26.9337C42.4518 26.8986 42.2154 26.8773 41.9805 26.8488C41.9649 26.8456 41.9538 26.8345 41.9382 26.8313C41.9018 26.8279 41.8653 26.8276 41.829 26.8303C40.0083 26.6345 38.1791 26.5381 36.3502 26.5417C35.5504 26.5319 34.7518 26.5796 33.961 26.6843C33.9442 26.6871 33.9279 26.6872 33.9117 26.6907C32.6952 26.8215 31.5303 27.2217 30.507 27.8603C29.5015 28.5523 28.6371 29.417 27.9559 30.4122C27.9277 30.4449 27.9028 30.4802 27.8817 30.5176C27.8145 30.6156 27.7418 30.7063 27.6777 30.8069C27.3593 31.3091 26.7573 32.598 26.6814 32.7602C26.3807 33.4605 25.4948 35.8899 26.7148 37.7737C27.4892 38.9687 28.9075 39.6396 30.9226 39.7688L31.8607 39.8282C36.333 40.1061 38.5775 40.2458 40.0976 42.3972C40.39 42.8108 40.6898 43.2335 41.0065 43.6493C40.3182 44.8555 39.2062 47.5023 41.1433 49.5953C43.2227 51.8532 43.126 52.3309 42.8919 53.4869C42.8446 53.7137 42.9229 53.9497 43.0987 54.1101C43.2744 54.2706 43.5225 54.3325 43.7538 54.2737C43.9495 54.2208 45.6717 53.7016 46.2657 50.7689C46.5906 49.1646 48.1122 48.0293 49.5698 47.13L49.5937 47.1164C50.3471 46.8115 51.0339 46.374 51.6197 45.8261C52.2629 45.1784 52.7818 44.4249 53.1526 43.5999C53.2098 43.5237 53.2491 43.4363 53.268 43.3437C53.44 42.9323 53.5757 42.5071 53.6737 42.0728C53.7693 41.6357 53.8471 41.1991 53.9096 40.7648C53.911 40.761 53.912 40.7571 53.9127 40.7532ZM44.9097 50.4942C44.8111 51.04 44.6208 51.5653 44.3462 52.0495C44.1843 51.2214 43.6109 50.2815 42.1647 48.7131C41.0144 47.4679 41.4368 45.8704 41.9577 44.7936C43.029 46.0337 44.4947 46.8961 46.1202 47.2428C46.3847 47.2944 46.6515 47.333 46.9197 47.3585C45.9097 48.1581 45.2036 49.2596 44.9097 50.4942ZM50.6169 44.8978C50.0036 45.4872 49.2235 45.8889 48.3719 46.054C47.0493 46.188 45.7115 45.897 44.565 45.2258L44.7448 44.3384C44.8179 43.9775 45.1807 43.7464 45.5552 43.8223L47.5892 44.2343C47.9637 44.3101 48.3265 44.079 48.3996 43.7181C48.4727 43.3572 48.2284 43.0032 47.8539 42.9273L45.8199 42.5154C44.6965 42.2878 43.608 42.9811 43.3887 44.0638L43.3476 44.267C42.5632 43.459 41.8555 42.5848 41.2333 41.6551C40.6018 40.7267 39.707 39.9921 38.6581 39.541L38.7587 39.0444C38.8318 38.6835 38.5875 38.3295 38.213 38.2536C37.8386 38.1778 37.4758 38.4089 37.4027 38.7697L37.3344 39.1069C35.5522 38.7496 33.743 38.545 31.928 38.4956L30.9928 38.4361C30.572 38.4114 30.154 38.3481 29.7443 38.2472L29.8121 37.9126C29.8852 37.5517 29.6409 37.1977 29.2664 37.1218C28.892 37.046 28.5292 37.2771 28.4561 37.638L28.4497 37.6693C28.225 37.5064 28.0319 37.306 27.8799 37.0777C27.5791 36.5658 27.4385 35.9821 27.4754 35.3985L28.1751 35.5403C29.2985 35.7678 30.3869 35.0745 30.6062 33.9919C30.6793 33.631 30.435 33.2769 30.0606 33.2011C29.6861 33.1252 29.3233 33.3563 29.2502 33.7172C29.1771 34.0781 28.8143 34.3092 28.4398 34.2333L27.6798 34.0794C27.7524 33.8157 27.8423 33.5569 27.9489 33.3047C28.1129 32.9515 28.5658 32.0011 28.814 31.5881L31.0033 32.0315C31.3777 32.1073 31.7406 31.8762 31.8137 31.5153C31.8867 31.1545 31.6424 30.8004 31.268 30.7246L29.6963 30.4062C30.1654 29.8573 30.707 29.3704 31.3075 28.9578C31.8814 28.5917 32.5206 28.3299 33.1941 28.1848L33.0211 29.0388C32.8018 30.1215 33.5347 31.1837 34.6581 31.4112C35.0325 31.487 35.3954 31.256 35.4684 30.8951C35.5415 30.5342 35.2972 30.1801 34.9228 30.1043C34.5483 30.0284 34.304 29.6744 34.3771 29.3135L34.6537 27.9478C35.2209 27.8953 35.7911 27.8722 36.3617 27.8787C36.9621 27.8833 37.5752 27.8953 38.1899 27.913L38.1643 28.0397C38.0912 28.4006 38.3355 28.7547 38.7099 28.8305C39.0844 28.9064 39.4472 28.6753 39.5203 28.3144L39.5901 27.97C40.0548 27.9961 40.5193 28.0276 40.9812 28.0715L40.8763 28.589C40.8032 28.9499 41.0475 29.304 41.422 29.3798C41.7965 29.4557 42.1593 29.2246 42.2324 28.8637L42.3592 28.2377C42.4019 28.2463 42.4469 28.2473 42.4894 28.2532C42.9119 28.3211 43.3194 28.4036 43.7175 28.5012L43.1914 31.0987C43.1183 31.4596 43.3626 31.8137 43.737 31.8895L45.0931 32.1642C45.4675 32.24 45.8303 32.0089 45.9034 31.648C45.9765 31.2871 45.7322 30.9331 45.3578 30.8572L44.6797 30.7199L45.0446 28.9183C46.1917 29.3524 47.2632 29.9579 48.2196 30.7124C48.2166 30.7274 48.2052 30.7381 48.2022 30.7531L47.8051 32.7135C47.732 33.0744 47.9763 33.4284 48.3508 33.5043C48.7253 33.5801 49.0881 33.349 49.1612 32.9881L49.414 31.74C49.8025 32.1078 50.1913 32.5022 50.5831 32.9374L50.2525 34.5697C50.1794 34.9306 49.8166 35.1617 49.4421 35.0858C49.0677 35.01 48.7049 35.2411 48.6318 35.602C48.5587 35.9629 48.803 36.3169 49.1774 36.3928C50.3008 36.6203 51.3893 35.927 51.6085 34.8444L51.6992 34.3967C52.2407 35.2651 52.5696 36.2396 52.6604 37.2445C52.7263 38.1007 52.7139 38.9598 52.6232 39.8117L51.3601 39.5559C50.9856 39.4801 50.6228 39.7111 50.5497 40.072C50.4766 40.4329 50.7209 40.787 51.0954 40.8628L52.4372 41.1346C52.3987 41.3492 52.3665 41.5638 52.3194 41.7788C52.27 42.0055 52.1999 42.2192 52.1298 42.4329L50.8307 42.1697C50.4562 42.0939 50.0934 42.325 50.0203 42.6859C49.9472 43.0468 50.1915 43.4008 50.566 43.4767L51.5586 43.6777C51.2959 44.1194 50.9798 44.529 50.6169 44.8978Z" fill="#FFD9EE"/>
<path d="M812.538 136.818L813.611 136.373C814.204 136.126 814.492 135.464 814.254 134.893C814.017 134.322 813.344 134.058 812.752 134.305L811.679 134.75C809.901 135.489 809.038 137.477 809.75 139.19L810.179 140.224C810.891 141.937 812.909 142.727 814.687 141.988L815.76 141.542C816.352 141.296 816.64 140.634 816.403 140.063C816.166 139.492 815.493 139.228 814.9 139.475L813.827 139.92C813.235 140.167 812.562 139.903 812.325 139.332L811.895 138.298C811.658 137.727 811.946 137.065 812.538 136.818Z" fill="#FFD9EE"/>
<path d="M818.76 130.596C818.167 130.842 817.879 131.504 818.117 132.075L818.976 134.143C819.213 134.714 818.925 135.377 818.333 135.623L817.26 136.069C816.667 136.315 816.379 136.978 816.617 137.549C816.854 138.12 817.527 138.383 818.119 138.137L819.192 137.691C820.97 136.952 821.834 134.965 821.122 133.252L820.262 131.184C820.025 130.613 819.352 130.349 818.76 130.596Z" fill="#FFD9EE"/>
<path d="M823.052 128.813L822.622 127.779C821.91 126.066 819.892 125.276 818.114 126.015L815.969 126.907C814.191 127.645 813.327 129.633 814.039 131.346L814.469 132.38C814.706 132.951 815.379 133.214 815.971 132.968C816.564 132.722 816.852 132.059 816.614 131.488L816.185 130.454C815.947 129.883 816.235 129.221 816.828 128.975L818.974 128.083C819.566 127.837 820.239 128.1 820.476 128.671L820.906 129.705C821.143 130.276 821.816 130.539 822.408 130.293C823.001 130.047 823.289 129.384 823.052 128.813Z" fill="#FFD9EE"/>
<path d="M829.278 134.713L828.205 135.159C827.613 135.405 826.94 135.142 826.703 134.571L826.273 133.537C826.036 132.966 825.363 132.702 824.771 132.949C824.178 133.195 823.89 133.857 824.127 134.429L824.557 135.463C825.269 137.176 827.287 137.966 829.065 137.227L830.138 136.781C830.73 136.535 831.018 135.872 830.781 135.301C830.543 134.73 829.871 134.467 829.278 134.713Z" fill="#FFD9EE"/>
<path d="M833.353 129.382C833.116 128.811 832.443 128.548 831.85 128.794L830.778 129.24C830.185 129.486 829.512 129.223 829.275 128.652C829.038 128.081 829.326 127.418 829.918 127.172L830.991 126.726C831.584 126.48 831.872 125.817 831.634 125.246C831.397 124.675 830.724 124.412 830.132 124.658L829.059 125.104C827.281 125.843 826.417 127.83 827.129 129.543C827.841 131.257 829.859 132.047 831.637 131.308L832.71 130.862C833.302 130.616 833.59 129.953 833.353 129.382Z" fill="#FFD9EE"/>
<path d="M836.572 128.043C835.979 128.289 835.691 128.952 835.929 129.523L836.788 131.591C837.025 132.162 836.737 132.824 836.145 133.07L835.072 133.516C834.479 133.763 834.191 134.425 834.429 134.996C834.666 135.567 835.339 135.831 835.931 135.584L837.004 135.138C838.782 134.4 839.646 132.412 838.934 130.699L838.074 128.631C837.837 128.06 837.164 127.797 836.572 128.043Z" fill="#FFD9EE"/>
<path d="M846.401 127.597C846.394 127.58 846.38 127.57 846.372 127.554C845.508 125.747 844.441 124.041 843.192 122.469C841.235 120.1 838.516 118.443 835.454 117.754C829.077 116.102 823.997 116.294 818.979 118.379C818.584 118.543 818.189 118.719 817.788 118.908C817.43 119.078 817.081 119.271 816.727 119.452C816.703 119.462 816.677 119.457 816.652 119.467C816.598 119.497 816.547 119.53 816.499 119.568C813.781 121.006 811.144 122.591 808.601 124.314C807.479 125.052 806.412 125.868 805.409 126.757C805.389 126.777 805.366 126.792 805.347 126.812C803.776 128.137 802.531 129.789 801.706 131.639C800.957 133.547 800.566 135.563 800.552 137.588C800.544 137.66 800.542 137.733 800.548 137.805C800.547 138.004 800.531 138.199 800.536 138.399C800.564 139.397 800.937 141.757 800.984 142.054C801.224 143.312 802.273 147.526 805.741 149.002C807.942 149.938 810.546 149.539 813.473 147.826L814.834 147.027C821.321 143.212 824.577 141.298 828.714 142.865C829.51 143.166 830.324 143.473 831.156 143.754C831.331 146.08 832.27 150.809 836.932 151.903C841.948 153.092 842.263 153.848 843.023 155.677C843.17 156.037 843.501 156.292 843.896 156.35C844.292 156.408 844.695 156.262 844.962 155.962C845.184 155.705 847.094 153.364 845.166 148.724C844.111 146.185 845.162 143.175 846.346 140.554L846.367 140.513C847.129 139.38 847.674 138.126 847.975 136.813C848.262 135.307 848.276 133.771 848.017 132.274C848.025 132.114 847.998 131.955 847.937 131.809C847.79 131.074 847.58 130.355 847.308 129.658C847.03 128.96 846.728 128.279 846.408 127.616C846.406 127.609 846.404 127.603 846.401 127.597ZM843.02 149.615C843.396 150.468 843.624 151.378 843.697 152.31C842.693 151.309 841.012 150.539 837.526 149.715C834.754 149.062 833.842 146.442 833.555 144.453C836.211 145.173 839.062 144.996 841.65 143.952C842.067 143.775 842.475 143.578 842.872 143.362C842.217 145.424 842.269 147.621 843.02 149.615ZM845.707 136.463C845.407 137.86 844.698 139.152 843.668 140.182C841.953 141.611 839.817 142.462 837.591 142.605L837.007 141.201C836.77 140.63 837.058 139.967 837.65 139.721L840.869 138.384C841.461 138.137 841.749 137.475 841.512 136.904C841.275 136.333 840.602 136.069 840.009 136.316L836.791 137.653C835.013 138.392 834.149 140.38 834.861 142.093L834.995 142.414C833.144 142.027 831.337 141.474 829.598 140.765C827.847 140.066 825.911 139.884 824.027 140.241L823.7 139.455C823.463 138.884 822.79 138.621 822.198 138.867C821.605 139.114 821.317 139.776 821.555 140.347L821.776 140.881C818.96 142.058 816.249 143.473 813.676 145.109L812.318 145.905C811.709 146.266 811.068 146.57 810.403 146.815L810.183 146.285C809.946 145.714 809.273 145.451 808.68 145.697C808.088 145.943 807.8 146.606 808.037 147.177L808.058 147.227C807.592 147.211 807.135 147.113 806.709 146.938C805.809 146.508 805.065 145.828 804.568 144.981L805.675 144.521C807.453 143.782 808.317 141.795 807.605 140.081C807.368 139.51 806.695 139.247 806.102 139.493C805.51 139.739 805.222 140.402 805.459 140.973C805.696 141.544 805.409 142.207 804.816 142.453L803.613 142.953C803.467 142.517 803.349 142.073 803.26 141.621C803.157 140.976 802.894 139.227 802.852 138.419L806.316 136.979C806.908 136.733 807.196 136.071 806.959 135.5C806.722 134.929 806.049 134.665 805.456 134.911L802.97 135.945C803.107 134.74 803.403 133.553 803.851 132.415C804.307 131.366 804.95 130.401 805.751 129.566L806.313 130.918C807.025 132.631 809.043 133.421 810.821 132.682C811.413 132.436 811.701 131.773 811.464 131.202C811.227 130.631 810.554 130.368 809.961 130.614C809.369 130.861 808.696 130.597 808.459 130.026L807.561 127.865C808.301 127.259 809.073 126.691 809.873 126.164C810.714 125.607 811.578 125.047 812.451 124.494L812.534 124.695C812.771 125.266 813.444 125.529 814.036 125.283C814.629 125.037 814.917 124.374 814.68 123.803L814.453 123.258C815.125 122.858 815.801 122.466 816.485 122.093L816.825 122.912C817.063 123.483 817.735 123.746 818.328 123.5C818.92 123.254 819.208 122.591 818.971 122.02L818.559 121.029C818.627 121.001 818.691 120.96 818.755 120.929C819.407 120.626 820.052 120.358 820.698 120.12L822.406 124.23C822.643 124.801 823.316 125.065 823.908 124.818L826.054 123.927C826.647 123.68 826.935 123.018 826.697 122.447C826.46 121.876 825.787 121.612 825.195 121.859L824.122 122.305L822.937 119.454C824.942 118.98 827.002 118.817 829.042 118.968C829.052 118.992 829.047 119.018 829.056 119.041L830.345 122.143C830.583 122.714 831.256 122.978 831.848 122.732C832.441 122.485 832.729 121.823 832.491 121.252L831.67 119.277C832.557 119.424 833.469 119.607 834.423 119.845L835.496 122.428C835.734 122.999 835.446 123.662 834.853 123.908C834.261 124.154 833.973 124.817 834.21 125.388C834.447 125.959 835.12 126.222 835.712 125.976C837.49 125.237 838.354 123.249 837.642 121.536L837.348 120.828C838.917 121.528 840.291 122.576 841.361 123.889C842.257 125.019 843.047 126.227 843.721 127.498L841.723 128.328C841.13 128.575 840.842 129.237 841.079 129.808C841.317 130.379 841.99 130.643 842.582 130.396L844.705 129.514C844.853 129.849 845.01 130.178 845.146 130.521C845.291 130.884 845.394 131.247 845.497 131.61L843.441 132.464C842.849 132.711 842.561 133.373 842.798 133.944C843.036 134.515 843.708 134.779 844.301 134.532L845.871 133.88C845.921 134.741 845.866 135.608 845.707 136.463Z" fill="#FFD9EE"/>
<path d="M1010.23 272.191C1011.11 269.732 1011.62 267.154 1011.75 264.538C1011.84 261.263 1010.83 258.025 1008.88 255.309C1005.09 249.791 1000.89 246.623 995.27 245.042C992.287 244.26 989.254 243.688 986.195 243.333C981.887 242.762 978.489 243.149 975.806 244.516C973.676 245.613 971.808 247.125 970.317 248.96C969.673 249.773 969.085 250.627 968.556 251.516L968.384 251.791C967.97 252.401 967.496 252.97 966.968 253.49C966.65 253.828 966.331 254.165 966.032 254.523C965.672 254.909 965.421 255.382 965.305 255.895C965.229 256.728 965.464 257.567 965.969 258.258C966.279 258.794 966.476 259.163 966.396 259.413C966.318 259.53 966.223 259.636 966.116 259.729C964.311 261.551 962.304 263.175 960.129 264.569C959.231 265.112 958.261 265.77 958.097 266.714C958.065 267.461 958.338 268.197 958.857 268.762C959.088 269.058 959.342 269.337 959.618 269.594C959.941 269.913 960.483 270.449 960.448 270.691C960.409 271.002 960.274 271.292 960.061 271.523C959.837 271.748 959.623 271.936 959.434 272.099C958.917 272.549 958.051 273.305 958.655 274.255C958.794 274.484 959.042 274.847 959.27 275.172C958.919 275.477 958.672 275.879 958.562 276.326C958.498 276.681 958.587 277.049 958.809 277.344C958.964 277.549 959.138 277.743 959.312 277.928C959.742 278.394 959.902 278.598 959.888 278.89C959.818 279.258 959.665 279.605 959.44 279.906C959.312 280.116 959.186 280.325 959.078 280.541C958.724 281.297 958.561 282.127 958.601 282.964C958.515 284.762 959.897 286.342 961.744 286.558C964.504 286.82 967.273 286.937 970.04 286.91C971.671 288.733 971.783 292.631 971.679 294.045C971.648 294.465 971.917 294.857 972.33 294.995L994.86 302.472C995.145 302.566 995.455 302.525 995.697 302.361C995.939 302.197 996.085 301.93 996.089 301.64C996.064 300.976 995.943 300.316 995.729 299.681C995.615 299.316 995.526 298.946 995.462 298.571C995.324 297.639 995.262 296.699 995.276 295.76C995.323 293.919 995.542 292.09 995.931 290.295C996.478 287.603 997.76 285.119 999.644 283.1C1000.75 282.003 1001.98 281.033 1003.32 280.21C1004.09 279.688 1004.9 279.15 1005.66 278.552C1007.78 276.909 1009.37 274.703 1010.23 272.191ZM1002.22 278.706C1000.77 279.606 999.429 280.666 998.23 281.866C996.124 284.126 994.691 286.904 994.079 289.914C993.666 291.815 993.434 293.753 993.384 295.702C993.37 296.734 993.438 297.766 993.587 298.791C993.662 299.246 993.768 299.696 993.905 300.138L993.938 300.254L973.584 293.501C973.673 291.25 973.224 288.998 972.271 286.921C972.525 286.921 972.769 286.923 972.99 286.92C973.747 286.919 974.319 286.917 974.601 286.925C978.836 287.049 981.322 286.009 981.993 283.833C982.121 283.353 981.844 282.85 981.357 282.681C981.117 282.607 980.859 282.627 980.639 282.738C980.42 282.85 980.256 283.042 980.185 283.273C979.909 284.17 978.718 285.216 974.615 285.095C974.318 285.086 973.729 285.087 972.943 285.09C972.231 285.092 971.358 285.094 970.405 285.089C967.584 285.124 964.759 285.011 961.944 284.75C961.051 284.625 960.405 283.839 960.481 282.971C960.45 282.421 960.551 281.874 960.775 281.374C960.86 281.203 960.962 281.038 961.063 280.872C961.448 280.334 961.689 279.709 961.766 279.053C961.774 278.173 961.386 277.325 960.704 276.731L960.548 276.56C960.707 276.404 960.882 276.263 961.07 276.14C961.281 276.007 961.425 275.795 961.47 275.553C961.515 275.311 961.457 275.059 961.309 274.855C961.145 274.629 960.756 274.088 960.484 273.68C960.556 273.615 960.638 273.54 960.712 273.479C960.928 273.291 961.176 273.073 961.432 272.816C961.921 272.307 962.232 271.66 962.321 270.964C962.467 269.833 961.593 268.966 960.947 268.33C960.726 268.124 960.524 267.901 960.341 267.663C960.196 267.476 960.066 267.28 959.951 267.075C959.994 266.946 960.244 266.677 961.205 266.097C963.474 264.642 965.569 262.949 967.452 261.048C967.787 260.764 968.043 260.402 968.196 259.994C968.396 259.094 968.18 258.144 967.605 257.394C967.354 256.954 967.109 256.535 967.159 256.256C967.233 256.048 967.351 255.858 967.505 255.699C967.778 255.373 968.073 255.062 968.367 254.751C968.976 254.147 969.522 253.485 969.997 252.775L970.171 252.498C970.66 251.674 971.203 250.884 971.797 250.13C973.13 248.483 974.802 247.125 976.71 246.141C979.038 244.959 982.073 244.629 985.981 245.146C988.948 245.489 991.89 246.042 994.783 246.799C999.945 248.239 1003.8 251.178 1007.31 256.301C1009.05 258.687 1009.95 261.543 1009.86 264.432C1009.75 266.871 1009.27 269.273 1008.45 271.566C1007.69 273.762 1006.31 275.692 1004.45 277.129C1003.74 277.682 1002.97 278.202 1002.22 278.705L1002.22 278.706Z" fill="#FFD9EE"/>
<path d="M497.158 -20.033C494.563 -20.3423 491.937 -20.2636 489.359 -19.7995C486.147 -19.1527 483.217 -17.4456 481.007 -14.9341C476.476 -10.0122 474.328 -5.20833 474.046 0.625264C473.951 3.70785 474.073 6.79189 474.411 9.85285C474.82 14.1793 475.957 17.4044 477.89 19.7131C479.435 21.544 481.327 23.026 483.45 24.0683C484.386 24.5137 485.35 24.896 486.334 25.2128L486.641 25.3187C487.328 25.5859 487.989 25.9206 488.614 26.3181C489.014 26.5529 489.414 26.7887 489.83 26.9993C490.288 27.2643 490.804 27.4028 491.33 27.4014C492.159 27.289 492.924 26.8716 493.484 26.2253C493.938 25.803 494.253 25.5278 494.515 25.5505C494.646 25.6005 494.771 25.6686 494.885 25.7529C497.066 27.1038 499.097 28.697 500.943 30.5046C501.673 31.2581 502.532 32.0565 503.488 32.0045C504.224 31.8686 504.88 31.4379 505.314 30.8059C505.551 30.5146 505.765 30.204 505.954 29.8772C506.193 29.491 506.594 28.8431 506.838 28.8232C507.15 28.792 507.462 28.8587 507.736 29.0144C508.005 29.1823 508.236 29.3483 508.437 29.4962C508.992 29.8991 509.922 30.5744 510.713 29.7726C510.905 29.5861 511.203 29.2636 511.469 28.9684C511.845 29.2424 512.292 29.3926 512.753 29.3996C513.113 29.3832 513.451 29.2139 513.689 28.9314C513.854 28.7346 514.004 28.5221 514.146 28.3107C514.504 27.7869 514.667 27.5853 514.954 27.5344C515.329 27.5197 515.701 27.5911 516.045 27.7435C516.278 27.8214 516.51 27.8973 516.745 27.9535C517.561 28.1294 518.406 28.1029 519.213 27.8761C520.985 27.5577 522.215 25.8577 522.012 24.0091C521.65 21.2604 521.145 18.535 520.499 15.8449C521.91 13.8465 525.685 12.8647 527.086 12.6499C527.502 12.5863 527.824 12.2368 527.866 11.8034L530.11 -11.8291C530.138 -12.1272 530.029 -12.4205 529.815 -12.6199C529.601 -12.8193 529.308 -12.9012 529.025 -12.8407C528.383 -12.6678 527.767 -12.4019 527.196 -12.0509C526.866 -11.8585 526.525 -11.6886 526.174 -11.5425C525.296 -11.1998 524.394 -10.9289 523.476 -10.7321C521.671 -10.3659 519.839 -10.1701 518.003 -10.147C515.257 -10.0783 512.549 -10.7718 510.159 -12.1557C508.842 -12.9876 507.622 -13.9722 506.521 -15.0908C505.838 -15.7276 505.134 -16.3922 504.381 -16.9998C502.304 -18.7021 499.799 -19.754 497.158 -20.033ZM505.3 -13.6848C506.502 -12.4696 507.835 -11.4015 509.273 -10.5013C511.947 -8.95441 514.976 -8.17973 518.046 -8.25746C519.991 -8.28034 521.932 -8.48723 523.843 -8.87554C524.852 -9.09208 525.843 -9.38928 526.808 -9.76448C527.234 -9.93899 527.649 -10.1433 528.05 -10.3759L528.155 -10.434L526.13 10.9154C523.916 11.3323 521.821 12.2743 520.01 13.6677C519.953 13.4198 519.9 13.1818 519.848 12.9667C519.677 12.2298 519.548 11.6726 519.492 11.3954C518.665 7.24091 517.095 5.05026 514.824 4.88372C514.328 4.86611 513.9 5.24899 513.844 5.76107C513.825 6.01129 513.903 6.25825 514.061 6.44756C514.218 6.63687 514.442 6.75303 514.683 6.77046C515.62 6.83909 516.905 7.76562 517.706 11.7922C517.764 12.0829 517.896 12.6574 518.075 13.4228C518.237 14.116 518.434 14.9668 518.643 15.8965C519.308 18.6383 519.83 21.4163 520.206 24.2185C520.284 25.1165 519.662 25.9223 518.799 26.0425C518.27 26.1961 517.714 26.2202 517.176 26.1131C516.991 26.0694 516.808 26.0068 516.623 25.9451C516.012 25.6905 515.35 25.5951 514.693 25.6673C513.834 25.8562 513.094 26.424 512.667 27.2219L512.536 27.4124C512.348 27.2923 512.172 27.1532 512.01 26.9971C511.832 26.8217 511.594 26.7286 511.348 26.7389C511.102 26.7493 510.87 26.8622 510.704 27.0521C510.52 27.2622 510.08 27.7627 509.743 28.1195C509.664 28.0633 509.572 28.0001 509.496 27.9424C509.264 27.7734 508.997 27.581 508.688 27.3884C508.083 27.0254 507.383 26.8677 506.685 26.9371C505.55 27.0478 504.9 28.0933 504.426 28.8652C504.274 29.1262 504.102 29.3739 503.911 29.6055C503.761 29.7879 503.599 29.9588 503.425 30.1169C503.289 30.1036 502.972 29.9206 502.191 29.1135C500.265 27.2277 498.146 25.5651 495.872 24.1549C495.52 23.8918 495.11 23.7238 494.679 23.6659C493.756 23.6728 492.879 24.0953 492.276 24.8235C491.904 25.1673 491.551 25.4996 491.267 25.5128C491.048 25.4877 490.837 25.4152 490.647 25.3002C490.268 25.1074 489.899 24.8899 489.53 24.6724C488.805 24.2142 488.037 23.8302 487.239 23.526L486.93 23.4188C486.018 23.1269 485.126 22.7745 484.259 22.3637C482.355 21.433 480.658 20.1073 479.271 18.4681C477.598 16.4641 476.597 13.5803 476.227 9.65565C475.897 6.68708 475.777 3.69599 475.868 0.706201C476.115 -4.64619 478.117 -9.06623 482.324 -13.631C484.26 -15.8598 486.844 -17.3727 489.678 -17.9372C492.081 -18.3692 494.529 -18.4419 496.948 -18.153C499.257 -17.9109 501.448 -16.9921 503.264 -15.5038C503.961 -14.9378 504.642 -14.2993 505.3 -13.682L505.3 -13.6848Z" fill="#FFD9EE"/>
</g>
<defs>
<clipPath id="clip0">
<rect width="1004" height="294" rx="20" fill="white"/>
</clipPath>
</defs>
</svg>
