<svg width="1004" height="294" viewBox="0 0 1004 294" fill="none" xmlns="http://www.w3.org/2000/svg">
<g clip-path="url(#clip0)">
<rect width="1004" height="294" rx="20" fill="white"/>
<rect width="1004" height="294" rx="20" fill="#2E279D"/>
<path d="M378.121 127.88L363.181 170H350.341L335.401 127.88H346.321L356.761 159.68L367.261 127.88H378.121ZM387.569 133.04C385.769 133.04 384.289 132.52 383.129 131.48C382.009 130.4 381.449 129.08 381.449 127.52C381.449 125.92 382.009 124.6 383.129 123.56C384.289 122.48 385.769 121.94 387.569 121.94C389.329 121.94 390.769 122.48 391.889 123.56C393.049 124.6 393.629 125.92 393.629 127.52C393.629 129.08 393.049 130.4 391.889 131.48C390.769 132.52 389.329 133.04 387.569 133.04ZM392.669 136.52V170H382.409V136.52H392.669ZM413.725 170.48C410.805 170.48 408.205 169.98 405.925 168.98C403.645 167.98 401.845 166.62 400.525 164.9C399.205 163.14 398.465 161.18 398.305 159.02H408.445C408.565 160.18 409.105 161.12 410.065 161.84C411.025 162.56 412.205 162.92 413.605 162.92C414.885 162.92 415.865 162.68 416.545 162.2C417.265 161.68 417.625 161.02 417.625 160.22C417.625 159.26 417.125 158.56 416.125 158.12C415.125 157.64 413.505 157.12 411.265 156.56C408.865 156 406.865 155.42 405.265 154.82C403.665 154.18 402.285 153.2 401.125 151.88C399.965 150.52 399.385 148.7 399.385 146.42C399.385 144.5 399.905 142.76 400.945 141.2C402.025 139.6 403.585 138.34 405.625 137.42C407.705 136.5 410.165 136.04 413.005 136.04C417.205 136.04 420.505 137.08 422.905 139.16C425.345 141.24 426.745 144 427.105 147.44H417.625C417.465 146.28 416.945 145.36 416.065 144.68C415.225 144 414.105 143.66 412.705 143.66C411.505 143.66 410.585 143.9 409.945 144.38C409.305 144.82 408.985 145.44 408.985 146.24C408.985 147.2 409.485 147.92 410.485 148.4C411.525 148.88 413.125 149.36 415.285 149.84C417.765 150.48 419.785 151.12 421.345 151.76C422.905 152.36 424.265 153.36 425.425 154.76C426.625 156.12 427.245 157.96 427.285 160.28C427.285 162.24 426.725 164 425.605 165.56C424.525 167.08 422.945 168.28 420.865 169.16C418.825 170.04 416.445 170.48 413.725 170.48ZM466.622 136.52V170H456.362V165.44C455.322 166.92 453.902 168.12 452.102 169.04C450.342 169.92 448.382 170.36 446.222 170.36C443.662 170.36 441.402 169.8 439.442 168.68C437.482 167.52 435.962 165.86 434.882 163.7C433.802 161.54 433.262 159 433.262 156.08V136.52H443.462V154.7C443.462 156.94 444.042 158.68 445.202 159.92C446.362 161.16 447.922 161.78 449.882 161.78C451.882 161.78 453.462 161.16 454.622 159.92C455.782 158.68 456.362 156.94 456.362 154.7V136.52H466.622ZM471.951 153.2C471.951 149.76 472.591 146.74 473.871 144.14C475.191 141.54 476.971 139.54 479.211 138.14C481.451 136.74 483.951 136.04 486.711 136.04C489.071 136.04 491.131 136.52 492.891 137.48C494.691 138.44 496.071 139.7 497.031 141.26V136.52H507.291V170H497.031V165.26C496.031 166.82 494.631 168.08 492.831 169.04C491.071 170 489.011 170.48 486.651 170.48C483.931 170.48 481.451 169.78 479.211 168.38C476.971 166.94 475.191 164.92 473.871 162.32C472.591 159.68 471.951 156.64 471.951 153.2ZM497.031 153.26C497.031 150.7 496.311 148.68 494.871 147.2C493.471 145.72 491.751 144.98 489.711 144.98C487.671 144.98 485.931 145.72 484.491 147.2C483.091 148.64 482.391 150.64 482.391 153.2C482.391 155.76 483.091 157.8 484.491 159.32C485.931 160.8 487.671 161.54 489.711 161.54C491.751 161.54 493.471 160.8 494.871 159.32C496.311 157.84 497.031 155.82 497.031 153.26ZM524.974 125.6V170H514.714V125.6H524.974ZM571.344 162.56H555.624L553.104 170H542.364L557.604 127.88H569.484L584.724 170H573.864L571.344 162.56ZM568.704 154.64L563.484 139.22L558.324 154.64H568.704ZM599.623 142.1C600.823 140.26 602.323 138.82 604.123 137.78C605.923 136.7 607.923 136.16 610.123 136.16V147.02H607.303C604.743 147.02 602.823 147.58 601.543 148.7C600.263 149.78 599.623 151.7 599.623 154.46V170H589.363V136.52H599.623V142.1ZM633.687 161.3V170H628.467C624.747 170 621.847 169.1 619.767 167.3C617.687 165.46 616.647 162.48 616.647 158.36V145.04H612.567V136.52H616.647V128.36H626.907V136.52H633.627V145.04H626.907V158.48C626.907 159.48 627.147 160.2 627.627 160.64C628.107 161.08 628.907 161.3 630.027 161.3H633.687ZM653.022 170.48C650.102 170.48 647.502 169.98 645.222 168.98C642.942 167.98 641.142 166.62 639.822 164.9C638.502 163.14 637.762 161.18 637.602 159.02H647.742C647.862 160.18 648.402 161.12 649.362 161.84C650.322 162.56 651.502 162.92 652.902 162.92C654.182 162.92 655.162 162.68 655.842 162.2C656.562 161.68 656.922 161.02 656.922 160.22C656.922 159.26 656.422 158.56 655.422 158.12C654.422 157.64 652.802 157.12 650.562 156.56C648.162 156 646.162 155.42 644.562 154.82C642.962 154.18 641.582 153.2 640.422 151.88C639.262 150.52 638.682 148.7 638.682 146.42C638.682 144.5 639.202 142.76 640.242 141.2C641.322 139.6 642.882 138.34 644.922 137.42C647.002 136.5 649.462 136.04 652.302 136.04C656.502 136.04 659.802 137.08 662.202 139.16C664.642 141.24 666.042 144 666.402 147.44H656.922C656.762 146.28 656.242 145.36 655.362 144.68C654.522 144 653.402 143.66 652.002 143.66C650.802 143.66 649.882 143.9 649.242 144.38C648.602 144.82 648.282 145.44 648.282 146.24C648.282 147.2 648.782 147.92 649.782 148.4C650.822 148.88 652.422 149.36 654.582 149.84C657.062 150.48 659.082 151.12 660.642 151.76C662.202 152.36 663.562 153.36 664.722 154.76C665.922 156.12 666.542 157.96 666.582 160.28C666.582 162.24 666.022 164 664.902 165.56C663.822 167.08 662.242 168.28 660.162 169.16C658.122 170.04 655.742 170.48 653.022 170.48Z" fill="#FFD9EE"/>
<path d="M41.6412 234.144C49.9618 249.261 46.8864 268.104 34.1915 279.79C26.3478 287.035 15.7592 290.543 5.14131 289.414C4.46129 289.344 3.78591 289.256 3.11516 289.15C-8.81437 287.287 -19.0969 279.749 -24.462 268.932L-27.4376 280.26C-28.0176 282.467 -30.1751 283.875 -32.4286 283.518C-34.6821 283.161 -36.2987 281.155 -36.1682 278.877L-34.0364 241.808C-33.9588 240.453 -33.6601 239.12 -33.1522 237.862L-28.5939 226.564C-31.1236 224.325 -32.3328 220.948 -31.7991 217.612C-31.3322 215.216 -30.3413 212.953 -28.8972 210.986C-27.5247 208.866 -26.341 207.036 -26.5053 204.058C-26.5889 202.798 -25.8809 201.618 -24.7293 201.099C-23.7079 200.645 -22.5104 200.899 -21.7607 201.728C-14.7892 209.103 -11.8173 215.291 -12.6652 220.643C-13.1894 223.98 -15.3829 226.818 -18.4803 228.166L-18.0445 234.436C-14.7491 234.224 -11.5781 235.73 -9.6598 238.418L-3.97782 246.239C-2.89936 247.726 -1.27404 248.722 0.539979 249.01C2.354 249.297 4.20785 248.851 5.69301 247.771C8.77478 245.517 9.45901 241.198 7.22484 238.101L1.52805 230.277C-0.639122 227.32 -0.932647 223.387 0.771633 220.141C2.48429 216.84 5.9284 214.804 9.64591 214.895C22.994 215.1 35.2069 222.448 41.6412 234.144ZM-23.6988 203.703C-23.7337 203.766 -23.749 203.837 -23.7426 203.909C-23.6488 207.011 -24.6491 210.047 -26.5683 212.487C-27.8014 214.132 -28.6543 216.031 -29.0657 218.045C-29.1633 218.721 -29.1631 219.408 -29.065 220.084C-28.5566 220.128 -28.0451 220.126 -27.537 220.078C-25.5015 219.853 -23.6083 218.924 -22.184 217.453C-21.8361 217.088 -21.5161 216.686 -21.1937 216.287C-20.4919 215.329 -19.6494 214.483 -18.6946 213.777C-18.141 213.41 -17.5352 213.128 -16.8977 212.941C-18.7058 209.549 -20.9967 206.437 -23.6988 203.703ZM-15.3986 220.21C-15.1871 218.635 -15.3417 217.032 -15.8503 215.527C-16.3114 215.628 -16.7502 215.812 -17.1454 216.07C-17.8675 216.628 -18.5059 217.287 -19.0413 218.026C-19.4073 218.48 -19.7761 218.933 -20.1785 219.359C-22.0565 221.306 -24.5549 222.535 -27.2427 222.837C-27.5275 222.866 -27.8072 222.862 -28.0887 222.871C-27.0626 224.601 -25.3242 225.789 -23.3394 226.117C-19.5168 226.673 -15.965 224.031 -15.3986 220.21ZM-23.7724 228.851C-24.6223 228.713 -25.4495 228.46 -26.2313 228.1L-30.5898 238.897C-30.5939 238.923 -30.5982 238.951 -30.6133 238.975L-26.8712 239.568C-26.1164 239.687 -25.6015 240.396 -25.721 241.151C-25.8406 241.906 -26.5495 242.421 -27.3043 242.301L-31.2377 241.678C-31.246 241.775 -31.268 241.869 -31.2831 241.965L-33.404 279.036C-33.4534 279.895 -32.844 280.651 -31.9944 280.786C-31.1448 280.92 -30.3314 280.389 -30.1129 279.557L-20.6829 243.644C-20.6582 243.55 -20.6526 243.453 -20.6375 243.357L-21.8374 243.167C-22.5922 243.048 -23.1072 242.339 -22.9876 241.584C-22.868 240.829 -22.1592 240.314 -21.4044 240.434L-20.3958 240.594C-20.3917 240.568 -20.3873 240.54 -20.3955 240.512L-21.2018 228.896C-22.0568 228.998 -22.9216 228.982 -23.7724 228.851ZM3.23341 221.422C1.99453 223.732 2.20338 226.55 3.76925 228.652L9.46833 236.48C11.7678 239.652 11.9314 243.897 9.88297 247.237C7.83454 250.577 3.97691 252.355 0.10694 251.743C-2.43189 251.346 -4.70645 249.95 -6.20967 247.866L-11.8916 240.045C-13.2561 238.137 -15.5046 237.063 -17.8464 237.201L-17.6285 240.317C-17.5345 241.671 -17.6624 243.032 -18.0072 244.344L-23.3374 264.645C-19.2365 275.333 -10.1126 283.299 1.03075 285.921C12.1741 288.543 23.8928 285.481 32.3289 277.743C42.7622 268.184 46.321 253.235 41.3137 240.001C36.3064 226.767 23.743 217.918 9.5958 217.661C6.92526 217.575 4.44593 219.041 3.23341 221.422Z" fill="#FFD9EE"/>
<path d="M23.0876 223.709C23.5413 223.922 23.8444 224.363 23.8801 224.863C23.9157 225.363 23.6783 225.843 23.2594 226.118C22.8405 226.393 22.3056 226.42 21.8611 226.189C18.0099 224.284 13.7831 223.261 9.48718 223.192C8.72304 223.178 8.11515 222.547 8.12943 221.783C8.1437 221.018 8.77474 220.411 9.53888 220.425C14.2431 220.499 18.8716 221.621 23.0876 223.709Z" fill="#FFD9EE"/>
<path d="M22.1295 244.207C19.09 243.725 16.64 241.46 15.9216 238.467C15.2032 235.475 16.3577 232.344 18.847 230.534C19.4665 230.084 20.3336 230.222 20.7836 230.841C21.2337 231.461 21.0964 232.328 20.4768 232.778C19.4375 233.533 18.7407 234.67 18.5398 235.939C18.3388 237.207 18.65 238.504 19.4051 239.543C21.0121 241.65 23.9909 242.122 26.1703 240.615C27.2096 239.86 27.9064 238.723 28.1074 237.454C28.3084 236.185 27.9971 234.889 27.2421 233.85C26.8091 233.231 26.9515 232.38 27.5622 231.936C28.1729 231.493 29.0265 231.62 29.4807 232.223C31.2863 234.714 31.4147 238.047 29.8061 240.67C28.1974 243.292 25.1682 244.688 22.1295 244.207Z" fill="#FFD9EE"/>
<path d="M23.8233 252.213C24.2228 251.912 24.7535 251.85 25.2115 252.05C25.6695 252.251 25.9836 252.683 26.033 253.181C26.0823 253.679 25.8593 254.164 25.4497 254.451C24.4104 255.206 23.7136 256.343 23.5126 257.612C23.3116 258.881 23.6229 260.177 24.378 261.216C25.985 263.323 28.9637 263.795 31.1432 262.288C32.1825 261.533 32.8793 260.396 33.0803 259.128C33.2813 257.859 32.97 256.562 32.2149 255.523C31.914 255.124 31.852 254.593 32.0528 254.135C32.2535 253.677 32.6858 253.363 33.1835 253.313C33.6812 253.264 34.1667 253.487 34.4536 253.897C36.2629 256.387 36.3939 259.722 34.7854 262.347C33.177 264.971 30.1459 266.368 27.1056 265.887C24.0652 265.405 21.6144 263.139 20.896 260.146C20.1775 257.153 21.3329 254.022 23.8233 252.213Z" fill="#FFD9EE"/>
<path d="M-7.28433 270.691C-10.3245 270.209 -12.7752 267.944 -13.4937 264.95C-14.2122 261.957 -13.0569 258.826 -10.5666 257.017C-9.9483 256.584 -9.09705 256.726 -8.65338 257.337C-8.20971 257.948 -8.33734 258.801 -8.94024 259.256C-9.97954 260.01 -10.6763 261.147 -10.8773 262.416C-11.0783 263.685 -10.767 264.981 -10.012 266.021C-8.40498 268.127 -5.4262 268.599 -3.24677 267.092C-2.20747 266.337 -1.51067 265.201 -1.30968 263.932C-1.10869 262.663 -1.41997 261.366 -2.17504 260.327C-2.60803 259.709 -2.46557 258.858 -1.85487 258.414C-1.24417 257.97 -0.390572 258.098 0.0636435 258.701C1.87279 261.191 2.00368 264.526 0.395276 267.151C-1.21313 269.775 -4.24409 271.172 -7.28433 270.691Z" fill="#FFD9EE"/>
<path d="M9.42165 267.189C9.87063 267.807 9.73358 268.672 9.1155 269.122C8.0762 269.877 7.3794 271.013 7.1784 272.282C6.97741 273.551 7.28869 274.848 8.04376 275.887C9.65076 277.993 12.6295 278.465 14.809 276.959C15.8483 276.204 16.5451 275.067 16.7461 273.798C16.9471 272.529 16.6358 271.233 15.8807 270.193C15.4477 269.575 15.5902 268.724 16.2009 268.28C16.8116 267.836 17.6652 267.964 18.1194 268.567C19.9287 271.057 20.0597 274.392 18.4512 277.017C16.8428 279.642 13.8117 281.039 10.7714 280.557C7.73104 280.076 5.28022 277.81 4.56175 274.817C3.84329 271.823 4.99866 268.692 7.48912 266.883C8.10734 266.434 8.97247 266.571 9.42165 267.189Z" fill="#FFD9EE"/>
<path d="M162.888 -32.2378C149.783 -43.4621 130.708 -44.2882 116.682 -34.239C107.991 -28.035 102.401 -18.3825 101.344 -7.75717C101.275 -7.07707 101.223 -6.39796 101.19 -5.71982C100.584 6.33913 105.871 17.9413 115.369 25.3966L103.672 26.0032C101.394 26.1217 99.5756 27.9471 99.4662 30.2262C99.3568 32.5052 100.992 34.4964 103.249 34.8325L139.975 40.2938C141.317 40.4936 142.683 40.4726 144.018 40.2315L156.008 38.0694C157.685 41.002 160.745 42.8735 164.119 43.0303C166.56 43.0611 168.977 42.5517 171.198 41.5386C173.553 40.6264 175.585 39.8401 178.467 40.6073C179.684 40.9458 180.983 40.4929 181.726 39.4712C182.379 38.5636 182.374 37.3396 181.715 36.4368C175.914 28.1095 170.461 23.9398 165.048 23.68C161.674 23.5138 158.449 25.0835 156.499 27.8414L150.449 26.138C151.328 22.9548 150.499 19.5436 148.258 17.1182L141.758 9.96266C140.522 8.60406 139.877 6.80981 139.965 4.97528C140.053 3.14074 140.867 1.41649 142.227 0.182479C145.062 -2.37572 149.429 -2.16611 152.006 0.651743L158.507 7.82255C160.96 10.5464 164.751 11.6347 168.276 10.627C171.856 9.62241 174.551 6.66506 175.219 3.00698C177.737 -10.1033 173.03 -23.5564 162.888 -32.2378ZM179.387 37.932C179.318 37.9534 179.245 37.9538 179.176 37.933C176.158 37.2095 172.982 37.5705 170.203 38.9529C168.341 39.825 166.308 40.2735 164.252 40.266C163.57 40.2239 162.898 40.0838 162.256 39.8502C162.316 39.3433 162.422 38.843 162.573 38.3554C163.208 36.4084 164.503 34.7439 166.233 33.6491C166.662 33.3828 167.12 33.1513 167.576 32.9169C168.657 32.4249 169.657 31.7723 170.542 30.9812C171.015 30.514 171.414 29.9784 171.727 29.3923C174.68 31.8533 177.26 34.7298 179.387 37.932ZM164.915 26.4444C166.501 26.558 168.038 27.0357 169.409 27.8403C169.216 28.2712 168.947 28.6634 168.614 28.9977C167.92 29.591 167.145 30.0819 166.312 30.4554C165.793 30.7215 165.275 30.9903 164.775 31.2974C162.487 32.7398 160.774 34.9354 159.932 37.5055C159.846 37.7784 159.792 38.0529 159.726 38.3268C158.241 36.9698 157.432 35.0259 157.515 33.016C157.749 29.1602 161.059 26.2208 164.915 26.4444ZM154.751 32.8833C154.713 33.7434 154.792 34.6048 154.986 35.4436L143.526 37.512C143.5 37.5107 143.473 37.5094 143.446 37.5192L143.627 33.7349C143.664 32.9715 143.075 32.323 142.312 32.2864C141.548 32.2497 140.9 32.8389 140.863 33.6022L140.672 37.5801C140.576 37.5685 140.479 37.5708 140.382 37.5661L103.656 32.0938C102.805 31.9673 102.188 31.2166 102.23 30.3574C102.271 29.4981 102.956 28.81 103.816 28.7655L140.896 26.8461C140.994 26.8411 141.09 26.8554 141.187 26.86L141.128 28.0736C141.092 28.8369 141.681 29.4854 142.444 29.522C143.208 29.5587 143.856 28.9696 143.893 28.2062L143.942 27.1862C143.968 27.1874 143.996 27.1888 144.021 27.2025L155.23 30.3572C154.956 31.1737 154.795 32.0235 154.751 32.8833ZM167.523 7.95599C165.009 8.69854 162.293 7.92023 160.554 5.95913L154.05 -1.21458C151.413 -4.11183 147.29 -5.13634 143.603 -3.81093C139.916 -2.48551 137.39 0.929182 137.201 4.84262C137.072 7.40906 137.976 9.92023 139.71 11.8163L146.21 18.9719C147.801 20.6963 148.394 23.1165 147.783 25.3811L144.775 24.5331C143.469 24.1653 142.111 24.0136 140.756 24.0839L119.795 25.1685C110.166 18.9772 104.225 8.42227 103.927 -3.02146C103.629 -14.4652 109.014 -25.3148 118.307 -31.9985C129.79 -40.2668 145.15 -40.707 157.087 -33.1098C169.024 -25.5126 175.13 -11.4104 172.501 2.49279C172.041 5.12477 170.101 7.25371 167.523 7.95599Z" fill="#FFD9EE"/>
<path d="M169.328 -11.9478C169.212 -12.4353 168.841 -12.822 168.359 -12.9587C167.877 -13.0955 167.358 -12.9608 167.004 -12.6067C166.649 -12.2526 166.514 -11.7344 166.65 -11.252C167.73 -7.09368 167.872 -2.74698 167.064 1.47287C166.923 2.22391 167.417 2.94756 168.168 3.08918C168.919 3.23081 169.642 2.73678 169.784 1.98574C170.67 -2.63494 170.514 -7.39495 169.328 -11.9478Z" fill="#FFD9EE"/>
<path d="M117.145 8.22028C116.997 11.2949 118.716 14.1556 121.5 15.4685C124.284 16.7814 127.585 16.2879 129.864 14.2183C130.414 13.7011 130.447 12.8386 129.94 12.2799C129.432 11.7212 128.571 11.6723 128.003 12.1701C127.052 13.0339 125.797 13.4846 124.514 13.423C123.231 13.3614 122.025 12.7926 121.161 11.8418C119.426 9.83947 119.571 6.82701 121.49 5.00007C122.441 4.13628 123.696 3.68559 124.979 3.74716C126.262 3.80873 127.468 4.37752 128.332 5.32839C128.849 5.87821 129.711 5.91209 130.27 5.40452C130.829 4.89696 130.877 4.03526 130.38 3.46779C128.31 1.18944 125.071 0.382194 122.174 1.42247C119.277 2.46274 117.292 5.14568 117.145 8.22028Z" fill="#FFD9EE"/>
<path d="M886.877 -3.33007C876.294 10.2979 876.383 29.3906 887.093 42.9191C893.707 51.3022 903.616 56.4236 914.28 56.9697C914.963 57.0066 915.643 57.0256 916.322 57.0265C928.396 57.053 939.732 51.216 946.723 41.3721L947.89 53.026C948.117 55.2963 950.028 57.025 952.31 57.025C954.591 57.025 956.502 55.2963 956.729 53.026L960.424 16.0798C960.559 14.7299 960.473 13.3669 960.168 12.0448L957.434 0.172213C960.282 -1.6433 962.005 -4.78951 962 -8.16767C961.914 -10.607 961.289 -12.9971 960.171 -15.1667C959.147 -17.4748 958.264 -19.4674 958.892 -22.383C959.172 -23.6147 958.657 -24.8907 957.601 -25.5836C956.663 -26.1918 955.441 -26.1287 954.571 -25.4272C946.531 -19.2335 942.627 -13.5864 942.627 -8.16767C942.623 -4.7897 944.346 -1.64385 947.194 0.172213L945.782 6.2967C942.561 5.57169 939.193 6.56286 936.878 8.91753L930.042 15.7533C928.744 17.0529 926.983 17.7831 925.146 17.7831C923.31 17.7831 921.549 17.0529 920.251 15.7533C917.56 13.0447 917.56 8.67176 920.251 5.96322L927.102 -0.873905C929.705 -3.45521 930.61 -7.29392 929.435 -10.7664C928.26 -14.2944 925.177 -16.8443 921.491 -17.3364C908.275 -19.2223 895.063 -13.876 886.877 -3.33007ZM956.176 -23.1731C956.2 -23.1057 956.204 -23.0324 956.187 -22.9628C955.609 -19.9134 956.122 -16.7579 957.636 -14.0486C958.596 -12.2304 959.141 -10.2219 959.232 -8.16767C959.223 -7.48469 959.115 -6.80661 958.913 -6.15431C958.404 -6.18987 957.899 -6.27185 957.405 -6.39923C955.429 -6.94018 953.705 -8.15334 952.528 -9.82956C952.242 -10.2447 951.989 -10.6916 951.733 -11.1358C951.189 -12.1916 950.489 -13.1591 949.657 -14.0057C949.168 -14.4551 948.613 -14.8283 948.013 -15.1127C950.33 -18.1803 953.079 -20.8954 956.176 -23.1731ZM945.395 -8.16767C945.433 -9.75655 945.836 -11.3154 946.574 -12.723C947.014 -12.5512 947.418 -12.3008 947.768 -11.9841C948.394 -11.3196 948.921 -10.5689 949.334 -9.75483C949.625 -9.24976 949.918 -8.74469 950.249 -8.26038C951.8 -6.04419 954.075 -4.43851 956.682 -3.72029C956.959 -3.64695 957.236 -3.60682 957.512 -3.55424C956.228 -2.00589 954.325 -1.10432 952.314 -1.09115C948.451 -1.13978 945.357 -4.30503 945.395 -8.16767ZM952.314 1.67635C953.175 1.67336 954.031 1.55326 954.86 1.31934L957.475 12.6661C957.475 12.6924 957.475 12.7201 957.486 12.7464H953.697C952.933 12.7464 952.314 13.3659 952.314 14.1301C952.314 14.8944 952.933 15.5139 953.697 15.5139H957.68C957.673 15.6107 957.68 15.7076 957.68 15.8045L953.974 52.7507C953.889 53.6066 953.168 54.2585 952.308 54.2585C951.448 54.2585 950.728 53.6066 950.642 52.7507L946.948 15.8045C946.938 15.7076 946.948 15.6107 946.948 15.5139H948.162C948.927 15.5139 949.546 14.8944 949.546 14.1301C949.546 13.3659 948.927 12.7464 948.162 12.7464H947.141C947.141 12.7201 947.141 12.6924 947.154 12.6661L949.768 1.31934C950.596 1.55326 951.453 1.67336 952.314 1.67635ZM926.803 -9.88629C927.665 -7.41096 927.018 -4.66032 925.142 -2.82915L918.289 4.01074C915.521 6.78414 914.695 10.9509 916.196 14.5701C917.697 18.1894 921.228 20.5493 925.146 20.5507C927.716 20.5561 930.181 19.5331 931.992 17.7099L938.828 10.8742C940.474 9.20294 942.863 8.49389 945.154 8.99641L944.451 12.0407C944.147 13.3632 944.06 14.7266 944.195 16.0771L946.283 36.9621C940.561 46.8766 930.303 53.317 918.886 54.1629C907.47 55.0089 896.375 50.1508 889.253 41.188C880.444 30.1152 879.268 14.7933 886.284 2.50587C893.301 -9.78152 907.094 -16.5558 921.107 -14.5966C923.758 -14.2632 925.978 -12.4276 926.803 -9.88629Z" fill="#FFD9EE"/>
<path d="M904.574 9.66239C907.652 9.66173 910.426 7.80768 911.604 4.96445C912.782 2.12122 912.131 -1.15153 909.956 -3.32828C909.414 -3.86974 908.536 -3.86974 907.995 -3.32828C907.454 -2.78683 907.454 -1.90896 907.995 -1.36751C908.903 -0.459229 909.414 0.772717 909.414 2.05728C909.414 3.34185 908.903 4.57379 907.995 5.48207C906.078 7.31127 903.062 7.31127 901.145 5.48207C900.237 4.57379 899.727 3.34185 899.727 2.05728C899.727 0.772717 900.237 -0.459229 901.145 -1.36751C901.67 -1.91046 901.662 -2.77352 901.129 -3.30728C900.595 -3.84104 899.732 -3.84854 899.189 -3.32413C897.016 -1.14646 896.367 2.12537 897.546 4.96716C898.724 7.80895 901.498 9.66174 904.574 9.66239Z" fill="#FFD9EE"/>
<path d="M901.649 17.3033C901.302 16.9436 900.787 16.7994 900.303 16.926C899.82 17.0526 899.442 17.4305 899.315 17.9143C899.188 18.3981 899.333 18.9125 899.692 19.26C900.601 20.1682 901.111 21.4002 901.111 22.6848C901.111 23.9693 900.601 25.2013 899.692 26.1095C897.776 27.9387 894.76 27.9387 892.843 26.1095C891.934 25.2013 891.424 23.9693 891.424 22.6848C891.424 21.4002 891.934 20.1682 892.843 19.26C893.203 18.9125 893.347 18.3981 893.22 17.9143C893.094 17.4305 892.716 17.0526 892.232 16.926C891.748 16.7994 891.234 16.9436 890.886 17.3033C888.709 19.4799 888.058 22.7534 889.236 25.5974C890.414 28.4413 893.189 30.2956 896.268 30.2956C899.346 30.2956 902.121 28.4413 903.299 25.5974C904.477 22.7534 903.826 19.4799 901.649 17.3033Z" fill="#FFD9EE"/>
<path d="M929.482 40.4215C932.56 40.4214 935.335 38.5671 936.513 35.7233C937.691 32.8795 937.04 29.6061 934.863 27.4295C934.32 26.905 933.457 26.9125 932.923 27.4463C932.39 27.9801 932.382 28.8431 932.907 29.3861C933.815 30.2944 934.325 31.5263 934.325 32.8109C934.325 34.0954 933.815 35.3274 932.907 36.2357C930.99 38.0648 927.974 38.0648 926.057 36.2357C925.149 35.3274 924.638 34.0954 924.638 32.8109C924.638 31.5263 925.149 30.2944 926.057 29.3861C926.581 28.8431 926.574 27.9801 926.04 27.4463C925.506 26.9125 924.643 26.905 924.1 27.4295C921.924 29.6061 921.273 32.8795 922.451 35.7233C923.629 38.5671 926.404 40.4214 929.482 40.4215Z" fill="#FFD9EE"/>
<path d="M913.53 34.3485C912.99 34.8889 912.99 35.7648 913.53 36.3051C914.438 37.2134 914.948 38.4454 914.948 39.7299C914.948 41.0145 914.438 42.2464 913.53 43.1547C911.613 44.9839 908.597 44.9839 906.68 43.1547C905.772 42.2464 905.262 41.0145 905.262 39.7299C905.262 38.4454 905.772 37.2134 906.68 36.3051C907.205 35.7622 907.197 34.8991 906.663 34.3654C906.13 33.8316 905.267 33.8241 904.724 34.3485C902.547 36.5251 901.896 39.7986 903.074 42.6425C904.252 45.4865 907.027 47.3408 910.105 47.3408C913.183 47.3408 915.958 45.4865 917.136 42.6425C918.314 39.7986 917.663 36.5251 915.486 34.3485C914.946 33.8083 914.07 33.8083 913.53 34.3485Z" fill="#FFD9EE"/>
<g clip-path="url(#clip1)">
<path d="M601.948 20.222C601.952 20.2172 601.957 20.2129 601.961 20.2079L633.116 -16.8128C634.331 -18.2549 634.289 -20.4707 633.021 -21.8571C631.754 -23.2436 629.728 -23.289 628.41 -21.9608L605.503 1.10081C605.122 1.48417 605.097 2.13235 605.448 2.54879C605.798 2.9651 606.391 2.99203 606.772 2.60881L629.679 -20.4532C630.256 -21.0342 631.142 -21.0143 631.696 -20.4078C632.251 -19.8014 632.269 -18.8322 631.737 -18.201L601.244 18.034L600.448 17.1636L596.549 12.9L603.54 5.86272C603.92 5.47936 603.945 4.83118 603.594 4.41473C603.244 3.99842 602.651 3.97149 602.271 4.35471L594.562 12.1153C594.557 12.1201 594.553 12.1254 594.548 12.1302C594.544 12.1352 594.539 12.1395 594.534 12.1445L585.645 21.8669C583.274 21.26 580.698 21.5821 578.414 22.9877C575.698 24.6592 573.865 27.1936 573.113 30.3165C572.743 31.8573 572.732 33.4051 572.722 34.9019C572.721 35.1156 572.72 35.3293 572.717 35.5426C572.698 37.2014 572.564 38.4111 571.936 39.6849C571.798 39.9638 571.552 40.278 571.292 40.6106C570.615 41.4747 569.688 42.6581 570.103 44.2563C570.662 46.4016 572.657 46.92 574.615 46.92C574.638 46.92 574.66 46.9195 574.683 46.9194C574.701 46.9206 591.515 46.9225 591.515 46.9225C592.032 46.9225 592.452 46.4638 592.452 45.8977C592.452 45.3315 592.032 44.873 591.515 44.873H584.132C585.615 44.2182 587.164 43.2698 588.46 42.2141C589.201 41.611 589.833 40.9941 590.338 40.3806C591.585 38.8665 592.453 37.1913 592.932 35.4659H600.204C600.944 35.4659 601.546 36.1243 601.546 36.9337C601.546 38.8732 602.989 40.4511 604.762 40.4511H607.699C608.814 40.4511 609.721 41.4428 609.721 42.6621C609.721 43.8813 608.814 44.8731 607.699 44.8731H595.862C595.345 44.8731 594.926 45.3318 594.926 45.8978C594.926 46.4638 595.345 46.9226 595.862 46.9226H607.699C609.847 46.9226 611.595 45.0113 611.595 42.6621C611.595 40.3128 609.847 38.4015 607.699 38.4015H604.762C604.022 38.4015 603.42 37.7431 603.42 36.9337C603.42 34.9942 601.978 33.4163 600.204 33.4163H593.313C593.427 32.2339 593.361 31.0481 593.107 29.8932L601.934 20.2384C601.939 20.2332 601.943 20.2275 601.948 20.222ZM588.946 39.0092C588.523 39.5225 587.983 40.0476 587.342 40.5703C586.037 41.6323 584.385 42.61 582.923 43.1854C581.6 43.7058 580.229 44.0714 578.846 44.3399C577.443 44.6121 575.909 44.888 574.483 44.8713C573.645 44.8616 572.191 44.7931 571.906 43.6944C571.78 43.2088 572.07 42.7675 572.715 41.9442C573.028 41.544 573.352 41.1301 573.585 40.6578C574.47 38.8633 574.584 36.907 574.596 34.917C574.606 33.4837 574.615 32.1299 574.926 30.8384C575.545 28.2644 577.069 26.1672 579.333 24.7739C580.601 23.9935 581.98 23.6232 583.341 23.6232C586.208 23.6232 588.995 25.2682 590.498 28.1897C592.243 31.5812 591.648 35.7267 588.946 39.0092ZM592.406 27.7618C592.319 27.5679 592.229 27.375 592.131 27.1846C591.06 25.1026 589.457 23.551 587.613 22.6127L595.196 14.3185L599.947 19.5138L592.406 27.7618Z" fill="#FFD9EE"/>
</g>
<g clip-path="url(#clip2)">
<path d="M818.526 172.325C818.528 172.319 818.53 172.313 818.531 172.307L828.389 125.524C828.774 123.701 827.661 121.914 825.856 121.454C824.05 120.995 822.218 122.034 821.686 123.819L812.418 154.82C812.264 155.335 812.557 155.877 813.072 156.031C813.587 156.185 814.13 155.893 814.284 155.377L823.551 124.376C823.784 123.595 824.586 123.141 825.376 123.342C826.165 123.543 826.652 124.324 826.484 125.122L816.835 170.912L815.701 170.624L810.149 169.211L812.977 159.751C813.131 159.236 812.838 158.694 812.323 158.54C811.807 158.386 811.265 158.679 811.111 159.194L807.992 169.626C807.99 169.632 807.989 169.639 807.987 169.645C807.986 169.652 807.983 169.658 807.981 169.665L804.761 182.326C802.348 183.089 800.203 184.72 798.845 187.081C797.23 189.889 796.823 192.933 797.668 195.882C798.085 197.338 798.827 198.608 799.545 199.835C799.648 200.011 799.75 200.186 799.852 200.361C800.64 201.727 801.107 202.786 801.165 204.16C801.177 204.461 801.11 204.848 801.039 205.258C800.853 206.323 800.6 207.782 801.747 208.867C803.288 210.322 805.322 209.686 807.071 208.647C807.091 208.635 807.111 208.622 807.132 208.61C807.149 208.601 822.17 199.674 822.17 199.674C822.632 199.399 822.784 198.802 822.509 198.34C822.234 197.877 821.637 197.725 821.175 198L814.579 201.92C815.586 200.598 816.509 199.001 817.155 197.45C817.524 196.564 817.789 195.725 817.942 194.956C818.321 193.057 818.283 191.227 817.873 189.564L824.37 185.702C825.031 185.309 825.889 185.527 826.282 186.188C827.223 187.772 829.278 188.295 830.862 187.353L833.486 185.794C834.482 185.202 835.774 185.53 836.366 186.526C836.958 187.522 836.629 188.814 835.633 189.405L825.059 195.691C824.596 195.966 824.444 196.564 824.719 197.026C824.994 197.488 825.592 197.64 826.054 197.365L836.628 191.079C838.547 189.939 839.18 187.45 838.04 185.531C836.899 183.612 834.41 182.979 832.491 184.12L829.867 185.679C829.206 186.072 828.349 185.854 827.956 185.193C827.014 183.609 824.959 183.086 823.375 184.028L817.219 187.687C816.746 186.661 816.111 185.728 815.324 184.92L818.522 172.346C818.524 172.339 818.525 172.332 818.526 172.325ZM816.033 194.575C815.904 195.219 815.677 195.934 815.357 196.702C814.708 198.262 813.707 199.938 812.68 201.184C811.75 202.312 810.703 203.338 809.598 204.292C808.477 205.259 807.24 206.3 805.958 207.044C805.205 207.481 803.873 208.197 803.085 207.451C802.736 207.121 802.781 206.606 802.958 205.591C803.043 205.098 803.132 204.588 803.111 204.078C803.03 202.143 802.182 200.485 801.227 198.852C800.539 197.677 799.89 196.566 799.541 195.346C798.844 192.915 799.188 190.393 800.534 188.052C801.287 186.742 802.339 185.707 803.555 184.984C806.116 183.462 809.405 183.325 812.166 184.913C815.372 186.757 816.853 190.459 816.033 194.575ZM813.663 183.551C813.491 183.438 813.317 183.328 813.137 183.225C811.17 182.093 808.984 181.677 806.881 181.89L809.629 171.089L816.395 172.809L813.663 183.551Z" fill="#FFD9EE"/>
</g>
<g clip-path="url(#clip3)">
<path d="M172.804 173.874C172.799 173.87 172.793 173.866 172.788 173.861L134.696 141.388C133.211 140.124 132.991 137.93 134.194 136.395C135.396 134.859 137.579 134.548 139.162 135.687L166.671 155.457C167.128 155.785 167.232 156.422 166.904 156.88C166.575 157.337 165.938 157.441 165.481 157.113L137.972 137.343C137.28 136.844 136.325 136.98 135.799 137.652C135.272 138.324 135.369 139.283 136.019 139.837L173.302 171.62L174.057 170.657L177.757 165.935L169.362 159.902C168.905 159.573 168.801 158.936 169.13 158.479C169.458 158.022 170.095 157.918 170.552 158.246L179.81 164.899C179.815 164.903 179.82 164.908 179.826 164.912C179.831 164.916 179.838 164.92 179.843 164.924L190.611 173.359C193.098 172.449 195.919 172.429 198.555 173.518C201.689 174.812 203.973 177.075 205.16 180.06C205.745 181.533 205.941 183.06 206.132 184.537C206.159 184.748 206.186 184.959 206.214 185.169C206.434 186.805 206.724 187.982 207.555 189.157C207.737 189.415 208.041 189.693 208.362 189.987C209.197 190.752 210.34 191.799 210.083 193.432C209.736 195.623 207.643 196.397 205.529 196.654C205.505 196.657 205.48 196.659 205.455 196.662C205.436 196.666 187.275 198.873 187.275 198.873C186.716 198.941 186.208 198.543 186.14 197.984C186.073 197.425 186.471 196.917 187.03 196.849L195.004 195.881C193.323 195.429 191.537 194.695 190.01 193.823C189.137 193.324 188.381 192.798 187.762 192.258C186.234 190.927 185.095 189.386 184.371 187.745L176.515 188.699C175.716 188.796 175.145 189.525 175.242 190.325C175.474 192.24 174.105 193.987 172.19 194.22L169.018 194.605C167.814 194.752 166.953 195.85 167.099 197.054C167.246 198.258 168.344 199.119 169.548 198.972L182.333 197.42C182.892 197.352 183.4 197.75 183.468 198.309C183.536 198.868 183.138 199.376 182.579 199.444L169.794 200.996C167.474 201.278 165.357 199.62 165.075 197.3C164.794 194.98 166.452 192.863 168.772 192.581L171.944 192.196C172.743 192.099 173.315 191.37 173.218 190.57C172.985 188.655 174.354 186.908 176.269 186.675L183.713 185.771C183.448 184.618 183.378 183.439 183.514 182.265L172.821 173.888C172.815 173.884 172.81 173.878 172.804 173.874ZM189.101 190.721C189.619 191.173 190.265 191.621 191.021 192.053C192.557 192.93 194.459 193.679 196.108 194.056C197.599 194.396 199.123 194.577 200.65 194.661C202.197 194.746 203.887 194.817 205.426 194.613C206.33 194.494 207.892 194.235 208.068 193.113C208.146 192.617 207.78 192.219 206.985 191.491C206.598 191.137 206.198 190.77 205.89 190.335C204.719 188.678 204.362 186.761 204.109 184.798C203.927 183.384 203.755 182.048 203.265 180.813C202.287 178.352 200.389 176.481 197.777 175.402C196.313 174.798 194.78 174.613 193.31 174.792C190.213 175.168 187.4 177.158 186.126 180.24C184.648 183.818 185.788 187.834 189.101 190.721ZM184.015 180.068C184.085 179.865 184.159 179.663 184.242 179.462C185.149 177.265 186.695 175.523 188.574 174.354L179.388 167.158L174.881 172.912L184.015 180.068Z" fill="#FFD9EE"/>
</g>
<path d="M482.888 343.123C469.783 354.347 450.708 355.173 436.682 345.124C427.991 338.92 422.401 329.267 421.344 318.642C421.275 317.962 421.223 317.283 421.19 316.605C420.584 304.546 425.871 292.943 435.369 285.488L423.672 284.882C421.394 284.763 419.576 282.938 419.466 280.659C419.357 278.38 420.992 276.388 423.249 276.052L459.975 270.591C461.317 270.391 462.683 270.412 464.018 270.653L476.008 272.815C477.685 269.883 480.745 268.011 484.119 267.854C486.56 267.824 488.977 268.333 491.198 269.346C493.553 270.258 495.585 271.045 498.467 270.277C499.684 269.939 500.983 270.392 501.726 271.414C502.379 272.321 502.374 273.545 501.715 274.448C495.914 282.775 490.461 286.945 485.048 287.205C481.674 287.371 478.449 285.801 476.499 283.043L470.449 284.747C471.328 287.93 470.499 291.341 468.258 293.767L461.758 300.922C460.522 302.281 459.877 304.075 459.965 305.909C460.053 307.744 460.867 309.468 462.227 310.702C465.062 313.26 469.429 313.051 472.006 310.233L478.507 303.062C480.96 300.338 484.751 299.25 488.276 300.258C491.856 301.262 494.551 304.22 495.219 307.878C497.737 320.988 493.03 334.441 482.888 343.123ZM499.387 272.953C499.318 272.931 499.245 272.931 499.176 272.952C496.158 273.675 492.982 273.314 490.203 271.932C488.341 271.06 486.308 270.611 484.252 270.619C483.57 270.661 482.898 270.801 482.256 271.035C482.316 271.541 482.422 272.042 482.573 272.529C483.208 274.476 484.503 276.141 486.233 277.236C486.662 277.502 487.12 277.733 487.576 277.968C488.657 278.46 489.657 279.113 490.542 279.904C491.015 280.371 491.414 280.906 491.727 281.492C494.68 279.032 497.26 276.155 499.387 272.953ZM484.915 284.44C486.501 284.327 488.038 283.849 489.409 283.044C489.216 282.614 488.947 282.221 488.614 281.887C487.92 281.294 487.145 280.803 486.312 280.429C485.793 280.163 485.275 279.894 484.775 279.587C482.487 278.145 480.774 275.949 479.932 273.379C479.846 273.106 479.792 272.832 479.726 272.558C478.241 273.915 477.432 275.859 477.515 277.869C477.749 281.725 481.059 284.664 484.915 284.44ZM474.751 278.001C474.713 277.141 474.792 276.28 474.986 275.441L463.526 273.373C463.5 273.374 463.473 273.375 463.446 273.366L463.627 277.15C463.664 277.913 463.075 278.562 462.312 278.598C461.548 278.635 460.9 278.046 460.863 277.283L460.672 273.305C460.576 273.316 460.479 273.314 460.382 273.319L423.656 278.791C422.805 278.917 422.188 279.668 422.23 280.527C422.271 281.387 422.956 282.075 423.816 282.119L460.896 284.039C460.994 284.044 461.09 284.029 461.187 284.025L461.128 282.811C461.092 282.048 461.681 281.399 462.444 281.363C463.208 281.326 463.856 281.915 463.893 282.679L463.942 283.699C463.968 283.697 463.996 283.696 464.021 283.682L475.23 280.528C474.956 279.711 474.795 278.861 474.751 278.001ZM487.523 302.929C485.009 302.186 482.293 302.965 480.554 304.926L474.05 312.099C471.413 314.997 467.29 316.021 463.603 314.696C459.916 313.37 457.39 309.956 457.201 306.042C457.072 303.476 457.976 300.965 459.71 299.068L466.21 291.913C467.801 290.188 468.394 287.768 467.783 285.504L464.775 286.352C463.469 286.719 462.111 286.871 460.756 286.801L439.795 285.716C430.166 291.908 424.225 302.462 423.927 313.906C423.629 325.35 429.014 336.2 438.307 342.883C449.79 351.152 465.15 351.592 477.087 343.995C489.024 336.397 495.13 322.295 492.501 308.392C492.041 305.76 490.101 303.631 487.523 302.929Z" fill="#FFD9EE"/>
<path d="M437.145 302.664C436.997 299.59 438.716 296.729 441.5 295.416C444.284 294.103 447.585 294.597 449.864 296.667C450.414 297.184 450.447 298.046 449.94 298.605C449.432 299.164 448.571 299.212 448.003 298.715C447.052 297.851 445.797 297.4 444.514 297.462C443.231 297.523 442.025 298.092 441.161 299.043C439.426 301.045 439.571 304.058 441.49 305.885C442.441 306.748 443.696 307.199 444.979 307.138C446.262 307.076 447.468 306.507 448.332 305.556C448.849 305.007 449.711 304.973 450.27 305.48C450.829 305.988 450.877 306.85 450.38 307.417C448.31 309.695 445.071 310.503 442.174 309.462C439.277 308.422 437.292 305.739 437.145 302.664Z" fill="#FFD9EE"/>
<path d="M919.877 276.67C909.294 290.298 909.383 309.391 920.093 322.919C926.707 331.302 936.616 336.424 947.28 336.97C947.963 337.007 948.643 337.026 949.322 337.026C961.396 337.053 972.732 331.216 979.723 321.372L980.89 333.026C981.117 335.296 983.028 337.025 985.31 337.025C987.591 337.025 989.502 335.296 989.729 333.026L993.424 296.08C993.559 294.73 993.473 293.367 993.168 292.045L990.434 280.172C993.282 278.357 995.005 275.21 995 271.832C994.914 269.393 994.289 267.003 993.171 264.833C992.147 262.525 991.264 260.533 991.892 257.617C992.172 256.385 991.657 255.109 990.601 254.416C989.663 253.808 988.441 253.871 987.571 254.573C979.531 260.766 975.627 266.414 975.627 271.832C975.623 275.21 977.346 278.356 980.194 280.172L978.782 286.297C975.561 285.572 972.193 286.563 969.878 288.918L963.042 295.753C961.744 297.053 959.983 297.783 958.146 297.783C956.31 297.783 954.549 297.053 953.251 295.753C950.56 293.045 950.56 288.672 953.251 285.963L960.102 279.126C962.705 276.545 963.61 272.706 962.435 269.234C961.26 265.706 958.177 263.156 954.491 262.664C941.275 260.778 928.063 266.124 919.877 276.67ZM989.176 256.827C989.2 256.894 989.204 256.968 989.187 257.037C988.609 260.087 989.122 263.242 990.636 265.951C991.596 267.77 992.141 269.778 992.232 271.832C992.223 272.515 992.115 273.193 991.913 273.846C991.404 273.81 990.899 273.728 990.405 273.601C988.429 273.06 986.705 271.847 985.528 270.17C985.242 269.755 984.989 269.308 984.733 268.864C984.189 267.808 983.489 266.841 982.657 265.994C982.168 265.545 981.613 265.172 981.013 264.887C983.33 261.82 986.079 259.105 989.176 256.827ZM978.395 271.832C978.433 270.243 978.836 268.685 979.574 267.277C980.014 267.449 980.418 267.699 980.768 268.016C981.394 268.68 981.921 269.431 982.334 270.245C982.625 270.75 982.918 271.255 983.249 271.74C984.8 273.956 987.075 275.561 989.682 276.28C989.959 276.353 990.236 276.393 990.512 276.446C989.228 277.994 987.325 278.896 985.314 278.909C981.451 278.86 978.357 275.695 978.395 271.832ZM985.314 281.676C986.175 281.673 987.031 281.553 987.86 281.319L990.475 292.666C990.475 292.692 990.475 292.72 990.486 292.746H986.697C985.933 292.746 985.314 293.366 985.314 294.13C985.314 294.894 985.933 295.514 986.697 295.514H990.68C990.673 295.611 990.68 295.708 990.68 295.804L986.974 332.751C986.889 333.607 986.168 334.258 985.308 334.258C984.448 334.258 983.728 333.607 983.642 332.751L979.948 295.804C979.938 295.708 979.948 295.611 979.948 295.514H981.162C981.927 295.514 982.546 294.894 982.546 294.13C982.546 293.366 981.927 292.746 981.162 292.746H980.141C980.141 292.72 980.141 292.692 980.154 292.666L982.768 281.319C983.596 281.553 984.453 281.673 985.314 281.676ZM959.803 270.114C960.665 272.589 960.018 275.34 958.142 277.171L951.289 284.011C948.521 286.784 947.695 290.951 949.196 294.57C950.697 298.189 954.228 300.549 958.146 300.551C960.716 300.556 963.181 299.533 964.992 297.71L971.828 290.874C973.474 289.203 975.863 288.494 978.154 288.996L977.451 292.041C977.147 293.363 977.06 294.727 977.195 296.077L979.283 316.962C973.561 326.877 963.303 333.317 951.886 334.163C940.47 335.009 929.375 330.151 922.253 321.188C913.444 310.115 912.268 294.793 919.284 282.506C926.301 270.218 940.094 263.444 954.107 265.403C956.758 265.737 958.978 267.572 959.803 270.114Z" fill="#FFD9EE"/>
<path d="M939.835 269.266C939.354 269.405 938.985 269.794 938.872 270.282C938.758 270.77 938.918 271.281 939.289 271.618C939.659 271.956 940.183 272.066 940.659 271.907C944.76 270.629 949.095 270.279 953.349 270.883C954.106 270.989 954.805 270.461 954.911 269.704C955.016 268.947 954.488 268.248 953.731 268.142C949.073 267.479 944.326 267.863 939.835 269.266Z" fill="#FFD9EE"/>
<path d="M937.574 289.662C940.652 289.662 943.426 287.808 944.604 284.964C945.782 282.121 945.131 278.848 942.956 276.672C942.414 276.13 941.536 276.13 940.995 276.672C940.454 277.213 940.454 278.091 940.995 278.632C941.903 279.541 942.414 280.773 942.414 282.057C942.414 283.342 941.903 284.574 940.995 285.482C939.078 287.311 936.062 287.311 934.145 285.482C933.237 284.574 932.727 283.342 932.727 282.057C932.727 280.773 933.237 279.541 934.145 278.632C934.67 278.09 934.662 277.226 934.129 276.693C933.595 276.159 932.732 276.151 932.189 276.676C930.016 278.854 929.367 282.125 930.546 284.967C931.724 287.809 934.498 289.662 937.574 289.662Z" fill="#FFD9EE"/>
</g>
<defs>
<clipPath id="clip0">
<rect width="1004" height="294" rx="20" fill="white"/>
</clipPath>
<clipPath id="clip1">
<rect x="570" y="-23" width="64" height="70" fill="white"/>
</clipPath>
<clipPath id="clip2">
<rect x="769" y="153.986" width="66.5135" height="66.5135" transform="rotate(-30.7288 769 153.986)" fill="white"/>
</clipPath>
<clipPath id="clip3">
<rect width="69.6365" height="69.6365" transform="matrix(-0.992706 0.120559 0.120559 0.992706 202.128 127)" fill="white"/>
</clipPath>
</defs>
</svg>
